<svg xmlns="http://www.w3.org/2000/svg" xmlns:xlink="http://www.w3.org/1999/xlink" width="230" height="210" viewBox="0 0 230 210"><style>.st0{display:none}.st1{display:inline}.st2,.st3{fill:none;stroke:#333;stroke-miterlimit:10;stroke-dasharray:4.0127,4.0127}.st3{stroke-dasharray:3.9798,3.9798}.st4{fill:#b00d23}.st5{fill:#fff}.st6{fill:#160d37;stroke:#fff;stroke-width:2;stroke-miterlimit:10}.st7{fill:#999}.st8{fill:#160d37}.st9{fill:#1e1348}.st10{opacity:.26;fill:#160d37}.st11{fill:#1d1d1b}.st12{fill:#2b2523}.st13,.st14,.st15{fill-rule:evenodd;clip-rule:evenodd;fill:#2b2523}.st14{clip-path:url(#SVGID_2_)}.st15{clip-path:url(#SVGID_4_)}</style><g id="Layer_1" class="st0"><g class="st1"><circle class="st2" cx="105.71" cy="105.51" r="90.68"/><circle class="st3" cx="105.89" cy="105.33" r="102.61"/><circle class="st4" cx="105.48" cy="105.74" r="81.9"/><path class="st5" d="M138.22 141.83H87.63a5.06 5.06 0 1 1 0-10.12h50.59a5.06 5.06 0 1 1 0 10.12zm0 0"/><path class="st5" d="M148.34 136.77c0 5.59-4.53 10.12-10.12 10.12-5.59 0-10.12-4.53-10.12-10.12 0-5.59 4.53-10.11 10.12-10.11 5.59-.01 10.12 4.52 10.12 10.11zm-4.7-55.63l-70.82-5.06c-1.61-.11-3.25.57-4.29 1.86a5.073 5.073 0 0 0-.94 4.58l10.12 35.41a5.067 5.067 0 0 0 4.87 3.67h50.59c8.37 0 15.18-6.81 15.18-15.18V86.18a5.072 5.072 0 0 0-4.71-5.04zm0 0"/><path class="st5" d="M148.34 76.07H74.25l-2.01-6.55c-.03-.09-.09-.14-.12-.23-.12-.34-.31-.62-.5-.93-.17-.26-.31-.53-.51-.76-.22-.23-.48-.4-.73-.59-.27-.2-.52-.41-.82-.56-.26-.12-.53-.17-.81-.25-.36-.1-.71-.2-1.1-.22-.08 0-.15-.05-.24-.05H57.28a5.06 5.06 0 1 0 0 10.12h6.38l19.13 62.19a5.063 5.063 0 0 0 4.84 3.58c.49 0 .99-.07 1.49-.23a5.058 5.058 0 0 0 3.35-6.32l-15.11-49.1h70.98a5.06 5.06 0 0 0 5.06-5.06c0-2.78-2.27-5.04-5.06-5.04zm0 0"/><path class="st5" d="M92.69 136.77c0 5.59-4.53 10.12-10.12 10.12-5.59 0-10.11-4.53-10.11-10.12 0-5.59 4.53-10.11 10.11-10.11 5.59-.01 10.12 4.52 10.12 10.11zm0 0"/><path class="st6" d="M163.98 111.29l14.74 52.19 13.5-12.9 23.63 23.63 10.87-12.46-22.83-22.83 12.89-12.89z"/></g></g><g id="Layer_2" class="st0"><g class="st1"><path class="st7" d="M211.02 51.74l1.23.88h1.15v-2.21l3.62-.35 3.44 2.56h5.65l.4-.36c-.57-1.91-1.2-3.78-1.92-5.61l-3.69.06-1.85-2.03-.36-3.27-1.9 1.03-1.02 3.99-2.74-2.91-.11-2.75-2.64-2.28-.97-.97h-3.06l.96 2.73 3.69 2.06.64.68-.8.4.04 2.17-1.8.75-1.53-.34-.96-1.36 2.5.13.67-.91-5.53-3.73-.43-1.59-2.25 2.03-2.28-.47-3.46 4.51-.68 1.76-2.22.2-3.28.02-1.96-.92-.58-3.9.71-1.86 3.34-.73 3.64.73.45-2.01-1.55-.37.53-3.14 3.66-.57 2.56-3.62 2.65-.44 2.39.35h.88l-.49-3.4-2.9 1.17-1.02-2.54-1.68-.23-.32-1.74 1.37-1.5 3.27-1.28.84-1.5c-12.49-11-28.86-17.7-46.77-17.7-15.54 0-29.92 5.04-41.62 13.57l3.57-.03 1.59.88 3 .65.23 1.18 4.77.18-.65-1.53-4.24-.12 1-.94-.35-1.12h-3.83l4.18-3.12h4l1.88 2.59 3.12.18 1.88-1.83 1.41.71-2.59 2.53s-3.59.06-3.41.06c.18 0 .3 2.47.3 2.47l4.35-.12.47-1.17 3-.18.35-1.76-1.76-.3.59-1.59 1.35-.41 4.71.23-2.6 2.36.42 1.82 2.71.41-.18-3.3 2.59-1.36 4.59-.53 6.65 2.94v2.53l2.12.53-1.06 2h-3l-.89 2.29-6.85-1.62 5.39-2.87-2.05-1.75-4.65.59-.41.42-.02-.01-.07.1-1.34 1.39-2.21.18.18 1.1.77.32-.03.36-1.8.26-.11 1.1-1.72.09-.31-2.08-3.09.94-6.31 3.7.71 2.6 1.76 1.15 3.53.49v4.01l1.63-.26 1.5-3.14 3.75-1.19v-4.81l2.09-1.58 5.05 1.19-.35 3.18h1.36l3.71-1.82.18 4.18 2.7 1.65-.11 2.48-2.59.88.18.82 3.12 1.42-.06 1.71-.9.08c0-.03-.01-.05-.01-.05l-3.94-1.21-.17-1.26 1.15-.79v-1.15l-1.24-.31-.31 1.06-2.17.34-.22-.07v.11l-.75.11-.61-1.24-.71-.31h-1.55l-.7.58v1.28l1.32.44 1.31.18-.29.13-1.19 1.32-.52-.66-1.15-.3-3.14 2.95.41.34-4.63 2.57-4.36 4.53-.3 2.02-4.37 2.87-2.17 2.18.24 4.35-3-1.4.02-2.55h-8.36l-4.33 2.19-1.88 3.46-.75 2.75 1.22 2.66 3.41.42 5.42-3.62.47 1.8-1.65 3.12 4.12.71.41 6.37 5.65.96 3.59-4.15 4.36.89 1.53 2.13 4.18-.25.12-1.23 2.3 1.11 2.59 4.06 4.47.06 1.65 2.89.23 3.53 4.95 1.88 6.24.06 1.83 3 2.77.89-.53 2.48-3.03 3.85-.88 8.53-2.74 2.16-4.06-.12-1.35 2.35 1 4.42-4.42 5.65-1.41 2.59-4.21 2.02-2.77.42-.11 1.17 1.94.56-.23 1.27-1.74 1.68 1.06 1.33 2.09.06-.12 1.61-.56 1.59-.18 1.29 3.1 2.61-.41 1.36-4.22-.08-4.19-3.66-3.27-5.74.46-5.54-2.47-3.3 1-5.59-1.47-.41V101.5s-4.12-3.12-4.36-3.12-2.18-.53-2.18-.53l-.41-2.29-5.36-6.71.53-2.41.18-3.95 3.71-2.59-.53-4.42-5.41-.41-4.24-4.83-3-.83-1.94-.36.23-1.76-2.47-.35v1l-6.18-1.54-2.49-3.81 1.01-1.84-3.91-5.71-.67-4.18H98.5l.53 4.06 2.71 4.18-.3 1.65-2.29-.35-2.82-4.81v-5.6l-2.94-1.41V44.5a70.564 70.564 0 0 0-5.65 27.72c0 39.06 31.78 70.84 70.84 70.84 22.14 0 41.94-10.22 54.94-26.18h-2.34v-4.71l-2.7-3.64v-5.66l-2.06-2.06-.18-2.36 2.62-5-4.97-8.77.58-5.95-4.47-.46-1.65-1.65h-3.01l-1.53 1.41h-5.3l-.18.47h-2.95l-6.76-7.71.06-6.01 1.12-.41.42-2.3h-1.59l-.65-2.41 7.83-5.65v-4l3.83-2.13 1.55.15h3.15l2.47-1.32 7.95-.62v4.06l6.26 1.59zm-19.87-25.25l.65-1 2.33-.47.58 2.83 1.24 2 .82.95 1.5.59-1.41 1.68-2.74.26h-2.06l.23-2.44 1.71-.35-.14-1.15-1.6-1-1.11-.76v-1.14zm-3.82 4.41l1.41-2.27 1.91-.44 1.36.59-.12 1.53-2.91 2.06h-1.64l-.01-1.47zm-38.49 8.72l-1.48.12.08-1.03.66-.82.89.7-.15 1.03zm5.17-1.81l-1.01.09-.2.97-.78.48-1.24.1-.07-.51h-.48v-1.05h2.03l.42-1.08.81-.02.92.19-.4.83z"/><path class="st8" d="M78.46 182.93l59.82-13.06c1.89-.38 3.22-2.46 2.84-4.35l-12.49-56.6c-.38-1.89-2.46-3.22-4.35-2.84l-59.82 13.06c-1.89.38-3.22 2.46-2.84 4.35l12.49 56.6c.37 2.08 2.26 3.22 4.35 2.84z"/><path class="st9" d="M69.31 192.4l76.29-16.66c1.7-.38 2.84-2.08 2.46-3.79-.38-1.7-2.08-2.84-3.79-2.46L71.2 185.58 45.83 70.3c-.19-.76-.76-1.51-1.33-1.89L8.35 45.31c-1.51-.94-3.4-.57-4.35.95-.95 1.51-.57 3.41.95 4.35l35.02 22.34 25.74 116.99c.38 1.7 1.89 2.83 3.6 2.46z"/><circle class="st8" cx="68.6" cy="189.32" r="19.29"/><circle class="st10" cx="68.74" cy="189.37" r="14.58"/><circle class="st5" cx="68.74" cy="189.37" r="12.49"/><path class="st9" d="M63.63 183.88c.38 1.51 1.7 0 3.79-.38 2.08-.38 3.98.19 3.6-1.33-.38-1.51-2.27-2.27-4.35-1.89-1.91.57-3.42 2.27-3.04 3.6zm10.22 10.79c-.38-1.51-1.7 0-3.79.38-2.08.38-3.98-.19-3.6 1.33.38 1.51 2.27 2.27 4.35 1.89 1.9-.57 3.23-2.09 3.04-3.6zm-10.41-.38c1.51-.38 0-1.7-.38-3.79-.38-2.08.19-3.98-1.33-3.6-1.51.38-2.27 2.27-1.89 4.35.57 2.09 2.08 3.42 3.6 3.04zm10.6-10.03c-1.51.38 0 1.7.38 3.79.38 2.08-.19 3.98 1.33 3.6 1.51-.38 2.27-2.27 1.89-4.35-.57-1.91-2.09-3.42-3.6-3.04z"/><circle class="st9" cx="68.74" cy="189.37" r="3.22"/><path class="st8" d="M63.19 117.91l45.62-10.03c1.51-.38 2.46-1.89 2.08-3.41l-9.46-43.16c-.38-1.51-1.89-2.46-3.41-2.08L52.4 69.26c-1.51.38-2.46 1.89-2.08 3.41l9.65 42.97c.19 1.51 1.7 2.46 3.22 2.27z"/><path transform="rotate(-12.381 76.492 69.822)" class="st9" d="M69.58 65.17H83.4v9.29H69.58z"/><path transform="rotate(-12.393 96.291 119.088)" class="st9" d="M86.48 112.48h19.59v13.22H86.48z"/><path class="st5" d="M107.16 122.47l-.22-1.02-6.89-1.38 1.85-.41 4.86.97-.14-.62-3.27-.67 2.97-.66-.15-.69-8.08 1.79 1.22 5.5 1.01-.22-.92-4.17zm-20.17-.23l.15.69 2.98-.66-2.68 1.99.21.96 4.68-3.44 1.85-.41-6.35 4.67.15.69 6.37-4.73.93 4.18 1.01-.23-1.22-5.5zm6.4-9.35l-1.01.22.92 4.18-7.76-1.59.25 1.12 6.65 1.33-1.86.41-4.61-.92.12.53 3.26.66-2.97.66.15.69 8.08-1.79zm12.32 3.04l-.15-.69-2.98.66 2.69-1.99-.22-.98-4.7 3.47-1.86.41 6.38-4.7-.15-.67-6.37 4.73-.92-4.18-1.01.23 1.22 5.5z"/><path class="st4" d="M106.17 117.99l-.46-2.06-8.07 1.79-1.22-5.5-3.03.67 1.22 5.5-8.08 1.79.46 2.06 8.08-1.79 1.22 5.5 3.02-.67-1.22-5.5z"/><path class="st4" d="M92.33 121.78l-4.68 3.44.18.82 6.35-4.67zm7.72-1.71l6.89 1.38-.18-.82-4.86-.97zm-7.61-1.92l-6.65-1.33.18.82 4.61.92zm7.91-1.75l4.7-3.47-.18-.82-6.38 4.7z"/><path class="st5" d="M84.06 71.16l-.15-.71-4.84-.95 1.31-.29 3.4.67-.1-.43-2.29-.46 2.09-.47-.11-.48-5.66 1.26.84 3.83.71-.16-.64-2.9zm-14.15-.13l.11.48 2.09-.47-1.89 1.39.15.67 3.29-2.4 1.3-.29-4.46 3.26.1.48 4.48-3.3.64 2.91.71-.16-.85-3.83zm4.5-6.52l-.71.15.65 2.91-5.45-1.1.17.78 4.67.92-1.3.29-3.24-.64.08.37 2.3.46-2.09.47.1.47 5.67-1.25zm8.64 2.1l-.1-.48-2.09.46 1.88-1.39-.15-.68-3.3 2.42-1.3.29 4.48-3.28-.11-.46-4.47 3.29-.64-2.9-.71.16.85 3.82z"/><path class="st4" d="M83.37 68.04l-.32-1.43-5.66 1.25-.85-3.82-2.13.47.85 3.83-5.67 1.25.32 1.44 5.67-1.26.85 3.83 2.12-.47-.84-3.83z"/><path class="st4" d="M73.66 70.7l-3.29 2.4.13.57 4.46-3.26zm5.41-1.2l4.84.95-.13-.57-3.4-.67zm-5.33-1.33l-4.67-.92.13.57 3.24.64zm5.55-1.23l3.3-2.42-.12-.57-4.48 3.28z"/></g></g><g id="Layer_3"><path class="st4" d="M5 53.05h2.23v103.7H5z"/><path class="st11" d="M24.88 109.83c2.92 0 5.17.74 6.75 2.23s2.36 3.76 2.36 6.8c0 1.59-.18 3.01-.53 4.24-.35 1.23-.9 2.27-1.65 3.11-.74.84-1.69 1.48-2.84 1.93-1.15.44-2.52.66-4.09.66h-6.51v-18.97h6.51zm.22 16.85c.28 0 .64-.02 1.06-.07.43-.04.88-.15 1.36-.32.48-.17.95-.41 1.42-.73s.89-.75 1.26-1.3.68-1.24.92-2.06c.24-.82.36-1.82.36-2.99 0-1.13-.11-2.15-.33-3.04-.22-.89-.58-1.66-1.09-2.29-.5-.63-1.16-1.11-1.95-1.43-.8-.33-1.78-.49-2.95-.49H20.9v14.72h4.2zm20.9 1.25c-1.03.78-2.32 1.17-3.88 1.17-1.1 0-2.05-.18-2.86-.53-.81-.35-1.48-.85-2.03-1.49-.55-.64-.96-1.4-1.24-2.29-.27-.89-.43-1.85-.46-2.9 0-1.04.16-2 .48-2.87.32-.87.77-1.62 1.34-2.26.58-.64 1.26-1.13 2.05-1.49.79-.35 1.65-.53 2.59-.53 1.22 0 2.24.25 3.04.76.81.5 1.45 1.15 1.94 1.93s.82 1.63 1.01 2.55c.19.92.26 1.8.23 2.63H37.92c-.02.6.05 1.17.21 1.71.16.54.42 1.02.77 1.43.35.42.81.75 1.36 1s1.2.37 1.94.37c.96 0 1.74-.22 2.35-.66.61-.44 1.01-1.12 1.21-2.02h2.23c-.3 1.55-.96 2.71-1.99 3.49zm-.55-8.82c-.2-.48-.48-.89-.82-1.24-.35-.35-.75-.62-1.22-.82-.47-.2-.99-.31-1.55-.31-.58 0-1.11.1-1.58.31-.47.2-.87.48-1.21.84-.34.35-.6.77-.8 1.24-.2.47-.31.97-.35 1.5h7.89c-.03-.54-.15-1.05-.36-1.52zm6.95-4.04v1.86h.05c.37-.76.96-1.32 1.75-1.66.8-.34 1.67-.52 2.63-.52 1.06 0 1.99.2 2.78.58.79.39 1.44.92 1.97 1.58.52.66.92 1.43 1.18 2.3.27.87.4 1.79.4 2.76 0 .97-.13 1.9-.39 2.76-.26.87-.65 1.63-1.17 2.27-.52.65-1.18 1.16-1.97 1.53-.79.37-1.7.56-2.75.56-.34 0-.71-.04-1.13-.11a6.21 6.21 0 0 1-1.24-.35c-.41-.16-.79-.38-1.16-.65-.36-.27-.67-.62-.92-1.02h-.03v7.07h-2.26v-18.97h2.26zm8.12 4.87c-.17-.61-.43-1.16-.77-1.63-.35-.48-.79-.86-1.33-1.14-.54-.28-1.17-.43-1.9-.43-.76 0-1.41.15-1.94.45-.53.3-.97.7-1.3 1.18-.34.49-.58 1.04-.73 1.66-.15.62-.23 1.25-.23 1.89 0 .67.08 1.32.24 1.95.16.63.41 1.18.76 1.66.35.48.79.86 1.34 1.16.55.29 1.21.44 1.99.44s1.43-.15 1.95-.45c.52-.3.94-.7 1.26-1.2.32-.5.55-1.06.69-1.7.14-.64.21-1.29.21-1.97.01-.63-.07-1.26-.24-1.87zm16.84 8.81c-.39.23-.93.35-1.62.35-.58 0-1.05-.16-1.39-.49-.35-.33-.52-.86-.52-1.61-.62.74-1.34 1.28-2.17 1.61-.82.33-1.71.49-2.67.49-.62 0-1.21-.07-1.77-.21s-1.04-.36-1.45-.66c-.41-.3-.73-.7-.97-1.18-.24-.49-.36-1.08-.36-1.77 0-.78.13-1.42.4-1.91.27-.5.62-.9 1.05-1.21.43-.31.93-.54 1.49-.7.56-.16 1.13-.29 1.71-.4.62-.12 1.21-.22 1.77-.28.56-.06 1.05-.15 1.47-.27.43-.11.76-.28 1.01-.5.25-.22.37-.54.37-.97 0-.5-.09-.89-.28-1.2-.19-.3-.43-.53-.72-.69-.29-.16-.62-.27-.98-.32a7.85 7.85 0 0 0-1.08-.08c-.96 0-1.75.18-2.39.54-.64.36-.98 1.05-1.04 2.06h-2.26c.04-.85.21-1.57.53-2.15.32-.58.74-1.06 1.28-1.42.53-.36 1.14-.62 1.82-.78.68-.16 1.41-.24 2.19-.24.62 0 1.24.04 1.85.13.61.09 1.16.27 1.66.54s.89.66 1.2 1.15c.3.49.45 1.14.45 1.94v7.05c0 .53.03.92.09 1.17.06.25.27.37.62.37.19 0 .43-.04.69-.11v1.75zm-3.66-7.04c-.28.21-.66.37-1.12.46-.46.1-.94.18-1.45.24s-1.01.13-1.53.21c-.51.08-.97.21-1.38.38-.41.18-.74.43-1 .75-.26.33-.39.77-.39 1.34 0 .37.08.68.23.94.15.26.35.46.58.62.24.16.52.27.84.34.32.07.65.11 1.01.11.74 0 1.38-.1 1.91-.3.53-.2.97-.46 1.3-.77.34-.31.58-.64.74-1 .16-.36.24-.7.24-1.02v-2.3zm7.36-6.64v2.9h.05c.55-1.12 1.22-1.94 2.02-2.47.8-.53 1.81-.78 3.03-.74v2.39c-.9 0-1.67.12-2.31.37-.64.25-1.15.61-1.54 1.09-.39.48-.67 1.06-.85 1.74-.18.68-.27 1.47-.27 2.35v6.11h-2.26v-13.74h2.13zm12.99 0v1.99h-2.74v8.53c0 .27.02.48.07.64.04.16.13.28.25.37.12.09.3.15.52.17.22.03.51.04.86.04h1.04v1.99h-1.73c-.58 0-1.09-.04-1.5-.12-.42-.08-.75-.23-1.01-.44s-.45-.51-.57-.9c-.12-.39-.19-.9-.19-1.54v-8.74h-2.34v-1.99h2.34v-4.12h2.26v4.12h2.74zm3.87 0v2.02h.05c1.03-1.56 2.51-2.34 4.44-2.34.85 0 1.62.18 2.31.53.69.35 1.18.96 1.46 1.81a4.87 4.87 0 0 1 1.82-1.73c.75-.41 1.58-.61 2.48-.61.69 0 1.32.08 1.87.23.56.15 1.04.39 1.43.7.4.32.71.73.93 1.24s.33 1.11.33 1.82v10.07h-2.26v-9.01c0-.43-.04-.82-.11-1.2-.07-.37-.2-.7-.4-.97s-.47-.49-.81-.65c-.35-.16-.79-.24-1.34-.24-1.12 0-1.99.32-2.63.96-.64.64-.96 1.49-.96 2.55v8.56h-2.26v-9.01c0-.44-.04-.85-.12-1.22-.08-.37-.22-.7-.41-.97-.2-.27-.46-.49-.78-.64-.33-.15-.75-.23-1.26-.23-.66 0-1.22.13-1.69.4s-.85.58-1.14.96c-.29.37-.5.76-.64 1.16-.13.4-.2.73-.2 1v8.56H95.8v-13.74h2.12zm29.65 12.86c-1.03.78-2.32 1.17-3.88 1.17-1.1 0-2.05-.18-2.86-.53-.81-.35-1.48-.85-2.03-1.49-.55-.64-.96-1.4-1.24-2.29-.27-.89-.43-1.85-.46-2.9 0-1.04.16-2 .48-2.87.32-.87.77-1.62 1.34-2.26.58-.64 1.26-1.13 2.05-1.49.79-.35 1.65-.53 2.59-.53 1.22 0 2.24.25 3.04.76.81.5 1.45 1.15 1.94 1.93s.82 1.63 1.01 2.55c.19.92.26 1.8.23 2.63H119.5c-.02.6.05 1.17.21 1.71.16.54.42 1.02.77 1.43.35.42.81.75 1.36 1s1.2.37 1.94.37c.96 0 1.74-.22 2.35-.66.61-.44 1.01-1.12 1.21-2.02h2.23c-.31 1.55-.97 2.71-2 3.49zm-.54-8.82c-.2-.48-.48-.89-.82-1.24-.35-.35-.75-.62-1.22-.82-.47-.2-.99-.31-1.55-.31-.58 0-1.11.1-1.58.31-.47.2-.87.48-1.21.84-.34.35-.6.77-.8 1.24-.2.47-.31.97-.35 1.5h7.89c-.04-.54-.16-1.05-.36-1.52zm6.78-4.04v2.18h.05c.94-1.66 2.43-2.5 4.46-2.5.9 0 1.66.12 2.26.37.6.25 1.09.59 1.46 1.04.37.44.63.97.78 1.58.15.61.23 1.29.23 2.03v9.03h-2.26v-9.3c0-.85-.25-1.52-.74-2.02-.5-.5-1.18-.74-2.05-.74-.69 0-1.29.11-1.79.32-.5.21-.93.51-1.26.9-.34.39-.59.85-.76 1.37-.17.52-.25 1.09-.25 1.71v7.76h-2.26v-13.74h2.13zm17.76 0v1.99h-2.74v8.53c0 .27.02.48.07.64.04.16.13.28.25.37.12.09.3.15.52.17.22.03.51.04.86.04h1.04v1.99h-1.73c-.58 0-1.09-.04-1.5-.12-.42-.08-.75-.23-1.01-.44s-.45-.51-.57-.9c-.12-.39-.19-.9-.19-1.54v-8.74h-2.34v-1.99h2.34v-4.12h2.26v4.12h2.74zm7.97 1.99v-1.99h2.31v-2.05c0-1.12.32-1.96.97-2.54.65-.58 1.59-.86 2.83-.86.21 0 .46.02.73.05.27.04.52.09.73.16v1.97c-.2-.07-.41-.12-.64-.15-.23-.03-.44-.04-.64-.04-.55 0-.97.11-1.28.32-.3.21-.45.62-.45 1.22v1.91h2.66v1.99h-2.66v11.74h-2.26v-11.74h-2.3zm8.02 2.06c.28-.88.71-1.64 1.28-2.29.57-.65 1.27-1.16 2.1-1.53.83-.37 1.79-.56 2.87-.56 1.1 0 2.06.19 2.88.56.82.37 1.52.88 2.09 1.53.57.65.99 1.41 1.28 2.29.28.88.43 1.82.43 2.83s-.14 1.95-.43 2.82a6.26 6.26 0 0 1-1.28 2.27c-.57.65-1.26 1.15-2.09 1.51-.82.36-1.78.55-2.88.55-1.08 0-2.04-.18-2.87-.55-.83-.36-1.53-.87-2.1-1.51-.57-.65-.99-1.4-1.28-2.27-.28-.87-.43-1.81-.43-2.82.01-1.01.15-1.95.43-2.83zm2.3 5.05c.22.65.53 1.19.92 1.62.39.43.85.77 1.37 1 .52.23 1.08.35 1.66.35.58 0 1.14-.12 1.66-.35.52-.23.98-.56 1.37-1 .39-.43.69-.97.92-1.62.22-.65.33-1.39.33-2.22 0-.83-.11-1.57-.33-2.22-.22-.65-.53-1.19-.92-1.63-.39-.44-.85-.78-1.37-1.01-.52-.23-1.08-.35-1.66-.35-.58 0-1.14.12-1.66.35-.52.23-.98.57-1.37 1.01-.39.44-.7.99-.92 1.63-.22.65-.33 1.39-.33 2.22 0 .83.11 1.57.33 2.22zm14.79-9.1v2.9h.05c.55-1.12 1.22-1.94 2.02-2.47.8-.53 1.81-.78 3.03-.74v2.39c-.9 0-1.67.12-2.31.37-.64.25-1.15.61-1.54 1.09-.39.48-.67 1.06-.85 1.74-.18.68-.27 1.47-.27 2.35v6.11h-2.26v-13.74h2.13zM21.01 137.75v18.97h-2.52v-18.97h2.52zm5.29 5.23v2.18h.05c.94-1.66 2.43-2.5 4.46-2.5.9 0 1.66.12 2.26.37.6.25 1.09.59 1.46 1.04.37.44.63.97.78 1.58.15.61.23 1.29.23 2.03v9.03h-2.26v-9.3c0-.85-.25-1.52-.74-2.02-.5-.5-1.18-.74-2.05-.74-.69 0-1.29.11-1.79.32-.5.21-.93.51-1.26.9-.34.39-.59.85-.76 1.37-.17.52-.25 1.09-.25 1.71v7.76h-2.26v-13.74h2.13zm17.76 0v1.99h-2.74v8.53c0 .27.02.48.07.64.04.16.13.28.25.37.12.09.3.15.52.17.22.03.51.04.86.04h1.04v1.99h-1.73c-.58 0-1.09-.04-1.5-.12-.42-.08-.75-.23-1.01-.44s-.45-.51-.57-.9c-.12-.39-.19-.9-.19-1.54v-8.74h-2.34v-1.99h2.34v-4.12h2.26v4.12h2.74zm11.11 12.86c-1.03.78-2.32 1.17-3.88 1.17-1.1 0-2.05-.18-2.86-.53-.81-.35-1.48-.85-2.03-1.49-.55-.64-.96-1.4-1.24-2.29-.27-.89-.43-1.85-.46-2.9 0-1.04.16-2 .48-2.87.32-.87.77-1.62 1.34-2.26.58-.64 1.26-1.13 2.05-1.49.79-.35 1.65-.53 2.59-.53 1.22 0 2.24.25 3.04.76.81.5 1.45 1.15 1.94 1.93s.82 1.63 1.01 2.55c.19.92.26 1.8.23 2.63H47.09c-.02.6.05 1.17.21 1.71.16.54.42 1.02.77 1.43.35.42.81.75 1.36 1s1.2.37 1.94.37c.96 0 1.74-.22 2.35-.66.61-.44 1.01-1.12 1.21-2.02h2.23c-.3 1.55-.97 2.71-1.99 3.49zm-.55-8.82c-.2-.48-.48-.89-.82-1.24-.35-.35-.75-.62-1.22-.82-.47-.2-.99-.31-1.55-.31-.58 0-1.11.1-1.58.31-.47.2-.87.48-1.21.84-.34.35-.6.77-.8 1.24-.2.47-.31.97-.35 1.5h7.89c-.03-.54-.15-1.04-.36-1.52zm6.75-4.04v2.9h.05c.55-1.12 1.22-1.94 2.02-2.47.8-.53 1.81-.78 3.03-.74v2.39c-.9 0-1.67.12-2.31.37-.64.25-1.15.61-1.54 1.09-.39.48-.67 1.06-.85 1.74-.18.68-.27 1.47-.27 2.35v6.11h-2.26v-13.74h2.13zm8.46 0v2.18h.05c.94-1.66 2.43-2.5 4.46-2.5.9 0 1.66.12 2.26.37.6.25 1.09.59 1.46 1.04.37.44.63.97.78 1.58.15.61.23 1.29.23 2.03v9.03h-2.26v-9.3c0-.85-.25-1.52-.74-2.02-.5-.5-1.18-.74-2.05-.74-.69 0-1.29.11-1.79.32-.5.21-.93.51-1.26.9-.34.39-.59.85-.76 1.37-.17.52-.25 1.09-.25 1.71v7.76H67.7v-13.74h2.13zm24.19 13.69c-.39.23-.93.35-1.62.35-.58 0-1.05-.16-1.39-.49-.35-.33-.52-.86-.52-1.61-.62.74-1.34 1.28-2.17 1.61-.82.33-1.71.49-2.67.49-.62 0-1.21-.07-1.77-.21-.56-.14-1.04-.36-1.45-.66-.41-.3-.73-.7-.97-1.18-.24-.49-.36-1.08-.36-1.77 0-.78.13-1.42.4-1.91.27-.5.62-.9 1.05-1.21.43-.31.93-.54 1.49-.7.56-.16 1.13-.29 1.71-.4.62-.12 1.21-.22 1.77-.28.56-.06 1.05-.15 1.47-.27.43-.11.76-.28 1.01-.5.25-.22.37-.54.37-.97 0-.5-.09-.89-.28-1.2-.19-.3-.43-.53-.72-.69-.29-.16-.62-.27-.98-.32a7.85 7.85 0 0 0-1.08-.08c-.96 0-1.75.18-2.39.54-.64.36-.98 1.05-1.04 2.06h-2.26c.04-.85.21-1.57.53-2.15.32-.58.74-1.06 1.28-1.42.53-.36 1.14-.62 1.82-.78.68-.16 1.41-.24 2.19-.24.62 0 1.24.04 1.85.13.61.09 1.16.27 1.66.54s.89.66 1.2 1.15c.3.49.45 1.14.45 1.94v7.05c0 .53.03.92.09 1.17.06.25.27.37.62.37.19 0 .43-.04.69-.11v1.75zm-3.67-7.05c-.28.21-.66.37-1.12.46-.46.1-.94.18-1.45.24s-1.01.13-1.53.21c-.51.08-.97.21-1.38.38-.41.18-.74.43-1 .75-.26.33-.39.77-.39 1.34 0 .37.08.68.23.94.15.26.35.46.58.62.24.16.52.27.84.34.32.07.65.11 1.01.11.74 0 1.38-.1 1.91-.3.53-.2.97-.46 1.3-.77.34-.31.58-.64.74-1 .16-.36.24-.7.24-1.02v-2.3zm10.94-6.64v1.99h-2.74v8.53c0 .27.02.48.07.64.04.16.13.28.25.37.12.09.3.15.52.17.22.03.51.04.86.04h1.04v1.99h-1.73c-.58 0-1.09-.04-1.5-.12-.42-.08-.75-.23-1.01-.44s-.45-.51-.57-.9c-.12-.39-.19-.9-.19-1.54v-8.74h-2.34v-1.99h2.34v-4.12h2.26v4.12h2.74zm1.85-2.47v-2.76h2.26v2.76h-2.26zm2.26 2.47v13.74h-2.26v-13.74h2.26zm2.59 4.05c.28-.88.71-1.64 1.28-2.29.57-.65 1.27-1.16 2.1-1.53.83-.37 1.79-.56 2.87-.56 1.1 0 2.06.19 2.88.56.82.37 1.52.88 2.09 1.53.57.65.99 1.41 1.28 2.29.28.88.43 1.82.43 2.83s-.14 1.95-.43 2.82a6.26 6.26 0 0 1-1.28 2.27c-.57.65-1.26 1.15-2.09 1.51-.82.36-1.78.55-2.88.55-1.08 0-2.04-.18-2.87-.55-.83-.36-1.53-.87-2.1-1.51-.57-.65-.99-1.4-1.28-2.27-.28-.87-.43-1.81-.43-2.82.01-1.01.15-1.95.43-2.83zm2.3 5.05c.22.65.53 1.19.92 1.62.39.43.85.77 1.37 1 .52.23 1.08.35 1.66.35s1.14-.12 1.66-.35c.52-.23.98-.56 1.37-1 .39-.43.69-.97.92-1.62.22-.65.33-1.39.33-2.22 0-.83-.11-1.57-.33-2.22-.22-.65-.53-1.19-.92-1.63-.39-.44-.85-.78-1.37-1.01-.52-.23-1.08-.35-1.66-.35s-1.14.12-1.66.35c-.52.23-.98.57-1.37 1.01-.39.44-.7.99-.92 1.63-.22.65-.33 1.39-.33 2.22 0 .84.11 1.58.33 2.22zm14.83-9.1v2.18h.05c.94-1.66 2.43-2.5 4.46-2.5.9 0 1.66.12 2.26.37.6.25 1.09.59 1.46 1.04.37.44.63.97.78 1.58.15.61.23 1.29.23 2.03v9.03h-2.26v-9.3c0-.85-.25-1.52-.74-2.02-.5-.5-1.18-.74-2.05-.74-.69 0-1.29.11-1.79.32-.5.21-.93.51-1.26.9-.34.39-.59.85-.76 1.37-.17.52-.25 1.09-.25 1.71v7.76h-2.26v-13.74h2.13zm24.18 13.69c-.39.23-.93.35-1.62.35-.58 0-1.05-.16-1.39-.49-.35-.33-.52-.86-.52-1.61-.62.74-1.34 1.28-2.17 1.61-.82.33-1.71.49-2.67.49-.62 0-1.21-.07-1.77-.21-.56-.14-1.04-.36-1.45-.66-.41-.3-.73-.7-.97-1.18-.24-.49-.36-1.08-.36-1.77 0-.78.13-1.42.4-1.91.27-.5.62-.9 1.05-1.21.43-.31.93-.54 1.49-.7.56-.16 1.13-.29 1.71-.4.62-.12 1.21-.22 1.77-.28.56-.06 1.05-.15 1.47-.27.43-.11.76-.28 1.01-.5.25-.22.37-.54.37-.97 0-.5-.09-.89-.28-1.2-.19-.3-.43-.53-.72-.69s-.62-.27-.98-.32a7.85 7.85 0 0 0-1.08-.08c-.96 0-1.75.18-2.39.54-.64.36-.98 1.05-1.04 2.06h-2.26c.04-.85.21-1.57.53-2.15.32-.58.74-1.06 1.28-1.42.53-.36 1.14-.62 1.82-.78.68-.16 1.41-.24 2.19-.24.62 0 1.24.04 1.85.13.61.09 1.16.27 1.66.54s.89.66 1.2 1.15c.3.49.45 1.14.45 1.94v7.05c0 .53.03.92.09 1.17.06.25.27.37.62.37.19 0 .43-.04.69-.11v1.75zm-3.66-7.05c-.28.21-.66.37-1.12.46-.46.1-.94.18-1.45.24s-1.01.13-1.53.21c-.51.08-.97.21-1.38.38-.41.18-.74.43-1 .75-.26.33-.39.77-.39 1.34 0 .37.08.68.23.94.15.26.35.46.58.62.24.16.52.27.84.34.32.07.66.11 1.01.11.74 0 1.38-.1 1.91-.3.53-.2.97-.46 1.3-.77.34-.31.58-.64.74-1 .16-.36.24-.7.24-1.02v-2.3zm7.63-11.87v18.97h-2.26v-18.97h2.26zm8.72 2.12v-2.13h15.17v2.13h-6.32v16.85h-2.52v-16.85h-6.33z"/><path class="st11" d="M178.02 142.98v2.9h.05c.55-1.12 1.22-1.94 2.02-2.47.8-.53 1.81-.78 3.03-.74v2.39c-.9 0-1.67.12-2.31.37-.64.25-1.15.61-1.54 1.09-.39.48-.67 1.06-.85 1.74-.18.68-.27 1.47-.27 2.35v6.11h-2.26v-13.74h2.13zm18.45 13.69c-.39.23-.93.35-1.62.35-.58 0-1.05-.16-1.39-.49-.35-.33-.52-.86-.52-1.61-.62.74-1.34 1.28-2.17 1.61-.82.33-1.71.49-2.67.49-.62 0-1.21-.07-1.77-.21-.56-.14-1.04-.36-1.45-.66-.41-.3-.73-.7-.97-1.18-.24-.49-.36-1.08-.36-1.77 0-.78.13-1.42.4-1.91.27-.5.62-.9 1.05-1.21.43-.31.93-.54 1.49-.7.56-.16 1.13-.29 1.71-.4.62-.12 1.21-.22 1.77-.28.56-.06 1.05-.15 1.47-.27.43-.11.76-.28 1.01-.5.25-.22.37-.54.37-.97 0-.5-.09-.89-.28-1.2-.19-.3-.43-.53-.72-.69s-.62-.27-.98-.32a7.85 7.85 0 0 0-1.08-.08c-.96 0-1.75.18-2.39.54-.64.36-.98 1.05-1.04 2.06h-2.26c.04-.85.21-1.57.53-2.15.32-.58.74-1.06 1.28-1.42.53-.36 1.14-.62 1.82-.78.68-.16 1.41-.24 2.19-.24.62 0 1.24.04 1.85.13.61.09 1.16.27 1.66.54s.89.66 1.2 1.15c.3.49.45 1.14.45 1.94v7.05c0 .53.03.92.09 1.17.06.25.27.37.62.37.19 0 .43-.04.69-.11v1.75zm-3.66-7.05c-.28.21-.66.37-1.12.46-.46.1-.94.18-1.45.24s-1.01.13-1.53.21c-.51.08-.97.21-1.38.38-.41.18-.74.43-1 .75-.26.33-.39.77-.39 1.34 0 .37.08.68.23.94.15.26.35.46.58.62.24.16.52.27.84.34.32.07.65.11 1.01.11.74 0 1.38-.1 1.91-.3.53-.2.97-.46 1.3-.77.34-.31.58-.64.74-1 .16-.36.24-.7.24-1.02v-2.3zm15.14 7.1v-1.86h-.05c-.37.76-.96 1.31-1.75 1.65-.8.34-1.67.51-2.63.51-1.06 0-1.99-.2-2.78-.59-.79-.39-1.44-.91-1.97-1.57-.52-.66-.92-1.42-1.18-2.29-.27-.87-.4-1.79-.4-2.76 0-.97.13-1.9.39-2.76.26-.87.65-1.63 1.17-2.27a5.57 5.57 0 0 1 1.97-1.54c.79-.38 1.7-.57 2.75-.57.35 0 .73.04 1.14.11a5.64 5.64 0 0 1 2.38 1.02c.36.28.67.62.92 1.02h.05v-7.07h2.26v18.97h-2.27zm-8.12-4.88c.17.61.43 1.16.77 1.63.35.48.79.86 1.33 1.14.54.28 1.17.43 1.9.43.76 0 1.41-.15 1.94-.45.53-.3.97-.7 1.3-1.18.34-.49.58-1.04.73-1.66.15-.62.23-1.25.23-1.89 0-.67-.08-1.32-.24-1.95-.16-.63-.41-1.18-.76-1.66-.35-.48-.79-.86-1.34-1.16-.55-.29-1.21-.44-1.99-.44-.76 0-1.41.15-1.94.45-.53.3-.96.7-1.28 1.2-.32.5-.55 1.06-.69 1.7-.14.64-.21 1.29-.21 1.97 0 .64.08 1.26.25 1.87zm22.96 4c-1.03.78-2.32 1.17-3.88 1.17-1.1 0-2.05-.18-2.86-.53-.81-.35-1.48-.85-2.03-1.49-.55-.64-.96-1.4-1.24-2.29-.27-.89-.43-1.85-.46-2.9 0-1.04.16-2 .48-2.87.32-.87.77-1.62 1.34-2.26.58-.64 1.26-1.13 2.05-1.49.79-.35 1.65-.53 2.59-.53 1.22 0 2.24.25 3.04.76.81.5 1.45 1.15 1.94 1.93s.82 1.63 1.01 2.55c.19.92.26 1.8.23 2.63h-10.28c-.02.6.05 1.17.21 1.71.16.54.42 1.02.77 1.43.35.42.81.75 1.36 1s1.2.37 1.94.37c.96 0 1.74-.22 2.35-.66.61-.44 1.01-1.12 1.21-2.02h2.23c-.31 1.55-.98 2.71-2 3.49zm-.55-8.82c-.2-.48-.48-.89-.82-1.24-.35-.35-.75-.62-1.22-.82-.47-.2-.99-.31-1.55-.31-.58 0-1.11.1-1.58.31-.47.2-.87.48-1.21.84-.34.35-.6.77-.8 1.24-.19.47-.31.97-.35 1.5h7.89a4.83 4.83 0 0 0-.36-1.52z"/><path class="st12" d="M42.2 70.13c-.1-.04.06-.24.14-.29.08-.04.37-.05.37-.05s-.08.13-.1.26c-.02.14-.31.13-.41.08m.84.48c-.1-.04.06-.24.14-.29.08-.04.37-.05.37-.05s-.08.13-.1.26c-.02.14-.31.13-.41.08m.05-.61c-.1-.04.06-.24.14-.29.08-.04.37-.05.37-.05s-.08.13-.1.26c-.02.13-.31.12-.41.08m-.87.72c-.1-.04.06-.24.14-.29.08-.04.37-.05.37-.05s-.08.13-.1.26c-.02.14-.31.12-.41.08m.84.48c-.09-.04.05-.21.12-.25.07-.04.31-.05.31-.05s-.07.11-.09.23c0 .13-.25.11-.34.07m-.82.16c-.09-.04.05-.21.12-.25.07-.04.31-.05.31-.05s-.07.11-.09.23c-.01.12-.26.1-.34.07m1.54-.22c-.09-.04.05-.21.12-.25.07-.04.32-.05.32-.05s-.07.11-.09.23c-.01.12-.26.11-.35.07m-.68.63c-.09-.04.05-.21.12-.25.07-.04.32-.05.32-.05s-.07.11-.09.23c-.02.12-.27.1-.35.07m.71-.05c-.09-.04.05-.21.12-.25.07-.04.31-.05.31-.05s-.07.11-.09.23c0 .12-.25.1-.34.07m.03-1.13c-.09-.04.05-.21.12-.25.07-.04.31-.05.31-.05s-.07.11-.09.23c0 .12-.26.11-.34.07"/><path class="st13" d="M24.76 74.23a.886.886 0 0 1-.23-.84c.12-.45.1-.78-.1-1-.08-.09-.14-.16-.25-.2.11.59.16 1.09-.24 1.58.04-.17-.17-.53-.14-.97.03-.38.15-.77.03-.94.15.11.52.17.68.2.35.05.45.22.57.51.04.09.19.19.24.29.07-.17.14-.29.17-.38.05-.14.02-.27-.02-.43.19.02.28.39.36.47.07.08.12.14.26.14.06-.16.04-.28.06-.43.02-.2.1-.35.03-.58.11.02.23.16.29.3.08.18.05.32.17.43.13-.08.19-.23.23-.32.1-.29.17-.52.19-.86.15.12.24.13.39.25.18.15.29.43.42.52.41.27.84.49 1.26.68.54.24 1.05.41 1.9.6.35.05.6.07.93-.02.15-.04.48-.05.55-.05.08 0 .26.05.45.1.31.08.4.41.4.68-.3.2-.57.21-1.04.32-.37.09-.71.13-.99.43-.06.07-.14.18-.27.18.02-.06.02-.13-.03-.2a.383.383 0 0 0-.19-.11c-.12.11-.14.35-.3.3.02-.11-.14-.16-.26-.14-.12.01-.18.13-.31.12.06-.14-.11-.28-.24-.33-.04.03-.18.3-.34.32.08-.17-.09-.42-.25-.46-.05.14-.12.41-.34.46.07-.17.02-.58-.25-.62-.01.24-.07.38-.24.51.08-.65-.47-.85-.98-1-.21-.06-.21-.07-.41-.14a.841.841 0 0 0-.37-.08c-.04.16.11.48.25.63a.916.916 0 0 1-.58-.29c-.1-.12-.11-.23-.2-.45-.19.47.07.61.25.9-.74 0-.77-.87-.77-.91-.09.1-.13.19-.17.33-.01.17.03.43.18.6-.11-.02-.34-.16-.39-.31-.06-.18-.04-.09-.06-.28-.01-.14-.01-.51-.07-.65-.06.1-.14.25-.13.43.06.37-.17.49-.1.71m-3.59-4.87c-.03.3.14.47.29.75.18.34.19.85.01 1.27-.06.15-.15.32-.28.5-.22-.87-.51-1.75-.02-2.52m2.09 1.94c-.01.2.3.42.32.75.02.22-.02.4-.07.6-.06.25.08.4-.05.71-.07.16-.13.33-.12.57-.09-.11-.43-.72-.3-1.21.1-.4.11-.63.11-1.07.01-.14.05-.25.11-.35m-.59 2c-.33-.22-.48-.81-.37-1.11.21-.59.15-.64.13-1.24 0-.11.02-.35.09-.51-.01.52.36.69.36 1.18 0 .21.01.56-.11.84-.17.38-.14.72-.1.84m-.84-3.27c.04.27.2.54.28.7.12.22.09.7-.06 1.19-.07.21-.28.47-.28.68-.04-.12.02.08-.09-.37-.12-.5.13-.75.17-1.13.02-.28-.04-.8-.02-1.07"/><path class="st12" d="M16.84 75.35s.32-.2.48-.97c.16-.78 1.06-1.24 1.35-1.28-.26.29-.48.65-.72 1.08-.34.6-.87 1.05-1.11 1.17"/><path class="st12" d="M21.1 73.13c-.2-.51-.32-.78-.84-1.07-.36-.2-.61-.24-1.03-.31-.66-.1-1 .04-1.25.17-.24.13-.44.3-.66.76-.17.37-.15.7-.14 1.03.09-.41.23-.74.5-1.02.25-.25.53-.42.66-.46.41-.12.65-.01.65-.01-.29.06-.48.12-.69.26-.36.25-.71.72-.8 1.08 0 0 .33-.57.9-.82.44-.23.85-.25 1.21-.18-.11.04-.25.1-.41.22-.26.19-.46.54-.66.92-.29.56-.51.88-.75 1.1.19-.06.83-.42 1.09-.81.26-.38.49-.9.57-1 .08-.1.36-.25.53-.2.17.05.31.18.31.18.15.18.35.51.28 1.1-.11.93-.48 1.7-1.3 3.08-.78 1.32-1.22 1.82-1.54 2.54-.44 1-.37 2.31.69 2.59.5.16 1.23-.15 1.23-.15s.21-.16.21.31l.11-1.69s-.19.73-.8.78c-.61.04-.89-.12-.95-.56-.06-.44.21-1.2.42-1.56.21-.36 1.64-2.71 1.69-2.84.05-.13.59-1.06.72-1.7.13-.62.25-1.24.05-1.74"/><defs><path id="SVGID_1_" d="M36.27 87.32h.01v.01h-.01z"/></defs><use xlink:href="#SVGID_1_" overflow="visible" fill="#2b2523"/><clipPath id="SVGID_2_"><use xlink:href="#SVGID_1_" overflow="visible"/></clipPath><path class="st14" d="M36.28 87.32l-.01.01.01-.01"/><defs><path id="SVGID_3_" d="M37.18 87.02h.01v.01h-.01z"/></defs><use xlink:href="#SVGID_3_" overflow="visible" fill="#2b2523"/><clipPath id="SVGID_4_"><use xlink:href="#SVGID_3_" overflow="visible"/></clipPath><path class="st15" d="M37.19 87.03v-.01.01l-.01.01.01-.01"/><path class="st13" d="M33.06 96.47c.17.07.4.19.56.26l.3.12c1.14.46 2.32.75 3.53.94 1.17.18 2.36.21 3.54.12 1.09-.08 2.01-.37 3.04-.72.47-.17.82-.32 1.23-.55.2-.1.39-.24.6-.35.06.18.07.32-.12.43-.21.12-.34.19-.56.29-.53.24-1.02.47-1.62.64-.53.16-.91.26-1.35.34-.54.1-.96.15-1.57.17-.94.04-1.85.02-2.77-.08-.86-.11-1.67-.28-2.53-.5-.35-.09-.87-.27-1.21-.4-.33-.14-.5-.23-.83-.37-.1-.05-.14-.07-.21-.15a.219.219 0 0 1-.03-.19m13.86.96c-.14.09-.3.2-.44.29-.65.41-1.38.66-2.09.93-.37.14-.75.24-1.12.35-.77.21-1.15.28-2.21.38-.38.04-1.01-.05-1.62-.2 1.35.01 2.49-.12 3.21-.28.99-.23 1.96-.52 2.87-.99.3-.16.62-.35.88-.56.14-.17.43-.04.52.08m-14.09.53c-.44-.3-.74-.78-.77-.82.29.09.64.33.99.58.39.23.54.32 1.01.48.56.2.97.31 1.54.47.79.21.75.18 1.55.36.36.07.87.12 1.57.14-.95.17-1.66.08-2.34-.05-.47-.09-1.26-.2-1.84-.4-1-.32-1.27-.45-1.71-.76"/><path class="st13" d="M49.06 96.21c-1.46 2-3 2.58-4.47 2.96-.93.24-2.11.36-2.51.38 1.1-.21 2.11-.5 2.88-.82.79-.33 1.26-.54 1.93-1.02.05-.05.15-.11.25-.07.34.13 1.5-.95 1.92-1.43m-11.69 3.63c-.22-.03-.89-.26-.98-.39.95.21 1.81.21 2.7.23.12.01.54-.01.66-.02.33-.01.8.18 1.08.2-.29.08-1.39.14-1.74.12-.01.01-.96-.04-1.72-.14M45.68 96c-.65.36-1.18.61-1.85.89-.09.04-.25.09-.35.06-.13-.04-.17-.14-.13-.26.17-.05.29-.1.44-.15.63-.22.98-.39 1.6-.65.06-.02.32-.18.46-.25 0 .25-.11.33-.17.36m.04-.62c-.09.06-.4.21-.5.26-.47.22-.53.23-.99.45-.17.08-.82.31-.74-.01.81-.34 1.59-.64 2.38-.98.01.1 0 .21-.15.28m1.9-2.04c.69-.15 1.72-.18 2.4-.12 0 .24.01.35-.01.55-.73-.1-1.7-.21-2.4-.31-.07-.01-.05-.11.01-.12m1.28 1.21c.49.05.81 0 .65.42-.03.07-.11.28-.14.35-.11.33-.33.31-.63.29.03-.35.08-.71.12-1.06m-3.53.19c0 .16-.24.26-.59.42-.23.11-.51.25-.72.28-.14.02-.29.06-.35-.09.64-.24 1.07-.42 1.59-.67.07-.04.07 0 .07.06m1.24 1.01c.8.11 1.53.21 2.22.31-.01.09-.03.15-.17.13-.38-.05-.88-.11-1.26-.17-.2-.03-.45-.06-.64-.09-.12-.02-.15-.09-.15-.18m.64-1.95c.14-.02.32-.04.47-.02.54.07 1.62.17 2.16.26-.04.11-.04.11-.1.2-.75-.1-1.77-.24-2.52-.35-.08 0-.07-.07-.01-.09m1.04 1.12c-.13-.13-.25-.26.04-.44-.45-.06-.79-.12-1.16-.17-.28-.04-.43-.01-.46.27-.03.24-.04.48-.07.74.13.02.25.04.33.05 0-.26-.02-.49 0-.71.01-.12-.01-.29.19-.3.32.1.35.35.32.63-.01.09-.01.18.02.26.01.06.09.17.14.18.2.04.34.07.62.11-.36-.28-.15-.46.03-.62m-9.94 2.04c-.54-.1-1.08-.2-1.66-.31 0-.22.51-.12.88-.05.43.09.78.16.78.36m-2.72.05c-.48-.1-.97-.28-1.39-.43-.01-.33 1.41.11 1.39.43m1.35.1c.46.08.88.15 1.3.23 0 .2-.48.14-.74.1-.27-.05-.63-.14-.56-.33m-1.55-.99c-.18.2-.42.15-.67.11-.04-.01-.33-.08-.3-.24.01-.06.12-.07.18-.06.13.03.26.08.39.12.12.02.25.04.4.07"/><path class="st13" d="M48.11 96.74c-.26-.04-.44-.06-.7-.1-.08-.02-.08-.07-.08-.18.27.03.6.1.86.13.01.1-.03.15-.08.15"/><path class="st12" d="M50.53 92.51h-1.31c-.18 0-.14-.14-.13-.26.01-.46 0-2.83 0-3.04h-.13c-.01.16-.02.42-.02.59 0 .15-.94.81-1.34.57-.18-.11-.17-.23-.19-.38-.03-.29-.15-.54-.42-.64-.38-.15-1.22.29-1.48.62s-.26 2.86-.11 3.55c-.04.01-.07.01-.1.01-.13-.03-.24-.24-.38-.44-.01-.02-.69-.92-.72-.97-.21-.34-.53-.79-.75-1.12-.24-.35.06-.37.43-.51.32-.11.47-.28.78-.29.4 0 .27-.14.16-.13-.3-.01-.37-.18-.42-.3-.17-.38-.5-1.05-.65-1.38-.01-.02-.13-.23-.23-.44-.24-.53-.51-1.18-.77-1.7-.18-.36-.35-.7-.33-1.1.01-.17.01-.48 0-.59-.5-.14-.57-.04-.93.25-.19.15-.58.13-.7.03.08.23.35.33.42.35.35.12.5-.02.88-.08.1-.02.23-.04.23.04 0 .06.01.13 0 .22-.04.59-.22 1.12-.42 1.68-.2.56-.48 1.08-.73 1.62-.07.14-.11.3-.22.17-.16-.22-1.41-2.17-1.47-2.45-.04-.18.18-.18.35-.23.44-.12.47-.54.85-.66.1-.05.04-.15-.16-.12-.4.05-.59-.3-.74-.55-.24-.39-.49-.8-.68-1.19-.05-.11-.04-.26-.04-.4s.01-.13.02-.34c-.18.16-.5.12-.68.28-.26.23-.23.95-.84.42.08.11.15.45.58.44.22 0 .4-.06.57-.32.12-.18.26-.19.19-.06-.01.03-.33.85-.45 1.13-.16.36-.31.75-.5 1.01-.07.09-.09.15-.26.2-.04.01-.21.01-.21.06 0 .06.02.03.16.06.4.07.19.35-.12.55-.01.01-.5.42-.5.42-.26.21-.41.25-.61 0-.32-.4-.58-.87-.86-1.29-.25-.38-.33-.8-.32-1.27.01-.27-.01-.44-.01-.78-.4.04-.6.29-.82.49-.25.23-.34.54-.7.57.26.21.63.1 1.03-.22.12-.1.3-.13.31.15 0 .12.01.23.01.35-.01.17-.02.22-.05.31-.12.37-.28.68-.45 1.08-.13.31-.26.7-.47.86-.09.07-.2.14-.34.15-.28.02-.21.14-.17.14.3.08.54.15.78.22.27.08.46.44.34.65-.03.04-.05.08-.08.12-.08.11-.51.58-1.03 1.06-.46.42-1.01.84-1.34 1.06-.44.28-1.73.95-2.18 1.22-.34.2-.74.55-1.07.55-.08 0-.16-.11-.15-.31.02-.56.04-1.69.03-2.98-.29 0-.26.3-.57.34-.23.03-.27.1-.28.18-.02.34-.02.53-.03.67.06.01.15-.04.2-.07.32-.22.28-.12.56-.17.01.38 0 1.7-.02 2.09 0 .09-.03.26-.2.26h-1.05c-.08-.01-.08.14.07.18.11.03.25.02.37.02.16.01.29.14.34.18a34.9 34.9 0 0 0 2.13 2.01c.17.14.37.29.56.54.19.25.76 1.19.9 1.29 0 0 .01 0 .01.01.33.12.61.34.92.49.49.24.98.48 1.49.68a13 13 0 0 0 1.25.4c.56.16 1.18.35 1.75.43.7.1 1.06.14 1.6.15.75.01 1.5-.01 2.25-.08.62-.06 1.23-.18 1.84-.31.4-.08.8-.19 1.18-.33.36-.13.68-.28 1.02-.45.33-.16.9-.53 1.21-.71-.07-.13-.29-.17-.46-.05-.34.2-.41.28-.97.53-.51.23-1 .46-1.54.6-.79.2-1.49.33-2.44.46-.99.08-1.96.08-2.91 0-1.05-.12-1.68-.28-2.68-.57-.43-.1-.85-.26-1.25-.42-.46-.19-.98-.46-1.25-.67-.39-.3-.5-.73-.48-1.64.01-.25.1-.35.24-.31.08.02.16.05.24.07.28.09.65.22.93.33.87.32 1.66.53 2.52.68.26.05.59.1.97.12 0-.1.04-.17-.02-.2-.06-.04-.27-.04-.26-.2 0-.09.23-.09.31-.09.21.01.35.03.58.05.07.02.03.39.02.5.34.01.65.03 1.01.03.12 0 .35-.02.36.1.01.12-.01.09-.52.11-.06 0-.05.08 0 .07.07 0 .26.04.31.09.15.15.12.34.11.57-.01.36.21.34.49.35.59.02 1.04-.02 1.45-.06.19-.04.23-.15.22-.28-.49 0-1.5.12-1.54.06-.08-.02-.06-.07-.07-.15-.01-.08.06-.08.31-.09.32-.01.52-.04.82-.05.23-.01.3-.08.3-.2-.46 0-.91 0-1.47.01-.07 0 .01-.27.14-.27 1.08 0 1.13-.12 1.66-.15.13-.01.39.07.39.32 0 .6.21.56.39.53.03-.01.33.02.28-.39-.01-.23-.13-.52-.01-.68.14-.19.45-.26.73-.39.23-.1.14-.17.09-.29-.06-.16.02-.26.17-.31.36-.12.7-.25 1.05-.4.15-.06.37-.15.52-.22.33-.15.34-.32.55.09.02.03.02.07.05.16.16-.1.41-.18.42-.28.04-.42.32-.7.56-1 .23-.29.51-.66.92-.69.14-.01 2.67.01 2.88 0 .1-.11.23-.29.04-.29zm-11.67-2.67c-.11-.02-.18.08-.15-.37.04-.57.17-2.55.17-2.75.03-.33.09-.3.1.14 0 .09.02 2.11.03 2.61 0 .07.07.38-.15.37zm-.99-.62c-.07-.07-.05-.18.02-.35.03-.08.68-2.17.73-2.26.05-.16.12-.28.1.07 0 .07-.16 2.35-.18 2.59-.01.1 0 .44-.11.39-.09-.04-.47-.36-.56-.44zm.41.82c-.37.12-.6.16-.88.24-.18.07-.16-.02-.1-.13.11-.23.17-.36.31-.65.03-.06.07-.13.12-.09.2.14.36.29.56.47.11.08.03.14-.01.16zm-.02-4.36c.2-.49.39-.96.58-1.42.09-.25.14-.1.14-.01.02.25.02 1.14.02 1.22 0 .09-.08.15-.16.19-.14.07-.31.15-.52.19-.06.01-.12-.04-.06-.17zm-1.01 1.76c.14-.05.02-.1-.21-.12-.1-.01-.03-.04.03-.08.1-.08.7-.59.79-.66.1-.08.39-.31.53-.27.13.04.08.14.06.2-.01.07-.6 2-.75 2.38-.04.1-.1.08-.13.05-.29-.35-.56-.65-.79-1.06-.11-.18.12-.3.47-.44zm-.98.55c.2-.15.29.02.39.15l.81.99c.05.06.07.18.04.24-.17.35-.3.6-.48.94-.08.14-.2.1-.29-.06-.2-.37-.73-1.5-.77-1.67-.02-.08-.02-.12.02-.2.03-.09.16-.31.28-.39zm.66 3.04c.11.17.17.23-.05.24-.15.01-.44 0-.59.02-.17.02-.2-.09-.23-.29 0-.04-.25-1.7-.29-2.05-.03-.15.08-.14.13 0 .19.5.89 1.86 1.03 2.08zm-1.8.54c-.09.03-.17.07-.21.04-.06-.04.02-.12.07-.21.06-.09.02-.03.08-.13.04-.07.09-.02.09.06.01.09.05.21-.03.24zm-.4.01c-.07.08-.14.1-.18.1-.38.02-.65.03-.82 0-.17-.03-.22-.1-.09-.27.04-.05.17-.23.24-.35.07-.11.14-.25.24-.39.03-.04.03-.07.07-.08.07-.01.16.03.22.05.19.06.32.09.62.2.15.06-.01.26-.09.41-.08.13-.15.26-.21.33zm.41-2.37c.02.2.01.75.01.9v.42c0 .05.01.14-.05.15-.07.02-.19-.03-.24-.04-.18-.05-.29-.07-.46-.16-.16-.08-.02-.25.01-.33.15-.36.25-.61.42-.97.04-.08.12-.35.22-.29.09.08.08.24.09.32zm-.42-1.85c-.28.03-.26-.15-.23-.25.14-.41.32-.8.49-1.2.04-.1.08-.11.08-.02 0 .26.02 1.08.01 1.14 0 .35-.13.3-.35.33zm-4.17 7.39c-.33-.28-1.05-.94-1.52-1.37-.08-.08-.5-.46-.46-.61.05-.13.21-.08.54-.09.56 0 .17-.01.56 0 .44 0 .58.23.69.36.02.02.03.04.04.05.15.18.27.36.38.73.1.31.57 1.62-.23.93zm1.42 1.17c-.09.05-.21-.13-.29-.23-.16-.19-.2-.39-.31-.73-.18-.55-.32-1.2.02-.99.21.13.2.11.36.23.16.14.17.43.18.49.07.37.08.54.09.9 0 .19.03.28-.05.33zm-.09-1.95c-.21-.07-.43-.27-.83-.6-.25-.21-.68-.69-.49-.69.65-.01.94.01 1.34.01.33 0 .31.1.34.3.03.23.01.56.03.79.02.22-.17.28-.39.19zm1.09.39c-.1-.03-.22-.09-.35-.14-.13-.06-.14-.23-.15-.33-.03-.47-.03-.68-.08-1.15-.02-.16-.09-.22-.22-.22-.55 0-.96.01-1.51 0H29.6c-.11 0 .29-.28.33-.3.54-.31 1.97-1.09 2.39-1.36.44-.29 1-.78 1.43-1.18.4-.37.66-.66.86-.87.16-.21.23-.02.2.09-.08.22-.07.22-.14.35-.11.24-.24.48-.35.73-.23.5-.95 1.57-.98 1.63-.03.07-.33-.01-.15.2.05.06.39.08.48.11.29.08.79.14.81.34.01.15-.12.47-.12.47s-.62 1.23-.85 1.6c-.08.14-.12.17-.54.03zm.71.2c-.12-.04.01-.17.03-.23.06-.15.15-.32.22-.45l.59-1.24c.08-.11.11-.24.26-.21.23.05.23.18.16.39-.08.23-.21.52-.32.76l-.33.64c-.04.08-.09.15-.13.21-.11.3-.38.17-.48.13zm.59.06c-.03-.11.09-.29.16-.44h.01l.25-.52c.04-.06.2-.4.24-.5.02-.05.09-.22.1-.25.13-.33.16.05.14.15-.01.04-.34 1.21-.43 1.44-.04.1-.1.31-.19.28-.09-.04-.26-.08-.28-.16zm.2.82c-.2-.11-.22-.28-.09-.46.23.08.45.15.69.24-.11.29-.33.37-.6.22zm.77-.73c0 .12 0 .3-.11.29-.05 0-.19-.05-.32-.1-.07-.04-.09-.08-.06-.15.13-.34.21-.65.32-.98.02-.07.07-.24.08-.28.06-.13.08.08.07.22.02.26.03.74.02 1zm.09-7.81l-.03-.95v-.14c0-.14.03-.05.05-.03.1.14.33.5.44.68.13.21.24.36.35.59.07.14.01.22-.15.23-.04 0-.09.01-.13.01-.5.04-.51.12-.53-.39zm.12 2.49c0-.03-.02-.46-.02-.51 0-.11.13-.06.16.03s.21 1.23.25 1.59c.01.06.03.14-.08.13-.04 0-.08.01-.16.01-.13 0-.11-.24-.12-.45 0-.24-.02-.54-.03-.8zm.08 1.77c-.01-.2.01-.3.1-.34.03-.02.08-.03.14-.04.03 0 .11.04.13.09.03.08.05.24.05.33 0 .14-.01.18-.18.22-.11.02-.22.12-.24-.26zm.57 4.1c-.07-.01-.13-.01-.18-.03-.08-.02-.16-.03-.2-.1-.02-.05-.02-.32-.02-.38l-.09-1.93c0-.06-.03-.29.02-.38.04-.07.08-.06.11-.07.16 0 .16.35.18.42.06.28.26 2.25.26 2.33.01.12.01.14-.08.14zm.55.07c-.11-.01-.24-.01-.28-.06a.219.219 0 0 1-.03-.05c-.01-.04-.02-.08-.03-.11-.04-.19-.28-2.16-.34-2.71-.01-.08.05-.1.08-.02.1.31.64 2.57.69 2.89.01.07-.05.07-.09.06zm.48.04c-.05 0-.09-.01-.19-.03-.06-.02-.07-.1-.09-.16-.18-.73-.6-2.36-.68-2.72-.05-.22-.12-.37.11-.47.3-.13.7-.32.99-.49.07-.04.17-.11.17-.15.01-.14-.16-.05-.19-.11-.1-.17-.2-.35-.3-.53-.03-.05-.03-.07.03-.07.47-.02.89-.01 1.32 0 .27.01.25.23.2.4-.12.5-1.02 3.52-1.11 3.78-.06.17-.17.56-.26.55zm.79-.1c-.03.09-.06.16-.13.16-.12.01-.37 0-.4-.07-.03-.09 0-.18.04-.29.09-.25 1.14-3.81 1.22-4.04.03-.07.05-.39.24-.38.25 0 .14.22.14.3-.01.2-.13.64-.18.84-.18.73-.37 1.45-.55 2.18-.07.28-.15.56-.23.85-.04.15-.1.34-.15.45zm1.14.06c0 .14-.04.21-.14.21-.03 0-.58 0-.67-.1-.09-.1-.08-.21-.05-.39.02-.11.05-.24.09-.37.16-.54.6-2.33.71-2.76.02-.1.06-.08.04.12.01.21 0 .46.01.66.01.65 0 1.29.02 1.94-.01.24-.01.47-.01.69zm3.37-.47c0 .32-.06.37-.27.42-.16.04-.36.12-.45.06-.07-.04-.05-.17-.04-.28.09-.51.58-3.16.65-3.56.01-.1.06-.27.07-.14 0 .34.03 2.1.03 2.65 0 .29.01.56.01.85zm-1.98-4.43c.05-.01.19-.01.23.01.34.11.63.19.95.33.13.06.33.1.27.37-.15.66-.36 1.31-.57 1.95-.02.06-.06.21-.1.35-.02.08-.08.22-.16-.05-.13-.47-.82-2.7-.85-2.81-.09-.25-.06-.38.22-.52.09-.05.06-.03.15-.08 0 0-.1.24-.17.33-.02.02-.03.03-.04.03-.15.04-.06.13.07.09zm1.69.63c.05-.21.15-.14.11.05-.06.33-.66 3.65-.78 4.15-.04.18-.32.25-.56.27-.09.01-.09.01-.06-.12.36-1.23.95-3.2 1.29-4.35zm.21-4.29c.01.17.03 2.29.04 2.67 0 .16-.2.32-.33.43-.11.1-.34.02-.3-.13 0 0 .5-2.86.55-3.13.01-.11.04-.05.04.16zm-1.26 2.58c.14-.1.2-.05.2-.22 0-.1-.16-.02-.09-.15l.18-.39c.2-.39.44-.87.58-1.18.05-.12.06-.07.04.06-.01.06-.37 2.23-.4 2.31-.04.08-.06.24-.46.34-.15.03-.34.1-.48.14-.06.01-.02-.03-.02-.03s.36-.81.45-.88zm-1.53-2.39c.06.09.95 1.41 1.36 2.13.06.11-.06.19-.15.22-.16.06-.18.05-.34.11-.22.08-.32-.09-.38-.32-.07-.27-.6-2-.59-2.1.01-.13.05-.11.1-.04zm-.39-1.7c-.01-.3-.04-.58-.04-.88 0-.33-.01-.41.06-.3.27.43.51.81.74 1.2.12.2-.07.19-.14.2-.14.02-.3.04-.41.04-.19-.01-.2-.02-.21-.26zm.15 4.36c-.01-.5-.04-1.36-.07-1.97-.03-.72.01-.62.12-.24.12.36.41 1.45.51 1.77.04.13.13.38.03.41-.14.05-.33.1-.45.14-.08.05-.13.01-.14-.11zm.98 5.96c-.17.01-.4-.01-.57-.01-.14 0-.17-.16-.18-.29-.02-.21-.08-1.7-.09-2.23-.01-.44-.01-.83-.04-1.27-.01-.09-.06-.61.02-.61.07-.02.18.49.2.54.13.5.25 1 .37 1.49.17.68.34 1.36.49 2.04.05.25.06.32-.2.34zm.34-.49c-.11-.49-1.08-4.08-1.08-4.36 0-.09.1-.22.29-.32.15-.1.19.17.22.25.23.7.44 1.4.66 2.1.11.35.2.71.3 1.06.03.11.03.19-.01.32-.03.09-.2.77-.26.88-.04.09-.12.12-.12.07zm.95 1c-.47.07-.71-.01-.85-.31.51-.1 1.01-.21 1.54-.32-.01.31-.27.57-.69.63zm.72.99c-.12.01-.2 0-.23-.19-.03-.15.02-.26.2-.26.12-.03.15.11.17.23.02.11-.06.21-.14.22zm.17-10.69c0-.06.02-.33.11-.13.04.07.6 1.37.79 1.82.07.17.05.28-.09.45-.2.24-.37.43-.56.63-.09.11-.13.06-.13-.07-.02-.28-.1-2.2-.12-2.7zm.13 3.35c-.01-.09.07-.22.16-.34.22-.3.47-.57.74-.88.03-.04.06-.01.07.01.17.38.34.72.48 1.06.1.25-.04.46-.3.46-.23 0-.47-.01-.7-.03-.26-.03-.44-.12-.45-.28zm.33 4.9c-.06.02-.13 0-.14-.23-.02-.45-.06-1.86-.07-2.31 0-.03.16.62.21.82.08.28.34 1.27.36 1.48.01.14-.15.17-.36.24zm1.07-.44c-.04.11-.28.18-.35.2-.18.06-.2-.09-.31-.52-.2-.72-.38-1.46-.56-2.19-.04-.17-.06-.34-.09-.51-.04-.16.07-.18.13-.05.1.18 1.08 2.57 1.15 2.77.03.11.06.22.03.3zm.64-.17c-.3.12-.38.12-.44-.02-.35-.81-.9-2.05-1.23-2.85-.15-.38.09-.41.18-.27.26.44 1.73 2.56 1.82 2.67.2.26-.12.39-.33.47zm4.3-1.78c0 .09-.02.26-.12.26h-.97c-.27 0-.58.1-.71.17-.29.14-.53.29-.97.52-.16.08-.21.1-.37.17-.07.03-.16.08-.25.12.32-.66.81-1.32 1.27-1.37.2-.03.43.2.62.19.34-.02.62-.27.83-.46.33-.3.64-.26.67-.19.01.04-.01.27 0 .59zm0-1.09c-.32-.12-.77.15-1.14.47-.37.32-.46.18-1.02-.03s-1.21.65-1.21.65-.17-1.41.09-2.04c.28-.33 1.2-.89 1.3-.23.08.55.57.66.78.68.57.07 1.2-.52 1.2-.52s.02.75 0 1.02z"/><path class="st13" d="M19.44 87.38c-.15.7-.14 1-.11 1.31.08-.1.16-.17.24-.16-.07.21-.09.38-.08.55.08-.12.15-.19.26-.23-.04.21-.05.36-.02.6.1-.22.19-.42.3-.34.11.07 0 0 .1.06.09.05-.09.35-.12.43-.03.08.11.21.28.26-.16.61-.31 1.11-.18 1.66.05.2.13.4.39.54-.11-.47-.1-.82-.06-1.18.03-.24.15-.48.26-.7.06-.12.2-.07.27.08.09.21.09.67.09.9.02.76.13 1.17.87 1.54.3.15.52.06.68-.07.11-.09.3-.3.18-.48-.17-.27-.1-.32.15-.29.3.04.52-.15.65-.39.06-.11.08-.47-.15-.44-.61.07-.63-.23-.72-.43-.09-.21-.05-.94.19-.96.13-.01.19-.16.14-.34-1.42 0-2.87-.67-3.61-1.92m2.05 4.09c-.08-.37-.11-.66-.11-1.04 0-.3.17-.35.49-.35.26 0 .33.12.26.26-.24.52-.14 1.02.07 1.47-.3.29-.64-.01-.71-.34"/><path class="st12" d="M22.91 73.77c.02.19.42 1.02.72.36s.87.63 2.01.63 1.6-.35 1.94-.29c.34.05.53.3.39.72-.28.81-.83 1.29-2.03 2.45a9.71 9.71 0 0 0-.76 1.12c-.11.22-.1.38 0 .41.09.03.18-.01.27-.13.21-.27.26-.65.63-.87.23-.14 1.27-.55 1.27-.55s.57-.19.87.13c.3.32.47 1.33.42 1.78a2.61 2.61 0 0 1-1.16 1.97c-.95.66-.53 1.23-.3 1.48.23.25 1.47.13 1.47.13s.49.02.76.43c.15.23.15.54.15.54s-.54.38-.95.34c-.71-.07-1.02-.38-1.61-.36-.59.02-1.57.02-1.57.02s-.53-.07-.38-.55c.23-.75.54-1.55.46-2.02-.05-.29-.55-.27-.73-.2-.19.07-.34.17-.62.03-.11-.06-.12-.32-.15-.51-.08-.39-.08-.9.07-1.43.08-.27.08-.26.12-.35.1-.2-.16-.42-.35-.03-.26.55-.28.99-.28 1.33-.01.68.43 2.06.34 2.7-.08.63-.25 1.06-.72 1.52-.47.47-1.95 2.24-1.95 2.24s-.59.71-.21 1.48c.26.54.86.44 1.12.44.23 0 .36-.09.71.19.3.25.36.63.07.68-1.47.24-2.08-.03-2.86-.49-.77-.45-.64-1.67-.64-1.67s-.03-.6.92-1.29c.23-.37.44-.88.27-1.2-.16-.3-.5-.92-.5-.92s-.32-1.38-.28-1.93c.04-.55-.02-1.4.42-2.29.44-.89 1.34-1.98 1.7-2.87.39-.86.83-1.94.95-3.17"/><path class="st13" d="M24.07 69.77c0 .1-.02.18-.06.23-.26-.05-.39-.27-.47-.44-.33.05-.46-.04-.73-.25-.16-.14-.35-.42-.45-.68-.17.02-.45-.19-.61-.38-.29-.3-.25-.6-.51-.97-.06.71-.56 1.21-.23 1.9.12-.27.2-.51.36-.72-.01.43 0 .51.04.87.03.2.11.45.23.55a.837.837 0 0 1 .05-.51c.08-.22.15-.3.29-.39.06.14.04.21.03.36-.01.14-.02.26.02.44.07.3.16.46.24.66-.02-.22.01-.42.07-.58.05-.15.11-.22.23-.31.2.33.16.54.19.86.03.31.22.41.27.62.13-.28-.11-.74.28-1.01-.06.4-.06.68.07.99.07.18.27.33.33.58.05-.37-.15-.77.05-1.16.18.19.12.35.17.54.08.27.22.42.14.69.38-.16.2-.84.21-1.24 0-.25.04-.24.08-.41-.06-.09-.18-.16-.29-.24"/><path class="st13" d="M25.21 68.53c0-.08-.01-.22.09-.32.1.03.24.14.26.3.03.2.03.49-.05.57.4-.21.41-.61.33-.93-.08-.25-.3-.38-.25-.59.34-.05.43.38.45.59.12-.18.17-.46.12-.67-.04-.16-.27-.32-.17-.55.11 0 .17.09.24.19.06.09.12.21.16.34.08-.24.03-.45-.05-.63-.08-.19-.2-.22-.25-.53.17-.07.17.14.37.2.01-.22.03-.29-.17-.57.06-.06.2-.01.27.08.01-.21-.19-.47-.31-.58.08-.04.17 0 .24.04.03-.18-.1-.35-.2-.43-.13-.1-.23-.09-.34-.19-.1-.1-.26-.31-.29-.47.12-.01.27-.03.4-.09.21-.1.32-.2.44-.39.14-.21.19-.47-.04-.69a.648.648 0 0 0-.63-.16c-.24.07-.37.32-.66.18-.04.14-.11.16-.14.17-.08.04-.27.05-.45.03-.16-.02-.83.01-.99.03-.35.04-1.7.56-1.66.24-.06.32-.5-.14-.96.27-.26.22-.31.55-.21.81.14.33.48.44.9.36-.01.14-.04.25-.16.37-.1.1-.24.19-.32.42-.08.31-.07.87.21 1.12-.04-.32-.04-.46.05-.67.06-.16.21-.28.29-.27-.07.24-.11.57-.11.86 0 .3 0 .48.16.75.01-.34.12-.77.31-.8.19.3-.03.57-.08.84-.05.3.12.43.31.53-.06-.14-.02-.3.01-.42.03-.14.17-.56.41-.46-.24.48-.24.77-.12 1.13.07.23.31.52.47.55-.12-.16-.2-.46-.2-.63 0-.3.05-.64.18-.72.06.07.15.17.12.41-.03.26-.06.34.02.59.07.22.2.37.32.5-.09-.52-.02-1.1.21-1.22-.03.4-.06.72.07.96s.22.55.22.76c.11.08.23.15.32.25.01-.04.02-.1.03-.17.05-.31-.2-.72-.19-.9.17-.01.32.32.39.51.22-.1.41-.26.62-.38.03-.15.02-.33.01-.52m.32-4.92c.06-.22.28-.34.57-.33.17-.01.19.19.07.19-.34.06-.38.25-.26.57-.3.04-.44-.19-.38-.43m.29 1.88c.12.21-.01.45-.11.56-.19.2-.44.22-.57.09.07-.19.14-.21.33-.3.15-.06.34-.22.35-.35m-4.26-.75c-.24-.07.04-.31-.12-.39-.14-.07-.26.08-.31.16-.11-.14-.05-.47.35-.46.23.01.32.19.3.36-.01.18-.08.39-.22.33m.64 1.81c-.09-.1-.17-.22-.11-.47.11.18.27.24.44.29.17.05.33.12.35.29-.23.2-.53.07-.68-.11m2.55.47c-.1.05-.1.05-.2.13-.07.1-.05.26 0 .41.06.22 0 .37-.17.41-.14.03-.28 0-.36-.19-.09-.21-.12-.38-.06-.53-.21.01-.35.01-.47 0-.1-.01-.23 0-.31-.08-.1-.11-.21-.36-.08-.44.14-.09.52-.12.63-.12-.1-.27-.35-.29-.44-.47a.806.806 0 0 1-.07-.61c-.02 0-.25.05-.33.06-.26.02-.38-.14-.42-.33-.03-.14-.13-.34-.27-.44.03-.08.13-.11.21-.12.15-.01.15 0 .3.01.12.01.25 0 .37-.03.16-.05.19-.08.3-.18.08.13.09.25.06.47-.02.23-.04.5.02.72.07.28.23.35.5.3.28-.05.28-.17.27-.37-.04-.49-.4-.65-.2-1.22.15.12.35.1.62.05.16-.03.33-.17.56-.07-.14.22-.08.29-.11.5-.07.43-.48.49-.76.46.22.28.21.46.15.68-.07.27-.16.21-.18.48.16-.06.58-.26.68-.15.11.27.14.49-.24.67"/><path class="st13" d="M27.2 70.22c-.16-.14-.37-.56-.3-.69.21 0 .47.37.68.61.22.24.59.32.71.65-.02-.45-.14-.75-.45-1-.16-.13-.4-.28-.59-.41.05-.03.07-.02.18-.02.1 0 .26.09.34.13.17.08.23 0 .4.16.04-.04-.19-.39-.31-.49-.11-.1-.27-.2-.42-.24-.25-.07-.59-.06-.8-.15-.19-.08-.25-.12-.46-.28-.11.47-.23.63-.57.91-.13.11-.19.16-.27.1-.07-.05-.07-.12-.08-.18-.01-.08-.02-.16-.02-.23-.21.12-.4.28-.62.38.09.27.08.48.02.74-.1.42-.03.8.04 1.19.05.25.52.72.54.9.07-.22-.18-.69-.2-.83-.03-.24-.07-.36-.07-.58 0-.22.07-.62.1-.62.09.08.24.4.22.75-.02.33.1.55.28.76.1.12.26.11.31.36.07-.21.04-.34.01-.46-.07-.3.01-.37.02-.69.01-.25.01-.25-.04-.51-.04-.17-.01-.4.06-.48.1.03.22.36.22.53 0 .16.02.49.1.66.12.25.45.45.43.65.16-.51.11-.96-.07-1.5-.07-.2-.18-.45-.17-.69.2.07.37.66.45.87.06.16.05.16.15.28.12.14.23.25.4.32.3.13.4.32.53.58.03-.13.02-.34-.08-.61-.14-.44-.32-.56-.67-.87m.54-2.69c-.13-.35-.42-.3-.65-.48-.06-.05-.17-.2-.22-.3-.04.09-.05.26.07.38.13.13.31.21.44.34.18.17.15.39.45.54-.42.2-.68-.38-.95-.27.09.53.71.44.95.86-.3-.1-.46-.05-.75-.06-.12-.01-.34-.05-.44-.11-.28-.17-.25-.28-.19-.5.09-.32.26-.45.17-.81-.02-.1-.03-.19-.03-.3 0-.29.33-.74.07-1.09.13.09.29.21.3.41.03.32.07.59.41.72.51.23.4.64.37.67M36 75.11c-.34.08-.68.15-1.01.23-.31.08-.52.07-.71-.26-.14-.26-.27-.26-.27-.26s-.01.12-.19.14c-.06.01-.28-.01-.35-.03-.23-.05-.55-.1-.78-.09.13.11-.02.25-.1.26-.35.06-.79.08-1.14.12.21.11.25.46-.04.53-.22.06-.56.06-.76.2.28.19.07.38.01.43-.11.1-.21.17-.39.25-.19.07-.41.16-.46.28.38.09-.08.49-.21.63-.15.16-.23.2-.27.39.22 0 .5.06.36.27-.13.23-.35.61-.41.74-.05.12-.11.23-.17.35.51-.29.71-.43 1.15-.11.1.07.15.08.26.06.14-.03.25-.08.36-.16.24-.17.4-.13.49.16.43-.43.83-.58 1.05-.34.16-.18.31-.37.46-.55.22-.26.47-.3.56.06.09-.19.15-.31.22-.43.11-.18.18-.44.34-.47.07-.01.14-.03.21.09.03-.1.03-.23.03-.29.02-.25.03-.5.05-.77.23.12.54.98.5 1.29-.01.2-.1.17-.08 0a.581.581 0 0 0-.13-.38c-.11-.12-.11-.04-.14.1-.05.34-.11.68-.17 1.08-.02.12-.1.09-.08.02.01-.02.02-.13.02-.15 0-.18.01-.52-.17-.4-.66.51-.42 1.32-.78 1.92-.05.09-.12.12-.01-.17.06-.15.09-.36.07-.59-.01-.16.01-.24-.1-.21-.06.02-.13.05-.18.08-.22.12-.42.25-.6.54l-.39.54c-.08.11-.12.02.04-.21.13-.21.15-.28.19-.43.02-.1-.03-.09-.12-.08-.11.02-.28.1-.23.01.02-.04.27-.12.41-.17.14-.05.17-.14.36-.25-.29.04-.49.04-.68.1-.39.13-.47.47-.55.82-.03.17-.12.35-.25.46-.06.05-.11.1-.17.14.11.07.21.15.32.23.28-.14.48-.26.75-.38.35-.16.94-.35.78.07a.7.7 0 0 0 .41-.22c.25-.26.4-.55.68-.6l.19-.03c.12-.15.25-.27.38-.4-.06-.01-.17-.1-.15-.25.01-.08.06-.27.08-.33.05-.21.21-.38.57-.29-.01-.2-.02-.37-.03-.53-.03-.36.18-.41.46-.4-.06-.25-.11-.47-.17-.7-.03-.1-.05-.2-.1-.3-.2-.38-.19-.44.12-.63.33-.2.67-.32 1.03-.37-.11-.1-.23-.24-.37-.36m-1.97 1.12c-.21.15-.3.31-.31.55-.02.25-.04.52-.14.76-.03.05-.09.09-.04-.09.05-.2-.01-.43-.12-.63-.31.46-.6.89-.89 1.33-.07.08-.11.04-.08-.04.15-.36.43-.73.49-1.15-.43.19-.69.43-.88.73-.18.29-.33.59-.49.89-.06.12-.16.12-.1-.03.08-.21.2-.43.2-.69-.5.27-1.06.63-1.57.91-.11.07-.18 0-.07-.1.38-.3.87-.55 1.26-.98-.3-.11-.66.01-.92 0-.07.01-.11-.03-.01-.07.39-.09.78-.18 1.16-.28.38-.1.74-.25 1-.62-.44.05-.85.1-1.26.14-.14.02-.15-.03-.03-.07.08-.03.78-.22.87-.24.5-.1.39-.07.89-.17.09-.02.21-.06.25-.15-.03-.13-.16-.16-.25-.17-.28-.04-.56-.04-.84-.06-.13.01-.12-.07-.03-.1.26-.04.53-.08.8-.09.27-.01.54.03.81.06.29.03.51.03.89 0-.33.12-.41.23-.59.36m13.51-4.74c-.01-.1-.18-.32-.06-.41.06-.04-.03-.15-.05-.23-.01-.05-.1-.16-.11-.21-.02-.09.03-.12 0-.22-.06-.2-.22-.41-.28-.58-.07-.19-.03-.34-.09-.44-.02-.03-.19-.14-.2-.17-.11-.18-.06-.24-.15-.37-.12-.17-.3-.26-.41-.37-.11-.11-.14-.25-.26-.32-.03-.02-.17-.03-.19-.06-.23-.28-.5-.23-.62-.06-.23.31-.44.64-.66.96.03.02.06.04.08.06.01-.01.02-.03.03-.04.17-.21.35-.42.54-.61.07-.07.23-.2.35-.13.07.04.09.12.06.19-.1.21-.31.41-.48.6.16-.12.3-.26.52-.41.11-.07.2-.17.29-.1.11.1-.62.71-.77.88.16-.06.68-.51.81-.56.13-.05.19-.04.24.02.03.03.06.12.01.18-.15.24-.98.72-1.12.87.68-.4 1.3-.68 1.43-.49.06.06.01.19-.1.25-.13.07-.67.36-.87.48.22-.06.77-.31.93-.31.11-.01.23-.05.33.11.04.11-.14.23-.26.29-.11.05-.32.11-.52.17.24-.01.64-.05.82-.06.02.02.11-.04.13.05.04.14-.2.17-.28.19-.23.07-1.04.24-1.03.28.27-.04.55-.09.82-.11.17-.01.59-.02.62.09.04.12 0 .25-.15.25-.32 0-.69.06-1.06.1.38 0 .66.03.94.01.15-.01.37.01.41.16.01.05-.01.18-.08.18-.97.07-1.11 0-1.71 0 0 .08-.04.11-.06.19.22 0 .44-.01.66-.01.44 0 .7.06 1.14.05.27.02.42-.18.41-.34"/><path class="st13" d="M45.12 71.62c.09-.14.05-.23.19-.3-.05-.03-.27-.06-.2-.1.1-.08.03-.19.14-.27-.27-.13-.4-.79-.35-.84-.09-.03-.31-.22-.35-.35-.03-.11.03-.31.13-.38-.15-.02-.24-.16-.16-.3-.03-.02-.05-.04-.08-.06l-.06.09c-.09.14-.18.17-.35.11-.11-.04-.36-.03-.31-.11-.06-.01-.13 0-.23.03-.14.04-.58-.1-.45-.15-.21-.06-.4-.02-.62.13 0 0-.02-.01-.02-.02-.05-.03-.07-.11-.07-.11s-.33.15-.45.28c-.13.15-.33.57-.41.43-.08.14-.09.32-.13.48-.02.07-.1.29-.14.16-.1.07-.11.23-.1.37 0 .08.04.18.01.24-.13.22-.02.38.1.55.1.15.02.37.28.46.23.08.2.35.04.56-.19.26-.43.28-.74.19.06.21.02.33-.07.4.08.14.14.28.21.43.36-.18.7-.39 1-.68.15-.14.32-.09.45.06.06.07.12.16.2.21.15.12.32.22.42.29-.03-.2.66-.01.85-.01-.15-.11.37-.2.61-.3-.23-.3.33-.23.47-.41-.15-.01-.22-.05-.16-.14.15-.13.28-.24.37-.31-.13-.06-.02-.24-.03-.34.07 0 .15-.07.22-.07.02-.08.06-.11.06-.19h-.27zm-.73.8c-.3.16-.37.44-.69.54-.07.02-.14.03-.23.05-.16.01-.07-.15-.07-.25-.1.1-.23.19-.36.18-.12-.01-.03-.2.03-.29a.31.31 0 0 1-.17.06c-.12.01-.23-.01-.26-.12-.01-.04 0-.13.03-.2-.33.07-.49-.08-.53-.29-.03-.14-.01-.22.07-.28-.03-.01-.21.07-.3.11-.15-.01-.14-.34-.1-.56-.06.1-.15.22-.18.12-.1-.2.04-.22.07-.52.01-.12.11-.19.18-.32-.19.07-.37.08-.51 0 .18-.27.4-.41.58-.52-.19.02-.25-.08-.27-.14-.02-.07-.02-.07.03-.17.11-.21.32-.35.49-.53.22.3.43.28.63.03.05-.06.29-.07.33-.03.12.17.22.16.41.13.2-.03.41.06.62.09.09.02.09.08.02.12-.08.07-.08.06-.16.13-.05.05-.16.18-.2.24.05.04.48-.33.59-.08.13.08.18.18.13.39-.03.11.14.27.24.43-.1.15-.03.33.03.54.08.41-.37 1.42-.45 1.14m-3.83 4.8c.15-.09.29-.22.35-.32.6-.69.89-1.41 1.32-2.14.07-.15.18-.09.12.01-.13.33-.23.63-.4.96-.07.13-.02.14.05.11.18-.06.37-.1.54-.18.43-.22.57-.3.87-.69.03-.04.24-.36.3-.39.06-.08.14-.02.09.06-.21.33-.41.66-.61.98.81.19 1.44-.21 2.01-.75.09-.08.16 0 .07.09-.2.2-.4.41-.61.63.62.21 1.39-.1 1.64-.43.03-.04.14-.05.06.09-.09.11-.21.26-.37.39.51-.02 1.06-.14 1.55-.26.11-.03.14.07.03.08-.31.1-.62.22-.93.31-.2.06-.42.1-.63.12-.11.01-.13.07-.13.11 0 .03.04.1.07.13.06.05.14.09.2.12.08.04.24-.01.32.04.08.08-.15.07-.27.08-.07 0-.23-.03-.3-.11-.25-.24-.49-.33-.82-.3-.14.01-.35.01-.49.03.06.13.19.29.31.38.1.07.23.17.3.23.07.06 0 .12-.13.03-.4-.25-.75-.57-1.17-.69-.4-.12-.98-.05-1.31.03-.12.04-.07.07.01.12.37.18.76.23 1.1.48.1.09.03.15-.06.1-.09-.05-.18-.1-.27-.13-.48-.17-.96-.31-1.47-.19-.21.05-.41.18-.58.31-.17.14-.11.37.11.4.37.06.72.14.96.51.17-.2.24-.28.19-.5.35.09.59.38.77.52.03-.08.06-.17.13-.25.08-.1.18-.12.28-.13.24-.03.33.05.54.24.33-.37.48-.4 1.22-.1-.04-.32.16-.48.52-.4.36.08.48-.07.74-.35.1-.11.34-.17.46-.26-.27-.25.08-.42.17-.46.36-.16.63-.31.84-.69.09-.15.25-.2.32-.26-.55-.13-.72.04-1.11.04-.23 0-.55 0-.28-.49-.54-.03-.87.17-1.18.11-.11-.02-.18-.04-.22-.19-.02-.06.02-.19.03-.25-.11.05-.21.06-.26.02-.15-.11-.06-.2 0-.27.07-.1.15-.18.23-.26-.21-.15-.43-.31-.66-.44-.13.13-.27.26-.41.39-.19.17-.41.33-.64.42-.09.04-.17 0-.28-.11-.07-.08-.18-.19-.33-.21-.28.61-.84.75-1.12.31-.17.05-.35.17-.51.42-.12.18-.27.29-.44.29-.12 0-.17-.01-.23-.1-.11.06-.27.22-.34.31-.15.22-.26.47-.18.79.05.21.05.43-.01.66-.06.2-.14.4-.33.56.01.14.03.28.04.42.1-.05.16-.09.22-.13"/><path class="st13" d="M40.34 79.78c-.16.04-.31.13-.46.2-.22.1-.49-.01-.38-.26.14-.21.25-.46.43-.64.17-.18.38-.3.63-.36-.01-.09-.02-.17-.04-.26-.17.03-.34.06-.51.11-.2.06-.23-.09-.2-.24.08-.4.25-.74.57-.98-.02-.14-.03-.28-.04-.42-.18.15-.42.27-.69.33-.05-.25-.31-.59.12-.63-.16-.14-.34-.25-.45-.41-.11-.16-.16-.36-.23-.54-.21-.55.11-1.48.64-1.78.1-.06.26-.1.35-.06.09.04.14.19.22.31.08-.17.14-.39.29-.46.11-.05.24-.12.34-.17-.07-.14-.12-.29-.21-.43a.62.62 0 0 1-.26.11c-.29.08-.57.18-.84.29-.05.02-.19.1-.26.13-.49.33-.58.31-.76.33.34.28.05.61-.17.74-.18.1-.43.04-.55-.05-.08-.06-.16-.12-.23-.24-.11-.18-.15-.42-.09-.59-.12-.03-.26-.04-.38-.09.01.04.01.08 0 .11-.03.1-.12.1-.18.12-.11.02-.23.02-.38 0-.29-.03-.46-.14-.31-.54-.87.64-1.94.39-2.46-.25.03.2.15.57.24.7.2.31.45.5.76.76.07-.25.44-.35.75-.23.1.04.54.19.74.27.07.03.18.06.17.2-.01.11-.13.14-.2.16-.11.03-.21.05-.32.08.14.12.26.26.38.4.31-.05.62-.04.94 0 .33.04.38.1.49.26.14.21.04.39.04.55 0 .06.02.26.03.25.19-.33.36-.3.56.08.1.19.2.39.27.6.09.28.13.43-.15.69-.14.12-.19.21-.23.36.56-.35.49.62.49.75 0 .37-.31.55-.48.83-.06.09-.1.13-.13.29.29-.21.33 0 .29.25-.01.07-.02.11-.02.15.35.17.74.31 1.13.26.13-.31.37-.51.7-.67.14-.07.28-.12.43-.17-.01-.11-.02-.21-.04-.32-.12.06-.23.09-.35.12"/><path class="st13" d="M48.14 79.25c-.02-.16.09-.34.29-.47-.44-.19-.84-.24-1.28-.27-.21-.01-.29-.15-.17-.35.04-.07.07-.08.2-.21-.35-.1-.68-.1-.97-.07-.13.01-.2 0-.24-.06-.04-.06-.05-.13.03-.24-.09-.03-.33.04-.44.06-.39.06-.79-.08-1.17.1-.08.04-.27.08-.34-.08-.01-.01-.02-.08-.01-.11-.05-.01-.15.03-.19.04-.3.12-.59.16-.92.03-.03-.01-.06-.02-.09-.01-.11.01-.25.08-.37.09-.19.02-.4-.03-.59-.01-.1.01-.2.05-.3.13-.05.05-.14.07-.17.13-.2.35-.52.45-.86.52.01.09.02.17.04.26l.15-.03c.26-.03.5-.08.6.27.02.08.16.12.23.2.05.06.1.14.1.21 0 .04-.09.11-.15.12l-.81.21c.01.1.02.21.04.32.09-.03.17-.06.26-.09.26-.09.52-.17.79-.21.19-.03.36-.04.6-.05.42-.01.58.12.86.37.07.06.14.14.29.23-.02-.11.02-.16.12-.22.04-.03.27 0 .35.04.22.11.72.43.82.49 0-.17.12-.16.19-.17.47-.01 2 1.24 2.47 2.22.18-.24.2-.41-.19-.87-.27-.32-.48-.53-.75-.84-.06-.07-.22-.21-.14-.35.07-.13.17-.12.28-.11.13.02.19.06.29.12.11-.11.11-.19.07-.34.23.09.37.14.71.11-.07-.11-.05-.16.08-.2.36-.08.68 0 1.08.13-.12-.52-.4-.81-.79-1.04m-.44.5c-.25-.19-.69-.45-1.17-.51.17.21.33.52.41.69.06.09-.02.15-.07.07-.44-.48-.98-1.11-1.61-.96.23.32.35.6.44.94.02.1-.07.12-.11.02-.08-.22-.19-.42-.33-.57-.2-.21-.38-.36-.59-.54-.17-.14-.57-.22-.77-.02.32.24.48.59.49.8 0 .08-.04.12-.09.01-.15-.44-.83-1.08-1.51-.88.22.2.38.36.47.65.05.14-.04.17-.1.05-.31-.58-.99-.88-1.7-1.03.71-.01 1.4-.04 2.02-.44.08-.06.14.04.04.11-.11.1-.21.2-.32.29.83.22 1.48-.03 2.29-.37.12-.03.12.05.04.08-.17.11-.41.25-.66.42.46.02.71.11.94.06.23-.06.46-.07.71-.09.04 0 .13-.02.14.02.02.06-.1.07-.14.08-.2.04-.35.04-.61.17.76.21 1.51.53 1.85.88.07.07 0 .11-.06.07m-9.89-6.13c.53-.02.73-.45 1.19-.67.07-.03.14-.07.16-.12-.53-.01.35-.6.35-.95-.26.09-.17-.18-.13-.28.12-.35.12-.37.24-.64.02-.05.15-.31.14-.41-.08.05-.16.05-.24.05-.01 0 .16-.94.14-1.09-.09.04-.29.09-.27-.07.04-.4.13-.58.25-.84-.07.02-.35.03-.24-.3.05-.14.2-.46.17-.66-.41.14-.18-.31-.08-.48.06-.09.14-.18.32-.29-.13 0-.27 0-.4.06-.2.08-.28.12-.46.23-.42.25-.41.26-.76-.09-.34.36-.49.71-.72 1.05-.09.11-.23.03-.36-.21-.17.24-.18.69-.24 1.02-.04.22-.15.22-.17.23-.05.01-.08.02-.16-.08-.06.12-.05.12-.08.25-.04.22-.03.42-.05.63-.01.18-.07.51-.27.57.17.14.26.37.31.62.05.27.08.37-.12.46-.11.05-.22.05-.33.03 0 .09.05.29.11.41.15.29.28.76.11.99.27-.05.53.09.77.34.08.09.19.21.21.32.13.05.26.07.38.09.03-.09.1-.16.23-.17m-.87-1.46c-.09-.07-.23-.2-.26-.3-.04-.1.58.4.84.43.03-.34.07-.73-.14-1.05-.19-.28-.35-.59-.5-.9-.03-.06-.07-.24-.08-.35-.01-.08.02-.14.05-.06.23.46.4.8.75 1.12.4-.74-.03-1.26-.12-1.83-.05-.31.04-.11.06-.05.12.29.19.42.35.61.07.07.13 0 .13-.04.03-.59 0-1.17 0-1.75 0-.08.08-.08.08 0 .03.26.04.65.14.92.02.05.03.04.05.01.23-.42.42-.92.62-1.29.06-.11.12-.08.04.09-.26.71-.48 1.38-.74 2.09-.02.04 0 .07.03.03.15-.14.29-.29.44-.43.12-.11.4-.25.54-.24.15.01-.11.09-.2.15-.76.53-1.19 1.71-1.15 2.82.53-.45 1.23-1.27 1.38-1.45.16-.2-.03.25-.1.34-.39.52-.69.91-1.18 1.34a.78.78 0 0 0-.23.45c-.02.13.01.11.06.08.16-.1.61-.39.53-.24-.21.22-.58.63-.64.67-.08.05-.14.01-.18-.02-.03-.02-.03-.12-.02-.17.08-.49-.24-.73-.55-.98m18.02 2.13c-.01-.06-.38-.91-.42-1.24-.07-.5-.02-.97.07-1.44.01-.06.04-.15.01-.18-.46-.45-.84-.9-1.39-1.35-.27-.22-.74-.54-1.83-1.17-.62-.31-.95.01-1.33.46-.25.3-.45.64-.68.96-.06-.12-.05-.18.01-.3.08-.17.23-.35.03-.57-.28-.32-.54-.67-.8-1.01-.15-.19-.52-.96-.62-1.28-.14-.29-.43-.4-.73-.43-.41-.05-.84-.06-1.24-.14-.36-.07-.7-.24-1.07-.32-.19-.04-.41-.01-.61.03-.19.03-.36.13-.55.16-.18.03-.3.07-.33.29-.02.12-.1.27-.21.34-.48.33-.83.71-.92 1.34.42.08.4-.17.58-.38v.44c.64-.01 1.26-.43 1.01-1.02.03-.01.06-.04.08-.03.25.11.47.1.69-.1.08-.08.27-.08.4-.06.56.07 1.1.18 1.57.53.41.31.76.65.93 1.16.29.85.58 1.69.91 2.52.06.14.17.29.46.27.21-.01.41-.05.62-.07.13 0 .06.13.05.2-.06.13-.31.21-.46.21-.83 0-1.64.28-2.48.11-.19-.04-.46.01-.61.13-.33.27-.63.58-.94.87.23.13.45.29.66.44.45-.39 1.13-.48 1.76-.33.33.08.76.18 1.07.27.45.13.7.22 1.13.4.28.12.56.27.81.45.23.16.46.16.7 0 .34-.22.67-.39 1.04-.57.25-.12.37.1.24.15-.24.16-.3.21-.58.4-.12.08-.25.15-.35.25-.33.29-.55.27-.87.21-.21-.04-.38-.23-.59-.28-.2-.02-.21.09-.09.21.21.22.43.44.62.67.27.32.65.36 1.01.49.17.06.33.15.5.18.24.05.51.11.74.07.57-.11 1.13-.26 1.62-.65.38-.3.4-.67.41-1.04-.01-.15-.02-.19-.03-.25m-3.23-.65c-.32.15-.63.54-.99.4-.32-.13-.69-.34-1-.47-.1-.04-.11-.17.04-.13.12.03.29.09.4.12.43.12.79.28 1.18-.1.13-.12.65.03.37.18"/><path class="st13" d="M58.28 90.12c-.09-.41-.28-.9-.39-1.32-.05-.2.01-.33.18-.42-.12-.3-.32-.54-.53-.79-.01.03-.02.05-.03.09-.03.09-.17.12-.24.03-.67-1.38-1.7-2.25-2.96-3.06.2-.84-.14-1.35-.93-1.61-.4-.03-.62.32-.64.37-.17.32-.03.77.12 1.03.21.36.6.53.95.52.17-.01.34.12.5.21.68.41 1.31.89 1.84 1.48.27.3.45.58.66.93.05.08.14.34 0 .42-.18.1-.3-.04-.5-.28-.27-.32-.51-.55-.78-.82-.27-.27-.52-.56-.81-.81-.33-.28-.89-.63-1.21-.79-.52-.26-.67-.32-1.17-.56-.08-.04-.2-.15-.19-.21.05-.42-.2-.73-.4-1.05-.07-.11-.22-.18-.34-.26-.24-.14-.18.14-.28.21-.07.05-.16.09-.25.08-.97-.01-1.85.19-2.75.66-.17.09-.32.26-.5.18-.14-.06-.2-.31-.3-.47-.21-.33-.27-.54-.5-.86-.29-.41-.67-.86-1-1.14-.93-.79-1.97-1.39-3.29-1.39-.76 0-1.47.15-2.17.39-.19.06-.36.18-.55.26-.07.03-.2.04-.25 0-.04-.04-.04-.17-.01-.24l.03-.06c-.39.05-.78-.09-1.13-.26-.02.13-.02.12-.06.27-.02.11-.2.21-.27.12-.1-.12-.16-.21-.3-.37-.32-.38-.64-.57-1.06-.76-.67-.31-1.27-.49-2.13-.52-.03 0-.06 0-.09-.01-.13.13-.27.25-.38.4.44-.05.9 0 1.34.07.49.09.85.25 1.26.55.27.2.48.41.62.67.14.25.09.34.06.37-.07.08-.21.15-.51.03-.41-.14-.56-.21-.93-.33-.82-.27-1.67-.32-2.52-.18-.79.13-1.58.54-2.19 1.04-.52.43-.9.89-1.39 1.36-.1.09-.23.21-.35.21-.34-.01-.46-.26-.27-.53.27-.39.56-.78.87-1.14.24-.28.34-.38.64-.6.12-.09.42-.3.55-.36-.11-.08-.22-.16-.32-.23-.38.31-.79.59-1.14.94-.41.4-.75.88-1.14 1.31-.23.25-.18.22-.5.24-.11.34-.44 1.09-.28 1.15.49.19.81.25 1.29 0 .15-.08.34-.11.51-.14.12-.02.18-.01.23-.11.33-.69.56-.88 1.06-1.42.44-.48 1.01-.89 1.56-1.14.36-.17 1-.3 1.39-.31.75-.03 1.54-.12 2.13.53.07.07.11.18.08.32-.02.1-.16.1-.25.1-.31-.01-.57-.05-.92-.07-.51-.03-1.04-.02-1.52.1-.74.19-1.51.59-2.07 1.18-.39.41-.69.7-.94 1.26-.13.28-.22.58-.34.86-.15.35-.4.42-.7.19-.71-.56-1.54-.79-2.43-.83-.38-.02-.77-.02-1.14.02-.62.07-.92.11-1.49.29-.58.18-1.39.66-1.96 1.24-.41.42-.58.57-.92 1.03-.26.36.02 1.01.44 1.04.41.04.59-.27.83-.51.14-.14.25-.29.4-.44.23-.23.52-.43.8-.6.45-.25.73-.38 1.25-.51.42-.1.93-.14 1.36-.12.53.02.94.07 1.3.46.16.17.2.39.14.56-.05.13-.36.02-.49-.03a3.82 3.82 0 0 0-2-.25c-.28.04-.56.12-.8.25-.33.19-.67.42-.91.71-.3.37-.72.89-.6.95.06.04.23-.09.29-.16.3-.29.57-.61.89-.87.71-.59 1.38-.6 2.35-.38.4.09.78.33 1.17.47.34.13.62-.03.6-.34-.04-.67.39-1.22 1.05-1.28.25-.02.51.07.76.14.29.07.46-.01.53-.3.06-.24.01-.35-.02-.53-.02-.15-.04-.28-.05-.43-.04-.48.24-.91.62-1.36.29-.34.83-.74 1.21-.97.74-.44 1.55-.6 2.4-.41.38.08.75.22 1.12.33.55.17.93-.06 1.05-.57.01-.05.03-.1.06-.13.22-.27.5-.24.77.07.33.39.94.42 1.25.05.2-.24.35-.58.61-.72.5-.28 1.05-.54 1.61-.64.78-.15 1.72-.12 2.47.21.46.21.69.29 1.22.7.86.67 1.54 1.52 1.85 2.6.13.44.08.56.05.91-.02.23-.28.4-.46.34-.09-.03-.15-.12-.16-.27-.01-.76-.33-1.13-.68-1.65-.2-.3-.51-.69-.92-1.06-.47-.42-.88-.76-1.9-1.07-.45-.13-.7-.11-1.19-.1-.63.03-1.16.17-1.57.63-.22.24-.22.7-.02.85.18.14.43.2.69.08.25-.12.28-.36.26-.6-.03-.26.06-.4.3-.47.85-.25 1.66-.11 2.38.36.56.37 1.06.8 1.45 1.37.27.4.58.71.71 1.25.04.15-.01.38-.03.54-.06.36.1.79.59.71.32-.05.62-.14.75-.44.08-.18.12-.31.24-.55.15.44.26.61.71.69.01 0 .05.12.06.15.13.34.54.56.96.36.45-.2.93-.2 1.4-.22 1.12-.05 2.09.3 2.95 1.03.47.4.83.85 1.18 1.33.36.5.61 1.12.67 1.77.03.32.06.5-.28.64-.28.11-.38.43-.33.67.04.24.21.5.55.5.23 0 .45.01.68.05.54.09 1-.19 1.12-.69.05-.2.14-.27.36-.22.51.12.66-.04.75-.51.08-.14 0-.34-.06-.63m-4.46-5.58c-.21.1-.42-.11-.56-.26-.17-.18-.24-.52-.17-.64.14-.25.3-.31.6-.1.46.31.39.87.13 1m-24.88 1.58c-.12.17-.23.19-.35.18-.2 0-.4-.06-.58-.14-.85-.36-1.71-.35-2.57-.15-.52.12-1.05.28-1.52.54-.4.21-.72.48-1.04.77-.23.21-.37.34-.56.52-.05.05-.18.13-.29 0-.07-.06-.11-.12-.02-.3.11-.22.16-.34.28-.47.37-.42.64-.76 1.18-1.11.44-.29.66-.44 1.15-.61.38-.13 1.06-.24 1.48-.26.72-.03 1.44.01 2.13.29.24.1.44.2.65.36.12.09.15.26.06.38m19.48-1.04c-.12.03-.35.06-.4-.08-.09-.18.06-.32.15-.37.38-.21.76-.41 1.17-.55.6-.21 1.23-.29 1.86-.21.24.03.42.2.41.45 0 .29-.21.33-.43.34h-.45c-.46.01-1.05.03-1.54.18-.28.07-.51.18-.77.24m8.33 6.43c-.14.25-.62.24-.65-.08-.02-.25-.02-.27-.06-.52-.1-.66-.15-1.34-.5-1.93-.34-.59-.67-1.03-1.28-1.64-1.07-1.08-2.22-1.37-3.64-1.48-.51-.04-1.03.03-1.55.03-.18 0-.35-.1-.36-.3 0-.09.01-.2.18-.29.27-.15.49-.21.89-.25.29-.03.69-.03.98-.03 1.4-.01 2.55.56 3.31 1.07.61.41 1.31 1.27 1.72 1.86.54.77.74 1.25 1 2.11.14.41.18 1.05-.04 1.45m1.07-.77c-.05.08-.16.18-.24.18-.1 0-.25-.08-.29-.17-.13-.35-.19-.71-.3-1.07-.04-.25.08-.35.26-.43.24-.1.44.03.51.21.15.43.31.85.06 1.28"/><path class="st12" d="M59.52 76.71c-.27-.39-.5-.73-.78-1.11-.19-.26-.36-.46-.53-.75-.31-.51-.49-.64-.67-1.47-.09-.4-.06-.82.02-1.2.07-.34.23-.48.45-.47.19.01.3.1.42.25.08.1.21.28.15.57-.05.26.44.55.45 1.1.14-.98-.12-1.6-.64-2.04a.91.91 0 0 1 .33.01c.57.2.6 1.01.57 1.54-.02.48-.06 1.1-.03 1.32.03.22.09.83.72 1.22-.34-.51-.49-.68-.44-1.5.05-.74.02-.95-.01-1.3-.05-.54-.18-.76-.24-.89s-.19-.25-.19-.25c.02.01.24.13.39.41.15.29.26.55.26.97 0 .33 0 .69-.01.94-.03.62.09.93.36 1.31.22.32.69.63.84.72-.68-.88-.89-1.25-.93-1.86-.03-.45.03-.85-.03-1.27-.13-.84-.43-1.57-1.14-1.93-.11-.06-.33-.11-.64-.14.17-.05.72-.15 1.3.33.27.23.4.62.61.83.52.52.62.76.85 1.2-.02-.03-.39-1.33-1-1.99-.34-.37-.93-.55-.94-.55-.95-.29-1.83.38-2.06 1.27-.1.4-.12.76-.11 1.1.02.48.13.86.4 1.41.37.73.61 1.04 1.1 1.72.36.49.72.95 1.03 1.48.2.33.36.56.44 1.07.12.78-.34.96-.84.86-.8-.15-1.19-.75-1.59-1.37-.42-.66-.77-1.37-1.16-2.05-.06-.1-.1-.18-.16-.26-.1.1-.26.29-.32.34-.49.48-.93.76-1.6.94-.42.11-.79.09-1.2.09.1.11.24.24.31.37.17.27.28.47.41.76.03.08.15.39-.01.37-.11 0-.2-.22-.23-.32-.12-.31-.2-.49-.5-.6-.33-.13-.73-.25-1.07-.36-.63-.21-1.24-.24-1.89-.02-.24.1-.44.34-.47.38-.44.5-.44 1.31.09 1.87.39.42.71.63 1.03 1.1.17.26.31.68.37 1.14-.34.06-.59.13-.85.15-.22.02-.45.01-.66-.05-.49-.15-.91.01-1.24.34-.29.28-.48.66-.72 1 .74.18.56-.32.89-.33-.05.13-.1.26-.17.37.33.04.51-.05.69-.17.35-.24.75-.35 1.16-.41.63-.09 1.27-.13 1.9-.2.32-.04.34-.32.3-.53-.04-.21-.22-.65-.27-.97-.02-.16-.04-.35.02-.48.11-.21.43-.23.7-.09.17.08.32.16.51.23.2.08.35.05.42-.24.14-.6.13-.81.45-1.48.06-.12.16-.58.2-.79.03-.13.19-.13.19.01-.03.25-.05.48-.11.73-.07.25-.21.46-.27.71-.2.77-.2 1.17-.26 1.77-.05.61.14 1.2.49 1.65.39.5.93.9 1.58 1.09.51.14 1 .34 1.18.9.22.67.52 1.34.47 2.05-.01.16-.02.23-.05.35.21.25.4.48.53.79.02-.01.03-.02.05-.03.14-.06.29-.19.34-.33.07-.21.08-.45.06-.67-.06-.54-.18-1.08-.25-1.63-.04-.31-.02-.62-.05-.93-.04-.37-.03-.77-.49-.92-.15-.05-.29-.14-.43-.23-.49-.33-.67-1.4-.29-1.87.37-.45.46-1 .63-1.52.1-.31.22-.41.46-.21.35.29 1.09.37 1.54.26.37-.08.67-.28.85-.71.21-.5.05-1.23-.25-1.79-.26-.51-.41-.66-.72-1.11m-7.49 5.62c-.11.28-.65.25-.97.28.23-.1.57-.21.71-.31.13-.09.22-.19.21-.32.03.09.07.28.05.35m5.88 2.09c.11.05.13.16.14.31.03.35.03.46.06.84.02.21-.11.1-.16.39-.04-.51-.12-1.05-.14-1.48-.01-.12.02-.09.1-.06"/><path class="st12" d="M60.19 72.55c.05.2.11.43.13.81.01.27-.03.69.04.93.15.55.6 1.06.6 1.06s-.36-.75-.22-1.38c.08-.36.01-.54-.09-.7-.07-.12-.19-.34-.46-.72m-8.6 4.44c-.27 0-.48-.13-.48-.31 0-.17.21-.31.48-.31s.48.13.48.31c0 .17-.21.31-.48.31zm0-.46c-.2 0-.32.09-.32.15s.12.15.32.15.32-.09.32-.15-.13-.15-.32-.15zm.23.15h.79"/><path class="st12" d="M52.61 76.76h-.79c-.04 0-.08-.04-.08-.08s.04-.08.08-.08h.79c.04 0 .08.04.08.08 0 .05-.04.08-.08.08z"/><path class="st12" d="M52.86 76.99c-.27 0-.48-.13-.48-.31 0-.17.21-.31.48-.31s.48.13.48.31c0 .17-.21.31-.48.31zm0-.46c-.2 0-.32.09-.32.15s.12.15.32.15.32-.09.32-.15-.12-.15-.32-.15zm-2.32.22l.78-.07m-.78.15c-.04 0-.08-.03-.08-.07 0-.04.03-.08.07-.09l.78-.07c.04 0 .08.03.09.07 0 .04-.03.08-.07.09l-.79.07z"/><path class="st12" d="M50.17 77.14c-.14 0-.26-.06-.3-.16-.03-.08-.01-.18.06-.27.06-.08.16-.15.27-.19.09-.04.18-.06.26-.06.14 0 .26.06.3.16.03.08.01.18-.06.27-.06.08-.16.15-.27.19-.09.04-.18.06-.26.06zm.29-.52c-.06 0-.13.02-.2.04a.64.64 0 0 0-.2.14c-.03.04-.05.09-.04.11.01.03.07.06.15.06.06 0 .13-.02.2-.04a.64.64 0 0 0 .2-.14c.03-.04.05-.09.04-.11-.01-.03-.07-.06-.15-.06zm3.48.18c-.17 0-.3-.07-.33-.18-.03-.09 0-.18.08-.27.07-.07.17-.13.28-.17.07-.02.15-.03.22-.03.17 0 .3.07.33.18.03.09 0 .18-.08.27-.07.07-.17.13-.28.17-.08.01-.15.03-.22.03zm.25-.5c-.05 0-.11.01-.17.03-.09.03-.17.07-.22.13-.04.04-.05.08-.05.11.01.04.09.07.18.07.05 0 .11-.01.17-.03.09-.03.17-.07.22-.13.04-.04.06-.08.05-.11-.02-.04-.09-.07-.18-.07zm-1.11.39l.77-.15"/><path class="st12" d="M53.08 76.77c-.04 0-.07-.03-.08-.07-.01-.04.02-.08.06-.09l.77-.14c.04-.01.08.02.09.06.01.04-.02.08-.06.09l-.77.14c0 .01-.01.01-.01.01zm-3.47.74l.5-.6m-.5.68c-.02 0-.04-.01-.05-.02-.03-.03-.04-.08-.01-.11l.51-.6c.03-.03.08-.04.11-.01s.04.08.01.11l-.51.6c-.02.02-.04.03-.06.03z"/><path class="st12" d="M49.63 78.21c-.16 0-.31-.19-.33-.45-.02-.27.09-.49.26-.5.17-.02.32.18.35.45.01.12-.01.24-.05.33-.05.11-.12.17-.21.18 0-.01-.01-.01-.02-.01zm-.05-.79c-.06.01-.14.14-.12.33.02.19.11.31.17.31.03 0 .06-.03.08-.08.03-.07.04-.16.03-.25 0-.2-.1-.31-.16-.31zm5.39-1.15c-.08 0-.14-.03-.19-.08-.06-.07-.07-.17-.03-.28.03-.09.1-.19.19-.27.12-.1.26-.16.37-.16.08 0 .14.03.19.08.06.07.07.17.03.28a.67.67 0 0 1-.19.27c-.11.1-.25.16-.37.16zm.34-.62c-.08 0-.18.05-.27.12-.07.06-.12.13-.15.2-.02.05-.02.1 0 .12.02.02.05.02.07.02.08 0 .18-.05.27-.12.07-.06.12-.13.15-.2.02-.05.02-.1 0-.12-.02-.02-.04-.02-.07-.02zm-1.04.77l.68-.39"/><path class="st12" d="M54.27 76.5c-.03 0-.05-.01-.07-.04-.02-.04-.01-.09.03-.11l.68-.39c.04-.02.09-.01.11.03.02.04.01.09-.03.11l-.68.39c-.01 0-.02.01-.04.01zm1.02-.75l.29-.73m-.29.81c-.01 0-.02 0-.03-.01-.04-.02-.06-.06-.04-.1l.29-.73c.02-.04.06-.06.1-.04.04.02.06.06.04.1l-.29.73c-.01.03-.04.05-.07.05z"/><path class="st12" d="M55.57 75.28h-.02c-.09-.01-.17-.07-.21-.18-.04-.09-.06-.21-.04-.33.03-.27.18-.46.35-.45.09.01.17.07.21.18.04.09.06.21.04.33-.02.26-.16.45-.33.45zm.06-.8c-.06 0-.16.12-.18.3-.01.09 0 .18.03.25.02.05.05.08.08.09.06 0 .15-.12.17-.3.01-.09 0-.18-.03-.25-.01-.05-.04-.08-.07-.09zm0 .11l-.34-.71"/><path class="st12" d="M55.63 74.67c-.03 0-.06-.02-.07-.05l-.34-.71c-.02-.04 0-.09.04-.11.04-.02.09 0 .11.04l.34.71c.02.04 0 .09-.04.11-.02.01-.03.01-.04.01z"/><path class="st12" d="M55.34 74.18c-.13 0-.27-.08-.39-.21-.18-.2-.22-.45-.09-.56.04-.04.09-.06.16-.06.13 0 .27.08.39.21.18.2.22.45.09.56-.04.04-.09.06-.16.06zm-.32-.67c-.02 0-.04.01-.05.02-.05.05-.02.2.1.34.13.15.28.18.32.14.04-.04.03-.19-.1-.34-.09-.11-.2-.16-.27-.16zm.01.11l-.73-.29"/><path class="st12" d="M55.03 73.7c-.01 0-.02 0-.03-.01l-.73-.29c-.04-.02-.06-.06-.04-.1.02-.04.06-.06.1-.04l.73.29c.04.02.06.06.04.1-.01.03-.04.05-.07.05zm-1.84 9.12c-.14 0-.3-.13-.39-.33-.11-.24-.08-.49.08-.56.03-.01.06-.02.09-.02.14 0 .3.13.39.33.05.11.07.22.07.32-.01.12-.06.2-.14.24-.04.02-.07.02-.1.02zm-.22-.75c-.01 0-.02 0-.02.01-.05.03-.08.17 0 .35.08.17.21.26.27.23.03-.01.05-.05.05-.11a.434.434 0 0 0-.05-.24c-.08-.16-.19-.24-.25-.24zm-.51-.21a.65.65 0 0 1-.34-.11c-.22-.15-.33-.38-.23-.52.04-.07.13-.1.23-.1.11 0 .23.04.34.11.1.07.18.15.23.24.05.1.05.2 0 .28-.05.06-.13.1-.23.1zm-.35-.58c-.05 0-.08.01-.09.03-.03.05.02.19.19.3.08.06.18.09.25.09.05 0 .08-.01.1-.03.02-.02.01-.07-.01-.12a.538.538 0 0 0-.44-.27z"/><path class="st12" d="M52.98 82.18l-.53-.58m.53.66c-.02 0-.04-.01-.06-.03l-.53-.58a.078.078 0 0 1 0-.11c.03-.03.08-.03.11 0l.53.58c.03.03.03.08 0 .11-.01.02-.03.03-.05.03zm.42 1.05l-.23-.75m.23.83c-.03 0-.07-.02-.08-.06l-.22-.75c-.01-.04.01-.09.05-.1.04-.01.09.01.1.05l.22.75c.01.04-.01.09-.05.1-.01.01-.01.01-.02.01zm-3.63-15.65c-.04 0-.09 0-.13-.01-.26-.05-.45-.21-.42-.38.02-.14.18-.23.39-.23.04 0 .09 0 .13.01.12.02.23.07.3.13.09.07.13.16.12.25-.02.13-.18.23-.39.23zm-.15-.47c-.14 0-.23.05-.24.1-.01.06.1.17.29.2.03.01.07.01.1.01.14 0 .23-.05.24-.1 0-.03-.02-.07-.06-.1a.537.537 0 0 0-.23-.1c-.04-.01-.07-.01-.1-.01z"/><path class="st12" d="M48.91 67.43l.37-.04m-.37.12c-.04 0-.08-.03-.08-.07 0-.04.03-.08.07-.09l.38-.03c.04 0 .08.03.09.07 0 .04-.03.08-.07.09l-.39.03z"/><path class="st12" d="M48.36 67.87c-.14 0-.24-.05-.28-.15-.07-.16.07-.36.31-.47.09-.04.19-.06.28-.06.14 0 .24.05.28.15.07.16-.07.36-.31.47-.09.04-.19.06-.28.06zm.31-.52c-.07 0-.14.02-.21.05-.18.08-.26.21-.23.26.01.03.07.05.14.05s.14-.02.21-.05c.18-.08.26-.21.23-.26-.02-.03-.07-.05-.14-.05zm1.41.2l.4.18m0 .08c-.01 0-.02 0-.03-.01l-.4-.18c-.04-.02-.06-.06-.04-.1.02-.04.07-.06.11-.04l.4.18c.04.02.06.07.04.1-.02.03-.05.05-.08.05z"/><path class="st12" d="M50.97 68.65c-.35 0-.64-.29-.64-.64 0-.35.29-.64.64-.64.35 0 .64.29.64.64.01.35-.28.64-.64.64zm0-1.09c-.25 0-.45.2-.45.45s.2.45.45.45.45-.2.45-.45-.2-.45-.45-.45z"/><path class="st12" d="M54.95 71.43c.2-.2.8-.64 1.18-.72l-.25-.45c-.01.23-.13.41-.23.5a.638.638 0 0 1-.02-.47c-.11.1-.32.23-.47.29.16.04.28.09.37.24-.17.08-.5.2-.74-.09-.15-.19-.17-.44.01-.6.06-.05.16-.08.25 0s-.02.23-.09.27c.17.03.54-.2.38-.39-.12-.15-.44-.09-.6.01.1-.19.15-.51-.01-.62-.2-.14-.41.24-.4.38.1-.1.25-.15.3-.1.05.04.05.18-.04.27-.15.17-.46.12-.65-.02-.21-.16-.27-.44-.06-.77.1.11.25.34.25.51.12-.2.2-.31.37-.49-.19.05-.41-.06-.53-.13.13-.11.32-.19.53-.16l-.64-.49c.08.2.03.37-.04.53-.1-.1-.25-.28-.25-.47-.12.21-.21.32-.37.49.15-.04.42.03.55.1-.27.28-.57.25-.76.12-.2-.13-.39-.38-.27-.61.06-.11.24-.08.29-.05.06.04.08.17.01.29.15-.1.4-.34.21-.5-.14-.12-.38-.01-.53.14.06-.18-.01-.5-.2-.56-.23-.06-.32.33-.25.49.01-.08.13-.25.23-.18.1.06.07.21.03.27-.11.21-.37.23-.59.11-.34-.19-.36-.51-.21-.69.16.05.24.15.33.3.02-.16.09-.4.16-.53-.13.1-.3.12-.46.1.05-.12.19-.29.42-.36l-.49-.13c.02.38-.29 1.07-.4 1.33 1.89 1.1 2.1 1.24 3.68 2.84"/><path class="st12" d="M53.2 67.56c-.18.1-.3.15-.37.27-.07.12-.18.52-.2.67.14-.11.45-.39.52-.5.05-.11.02-.35.05-.44m2.28 1.74c-.07.19-.09.32-.19.42-.11.1-.47.28-.61.34.07-.16.29-.52.38-.61.1-.08.33-.1.42-.15M38.55 55.53v-.81c-.4.08-.71.4-.79.81h.79zm.41 0h.78c-.07-.4-.38-.73-.78-.81v.81zm-1.19.4c.1.45.5.79.98.79s.88-.34.98-.79h-1.96zm1.11-2.22c.05-.24.16-.47.37-.73h-1.01c.21.26.32.49.36.73a.23.23 0 0 1 .14-.04c.05 0 .1.02.14.04"/><path class="st12" d="M38.6 54.13c-.04.25-.1.52-.33.71.36-.17.6-.18.99 0-.2-.14-.33-.46-.39-.71a.23.23 0 0 1-.14.04.22.22 0 0 1-.13-.04m-.09-.32c-.25-.06-.51-.19-.68-.41v1.05c.16-.21.43-.35.68-.41a.266.266 0 0 1-.03-.12c.01-.04.02-.08.03-.11m.45 0c.02.03.03.07.03.11 0 .04-.01.08-.03.12.25.06.52.2.68.41V53.4c-.17.22-.43.35-.68.41"/><path class="st12" d="M38.74 54.2a.28.28 0 1 1 0-.56.28.28 0 1 1 0 .56m0-.5c-.12 0-.22.1-.22.22s.1.22.22.22.22-.1.22-.22-.1-.22-.22-.22m-.6 6.08h1.23V56.7h-1.23v3.08zm.59-.29a.29.29 0 1 1 0-.58.29.29 0 0 1 0 .58m.02-.68a.29.29 0 1 1 0-.58.29.29 0 0 1 0 .58m0-.67a.29.29 0 1 1 0-.58.29.29 0 0 1 0 .58m.01-.67a.29.29 0 1 1 .29-.29c.01.16-.12.29-.29.29m-5.98.63a.29.29 0 1 1-.58 0 .29.29 0 0 1 .58 0m0 1.1a.29.29 0 1 1-.58 0 .29.29 0 0 1 .58 0m.34.93a.29.29 0 1 1-.58 0 .29.29 0 0 1 .58 0m.13-2.95a.29.29 0 1 1-.29-.29c.16-.01.29.13.29.29m.78-.7a.29.29 0 1 1-.58 0 .29.29 0 0 1 .58 0m.98-.37a.29.29 0 1 1-.58 0 .29.29 0 0 1 .58 0m1.04 0a.29.29 0 1 1-.58 0 .29.29 0 0 1 .58 0m.96.37a.29.29 0 1 1-.58 0 .29.29 0 0 1 .58 0m.99.35a.29.29 0 1 1-.58 0 .29.29 0 0 1 .58 0"/><path class="st12" d="M33.56 60.57l-.01-.03c-.01-.04-.23-1.08.22-1.53.24-.24.51-.35.84-.35.12 0 .24.01.34.03.11-.21.41-.63.84-.64h.03c.4 0 .79.14 1.29.47.23.15.49.22.79.22.09 0 .18-.01.24-.01.07-.01.12-.01.17-.01h.03l-.01.22h-.03c-.03 0-.08 0-.14.01-.07.01-.16.01-.26.01-.35 0-.65-.08-.92-.26-.46-.3-.81-.43-1.17-.43h-.01c-.29 0-.54.31-.69.59l-.04.07-.15-.02c-.11-.01-.21-.03-.32-.03-.27 0-.48.09-.68.29-.36.36-.16 1.32-.16 1.33l.01.03-.21.04z"/><path class="st12" d="M33.63 60.63l-.02-.03c-.03-.03-.63-.84-.75-1.64-.12-.79.26-1.45.62-1.78.19-.17.9-.76 1.72-.71.59.03 1.03.25 1.38.42.09.04.18.09.26.12.35.15.92.27 1.32.27h.17l.02.22h-.03c-.05 0-.1.01-.15.01-.43 0-1.04-.12-1.42-.28-.08-.04-.17-.08-.27-.13-.33-.17-.75-.37-1.3-.4-.74-.04-1.39.49-1.56.65-.07.07-.69.66-.55 1.58.12.75.71 1.53.71 1.54l.02.03-.17.13z"/><path transform="rotate(-27.414 33.158 59.953)" class="st12" d="M33.01 59.83h.3v.24h-.3z"/><path transform="rotate(-12.851 32.854 59.116)" class="st12" d="M32.7 58.99h.3v.24h-.3z"/><path transform="rotate(-76.438 32.848 58.192)" class="st12" d="M32.73 58.04h.24v.3h-.24z"/><path transform="rotate(-53.209 33.215 57.4)" class="st12" d="M33.1 57.25h.24v.3h-.24z"/><path transform="rotate(-30.728 33.934 56.785)" class="st12" d="M33.81 56.63h.24v.3h-.24z"/><path transform="rotate(-10.003 34.804 56.473)" class="st12" d="M34.67 56.31h.24v.3h-.24z"/><path transform="rotate(-76.467 35.68 56.492)" class="st12" d="M35.53 56.37h.3v.24h-.3z"/><path transform="rotate(-65.064 36.558 56.836)" class="st12" d="M36.41 56.72h.3v.24h-.3z"/><path transform="rotate(-80.346 37.633 57.2)" class="st12" d="M37.48 57.08h.3v.24h-.3z"/><path class="st12" d="M44.77 58.07a.29.29 0 1 0 .58 0 .29.29 0 0 0-.58 0m0 1.1a.29.29 0 1 0 .58 0 .29.29 0 0 0-.58 0m-.34.93a.29.29 0 1 0 .58 0 .29.29 0 0 0-.58 0m-.12-2.95a.29.29 0 1 0 .58 0 .29.29 0 0 0-.58 0m-.79-.7a.29.29 0 1 0 .58 0 .29.29 0 0 0-.58 0m-.98-.37a.29.29 0 1 0 .58 0 .29.29 0 0 0-.58 0m-1.04 0a.29.29 0 1 0 .58 0 .29.29 0 0 0-.58 0m-.96.37a.29.29 0 1 0 .58 0 .29.29 0 0 0-.58 0m-.98.35a.29.29 0 1 0 .58 0 .29.29 0 0 0-.58 0M44 60.54l-.22-.05.01-.03c0-.01.2-.96-.16-1.33-.2-.2-.41-.29-.68-.29-.11 0-.22.01-.32.03l-.15.02-.03-.07c-.14-.28-.39-.58-.69-.59h-.03c-.36 0-.71.13-1.17.43-.27.17-.57.26-.92.26-.1 0-.19-.01-.26-.01-.05 0-.1-.01-.14-.01h-.03l-.01-.22h.03c.04 0 .1 0 .17.01s.15.01.24.01c.3 0 .56-.07.79-.22.5-.33.89-.47 1.3-.47h.02c.44.01.73.44.84.64.1-.01.22-.03.34-.03.33 0 .6.11.84.35.45.45.23 1.49.22 1.53l.01.04z"/><path class="st12" d="M43.92 60.6l-.18-.13.02-.03c.01-.01.6-.8.71-1.54.14-.92-.48-1.52-.55-1.58-.17-.16-.82-.7-1.56-.65-.55.03-.96.24-1.3.4-.09.04-.18.09-.27.13-.38.16-.98.28-1.42.28-.05 0-.1 0-.15-.01h-.03l.02-.22h.16c.4 0 .97-.11 1.33-.27.08-.03.17-.08.26-.12.35-.18.79-.39 1.38-.43.83-.05 1.53.54 1.72.71.36.33.74 1 .62 1.78-.13.81-.73 1.61-.75 1.64l-.01.04z"/><path transform="rotate(-62.676 44.395 59.93)" class="st12" d="M44.27 59.78h.24v.3h-.24z"/><path transform="rotate(-77.144 44.706 59.085)" class="st12" d="M44.58 58.93h.24v.3h-.24z"/><path transform="rotate(-13.574 44.693 58.156)" class="st12" d="M44.55 58.05h.3v.24h-.3z"/><path transform="rotate(-36.768 44.335 57.371)" class="st12" d="M44.18 57.25h.3v.24h-.3z"/><path transform="rotate(-59.242 43.626 56.758)" class="st12" d="M43.47 56.64h.3v.24h-.3z"/><path transform="rotate(-79.991 42.76 56.432)" class="st12" d="M42.61 56.31h.3v.24h-.3z"/><path transform="rotate(-13.468 41.874 56.456)" class="st12" d="M41.75 56.31h.24v.3h-.24z"/><path transform="rotate(-24.933 41 56.813)" class="st12" d="M40.87 56.66h.24v.3h-.24z"/><path transform="rotate(-9.648 39.91 57.163)" class="st12" d="M39.8 57.02h.24v.3h-.24z"/><path class="st12" d="M34.36 63.23c.15 0 .28.07.31.18.05.15-.1.33-.32.4-.06.02-.12.03-.17.03h-.02c-.14-.01-.26-.07-.29-.18-.04-.12.04-.25.18-.33.04-.03.09-.05.14-.07.06-.02.12-.03.17-.03m0-.07c-.06 0-.13.01-.19.03-.06.02-.11.04-.16.07-.17.1-.25.26-.2.4.04.13.17.21.35.22h.03c.06 0 .13-.01.19-.03.12-.04.22-.1.29-.19.07-.09.1-.19.07-.29-.04-.12-.19-.21-.38-.21m8.7.07c.06 0 .11.01.17.03.07.02.13.05.18.09.11.08.17.2.14.31-.03.09-.12.15-.23.17-.03 0-.05.01-.08.01-.06 0-.11-.01-.17-.03-.22-.07-.37-.25-.32-.4.03-.12.16-.18.31-.18m0-.07c-.19 0-.33.09-.37.22-.03.09 0 .2.07.29.07.08.17.15.29.19.06.02.13.03.19.03.03 0 .06 0 .09-.01.14-.02.25-.1.29-.21.04-.13-.02-.27-.16-.38a.75.75 0 0 0-.2-.1.747.747 0 0 0-.2-.03m-7.21-4.02c-.15.38-.29.61-.25.9.04.29.35 1.05.5 1.33.1-.34.25-1.18.21-1.44-.04-.27-.39-.6-.46-.79m5.82.01c.13.39.26.62.21.91-.05.29-.41 1.03-.57 1.3-.08-.35-.18-1.19-.13-1.45.05-.26.41-.58.49-.76"/><path class="st12" d="M38.73 65.71c-2.41 0-4.97-.42-4.97-1.21s2.56-1.21 4.97-1.21c2.41 0 4.97.42 4.97 1.21s-2.56 1.21-4.97 1.21zm0-2.23c-2.82 0-4.78.54-4.78 1.02s1.96 1.02 4.78 1.02c2.82 0 4.78-.54 4.78-1.02s-1.97-1.02-4.78-1.02zm-4.82-1.94c.3-.1.54-.04.84.09-.16-.28-.34-.75-.4-1.05-.08.31-.31.55-.59.72.08.06.14.14.15.24zm-.18-.25c-.05-.26-.03-.69.24-1.06l-.95.41c.15.18.28.4.39.65.05-.03.1-.04.16-.04.06-.01.11.01.16.04zm.14.46c.03-.05.04-.1.04-.16v-.04c-.02.01-.03.01-.05.02-.01.05 0 .12.01.18z"/><path class="st12" d="M33.76 61.3c-.01-.01-.02-.01-.03-.02 0 .01 0 .02.01.03.01 0 .01 0 .02-.01z"/><path class="st12" d="M33.57 61.99c-.22 0-.41-.18-.41-.41 0-.22.18-.41.41-.41.22 0 .41.18.41.41 0 .23-.19.41-.41.41zm0-.68a.28.28 0 0 0-.28.28c0 .15.13.28.28.28.15 0 .28-.13.28-.28a.28.28 0 0 0-.28-.28zm5.16-.1c-.24 0-.43-.19-.43-.43s.19-.43.43-.43.43.19.43.43-.2.43-.43.43zm0-.73c-.17 0-.3.13-.3.3s.13.3.3.3.3-.13.3-.3-.14-.3-.3-.3zm5.27.88c.12-.27.26-.52.44-.73l-.95-.41c.25.34.29.73.25.99.11.02.2.07.26.15zm-.38-.12c-.23-.17-.42-.38-.49-.66-.05.29-.23.76-.4 1.05.24-.1.44-.16.66-.13.03-.12.11-.22.23-.26z"/><path class="st12" d="M39.06 60.94c.3.08.71.26.88.48-.06-.47-.06-.75 0-1.24-.21.27-.61.38-.89.43.03.05.05.11.05.18-.01.05-.02.1-.04.15z"/><path class="st12" d="M43.61 62.82c-.02-.01-.05-.01-.07-.02.08-.32.16-.63.25-.91-.02 0-.05.01-.07.01-.1 0-.19-.05-.25-.12-.21.32-.58.67-1.16.53-.48-.11-.81-.49-.72-.97.03-.15.15-.33.39-.31.24.02.25.4.18.54.31-.16.62-.98.14-1.1-.38-.09-.82.4-.95.75-.07-.43-.39-1.01-.78-.98-.5.03-.35.89-.18 1.1.03-.29.21-.54.36-.53.13.01.3.23.28.49-.04.46-.59.76-1.07.76-.49 0-.91-.33-1.03-.99-.06.04-.13.07-.21.07-.08 0-.15-.02-.2-.06-.14.65-.63.93-1.05.97-.49.04-1.1-.13-1.18-.65-.04-.26.28-.43.41-.44.15-.01.34.17.37.45.12-.35.22-1.03-.27-1.06-.38-.02-.62.45-.69.88-.13-.36-.64-.8-1-.65-.45.18-.1.93.2 1.08-.07-.14-.1-.55.14-.57.24-.02.36.25.39.4.07.48-.31.83-.8.91-.68.11-1.09-.26-1.17-.66-.05.09-.13.15-.23.17.09.28.17.58.26.88-.03.01-.06.01-.09.02-.06.01-.11.05-.14.1-.03.05-.04.11-.02.17.03.1.11.17.21.17.02 0 .04 0 .06-.01l.1-.03c0 .01 0 .03.01.04.01.02.01.04.02.06.04-.03.09-.05.14-.07.22-.07.44 0 .49.15.05.15-.1.33-.32.4-.07.02-.14.03-.2.03.01.09 0 .19-.03.3 1.3-.63 3.23-.7 4.6-.7 0 0 2.68-.17 4.57.7 0-.12.01-.21.02-.3-.08.01-.16.01-.25-.02-.22-.07-.37-.25-.32-.4.05-.15.26-.22.49-.15.07.02.13.05.18.09.01-.03.02-.06.02-.09v-.02c.02 0 .03.01.05.01a.216.216 0 0 0 .27-.15.211.211 0 0 0-.15-.27zm-7.28.55c-.29.04-.55-.06-.57-.22-.02-.14.17-.29.42-.34.05-.01.1-.01.16-.02.26-.01.46.08.48.22.02.17-.2.33-.49.36zm2.42-.12c-.29 0-.53-.13-.53-.29 0-.16.24-.29.53-.29.29 0 .53.13.53.29 0 .16-.23.29-.53.29zm2.97-.09c-.02.16-.27.25-.57.22-.29-.04-.51-.2-.49-.35.02-.14.22-.23.48-.22.06.01.12.02.18.02.24.05.42.19.4.33zm1.93-.1c-.01.05-.07.08-.12.07-.02-.01-.04-.01-.06-.02-1.51-.41-3.08-.63-4.67-.63-1.58 0-3.2.21-4.82.62-.03.01-.07.02-.1.02-.05.01-.1-.02-.12-.07-.01-.02 0-.05.01-.07.01-.02.03-.04.06-.04.03-.01.06-.02.09-.02 1.64-.41 3.28-.62 4.87-.62 1.6 0 3.19.21 4.71.63.02.01.04.01.06.02.07.01.1.06.09.11z"/><path class="st12" d="M38.96 60.51c.1-.3.29-.6.62-.78h-1.64c.33.18.47.48.56.77a.35.35 0 0 1 .22-.08c.1 0 .18.03.24.09zm-.55.09c-.28-.05-.66-.16-.87-.42.06.49.06.77 0 1.24.16-.22.56-.4.86-.47-.02-.05-.04-.1-.04-.16 0-.07.02-.14.05-.19zm5.32 1.37c-.22 0-.41-.18-.41-.41 0-.22.18-.41.41-.41.22 0 .41.18.41.41 0 .23-.19.41-.41.41zm0-.69a.28.28 0 1 0 0 .56c.16 0 .28-.13.28-.28 0-.15-.13-.28-.28-.28zm-8.67 3.64c-.04 0-.08-.03-.09-.07-.01-.05.02-.1.07-.12.94-.25 2.29-.39 3.72-.39 1.41 0 2.75.14 3.69.38.05.01.08.07.07.12-.01.05-.07.08-.12.07-.92-.24-2.25-.38-3.64-.38-1.41 0-2.75.14-3.67.38-.02.01-.02.01-.03.01zm1.5-.83c-.1-.1 0-.24.23-.19.23.05.19.17.45.19-.06.08-.58.09-.68 0m2.06-.1c-.1-.1 0-.24.23-.19.23.05.19.17.45.19-.06.08-.58.09-.68 0m2.01.13c-.1-.1 0-.24.23-.19.23.05.19.17.45.19-.06.09-.58.1-.68 0m-5.99.31c-.1-.1 0-.24.23-.19.23.05.19.17.45.19-.06.09-.58.1-.68 0m7.74 0c-.1-.1 0-.24.23-.19.23.05.19.17.45.19-.06.09-.58.1-.68 0m-19.36-3.9l-.04-.27c-.13.05-.22.17-.22.31l.26-.04zm.14-.02l.26-.04a.346.346 0 0 0-.3-.23l.04.27zm-.38.19c.06.14.21.23.37.21a.34.34 0 0 0 .28-.31l-.65.1zm.26-.8c0-.08.03-.16.08-.26l-.34.05c.08.07.13.15.16.22.01-.01.03-.02.04-.02.02 0 .04.01.06.01"/><path class="st12" d="M22.97 60.06c0 .08 0 .18-.07.25.11-.08.19-.09.33-.05a.47.47 0 0 1-.17-.22c-.01.01-.03.02-.04.02-.02.01-.04 0-.05 0m-.05-.1a.459.459 0 0 1-.25-.1l.06.35a.37.37 0 0 1 .2-.17c-.01-.01-.01-.02-.02-.04 0-.02.01-.03.01-.04m.15-.03c.01.01.01.02.01.04v.04c.09.01.18.04.25.1l-.06-.35a.37.37 0 0 1-.2.17"/><path class="st12" d="M23.01 60.07c-.05.01-.1-.03-.11-.08-.01-.05.03-.1.08-.11.05-.01.1.03.11.08.01.06-.02.11-.08.11m-.02-.16c-.04.01-.07.04-.06.08.01.04.04.07.08.06.04-.01.07-.04.06-.08 0-.04-.04-.07-.08-.06m-.04 1.03l.16 1.03.41-.06-.16-1.03-.41.06zm.34.89c-.05.01-.1-.03-.11-.08-.01-.05.03-.1.08-.11.05-.01.1.03.11.08.01.06-.02.11-.08.11m-.03-.22c-.05.01-.1-.03-.11-.08-.01-.05.03-.1.08-.11.05-.01.1.03.11.08.01.05-.02.1-.08.11m-.03-.23c-.05.01-.1-.03-.11-.08-.01-.05.03-.1.08-.11.05-.01.1.03.11.08.01.06-.03.11-.08.11m-.03-.22c-.05.01-.1-.03-.11-.08-.01-.05.03-.1.08-.11.05-.01.1.03.11.08.01.05-.03.1-.08.11m-1.96.53c.01.05-.03.1-.08.11-.05.01-.1-.03-.11-.08-.01-.05.03-.1.08-.11.05-.01.1.02.11.08m.06.36c.01.05-.03.1-.08.11-.05.01-.1-.03-.11-.08-.01-.05.03-.1.08-.11.05-.01.1.03.11.08m.16.29c.01.05-.03.1-.08.11-.05.01-.1-.03-.11-.08-.01-.05.03-.1.08-.11.05-.01.1.03.11.08m-.12-.99c.01.05-.03.1-.08.11-.05.01-.1-.03-.11-.08-.01-.05.03-.1.08-.11s.1.03.11.08m.23-.27c.01.05-.03.1-.08.11s-.1-.03-.11-.08c-.01-.05.03-.1.08-.11s.1.03.11.08m.3-.17c.01.05-.03.1-.08.11-.05.01-.1-.03-.11-.08-.01-.05.03-.1.08-.11.06-.01.11.02.11.08m.35-.06c.01.05-.03.1-.08.11-.05.01-.1-.03-.11-.08-.01-.05.03-.1.08-.11.05-.01.1.03.11.08m.34.07c.01.05-.03.1-.08.11-.05.01-.1-.03-.11-.08-.01-.05.03-.1.08-.11.05-.01.1.03.11.08m.35.07c.01.05-.03.1-.08.11-.05.01-.1-.03-.11-.08-.01-.05.03-.1.08-.11.05-.01.1.02.11.08"/><path class="st12" d="M21.63 62.45c-.01-.01-.13-.34-.01-.51.12-.16.26-.16.37-.17H22c.03-.07.1-.23.24-.26.14-.02.27 0 .46.08.15.07.28.04.36.02.02-.01.04-.01.05-.01l.01.05c-.01 0-.03.01-.05.01-.08.02-.23.05-.4-.02-.18-.08-.3-.1-.43-.08-.1.02-.17.14-.21.24l-.01.02h-.04c-.11 0-.23.01-.33.14-.11.15.01.46.02.46l-.04.03z"/><path class="st12" d="M21.65 62.47c-.01-.01-.25-.24-.34-.5-.08-.25.01-.49.11-.62.06-.07.26-.3.53-.32.2-.02.35.03.48.07l.09.03c.14.04.38.04.51.01l.01.05c-.14.03-.38.03-.53-.01-.03-.01-.06-.02-.1-.03-.12-.04-.27-.08-.46-.07-.25.03-.44.24-.49.3-.02.03-.2.26-.1.57.08.25.32.48.32.48l-.03.04z"/><path transform="rotate(-36.404 21.46 62.28)" class="st12" d="M21.41 62.24h.1v.08h-.1z"/><path transform="rotate(-21.881 21.311 62.014)" class="st12" d="M21.26 61.98h.1v.08h-.1z"/><path transform="rotate(-85.279 21.267 61.715)" class="st12" d="M21.22 61.66h.08v.1h-.08z"/><path transform="rotate(-62.366 21.348 61.434)" class="st12" d="M21.31 61.38h.08v.1h-.08z"/><path class="st12" d="M21.55 61.25l-.06-.08.06-.05.06.08zm.25-.15l-.03-.1.07-.03.04.1z"/><path transform="rotate(-85.417 22.12 61)" class="st12" d="M22.07 60.96h.1v.08h-.1z"/><path transform="rotate(-74.17 22.429 61.066)" class="st12" d="M22.38 61.03h.1v.08h-.1z"/><path class="st12" d="M22.76 61.18l.01-.1h.08v.1zm2.47-.14c.01.05.06.09.11.08.05-.01.09-.06.08-.11-.01-.05-.06-.09-.11-.08-.05.01-.09.06-.08.11m.06.37c.01.05.06.09.11.08s.09-.06.08-.11c-.01-.05-.06-.09-.11-.08-.06.01-.09.06-.08.11m-.07.33c.01.05.06.09.11.08.05-.01.09-.06.08-.11-.01-.05-.06-.09-.11-.08-.05 0-.09.05-.08.11m-.2-.98c.01.05.06.09.11.08.05-.01.09-.06.08-.11-.01-.05-.06-.09-.11-.08-.05.01-.08.06-.08.11m-.29-.19c.01.05.06.09.11.08.05-.01.09-.06.08-.11-.01-.05-.06-.09-.11-.08-.06.01-.09.06-.08.11m-.35-.07c.01.05.06.09.11.08.05-.01.09-.06.08-.11-.01-.05-.06-.09-.11-.08-.05 0-.09.05-.08.11m-.35.05c.01.05.06.09.11.08.05-.01.09-.06.08-.11-.01-.05-.06-.09-.11-.08-.05.01-.08.06-.08.11m-.3.18c.01.05.06.09.11.08.05-.01.09-.06.08-.11-.01-.05-.06-.09-.11-.08-.05 0-.08.05-.08.11m-.31.17c.01.05.06.09.11.08.05-.01.09-.06.08-.11-.01-.05-.06-.09-.11-.08-.05 0-.08.05-.08.11m1.67 1h-.05s.02-.34-.13-.44c-.14-.1-.25-.07-.36-.04l-.04.01-.01-.02c-.06-.09-.17-.18-.27-.16-.12.02-.24.08-.38.21-.13.12-.29.13-.37.14-.02 0-.04 0-.05.01l-.01-.05c.01 0 .03 0 .05-.01.08-.01.22-.02.34-.13.15-.14.27-.2.41-.22.14-.02.26.11.31.17h.01c.11-.03.24-.07.4.04.17.12.15.47.15.49"/><path class="st12" d="M25.07 61.92l-.05-.03s.16-.3.16-.56c0-.32-.24-.49-.27-.51-.07-.05-.32-.19-.56-.14-.18.04-.31.13-.41.2-.03.02-.06.04-.08.06-.13.08-.36.16-.5.17v-.05c.13-.01.35-.09.48-.17.03-.02.05-.03.08-.06.11-.08.24-.17.43-.21.27-.06.53.1.6.14a.7.7 0 0 1 .3.55c-.01.3-.17.59-.18.61"/><path transform="rotate(-71.652 25.199 61.678)" class="st12" d="M25.16 61.63h.08v.1h-.08z"/><path transform="rotate(-86.158 25.258 61.386)" class="st12" d="M25.22 61.33h.08v.1h-.08z"/><path transform="rotate(-22.444 25.207 61.072)" class="st12" d="M25.16 61.04h.1v.08h-.1z"/><path transform="rotate(-45.709 25.044 60.832)" class="st12" d="M25 60.79h.1v.08H25z"/><path transform="rotate(-68.345 24.779 60.668)" class="st12" d="M24.73 60.63h.1v.08h-.1z"/><path class="st12" d="M24.51 60.66v-.11h-.08v.1z"/><path transform="rotate(-22.328 24.178 60.662)" class="st12" d="M24.14 60.61h.08v.1h-.08z"/><path class="st12" d="M23.97 60.84l-.06-.08-.07.04.06.09z"/><path transform="rotate(-18.612 23.562 61.005)" class="st12" d="M23.52 60.95h.08v.1h-.08z"/><path class="st12" d="M22.04 63.31c.05-.01.1.01.11.04.02.05-.01.11-.09.15-.02.01-.04.02-.06.02h-.01c-.05.01-.09-.01-.11-.04-.02-.04 0-.08.04-.12.01-.01.03-.02.04-.03.04-.01.06-.02.08-.02m-.01-.02c-.02 0-.04.01-.06.02-.02.01-.03.02-.05.03-.05.04-.07.1-.05.15.02.04.07.06.13.06h.01c.02 0 .04-.01.06-.02.04-.02.07-.05.09-.08.02-.03.02-.07.01-.1-.02-.05-.08-.07-.14-.06m2.9-.44h.06c.02 0 .05.01.06.02.04.02.07.06.06.09 0 .03-.03.06-.07.07-.01 0-.02 0-.03.01h-.06c-.08-.01-.13-.06-.13-.12.02-.03.06-.06.11-.07m0-.02c-.06.01-.11.05-.11.09 0 .03.01.07.04.09.03.02.07.04.11.05h.07c.01 0 .02 0 .03-.01.05-.02.08-.05.08-.09.01-.04-.02-.09-.07-.12a.185.185 0 0 0-.07-.02c-.04.01-.06.01-.08.01"/><path class="st12" d="M21.91 63.31c0 .01.01.02.01.03 0 .01.01.01.01.02.01-.01.03-.02.04-.03.07-.03.15-.02.17.02.02.05-.01.11-.09.15-.02.01-.04.02-.06.02.01.03.01.06.01.1.4-.28 1.04-.4 1.5-.48 0 0 .88-.2 1.56-.01-.01-.04-.01-.07-.01-.1-.02.01-.05.01-.09.01-.08-.01-.13-.06-.13-.12.01-.05.08-.09.15-.08.02 0 .05.01.06.02v-.06c-1.03-.1-2.09.06-3.13.51zm.79-.05c-.1.03-.18.01-.2-.04-.02-.05.05-.12.15-.14.1-.03.18-.01.2.04.01.04-.06.11-.15.14zm.8-.17c-.1.02-.18-.01-.19-.07-.01-.05.06-.11.16-.12.1-.02.18.01.19.07.01.05-.06.1-.16.12zm.8-.09c-.1 0-.18-.04-.18-.09 0-.05.08-.1.18-.1.1 0 .18.04.18.09 0 .05-.08.1-.18.1z"/><path class="st12" d="M21.87 63.34c-.03 0-.06-.01-.07-.04-.01-.02-.01-.03 0-.05.01-.02.02-.03.03-.04.54-.23 1.08-.39 1.63-.48.54-.09 1.09-.1 1.63-.04.04 0 .06.04.06.07 0 .03-.03.05-.05.06h-.02c-.53-.06-1.07-.05-1.6.04-.53.08-1.07.24-1.6.47l-.01.01m1.59-.59c-.54.09-1.09.25-1.62.48-.01 0-.02.01-.02.02v.03c.01.02.03.03.06.02.53-.23 1.07-.39 1.6-.47.53-.08 1.07-.1 1.6-.04.02 0 .04-.01.05-.04 0-.02-.01-.05-.04-.05-.54-.04-1.09-.03-1.63.05m-1.14-.88c-.03.14-.07.22-.04.31.03.09.17.33.24.42.01-.12.02-.41-.01-.49-.03-.09-.16-.18-.19-.24m1.93-.31c.07.12.12.19.12.29 0 .1-.08.36-.12.46-.05-.11-.12-.39-.12-.48 0-.08.11-.2.12-.27m-.63 2.34c-.81.13-1.67.11-1.71-.13-.04-.25.77-.53 1.58-.65.81-.13 1.67-.11 1.71.13.04.24-.77.52-1.58.65m-.12-.75c-.96.15-1.57.44-1.55.61.03.17.7.25 1.66.1s1.57-.44 1.55-.6c-.03-.18-.7-.26-1.66-.11m-1.71-.38c.09-.05.18-.04.28-.02a1.35 1.35 0 0 1-.19-.33c-.01.11-.08.2-.16.27.04.03.07.05.07.08z"/><path class="st12" d="M21.72 62.7a.484.484 0 0 1 .02-.37l-.3.19c.06.05.11.12.16.2.01-.01.03-.02.05-.02.04-.01.05-.01.07 0zm.01 0h-.01s0 .01.01 0c0 .01 0 0 0 0z"/><path class="st12" d="M21.7 62.93a.125.125 0 0 1-.14-.1c-.01-.07.04-.13.1-.14.07-.01.13.04.14.1.02.07-.03.13-.1.14m-.03-.23c-.06.01-.1.06-.09.12.01.06.06.1.12.09.06-.01.1-.06.09-.12-.01-.06-.06-.1-.12-.09m3.34-.54a.372.372 0 0 1-.2-.19c0 .1-.04.27-.08.37.07-.05.14-.08.21-.08.01-.04.04-.08.07-.1z"/><path class="st12" d="M25.08 62.37c-.03.01-.07-.01-.09-.03-.05.12-.16.25-.36.24-.16-.01-.3-.12-.29-.29 0-.05.03-.12.11-.12.08-.01.11.12.09.17.09-.07.15-.36-.01-.37-.13-.01-.25.18-.28.3-.05-.14-.18-.31-.31-.29-.16.04-.07.32 0 .38 0-.1.04-.19.09-.2.04 0 .11.06.12.15.01.15-.16.29-.32.31-.16.03-.31-.06-.39-.27a.09.09 0 0 1-.07.03c-.03 0-.05 0-.07-.01a.39.39 0 0 1-.3.37c-.16.04-.37.02-.43-.16-.03-.08.07-.16.11-.17.05-.01.12.04.15.13.02-.12.02-.35-.15-.34-.13.01-.18.18-.18.33-.06-.11-.26-.23-.37-.16-.14.08.01.31.13.35-.03-.04-.06-.18.02-.2.08-.02.13.06.15.11.05.15-.06.29-.22.35-.22.07-.38-.03-.42-.16a.12.12 0 0 1-.07.07c.05.1.09.2.14.3 1.06-.45 2.14-.62 3.2-.51.01-.12.02-.23.04-.34 0 .03-.01.03-.02.03z"/><path class="st12" d="M23.23 62.22c-.1 0-.22-.02-.3-.09.05.16.06.25.07.41.04-.08.16-.16.25-.2-.01-.02-.02-.03-.02-.05-.01-.03 0-.05 0-.07zm.11-.09c.03-.01.06 0 .09.02.02-.1.07-.21.16-.28l-.55.09c.12.04.18.13.22.22.02-.03.05-.04.08-.05zm.15.17c.1.01.24.05.31.11a1.41 1.41 0 0 1-.07-.41c-.06.1-.17.15-.26.19l.03.06c-.01.01-.01.03-.01.05zm1.66-.12c.03-.1.06-.19.11-.27l-.34-.08c.1.1.14.23.14.32.03-.01.06.01.09.03z"/><path class="st12" d="M25.09 62.39a.125.125 0 0 1-.14-.1c-.01-.07.04-.13.1-.14.07-.01.13.04.14.1.01.06-.04.12-.1.14m-.04-.23c-.06.01-.1.06-.09.12.01.06.06.1.12.09.06-.01.1-.06.09-.12-.01-.06-.06-.1-.12-.09m-2.24 1.32c-.04-.03-.01-.08.07-.07.08.01.07.05.16.04-.02.03-.19.06-.23.03m.68-.14c-.04-.03-.01-.08.07-.07.08.01.07.05.16.04-.02.02-.19.06-.23.03m.68-.06c-.04-.03-.01-.08.07-.07.08.01.07.05.16.04-.02.02-.19.05-.23.03m-1.98.42c-.04-.03-.01-.08.07-.07.08.01.07.05.16.04-.02.02-.19.05-.23.03m2.58-.41c-.04-.03-.01-.08.07-.07.08 0 .07.05.16.04-.02.02-.19.05-.23.03"/><path class="st13" d="M31.88 66.1c.31.04.67.13.98.16.44.04.82.05 1.25.06.52-.07.8.64.47 1.08-.26.34-.6.75-1.08.54-.09-.02-.15-.14-.31-.04-.27.24-.46.17-.65-.03-.07-.04-.18-.09-.25-.06-.39.16-.57-.02-.76-.2-.3-.28-.41-.59-.41-.94.01-.4.21-.54.76-.57m-.44.97c.22-.37.47-.33.67-.19.19.14.38.18.6.2.33.03.65.04.97-.11.13-.06.42-.14.4.22 0 .03.06.12.09.13.08.04.14-.06.17-.11.12-.19 0-.44-.21-.53a.814.814 0 0 0-.59-.03c-.48.16-.92.11-1.37-.12-.16-.08-.37-.14-.55-.07-.1.04-.19.07-.24.18-.08.17-.03.31.06.43m1.07 1.7c-.24.04-.3.11-.42.27-.04.05-.17.02-.27-.01-.11-.03-.26-.06-.28-.19.01-.37.49-.75.83-.63.18.06.19.2.19.31.01.1 0 .27-.05.25m-1.68-1.78c-.61 0-.76-.13-.83-.47-.02-.12-.03-.27-.02-.46.62.03.8.11.76.46-.02.18-.02.24.09.47M33 69.6c-.04.26-.25.39-.46.36-.15-.02-.37-.23-.37-.37-.01-.23.16-.43.45-.41.26.02.43.1.38.42m1.87-2.15c.54 0 .68-.12.74-.44.02-.11.02-.25.01-.43-.55.03-.62.11-.63.44-.01.3-.04.31-.12.43m-4.93 2.97c-.55-.16-.72-.08-.87.21-.05.1-.09.24-.13.41.57.13.66.07.76-.24.09-.28.15-.27.24-.38m5.24.33c.49-.14.64-.07.77.19.05.09.08.21.11.36-.5.12-.58.07-.67-.21-.08-.25-.08-.25-.21-.34m-2.53 1.47c.38.36.4.53.24.78-.06.09-.14.18-.26.29-.37-.38-.36-.48-.16-.7.17-.21.12-.22.18-.37m-.77-2.71c-.04.23 0 .31.11.46.03.05-.04.16-.1.24-.06.09-.14.22-.26.2-.33-.12-.52-.68-.31-.96.11-.14.24-.11.34-.08.09.04.25.1.22.14m1.4-.3c-.06-.22-.13-.28-.3-.37-.05-.03-.03-.17-.02-.26.02-.11.03-.26.15-.29.35-.03.77.39.69.73-.04.18-.17.2-.27.22-.1.01-.26.02-.25-.03m-.91 1.05c.21.09.3.07.48-.01.05-.02.15.07.22.15.07.08.18.19.13.29-.19.29-.78.36-1 .09-.11-.14-.05-.26 0-.35.05-.08.14-.21.17-.17m.85-.25c.16-.14.17-.22.18-.4 0-.05.12-.09.21-.12s.22-.08.29.01c.17.28 0 .8-.31.87-.16.04-.23-.06-.29-.14-.05-.07-.13-.21-.08-.22m-3.97-.76c.12-.22.29-.47.4-.69.15-.32.26-.6.39-.93.08-.42.77-.42 1.07-.03.23.3.49.68.18.98-.04.06-.16.07-.12.22.13.27.02.4-.2.48-.06.04-.12.11-.12.17.03.34-.17.42-.38.51-.32.15-.63.13-.93.02-.34-.11-.41-.31-.29-.73m.73.63c-.26-.28-.16-.46.02-.56.17-.1.26-.23.33-.39.11-.24.21-.48.16-.77-.02-.11-.01-.36.3-.24.03.01.12-.01.14-.03.05-.05-.02-.13-.05-.16-.13-.15-.38-.13-.52 0-.14.15-.19.29-.19.44.01.42-.15.73-.47 1-.11.09-.22.23-.21.4.01.09.01.17.09.24.13.09.27.1.4.07m5.49.6c-.32.03-.61-.03-.88-.25-.17-.14-.34-.26-.23-.58.02-.06-.03-.14-.07-.2-.19-.13-.27-.28-.07-.51.07-.13-.03-.18-.06-.24-.22-.36.13-.66.41-.89.38-.3 1.04-.13 1.01.29.04.34.08.64.14.98.05.24.15.52.21.76.01.43-.11.6-.46.64m0-.2c.09-.04.12-.12.15-.2.05-.15-.02-.31-.1-.43-.24-.34-.32-.68-.2-1.07a.56.56 0 0 0-.07-.46c-.09-.16-.33-.24-.49-.13-.04.02-.12.08-.08.14.01.02.09.06.12.06.32-.04.27.19.23.3-.11.26-.08.51-.03.77.03.17.08.32.22.46.15.14.2.34-.12.54.1.06.23.09.37.02m-2.35 2.18c-.16-.23-.24-.48-.19-.79.03-.19.06-.38.35-.43.05-.01.1-.08.12-.14.02-.2.1-.32.36-.27.14 0 .12-.1.16-.15.19-.33.57-.19.87-.06.4.16.55.74.21.9-.25.18-.47.33-.7.53-.17.14-.34.34-.5.49-.32.2-.5.18-.68-.08m.15-.08c.07.05.15.04.22.03.14-.02.23-.14.29-.26.16-.33.39-.53.75-.61.13-.03.24-.1.33-.25.09-.14.04-.36-.11-.43-.03-.02-.12-.06-.14-.01-.01.02-.01.1.01.12.17.23-.03.29-.13.3-.25.03-.43.16-.61.3-.12.1-.21.2-.26.37-.05.17-.18.3-.48.14-.02.11.02.22.13.3m-3.3-1.4c.17-.25.4-.42.72-.47.2-.04.4-.08.56.2.03.05.12.07.19.07.21-.05.36-.01.41.27.05.14.15.09.21.11.4.07.4.51.38.86-.02.46-.55.82-.83.54-.27-.19-.5-.35-.79-.52-.2-.12-.46-.22-.67-.33-.33-.27-.38-.46-.18-.73m.14.12c-.03.09.01.16.05.23.07.13.23.18.37.2.39.04.68.2.89.53.08.12.19.2.37.24.17.03.37-.09.4-.27.01-.04.02-.14-.05-.15-.03 0-.1.03-.12.05-.17.26-.31.07-.35-.02-.12-.25-.31-.38-.53-.51a.8.8 0 0 0-.46-.13c-.19.01-.36-.07-.31-.43-.12.04-.22.12-.26.26m27.99-5.17c-.01-.34-.37-.6-.74-.64-.09-.01-.19-.01-.28-.03-.08-.03-.17-.09-.15-.24.22-.02.47-.02.64 0 .22.02.31.09.54.19-.07-.33-.44-.6-.81-.58-.08.01-.17.02-.25.02-.1 0-.28-.02-.28-.22.25-.05.48-.09.66-.09.23 0 .34.03.58.11-.11-.32-.46-.53-.84-.47-.08.02-.17.02-.27.05-.09.02-.24.05-.29-.12.25-.08.44-.17.64-.19.22-.03.37 0 .62.04a.731.731 0 0 0-.88-.36c-.08.03-.17.05-.27.08-.09.03-.23.08-.29-.1.24-.12.37-.19.54-.25.21-.07.39-.09.62-.02-.18-.28-.57-.4-.91-.25-.08.04-.17.08-.27.12-.08.03-.19.04-.26-.08v-.01c.15-.11.3-.21.43-.26.21-.08.39-.12.63-.14-.22-.26-.63-.24-.97-.05l-.14.07c-.09.05-.23.08-.31-.05.31-.28.71-.36.9-.35 0-.02-.29-.17-.52-.06 0-.06-.01-.14-.1-.22 0 .19-.27.38-.44.51-.31.23-.63.44-1.04.52-.19.04-.28 0-.33-.06-.06-.08-.01-.2.15-.2.34-.01.54-.25.78-.43.1-.07.16-.15.31-.16-.81-.13-1.29-.39-1.81.25-.1-.28.02-.44.18-.55.16-.12.36-.18.53-.29.27-.18.36-.56.2-.78-.15.13-.08.23-.25.51-.14.2-.26.22-.35.19.03-.09.14-.28.18-.39.06-.17.06-.16.08-.35 0 0 .03-.35-.1-.38-.09.12-.11.14-.19.34-.08.19-.28.74-.5.65.06-.19.07-.2.13-.39.04-.13.06-.26.07-.44.01-.08.02-.26-.1-.33-.05.06-.2.32-.23.39-.11.29-.14.34-.26.68-.83-.53-1.59-1-2.32-1.5-.76-.52-1.49-1.08-2.34-1.45.33.37.71.63 1.04.95.17.16.29.23.39.24.22.02.28.09.34.14.13.09-.07.09-.21.09.13.1.2.21.31.21.43 0 .41.06.46.09.23.17-.15.11-.25.12.08.12.24.22.33.23.16.02.35-.04.44.06.2.14-.05.11-.26.12.16.15.26.28.46.27.24 0 .31-.06.47.08.28.19-.2.15-.43.16.18.18.27.25.39.25.2 0 .47-.06.59.05.15.14-.12.16-.48.15.08.23.07.4-.25.65-.24.18-.39.43-.43.7-.09.59-.43 1.07-.81 1.44-.36.35-.59.61-.57 1.16.01.15.07.4.17.45.15.06.36-.01.53-.07.21-.07.4-.18.61-.27.04-.03.1-.02.08.09-.04.25-.1.5-.13.75 0 .03-.01.13-.02.17 0 .01.04.03.06.04.27.12.72-.15.77-.48.05-.33.54-.86.82-.88.65-.04 1.18-.31 1.54-.86.04-.06.05-.13.07-.2.01-.08.08-.08.09.02-.01.11-.01.22-.03.32-.08.43-.42.64-.75.86-.12.08-.27.2-.29.31-.05.38-.16.7-.42 1.01-.17.2-.46.52-.66.63.1-.01-.04.39-.04.39.15-.1.29-.08.37.08-.02-.3.7-.53.68-.49-.05.25.04.71-.08.85.15 0 .22 0 .27.22.03-.17.14-.3.26-.2.37.23.68.52.94.72.08.06.04.22-.15.25.32.11 1.02-.06 1.02-.06s.07.4-.05.51c.21.16.49.3.62.44.15.17.28.32.34.58.17-.29-.03-.71-.33-.94-.13-.1-.27-.21-.19-.46.18.13.34.25.46.38.15.17.29.34.34.55.17-.29-.04-.68-.34-.91-.14-.11-.33-.2-.24-.47 0-.01.01-.02.01-.02.18.13.37.25.48.38.15.17.29.27.36.53.17-.29-.05-.65-.35-.89-.14-.11-.31-.23-.23-.49.18.12.36.22.47.34.16.16.28.29.36.51.15-.3-.06-.65-.37-.87-.07-.05-.15-.12-.21-.18-.02-.02-.15-.09-.08-.32.19.12.37.22.49.33.16.16.31.31.39.52.14-.3-.09-.67-.41-.88-.07-.04-.15-.08-.21-.14-.08-.07-.21-.11-.17-.36.21.1.41.17.54.28.18.14.35.26.45.45.11-.32-.18-.63-.52-.8-.08-.04-.17-.07-.24-.12-.08-.06-.15-.11-.15-.33.2.05.42.14.56.21.2.1.38.21.52.39.05-.33-.28-.62-.64-.73-.07-.02-.16-.07-.24-.11-.07-.03-.17-.17-.16-.29.2.03.46.09.61.15.21.08.34.16.53.32.02-.34-.31-.57-.68-.64-.07-.01-.14-.02-.22-.04-.07-.01-.22-.13-.2-.29.22.01.42.02.58.06.22.1.36.17.56.3m-7.32-.74c-.04.07-.1.06-.16.09-.08.03-.04-.27-.12-.29-.07 0-.16.08-.25.12-.05.04-.1.01-.08-.04.05-.12.08-.32.16-.34.12-.03.29.03.39.11.08.07.12.24.06.35m.98-1.57c-.06-.1-.4.32-.35.16.13-.32.22-.59.35-.83.06-.11.14-.15.28-.22.11 0-.03.29.04.34.21.17.46.36.71.56-.26.18-.86.17-1.03-.01m2.46-1.19c-.06.07-.15.1-.24.05-.11-.07-.03-.16.03-.23.13-.15.36-.24.73-.13.45.13-.23-.05-.52.31"/><path class="st12" d="M55.17 61.61c.13.01.27-.08.31-.17.04-.1.03-.3-.01-.34-.01-.01-.07-.02-.12.06-.1.14-.06.25-.07.32-.01.07-.11.13-.11.13m.7-.23c.03.03.03.14-.02.2-.06.06-.14.1-.27.07.14-.06.09-.15.17-.22.01 0 .1-.07.12-.05m-1.17.18c.15 0 .33-.1.37-.22.05-.13.03-.41-.01-.45-.01-.01-.08-.03-.15.08-.11.19-.07.34-.08.42-.02.08-.13.17-.13.17"/></g></svg>