<svg id="Layer_2" xmlns="http://www.w3.org/2000/svg" width="230" height="210" viewBox="0 0 230 210"><style>.st0{fill:#999}.st1{fill:#160d37}.st2{fill:#1e1348}.st3{opacity:.26;fill:#160d37}.st4{fill:#fff}.st5{fill:#b00d23}</style><path class="st0" d="M211.02 51.74l1.23.88h1.15v-2.21l3.62-.35 3.44 2.56h5.65l.4-.36c-.57-1.91-1.2-3.78-1.92-5.61l-3.69.06-1.85-2.03-.36-3.27-1.9 1.03-1.02 3.99-2.74-2.91-.11-2.75-2.64-2.28-.97-.97h-3.06l.96 2.73 3.69 2.06.64.68-.8.4.04 2.17-1.8.75-1.53-.34-.96-1.36 2.5.13.67-.91-5.53-3.73-.43-1.59-2.25 2.03-2.28-.47-3.46 4.51-.68 1.76-2.22.2-3.28.02-1.96-.92-.58-3.9.71-1.86 3.34-.73 3.64.73.45-2.01-1.55-.37.53-3.14 3.66-.57 2.56-3.62 2.65-.44 2.39.35h.88l-.49-3.4-2.9 1.17-1.02-2.54-1.68-.23-.32-1.74 1.37-1.5 3.27-1.28.84-1.5c-12.49-11-28.86-17.7-46.77-17.7-15.54 0-29.92 5.04-41.62 13.57l3.57-.03 1.59.88 3 .65.23 1.18 4.77.18-.65-1.53-4.24-.12 1-.94-.35-1.12h-3.83l4.18-3.12h4l1.88 2.59 3.12.18 1.88-1.83 1.41.71-2.59 2.53s-3.59.06-3.41.06c.18 0 .3 2.47.3 2.47l4.35-.12.47-1.17 3-.18.35-1.76-1.76-.3.59-1.59 1.35-.41 4.71.23-2.6 2.36.42 1.82 2.71.41-.18-3.3 2.59-1.36 4.59-.53 6.65 2.94v2.53l2.12.53-1.06 2h-3l-.89 2.29-6.85-1.62 5.39-2.87-2.05-1.75-4.65.59-.41.42-.02-.01-.07.1-1.34 1.39-2.21.18.18 1.1.77.32-.03.36-1.8.26-.11 1.1-1.72.09-.31-2.08-3.09.94-6.31 3.7.71 2.6 1.76 1.15 3.53.49v4.01l1.63-.26 1.5-3.14 3.75-1.19v-4.81l2.09-1.58 5.05 1.19-.35 3.18h1.36l3.71-1.82.18 4.18 2.7 1.65-.11 2.48-2.59.88.18.82 3.12 1.42-.06 1.71-.9.08c0-.03-.01-.05-.01-.05l-3.94-1.21-.17-1.26 1.15-.79v-1.15l-1.24-.31-.31 1.06-2.17.34-.22-.07v.11l-.75.11-.61-1.24-.71-.31h-1.55l-.7.58v1.28l1.32.44 1.31.18-.29.13-1.19 1.32-.52-.66-1.15-.3-3.14 2.95.41.34-4.63 2.57-4.36 4.53-.3 2.02-4.37 2.87-2.17 2.18.24 4.35-3-1.4.02-2.55h-8.36l-4.33 2.19-1.88 3.46-.75 2.75 1.22 2.66 3.41.42 5.42-3.62.47 1.8-1.65 3.12 4.12.71.41 6.37 5.65.96 3.59-4.15 4.36.89 1.53 2.13 4.18-.25.12-1.23 2.3 1.11 2.59 4.06 4.47.06 1.65 2.89.23 3.53 4.95 1.88 6.24.06 1.83 3 2.77.89-.53 2.48-3.03 3.85-.88 8.53-2.74 2.16-4.06-.12-1.35 2.35 1 4.42-4.42 5.65-1.41 2.59-4.21 2.02-2.77.42-.11 1.17 1.94.56-.23 1.27-1.74 1.68 1.06 1.33 2.09.06-.12 1.61-.56 1.59-.18 1.29 3.1 2.61-.41 1.36-4.22-.08-4.19-3.66-3.27-5.74.46-5.54-2.47-3.3 1-5.59-1.47-.41V101.5s-4.12-3.12-4.36-3.12-2.18-.53-2.18-.53l-.41-2.29-5.36-6.71.53-2.41.18-3.95 3.71-2.59-.53-4.42-5.41-.41-4.24-4.83-3-.83-1.94-.36.23-1.76-2.47-.35v1l-6.18-1.54-2.49-3.81 1.01-1.84-3.91-5.71-.67-4.18H98.5l.53 4.06 2.71 4.18-.3 1.65-2.29-.35-2.82-4.81v-5.6l-2.94-1.41V44.5a70.564 70.564 0 0 0-5.65 27.72c0 39.06 31.78 70.84 70.84 70.84 22.14 0 41.94-10.22 54.94-26.18h-2.34v-4.71l-2.7-3.64v-5.66l-2.06-2.06-.18-2.36 2.62-5-4.97-8.77.58-5.95-4.47-.46-1.65-1.65h-3.01l-1.53 1.41h-5.3l-.18.47h-2.95l-6.76-7.71.06-6.01 1.12-.41.42-2.3h-1.59l-.65-2.41 7.83-5.65v-4l3.83-2.13 1.55.15h3.15l2.47-1.32 7.95-.62v4.06l6.26 1.59zm-19.87-25.25l.65-1 2.33-.47.58 2.83 1.24 2 .82.95 1.5.59-1.41 1.68-2.74.26h-2.06l.23-2.44 1.71-.35-.14-1.15-1.6-1-1.11-.76v-1.14zm-3.82 4.41l1.41-2.27 1.91-.44 1.36.59-.12 1.53-2.91 2.06h-1.64l-.01-1.47zm-38.49 8.72l-1.48.12.08-1.03.66-.82.89.7-.15 1.03zm5.17-1.81l-1.01.09-.2.97-.78.48-1.24.1-.07-.51h-.48v-1.05h2.03l.42-1.08.81-.02.92.19-.4.83z"/><path class="st1" d="M78.46 182.93l59.82-13.06c1.89-.38 3.22-2.46 2.84-4.35l-12.49-56.6c-.38-1.89-2.46-3.22-4.35-2.84l-59.82 13.06c-1.89.38-3.22 2.46-2.84 4.35l12.49 56.6c.37 2.08 2.26 3.22 4.35 2.84z"/><path class="st2" d="M69.31 192.4l76.29-16.66c1.7-.38 2.84-2.08 2.46-3.79-.38-1.7-2.08-2.84-3.79-2.46L71.2 185.58 45.83 70.3c-.19-.76-.76-1.51-1.33-1.89L8.35 45.31c-1.51-.94-3.4-.57-4.35.95-.95 1.51-.57 3.41.95 4.35l35.02 22.34 25.74 116.99c.38 1.7 1.89 2.83 3.6 2.46z"/><circle class="st1" cx="68.6" cy="189.32" r="19.29"/><circle class="st3" cx="68.74" cy="189.37" r="14.58"/><circle class="st4" cx="68.74" cy="189.37" r="12.49"/><path class="st2" d="M63.63 183.88c.38 1.51 1.7 0 3.79-.38 2.08-.38 3.98.19 3.6-1.33-.38-1.51-2.27-2.27-4.35-1.89-1.91.57-3.42 2.27-3.04 3.6zm10.22 10.79c-.38-1.51-1.7 0-3.79.38-2.08.38-3.98-.19-3.6 1.33.38 1.51 2.27 2.27 4.35 1.89 1.9-.57 3.23-2.09 3.04-3.6zm-10.41-.38c1.51-.38 0-1.7-.38-3.79-.38-2.08.19-3.98-1.33-3.6-1.51.38-2.27 2.27-1.89 4.35.57 2.09 2.08 3.42 3.6 3.04zm10.6-10.03c-1.51.38 0 1.7.38 3.79.38 2.08-.19 3.98 1.33 3.6 1.51-.38 2.27-2.27 1.89-4.35-.57-1.91-2.09-3.42-3.6-3.04z"/><circle class="st2" cx="68.74" cy="189.37" r="3.22"/><path class="st1" d="M63.19 117.91l45.62-10.03c1.51-.38 2.46-1.89 2.08-3.41l-9.46-43.16c-.38-1.51-1.89-2.46-3.41-2.08L52.4 69.26c-1.51.38-2.46 1.89-2.08 3.41l9.65 42.97c.19 1.51 1.7 2.46 3.22 2.27z"/><path transform="rotate(-12.381 76.492 69.822)" class="st2" d="M69.58 65.17H83.4v9.29H69.58z"/><path transform="rotate(-12.393 96.291 119.088)" class="st2" d="M86.48 112.48h19.59v13.22H86.48z"/><path class="st4" d="M107.16 122.47l-.22-1.02-6.89-1.38 1.85-.41 4.86.97-.14-.62-3.27-.67 2.97-.66-.15-.69-8.08 1.79 1.22 5.5 1.01-.22-.92-4.17zm-20.17-.23l.15.69 2.98-.66-2.68 1.99.21.96 4.68-3.44 1.85-.41-6.35 4.67.15.69 6.37-4.73.93 4.18 1.01-.23-1.22-5.5zm6.4-9.35l-1.01.22.92 4.18-7.76-1.59.25 1.12 6.65 1.33-1.86.41-4.61-.92.12.53 3.26.66-2.97.66.15.69 8.08-1.79zm12.32 3.04l-.15-.69-2.98.66 2.69-1.99-.22-.98-4.7 3.47-1.86.41 6.38-4.7-.15-.67-6.37 4.73-.92-4.18-1.01.23 1.22 5.5z"/><path class="st5" d="M106.17 117.99l-.46-2.06-8.07 1.79-1.22-5.5-3.03.67 1.22 5.5-8.08 1.79.46 2.06 8.08-1.79 1.22 5.5 3.02-.67-1.22-5.5z"/><path class="st5" d="M92.33 121.78l-4.68 3.44.18.82 6.35-4.67zm7.72-1.71l6.89 1.38-.18-.82-4.86-.97zm-7.61-1.92l-6.65-1.33.18.82 4.61.92zm7.91-1.75l4.7-3.47-.18-.82-6.38 4.7z"/><path class="st4" d="M84.06 71.16l-.15-.71-4.84-.95 1.31-.29 3.4.67-.1-.43-2.29-.46 2.09-.47-.11-.48-5.66 1.26.84 3.83.71-.16-.64-2.9zm-14.15-.13l.11.48 2.09-.47-1.89 1.39.15.67 3.29-2.4 1.3-.29-4.46 3.26.1.48 4.48-3.3.64 2.91.71-.16-.85-3.83zm4.5-6.52l-.71.15.65 2.91-5.45-1.1.17.78 4.67.92-1.3.29-3.24-.64.08.37 2.3.46-2.09.47.1.47 5.67-1.25zm8.64 2.1l-.1-.48-2.09.46 1.88-1.39-.15-.68-3.3 2.42-1.3.29 4.48-3.28-.11-.46-4.47 3.29-.64-2.9-.71.16.85 3.82z"/><path class="st5" d="M83.37 68.04l-.32-1.43-5.66 1.25-.85-3.82-2.13.47.85 3.83-5.67 1.25.32 1.44 5.67-1.26.85 3.83 2.12-.47-.84-3.83z"/><path class="st5" d="M73.66 70.7l-3.29 2.4.13.57 4.46-3.26zm5.41-1.2l4.84.95-.13-.57-3.4-.67zm-5.33-1.33l-4.67-.92.13.57 3.24.64zm5.55-1.23l3.3-2.42-.12-.57-4.48 3.28z"/></svg>