<svg id="Layer_1" xmlns="http://www.w3.org/2000/svg" width="230" height="210" viewBox="0 0 230 210"><style>.st0,.st1{fill:none;stroke:#333;stroke-miterlimit:10;stroke-dasharray:4.0127,4.0127}.st1{stroke-dasharray:3.9798,3.9798}.st2{fill:#b00d23}.st3{fill:#fff}.st4{fill:#160d37;stroke:#fff;stroke-width:2;stroke-miterlimit:10}</style><circle class="st0" cx="105.71" cy="105.51" r="90.68"/><circle class="st1" cx="105.89" cy="105.33" r="102.61"/><circle class="st2" cx="105.48" cy="105.74" r="81.9"/><path class="st3" d="M138.22 141.83H87.63a5.06 5.06 0 1 1 0-10.12h50.59a5.06 5.06 0 1 1 0 10.12zm0 0"/><path class="st3" d="M148.34 136.77c0 5.59-4.53 10.12-10.12 10.12-5.59 0-10.12-4.53-10.12-10.12 0-5.59 4.53-10.11 10.12-10.11 5.59-.01 10.12 4.52 10.12 10.11zm-4.7-55.63l-70.82-5.06c-1.61-.11-3.25.57-4.29 1.86a5.073 5.073 0 0 0-.94 4.58l10.12 35.41a5.067 5.067 0 0 0 4.87 3.67h50.59c8.37 0 15.18-6.81 15.18-15.18V86.18a5.072 5.072 0 0 0-4.71-5.04zm0 0"/><path class="st3" d="M148.34 76.07H74.25l-2.01-6.55c-.03-.09-.09-.14-.12-.23-.12-.34-.31-.62-.5-.93-.17-.26-.31-.53-.51-.76-.22-.23-.48-.4-.73-.59-.27-.2-.52-.41-.82-.56-.26-.12-.53-.17-.81-.25-.36-.1-.71-.2-1.1-.22-.08 0-.15-.05-.24-.05H57.28a5.06 5.06 0 1 0 0 10.12h6.38l19.13 62.19a5.063 5.063 0 0 0 4.84 3.58c.49 0 .99-.07 1.49-.23a5.058 5.058 0 0 0 3.35-6.32l-15.11-49.1h70.98a5.06 5.06 0 0 0 5.06-5.06c0-2.78-2.27-5.04-5.06-5.04zm0 0"/><path class="st3" d="M92.69 136.77c0 5.59-4.53 10.12-10.12 10.12-5.59 0-10.11-4.53-10.11-10.12 0-5.59 4.53-10.11 10.11-10.11 5.59-.01 10.12 4.52 10.12 10.11zm0 0"/><path class="st4" d="M163.98 111.29l14.74 52.19 13.5-12.9 23.63 23.63 10.87-12.46-22.83-22.83 12.89-12.89z"/></svg>