<svg xmlns="http://www.w3.org/2000/svg" xmlns:xlink="http://www.w3.org/1999/xlink" width="220" height="230" viewBox="0 0 220 230"><style>.st0{display:none}.st1{display:inline}.st2{clip-path:url(#SVGID_2_)}.st3{clip-path:url(#SVGID_4_);fill:#160d37}.st4{clip-path:url(#SVGID_6_)}.st5{clip-path:url(#SVGID_8_);fill:#1e1348}.st6{clip-path:url(#SVGID_10_)}.st7{clip-path:url(#SVGID_12_);fill:#b00d23}.st8{clip-path:url(#SVGID_14_)}.st9{clip-path:url(#SVGID_16_);fill:#1e1348}.st10{clip-path:url(#SVGID_18_)}.st11{clip-path:url(#SVGID_20_);fill:#b00d23}.st12{clip-path:url(#SVGID_22_)}.st13{clip-path:url(#SVGID_24_);fill:#1e1348}.st14{clip-path:url(#SVGID_26_)}.st15{clip-path:url(#SVGID_28_);fill:#b00d23}.st16{clip-path:url(#SVGID_30_)}.st17{clip-path:url(#SVGID_32_);fill:#1e1348}.st18{clip-path:url(#SVGID_34_)}.st19{clip-path:url(#SVGID_36_);fill:#b00d23}.st20{clip-path:url(#SVGID_38_)}.st21{clip-path:url(#SVGID_40_);fill:#1e1348}.st22{clip-path:url(#SVGID_42_)}.st23{clip-path:url(#SVGID_44_);fill:#b00d23}.st24{clip-path:url(#SVGID_46_)}.st25{clip-path:url(#SVGID_48_);fill:#1e1348}.st26{clip-path:url(#SVGID_50_)}.st27{clip-path:url(#SVGID_52_);fill:#b00d23}.st28{clip-path:url(#SVGID_54_)}.st29{clip-path:url(#SVGID_56_);fill:#1e1348}.st30{clip-path:url(#SVGID_58_)}.st31{clip-path:url(#SVGID_60_);fill:#b00d23}.st32{clip-path:url(#SVGID_62_)}.st33{clip-path:url(#SVGID_64_);fill:#1e1348}.st34{clip-path:url(#SVGID_66_)}.st35{clip-path:url(#SVGID_68_);fill:#b00d23}.st36{clip-path:url(#SVGID_70_)}.st37{clip-path:url(#SVGID_72_);fill:#1e1348}.st38{clip-path:url(#SVGID_74_)}.st39{clip-path:url(#SVGID_76_);fill:#b00d23}.st40{clip-path:url(#SVGID_78_)}.st41{clip-path:url(#SVGID_80_);fill:#1e1348}.st42{clip-path:url(#SVGID_82_)}.st43{clip-path:url(#SVGID_84_);fill:#b00d23}.st44{clip-path:url(#SVGID_86_)}.st45{clip-path:url(#SVGID_88_);fill:#1e1348}.st46{clip-path:url(#SVGID_90_)}.st47{clip-path:url(#SVGID_92_);fill:#b00d23}.st48{clip-path:url(#SVGID_94_)}.st49{clip-path:url(#SVGID_96_);fill:#fff}.st50{clip-path:url(#SVGID_98_)}.st51{clip-path:url(#SVGID_100_);fill:#fff}.st52{clip-path:url(#SVGID_102_)}.st53{clip-path:url(#SVGID_104_);fill:#fff}.st54{clip-path:url(#SVGID_106_)}.st55{clip-path:url(#SVGID_108_);fill:#fff}.st56{clip-path:url(#SVGID_110_)}.st57{clip-path:url(#SVGID_112_);fill:#fff}.st58{clip-path:url(#SVGID_114_)}.st59{clip-path:url(#SVGID_116_);fill:#fff}.st60{clip-path:url(#SVGID_118_)}.st61{clip-path:url(#SVGID_120_);fill:#fff}.st62{clip-path:url(#SVGID_122_)}.st63{clip-path:url(#SVGID_124_);fill:#fff}.st64{clip-path:url(#SVGID_126_)}.st65{clip-path:url(#SVGID_128_);fill:#fff}.st66{clip-path:url(#SVGID_130_)}.st67{clip-path:url(#SVGID_132_);fill:#fff}.st68{clip-path:url(#SVGID_134_)}.st69{clip-path:url(#SVGID_136_);fill:#fff}.st70{clip-path:url(#SVGID_138_)}.st71{clip-path:url(#SVGID_140_);fill:#fff}.st72{clip-path:url(#SVGID_142_)}.st73{clip-path:url(#SVGID_144_);fill:#fff}.st74{clip-path:url(#SVGID_146_)}.st75{clip-path:url(#SVGID_148_);fill:#fff}.st76{clip-path:url(#SVGID_150_)}.st77{clip-path:url(#SVGID_152_);fill:#fff}.st78{clip-path:url(#SVGID_154_)}.st79{clip-path:url(#SVGID_156_);fill:#fff}.st80{clip-path:url(#SVGID_158_)}.st81{clip-path:url(#SVGID_160_);fill:#fff}.st82{clip-path:url(#SVGID_162_)}.st83{clip-path:url(#SVGID_164_);fill:#fff}.st84{clip-path:url(#SVGID_166_)}.st85{clip-path:url(#SVGID_168_);fill:#fff}.st86{clip-path:url(#SVGID_170_)}.st87{clip-path:url(#SVGID_172_);fill:#fff}.st88{clip-path:url(#SVGID_174_)}.st89{clip-path:url(#SVGID_176_);fill:#fff}.st90{clip-path:url(#SVGID_178_)}.st91{clip-path:url(#SVGID_180_);fill:#fff}.st92{clip-path:url(#SVGID_182_)}.st93{clip-path:url(#SVGID_184_);fill:#fff}.st94{clip-path:url(#SVGID_186_)}.st95{clip-path:url(#SVGID_188_);fill:#fff}.st96{clip-path:url(#SVGID_190_)}.st97{clip-path:url(#SVGID_192_);fill:#fff}.st98{clip-path:url(#SVGID_194_)}.st99{clip-path:url(#SVGID_196_);fill:#fff}.st100{clip-path:url(#SVGID_198_)}.st101{clip-path:url(#SVGID_200_);fill:#fff}.st102{clip-path:url(#SVGID_202_)}.st103{clip-path:url(#SVGID_204_);fill:#fff}.st104{fill:#160d37}.st105{fill:none;stroke:#160d37;stroke-width:10;stroke-miterlimit:10}.st106{fill:#b00d23}</style><g id="start_selling" class="st0"><g class="st1"><defs><path id="SVGID_1_" d="M217.49 114.36c.65-59.09-47-107.66-106.24-108.31C51.99 5.4 3.27 52.91 2.61 111.97 2.1 157.74 30.8 198.79 74.04 214.1c.95.34 2 .3 2.94-.14.9-.44 1.6-1.2 1.94-2.19.71-1.9-.37-4.18-2.31-4.86-40.14-14.23-66.81-52.34-66.34-94.86.61-54.85 45.87-98.97 100.89-98.36 55.02.61 99.27 45.71 98.67 100.56-.39 34.91-18.4 66.29-48.29 84.17l.28-6.27c.03-2.44-.98-3.23-1.58-3.51-.63-.27-1.96-.47-3.9 1.33l-20.88 19.53c-1.08 1.03-1.67 2.1-1.68 3.05-.01.6.25 2.57 3.83 2.73l28.61 1.27c1.49.05 2.66-.24 3.33-.89 1.12-1.07.84-2.79-.82-4.58l-4.91-5.19c33.2-19.09 53.25-53.25 53.67-91.53"/></defs><clipPath id="SVGID_2_"><use xlink:href="#SVGID_1_" overflow="visible"/></clipPath><g class="st2"><defs><path id="SVGID_3_" d="M-94.71-2567.78h410v5307.1h-410z"/></defs><clipPath id="SVGID_4_"><use xlink:href="#SVGID_3_" overflow="visible"/></clipPath><path class="st3" d="M-2.86.58h225.83v221.45H-2.86z"/></g><defs><path id="SVGID_5_" d="M110.22 222.51c-.92 0-1.53-.55-1.53-1.39V63.07c0-.83.61-1.39 1.53-1.39s1.53.55 1.53 1.39v158.05c0 .84-.92 1.39-1.53 1.39"/></defs><clipPath id="SVGID_6_"><use xlink:href="#SVGID_5_" overflow="visible"/></clipPath><g class="st4"><defs><path id="SVGID_7_" d="M-94.71-2332.69h410V2499.9h-410z"/></defs><clipPath id="SVGID_8_"><use xlink:href="#SVGID_7_" overflow="visible"/></clipPath><path class="st5" d="M103.23 56.71h13.99v170.78h-13.99z"/></g><defs><path id="SVGID_9_" d="M118.16 55.29c0 4.37-3.56 7.92-7.94 7.92-4.39 0-7.94-3.55-7.94-7.92s3.56-7.92 7.94-7.92c4.39 0 7.94 3.55 7.94 7.92"/></defs><clipPath id="SVGID_10_"><use xlink:href="#SVGID_9_" overflow="visible"/></clipPath><g class="st6"><defs><path id="SVGID_11_" d="M-94.71-2567.78h410v5307.1h-410z"/></defs><clipPath id="SVGID_12_"><use xlink:href="#SVGID_11_" overflow="visible"/></clipPath><path class="st7" d="M96.81 41.91h26.82v26.77H96.81z"/></g><defs><path id="SVGID_13_" d="M109.61 116.5c-.61 0-1.22-.3-1.22-.91L90.98 82.7c-.31-.61 0-1.52.61-2.13.61-.3 1.53 0 2.14.61l17.41 32.89c.3.61 0 1.52-.61 2.13-.31.3-.61.3-.92.3"/></defs><clipPath id="SVGID_14_"><use xlink:href="#SVGID_13_" overflow="visible"/></clipPath><g class="st8"><defs><path id="SVGID_15_" d="M-94.71-2567.78h410v5307.1h-410z"/></defs><clipPath id="SVGID_16_"><use xlink:href="#SVGID_15_" overflow="visible"/></clipPath><path class="st9" d="M85.39 74.98h31.33v46.98H85.39z"/></g><defs><path id="SVGID_17_" d="M95.26 76.91c0 3.2-2.6 5.79-5.8 5.79-3.2 0-5.8-2.59-5.8-5.79s2.6-5.78 5.8-5.78c3.2 0 5.8 2.59 5.8 5.78"/></defs><clipPath id="SVGID_18_"><use xlink:href="#SVGID_17_" overflow="visible"/></clipPath><g class="st10"><defs><path id="SVGID_19_" d="M-94.71-2567.78h410v5307.1h-410z"/></defs><clipPath id="SVGID_20_"><use xlink:href="#SVGID_19_" overflow="visible"/></clipPath><path class="st11" d="M78.18 65.66h22.54v22.5H78.18z"/></g><defs><path id="SVGID_21_" d="M108.39 116.8c-.31 0-.61 0-.92-.31l-56.81-40.8c-.61-.61-.92-1.52-.31-2.13.61-.61 1.53-.91 2.14-.31l56.81 40.81c.61.61.92 1.52.3 2.13-.29.31-.6.61-1.21.61"/></defs><clipPath id="SVGID_22_"><use xlink:href="#SVGID_21_" overflow="visible"/></clipPath><g class="st12"><defs><path id="SVGID_23_" d="M-94.71-2567.78h410v5307.1h-410z"/></defs><clipPath id="SVGID_24_"><use xlink:href="#SVGID_23_" overflow="visible"/></clipPath><path class="st13" d="M44.56 67.46h70.85v54.81H44.56z"/></g><defs><path id="SVGID_25_" d="M52.8 70.21c0 4.2-3.42 7.61-7.64 7.61s-7.64-3.41-7.64-7.61 3.42-7.61 7.64-7.61 7.64 3.41 7.64 7.61"/></defs><clipPath id="SVGID_26_"><use xlink:href="#SVGID_25_" overflow="visible"/></clipPath><g class="st14"><defs><path id="SVGID_27_" d="M-94.71-2567.78h410v5307.1h-410z"/></defs><clipPath id="SVGID_28_"><use xlink:href="#SVGID_27_" overflow="visible"/></clipPath><path class="st15" d="M32.06 57.13h26.21v26.16H32.06z"/></g><defs><path id="SVGID_29_" d="M68.07 140.55c-.61 0-.92-.3-1.22-.91-.31-.61 0-1.52.61-2.13l42.15-23.45c.61-.3 1.53 0 2.14.61.3.61 0 1.52-.61 2.13l-42.15 23.45c-.31.3-.61.3-.92.3"/></defs><clipPath id="SVGID_30_"><use xlink:href="#SVGID_29_" overflow="visible"/></clipPath><g class="st16"><defs><path id="SVGID_31_" d="M-94.71-2567.78h410v5307.1h-410z"/></defs><clipPath id="SVGID_32_"><use xlink:href="#SVGID_31_" overflow="visible"/></clipPath><path class="st17" d="M61.26 108.48h56.07v37.55H61.26z"/></g><defs><path id="SVGID_33_" d="M68.99 142.69c0 4.2-3.42 7.61-7.64 7.61s-7.64-3.41-7.64-7.61 3.42-7.61 7.64-7.61c4.22-.01 7.64 3.4 7.64 7.61"/></defs><clipPath id="SVGID_34_"><use xlink:href="#SVGID_33_" overflow="visible"/></clipPath><g class="st18"><defs><path id="SVGID_35_" d="M-94.71-2567.78h410v5307.1h-410z"/></defs><clipPath id="SVGID_36_"><use xlink:href="#SVGID_35_" overflow="visible"/></clipPath><path class="st19" d="M48.25 129.61h26.21v26.16H48.25z"/></g><defs><path id="SVGID_37_" d="M108.39 118.02c-.31 0-.31 0 0 0l-30.85-3.05c-.92 0-1.53-.91-1.22-1.52 0-.91.92-1.52 1.53-1.22l30.54 3.04c.92 0 1.53.91 1.22 1.52 0 .62-.61 1.23-1.22 1.23"/></defs><clipPath id="SVGID_38_"><use xlink:href="#SVGID_37_" overflow="visible"/></clipPath><g class="st20"><defs><path id="SVGID_39_" d="M-94.71-2567.78h410v5307.1h-410z"/></defs><clipPath id="SVGID_40_"><use xlink:href="#SVGID_39_" overflow="visible"/></clipPath><path class="st21" d="M70.77 106.69h44.38v16.8H70.77z"/></g><defs><path id="SVGID_41_" d="M77.85 113.15c0 2.69-2.19 4.87-4.89 4.87-2.7 0-4.89-2.18-4.89-4.87s2.19-4.87 4.89-4.87c2.7 0 4.89 2.18 4.89 4.87"/></defs><clipPath id="SVGID_42_"><use xlink:href="#SVGID_41_" overflow="visible"/></clipPath><g class="st22"><defs><path id="SVGID_43_" d="M-94.71-2567.78h410v5307.1h-410z"/></defs><clipPath id="SVGID_44_"><use xlink:href="#SVGID_43_" overflow="visible"/></clipPath><path class="st23" d="M62.6 102.81h20.71v20.68H62.6z"/></g><defs><path id="SVGID_45_" d="M97.09 145.12h-.61c-.92-.3-1.22-1.22-.61-2.13l12.83-28.02c.31-.91 1.22-1.22 2.14-.61.92.3 1.22 1.22.61 2.13L98.62 144.5c-.61.32-1.23.62-1.53.62"/></defs><clipPath id="SVGID_46_"><use xlink:href="#SVGID_45_" overflow="visible"/></clipPath><g class="st24"><defs><path id="SVGID_47_" d="M-94.71-2567.78h410v5307.1h-410z"/></defs><clipPath id="SVGID_48_"><use xlink:href="#SVGID_47_" overflow="visible"/></clipPath><path class="st25" d="M90.08 108.58h27.15v42.01H90.08z"/></g><defs><path id="SVGID_49_" d="M99.84 147.86c0 2.69-2.19 4.87-4.89 4.87-2.7 0-4.89-2.18-4.89-4.87s2.19-4.87 4.89-4.87c2.7 0 4.89 2.18 4.89 4.87"/></defs><clipPath id="SVGID_50_"><use xlink:href="#SVGID_49_" overflow="visible"/></clipPath><g class="st26"><defs><path id="SVGID_51_" d="M-94.71-2567.78h410v5307.1h-410z"/></defs><clipPath id="SVGID_52_"><use xlink:href="#SVGID_51_" overflow="visible"/></clipPath><path class="st27" d="M84.6 137.52h20.71v20.68H84.6z"/></g><defs><path id="SVGID_53_" d="M110.53 116.5c-.31 0-.61 0-.61-.3-.61-.31-.92-1.22-.61-2.13l17.41-32.89c.31-.61 1.22-.91 2.14-.61.61.3.92 1.22.61 2.13l-17.41 32.89c-.31.6-.92.91-1.53.91"/></defs><clipPath id="SVGID_54_"><use xlink:href="#SVGID_53_" overflow="visible"/></clipPath><g class="st28"><defs><path id="SVGID_55_" d="M-94.71-2567.78h410v5307.1h-410z"/></defs><clipPath id="SVGID_56_"><use xlink:href="#SVGID_55_" overflow="visible"/></clipPath><path class="st29" d="M103.72 74.98h31.33v46.98h-31.33z"/></g><defs><path id="SVGID_57_" d="M136.49 76.91c0 3.2-2.6 5.79-5.8 5.79-3.2 0-5.8-2.59-5.8-5.79s2.6-5.78 5.8-5.78c3.2 0 5.8 2.59 5.8 5.78"/></defs><clipPath id="SVGID_58_"><use xlink:href="#SVGID_57_" overflow="visible"/></clipPath><g class="st30"><defs><path id="SVGID_59_" d="M-94.71-2567.78h410v5307.1h-410z"/></defs><clipPath id="SVGID_60_"><use xlink:href="#SVGID_59_" overflow="visible"/></clipPath><path class="st31" d="M119.42 65.66h22.54v22.5h-22.54z"/></g><defs><path id="SVGID_61_" d="M111.75 116.8c-.61 0-.92-.31-1.22-.61-.61-.61-.31-1.52.31-2.13l57.12-40.81c.61-.61 1.53-.3 2.14.31.61.61.31 1.52-.31 2.13l-57.12 40.8c-.31.31-.62.31-.92.31"/></defs><clipPath id="SVGID_62_"><use xlink:href="#SVGID_61_" overflow="visible"/></clipPath><g class="st32"><defs><path id="SVGID_63_" d="M-94.71-2567.78h410v5307.1h-410z"/></defs><clipPath id="SVGID_64_"><use xlink:href="#SVGID_63_" overflow="visible"/></clipPath><path class="st33" d="M104.73 67.46h71.16v54.81h-71.16z"/></g><defs><path id="SVGID_65_" d="M182.61 70.21c0 4.2-3.42 7.61-7.64 7.61s-7.64-3.41-7.64-7.61 3.42-7.61 7.64-7.61 7.64 3.41 7.64 7.61"/></defs><clipPath id="SVGID_66_"><use xlink:href="#SVGID_65_" overflow="visible"/></clipPath><g class="st34"><defs><path id="SVGID_67_" d="M-94.71-2567.78h410v5307.1h-410z"/></defs><clipPath id="SVGID_68_"><use xlink:href="#SVGID_67_" overflow="visible"/></clipPath><path class="st35" d="M161.87 57.13h26.21v26.16h-26.21z"/></g><defs><path id="SVGID_69_" d="M152.07 140.55c-.3 0-.61 0-.61-.3l-42.15-23.45c-.61-.3-.92-1.22-.61-2.13.31-.61 1.22-.91 2.14-.61l42.15 23.45c.61.3.92 1.22.61 2.13-.31.61-.92.91-1.53.91"/></defs><clipPath id="SVGID_70_"><use xlink:href="#SVGID_69_" overflow="visible"/></clipPath><g class="st36"><defs><path id="SVGID_71_" d="M-94.71-2567.78h410v5307.1h-410z"/></defs><clipPath id="SVGID_72_"><use xlink:href="#SVGID_71_" overflow="visible"/></clipPath><path class="st37" d="M103.11 108.48h56.07v37.55h-56.07z"/></g><defs><path id="SVGID_73_" d="M166.42 142.69c0 4.2-3.42 7.61-7.64 7.61s-7.64-3.41-7.64-7.61 3.42-7.61 7.64-7.61c4.23-.01 7.64 3.4 7.64 7.61"/></defs><clipPath id="SVGID_74_"><use xlink:href="#SVGID_73_" overflow="visible"/></clipPath><g class="st38"><defs><path id="SVGID_75_" d="M-94.71-2567.78h410v5307.1h-410z"/></defs><clipPath id="SVGID_76_"><use xlink:href="#SVGID_75_" overflow="visible"/></clipPath><path class="st39" d="M145.69 129.61h26.21v26.16h-26.21z"/></g><defs><path id="SVGID_77_" d="M112.05 118.02c-.92 0-1.53-.61-1.53-1.52 0-.92.61-1.52 1.22-1.52l30.54-3.04c.92 0 1.53.61 1.53 1.22 0 .92-.61 1.52-1.22 1.52l-30.54 3.34z"/></defs><clipPath id="SVGID_78_"><use xlink:href="#SVGID_77_" overflow="visible"/></clipPath><g class="st40"><defs><path id="SVGID_79_" d="M-94.71-2567.78h410v5307.1h-410z"/></defs><clipPath id="SVGID_80_"><use xlink:href="#SVGID_79_" overflow="visible"/></clipPath><path class="st41" d="M105.06 106.46h44.23v17.02h-44.23z"/></g><defs><path id="SVGID_81_" d="M152.37 113.15c0 2.69-2.19 4.87-4.89 4.87-2.7 0-4.89-2.18-4.89-4.87s2.19-4.87 4.89-4.87c2.71 0 4.89 2.18 4.89 4.87"/></defs><clipPath id="SVGID_82_"><use xlink:href="#SVGID_81_" overflow="visible"/></clipPath><g class="st42"><defs><path id="SVGID_83_" d="M-94.71-2567.78h410v5307.1h-410z"/></defs><clipPath id="SVGID_84_"><use xlink:href="#SVGID_83_" overflow="visible"/></clipPath><path class="st43" d="M137.13 102.81h20.71v20.68h-20.71z"/></g><defs><path id="SVGID_85_" d="M123.36 145.12c-.61 0-1.22-.3-1.53-.91L109 116.19c-.31-.91 0-1.52.61-2.13.92-.3 1.53 0 2.14.61l12.83 28.01c.3.91 0 1.52-.61 2.13-.31.31-.61.31-.61.31"/></defs><clipPath id="SVGID_86_"><use xlink:href="#SVGID_85_" overflow="visible"/></clipPath><g class="st44"><defs><path id="SVGID_87_" d="M-94.71-2567.78h410v5307.1h-410z"/></defs><clipPath id="SVGID_88_"><use xlink:href="#SVGID_87_" overflow="visible"/></clipPath><path class="st45" d="M103.41 108.48h26.75v42.11h-26.75z"/></g><defs><path id="SVGID_89_" d="M130.08 147.86c0 2.69-2.19 4.87-4.89 4.87-2.7 0-4.89-2.18-4.89-4.87s2.19-4.87 4.89-4.87c2.7 0 4.89 2.18 4.89 4.87"/></defs><clipPath id="SVGID_90_"><use xlink:href="#SVGID_89_" overflow="visible"/></clipPath><g class="st46"><defs><path id="SVGID_91_" d="M-94.71-2567.78h410v5307.1h-410z"/></defs><clipPath id="SVGID_92_"><use xlink:href="#SVGID_91_" overflow="visible"/></clipPath><path class="st47" d="M114.84 137.52h20.71v20.68h-20.71z"/></g><defs><path id="SVGID_93_" d="M54.02 99.75c0 1.18-.96 2.13-2.14 2.13-1.18 0-2.14-.95-2.14-2.13s.96-2.13 2.14-2.13c1.18 0 2.14.95 2.14 2.13"/></defs><clipPath id="SVGID_94_"><use xlink:href="#SVGID_93_" overflow="visible"/></clipPath><g class="st48"><defs><path id="SVGID_95_" d="M-94.71-2567.78h410v5307.1h-410z"/></defs><clipPath id="SVGID_96_"><use xlink:href="#SVGID_95_" overflow="visible"/></clipPath><path class="st49" d="M44.28 92.15h15.21v15.19H44.28z"/></g><defs><path id="SVGID_97_" d="M60.44 100.36c0 .34-.27.61-.61.61-.34 0-.61-.27-.61-.61 0-.34.27-.61.61-.61.33 0 .61.27.61.61"/></defs><clipPath id="SVGID_98_"><use xlink:href="#SVGID_97_" overflow="visible"/></clipPath><g class="st50"><defs><path id="SVGID_99_" d="M-94.71-2567.78h410v5307.1h-410z"/></defs><clipPath id="SVGID_100_"><use xlink:href="#SVGID_99_" overflow="visible"/></clipPath><path class="st51" d="M53.75 94.28H65.9v12.15H53.75z"/></g><defs><path id="SVGID_101_" d="M70.82 68.69a1.83 1.83 0 1 1-3.662-.002 1.83 1.83 0 0 1 3.662.002"/></defs><clipPath id="SVGID_102_"><use xlink:href="#SVGID_101_" overflow="visible"/></clipPath><g class="st52"><defs><path id="SVGID_103_" d="M-94.71-2567.78h410v5307.1h-410z"/></defs><clipPath id="SVGID_104_"><use xlink:href="#SVGID_103_" overflow="visible"/></clipPath><path class="st53" d="M61.69 61.4h14.6v14.59h-14.6z"/></g><defs><path id="SVGID_105_" d="M84.87 61.38c0 1.85-1.5 3.35-3.36 3.35-1.85 0-3.36-1.5-3.36-3.35s1.5-3.35 3.36-3.35c1.86 0 3.36 1.5 3.36 3.35"/></defs><clipPath id="SVGID_106_"><use xlink:href="#SVGID_105_" overflow="visible"/></clipPath><g class="st54"><defs><path id="SVGID_107_" d="M-94.71-2567.78h410v5307.1h-410z"/></defs><clipPath id="SVGID_108_"><use xlink:href="#SVGID_107_" overflow="visible"/></clipPath><path class="st55" d="M72.68 52.57h17.65V70.2H72.68z"/></g><defs><path id="SVGID_109_" d="M105.03 69.91c0 .34-.27.61-.61.61-.34 0-.61-.27-.61-.61 0-.34.27-.61.61-.61.34 0 .61.27.61.61"/></defs><clipPath id="SVGID_110_"><use xlink:href="#SVGID_109_" overflow="visible"/></clipPath><g class="st56"><defs><path id="SVGID_111_" d="M-94.71-2567.78h410v5307.1h-410z"/></defs><clipPath id="SVGID_112_"><use xlink:href="#SVGID_111_" overflow="visible"/></clipPath><path class="st57" d="M98.34 63.83h12.16v12.15H98.34z"/></g><defs><path id="SVGID_113_" d="M154.82 63.82c0 3.2-2.6 5.79-5.8 5.79a5.79 5.79 0 0 1-5.8-5.79c0-3.19 2.6-5.79 5.8-5.79 3.2 0 5.8 2.59 5.8 5.79"/></defs><clipPath id="SVGID_114_"><use xlink:href="#SVGID_113_" overflow="visible"/></clipPath><g class="st58"><defs><path id="SVGID_115_" d="M-94.71-2567.78h410v5307.1h-410z"/></defs><clipPath id="SVGID_116_"><use xlink:href="#SVGID_115_" overflow="visible"/></clipPath><path class="st59" d="M137.74 52.57h22.54v22.51h-22.54z"/></g><defs><path id="SVGID_117_" d="M152.37 78.44c0 .84-.68 1.52-1.53 1.52s-1.53-.68-1.53-1.52.68-1.52 1.53-1.52c.85-.01 1.53.67 1.53 1.52"/></defs><clipPath id="SVGID_118_"><use xlink:href="#SVGID_117_" overflow="visible"/></clipPath><g class="st60"><defs><path id="SVGID_119_" d="M-94.71-2567.78h410v5307.1h-410z"/></defs><clipPath id="SVGID_120_"><use xlink:href="#SVGID_119_" overflow="visible"/></clipPath><path class="st61" d="M143.85 71.44h13.99v13.98h-13.99z"/></g><defs><path id="SVGID_121_" d="M178.95 100.66c0 2.35-1.92 4.26-4.28 4.26-2.36 0-4.27-1.91-4.27-4.26 0-2.35 1.91-4.26 4.27-4.26 2.36 0 4.28 1.91 4.28 4.26"/></defs><clipPath id="SVGID_122_"><use xlink:href="#SVGID_121_" overflow="visible"/></clipPath><g class="st62"><defs><path id="SVGID_123_" d="M-94.71-2567.78h410v5307.1h-410z"/></defs><clipPath id="SVGID_124_"><use xlink:href="#SVGID_123_" overflow="visible"/></clipPath><path class="st63" d="M164.93 90.93h19.48v19.46h-19.48z"/></g><defs><path id="SVGID_125_" d="M155.73 101.27c0 .34-.27.61-.61.61-.34 0-.61-.27-.61-.61 0-.34.27-.61.61-.61.34 0 .61.28.61.61"/></defs><clipPath id="SVGID_126_"><use xlink:href="#SVGID_125_" overflow="visible"/></clipPath><g class="st64"><defs><path id="SVGID_127_" d="M-94.71-2567.78h410v5307.1h-410z"/></defs><clipPath id="SVGID_128_"><use xlink:href="#SVGID_127_" overflow="visible"/></clipPath><path class="st65" d="M149.04 95.2h12.16v12.15h-12.16z"/></g><defs><path id="SVGID_129_" d="M143.21 105.84c0 .34-.27.61-.61.61s-.61-.27-.61-.61c0-.34.27-.61.61-.61s.61.27.61.61"/></defs><clipPath id="SVGID_130_"><use xlink:href="#SVGID_129_" overflow="visible"/></clipPath><g class="st66"><defs><path id="SVGID_131_" d="M-94.71-2567.78h410v5307.1h-410z"/></defs><clipPath id="SVGID_132_"><use xlink:href="#SVGID_131_" overflow="visible"/></clipPath><path class="st67" d="M136.52 99.77h12.16v12.15h-12.16z"/></g><defs><path id="SVGID_133_" d="M37.83 107.36c0 .51-.41.91-.92.91s-.92-.41-.92-.91.41-.91.92-.91.92.41.92.91"/></defs><clipPath id="SVGID_134_"><use xlink:href="#SVGID_133_" overflow="visible"/></clipPath><g class="st68"><defs><path id="SVGID_135_" d="M-94.71-2567.78h410v5307.1h-410z"/></defs><clipPath id="SVGID_136_"><use xlink:href="#SVGID_135_" overflow="visible"/></clipPath><path class="st69" d="M30.53 100.98H43.3v12.76H30.53z"/></g><defs><path id="SVGID_137_" d="M47.3 120.76c0 1.85-1.5 3.35-3.36 3.35-1.86 0-3.36-1.5-3.36-3.35s1.5-3.35 3.36-3.35c1.86 0 3.36 1.5 3.36 3.35"/></defs><clipPath id="SVGID_138_"><use xlink:href="#SVGID_137_" overflow="visible"/></clipPath><g class="st70"><defs><path id="SVGID_139_" d="M-94.71-2567.78h410v5307.1h-410z"/></defs><clipPath id="SVGID_140_"><use xlink:href="#SVGID_139_" overflow="visible"/></clipPath><path class="st71" d="M35.12 111.94h17.65v17.63H35.12z"/></g><defs><path id="SVGID_141_" d="M60.56 113.21a.37.37 0 1 1-.74 0c0-.2.16-.36.37-.36s.37.16.37.36"/></defs><clipPath id="SVGID_142_"><use xlink:href="#SVGID_141_" overflow="visible"/></clipPath><g class="st72"><defs><path id="SVGID_143_" d="M-94.71-2567.78h410v5307.1h-410z"/></defs><clipPath id="SVGID_144_"><use xlink:href="#SVGID_143_" overflow="visible"/></clipPath><path class="st73" d="M54.36 107.38h11.67v11.66H54.36z"/></g><defs><path id="SVGID_145_" d="M172.23 116.19c0 1.51-1.23 2.74-2.75 2.74s-2.75-1.23-2.75-2.74a2.74 2.74 0 0 1 2.75-2.74c1.52 0 2.75 1.23 2.75 2.74"/></defs><clipPath id="SVGID_146_"><use xlink:href="#SVGID_145_" overflow="visible"/></clipPath><g class="st74"><defs><path id="SVGID_147_" d="M-94.71-2567.78h410v5307.1h-410z"/></defs><clipPath id="SVGID_148_"><use xlink:href="#SVGID_147_" overflow="visible"/></clipPath><path class="st75" d="M161.26 107.99h16.43v16.41h-16.43z"/></g><defs><path id="SVGID_149_" d="M162.15 127.46c0 1.35-1.09 2.44-2.44 2.44-1.35 0-2.44-1.09-2.44-2.44 0-1.35 1.09-2.44 2.44-2.44 1.34 0 2.44 1.09 2.44 2.44"/></defs><clipPath id="SVGID_150_"><use xlink:href="#SVGID_149_" overflow="visible"/></clipPath><g class="st76"><defs><path id="SVGID_151_" d="M-94.71-2567.78h410v5307.1h-410z"/></defs><clipPath id="SVGID_152_"><use xlink:href="#SVGID_151_" overflow="visible"/></clipPath><path class="st77" d="M151.79 119.56h15.82v15.81h-15.82z"/></g><defs><path id="SVGID_153_" d="M139.55 121.07c0 .34-.27.61-.61.61-.34 0-.61-.27-.61-.61 0-.34.27-.61.61-.61.33 0 .61.27.61.61"/></defs><clipPath id="SVGID_154_"><use xlink:href="#SVGID_153_" overflow="visible"/></clipPath><g class="st78"><defs><path id="SVGID_155_" d="M-94.71-2567.78h410v5307.1h-410z"/></defs><clipPath id="SVGID_156_"><use xlink:href="#SVGID_155_" overflow="visible"/></clipPath><path class="st79" d="M132.86 114.99h12.16v12.15h-12.16z"/></g><defs><path id="SVGID_157_" d="M73.87 125.94c0 1.51-1.23 2.74-2.75 2.74s-2.75-1.23-2.75-2.74c0-1.51 1.23-2.74 2.75-2.74a2.74 2.74 0 0 1 2.75 2.74"/></defs><clipPath id="SVGID_158_"><use xlink:href="#SVGID_157_" overflow="visible"/></clipPath><g class="st80"><defs><path id="SVGID_159_" d="M-94.71-2567.78h410v5307.1h-410z"/></defs><clipPath id="SVGID_160_"><use xlink:href="#SVGID_159_" overflow="visible"/></clipPath><path class="st81" d="M62.91 117.73h16.43v16.41H62.91z"/></g><defs><path id="SVGID_161_" d="M49.75 86.05a1.83 1.83 0 1 1-3.662-.002 1.83 1.83 0 0 1 3.662.002"/></defs><clipPath id="SVGID_162_"><use xlink:href="#SVGID_161_" overflow="visible"/></clipPath><g class="st82"><defs><path id="SVGID_163_" d="M-94.71-2567.78h410v5307.1h-410z"/></defs><clipPath id="SVGID_164_"><use xlink:href="#SVGID_163_" overflow="visible"/></clipPath><path class="st83" d="M40.61 78.75h14.6v14.59h-14.6z"/></g><defs><path id="SVGID_165_" d="M82.43 161.87c0 1.68-1.37 3.04-3.06 3.04s-3.05-1.36-3.05-3.04 1.37-3.05 3.05-3.05 3.06 1.37 3.06 3.05"/></defs><clipPath id="SVGID_166_"><use xlink:href="#SVGID_165_" overflow="visible"/></clipPath><g class="st84"><defs><path id="SVGID_167_" d="M-94.71-2567.78h410v5307.1h-410z"/></defs><clipPath id="SVGID_168_"><use xlink:href="#SVGID_167_" overflow="visible"/></clipPath><path class="st85" d="M70.85 153.36h17.04v17.02H70.85z"/></g><defs><path id="SVGID_169_" d="M84.57 144.21a1.83 1.83 0 1 1-1.83-1.83c1 0 1.83.82 1.83 1.83"/></defs><clipPath id="SVGID_170_"><use xlink:href="#SVGID_169_" overflow="visible"/></clipPath><g class="st86"><defs><path id="SVGID_171_" d="M-94.71-2567.78h410v5307.1h-410z"/></defs><clipPath id="SVGID_172_"><use xlink:href="#SVGID_171_" overflow="visible"/></clipPath><path class="st87" d="M75.43 136.91h14.6v14.59h-14.6z"/></g><defs><path id="SVGID_173_" d="M127.94 163.7c0 .67-.55 1.22-1.22 1.22-.67 0-1.22-.54-1.22-1.22 0-.67.55-1.22 1.22-1.22.67 0 1.22.54 1.22 1.22"/></defs><clipPath id="SVGID_174_"><use xlink:href="#SVGID_173_" overflow="visible"/></clipPath><g class="st88"><defs><path id="SVGID_175_" d="M-94.71-2567.78h410v5307.1h-410z"/></defs><clipPath id="SVGID_176_"><use xlink:href="#SVGID_175_" overflow="visible"/></clipPath><path class="st89" d="M120.03 157.01h13.38v13.37h-13.38z"/></g><defs><path id="SVGID_177_" d="M141.38 145.73c0 .67-.55 1.22-1.22 1.22-.67 0-1.22-.55-1.22-1.22 0-.67.55-1.22 1.22-1.22.67 0 1.22.55 1.22 1.22"/></defs><clipPath id="SVGID_178_"><use xlink:href="#SVGID_177_" overflow="visible"/></clipPath><g class="st90"><defs><path id="SVGID_179_" d="M-94.71-2567.78h410v5307.1h-410z"/></defs><clipPath id="SVGID_180_"><use xlink:href="#SVGID_179_" overflow="visible"/></clipPath><path class="st91" d="M133.47 139.05h13.38v13.37h-13.38z"/></g><defs><path id="SVGID_181_" d="M149.32 157a2.74 2.74 0 0 1-2.75 2.74c-1.52 0-2.75-1.23-2.75-2.74 0-1.51 1.23-2.74 2.75-2.74a2.74 2.74 0 0 1 2.75 2.74"/></defs><clipPath id="SVGID_182_"><use xlink:href="#SVGID_181_" overflow="visible"/></clipPath><g class="st92"><defs><path id="SVGID_183_" d="M-94.71-2567.78h410v5307.1h-410z"/></defs><clipPath id="SVGID_184_"><use xlink:href="#SVGID_183_" overflow="visible"/></clipPath><path class="st93" d="M138.36 148.79h16.43v16.41h-16.43z"/></g><defs><path id="SVGID_185_" d="M98.31 164.31c0 .67-.55 1.22-1.22 1.22s-1.22-.54-1.22-1.22c0-.67.55-1.22 1.22-1.22s1.22.54 1.22 1.22"/></defs><clipPath id="SVGID_186_"><use xlink:href="#SVGID_185_" overflow="visible"/></clipPath><g class="st94"><defs><path id="SVGID_187_" d="M-94.71-2567.78h410v5307.1h-410z"/></defs><clipPath id="SVGID_188_"><use xlink:href="#SVGID_187_" overflow="visible"/></clipPath><path class="st95" d="M90.4 157.62h13.38v13.37H90.4z"/></g><defs><path id="SVGID_189_" d="M166.12 93.36c0 .67-.55 1.22-1.22 1.22-.67 0-1.22-.54-1.22-1.22 0-.67.55-1.22 1.22-1.22.67 0 1.22.54 1.22 1.22"/></defs><clipPath id="SVGID_190_"><use xlink:href="#SVGID_189_" overflow="visible"/></clipPath><g class="st96"><defs><path id="SVGID_191_" d="M-94.71-2567.78h410v5307.1h-410z"/></defs><clipPath id="SVGID_192_"><use xlink:href="#SVGID_191_" overflow="visible"/></clipPath><path class="st97" d="M158.21 86.67h13.38v13.37h-13.38z"/></g><defs><path id="SVGID_193_" d="M87.93 88.79c0 1.18-.96 2.13-2.14 2.13-1.18 0-2.14-.95-2.14-2.13s.96-2.13 2.14-2.13c1.18 0 2.14.95 2.14 2.13"/></defs><clipPath id="SVGID_194_"><use xlink:href="#SVGID_193_" overflow="visible"/></clipPath><g class="st98"><defs><path id="SVGID_195_" d="M-94.71-2567.78h410v5307.1h-410z"/></defs><clipPath id="SVGID_196_"><use xlink:href="#SVGID_195_" overflow="visible"/></clipPath><path class="st99" d="M78.18 81.19h15.21v15.2H78.18z"/></g><defs><path id="SVGID_197_" d="M129.16 61.38c0 .84-.68 1.52-1.53 1.52-.84 0-1.53-.68-1.53-1.52s.68-1.52 1.53-1.52 1.53.68 1.53 1.52"/></defs><clipPath id="SVGID_198_"><use xlink:href="#SVGID_197_" overflow="visible"/></clipPath><g class="st100"><defs><path id="SVGID_199_" d="M-94.71-2567.78h410v5307.1h-410z"/></defs><clipPath id="SVGID_200_"><use xlink:href="#SVGID_199_" overflow="visible"/></clipPath><path class="st101" d="M120.64 54.39h13.99v13.98h-13.99z"/></g><defs><path id="SVGID_201_" d="M64.71 59.56c0 .34-.27.61-.61.61-.34 0-.61-.27-.61-.61 0-.34.27-.61.61-.61.34 0 .61.27.61.61"/></defs><clipPath id="SVGID_202_"><use xlink:href="#SVGID_201_" overflow="visible"/></clipPath><g class="st102"><defs><path id="SVGID_203_" d="M-94.71-2567.78h410v5307.1h-410z"/></defs><clipPath id="SVGID_204_"><use xlink:href="#SVGID_203_" overflow="visible"/></clipPath><path class="st103" d="M58.02 53.48h12.15v12.15H58.02z"/></g></g></g><g id="search_and_contrast"><path class="st104" d="M102.01 160.46h15.97v17.16h-15.97z"/><path class="st105" d="M110.13 31C75.3 31 47.07 59.24 47.07 94.07s28.23 63.07 63.06 63.07 63.07-28.23 63.07-63.07C173.19 59.24 144.96 31 110.13 31z"/><path class="st104" d="M97.42 190.9h25.15V229H97.42zm-2.09-13.28h29.33v13.28H95.33z"/><path class="st106" d="M145.24 182.62l-1.63-4.03c2.98-1.21 5.93-2.59 8.76-4.12l2.05 3.82a90.312 90.312 0 0 1-9.18 4.33zm-70.75-.11c-3.12-1.28-6.2-2.74-9.16-4.34l2.07-3.82c2.83 1.53 5.77 2.92 8.74 4.14l-1.65 4.02zm88.61-9.49l-2.46-3.58c2.65-1.82 5.24-3.8 7.67-5.9l2.83 3.29c-2.56 2.2-5.27 4.29-8.04 6.19zm-106.43-.15c-2.77-1.92-5.47-4-8.03-6.21l2.84-3.29c2.43 2.1 5.01 4.09 7.66 5.92l-2.47 3.58zm121.81-13.04l-3.16-2.97c2.2-2.34 4.3-4.83 6.24-7.4l3.47 2.62a98.627 98.627 0 0 1-6.55 7.75zm-137.15-.2a94.86 94.86 0 0 1-6.52-7.78l3.47-2.61c1.93 2.57 4.02 5.07 6.22 7.42l-3.17 2.97zm149.36-15.97l-3.73-2.23c1.65-2.76 3.17-5.64 4.51-8.56l3.95 1.81c-1.41 3.06-3 6.08-4.73 8.98zm-161.53-.25a93.81 93.81 0 0 1-4.7-9l3.95-1.8a88.6 88.6 0 0 0 4.49 8.58l-3.74 2.22zm169.98-18.16l-4.12-1.37c1.02-3.06 1.88-6.2 2.56-9.33l4.24.91c-.7 3.28-1.6 6.58-2.68 9.79zm-178.38-.29a90.753 90.753 0 0 1-2.65-9.8l4.25-.9c.67 3.16 1.52 6.3 2.53 9.35l-4.13 1.35zm182.67-19.52l-4.31-.45c.33-3.12.49-6.31.49-9.46v-.22h4.35v.22c-.01 3.3-.19 6.64-.53 9.91zm-186.89-.31c-.32-3.17-.49-6.4-.49-9.61v-.54l4.34.05v.49c0 3.06.15 6.15.46 9.16l-4.31.45zm182.52-19.48c-.35-3.21-.88-6.42-1.57-9.55l4.24-.94a93.24 93.24 0 0 1 1.65 10.01l-4.32.48zm-178.1-.29l-4.31-.49c.38-3.36.94-6.72 1.68-10.01l4.24.95c-.7 3.14-1.24 6.35-1.61 9.55zm173.93-18.59a90.57 90.57 0 0 0-3.6-8.99l3.94-1.83c1.42 3.05 2.69 6.22 3.77 9.43l-4.11 1.39zM25.2 66.5l-4.11-1.4c1.09-3.19 2.37-6.36 3.8-9.41l3.93 1.84a90.362 90.362 0 0 0-3.62 8.97zm161.55-17.25a90.17 90.17 0 0 0-5.45-8l3.45-2.63a94.6 94.6 0 0 1 5.71 8.39l-3.71 2.24zM33.4 49l-3.71-2.26a93.73 93.73 0 0 1 5.73-8.37l3.44 2.65A94.463 94.463 0 0 0 33.4 49zm141.62-15.13a88.192 88.192 0 0 0-7.03-6.65l2.81-3.31a95.06 95.06 0 0 1 7.37 6.97l-3.15 2.99zm-129.85-.2l-3.14-3a93.3 93.3 0 0 1 7.39-6.95l2.8 3.32c-2.46 2.07-4.83 4.3-7.05 6.63zm115.12-12.32a88.065 88.065 0 0 0-8.29-5l2.04-3.83c2.97 1.58 5.9 3.35 8.69 5.24l-2.44 3.59zm-100.35-.16l-2.43-3.6c2.79-1.89 5.72-3.64 8.71-5.22l2.03 3.84a94.097 94.097 0 0 0-8.31 4.98zm83.29-8.91a91.502 91.502 0 0 0-9.17-3.1L135.22 5c3.25.91 6.49 2 9.62 3.25l-1.61 4.03zm-66.19-.11l-1.6-4.04a94.57 94.57 0 0 1 9.63-3.22l1.15 4.19c-3.1.86-6.19 1.89-9.18 3.07zm47.57-5.06c-3.17-.52-6.4-.87-9.62-1.05l.24-4.34c3.37.18 6.76.55 10.09 1.1l-.71 4.29zm-28.93-.05l-.69-4.29c3.32-.53 6.72-.89 10.09-1.06l.23 4.34c-3.23.16-6.47.5-9.63 1.01z"/><path class="st104" d="M100.67 100.11c-.4 0-.77.15-1.06.44-.29.27-.44.66-.44 1.06l.04 10.06H79.05V68.39h29.66v5.36c.6-.4 1.31-.63 2.1-.63h2.16v-6.77c0-.73-.62-1.35-1.35-1.35H76.35c-.73 0-1.35.6-1.35 1.35v47.54c0 .75.6 1.35 1.35 1.35h26.3c.39 0 .75-.16 1.01-.44l3.37-3.78v-10.91h-6.36zm0 0"/><path class="st104" d="M96.62 95.75l8.73-7.21s.68-.58.06-1.21c-.85-.85-9-6.98-9-6.98s-1.08-1.1-1.08.35v3.75H82.8s-.52-.02-.52.66v5.72c0 .93.63.77.63.77H95.6v4.06c-.02 1.19 1.02.09 1.02.09zm48.39-20.59h-35.26c-.75 0-1.35.62-1.35 1.35v47.54c0 .75.6 1.35 1.35 1.35h26.3c.38 0 .75-.15 1-.44l8.96-10.02c.23-.25.35-.58.35-.91v-37.5c0-.76-.62-1.37-1.35-1.37zm-2.91 35.11h-8.04c-.4 0-.77.15-1.06.44-.29.27-.44.65-.44 1.06l.04 10.06h-20.14V78.55h29.64v31.72zm0 0"/><path class="st104" d="M124.95 108.03s1.08 1.08 1.08-.37v-3.75h12.51s.54.02.54-.64v-5.72c0-.95-.62-.77-.62-.77h-12.7v-4.06c0-1.19-1.02-.09-1.02-.09L116 99.82s-.69.6-.05 1.21c.85.85 9 7 9 7zm0 0"/></g></svg>