<?xml version="1.0" encoding="UTF-8" standalone="no"?>
<svg width="46px" height="45px" viewBox="0 0 46 45" version="1.1" xmlns="http://www.w3.org/2000/svg" xmlns:xlink="http://www.w3.org/1999/xlink">
    <!-- Generator: Sketch 39.1 (31720) - http://www.bohemiancoding.com/sketch -->
    <title>Page 1</title>
    <desc>Created with Sketch.</desc>
    <defs>
        <polygon id="path-1" points="41.562 30.117 41.562 0.444 20.882775 0.444 0.20355 0.444 0.20355 30.117 41.562 30.117"></polygon>
    </defs>
    <g id="solution-3" stroke="none" stroke-width="1" fill="none" fill-rule="evenodd">
        <g id="listing" transform="translate(-994.000000, -1386.000000)">
            <g id="Page-1" transform="translate(994.000000, 1385.000000)">
                <g id="Group-3" transform="translate(4.000000, 0.556000)">
                    <mask id="mask-2" fill="white">
                        <use xlink:href="#path-1"></use>
                    </mask>
                    <g id="Clip-2"></g>
                    <path d="M40.3228,21.333 L19.1188,1.61 C18.2828,0.833 17.1888,0.444 16.0938,0.444 C14.9988,0.444 13.9038,0.833 13.0688,1.61 L1.4568,12.408 C-0.2142,13.962 -0.2142,16.53 1.4568,18.084 L3.3818,19.923 L7.8208,19.923 L3.6768,16.019 C3.3868,15.748 3.3438,15.409 3.3438,15.245 C3.3438,15.081 3.3868,14.754 3.6768,14.484 L5.2108,13.102 L12.4968,19.923 L19.4868,19.923 L8.7048,9.845 L15.2888,3.698 C15.5788,3.428 15.9178,3.377 16.0938,3.377 C16.2698,3.377 16.6088,3.411 16.8988,3.68 L38.1048,23.4 C38.3958,23.671 38.4398,23.983 38.4398,24.148 C38.4398,24.312 38.3648,24.626 38.0738,24.897 L36.8718,25.988 L36.8718,30.117 L40.2948,26.962 C41.9648,25.405 41.9948,22.887 40.3228,21.333" id="Fill-1" fill="#1E1348" mask="url(#mask-2)"></path>
                </g>
                <path d="M10.4812,33.253 C9.6432,33.253 8.8852,32.943 8.3262,32.443 C7.7672,32.943 7.0082,33.253 6.1732,33.253 C4.4542,33.253 3.0602,31.958 3.0602,30.357 C3.0602,28.758 4.4532,27.462 6.1732,27.462 C7.0092,27.462 7.7682,27.771 8.3262,28.271 C8.8852,27.771 9.6432,27.462 10.4812,27.462 C12.2002,27.462 13.5942,28.758 13.5942,30.357 C13.5942,31.958 12.2002,33.253 10.4812,33.253 M34.3742,22.328 L4.3822,22.328 C2.0202,22.328 0.0002,24.098 0.0002,26.295 L0.0002,36.845 L38.5982,36.845 L38.5982,26.295 C38.5982,24.098 36.7362,22.328 34.3742,22.328" id="Fill-4" fill="#1E1348"></path>
                <path d="M0,41.566 C0,43.763 2.019,45.556 4.383,45.556 L34.374,45.556 C36.736,45.556 38.599,43.763 38.599,41.566 L38.599,41.332 L0,41.332 L0,41.566 Z" id="Fill-6" fill="#1E1348"></path>
            </g>
        </g>
    </g>
</svg>