<svg width="36" height="34" viewBox="0 0 36 34" xmlns="http://www.w3.org/2000/svg"><title>Group 12</title><g fill="none" fill-rule="evenodd"><text font-family="Roboto-Black, Roboto" font-size="24" font-weight="700" fill="#B00D23" transform="translate(0 -4)"><tspan x="9" y="22">%</tspan></text><path d="M34.528 23.952c-2.516-1.494-2.687-.586-4.356.757-.86.69-.693 1.109-4.066 2.403-2.27.87-6.467.22-7.825-.007 1.045-.132 4.687-.302 5.838-.687 1.34-.446 2.233-.937 2.31-1.802.134-1.448-1.305-2.443-1.71-2.326-3.001.87-3.643 1.246-12.462-.93C3.057 19.09.172 28.298.146 28.385l-.146.47 5.06 4.948.56-.517c2.388-2.191 5.613-1.741 9.694-1.171 2.035.285 4.343.606 6.797.612 7.664.018 12.482-7.334 12.684-7.647l.452-.702-.72-.426z" fill="#1E1348"/></g></svg>