<svg width="42" height="53" viewBox="0 0 42 53" xmlns="http://www.w3.org/2000/svg" xmlns:xlink="http://www.w3.org/1999/xlink"><title>Page 1</title><defs><path id="a" d="M0 52.773h41.758V.433H.002v52.34z"/></defs><g fill="none" fill-rule="evenodd"><g transform="translate(0 -.205)"><mask id="b" fill="#fff"><use xlink:href="#a"/></mask><path d="M20.88 51.077c-10.572 0-19.173-8.545-19.173-19.048 0-10.503 8.6-19.049 19.173-19.049 10.571 0 19.173 8.546 19.173 19.049S31.45 51.077 20.88 51.077m-2.788-46.18a2.781 2.781 0 0 1 2.788-2.769c1.536 0 2.788 1.242 2.788 2.77a2.778 2.778 0 0 1-1.935 2.637v-.829a.851.851 0 0 0-.853-.848.851.851 0 0 0-.854.848v.829a2.778 2.778 0 0 1-1.934-2.638m3.641 6.407V9.28c2.072-.398 3.64-2.212 3.64-4.384 0-2.462-2.015-4.465-4.493-4.465s-4.494 2.003-4.494 4.465c0 2.172 1.568 3.986 3.64 4.384v2.023C8.907 11.75.001 20.875.001 32.029 0 43.467 9.367 52.773 20.88 52.773c11.512 0 20.878-9.306 20.878-20.744 0-11.154-8.906-20.279-20.025-20.725" fill="#B00D23" mask="url(#b)"/></g><path d="M20.88 14.697c-9.506 0-17.239 7.683-17.239 17.127 0 9.444 7.733 17.126 17.239 17.126 9.505 0 17.238-7.682 17.238-17.126S30.385 14.697 20.88 14.697" fill="#1E1348"/><path d="M20.88 47.254c-8.565 0-15.532-6.921-15.532-15.43s6.967-15.43 15.532-15.43c8.564 0 15.53 6.921 15.53 15.43s-6.966 15.43-15.53 15.43" fill="#1E1348"/><path d="M20.88 30.863c.533 0 .967.43.967.96a.965.965 0 0 1-.967.962.965.965 0 0 1-.968-.961c0-.53.434-.961.968-.961m-2.675.96a2.67 2.67 0 0 0 2.675 2.658 2.668 2.668 0 0 0 2.674-2.657c0-1.466-1.2-2.657-2.674-2.657a2.668 2.668 0 0 0-2.675 2.657" fill="#FFF"/><path d="M24.453 33.445a3.67 3.67 0 0 1-1.941 1.929l-9.11 3.88 3.904-9.052a3.67 3.67 0 0 1 1.942-1.93l9.11-3.877-3.905 9.05zM29.647 22l-11.071 4.714a5.363 5.363 0 0 0-2.839 2.82l-4.745 11a.847.847 0 0 0 .785 1.181.849.849 0 0 0 .336-.069l11.07-4.713a5.363 5.363 0 0 0 2.84-2.82l4.744-11a.843.843 0 0 0-.182-.932.856.856 0 0 0-.938-.18zm-8.767-.18a.85.85 0 0 0 .853-.849v-1.809a.85.85 0 0 0-.853-.847.85.85 0 0 0-.854.847v1.809a.85.85 0 0 0 .854.848m0 20.009a.85.85 0 0 0-.854.848v1.81a.85.85 0 0 0 .854.846.85.85 0 0 0 .853-.847v-1.809a.85.85 0 0 0-.853-.848M9.956 30.976h-1.82a.852.852 0 0 0-.854.848c0 .467.383.848.853.848h1.821c.472 0 .854-.38.854-.848a.85.85 0 0 0-.854-.848m23.667 0h-1.82a.852.852 0 0 0-.854.848c0 .467.383.848.854.848h1.82c.472 0 .854-.38.854-.848a.85.85 0 0 0-.854-.848" fill="#FFF"/></g></svg>