<svg width="46" height="45" viewBox="0 0 46 45" xmlns="http://www.w3.org/2000/svg"><title>Page 1</title><g fill="none" fill-rule="evenodd"><path d="M45.074 30.508c0 7.483-5.95 13.55-13.287 13.55-7.338 0-13.287-6.067-13.287-13.55 0-7.483 5.949-13.549 13.287-13.549 7.338 0 13.287 6.066 13.287 13.55" fill="#1E1348"/><path d="M45.074 30.508c0 7.483-5.95 13.55-13.287 13.55-7.338 0-13.287-6.067-13.287-13.55 0-7.483 5.949-13.549 13.287-13.549 7.338 0 13.287 6.066 13.287 13.55z" stroke="#1E1348"/><path d="M1.421 21.318h16.76a15.525 15.525 0 0 1 1.716-2.17V18.12c0-.588-.635-1.065-1.421-1.065H1.421C.636 17.055 0 17.532 0 18.12v2.132c0 .588.636 1.066 1.421 1.066m0 5.685h14.484c.278-1.51.775-2.94 1.455-4.264H1.421C.636 22.74 0 23.216 0 23.805v2.132c0 .59.636 1.066 1.421 1.066m0-11.37h17.055c.785 0 1.421-.477 1.421-1.066v-2.132c0-.588-.636-1.066-1.421-1.066H1.421C.636 11.37 0 11.847 0 12.435v2.132c0 .59.636 1.066 1.421 1.066m21.318 0h2.054a15.484 15.484 0 0 1 6.474-1.42c2.309 0 4.499.515 6.473 1.42h2.054c.786 0 1.421-.477 1.421-1.066v-2.132c0-.588-.635-1.066-1.421-1.066H22.739c-.785 0-1.421.478-1.421 1.066v2.132c0 .59.636 1.066 1.421 1.066M1.421 32.688h14.484a15.498 15.498 0 0 1-.271-2.843c0-.48.027-.952.072-1.42H1.421C.636 28.424 0 28.9 0 29.49v2.131c0 .59.636 1.067 1.421 1.067m17.055 7.106H1.421C.636 39.794 0 40.271 0 40.86v2.132c0 .59.636 1.066 1.421 1.066h17.055c.785 0 1.421-.477 1.421-1.066V40.86c0-.588-.636-1.065-1.421-1.065m-17.055-1.42h16.76a15.634 15.634 0 0 1-1.943-4.265H1.421C.636 34.11 0 34.586 0 35.175v2.131c0 .59.636 1.067 1.421 1.067M22.739 9.948h17.055c.786 0 1.421-.477 1.421-1.066v-2.13c0-.59-.635-1.068-1.421-1.068H22.739c-.785 0-1.421.478-1.421 1.067v2.131c0 .59.636 1.066 1.421 1.066m0-5.685h17.055c.786 0 1.421-.477 1.421-1.066V1.065C41.215.477 40.58 0 39.794 0H22.739c-.785 0-1.421.477-1.421 1.065v2.132c0 .59.636 1.066 1.421 1.066" fill="#1E1348"/><path d="M33.633 41.587c-.278.05-.559.088-.84.115l-.117.01a10.25 10.25 0 0 1-.86.038c-.21 0-.418-.008-.627-.02l-.163-.013a9.543 9.543 0 0 1-1.154-.154l-.09-.016a10.44 10.44 0 0 1-1.88-.569l-.039-.016a10.428 10.428 0 0 1-1.197-.586 2.88 2.88 0 0 1 .713-.59l3.404-1.818c.386-.206.627-.584.627-.987v-1.233l-.343-.124c-1.372-.497-2.31-1.583-2.793-3.226l-.076-.258-.287-.083c-.546-.156-.928-.626-.928-1.143v-.842c0-.429.261-.806.683-.986l.277-.118.031-.27a7.052 7.052 0 0 1 .588-2.172c.121-.26.224-.453.308-.61.357-.67.418-.898.212-1.912l.216.17c.986.745 2.2 1.166 3.512 1.216.127.005.255.015.386.031 2.854.332 4.242 1.53 4.5 3.884l.023.223.209.13c.291.18.474.515.474.874v.7c0 .403-.236.761-.575.871l-.282.092-.066.26c-.365 1.452-1.094 2.425-2.227 2.975l-.285.14v1.14c0 .396.23.748.602.917l2.597 1.183.005.002c.184.082.348.207.483.37a10.542 10.542 0 0 1-5.02 2.405M21.07 30.557c0-6.174 4.821-11.195 10.745-11.195 5.926 0 10.746 5.021 10.746 11.194 0 3.086-1.206 5.884-3.15 7.911a2.414 2.414 0 0 0-.742-.524l-2.584-1.174a.11.11 0 0 1-.015-.06v-.576c1.186-.67 2-1.756 2.424-3.236a1.87 1.87 0 0 0 1.01-1.666v-.7c0-.587-.279-1.152-.738-1.525-.37-2.68-2.148-4.169-5.427-4.55a6.202 6.202 0 0 0-.482-.039c-.74-.028-1.834-.222-2.841-.984-.395-.297-.697-.584-.9-.85a.798.798 0 0 0-.869-.263c-.308.1-.49.365-.454.662.043.348.1.7.174 1.045.195.931.178.961-.095 1.473-.09.168-.199.375-.33.654a7.815 7.815 0 0 0-.633 2.194c-.64.377-1.029 1.014-1.029 1.724v.842c0 .84.564 1.612 1.4 1.966.553 1.695 1.57 2.873 3.026 3.508v.593a.183.183 0 0 1-.093.154l-3.422 1.826c-.39.227-.73.517-1.016.848-2.837-2.017-4.704-5.412-4.704-9.253m10.745-12.168c-6.532 0-11.848 5.46-11.848 12.168 0 4.194 2.078 7.9 5.232 10.09l-.006.007.395.251.038.023c.206.13.416.253.628.37.047.026.096.05.143.075.182.097.368.19.556.276l.138.065a11.65 11.65 0 0 0 .724.296c.227.085.46.16.694.23.044.014.09.027.136.04.233.066.468.127.707.18l.023.005c.248.053.498.098.753.135l.146.02c.2.026.4.047.602.064.064.005.128.011.194.015.247.015.495.025.745.025.346 0 .687-.018 1.026-.048l.097-.008c.333-.032.66-.08.983-.14l.105-.02c.327-.063.647-.14.962-.23l.094-.028c.32-.094.635-.202.944-.323l.078-.03a11.553 11.553 0 0 0 1.88-.956l.035-.023c.297-.189.587-.39.867-.604l.01-.007c.28-.215.548-.444.808-.682l.036-.03.26-.24-.006-.008a12.291 12.291 0 0 0 3.667-8.79c0-6.709-5.313-12.168-11.846-12.168" fill="#FFF"/></g></svg>