<svg id="Capa_1" xmlns="http://www.w3.org/2000/svg" viewBox="0 0 40.25 38.92"><style>.st0{fill:#1e1348}.st1,.st2,.st3{fill:#b00d23;stroke:#dfd5c5;stroke-miterlimit:10}.st2,.st3{fill:none;stroke:#007ea3}.st3{stroke:#00549f;stroke-width:2}.st4{fill:#b00d23}.st5{fill:#fff}.st6,.st7,.st8{fill:#b00d23;stroke:#fff;stroke-miterlimit:10}.st7,.st8{fill:#1e1348;stroke:#1e1348}.st8{stroke:#fff;stroke-width:1.5}.st9{fill:#dfd5c5}.st10{fill:#fff;stroke:#fff;stroke-miterlimit:10}</style><ellipse class="st10" cx="27.77" cy="26.56" rx="11.37" ry="11.59"/><path class="st5" d="M20.03 4.11h14.59c.67 0 1.22-.41 1.22-.91V1.37c0-.5-.54-.91-1.22-.91H20.03c-.67 0-1.22.41-1.22.91v1.82c0 .51.54.92 1.22.92zm0 4.86h14.59c.67 0 1.22-.41 1.22-.91V6.23c0-.5-.54-.91-1.22-.91H20.03c-.67 0-1.22.41-1.22.91v1.82c0 .51.54.92 1.22.92zM1.79 33.29h14.34c-.73-1.11-1.29-2.34-1.66-3.65H1.79c-.67 0-1.22.41-1.22.91v1.82c0 .51.55.92 1.22.92zm14.59 1.21H1.79c-.67 0-1.22.41-1.22.91v1.82c0 .5.54.91 1.22.91h14.59c.67 0 1.22-.41 1.22-.91v-1.82c0-.5-.55-.91-1.22-.91zM1.79 28.42h12.39a13 13 0 0 1-.23-2.43c0-.41.02-.81.06-1.22H1.79c-.67 0-1.22.41-1.22.91v1.82c0 .52.55.92 1.22.92zm18.24-14.59h1.76c1.69-.77 3.56-1.22 5.54-1.22s3.85.44 5.54 1.22h1.76c.67 0 1.22-.41 1.22-.91V11.1c0-.5-.54-.91-1.22-.91h-14.6c-.67 0-1.22.41-1.22.91v1.82c0 .5.54.91 1.22.91zm-18.24 0h14.59c.67 0 1.22-.41 1.22-.91V11.1c0-.5-.54-.91-1.22-.91H1.79c-.67 0-1.22.41-1.22.91v1.82c0 .5.55.91 1.22.91zm0 9.73h12.39c.24-1.29.66-2.51 1.24-3.65H1.79c-.67 0-1.22.41-1.22.91v1.82c0 .51.55.92 1.22.92zm0-4.86h14.34c.43-.66.93-1.28 1.47-1.86v-.88c0-.5-.54-.91-1.22-.91H1.79c-.67 0-1.22.41-1.22.91v1.82c0 .51.55.92 1.22.92z"/><path class="st0" d="M27.79 16.19c-5.59 0-10.14 4.67-10.14 10.41 0 3.59 1.78 6.76 4.48 8.63v.01l.34.21c.01.01.02.01.03.02.18.11.36.22.54.32l.12.06c.16.08.31.16.48.24.04.02.08.04.12.05.2.09.4.17.6.25.01 0 .01 0 .02.01.2.07.39.14.59.2l.12.03c.2.06.4.11.6.15h.02c.21.05.43.08.64.12.04.01.08.01.13.02l.51.06c.06 0 .11.01.17.01.21.01.42.02.64.02.3 0 .59-.02.88-.04.03 0 .06 0 .08-.01.28-.03.56-.07.84-.12.03-.01.06-.01.09-.02.28-.05.55-.12.82-.2.03-.01.05-.02.08-.02a8.64 8.64 0 0 0 .88-.31c.27-.11.53-.22.79-.35.02-.01.03-.02.05-.03.26-.13.52-.28.77-.43.01-.01.02-.01.03-.02.25-.16.5-.33.74-.52 0 0 .01 0 .01-.01.24-.18.47-.38.69-.58l.03-.03.22-.21v-.01c1.93-1.9 3.14-4.57 3.14-7.52-.01-5.72-4.56-10.39-10.15-10.39zM18.6 26.6c0-5.28 4.12-9.58 9.19-9.58s9.19 4.3 9.19 9.58c0 2.64-1.03 5.03-2.7 6.77a1.95 1.95 0 0 0-.64-.45l-2.21-1s-.01-.02-.01-.05v-.49c1.01-.57 1.71-1.5 2.07-2.77.53-.27.86-.82.86-1.42v-.6c0-.5-.24-.99-.63-1.31-.32-2.29-1.84-3.57-4.64-3.89-.14-.02-.28-.03-.41-.03-.63-.02-1.57-.19-2.43-.84-.34-.25-.6-.5-.77-.73-.17-.22-.47-.31-.74-.22a.53.53 0 0 0-.39.57c.04.3.09.6.15.89.17.8.15.82-.08 1.26-.08.14-.17.32-.28.56-.26.56-.44 1.19-.54 1.88-.55.32-.88.87-.88 1.47v.72c0 .72.48 1.38 1.2 1.68.47 1.45 1.34 2.46 2.59 3v.51c0 .05-.03.11-.08.13l-2.93 1.56c-.33.19-.62.44-.87.73-2.42-1.74-4.02-4.64-4.02-7.93zm10.75 9.44c-.24.04-.48.08-.72.1-.03 0-.07 0-.1.01-.24.02-.49.03-.74.03-.18 0-.36-.01-.54-.02-.05 0-.09-.01-.14-.01-.14-.01-.27-.02-.41-.04-.05-.01-.09-.01-.13-.02-.15-.02-.3-.04-.45-.07-.03 0-.05-.01-.08-.01-.55-.11-1.09-.27-1.61-.49-.01 0-.02-.01-.03-.01a8.02 8.02 0 0 1-1.02-.5c.18-.2.38-.37.61-.51l2.91-1.55c.33-.18.54-.5.54-.84v-1.06l-.29-.11c-1.17-.43-1.98-1.35-2.39-2.76l-.07-.22-.25-.07c-.47-.13-.79-.54-.79-.98v-.72c0-.37.22-.69.58-.84l.24-.1.03-.23a6.197 6.197 0 0 1 .76-2.38c.31-.57.36-.77.18-1.64.06.05.12.1.18.14.84.64 1.88 1 3 1.04.11 0 .22.01.33.03 2.44.28 3.63 1.31 3.85 3.32l.02.19.18.11c.25.15.41.44.41.75v.6c0 .34-.2.65-.49.75l-.23.07-.06.22c-.31 1.24-.94 2.08-1.91 2.55l-.24.12v.98c0 .34.2.64.51.79l2.22 1.01c.16.07.3.18.41.32a9.003 9.003 0 0 1-4.23 2.05c0-.01-.02-.01-.04 0z"/></svg>