<?xml version="1.0" encoding="UTF-8" standalone="no"?>
<svg width="48px" height="45px" viewBox="0 0 48 45" version="1.1" xmlns="http://www.w3.org/2000/svg" xmlns:xlink="http://www.w3.org/1999/xlink">
    <!-- Generator: Sketch 39.1 (31720) - http://www.bohemiancoding.com/sketch -->
    <title>Group 18</title>
    <desc>Created with Sketch.</desc>
    <defs>
        <polygon id="path-1" points="23.8394553 44.9302326 0 44.9302326 0 0.196837209 23.8394553 0.196837209 47.6789106 0.196837209 47.6789106 44.9302326 23.8394553 44.9302326"></polygon>
    </defs>
    <g id="solution-3" stroke="none" stroke-width="1" fill="none" fill-rule="evenodd">
        <g id="details" transform="translate(-318.000000, -3098.000000)">
            <g id="Group-18" transform="translate(318.000000, 3097.000000)">
                <g id="Page-1">
                    <g id="Group-3" transform="translate(0.000000, 0.873251)">
                        <mask id="mask-2" fill="white">
                            <use xlink:href="#path-1"></use>
                        </mask>
                        <g id="Clip-2"></g>
                        <path d="M47.6789106,39.5813953 C47.6789106,42.5232558 45.3810383,44.9302326 42.5725277,44.9302326 L5.10597447,44.9302326 C2.29746383,44.9302326 -0.000408510637,42.5232558 -0.000408510637,39.5813953 L-0.000408510637,5.54567442 C-0.000408510637,2.60381395 2.29746383,0.196837209 5.10597447,0.196837209 L42.5725277,0.196837209 C45.3810383,0.196837209 47.6789106,2.60381395 47.6789106,5.54567442 L47.6789106,39.5813953 Z" id="Fill-1" fill="#1E1348" mask="url(#mask-2)"></path>
                    </g>
                    <path d="M15.0498383,11.6505163 C15.6860936,11.6505163 16.2018383,12.1907488 16.2018383,12.857214 C16.2018383,13.5236791 15.6860936,14.0628419 15.0498383,14.0628419 C14.413583,14.0628419 13.8978383,13.5236791 13.8978383,12.857214 C13.8978383,12.1907488 14.413583,11.6505163 15.0498383,11.6505163" id="Fill-4" fill="#FFFFFF"></path>
                    <path d="M18.4701957,15.3063395 C19.1064511,15.3063395 19.6221957,15.8465721 19.6221957,16.5130372 C19.6221957,17.1795023 19.1064511,17.7186651 18.4701957,17.7186651 C17.8339404,17.7186651 17.3181957,17.1795023 17.3181957,16.5130372 C17.3181957,15.8465721 17.8339404,15.3063395 18.4701957,15.3063395" id="Fill-6" fill="#FFFFFF"></path>
                    <path d="M18.4701957,11.6505163 C19.1064511,11.6505163 19.6221957,12.1907488 19.6221957,12.857214 C19.6221957,13.5236791 19.1064511,14.0628419 18.4701957,14.0628419 C17.8339404,14.0628419 17.3181957,13.5236791 17.3181957,12.857214 C17.3181957,12.1907488 17.8339404,11.6505163 18.4701957,11.6505163" id="Fill-8" fill="#FFFFFF"></path>
                    <path d="M21.9604085,15.3063395 C22.5966638,15.3063395 23.1124085,15.8465721 23.1124085,16.5130372 C23.1124085,17.1795023 22.5966638,17.7186651 21.9604085,17.7186651 C21.3241532,17.7186651 20.8084085,17.1795023 20.8084085,16.5130372 C20.8084085,15.8465721 21.3241532,15.3063395 21.9604085,15.3063395" id="Fill-10" fill="#FFFFFF"></path>
                    <path d="M21.9604085,18.8890977 C22.5966638,18.8890977 23.1124085,19.4293302 23.1124085,20.0957953 C23.1124085,20.7622605 22.5966638,21.3014233 21.9604085,21.3014233 C21.3241532,21.3014233 20.8084085,20.7622605 20.8084085,20.0957953 C20.8084085,19.4293302 21.3241532,18.8890977 21.9604085,18.8890977" id="Fill-12" fill="#FFFFFF"></path>
                    <path d="M21.9604085,11.6505163 C22.5966638,11.6505163 23.1124085,12.1907488 23.1124085,12.857214 C23.1124085,13.5236791 22.5966638,14.0628419 21.9604085,14.0628419 C21.3241532,14.0628419 20.8084085,13.5236791 20.8084085,12.857214 C20.8084085,12.1907488 21.3241532,11.6505163 21.9604085,11.6505163" id="Fill-14" fill="#FFFFFF"></path>
                    <path d="M25.380766,15.3063395 C26.0170213,15.3063395 26.532766,15.8465721 26.532766,16.5130372 C26.532766,17.1795023 26.0170213,17.7186651 25.380766,17.7186651 C24.7445106,17.7186651 24.228766,17.1795023 24.228766,16.5130372 C24.228766,15.8465721 24.7445106,15.3063395 25.380766,15.3063395" id="Fill-16" fill="#FFFFFF"></path>
                    <path d="M25.380766,18.8890977 C26.0170213,18.8890977 26.532766,19.4293302 26.532766,20.0957953 C26.532766,20.7622605 26.0170213,21.3014233 25.380766,21.3014233 C24.7445106,21.3014233 24.228766,20.7622605 24.228766,20.0957953 C24.228766,19.4293302 24.7445106,18.8890977 25.380766,18.8890977" id="Fill-18" fill="#FFFFFF"></path>
                    <path d="M25.380766,11.6505163 C26.0170213,11.6505163 26.532766,12.1907488 26.532766,12.857214 C26.532766,13.5236791 26.0170213,14.0628419 25.380766,14.0628419 C24.7445106,14.0628419 24.228766,13.5236791 24.228766,12.857214 C24.228766,12.1907488 24.7445106,11.6505163 25.380766,11.6505163" id="Fill-20" fill="#FFFFFF"></path>
                    <path d="M28.8011234,15.3063395 C29.4373787,15.3063395 29.9531234,15.8465721 29.9531234,16.5130372 C29.9531234,17.1795023 29.4373787,17.7186651 28.8011234,17.7186651 C28.1648681,17.7186651 27.6491234,17.1795023 27.6491234,16.5130372 C27.6491234,15.8465721 28.1648681,15.3063395 28.8011234,15.3063395" id="Fill-22" fill="#FFFFFF"></path>
                    <path d="M28.8011234,18.8890977 C29.4373787,18.8890977 29.9531234,19.4293302 29.9531234,20.0957953 C29.9531234,20.7622605 29.4373787,21.3014233 28.8011234,21.3014233 C28.1648681,21.3014233 27.6491234,20.7622605 27.6491234,20.0957953 C27.6491234,19.4293302 28.1648681,18.8890977 28.8011234,18.8890977" id="Fill-24" fill="#FFFFFF"></path>
                    <path d="M25.380766,22.4718558 C26.0170213,22.4718558 26.532766,23.0120884 26.532766,23.6785535 C26.532766,24.3450186 26.0170213,24.8841814 25.380766,24.8841814 C24.7445106,24.8841814 24.228766,24.3450186 24.228766,23.6785535 C24.228766,23.0120884 24.7445106,22.4718558 25.380766,22.4718558" id="Fill-26" fill="#FFFFFF"></path>
                    <path d="M28.8011234,22.4718558 C29.4373787,22.4718558 29.9531234,23.0120884 29.9531234,23.6785535 C29.9531234,24.3450186 29.4373787,24.8841814 28.8011234,24.8841814 C28.1648681,24.8841814 27.6491234,24.3450186 27.6491234,23.6785535 C27.6491234,23.0120884 28.1648681,22.4718558 28.8011234,22.4718558" id="Fill-28" fill="#FFFFFF"></path>
                    <path d="M21.9604085,26.1274651 C22.5966638,26.1274651 23.1124085,26.6676977 23.1124085,27.3341628 C23.1124085,28.0006279 22.5966638,28.5408605 21.9604085,28.5408605 C21.3241532,28.5408605 20.8084085,28.0006279 20.8084085,27.3341628 C20.8084085,26.6676977 21.3241532,26.1274651 21.9604085,26.1274651" id="Fill-30" fill="#FFFFFF"></path>
                    <path d="M25.380766,26.1274651 C26.0170213,26.1274651 26.532766,26.6676977 26.532766,27.3341628 C26.532766,28.0006279 26.0170213,28.5408605 25.380766,28.5408605 C24.7445106,28.5408605 24.228766,28.0006279 24.228766,27.3341628 C24.228766,26.6676977 24.7445106,26.1274651 25.380766,26.1274651" id="Fill-32" fill="#FFFFFF"></path>
                    <path d="M28.8011234,26.1274651 C29.4373787,26.1274651 29.9531234,26.6676977 29.9531234,27.3341628 C29.9531234,28.0006279 29.4373787,28.5408605 28.8011234,28.5408605 C28.1648681,28.5408605 27.6491234,28.0006279 27.6491234,27.3341628 C27.6491234,26.6676977 28.1648681,26.1274651 28.8011234,26.1274651" id="Fill-34" fill="#FFFFFF"></path>
                    <path d="M18.4701957,29.7149302 C19.1064511,29.7149302 19.6221957,30.2551628 19.6221957,30.9216279 C19.6221957,31.588093 19.1064511,32.1272558 18.4701957,32.1272558 C17.8339404,32.1272558 17.3181957,31.588093 17.3181957,30.9216279 C17.3181957,30.2551628 17.8339404,29.7149302 18.4701957,29.7149302" id="Fill-36" fill="#FFFFFF"></path>
                    <path d="M21.9604085,29.7149302 C22.5966638,29.7149302 23.1124085,30.2551628 23.1124085,30.9216279 C23.1124085,31.588093 22.5966638,32.1272558 21.9604085,32.1272558 C21.3241532,32.1272558 20.8084085,31.588093 20.8084085,30.9216279 C20.8084085,30.2551628 21.3241532,29.7149302 21.9604085,29.7149302" id="Fill-38" fill="#FFFFFF"></path>
                    <path d="M25.380766,29.7149302 C26.0170213,29.7149302 26.532766,30.2551628 26.532766,30.9216279 C26.532766,31.588093 26.0170213,32.1272558 25.380766,32.1272558 C24.7445106,32.1272558 24.228766,31.588093 24.228766,30.9216279 C24.228766,30.2551628 24.7445106,29.7149302 25.380766,29.7149302" id="Fill-40" fill="#FFFFFF"></path>
                    <path d="M28.8011234,29.7149302 C29.4373787,29.7149302 29.9531234,30.2551628 29.9531234,30.9216279 C29.9531234,31.588093 29.4373787,32.1272558 28.8011234,32.1272558 C28.1648681,32.1272558 27.6491234,31.588093 27.6491234,30.9216279 C27.6491234,30.2551628 28.1648681,29.7149302 28.8011234,29.7149302" id="Fill-42" fill="#FFFFFF"></path>
                    <path d="M32.3653787,18.8890977 C33.001634,18.8890977 33.5173787,19.4293302 33.5173787,20.0957953 C33.5173787,20.7622605 33.001634,21.3014233 32.3653787,21.3014233 C31.7291234,21.3014233 31.2133787,20.7622605 31.2133787,20.0957953 C31.2133787,19.4293302 31.7291234,18.8890977 32.3653787,18.8890977" id="Fill-44" fill="#FFFFFF"></path>
                    <path d="M32.3653787,22.4718558 C33.001634,22.4718558 33.5173787,23.0120884 33.5173787,23.6785535 C33.5173787,24.3450186 33.001634,24.8841814 32.3653787,24.8841814 C31.7291234,24.8841814 31.2133787,24.3450186 31.2133787,23.6785535 C31.2133787,23.0120884 31.7291234,22.4718558 32.3653787,22.4718558" id="Fill-46" fill="#FFFFFF"></path>
                    <path d="M32.3653787,26.1274651 C33.001634,26.1274651 33.5173787,26.6676977 33.5173787,27.3341628 C33.5173787,28.0006279 33.001634,28.5408605 32.3653787,28.5408605 C31.7291234,28.5408605 31.2133787,28.0006279 31.2133787,27.3341628 C31.2133787,26.6676977 31.7291234,26.1274651 32.3653787,26.1274651" id="Fill-48" fill="#FFFFFF"></path>
                    <path d="M15.0498383,33.4484186 C15.6860936,33.4484186 16.2018383,33.9886512 16.2018383,34.6551163 C16.2018383,35.3215814 15.6860936,35.861814 15.0498383,35.861814 C14.413583,35.861814 13.8978383,35.3215814 13.8978383,34.6551163 C13.8978383,33.9886512 14.413583,33.4484186 15.0498383,33.4484186" id="Fill-50" fill="#FFFFFF"></path>
                    <path d="M18.4701957,33.4484186 C19.1064511,33.4484186 19.6221957,33.9886512 19.6221957,34.6551163 C19.6221957,35.3215814 19.1064511,35.861814 18.4701957,35.861814 C17.8339404,35.861814 17.3181957,35.3215814 17.3181957,34.6551163 C17.3181957,33.9886512 17.8339404,33.4484186 18.4701957,33.4484186" id="Fill-52" fill="#FFFFFF"></path>
                    <path d="M21.9604085,33.4484186 C22.5966638,33.4484186 23.1124085,33.9886512 23.1124085,34.6551163 C23.1124085,35.3215814 22.5966638,35.861814 21.9604085,35.861814 C21.3241532,35.861814 20.8084085,35.3215814 20.8084085,34.6551163 C20.8084085,33.9886512 21.3241532,33.4484186 21.9604085,33.4484186" id="Fill-54" fill="#FFFFFF"></path>
                    <path d="M25.380766,33.4484186 C26.0170213,33.4484186 26.532766,33.9886512 26.532766,34.6551163 C26.532766,35.3215814 26.0170213,35.861814 25.380766,35.861814 C24.7445106,35.861814 24.228766,35.3215814 24.228766,34.6551163 C24.228766,33.9886512 24.7445106,33.4484186 25.380766,33.4484186" id="Fill-56" fill="#FFFFFF"></path>
                    <path d="M35.7900255,22.4718558 C36.4262809,22.4718558 36.9420255,23.0120884 36.9420255,23.6785535 C36.9420255,24.3450186 36.4262809,24.8841814 35.7900255,24.8841814 C35.1537702,24.8841814 34.6380255,24.3450186 34.6380255,23.6785535 C34.6380255,23.0120884 35.1537702,22.4718558 35.7900255,22.4718558" id="Fill-58" fill="#FFFFFF"></path>
                </g>
            </g>
        </g>
    </g>
</svg>