<svg width="39" height="43" viewBox="0 0 39 43" xmlns="http://www.w3.org/2000/svg" xmlns:xlink="http://www.w3.org/1999/xlink"><title>Page 1</title><defs><path id="a" d="M15.058.695H.758v8.112h14.3V.695z"/><path id="c" d="M0 43.305h39.234V1.074H0z"/></defs><g transform="translate(0 -1)" fill="none" fill-rule="evenodd"><path d="M29.146 3.874h-5.78l.208.935c.017.079.027.15.027.217v4.097a1.03 1.03 0 0 1-1.032 1.024H8.383a1.03 1.03 0 0 1-1.032-1.024V5.026a1 1 0 0 1 .026-.217l.21-.935H1.805A1.8 1.8 0 0 0 0 5.667v35.846a1.8 1.8 0 0 0 1.806 1.792h27.34a1.8 1.8 0 0 0 1.805-1.792V5.667a1.8 1.8 0 0 0-1.805-1.793z" fill="#1E1348"/><g transform="translate(7.568 .378)"><mask id="b" fill="#fff"><use xlink:href="#a"/></mask><path d="M.758 7.906V4.3c0-.498.405-.9.908-.9h3.373c0-1.495 1.277-2.705 2.853-2.705 1.576 0 2.854 1.21 2.854 2.704h3.404c.503 0 .908.403.908.9v3.607a.904.904 0 0 1-.908.901H1.665a.904.904 0 0 1-.907-.901" fill="#1E1348" mask="url(#b)"/></g><mask id="d" fill="#fff"><use xlink:href="#c"/></mask><path fill="#FFF" mask="url(#d)" d="M3.63 17.437h23.692v-2.553H3.63z"/><path fill="#1E1348" mask="url(#d)" d="M14.7 30.302h12.22v-1.597H14.7z"/><path fill="#B00D23" mask="url(#d)" d="M21.627 29.067l4.248 4.217 9.303-9.229 3.292 3.267-9.297 9.228-3.298 3.268-3.292-3.268-4.246-4.216z"/><path stroke="#FFF" mask="url(#d)" d="M21.627 29.067l4.248 4.217 9.303-9.229 3.292 3.267-9.297 9.228-3.298 3.268-3.292-3.268-4.246-4.216z"/><path fill="#FFF" mask="url(#d)" d="M3.63 24.054h23.692v-2.553H3.63z"/></g></svg>