<svg id="Layer_1" xmlns="http://www.w3.org/2000/svg" viewBox="0 0 36 48"><style>.st0{fill:#1e1348}.st1{fill:none;stroke:#1e1348;stroke-width:2}.st2{fill:#b00d23}</style><title>Page 1</title><g id="desktop"><g id="details-v3" transform="translate(-322 -2061)"><g id="Page-1" transform="translate(323 2061)"><path id="Fill-1" class="st0" d="M20.78 3.23V1.61c0-.89-.75-1.61-1.66-1.61h-4.99c-.91 0-1.66.73-1.66 1.61v1.61H9.14c-.5 0-.83.32-.83.81v5.64c0 .48.33.81.83.81H24.1c.5 0 .83-.32.83-.81V4.03c0-.48-.33-.81-.83-.81h-3.32z"/><path id="Stroke-3" class="st1" d="M24.94 5.64v4.03c0 .48-.33.81-.83.81H9.14c-.5 0-.83-.4-.83-.81V5.64H3.33C1.5 5.64 0 7.1 0 8.87v34.68c0 1.77 1.5 3.23 3.33 3.23h26.6c1.83 0 3.33-1.45 3.33-3.23V8.87c0-1.77-1.5-3.23-3.33-3.23h-4.99z"/><path id="Fill-5" class="st2" d="M10.6 24.34l4.03 3.91 8.83-8.55 3.12 3.03-8.82 8.55-3.13 3.03-3.12-3.03-4.03-3.91z"/></g></g></g></svg>