<svg id="Capa_1" xmlns="http://www.w3.org/2000/svg" viewBox="0 0 35.56 38.92"><style>.st0{fill:#1e1348}.st1,.st2,.st3{fill:#b00d23;stroke:#dfd5c5;stroke-miterlimit:10}.st2,.st3{fill:none;stroke:#007ea3}.st3{stroke:#00549f;stroke-width:2}.st4{fill:#b00d23}.st5{fill:#fff}.st6,.st7,.st8{fill:#b00d23;stroke:#fff;stroke-miterlimit:10}.st7,.st8{fill:#1e1348;stroke:#1e1348}.st8{stroke:#fff;stroke-width:1.5}.st9{fill:#dfd5c5}.st10{fill:#fff;stroke:#1e1348;stroke-miterlimit:10}</style><path class="st5" d="M26.48 2.95h-5.12l.18.83c.02.07.02.13.02.19v3.66c0 .5-.41.91-.91.91H8.08c-.5 0-.91-.41-.91-.91V3.98c0-.06.01-.12.02-.19l.18-.83H2.25c-.88 0-1.6.72-1.6 1.6v31.99c0 .88.72 1.6 1.6 1.6h24.23c.88 0 1.6-.72 1.6-1.6v-32c0-.88-.72-1.6-1.6-1.6z"/><path class="st5" d="M8.03 6.89V3.67c0-.44.36-.8.8-.8h2.99c0-1.33 1.13-2.41 2.53-2.41s2.53 1.08 2.53 2.41h3.02c.45 0 .8.36.8.8v3.22c0 .44-.36.8-.8.8H8.83c-.44 0-.8-.36-.8-.8z"/><path class="st0" d="M4.37 12.78h20.99v2.28H4.37z"/><path class="st5" d="M14.18 25.11h10.83v1.43H14.18z"/><path class="st10" d="M19.82 25.44l3.76 3.76 8.24-8.24 2.92 2.92-8.24 8.24-2.92 2.91-2.92-2.91-3.76-3.77z"/><path class="st0" d="M4.37 18.69h20.99v2.28H4.37z"/></svg>