<svg width="47" height="41" viewBox="0 0 47 41" xmlns="http://www.w3.org/2000/svg"><title>Page 1</title><g fill="none" fill-rule="evenodd"><path d="M42.327 32.342l-7.221-3.61a2.756 2.756 0 0 1-1.522-2.464v-2.833c.202-.231.435-.528.683-.88a16.603 16.603 0 0 0 2.244-4.522 2.266 2.266 0 0 0 1.608-2.158V12.85c0-.665-.295-1.26-.756-1.676v-4.37S38.26 0 29.048 0c-9.214 0-8.316 6.804-8.316 6.804v4.37a2.256 2.256 0 0 0-.755 1.677v3.024c0 .797.418 1.498 1.045 1.903.755 3.29 2.734 5.657 2.734 5.657v2.763c0 1.007-.55 1.935-1.435 2.417l-6.744 3.679a6.063 6.063 0 0 0-3.16 5.323v2.449h33.262v-2.301a6.064 6.064 0 0 0-3.352-5.423" fill="#1E1348"/><path d="M13.743 32.16l4.495-2.452c-.026-.025-.004-.032.05-.027l2.2-1.199a2.756 2.756 0 0 0 1.434-2.419V23.3s-.802-.964-1.58-2.512h-.002a16.698 16.698 0 0 1-.3-.64 13.55 13.55 0 0 1-.333-.805c-.007-.016-.012-.033-.018-.049-.082-.22-.158-.446-.232-.678l-.058-.189a13.039 13.039 0 0 1-.21-.785 2.261 2.261 0 0 1-1.046-1.9v-3.025c0-.665.295-1.26.756-1.676v-4.27c-1.069-.828-2.724-1.614-5.292-1.614-7.229 0-7.56 6.048-7.56 6.048v3.776c-.397.36-.756.872-.756 1.447v2.612c0 .688.363 1.293.903 1.643.652 2.841 2.843 4.885 2.843 4.885v2.387c0 .87-.475 1.671-1.24 2.088L2.73 33.22A5.237 5.237 0 0 0 0 37.817v2.114h10.583v-2.448a6.063 6.063 0 0 1 3.16-5.323" fill="#1E1348"/><path d="M37.647 28.822c.648-1.46 2.081-2.81 3.804-2.81 2.32 0 3.991 1.887 4.201 4.137 0 0 .114.56-.135 1.564-.34 1.37-1.139 2.586-2.216 3.514l-5.654 4.838-5.653-4.838c-1.078-.928-1.876-2.145-2.216-3.514-.25-1.005-.136-1.564-.136-1.564.21-2.25 1.881-4.138 4.201-4.138 1.723 0 3.156 1.35 3.804 2.811" fill="#B00D23"/><path d="M37.647 28.822c.648-1.46 2.081-2.81 3.804-2.81 2.32 0 3.991 1.887 4.201 4.137 0 0 .114.56-.135 1.564-.34 1.37-1.139 2.586-2.216 3.514l-5.654 4.838-5.653-4.838c-1.078-.928-1.876-2.145-2.216-3.514-.25-1.005-.136-1.564-.136-1.564.21-2.25 1.881-4.138 4.201-4.138 1.723 0 3.156 1.35 3.804 2.811z" stroke="#DFD5C5"/></g></svg>