<svg id="Capa_1" xmlns="http://www.w3.org/2000/svg" viewBox="0 0 37 37.12"><style>.st0{fill:#1e1348}.st1,.st2,.st3{fill:#b00d23;stroke:#dfd5c5;stroke-miterlimit:10}.st2,.st3{fill:none;stroke:#007ea3}.st3{stroke:#00549f;stroke-width:2}.st4{fill:#b00d23}.st5{fill:#fff}.st6,.st7,.st8{fill:#b00d23;stroke:#fff;stroke-miterlimit:10}.st7,.st8{fill:#1e1348;stroke:#1e1348}.st8{stroke:#fff;stroke-width:1.5}.st9{fill:#dfd5c5}.st10{fill:none}.st11{fill:#c0212e}.st12{fill:none;stroke:#1e1348;stroke-width:2;stroke-miterlimit:10}</style><path class="st10" d="M-926.5-884.25h1609v2040h-1609z"/><path class="st10" d="M-1192.5-294.25h1609v2040h-1609z"/><path class="st0" d="M30.58 6.75l-6.06 6.06c1.56 1.56 2.53 3.72 2.53 6.11s-.97 4.54-2.53 6.11l6.06 6.06c3.11-3.11 5.04-7.41 5.04-12.16s-1.93-9.06-5.04-12.18z"/><path class="st4" d="M18.42 10.28c2.39 0 4.54.97 6.11 2.53l6.06-6.06c-3.11-3.11-7.41-5.04-12.16-5.04S9.37 3.64 6.25 6.75l6.06 6.06a8.615 8.615 0 0 1 6.11-2.53zm0 17.27c-2.39 0-4.54-.97-6.11-2.53l-6.06 6.06c3.11 3.11 7.41 5.04 12.16 5.04s9.05-1.93 12.16-5.04l-6.06-6.06a8.527 8.527 0 0 1-6.09 2.53z"/><path class="st0" d="M9.78 18.92c0-2.39.97-4.54 2.53-6.11L6.25 6.75c-3.11 3.11-5.04 7.41-5.04 12.16s1.93 9.05 5.04 12.16l6.06-6.06a8.568 8.568 0 0 1-2.53-6.09z"/><path class="st5" d="M36.33 18.92c0-4.79-1.86-9.28-5.25-12.67C27.7 2.86 23.2 1 18.42 1S9.13 2.86 5.75 6.25C2.36 9.63.5 14.13.5 18.92s1.86 9.28 5.25 12.67c3.38 3.38 7.88 5.25 12.67 5.25s9.29-1.86 12.67-5.25c3.38-3.39 5.24-7.89 5.24-12.67zm-5.76 11.14L25.51 25c1.46-1.69 2.25-3.83 2.25-6.09s-.8-4.39-2.25-6.09l5.06-5.06c2.8 3.05 4.34 6.98 4.34 11.14s-1.54 8.11-4.34 11.16zm-6.55-5.54c-1.5 1.5-3.49 2.32-5.6 2.32s-4.11-.82-5.6-2.32a7.867 7.867 0 0 1-2.32-5.6c0-2.12.82-4.11 2.32-5.6 1.5-1.5 3.49-2.32 5.6-2.32s4.11.82 5.6 2.32c1.5 1.5 2.32 3.49 2.32 5.6 0 2.11-.82 4.1-2.32 5.6zm5.54-17.76l-5.06 5.06c-1.69-1.46-3.83-2.25-6.09-2.25s-4.39.8-6.09 2.25L7.27 6.76c3.05-2.8 6.98-4.34 11.14-4.34s8.1 1.54 11.15 4.34zM6.26 7.77l5.06 5.06c-1.46 1.69-2.25 3.83-2.25 6.09s.8 4.39 2.25 6.09l-5.06 5.06c-2.8-3.05-4.34-6.98-4.34-11.14s1.54-8.11 4.34-11.16zm1.01 23.3l5.06-5.06c1.69 1.46 3.83 2.25 6.09 2.25s4.39-.8 6.09-2.25l5.06 5.06c-3.05 2.8-6.98 4.34-11.14 4.34s-8.11-1.54-11.16-4.34z"/><path class="st5" d="M7.01 11.06c.22-.32.14-.77-.18-.99a.718.718 0 0 0-.99.18c-.34.5-.66 1.02-.94 1.55a.71.71 0 1 0 1.26.66c.25-.48.54-.95.85-1.4zm-2.25 2.75a.718.718 0 0 0-.9.46c-.48 1.5-.72 3.06-.72 4.64 0 1.27.16 2.53.46 3.74a.715.715 0 0 0 .86.52c.38-.1.61-.48.52-.87a13.918 13.918 0 0 1 .23-7.6.698.698 0 0 0-.45-.89z"/></svg>