<svg id="Layer_1" xmlns="http://www.w3.org/2000/svg" xmlns:xlink="http://www.w3.org/1999/xlink" width="325" height="69.17" viewBox="0 0 325 69.17"><style>.st0,.st1{clip-path:url(#SVGID_2_);fill:#dce0df}.st1{clip-path:url(#SVGID_4_)}.st2{clip-path:url(#SVGID_6_)}.st2,.st3,.st4{fill:#dce0df}.st3{clip-path:url(#SVGID_8_)}.st4{clip-path:url(#SVGID_10_)}.st5{clip-path:url(#SVGID_12_)}.st5,.st6,.st7{fill:#dce0df}.st6{clip-path:url(#SVGID_14_)}.st7{clip-path:url(#SVGID_16_)}.st10,.st8,.st9{fill:#dce0df}.st8{clip-path:url(#SVGID_18_)}.st9{clip-path:url(#SVGID_20_)}.st10{clip-path:url(#SVGID_22_)}.st11{clip-path:url(#SVGID_24_)}.st11,.st12,.st13{fill:#dce0df}.st12{clip-path:url(#SVGID_26_)}.st13{clip-path:url(#SVGID_28_)}.st14{clip-path:url(#SVGID_30_)}.st14,.st15,.st16{fill:#dce0df}.st15{clip-path:url(#SVGID_32_)}.st16{clip-path:url(#SVGID_34_)}.st17{clip-path:url(#SVGID_36_)}.st17,.st18,.st19{fill:#dce0df}.st18{clip-path:url(#SVGID_38_)}.st19{clip-path:url(#SVGID_40_)}.st20{clip-path:url(#SVGID_42_)}.st20,.st21,.st22{fill:#dce0df}.st21{clip-path:url(#SVGID_44_)}.st22{clip-path:url(#SVGID_46_)}.st23{clip-path:url(#SVGID_48_)}.st23,.st24,.st25{fill:#dce0df}.st24{clip-path:url(#SVGID_50_)}.st25{clip-path:url(#SVGID_52_)}.st26{clip-path:url(#SVGID_54_);enable-background:new}.st27{clip-path:url(#SVGID_56_)}.st28{clip-path:url(#SVGID_58_)}.st29{clip-path:url(#SVGID_60_);fill:#dce0df}.st30{clip-path:url(#SVGID_62_)}.st30,.st31,.st32{fill:#dce0df}.st31{clip-path:url(#SVGID_64_)}.st32{clip-path:url(#SVGID_66_)}.st33{clip-path:url(#SVGID_68_)}.st33,.st34,.st35{fill:#dce0df}.st34{clip-path:url(#SVGID_70_)}.st35{clip-path:url(#SVGID_72_)}.st36{clip-path:url(#SVGID_74_)}.st36,.st37,.st38{fill:#dce0df}.st37{clip-path:url(#SVGID_76_)}.st38{clip-path:url(#SVGID_78_)}.st39{clip-path:url(#SVGID_80_)}.st39,.st40,.st41{fill:#dce0df}.st40{clip-path:url(#SVGID_82_)}.st41{clip-path:url(#SVGID_84_)}.st42{clip-path:url(#SVGID_86_)}.st42,.st43,.st44{fill:#dce0df}.st43{clip-path:url(#SVGID_88_)}.st44{clip-path:url(#SVGID_90_)}.st45{clip-path:url(#SVGID_92_)}.st45,.st46,.st47{fill:#dce0df}.st46{clip-path:url(#SVGID_94_)}.st47{clip-path:url(#SVGID_96_)}.st48{clip-path:url(#SVGID_98_)}.st48,.st49,.st50{fill:#dce0df}.st49{clip-path:url(#SVGID_100_)}.st50{clip-path:url(#SVGID_102_)}.st51{clip-path:url(#SVGID_104_)}.st51,.st52,.st53{fill:#dce0df}.st52{clip-path:url(#SVGID_106_)}.st53{clip-path:url(#SVGID_108_)}.st54{clip-path:url(#SVGID_110_)}.st54,.st55,.st56{fill:#dce0df}.st55{clip-path:url(#SVGID_112_)}.st56{clip-path:url(#SVGID_114_)}.st57{clip-path:url(#SVGID_116_)}.st57,.st58,.st59{fill:#dce0df}.st58{clip-path:url(#SVGID_118_)}.st59{clip-path:url(#SVGID_120_)}.st60{clip-path:url(#SVGID_122_)}.st60,.st61,.st62{fill:#dce0df}.st61{clip-path:url(#SVGID_124_)}.st62{clip-path:url(#SVGID_126_)}.st63{clip-path:url(#SVGID_128_)}.st63,.st64,.st65{fill:#dce0df}.st64{clip-path:url(#SVGID_130_)}.st65{clip-path:url(#SVGID_132_)}.st66{clip-path:url(#SVGID_134_)}.st66,.st67,.st68{fill:#dce0df}.st67{clip-path:url(#SVGID_136_)}.st68{clip-path:url(#SVGID_138_)}.st69{clip-path:url(#SVGID_140_)}.st69,.st70,.st71{fill:#dce0df}.st70{clip-path:url(#SVGID_142_)}.st71{clip-path:url(#SVGID_144_)}.st72{fill:#fff}.st73{fill:#e41f13}.st74{fill:#12044b}.st75{fill:#b00f2b}.st76{fill:#b00d23}</style><defs><path id="SVGID_1_" d="M.75 1.09h1.29v21.25H.75z"/></defs><clipPath id="SVGID_2_"><use xlink:href="#SVGID_1_" overflow="visible"/></clipPath><path class="st0" d="M-4.04-3.71H6.84v30.84H-4.04z"/><defs><path id="SVGID_3_" d="M18.46 4.53c-.17.23-.31.37-.29.54.02.18.28.3.41.49.11-.21.3-.37.28-.53-.03-.16-.35-.38-.4-.5"/></defs><clipPath id="SVGID_4_"><use xlink:href="#SVGID_3_" overflow="visible"/></clipPath><path class="st1" d="M13.38-.26h10.27v10.61H13.38z"/><defs><path id="SVGID_5_" d="M21.59 4.53c.17.23.31.37.29.54-.02.18-.28.3-.41.49-.11-.21-.3-.37-.28-.53.03-.16.34-.38.4-.5"/></defs><clipPath id="SVGID_6_"><use xlink:href="#SVGID_5_" overflow="visible"/></clipPath><path class="st2" d="M16.4-.26h10.27v10.61H16.4z"/><defs><path id="SVGID_7_" d="M16.69 4.58c.16 0 .3-.14.3-.3a.3.3 0 0 0-.3-.3.3.3 0 0 0-.3.3c0 .17.13.3.3.3"/></defs><clipPath id="SVGID_8_"><use xlink:href="#SVGID_7_" overflow="visible"/></clipPath><path class="st3" d="M11.6-.81h10.19V9.38H11.6z"/><defs><path id="SVGID_9_" d="M16.92 4.79c0-.16-.14-.3-.3-.3a.3.3 0 0 0-.3.3c0 .17.13.3.3.3a.3.3 0 0 0 .3-.3"/></defs><clipPath id="SVGID_10_"><use xlink:href="#SVGID_9_" overflow="visible"/></clipPath><path class="st4" d="M11.53-.3h10.19V9.89H11.53z"/><defs><path id="SVGID_11_" d="M17.02 5.3c0-.16-.14-.3-.3-.3a.3.3 0 0 0-.3.3c0 .16.13.3.3.3a.3.3 0 0 0 .3-.3"/></defs><clipPath id="SVGID_12_"><use xlink:href="#SVGID_11_" overflow="visible"/></clipPath><path class="st5" d="M11.63.2h10.19v10.18H11.63z"/><defs><path id="SVGID_13_" d="M17.85 3.58a.3.3 0 0 0 .3-.3.3.3 0 0 0-.3-.3.3.3 0 0 0-.3.3c0 .17.13.3.3.3"/></defs><clipPath id="SVGID_14_"><use xlink:href="#SVGID_13_" overflow="visible"/></clipPath><path class="st6" d="M12.75-1.81h10.19V8.37H12.75z"/><defs><path id="SVGID_15_" d="M17.33 3.75c.16 0 .3-.14.3-.3 0-.16-.14-.3-.3-.3a.3.3 0 0 0-.3.3c0 .16.13.3.3.3"/></defs><clipPath id="SVGID_16_"><use xlink:href="#SVGID_15_" overflow="visible"/></clipPath><path class="st7" d="M12.23-1.65h10.19V8.54H12.23z"/><defs><path id="SVGID_17_" d="M16.92 4.1c.17 0 .3-.13.3-.3a.3.3 0 0 0-.3-.3.3.3 0 0 0-.3.3c0 .17.14.3.3.3"/></defs><clipPath id="SVGID_18_"><use xlink:href="#SVGID_17_" overflow="visible"/></clipPath><path class="st8" d="M11.82-1.29h10.19V8.89H11.82z"/><defs><path id="SVGID_19_" d="M18.39 3.63c.16 0 .3-.14.3-.3 0-.16-.14-.3-.3-.3a.3.3 0 0 0-.3.3c0 .17.14.3.3.3"/></defs><clipPath id="SVGID_20_"><use xlink:href="#SVGID_19_" overflow="visible"/></clipPath><path class="st9" d="M13.3-1.76h10.19V8.43H13.3z"/><defs><path id="SVGID_21_" d="M18.91 3.79c.16 0 .3-.14.3-.3 0-.16-.14-.3-.3-.3a.3.3 0 0 0-.3.3c0 .16.13.3.3.3"/></defs><clipPath id="SVGID_22_"><use xlink:href="#SVGID_21_" overflow="visible"/></clipPath><path class="st10" d="M13.82-1.61h10.19V8.58H13.82z"/><defs><path id="SVGID_23_" d="M19.4 4.01a.3.3 0 0 0 .3-.3c0-.16-.14-.3-.3-.3-.16 0-.3.14-.3.3 0 .17.14.3.3.3"/></defs><clipPath id="SVGID_24_"><use xlink:href="#SVGID_23_" overflow="visible"/></clipPath><path class="st11" d="M14.3-1.38h10.19V8.81H14.3z"/><defs><path id="SVGID_25_" d="M23.04 4.28c0 .16.14.3.3.3a.3.3 0 0 0 .3-.3c0-.17-.13-.3-.3-.3-.17 0-.3.13-.3.3"/></defs><clipPath id="SVGID_26_"><use xlink:href="#SVGID_25_" overflow="visible"/></clipPath><path class="st12" d="M18.25-.81h10.19V9.38H18.25z"/><defs><path id="SVGID_27_" d="M23.41 4.49a.3.3 0 0 0-.3.3c0 .17.14.3.3.3a.3.3 0 0 0 .3-.3.3.3 0 0 0-.3-.3"/></defs><clipPath id="SVGID_28_"><use xlink:href="#SVGID_27_" overflow="visible"/></clipPath><path class="st13" d="M18.31-.3H28.5V9.89H18.31z"/><defs><path id="SVGID_29_" d="M23.31 5c-.16 0-.3.14-.3.3 0 .17.14.3.3.3.17 0 .3-.13.3-.3a.3.3 0 0 0-.3-.3"/></defs><clipPath id="SVGID_30_"><use xlink:href="#SVGID_29_" overflow="visible"/></clipPath><path class="st14" d="M18.21.2H28.4v10.18H18.21z"/><defs><path id="SVGID_31_" d="M22.18 3.58a.3.3 0 0 0 .3-.3.3.3 0 0 0-.3-.3.3.3 0 0 0-.3.3c0 .17.14.3.3.3"/></defs><clipPath id="SVGID_32_"><use xlink:href="#SVGID_31_" overflow="visible"/></clipPath><path class="st15" d="M17.09-1.81h10.19V8.37H17.09z"/><defs><path id="SVGID_33_" d="M22.7 3.75a.3.3 0 0 0 .3-.3c0-.16-.14-.3-.3-.3s-.3.14-.3.3c0 .16.14.3.3.3"/></defs><clipPath id="SVGID_34_"><use xlink:href="#SVGID_33_" overflow="visible"/></clipPath><path class="st16" d="M17.61-1.65H27.8V8.54H17.61z"/><defs><path id="SVGID_35_" d="M23.11 4.1a.3.3 0 0 0 .3-.3.3.3 0 0 0-.3-.3c-.17 0-.3.13-.3.3 0 .17.14.3.3.3"/></defs><clipPath id="SVGID_36_"><use xlink:href="#SVGID_35_" overflow="visible"/></clipPath><path class="st17" d="M18.02-1.29h10.19V8.89H18.02z"/><defs><path id="SVGID_37_" d="M21.64 3.63a.3.3 0 0 0 .3-.3.3.3 0 0 0-.3-.3.3.3 0 0 0-.3.3c-.01.17.13.3.3.3"/></defs><clipPath id="SVGID_38_"><use xlink:href="#SVGID_37_" overflow="visible"/></clipPath><path class="st18" d="M16.54-1.76h10.19V8.43H16.54z"/><defs><path id="SVGID_39_" d="M21.12 3.79a.3.3 0 0 0 .3-.3.3.3 0 0 0-.3-.3c-.16 0-.3.14-.3.3 0 .16.13.3.3.3"/></defs><clipPath id="SVGID_40_"><use xlink:href="#SVGID_39_" overflow="visible"/></clipPath><path class="st19" d="M16.02-1.61h10.19V8.58H16.02z"/><defs><path id="SVGID_41_" d="M20.33 3.71c0 .17.13.3.3.3a.3.3 0 0 0 .3-.3.3.3 0 0 0-.3-.3.3.3 0 0 0-.3.3"/></defs><clipPath id="SVGID_42_"><use xlink:href="#SVGID_41_" overflow="visible"/></clipPath><path class="st20" d="M15.54-1.38h10.19V8.81H15.54z"/><defs><path id="SVGID_43_" d="M19.57 4.75h.34v-.9c-.12-.01-.24-.04-.34-.07v.97z"/></defs><clipPath id="SVGID_44_"><use xlink:href="#SVGID_43_" overflow="visible"/></clipPath><path class="st21" d="M14.77-1.01h9.92V9.55h-9.92z"/><defs><path id="SVGID_45_" d="M20.38 3.78c-.1.03-.22.06-.34.07v.9h.34v-.97z"/></defs><clipPath id="SVGID_46_"><use xlink:href="#SVGID_45_" overflow="visible"/></clipPath><path class="st22" d="M15.25-1.01h9.92V9.55h-9.92z"/><defs><path id="SVGID_47_" d="M19.96 2.95v-.69c-.35.08-.63.34-.69.69h.69z"/></defs><clipPath id="SVGID_48_"><use xlink:href="#SVGID_47_" overflow="visible"/></clipPath><path class="st23" d="M14.48-2.53h10.27V7.74H14.48z"/><defs><path id="SVGID_49_" d="M20.06 2.95h.69c-.06-.34-.34-.61-.69-.69v.69z"/></defs><clipPath id="SVGID_50_"><use xlink:href="#SVGID_49_" overflow="visible"/></clipPath><path class="st24" d="M15.27-2.53h10.27V7.74H15.27z"/><defs><path id="SVGID_51_" d="M19.28 3.05c.07.4.33.69.64.69s.58-.29.64-.69h-1.28z"/></defs><clipPath id="SVGID_52_"><use xlink:href="#SVGID_51_" overflow="visible"/></clipPath><path class="st25" d="M14.49-1.74h10.87V8.53H14.49z"/><defs><path id="SVGID_53_" d="M19.37 1.08h1.1v1.1h-1.1z"/></defs><clipPath id="SVGID_54_"><use xlink:href="#SVGID_53_" overflow="visible"/></clipPath><g class="st26"><defs><path id="SVGID_55_" d="M18.96.6h1.92v1.92h-1.92z"/></defs><clipPath id="SVGID_56_"><use xlink:href="#SVGID_55_" overflow="visible"/></clipPath><g class="st27"><defs><path id="SVGID_57_" d="M20.28 2.18a.727.727 0 0 1-.28-.47c.17.03.36.15.47.3V1.3c-.11.15-.3.27-.47.3.02-.17.13-.34.27-.52h-.69c.15.18.25.34.27.52a.852.852 0 0 1-.47-.3v.72c.11-.15.3-.27.47-.3-.02.18-.13.35-.29.47h.72z"/></defs><clipPath id="SVGID_58_"><use xlink:href="#SVGID_57_" overflow="visible"/></clipPath><g class="st28"><defs><path id="SVGID_59_" d="M18.96.6h1.92v1.92h-1.92z"/></defs><clipPath id="SVGID_60_"><use xlink:href="#SVGID_59_" overflow="visible"/></clipPath><path class="st29" d="M14.58-3.71h10.68V6.98H14.58z"/></g></g></g><defs><path id="SVGID_61_" d="M21.05 16.56c-.66-.17-1.44-.45-2.18-.78v-.01a.533.533 0 0 0-.15-.44.54.54 0 0 0-.41-.2c-.07 0-.13.02-.2.04-.11-.09-.21-.2-.3-.31-.28-.32-.49-.7-.64-1.12-.09-.24-.15-.49-.19-.75-.04.21-.28.49-.69.5.01-.04 0-.15-.03-.16-.11.12-.27.25-.64.12.06.29.14.58.24.85.22.6.54 1.13.94 1.59.14.15.28.29.42.42 0 .03-.01.06-.01.08 0 .15.15.4.36.5.18.08.36.06.54-.06.32.17.73.33 1.17.45.49.13.97.21 1.34.21.32 0 .74-.15 1.16-.41.16-.11.32-.23.44-.34.02-.01.03-.03.04-.04-.31.05-.81-.04-1.21-.14m-2.41-.99l-.07-.05c-.13-.1-.23-.1-.35 0-.05.05-.11.1-.15.16l-.07.08.05.04c.14.11.15.22.12.29-.01.03-.04.04-.07.06-.07.02-.16-.01-.26-.06l-.05-.03-.03.05c-.01.01-.02.02-.03.04-.01.02-.02.03-.03.05-.06.1-.08.18-.08.24 0 .02 0 .03.01.05.02.07.08.11.13.14l.03.02c.06.04.15.09.21.12-.12.07-.24.07-.36.02-.18-.09-.3-.3-.3-.4 0-.16.07-.36.2-.56l.02-.03-.02-.03a.757.757 0 0 1-.09-.18c.07.01.14.02.2.04l.03.01.02-.02c.08-.09.36-.37.61-.37.12 0 .24.06.32.16.07.08.11.17.12.25-.03-.03-.07-.06-.11-.09m.43 1.25c-.15 0-.28-.13-.28-.28 0-.15.13-.28.28-.28a.28.28 0 1 1 0 .56m1.23.39c-.14 0-.25-.12-.25-.26s.11-.26.25-.26.26.12.26.26-.12.26-.26.26"/></defs><clipPath id="SVGID_62_"><use xlink:href="#SVGID_61_" overflow="visible"/></clipPath><path class="st30" d="M10.82 8.19h16.25v14.1H10.82z"/><defs><path id="SVGID_63_" d="M20.64 18.51c-.05 0-.09.01-.13.02v-.79a5.05 5.05 0 0 1-1.15-.18v.97c-.04-.02-.09-.02-.14-.02-.28 0-.45.23-.45.45 0 .2.12.39.22.51.05-.13.1-.22.17-.22.14 0 .08.68.48.7a.312.312 0 0 0 .29.42.312.312 0 0 0 .29-.42c.4-.02.33-.7.47-.7.07 0 .11.09.17.22.1-.12.22-.31.22-.51a.433.433 0 0 0-.44-.45m-.71 1.72c-.1 0-.17-.08-.17-.18 0-.1.08-.17.17-.17.1 0 .18.08.18.17 0 .1-.08.18-.18.18m.94-1c-.05-.09-.12-.14-.18-.14-.27 0-.16.71-.49.71-.14 0-.21-.09-.21-.19s.07-.13.07-.21c0-.08-.06-.11-.13-.11s-.13.03-.13.11.07.11.07.21c0 .1-.08.19-.21.19-.32 0-.22-.71-.49-.71-.06 0-.13.05-.17.14-.05-.1-.08-.2-.08-.28 0-.13.1-.31.31-.31.36 0 .27.49.45.49.08 0 .13-.05.13-.12 0-.14-.25-.27-.25-.47 0-.2.18-.37.38-.53.2.16.38.33.38.53s-.25.33-.25.47c0 .07.05.12.13.12.17 0 .09-.49.45-.49.21 0 .31.18.31.31-.01.08-.04.18-.09.28"/></defs><clipPath id="SVGID_64_"><use xlink:href="#SVGID_63_" overflow="visible"/></clipPath><path class="st31" d="M13.98 12.77h11.91v12.39H13.98z"/><defs><path id="SVGID_65_" d="M29.89 19.46c-.02-.04-.06-.06-.1-.05-.92.27-2.07-.49-3.17-1.23-.93-.62-1.81-1.21-2.56-1.21-.28 0-.53.06-.74.17-.26.15-.46.38-.59.68-.13.31-.26.52-.37.69-.13.2-.22.35-.22.53 0 .15.07.28.19.41.11.11.26.21.48.33.05.03.1.05.14.07.18.09.3.15.32.26-.36.16-.84.29-1.37.39-.61.11-1.27.16-1.97.16s-1.36-.05-1.97-.16c-.54-.09-1.01-.23-1.38-.39.02-.15.13-.22.33-.31.05-.02.09-.04.14-.07.18-.1.36-.19.47-.3.13-.11.19-.23.19-.38 0-.19-.09-.33-.22-.53-.11-.17-.24-.38-.37-.69-.13-.31-.32-.53-.59-.68-.21-.11-.46-.17-.74-.17-.75 0-1.64.59-2.57 1.21-1.1.74-2.25 1.5-3.17 1.23-.04-.01-.09.01-.1.05a.1.1 0 0 0 .05.11c.28.12.53.32.77.5.33.26.65.5.99.5.33 0 .68-.1 1.11-.32.37-.19.76-.46 1.13-.71.73-.5 1.48-1.01 2.2-1.07-.08.07-.15.14-.22.2-.21.19-.39.35-.39.68 0 .26.09.45.21.71.04.07.08.16.12.26.08.18.11.32.16.51.02.08.04.18.07.29.04.17.13.49.65.76.61.31 1.65.47 3.11.47s2.5-.16 3.11-.47c.52-.27.61-.58.65-.76.03-.11.05-.2.07-.29.05-.19.08-.34.16-.51.06-.13.12-.24.17-.33.11-.2.2-.37.2-.6 0-.33-.19-.5-.41-.71-.07-.06-.15-.13-.22-.21.72.06 1.47.57 2.2 1.07.37.25.76.52 1.13.71.43.23.78.33 1.11.33.34 0 .66-.24.99-.51.24-.18.49-.38.77-.5.04-.03.06-.08.05-.12"/></defs><clipPath id="SVGID_66_"><use xlink:href="#SVGID_65_" overflow="visible"/></clipPath><path class="st32" d="M5.17 12.17h29.52v14.96H5.17z"/><defs><path id="SVGID_67_" d="M24.35 12.06c-.1-.07-.27-.23-.35-.41-.11-.23-.57-1.13-.64-1.25a.538.538 0 0 1-.09-.27c0-.09.05-.17.1-.24.04-.05.14-.14.17-.2.03-.05.06-.08.08-.11-.17-.29-.34-.51-.56-.75-.27-.3-.57-.56-.9-.78.18-.11.35-.28.35-.55 0-.16-.07-.29-.18-.39.18-.59.52-1.3.8-1.62l-.59-.25c.15.23.16.51.13.67-.15-.1-.29-.25-.33-.45-.03.18-.13.47-.22.65.18-.08.31-.11.48-.04a.7.7 0 0 1-.74.25c-.21-.05-.42-.17-.41-.33 0-.09.08-.21.21-.2.13.02.14.21.1.3.17-.1.34-.59.08-.66-.21-.06-.4.23-.47.45-.04-.27-.15-.52-.36-.5-.27.02-.18.52-.09.65.02-.18.11-.27.19-.27.07.01.17.06.15.22-.02.16-.25.26-.51.26-.25 0-.69-.08-.73-.56.16.03.42.15.53.32-.03-.29-.03-.5 0-.81-.13.19-.36.29-.52.32.05-.21.22-.43.43-.56h-1.08c.2.13.39.35.43.56a.822.822 0 0 1-.51-.32c.03.31.03.51 0 .81.11-.16.35-.29.52-.32-.04.48-.48.56-.73.56-.26 0-.49-.1-.51-.26-.02-.16.08-.21.15-.22.08-.01.18.09.19.27.1-.13.18-.63-.09-.65-.21-.01-.32.24-.36.5-.07-.22-.26-.51-.47-.45-.26.07-.09.57.08.66-.04-.09-.03-.28.1-.3.13-.01.2.11.21.2.01.16-.2.28-.41.33-.39.09-.64-.11-.74-.25.18-.08.32-.04.49.04-.09-.18-.19-.47-.22-.65-.04.2-.18.35-.34.45a.918.918 0 0 1 .13-.67l-.58.26c.28.31.61 1.03.8 1.62-.11.11-.18.23-.18.39 0 .28.18.44.35.55-.33.22-.62.47-.9.78-.4.45-.72.98-.94 1.58.08.08.44.47.52.58.15.19.24.37.24.52.01.27.07.38.21.55.04.06.11.27.12.4h2.94v3.21a.47.47 0 0 0-.34.16c.34.14.66.26.99.36.03-.21.07-.34.18-.47 0 0-.43-.04-.66-.05v-3.21h2.88c-.01.44-.09.87-.23 1.27-.15.42-.37.8-.64 1.12-.28.32-.6.58-.96.75-.06.03-.05.07-.11.1-.05.06-.1.15-.14.26-.04.1-.05.16-.07.29.14.04.21.06.34.09 1.01.25 1.26.18 1.32.13.23-.17.44-.38.64-.6.4-.46.72-.99.95-1.59.23-.61.35-1.27.35-1.94-.03-.12-.02-.16-.03-.29zm-4.47.23h-2.94c0-.46.08-.9.23-1.32.15-.42.37-.8.64-1.12.28-.33.6-.58.96-.76.35-.17.73-.26 1.11-.27v3.47zm.05-4.91c-.98 0-1.66.29-2.05.55-.23-.13-.32-.27-.32-.42 0-.56 1.58-.61 2.38-.61.8 0 2.38.05 2.38.61 0 .16-.1.29-.33.42-.4-.27-1.08-.55-2.06-.55zm.12 4.91V8.82c.36.02.71.11 1.04.27.36.18.68.43.96.76.27.32.49.7.64 1.12.15.42.23.86.24 1.32h-2.88z"/></defs><clipPath id="SVGID_68_"><use xlink:href="#SVGID_67_" overflow="visible"/></clipPath><path class="st33" d="M11.06.14h18.09v21.18H11.06z"/><defs><path id="SVGID_69_" d="M22.47 11.72c.05.03.03.11-.03.1-.06-.52-.25-1.03-.55-1.46 0 0 .01 0 .01-.01.05-.02.11-.07.12-.16-.09-.01-.15.03-.18.08-.02-.03-.04-.05-.06-.08-.18-.23-.4-.43-.62-.58-.22-.15-.45-.25-.69-.32 0-.06.08-.06.11-.01.01-.09-.07-.14-.12-.12-.02.01-.04.03-.05.07a.233.233 0 0 0-.13-.07c0 .06.02.1.04.14-.04 0-.06.02-.08.04-.02.04.01.13.1.13-.04-.03-.03-.1.03-.1v1.12a.18.18 0 0 0-.19.05c.06.06.13.07.19.05v1.22c-.06 0-.08-.07-.03-.1-.09 0-.13.08-.11.12.01.03.04.05.09.04-.03.03-.04.07-.05.13.05 0 .1-.02.13-.05-.01.05.02.08.04.09.04.02.13-.02.13-.11-.03.05-.11.03-.11-.02h.85c-.01.05-.01.12.05.19a.18.18 0 0 0 .05-.19h.95c0 .06-.07.08-.11.03 0 .09.09.13.13.1.03-.01.05-.04.04-.09.03.03.07.05.13.05 0-.05-.02-.1-.05-.13.05 0 .08-.02.09-.05.01-.02-.02-.1-.12-.1m-.81-1.49c-.02.02-.03.06-.03.08.01.03.03.05.09.06a.24.24 0 0 0-.07.12c.05.01.1-.01.14-.03-.01.05.01.08.03.1.02.01.05.01.08 0 .22.35.37.76.43 1.17a.169.169 0 0 0-.1-.03c0 .06.02.11.06.14h-.72c.01-.05-.02-.09-.05-.1-.03-.01-.06 0-.1.03 0-.04-.02-.08-.06-.12-.04.04-.05.08-.06.12-.03-.04-.07-.04-.1-.03-.03.01-.05.05-.05.1h-.61c.03-.03.04-.07.04-.13-.05 0-.09.02-.12.05v-1c.05.01.09-.01.1-.05.01-.03.01-.06-.04-.1.04 0 .09-.02.13-.06a.166.166 0 0 0-.13-.05c.04-.03.05-.07.04-.1-.01-.03-.05-.06-.1-.05v-.84c.03.02.06.04.11.04 0-.05-.01-.09-.03-.12.19.06.38.16.55.27.21.15.4.32.57.53"/></defs><clipPath id="SVGID_70_"><use xlink:href="#SVGID_69_" overflow="visible"/></clipPath><path class="st34" d="M15.38 4.37h12v12.54h-12z"/><defs><path id="SVGID_71_" d="M21.97 11.41c.04-.02.07-.04.08-.07-.04.01-.07-.01-.08-.01.03-.02.06 0 .03-.05s-.06-.05-.09-.02c-.04.04-.26-.01-.26-.18.02.03.05.05.08.06.01.01.02.01.03.01.01 0 .02 0 .03.01.02.01.04.01.06.01h.01v-.01c.05-.01.08-.04.09-.09.01-.09-.08-.14-.18-.22a.818.818 0 0 1-.09-.08c-.03-.07-.01-.13-.1-.25 0-.03-.01-.06-.03-.11-.05.08-.07.24.05.36.1.1.3.21.29.3 0 .02-.02.04-.05.05h-.03c-.01 0-.01 0-.02-.01-.01 0-.03-.01-.04-.02a.32.32 0 0 1-.07-.06c-.08-.08-.16-.19-.21-.26-.1-.12-.05-.24-.04-.34.07-.09-.04-.28-.1-.33 0 0 .01-.04 0-.1-.02.01-.04.01-.06 0-.02-.03-.03-.04-.05-.04-.04-.01-.04-.03-.05-.05-.02.02-.03.04-.05.04-.03 0-.05 0-.06.01-.03.02-.04.03-.07.02-.04 0-.04.02-.04.05 0 .02 0 .04.03.05l.01.01.03.03.02-.04c.02-.01.07-.02.08.02.01.02.01.03-.02.03-.03.01-.05.01-.08.01-.02 0-.02.03-.02.04 0 .02.02.03.07.02.05-.01.13-.02.13.02 0 .1-.12.1-.14.22-.03-.02-.06-.04-.07-.07-.02-.03-.04-.07-.09-.11a.351.351 0 0 0-.09-.07c-.04-.02-.04-.04-.04-.09 0-.03.02-.07.02-.1 0 0-.01-.02-.01-.03-.01-.02-.04-.04-.05-.03.01.01.02.02.02.04l-.02.02c-.01.01-.01.02 0 .03v.03c0 .01 0 .01 0 0-.01-.02-.02-.06-.05-.06h-.02v-.01c0-.03-.03-.05-.06-.01.01 0 .02 0 .03.01 0 .01-.01.02-.01.03 0 .02.02.04.04.04 0 0 .01 0 .01.01v.01c0 .01 0 .01 0 0-.05-.02-.07 0-.07.02v.02c-.02.01-.02.04.01.06 0-.01 0-.02.01-.03h.01l.01.01s.01 0 .02-.01h.01l.02.01v.01c-.03.03-.03.06.01.07-.02.03-.07.02-.07-.03-.04.06.03.11.08.08 0 .02 0 .07.01.07 0 0 0-.01.01-.01 0 0 .01 0 .01.01 0 .02.01.03.03.04 0-.01 0-.01.01-.02.01.01.02.03.03.04.03.05.08.17.2.22-.06.03-.1.09-.14.13-.03.03-.08.07-.12.05a.138.138 0 0 1-.03-.04c-.02-.01-.03-.01-.04-.01 0 0-.01 0-.02.01-.02-.01-.05 0-.07.02.01 0 .03-.01.05.01v.02c0 .02.01.03.07.03 0 0 .01 0 .01.01-.01 0-.02.01-.03.01-.03-.01-.04-.03-.06 0l-.02.02h-.01c-.02.01-.05.06-.02.08 0-.01 0-.03.02-.04l.02.02c.02.03.04.04.08-.02.01-.01.01 0 .01 0 0 .03-.03.07.01.08h.02v.01c.01.03.06.04.07.03-.01-.01-.03-.01-.04-.04h.02c.02-.02-.01-.05.01-.07h.01c.01.02.02.04.06.03.02-.01.02-.03.02-.04.04-.02.08-.03.11-.02-.01-.02.02-.05.07-.06.04-.01.07 0 .08.01 0-.02.02-.05.04-.08 0 .18.24.18.29.28a.396.396 0 0 0-.2-.04c-.06.01-.16.06-.18.13-.01.06.05.16.11.19-.07.01-.1-.01-.16.01h-.01c-.05 0-.06-.09-.13-.07l-.02.01c-.02 0-.06.03-.05.06.01-.01.02-.02.04-.02v.01c0 .01 0 .02.03.02.01 0 .02-.01.03-.01 0 0 .01 0 .01.01 0 .02-.08-.02-.07.06 0 0 .01.01.01.02 0 .02.01.04.05.03-.01 0-.02-.01-.02-.03h.02c.01 0 .01 0 .01-.01h.01s-.01.01-.01.02c0 0 0 .02.01.02 0 .02.03.05.07.02-.01 0-.03-.01-.03-.02.01 0 .02-.01.02-.01-.02.01-.02 0-.02-.01s0-.01.01-.01h.02c.01 0 .01 0 .01.01.01.01.03.03.05.02.01 0 .02-.01.02-.02.01 0 .02.01.03.02-.01-.03.01-.05.07-.01l.04-.03s.05.02.07 0c.04-.03.02-.03.02-.06-.03-.05-.04-.05-.05-.1-.02-.09.1-.14.18-.12.01.06.09.2.23.25.08.03.12-.06.14-.05 0 0 .01.01.01.02 0 .04 0 .08-.01.1-.01.02-.05 0-.08 0-.02 0-.03.01-.03.01-.02 0-.05.03-.05.06.01-.01.03-.02.05-.03v.01c0 .03.04.05.07.02 0-.01.01 0 .01 0-.02.01-.06.05-.02.06 0 0 .01 0 .02.01 0 .02.01.04.03.05-.01-.01-.01-.02 0-.04h.02c.02 0 .01-.04.04-.06 0 0 .01 0 0 0-.01.03-.01.06.01.06h.02c.01.02.03.04.06.02-.01 0-.03-.01-.03-.02l.02-.02c.02-.05-.03-.06-.03-.08 0-.03.05-.01.05-.06v-.01c.02-.01.05-.03.05-.05-.05.02-.08.01-.08 0z"/></defs><clipPath id="SVGID_72_"><use xlink:href="#SVGID_71_" overflow="visible"/></clipPath><path class="st35" d="M15.77 5.13h11.07v11.34H15.77z"/><defs><path id="SVGID_73_" d="M19.54 13.03h-.05v-.04c.01-.18-.1-.3-.28-.3-.16 0-.48.21-.93.21-.19 0-.42-.09-.56-.18l-.05.13v-.01c0-.06-.05-.11-.11-.11s-.11.05-.11.11.05.11.11.11c.04 0 .07-.02.09-.04l-.06.13c.02.01.04.02.06.02-.07.68.44 1.54 1.32 1.81.13-.03.26-.01.26.13 0 .09-.04.13-.12.13-.05 0-.09-.03-.09-.06 0-.06.1-.02.11-.07.01-.06-.02-.08-.08-.08s-.16.04-.16.14c0 .12.1.19.2.19s.3-.05.28-.3c.05 0 .1-.01.11-.05l.01-.14-.05-.01.04-1.56h.03c.06 0 .11-.02.11-.08.02-.04-.03-.07-.08-.08m-1.6.12l1.08 1.55c-.58-.22-1.15-.74-1.08-1.55m1.11 1.41l-.98-1.42h.09c.05 0 .1 0 .15-.01l.79 1.13c-.02.12-.04.22-.05.3m.07-.45l-.69-.99c.08-.02.15-.04.22-.07l.52.74c-.01.11-.03.21-.05.32m.17-1.09h-.04c-.05 0-.11.02-.11.08s.04.1.1.1h.03l-.01.04c-.01.09-.04.24-.06.4l-.44-.63c.21-.08.37-.17.46-.17.07 0 .08.03.07.18"/></defs><clipPath id="SVGID_74_"><use xlink:href="#SVGID_73_" overflow="visible"/></clipPath><path class="st36" d="M12.65 7.89h11.77v12.16H12.65z"/><defs><path id="SVGID_75_" d="M19.36 9.9c.21 0 .31-.07.31-.13 0-.23-.58-.09-.58-.23 0-.02.02-.04.04-.06h.01c.29-.03.3-.23.5-.27-.25-.03-.28.16-.39.17.06-.03.08-.09.07-.12-.05.07-.16.07-.23.15-.01.01-.01.03-.01.04-.04.02-.06.05-.06.08 0 .22.58.07.58.23 0 .06-.1.09-.26.09-.12 0-.21-.08-.43-.03 0-.04.08-.11.05-.14.02-.01.04-.03.04-.04a.076.076 0 0 0-.04-.02c.01-.01 0-.02-.01-.03l-.01-.03c-.01-.01-.03-.02-.05-.04-.02-.01-.04-.01-.05-.01h-.03c-.01 0-.03 0-.03.01a.076.076 0 0 0-.04-.02c-.01.02-.01.03-.01.07-.02 0-.04.05-.06.05.01.02.01.02.02.02-.02.03-.03.07-.04.07l.02.02c-.02.05-.03.11-.03.13a.218.218 0 0 0-.05-.04c-.03-.02-.03-.04-.03-.07.01-.03.02-.05.03-.08v-.03c0-.02-.03-.03-.04-.03.01.01.02.01.01.03-.01 0-.01.01-.02.01-.01.01-.01.02-.01.03v.02h-.01c0-.02-.01-.05-.03-.06h-.02v.02c0-.02-.02-.04-.05-.01.01 0 .02 0 .02.01-.01.01-.01.02-.01.02-.01.02.01.03.04.03h.01v.01c-.04-.02-.06 0-.07.02v.01c-.02.01-.02.03 0 .05 0-.01 0-.02.01-.02h.01l.01.01s.01 0 .03-.01h.01s.01 0 .01.01v.01c-.03.02-.03.05 0 .06v.01c-.01.05-.08.04-.07-.01-.05.05.01.09.07.07h.01c0 .01 0 .02.01.02l.01-.01c.01 0 .01 0 .01.01s0 .03.02.03c0-.01 0-.02.01-.02s.02.04.05.07c-.05.02-.13.04-.13.04-.01 0-.08-.01-.1.01-.03.02-.12.05-.14.01-.01-.01-.01-.02-.02-.04-.01-.01-.02-.02-.03-.02h-.02c-.01-.02-.04-.02-.05-.01.01 0 .02 0 .03.02-.01 0-.01.01-.01.02-.01.01 0 .03.05.04 0 0 .01.01 0 .01h-.03c-.02-.02-.02-.04-.05-.03 0 0-.01.01-.02.01h-.01c-.02 0-.06.03-.04.05 0 0 .01-.02.03-.02v.01c.01.03.02.05.07.01.01-.01.01 0 .01 0-.01.02-.05.04-.02.06 0 0 .01 0 .01.01-.01.03.03.05.04.05-.01-.01-.02-.02-.02-.04h.02c.03-.01.01-.04.03-.06h.01c0 .01.01.04.04.04s.04-.03.04-.04c.01.01.02.02.02.03.01 0 .02-.01.02-.02.01.01.01.03-.01.05.01 0 .04-.02.05-.05 0 0 .01.01.01.02.01 0 .03.01.06 0v.03l.01-.01c.01 0 0 .03.02.05.01-.08.05-.05.1-.08h.01c0 .01-.01.02-.02.03.02 0 .06-.02.06-.05 0 0 .02-.01.03-.02.02 0 .05-.01.06-.03 0 .01.01.03 0 .04.05 0 .1-.06.12-.06.11-.02-.07-.1.16-.09.02 0 .05-.01.07-.03-.02.04-.02.1.02.11.02 0 .05.01.06.03-.02 0-.04.01-.05.01-.05.04-.05-.08-.11-.06l-.01.01c-.02 0-.05.03-.05.05.01-.01.02-.02.04-.02v.01c0 .01 0 .02.02.02.01 0 .01-.01.02-.01v.01c0 .02-.07-.01-.05.05 0 0 0 .01.01.02 0 .02.01.04.04.03 0-.01-.01-.02-.01-.02h.02s.01 0 .01-.01c.01 0 .01 0 .01.01l-.01.01s.01.01.01.02c0 .02.03.04.06.02-.01 0-.03 0-.03-.01.01 0 .01-.01.01-.01s.01-.01.01-.02h.04c.01.01.02.03.04.02.04-.01.01-.05.04-.06h.02c.03.01.07.01.08-.01.01-.01 0-.07-.03-.09-.02-.01 0-.03-.02-.06.03.01.07.03.11.03.08 0 0-.01.04-.03.04-.03.08-.01.1-.01.01 0 .02.01.02.02-.01.04 0 .05 0 .07-.01.02-.04 0-.07 0-.01 0-.02.01-.02.01-.02 0-.04.02-.04.04.01 0 .02-.01.04-.02v.01c0 .03.04.04.05.02h.01c-.02.01-.05.04-.02.05 0 0 .01 0 .02.01 0 .02.01.03.03.04-.01-.01-.01-.01 0-.03h.01c.02 0 .01-.03.03-.04 0 .02-.01.05.01.05h.02c.01.02.02.03.05.01l-.02-.01c.01 0 .01-.02.01-.02.01-.04-.02-.04-.02-.06 0-.02.04-.01.04-.06 0-.01-.01-.02-.02-.03.01 0 .02 0 .03-.02-.03 0-.02-.02-.03-.04V10c.01-.01.02-.02.01-.05-.01.01-.05.03-.05 0 0 0 0-.02-.04-.02-.08.02-.1-.01-.2-.03-.01.01-.01 0 0 0m-.49-.27c.01.01.05.02.07.03-.03.01-.02.02-.04.02-.03-.01-.04-.03-.03-.05m-.05-.02c-.01.02-.03.03-.04.01-.02-.01 0-.02-.02-.05.02.02.05.04.06.04m-.06.14c.01-.01.01-.02.02-.02s.02 0 .02-.01c.01-.01-.01-.02-.02-.03.01 0 .02-.01.01-.01-.01-.01-.02.01-.02 0s.01-.01.01-.02h.02l.05.03c.01 0 .01.01.01.01v.02c-.01 0-.01-.02-.02-.02s-.01.01 0 .02c-.01-.01-.02-.01-.03 0-.01.01-.01.02 0 .03.01.01 0 .02 0 .03-.01.01-.02.03-.04.02-.02-.01-.02-.04-.01-.05"/></defs><clipPath id="SVGID_76_"><use xlink:href="#SVGID_75_" overflow="visible"/></clipPath><path class="st37" d="M13.26 4.41h11.2v10.64h-11.2z"/><defs><path id="SVGID_77_" d="M19.65 10.69c0-.06-.07-.11-.28-.11-.2 0-.67.08-.67-.04 0-.06.09-.05.2-.05.01.01.02.02.05.03.26.08.58-.06.74-.02-.19-.14-.35.01-.55-.04.12 0 .16-.03.16-.07-.09.06-.26-.03-.37.04l-.02.02c-.15-.01-.26-.01-.26.09 0 .2.55.08.72.08s.21.02.21.05c0 .05-.17.06-.27.06-.15 0-.6-.08-.88-.02.02-.04.07-.11.05-.14.02-.01.04-.03.04-.05-.02-.01-.04-.02-.05-.02.01-.01 0-.02-.01-.04l-.01-.03c-.01-.01-.03-.03-.06-.04-.03-.01-.05-.01-.07-.02-.01 0-.03.01-.04.01-.01 0-.03 0-.03.02a.076.076 0 0 0-.05-.02c-.01.02-.01.04-.01.08-.02 0-.05.06-.07.06.01.02.02.03.02.03-.02.04-.03.08-.05.08.01.02.02.03.03.03 0 .03 0 .06-.01.08l-.04-.02h-.01c-.01 0-.01 0-.02-.01h.02l-.02-.01c-.02-.02-.05-.06-.09-.08-.04-.02-.04-.04-.04-.08s.02-.07.02-.1c0 0-.01-.02-.01-.03 0-.02-.03-.04-.05-.04.01.01.02.02.02.04-.01.01-.01.02-.02.02-.01.01-.01.02 0 .04v.02c0 .01 0 0-.01 0-.01-.02-.02-.06-.04-.06h-.02v-.01c0-.02-.03-.05-.06-.01.01 0 .02 0 .02.01s-.01.02-.01.03c0 .03.02.04.05.04l.01.01v.01c0 .01 0 0-.01 0-.04-.02-.07 0-.07.02v.02c-.02.01-.02.04.01.06 0-.01 0-.03.01-.03h.01l.01.01c.01 0 .01 0 .03-.01h.01s.01 0 .01.01v.01c-.03.03-.03.06.01.07.01 0 .01 0 .01.01-.01.06-.08.05-.08-.01-.04.06.03.12.08.08h.01c0 .01.01.02.02.02 0 0 0-.01.01-.02v.01c0 .01 0 .03.03.03 0-.01 0-.02.01-.02s.03.04.08.07c.04.02.07.06.09.03-.01.04.03.08.02.08-.01 0-.12-.01-.14.01-.04.02-.13.06-.16.02-.01-.01 0-.03-.02-.05-.01-.01-.02-.02-.03-.02h-.02c-.01-.02-.05-.02-.06-.01.01 0 .02 0 .04.02-.01.01-.01.02-.01.02-.01.01 0 .03.06.05 0 0 .01.01 0 .01-.01.01-.02.01-.03 0-.02-.02-.03-.04-.06-.03 0 0-.01.01-.02.01-.03 0-.07.03-.05.06 0-.01.01-.02.03-.03 0 .01.01.02.01.02.01.03.02.06.08.01 0-.01 0 0 0 0-.02.03-.06.05-.03.07 0 0 .01.01.02.01-.01.04.03.06.05.06a.076.076 0 0 1-.02-.05h.02c.03-.01.02-.05.03-.06h.01c0 .02.01.05.05.05.03 0 .05-.03.05-.05 0 0 0-.01 0 0 .01.01.02.02.02.04.01 0 .02-.01.03-.03.01.02.01.04-.01.07.01-.01.05-.02.05-.06.01 0 .01.01.02.02.01 0 .03.01.07 0h.01v.03s.01-.02.02-.02 0 .03.02.06c.01-.09.06-.06.11-.09.01 0 .01 0 0 0 0 .01-.01.02-.02.03.06.01.16-.08.17-.12.03 0 .05-.01.06-.01.18.02.06-.16.35-.11.02 0 .05-.02.07-.03-.02.04-.02.12.02.12.02 0 .06.01.07.03v.01c-.02 0-.05.01-.05.01-.06.04-.06-.09-.13-.06 0 0-.01.01-.02.01-.02 0-.06.03-.05.06.01-.01.02-.02.04-.03v.01c0 .01 0 .02.02.02.01 0 .02-.01.03-.01 0 0 .01 0 .01.01 0 .02-.08-.01-.07.05l.01.02c0 .02.01.04.05.03-.01 0-.02-.01-.02-.02h.02c.01 0 .01 0 .01-.01 0 0 .01 0 .01.01v.01s0 .02.01.02c0 .03.03.05.07.03-.01 0-.03 0-.04-.02.01 0 .02-.01.02-.01.01-.01.01-.02.01-.03h.02c.01 0 .01 0 .01.01.01.01.03.03.05.02.04-.01.01-.06.04-.06h.03c.03.01.09.01.09-.01.01-.02.01-.08-.03-.1-.02-.01 0-.04-.02-.07.04.01.08.03.13.03.1 0 .12-.01.16-.04.04-.03.1-.01.11-.01.01 0 .02.01.02.02-.01.05 0 .05-.01.08-.01.02-.05 0-.08 0-.02 0-.03.01-.03.01-.02 0-.05.03-.05.05.01-.01.02-.02.04-.02v.01c0 .03.04.04.06.02h.01c-.02.01-.05.05-.03.06 0 0 .01.01.02.01 0 .02.01.04.03.05-.01-.01-.01-.02 0-.04h.02c.02 0 .01-.04.04-.06-.01.02-.01.06.01.06h.02c.01.02.03.03.06.02-.01 0-.02-.01-.02-.02.01-.01.01-.02.01-.02.02-.05-.03-.05-.03-.07 0-.02.05-.01.05-.06 0-.01 0-.02-.02-.03.01 0 .03 0 .04-.02-.04 0-.03-.03-.03-.05v-.01c.01-.01.02-.02.02-.05-.01.02-.05.04-.06 0 0 0 0-.03-.04-.02-.06.01-.11-.01-.23-.02.14.02.34-.02.34-.09m-1.61.12c0-.01 0-.01 0 0 0-.01 0-.01 0 0m.32-.3c.01.01.06.03.08.03-.04.01-.03.02-.05.02-.02.01-.03-.02-.03-.05m-.04-.02c-.01.02-.03.03-.05.01-.02-.02 0-.02-.02-.06.01.02.06.05.07.05m-.08.16c.01-.01.01-.02.02-.02s.02 0 .03-.02c.01-.02-.01-.02-.02-.03.02 0 .02-.01.02-.02-.01-.01-.02.01-.03 0 0-.01.01-.01.01-.02h.02l.07.03c.01.01.01.01.01.02s0 .02-.01.02-.01-.02-.02-.02-.01.01 0 .03c-.02-.01-.03-.01-.04 0-.01.01 0 .02.01.03.01.01 0 .02-.01.04 0 .01-.02.03-.05.02-.02-.02-.02-.04-.01-.06m.17.36"/></defs><clipPath id="SVGID_78_"><use xlink:href="#SVGID_77_" overflow="visible"/></clipPath><path class="st38" d="M12.82 5.57h11.65v10.41H12.82z"/><defs><path id="SVGID_79_" d="M19.56 11.59c0-.06-.06-.1-.26-.1s-.8.07-.8-.04c0-.07.2-.04.35-.04.01.01.02.02.04.03.25.07.52-.1.7-.04-.14-.13-.33.01-.52-.03.11 0 .23-.02.23-.05-.09.06-.33-.04-.43.03-.01.01-.01.01-.02.01-.19 0-.41-.03-.41.09 0 .19.69.08.85.08.16 0 .2.02.2.05 0 .05-.16.06-.26.06-.15 0-.79-.09-1.05-.01.02-.04.08-.11.05-.14.03-.01.04-.03.04-.05-.02-.01-.03-.02-.05-.02.01-.01 0-.02-.01-.03-.01 0-.01-.03-.01-.03-.01-.01-.03-.02-.06-.04-.03-.01-.05-.01-.06-.02-.01 0-.03.01-.04 0-.01 0-.03 0-.03.02a.076.076 0 0 0-.04-.02c-.01.02-.02.04-.01.07-.02 0-.05.06-.07.05.01.02.01.03.02.03-.02.03-.03.08-.05.08.01.01.01.02.02.02 0 .02-.01.04-.01.06l-.02-.01h-.06c-.03 0-.05-.05-.1-.08-.04-.02-.04-.04-.04-.08s.02-.07.01-.1c0 0-.01-.02-.01-.03-.01-.02-.04-.04-.05-.03.01.01.02.01.02.03l-.02.02c-.01.01-.01.02 0 .03v.03h-.01c-.01-.03-.02-.06-.04-.06h-.02c0-.03-.03-.05-.06-.02 0 0 .02 0 .02.01s-.01.02-.01.03c0 .03.02.03.04.04h.01v.01c0 .01 0 .01 0 0-.05-.02-.06 0-.06.02v.02c-.02.01-.02.04.01.06 0-.01 0-.02.01-.03h.01l.01.01s.01 0 .03-.01h.01s.01 0 .01.01v.01c-.03.03-.02.06.01.06.01 0 .01 0 .01.01 0 .05-.07.04-.07-.01-.04.06.03.11.09.08h.01c0 .01.01.02.02.02 0 0 0-.01.01-.01v.01c0 .01.01.03.03.04 0-.01 0-.02.01-.02s.05.07.13.12c.01 0 .04 0 .04-.02l.02.02c0 .04.03.08.02.08-.01 0-.14 0-.16.01-.03.02-.12.05-.15.02-.01-.01 0-.02-.02-.04-.01-.01-.02-.02-.03-.02h-.02c-.01-.02-.04-.02-.06-.01.01 0 .02.01.04.03 0 0-.01.01-.01.02-.01.01 0 .03.05.05 0 0 .01.01 0 .01-.01.01-.02.01-.03 0-.02-.02-.03-.04-.05-.03 0 0-.01.01-.02.01h-.01c-.02-.01-.06.03-.05.06 0-.01.01-.02.03-.03 0 .01.01.01.01.02 0 .03.02.05.08.01h.01c-.01.03-.06.05-.02.07 0 0 .01 0 .01.01v.01c-.01.03.03.06.05.05-.01-.01-.02-.02-.02-.05.01 0 .02.01.02.01.03-.01.02-.05.03-.06h.01c0 .01.01.05.04.04.03 0 .05-.03.04-.05.01.01.02.02.02.03.01 0 .02-.01.02-.02.01.02.01.04-.01.06.01 0 .05-.02.06-.06 0 0 .01.01.01.02.01.01.03.01.07 0 0 .01 0 .03.01.03l.01-.02c.01 0 0 .03.02.05.01-.09.11-.04.17-.08.01-.01.01 0 0 0 0 .01-.01.02-.03.03.02 0 .05-.01.07-.03 0 0-.01 0-.01.01l.09-.04c0-.01 0-.02.01-.03.01 0 .02 0 .03-.01.06 0 .05-.04.07-.04.32.04.14-.14.51-.1.02 0 .02-.01.04-.02-.02.04-.02.1.02.1.02 0 .05.01.07.03v.01c-.02 0-.04.01-.05.01-.06.04-.06-.09-.13-.07l-.01.01c-.03 0-.06.03-.05.05.01-.01.02-.02.04-.02v.01c0 .01 0 .02.02.02.01 0 .02-.01.03-.01 0 0 .01 0 .01.01 0 .02-.08-.01-.06.06 0 0 .01.01.01.02 0 .02.01.04.05.03-.01 0-.02-.01-.02-.02h.02s.01 0 .01-.01c0 0 .01 0 .01.01v.01s0 .02.01.02c0 .02.03.05.07.02-.01 0-.03-.01-.04-.02.01 0 .02-.01.02-.01.01 0 .01-.01.01-.02s0-.01.01-.01h.03c0 .02.02.03.05.02.04-.01.01-.05.04-.06h.03c.03.01.08 0 .09-.01.01-.02 0-.07-.03-.09-.02-.01 0-.04-.02-.07.04.01.07.03.12.03.09 0 .11-.01.15-.04.04-.03.09-.01.11-.01.01 0 .02.01.02.02-.01.05.01.05-.01.07-.01.02-.05 0-.07 0-.02 0-.03.01-.03.01-.02 0-.05.02-.05.05.01 0 .02-.02.04-.02v.01c0 .03.04.04.06.02h.01c-.02.01-.05.04-.02.06 0 0 .01 0 .02.01 0 .02.01.04.03.04-.01-.01-.01-.02 0-.04h.02c.02 0 .01-.04.03-.05h.01c-.01.02-.01.05.01.06h.02c.01.02.03.03.05.01-.01 0-.02-.01-.02-.02.01-.01.01-.02.01-.02.02-.05-.02-.05-.02-.07 0-.03.05-.01.05-.06 0-.01-.01-.02-.02-.03.01 0 .03 0 .04-.02-.04 0-.03-.03-.03-.04v-.01c.01-.01.02-.02.02-.05-.01.02-.05.03-.05 0 0 0 0-.03-.04-.02-.06.01-.1-.01-.21-.02.04.01.25-.02.25-.09m-1.44-.16c.01.01.05.02.08.03-.04.01-.03.02-.05.02-.02 0-.03-.03-.03-.05m-.04-.02c-.01.02-.03.03-.05.02-.01-.02 0-.02-.02-.05.02 0 .06.03.07.03m-.08.15c.01-.01.01-.02.02-.02.02 0 .02 0 .03-.01.01-.02-.01-.02-.02-.03.02 0 .02-.01.02-.02-.01-.01-.03 0-.03 0 0-.01.01-.01.01-.02.01-.01.01 0 .02 0l.06.03c.01.01.01.01.01.02v.02c-.01 0 0-.02-.02-.02-.01 0-.01.01 0 .02-.01 0-.03-.01-.03 0-.01.01-.01.02 0 .03v.03c-.01.01-.02.03-.04.02-.04-.01-.03-.03-.03-.05"/></defs><clipPath id="SVGID_80_"><use xlink:href="#SVGID_79_" overflow="visible"/></clipPath><path class="st39" d="M12.59 6.47h11.79v10.39H12.59z"/><defs><path id="SVGID_81_" d="M22.34 13.1c.02-.02.03-.03.02-.06-.01.02-.05.04-.05 0 0 0 0-.03-.04-.02-.06.01-.11-.01-.23-.01-.01 0-.01-.01 0-.01.12-.01.32-.03.32-.1 0-.06-.07-.1-.26-.1-.2 0-.8.07-.8-.04 0-.07.2-.04.35-.04.01.01.02.02.04.03.25.07.54-.12.69-.07-.2-.07-.32.05-.51.01.11 0 .23-.02.24-.06-.09.06-.33-.04-.43.03-.01 0-.01.01-.02.01-.19 0-.41-.02-.41.08 0 .19.69.08.85.08.16 0 .2.02.2.05 0 .05-.16.06-.26.06-.15 0-.79-.08-1.05-.01.02-.04.08-.11.05-.14.02-.01.04-.03.04-.05-.02-.01-.03-.02-.05-.02.01-.01 0-.02-.01-.03l-.01-.03c-.01-.01-.03-.03-.06-.04-.03-.01-.05-.01-.06-.01h-.03c-.01 0-.03 0-.03.01a.076.076 0 0 0-.05-.02c-.01.02-.01.04 0 .07-.02 0-.05.06-.07.05.01.02.02.02.02.03-.02.03-.03.08-.05.08.01.02.02.03.03.03 0 .02-.01.04-.01.06l-.03-.01h-.03c-.01 0-.02 0-.03-.01-.03 0-.05-.05-.11-.08-.04-.02-.04-.04-.04-.08 0-.03.02-.06.01-.09 0-.01-.01-.02-.01-.03-.01-.02-.04-.04-.05-.03.01.01.02.01.02.03l-.02.02c-.01.01-.01.02 0 .03v.03c0 .01 0 0 0 0-.01-.02-.02-.06-.04-.06h-.02c0-.02-.03-.04-.06-.01.01 0 .02 0 .02.01s-.01.02-.01.02c0 .03.02.04.04.04.01 0 .01 0 .01.01v.01c-.04-.02-.07 0-.07.02v.02c-.01.01-.02.03.01.05 0-.01 0-.03.01-.03l.01.01s.01 0 .03-.01h.01l.01.01v.01c-.03.03-.02.06.01.07 0 0 .01 0 .01.01 0 .06-.08.04-.07-.01-.04.06.03.11.09.08h.01c0 .01.01.02.02.02 0 0 0-.01.01-.01v.01c0 .01.01.03.03.03 0-.01 0-.02.01-.02s.04.08.13.12c0-.01.03-.02.05-.03 0 .01.01.03.03.04l.01-.01c-.01.04.04.08.03.08-.01 0-.09-.01-.11 0-.04.02-.13.06-.15.02-.01-.01-.01-.03-.02-.05-.01-.01-.02-.02-.03-.02h-.02c-.02-.01-.05-.02-.06-.01.01 0 .02.01.03.02 0 .01-.01.02-.01.02 0 .01 0 .03.05.05 0 0 .01 0 .01.01-.01 0-.02.01-.03 0-.02-.02-.03-.04-.05-.03 0 0-.01 0-.02.01h-.01c-.03 0-.06.03-.05.06 0-.01.01-.03.03-.03v.02c.01.03.02.05.08.01.01 0 .01 0 0 0-.01.02-.05.05-.02.07l.01.01v.01c-.01.03.03.06.05.06a.076.076 0 0 1-.02-.05c.01 0 .02.01.02 0 .03-.01.02-.05.03-.06h.01c0 .02.01.05.04.04.03 0 .05-.03.04-.05h.01c.01.01.02.02.02.04.01 0 .02-.01.02-.03.01.02.01.04-.01.06.01-.01.05-.02.06-.06.01.01.01.01.01.02.01 0 .03.01.07 0h.01v.03l.01-.02c.01 0 0 .03.02.05.01-.09.06-.05.11-.09.01-.01.01 0 0 0 0 .01-.01.02-.02.03.02.02.1-.03.1-.07 0-.01.03-.01.06-.01.05 0 .05-.04.07-.04.32.04.14-.14.51-.1.02 0 .03-.02.04-.04-.02.04-.02.11.02.12.02 0 .05.01.07.02v.01c-.02 0-.05.01-.05.02-.06.04-.06-.09-.12-.07 0 0-.01.01-.02.01-.03 0-.06.03-.05.06.01-.01.02-.02.04-.02v.01c0 .01 0 .02.02.02.01 0 .02-.01.02-.01.01 0 .01 0 .01.01 0 .02-.08-.01-.06.05l.01.02c0 .02.01.04.05.03-.01 0-.02-.01-.02-.02h.01s.01 0 .01-.01h.01c.01 0 .01 0 .01.01 0 0-.01.01 0 .01v.02c0 .02.03.05.07.02-.01 0-.03 0-.04-.02.01 0 .02-.01.02-.01.01 0 .01-.01.01-.02s0-.01.01-.01h.02c.01 0 .01 0 .01.01.01.01.02.03.05.02.04-.01 0-.05.04-.06h.03c.03.01.08.01.09-.01.01-.01 0-.07-.03-.09-.02-.01 0-.04-.02-.06.04.01.07.03.12.03.09 0 .12-.01.16-.03.05-.03.09-.01.11-.01.01 0 .02.01.01.02-.01.05 0 .05-.01.07-.01.02-.05 0-.08 0-.01 0-.03.01-.03.01-.02.01-.05.03-.05.05.01 0 .02-.02.04-.02v.01c0 .03.03.04.06.02 0 0 .01 0 .01.01-.02.01-.05.04-.03.05l.01.01c0 .02.01.04.03.04 0-.01-.01-.02.01-.04h.02c.02 0 .02-.04.04-.05 0 0 .01 0 0 0-.01.02-.02.05.01.06h.01c.01.02.03.03.05.02-.01 0-.02-.01-.02-.02.01-.01.01-.02.01-.02.02-.05-.02-.05-.02-.07 0-.02.05-.01.05-.06 0-.01 0-.02-.02-.03.01 0 .03 0 .04-.01-.04-.01-.02-.04-.03-.06zm-1.41-.36c.01.01.05.02.08.03-.04.01-.03.02-.05.02-.03 0-.03-.03-.03-.05zm-.05-.03c-.01.02-.03.03-.05.02-.02-.02 0-.02-.02-.05.02.01.06.03.07.03zm-.07.16c.01-.01.01-.03.02-.03s.02 0 .02-.01-.01-.02-.02-.03c.01 0 .02-.01.01-.02s-.02.01-.02 0 .01-.01.01-.02h.02l.06.03c.01.01.01.01.01.02v.02c-.01 0-.01-.02-.02-.02s-.01.01 0 .02c-.02-.01-.03-.01-.03 0-.01.01-.01.02.01.03 0 0 0 .02-.01.03-.01.01-.02.03-.04.02-.03 0-.03-.03-.02-.04zm-.05-.09zm.01-.07z"/></defs><clipPath id="SVGID_82_"><use xlink:href="#SVGID_81_" overflow="visible"/></clipPath><path class="st40" d="M15.48 7.79h11.7v10.39h-11.7z"/><defs><path id="SVGID_83_" d="M21.46 13.6c0 .01.02.02.04.03.24.07.51-.12.66-.07-.19-.07-.31.05-.49.01.11 0 .22-.02.23-.05-.08.05-.32-.03-.41.03-.01 0-.01.01-.02.01-.13 0-.24 0-.24.08 0 .19.5.08.65.08.16 0 .14.01.14.05s-.18.05-.27.05c-.13 0-.54-.07-.79-.02.02-.04.06-.09.04-.12.02-.01.04-.03.04-.05a.076.076 0 0 0-.05-.02c.01-.01 0-.02-.01-.03 0 0-.01-.03-.02-.03a.218.218 0 0 0-.05-.04c-.03-.01-.05-.01-.06-.02h-.03c-.01 0-.03 0-.03.01-.01-.01-.02-.01-.04-.02-.01.02-.01.04-.01.07-.02 0-.04.06-.07.05.01.02.02.02.02.02-.02.03-.03.07-.05.08l.02.02c-.01.02-.01.05-.01.07l-.02-.01h-.01c-.03 0-.05 0-.1-.03-.04-.02-.04-.04-.04-.08 0-.03.02-.06.01-.09 0 0-.01-.02-.01-.03-.01-.02-.04-.04-.05-.03.01 0 .02.01.02.03-.01.01-.01.01-.01.02-.01.01-.01.02 0 .03v.02c0 .01-.01 0-.01 0-.01-.02-.02-.06-.04-.06h-.02c0-.03-.03-.04-.05-.02 0 0 .02 0 .02.01s-.01.02-.01.02c0 .03.02.04.04.04h.01v.01h-.01c-.04-.02-.06 0-.06.02v.02c-.01.01-.02.03.01.05 0-.01 0-.02.01-.02h.01c0 .01.01.01.01.01h.05v.01c-.03.03-.02.06.01.06.01 0 .01.01.01.01 0 .06-.07.04-.07-.01-.04.06.03.11.08.08h.01c0 .01.01.02.02.02 0 0 0-.01.01-.01 0 .01.01.03.03.04 0-.01 0-.02.01-.02s.01-.02.07.01c.01.01.01.02.03.02l.04-.01c0 .03.01.09 0 .09s-.08-.01-.11 0c-.03.02-.12.05-.14.01-.01-.01-.01-.02-.02-.04-.01-.01-.02-.02-.03-.02h-.02c-.01-.02-.04-.02-.06-.01.01 0 .02 0 .03.02 0 0-.01.01-.01.02-.01.01 0 .03.05.05 0 0 .01.01 0 .01h-.03c-.02-.02-.03-.04-.05-.03 0 0-.01 0-.02.01h-.01c-.02 0-.06.03-.04.06 0-.01.01-.02.03-.02 0 .01.01.01.01.02.01.03.02.05.08.01-.02.03-.05.05-.02.07l.01.01-.01.01c0 .03.03.05.05.05a.076.076 0 0 1-.02-.05h.02c.03-.01.01-.04.03-.05h.01c0 .01.01.04.04.04s.05-.03.04-.05c.01 0 .02.02.02.03.01 0 .02-.01.02-.02.01.01.01.03-.01.06.01 0 .05-.02.05-.06.01.01.01.01.01.02.01 0 .03.01.07 0v.04c0-.01.01-.02.01-.02.01 0 0 .03.02.05 0-.08.07-.06.12-.09 0 .01-.01.02-.02.03.05.03.12-.04.13-.08.01 0 .01-.01.02-.02 0 .01.01.02-.01.02.05 0 .05-.04.07-.03.16.01.04-.14.3-.09.02 0 .05-.01.06-.03-.02.03-.02.1.02.11.02 0 .05.02.06.03v.01c-.02 0-.04.01-.05.01-.05.04-.05-.08-.12-.06 0 0-.01.01-.02.01-.02 0-.06.03-.05.05.01-.01.02-.02.04-.02v.01c0 .01 0 .02.02.02.01 0 .01-.01.02-.01 0 0 .01 0 .01.01 0 .02-.07-.01-.06.05 0 0 .01.01.01.02 0 .02.02.04.04.03-.01 0-.02-.01-.02-.02h.02s.01 0 .01-.01h.01v.01s0 .02.01.02c0 .02.03.05.06.02-.01 0-.03 0-.03-.02.01 0 .02 0 .02-.01v-.02h.04c.01.02.02.03.04.02.04-.02.01-.05.04-.06h.02c.03.01.08.01.09-.01.01-.01.01-.07-.03-.09-.02-.01 0-.03-.02-.06.03.02.07.03.12.03.09 0 .13-.01.17-.04.05-.03.09-.01.1-.01.01 0 .02.01.01.02-.02.04-.01.05-.02.07-.01.02-.05 0-.07 0-.01 0-.03.01-.03.01-.02.01-.05.03-.06.05.01-.01.02-.02.04-.02v.01c-.01.03.03.04.05.02h.01c-.02.01-.06.04-.04.05 0 0 .01 0 .02.01-.01.02 0 .04.01.04 0-.01 0-.02.01-.03h.01c.02 0 .02-.04.04-.05 0 0 .01 0 0 0-.01.02-.02.05-.01.06h.01c0 .02.02.03.05.01 0 0-.02-.01-.02-.02l.02-.02c.03-.05-.01-.05-.01-.06.01-.03.04-.01.06-.05 0-.01 0-.03-.01-.03.01 0 .03 0 .04-.02-.03 0-.01-.02-.01-.04v-.01c.01-.01.02-.02.03-.05-.01.01-.05.03-.05 0 0 0 0-.02-.03-.02-.06.01-.14-.01-.25-.02-.01 0-.01 0 0-.01.11-.01.32-.02.32-.09 0-.06-.01-.09-.2-.09s-.61.07-.61-.04c.08-.04.16-.03.26-.02m-.6-.02c-.01.02-.03.03-.05.01-.01-.02 0-.02-.02-.05.02.02.06.04.07.04m.03.12c-.01 0-.01-.02-.02-.02s-.01.01 0 .02c-.01 0-.02-.01-.03 0-.01.01 0 .02.01.03v.03c0 .01-.02.03-.04.02-.02-.01-.02-.03-.01-.05.01-.01.01-.02.02-.02s.02 0 .02-.01c0-.02-.01-.02-.02-.03.01-.01.02-.01.01-.02s-.02 0-.03 0c0-.01.01-.01.01-.01.01-.01.01-.01.02 0l.06.03c.01 0 .01.01.01.02 0-.01 0 .01-.01.01m.03-.05c-.02 0-.03-.03-.02-.05.01.01.05.02.07.03-.03.01-.02.02-.05.02"/></defs><clipPath id="SVGID_84_"><use xlink:href="#SVGID_83_" overflow="visible"/></clipPath><path class="st41" d="M15.44 8.69h11.52v10.32H15.44z"/><defs><path id="SVGID_85_" d="M21.27 14.46c.01.01.02.02.04.03.24.07.51-.12.66-.07-.19-.07-.31.05-.49.01.11 0 .22-.02.23-.05-.08.05-.32-.04-.41.02-.01 0-.01.01-.02.02-.07.02-.14.06-.14.11 0 .16.62.03.62.09 0 .04-.12.08-.28.08-.12 0-.34-.08-.6-.01.02-.04.07-.11.05-.14.02-.01.04-.03.04-.04-.01-.02-.03-.02-.04-.02.01-.01 0-.02-.01-.03 0 0-.01-.02-.01-.03a.219.219 0 0 0-.05-.03c-.03-.01-.04-.01-.05-.02-.01 0-.03.01-.03.01-.01 0-.03 0-.03.01-.01-.01-.02-.01-.04-.02-.01.02-.01.04-.01.06-.02 0-.04.06-.06.05.01.02.01.02.02.02-.02.03-.03.07-.05.07l.02.02c-.01.05-.02.11-.01.15-.04-.04-.09-.13-.13-.15-.03-.02-.03-.04-.03-.07 0-.03.01-.06.01-.08 0 0 0-.02-.01-.03a.055.055 0 0 0-.05-.03c.01.01.02.01.02.03-.01.01-.01.02-.01.02-.01.01-.01.02 0 .03v.02c0 .01 0 0 0 0-.01-.02-.02-.05-.04-.05h-.01v-.01c0-.02-.02-.04-.05-.01 0 0 .02 0 .02.01s-.01.02-.01.03c0 .02.02.03.04.03h.01v.01c-.04-.02-.06 0-.06.02v.02c-.01.01-.02.03.01.05 0-.01 0-.02.01-.03h.01l.01.01s.01 0 .02-.01h.01c.01 0 .01 0 .01.01v.01c-.03.03-.02.05.01.06.01 0 .01 0 .01.01 0 .05-.07.04-.06-.01-.04.06.03.1.08.07h.01c0 .01.01.02.02.02 0 0 0-.01.01-.01h.01c0 .02 0 .03.02.03 0-.01 0-.02.01-.02s0 .07.07.12c.01.04.05.07.08.06.01.03.03.06.03.06-.01 0-.1-.01-.12 0-.02.01-.05.02-.08.03l-.01.01s0-.01.01-.01c-.02 0-.05 0-.06-.01-.01-.01-.01-.02-.02-.04-.01-.01-.02-.02-.03-.02h-.02c-.01-.01-.04-.01-.05-.01.01 0 .02.01.03.02 0 .01-.01.02-.01.02-.01.01 0 .03.05.04 0 0 .01.01 0 .01s-.02.01-.03 0c-.02-.01-.02-.04-.05-.02 0 0-.01.01-.02.01h-.01c-.02 0-.06.03-.04.05 0-.01.01-.02.03-.02 0 0 .01.01.01.02 0 .02.01.05.07.01h.01c-.01.02-.05.04-.02.06l.01.01v.01c-.01.03.03.05.04.05-.01-.01-.02-.02-.02-.05.01 0 .02.01.02.01.02-.01.01-.04.03-.05.01 0 .01 0 .01.01s.01.04.04.04.04-.03.04-.04c.01.01.02.02.02.03.01 0 .02-.01.02-.02.01.01.01.03-.01.05.01 0 .04-.02.05-.05.01 0 .01.01.01.02.01.01.03.01.06 0v.03l.01-.02c.01 0 0 .03.02.05.01-.08.05-.05.1-.08h.01c-.01.01-.01.02-.02.03.02 0 .07-.02.07-.05 0-.01.04-.04.05-.13h.02c.07 0 .1-.05.16-.06-.02.02-.02.07-.02.09 0 .04.05.08.06.09v.01c-.02 0-.04.01-.05.01-.05.04-.05-.08-.11-.06 0 0-.01.01-.02.01-.02 0-.05.02-.05.05.01-.01.02-.02.03-.02v.01c0 .01 0 .02.02.02.01 0 .01-.01.02-.01 0 0 .01 0 .01.01 0 .02-.07-.01-.06.04 0 0 .01.01.01.02 0 .02.01.04.04.03-.01 0-.02-.01-.02-.02h.01s.01 0 .01-.01c0 0 .01 0 .01.01l-.01.01s0 .02.01.02c-.01.02.03.04.06.02-.01 0-.03 0-.03-.02.01 0 .02 0 .02-.01 0 0 .01-.01.01-.02s0-.01.01-.01h.02c.01.01.02.02.04.02.04-.01.01-.05.04-.05h.02c.03.01.05.01.06 0 .01-.01 0-.07-.03-.09-.02-.01.03-.13-.06-.18.04.01.18.03.2 0 .04.01.09.04.1.05 0 .01.01.02 0 .02-.04.02-.03.03-.05.04-.01-.01-.02-.03-.04-.04-.01-.01-.02 0-.03 0-.02-.01-.05 0-.06.02.01 0 .03-.01.04 0v.01c0 .01 0 .01.01.02v.01c-.02-.01-.06-.01-.05.02v.02c-.01.01-.02.03-.01.04 0-.01.01-.01.02-.02.01 0 .01.01.01.01.01.01.03-.02.05-.01-.02.01-.04.02-.03.04l.01.01c-.01.01 0 .04.02.04 0 0-.01-.02 0-.03h.02c.04-.02.02-.05.03-.06.02-.01.03.03.07 0 0 0 .01-.02 0-.03.01.01.02.02.03.01-.02-.02 0-.03.01-.05h.01c.01 0 .03 0 .04-.02-.02 0-.07-.03-.04-.04.04-.01.05-.04.03-.06-.03-.04-.1-.05-.1-.09h.06c.21 0 .34-.06.34-.12-.01-.14-.63.01-.63-.09-.01-.08.03-.1.08-.12m-.45.02c.01.01.05.02.07.03-.03.01-.02.02-.04.02-.03 0-.04-.03-.03-.05m-.05-.02c-.01.01-.03.03-.05.01-.01-.01 0-.02-.02-.05.03.02.06.04.07.04m-.06.14c.01-.01.01-.02.02-.02s.02 0 .02-.01c.01-.02-.01-.02-.02-.03.01 0 .02-.01.01-.01-.01-.01-.02 0-.02 0 0-.01.01-.01.01-.02s.01 0 .02 0l.05.03c.01 0 .01.01.01.01v.02c-.01 0-.01-.02-.01-.02-.01 0-.01.01 0 .02-.01 0-.03-.01-.03 0-.01.01-.01.02.01.03 0 .01 0 .02-.01.03-.01.01-.02.03-.04.02-.03-.01-.03-.04-.02-.05"/></defs><clipPath id="SVGID_86_"><use xlink:href="#SVGID_85_" overflow="visible"/></clipPath><path class="st42" d="M15.41 9.57h11.35v10.41H15.41z"/><defs><path id="SVGID_87_" d="M11.35 3.7c0-.12-.1-.22-.22-.22s-.22.1-.22.22.1.21.22.21.22-.09.22-.21"/></defs><clipPath id="SVGID_88_"><use xlink:href="#SVGID_87_" overflow="visible"/></clipPath><path class="st43" d="M6.12-1.31h10.02V8.71H6.12z"/><defs><path id="SVGID_89_" d="M11.3 3.3c0-.12-.1-.22-.22-.22s-.22.1-.22.22.1.22.22.22.22-.1.22-.22"/></defs><clipPath id="SVGID_90_"><use xlink:href="#SVGID_89_" overflow="visible"/></clipPath><path class="st44" d="M6.07-1.71h10.02V8.31H6.07z"/><defs><path id="SVGID_91_" d="M11.31 3.19c.12 0 .22-.1.22-.21 0-.12-.1-.22-.22-.22s-.22.1-.22.22c.01.11.11.21.22.21"/></defs><clipPath id="SVGID_92_"><use xlink:href="#SVGID_91_" overflow="visible"/></clipPath><path class="st45" d="M6.31-2.04h10.02V7.98H6.31z"/><defs><path id="SVGID_93_" d="M11.71 3.16c.12 0 .22-.1.22-.22s-.1-.22-.22-.22-.22.1-.22.22c.01.13.11.22.22.22"/></defs><clipPath id="SVGID_94_"><use xlink:href="#SVGID_93_" overflow="visible"/></clipPath><path class="st46" d="M6.71-2.07h10.02V7.95H6.71z"/><defs><path id="SVGID_95_" d="M13.38 2.86c.08.08.22.08.31 0 .08-.08.08-.22 0-.3-.08-.08-.22-.08-.31 0a.2.2 0 0 0 0 .3"/></defs><clipPath id="SVGID_96_"><use xlink:href="#SVGID_95_" overflow="visible"/></clipPath><path class="st47" d="M8.52-2.3h10.02V7.72H8.52z"/><defs><path id="SVGID_97_" d="M13.44 2.54c.08-.08.08-.22 0-.3-.08-.09-.22-.09-.31 0-.08.08-.08.22 0 .3.09.09.22.09.31 0"/></defs><clipPath id="SVGID_98_"><use xlink:href="#SVGID_97_" overflow="visible"/></clipPath><path class="st48" d="M8.28-2.62H18.3V7.4H8.28z"/><defs><path id="SVGID_99_" d="M13.04 2.48a.23.23 0 0 0 0-.31c-.08-.08-.22-.08-.31 0a.23.23 0 0 0 0 .31c.09.08.22.08.31 0"/></defs><clipPath id="SVGID_100_"><use xlink:href="#SVGID_99_" overflow="visible"/></clipPath><path class="st49" d="M7.88-2.69H17.9V7.33H7.88z"/><defs><path id="SVGID_101_" d="M12.7 2.73c.08-.08.08-.22 0-.3-.08-.09-.22-.09-.31 0a.23.23 0 0 0 0 .31c.08.08.22.08.31-.01"/></defs><clipPath id="SVGID_102_"><use xlink:href="#SVGID_101_" overflow="visible"/></clipPath><path class="st50" d="M7.54-2.43h10.02V7.59H7.54z"/><defs><path id="SVGID_103_" d="M11.63 2.41l.12.27.15-.18c.01 0 .01.01.02.01.01.09.02.24.02.33 0 .11.08.19.19.19.1 0 .19-.09.19-.19 0-.07-.04-.14-.1-.17-.07-.06-.16-.14-.21-.2 0-.01.01-.01.01-.02l.26.02-.1-.27-.19.17s-.01 0-.01-.01l-.01-.28-.26.1.17.21c0 .01-.01.01-.01.02h-.24z"/></defs><clipPath id="SVGID_104_"><use xlink:href="#SVGID_103_" overflow="visible"/></clipPath><path class="st51" d="M6.83-2.73h10.28V7.81H6.83z"/><defs><path id="SVGID_105_" d="M13.37 2.88c.06.09.08.13.08.21a.482.482 0 0 1-.16-.14l.03.35c.04-.06.08-.1.12-.12-.01.23-.1.32-.18.34-.09.02-.16-.05-.18-.12-.02-.1.07-.17.16-.07.01-.21-.15-.21-.23-.12.09-.21.05-.34-.13-.45-.11.19-.07.31.08.46-.14-.07-.27.05-.14.21.03-.14.14-.11.17 0 .02.09-.07.21-.22.25-.22.06-.29-.07-.34-.19.04-.03.16-.02.28.06l-.1-.34a.36.36 0 0 1-.21.21c-.01-.1.07-.3.07-.3l-.41.17s.19.09.26.17a.33.33 0 0 1-.29-.01l.16.32c.03-.14.11-.23.16-.24.04.12.09.27-.11.37-.14.07-.28.05-.33-.03-.06-.09.01-.2.12-.12-.02-.2-.19-.2-.24-.05 0-.2-.05-.32-.26-.38-.06.2.01.33.22.41-.12-.01-.24.1-.08.25 0-.13.1-.14.16-.06.04.06.03.16-.05.21-.07.04-.2.04-.37-.12.05-.02.11-.01.18 0l-.22-.27c.01.1.01.17-.01.21-.05-.05-.06-.1-.08-.21l-.17.15c.16.1.35.25.57.56.23-.15.66-.35.92-.46.26-.11.7-.26.97-.32-.05-.38-.03-.61.02-.8l-.22.01z"/></defs><clipPath id="SVGID_106_"><use xlink:href="#SVGID_105_" overflow="visible"/></clipPath><path class="st52" d="M6.32-2.04h12.07V9.24H6.32z"/><defs><path id="SVGID_107_" d="M16.67 12.46c.06-.16-.24-.34-.27-.57-.04-.23-.01-.45-.27-.76-.26-.3-1.16-1.27-1.43-1.57.07-.01.23-.04.4.11.1.09.29.27.47.45.24-.61.53-1.06.95-1.54.05-.06.11-.12.17-.18-.15.05-.4.08-.53.18-.01-.26.01-.48-.17-.65.07-.37.01-.82-.82-1.37.42.1.68.48 1 .19-.29-.01-.3-.65-1.35-1.17.4-.01.71.64 1.18.27-.44-.05-.58-.83-1.37-1.07.27.03.56.16.79-.16-.28.07-.43-.18-.73-.21.11-.34.08-.55-.04-.81-.21.01-.42.08-.57.2-.02-.19-.22-.2-.39-.19.01.08.05.2-.04.22-.15.04-.62.17-.98.31-.36.14-.78.4-.9.48-.07.05-.14-.07-.18-.12-.13.11-.25.25-.16.39-.2.02-.42.07-.61.22 0 .23.19.46.48.59-.49.49-.05.93-.48 1.36.6.02.5-.82.8-.93-.03.59-.36.7-.36 1.34 0 .34.2.71.02.93.51-.14.37-1.26.69-1.59.05.19.02.38-.04.57-.18.52.02 1.23-.25 1.47.51-.05.58-.88 1-1.18-.36.74-.74 2.33-1.28 3.12-.88 1.19-1.4 2.63-2.2 2.63-.36 0-.62-.22-.62-.67 0-1.35 2.31-2.27 2.31-3.71 0-.64-.52-.89-.85-.89-.22 0-.49.11-.71.29a.744.744 0 0 0-.28-.06c-.81 0-.6 1.47-1.31 1.46.29.15.77-.16 1.06-.57-.12.95-1.49.7-1.39 1.84.19-.9 2.37-.76 2.37-2.13a.52.52 0 0 0-.19-.38.79.79 0 0 1 .46-.14c.26 0 .5.19.5.58 0 1.2-2.29 2.22-2.29 3.7 0 .25.07.46.19.62-.16.07-.33.04-.47-.12-.01.38.53.62.87.43.08.03.15.04.24.05-.09.28-.44.36-.62.35.56.44 1.54-.14 1.49-.64.45-.36.73-.98 1.05-1.38-.02.09-.04.19-.05.28-.33.6-.64 1.14-.72 1.93-.07.66-.41 1.25-.87 1.25-.11 0-.27-.13-.35-.07-.14.13-.01.26-.01.38 0 .19-.36.38-.36.96 0 .26.15.57.09.75.15-.08.35-.33.43-.65.16.77-.33.73.02 1.41.05-.23.27-.32.41-.23.14.09.07.16-.03.26s-.19.61.27.58c-.09-.06-.09-.19.14-.24.32-.07.41.08.75.08.21 0 .27-.28.43-.28.16 0 .16.13.1.23.27-.07.32-.22.32-.37s-.12-.24-.03-.31c.09-.06.41.01.28.26.16-.03.25-.14.25-.34s-.23-.31-.43-.28c-.03-.12-.22-.18-.38-.18-.37 0-.32.3-.58.3-.41 0-.81-.54-.81-1.45 0-.48.52-.61.89-.77.37-.16 1.02-.56 1.41-1.21.3-.51.31-1.07.27-1.73.52.3.58.73.58 1.04 0 .41-.21.57-.38.65-.14.06-.19.04-.2.12-.02.1.05.16.11.2.19.09.15.28.2.47.05.2.23.5.52.73.03-.12.02-.31.01-.56.4.19.08 1 .86 1-.14-.08-.1-.3-.02-.32.08-.03.19.05.34.26.15.21.11.19.48.19s.2-.13.4-.13.18.23.08.39c.33-.1.43-.35.31-.61.29-.16.44.07.48.23.29-.29 0-.63-.22-.65.01-.11-.09-.22-.21-.23-.12-.01-.23-.02-.36-.01-.14.01-.21.2-.37.2-.49 0-1.45-.88-1.45-1.26s.92-.61.92-1.21c0-.78-.76-1.04-1.4-1.54.23-.26.89-.31 1.27-.13.04-.21.18-.16.23-.53.13.33-.01.61.13.75.11-.16.38-.13.37-.54.08.25-.11.64.08.81.03-.21.16-.24.24-.24.08 0 .15.06.15.18 0 .31-.38.17-.38.51 0 .15.19.2.19.3 0 .09-.15.24-.34.11.06.14.18.26.34.26.17 0 .35-.13.42-.31.09.22.02.47-.14.5.17.08.57 0 .52-.51.22.04.34.19.21.46.18-.05.35-.14.35-.34-.01-.15-.18-.19-.1-.39M12.3 5.48c-.2.01-.2-.18-.57-.28.26-.05.6-.18.89-.3.05.25-.05.55-.32.58m1.5 1.58c-.27.12-.48-.12-.53-.28-.05-.16-.1-.3-.03-.36.12-.11.15-.2.08-.35-.08-.17-.26-.09-.45-.04.09-.16.1-.28-.02-.26-.14.02-.15.25-.23.22-.08-.03-.04-.16-.04-.23 0-.1.06-.14.17-.18l.78-.3c.1-.04.17-.06.24.01.05.05.18.12.14.19-.04.08-.2-.09-.32 0-.1.07-.01.15.16.2-.17.1-.35.17-.29.34.05.15.14.19.3.19.09 0 .15.13.22.28.08.17.1.45-.18.57m.04-2.19c-.21.17-.49.01-.62-.2.29-.12.62-.25.85-.39-.2.32-.06.46-.23.59"/></defs><clipPath id="SVGID_108_"><use xlink:href="#SVGID_107_" overflow="visible"/></clipPath><path class="st53" d="M2.62-1.18h18.94V23.7H2.62z"/><defs><path id="SVGID_109_" d="M31.38 16.18c0 .36.29.65.65.65.36 0 .65-.29.65-.65 0-.36-.29-.65-.65-.65-.36 0-.65.29-.65.65m.17 0c0-.27.22-.48.48-.48s.48.22.48.48c0 .27-.21.48-.48.48a.48.48 0 0 1-.48-.48"/></defs><clipPath id="SVGID_110_"><use xlink:href="#SVGID_109_" overflow="visible"/></clipPath><path class="st54" d="M26.59 10.73h10.88v10.88H26.59z"/><defs><path id="SVGID_111_" d="M28.96 16.77a.36.36 0 0 0-.16.24c-.02.11.02.23.1.32s.19.15.32.18c.13.02.26.01.37-.05.11-.06.19-.15.2-.27.04-.23-.15-.45-.42-.5-.15-.02-.3.01-.41.08m.29.58c-.19-.03-.32-.17-.29-.31.01-.07.05-.11.09-.13.08-.05.18-.07.29-.05.16.03.29.15.29.28v.03c-.02.13-.19.21-.38.18"/></defs><clipPath id="SVGID_112_"><use xlink:href="#SVGID_111_" overflow="visible"/></clipPath><path class="st55" d="M24 11.89h10.59v10.43H24z"/><defs><path id="SVGID_113_" d="M25.38 7.66c-.2.16-.26.42-.13.59.13.17.4.17.6.02.11-.08.18-.21.2-.33.01-.1-.01-.19-.07-.26a.337.337 0 0 0-.23-.13.49.49 0 0 0-.37.11m-.03.38c0-.08.05-.18.14-.25.08-.06.17-.09.25-.08.04.01.09.02.12.06.03.05.04.1.03.14-.01.08-.06.16-.14.22-.12.1-.29.11-.37.01a.169.169 0 0 1-.03-.1"/></defs><clipPath id="SVGID_114_"><use xlink:href="#SVGID_113_" overflow="visible"/></clipPath><path class="st56" d="M20.39 2.75h10.46v10.42H20.39z"/><defs><path id="SVGID_115_" d="M28.2 15.69c-.1.09-.15.24-.16.39v.01c0 .15.05.29.14.38.07.08.16.12.26.12s.19-.04.27-.11c.1-.09.15-.24.16-.39 0-.13-.04-.26-.11-.36a.38.38 0 0 0-.3-.16c-.09.01-.19.05-.26.12m.25.74c-.07 0-.12-.04-.14-.07-.07-.06-.1-.17-.1-.28 0-.11.04-.21.11-.27.03-.03.08-.07.15-.06.14 0 .25.16.24.35 0 .11-.04.21-.11.27-.03.03-.08.06-.15.06"/></defs><clipPath id="SVGID_116_"><use xlink:href="#SVGID_115_" overflow="visible"/></clipPath><path class="st57" d="M23.25 10.79h10.42v10.6H23.25z"/><defs><path id="SVGID_117_" d="M25.02 10.44c-.1.03-.18.1-.22.19-.1.21.03.48.27.6.14.07.29.08.42.03a.364.364 0 0 0 .23-.48.503.503 0 0 0-.29-.3.537.537 0 0 0-.41-.04m.13.64c-.17-.08-.26-.25-.2-.37.03-.06.08-.09.12-.1.09-.03.2-.02.29.03.1.05.17.13.2.21.01.04.03.1 0 .16s-.08.09-.12.11a.44.44 0 0 1-.29-.04"/></defs><clipPath id="SVGID_118_"><use xlink:href="#SVGID_117_" overflow="visible"/></clipPath><path class="st58" d="M19.98 5.63h10.57v10.46H19.98z"/><defs><path id="SVGID_119_" d="M31.84 9.78c.21.58.63.79.95.64-.72-.08-.14-1.31-1.06-1.31-.05 0-.1.01-.15.02-.16-.17-.34-.24-.6-.24-.39 0-1.06.38-1.06 1.16 0 1.67 1.94 1.82 1.94 3.3 0 .43-.33.7-.69.7-.33 0-.59-.37-.87-.94-.13-.28-.41-.65-.71-1.04.09.06.19.1.29.1.1 0 .2-.03.27-.1.07-.06.11-.16.12-.26v-.02c0-.13-.06-.27-.16-.38a.545.545 0 0 0-.38-.18c-.1 0-.2.03-.27.1s-.11.16-.11.26v.02c0 .06.01.12.03.17-.42-.55-.81-1.08-.81-1.38 0-.26.18-.49.4-.76.01.01.08.04.08.04l.06-.06c.08-.09.24-.27.58-.62l.02-.02.08-.09-.21-.17c.05-.13.1-.26.14-.41.07.27.2.44.39.39-.13-.28.13-.65-.04-1.33.16.27.39.4.55.35-.43-.38.13-.92-.43-1.74.18.06.3.03.39-.06-.51-.07-.28-.73-1.18-.96.22-.04.35-.17.32-.29-.24.17-.44-.32-1.22-.31-.05-.29-.32-.6-.62-.75.06.23.01.43-.05.6l-2.53-2.5c-.07-.07-.12-.08-.14-.06-.02.03-.02.07.03.13l2.18 2.73c-.16.06-.32.13-.49.19-.11.04-.19.15-.19.28-.4.2-.76.45-.93.61-.13.12-.24.15-.12.43.04.1-.09.36.22.17.21-.12.68-.38.75-.22.04.08-.19.19-.35.25-.16.06-.33.19-.31.25.02.06.15 0 .16.06.01.07.06.14.12.14s.14-.13.2-.09c.05.04-.03.34-.08.42.25-.03.4-.27.41-.45.01-.18.06-.23.09-.25.04-.03.08.19.03.33.13-.03.26-.2.25-.52.07-.05.13-.09.18-.09.08 0 .25.23.48.23.43 0 .67-.35.7-.51.02-.13.01-.26-.06-.36.15.13.2.32.2.46 0 .61-1.08.9-1.52 1.32-.02.01-.03.03-.05.04l-.51-.2-.03.11c0 .01-.01.02-.03.09-.05.17-.16.54-.23.75l-.03.08.04.03c-.3.4-.54.85-.6 1.31-.12-.13-.24-.23-.37-.34 0-.03.01-.08.01-.13a.493.493 0 0 0-.12-.36.37.37 0 0 0-.23-.12c-.09 0-.18.03-.25.09l-.04.04c-.02-.01-.04-.03-.05-.04-.17-.13-.37-.28-.5-.42-.05-.06-.11-.09-.22-.09-.04 0-.15-.01-.23-.01-.07 0-.12.06-.2.13-.04.04-.16.13-.29.23.06.06.12.13.18.2.03.04.07.07.1.11.04-.03.06-.05.09-.07.05-.05.12-.06.19-.06s.16.05.22.15c.05.07.46.61.8.98-.04.01-.07.03-.11.04-.14.06-.47.05-.62.04-.15-.01-.17-.05-.27.11-.04.06-.09.13-.14.19-.05.06-.09.13.02.3.15.25.52.92.64 1.22.12.3.27.35.51.44.24.1.64.33.69.39l.02-.23c-.07-.07-.3-.16-.38-.19-.08-.03-.11-.07-.01-.07s.39.1.59.19c-.06-.23-.27-.48-.4-.62-.17-.05-.34-.05-.41.01.01.05-.03.11-.1.11s-.11-.06-.09-.12c.02-.07.12-.09.1-.22-.02-.13-.18-.15-.29-.16-.14-.21-.31-.52-.39-.64-.08-.12-.03-.19.02-.24.12-.1.38.05.9.09.18.01.41.02.64.03.07.6.31 1.17 1.14 1.38.41.1.83.4.97.79-1.67-.03-1.93.62-1.93 1.23 0 .7.59.66.59 1.18 0 .46-1.4.65-1.82.71-.36.05-.56.13-.73.3-.17.17-.35.34-.66.65 0 0 .13.03.27.02l.24-.31c.07-.1.12-.19.16-.18.05.01.02.09-.04.2l-.19.33c.82.06.88-.25.88-.38 0-.12-.2-.21-.09-.29.12-.08.22-.02.31.09s.12.2.35.12c0 0 1.79-.74 2.02-.85.2-.09.14-.18.02-.28-.15-.09-.17-.27-.17-.45 0-.54.32-.71.91-.7-.01.09-.02.18-.02.26 0 .85 1.28 1.67 1.62 1.67.15 0 .36-.12.37.4.01.37.08.64.02 1.07-.07.43-.19.5-.45.68-.26.18-.51.76-.62.88.12.08.24.09.34-.19.08-.23.17-.4.27-.45-.1.25-.18.63-.22.74.33.06.86-.24.86-.47 0-.23-.18-.21-.18-.37 0-.07.08-.14.18-.14.13 0 .23.1.24.15.14-.08.24-.22.23-.56 0-.13-.01-.27-.01-.41l.03.06a.4.4 0 0 0 .3.17c.12.01.25-.02.36-.1a.53.53 0 0 0 .24-.34c.01-.03.01-.06.01-.08a.372.372 0 0 0-.3-.36c-.13-.03-.28 0-.41.09a.6.6 0 0 0-.24.31c-.03-.46-.06-.89-.05-1.07.02-.26.03-.37-.06-.41-.09-.04-.18.11-.31.11s-.5-.35-.5-.71c0-.37.39-.84.37-1.34-.01-.16.09-.24.15-.1.08.17.19.4.36.59-.11.63.59 1.24 1.16.79-.28.04-.47-.21-.6-.46.05.01.1.01.15.01h.09c.2.25.83.23 1-.39-.11.13-.34.23-.51.2.24-.19.36-.49.36-.82 0-1.6-1.94-1.78-1.94-3.24 0-.54.47-.89.8-.89.13 0 .22.04.3.1-.13.13-.19.32-.18.55.05 1.15 1.92 1.09 1.95 1.64.22-.82-1.18-.56-1.23-1.68zm-4.98-4.41c.09-.17 0-.44.32-.44.16 0 .3.15.48.21-.31.04-.58.11-.8.23zm-1.71 3.52c0 .09-.04.18-.1.23-.03.02-.07.05-.12.05-.11-.01-.19-.13-.19-.28v-.02c0-.09.04-.18.1-.23.03-.02.07-.05.13-.05.05 0 .09.03.12.06.03.06.06.15.06.24zm5.53 8.07a.4.4 0 0 1 .17-.24c.09-.06.2-.08.29-.06.04.01.1.03.14.09.04.05.03.11.03.16a.4.4 0 0 1-.17.24c-.16.1-.35.09-.42-.02-.05-.07-.05-.14-.04-.17zm-1.17-5.36c0-.04.01-.1.06-.15.05-.05.11-.06.15-.06.09 0 .19.05.26.13s.12.18.11.27c0 .04-.01.1-.06.15-.03.06-.1.06-.14.06-.09 0-.19-.05-.26-.13a.373.373 0 0 1-.12-.27zM26.34 8c.09-.28.26-.84.26-.84l.29.12c-.09.03-.19.11-.28.2.07.03.19.04.27-.02l-.12.3c-.03-.05-.11-.15-.19-.17-.06.24.09.33.2.38.18.09.3.11.35.02.06-.1-.06-.24-.21-.18-.02-.16.07-.24.17-.24.08 0 .15.07.17.17-.01-.25.1-.45.33-.52.09.24.02.41-.17.59.1-.04.21-.03.25.03.05.08.04.2-.1.28-.03-.16-.22-.17-.27-.07-.05.1.03.2.19.3.19.11.35.04.45-.12-.06-.02-.17-.01-.27.05l.2-.37c.01.05.04.14.12.21.03-.08.07-.23.01-.36l.42.25c-.14.01-.25.12-.3.19.1.03.2.02.25 0l-.22.35c0-.12-.04-.22-.09-.26-.09.17-.07.34.12.45.16.1.29.12.35.02.06-.1-.04-.25-.2-.2-.01-.16.09-.23.19-.23.08.01.14.1.16.2.06-.25.17-.39.42-.44.05.23-.06.43-.28.55.1-.03.2-.01.24.06.05.09.02.2-.12.27-.02-.16-.2-.19-.26-.09-.05.09.03.18.19.29.1.07.25.15.43-.02-.06-.06-.19-.08-.25-.08l.2-.25c-.02.08.05.18.1.23.03-.12.05-.25.03-.34l.25.2s-.4.43-.6.65L26.34 8zm2.62 6.61c-.11.15-.29.2-.41.12-.12-.08-.13-.27-.02-.42.1-.15.29-.2.41-.12.12.08.13.27.02.42zm.76-1.2c-.1.15-.29.2-.41.12-.12-.08-.13-.27-.02-.42.11-.15.29-.2.41-.12.12.07.13.26.02.42z"/></defs><clipPath id="SVGID_120_"><use xlink:href="#SVGID_119_" overflow="visible"/></clipPath><path class="st59" d="M18.39-3.15H37.9v26.9H18.39z"/><defs><path id="SVGID_121_" d="M83.46 16.21c1.37 0 2.48-1.08 2.48-3.01 0-1.94-1.11-3.02-2.48-3.02s-2.48 1.08-2.48 3.02c0 1.93 1.11 3.01 2.48 3.01m0-7.18c2.52 0 3.86 1.83 3.86 4.18 0 2.33-1.34 4.16-3.86 4.16-2.52 0-3.86-1.83-3.86-4.16 0-2.34 1.34-4.18 3.86-4.18"/></defs><clipPath id="SVGID_122_"><use xlink:href="#SVGID_121_" overflow="visible"/></clipPath><path class="st60" d="M74.81 4.24h17.31v17.92H74.81z"/><defs><path id="SVGID_123_" d="M41.07 5.83h1.53v4.96h6.07V5.83h1.53v11.54h-1.53v-5.29H42.6v5.29h-1.53z"/></defs><clipPath id="SVGID_124_"><use xlink:href="#SVGID_123_" overflow="visible"/></clipPath><path class="st61" d="M36.27 1.04h18.72v21.13H36.27z"/><defs><path id="SVGID_125_" d="M52.33 5.83h2.1l3.63 9.7 3.65-9.7h2.1v11.54h-1.46v-9.6h-.03l-3.6 9.6h-1.31l-3.6-9.6h-.03v9.6h-1.45z"/></defs><clipPath id="SVGID_126_"><use xlink:href="#SVGID_125_" overflow="visible"/></clipPath><path class="st62" d="M47.54 1.04H68.6v21.13H47.54z"/><defs><path id="SVGID_127_" d="M74 5.59l.64.02.64.09.6.16.55.2.5.26.47.33.39.4.35.46.31.53.22.6.16.68h-1.5l-.13-.53-.22-.46-.29-.4-.33-.33-.4-.29-.44-.2-.46-.15-.53-.09-.53-.02-.66.04-.57.16-.53.22-.44.28-.42.36-.33.42-.29.48-.22.51-.17.53-.13.57-.07.6-.02.59.02.64.11.62.15.57.25.56.28.5.35.47.42.37.49.33.53.22.59.16.66.06.66-.06.6-.14.55-.22.48-.28.4-.38.35-.42.25-.48.19-.53.09-.55.02-.62H74v-1.26h4.94v5.94h-.95l-.4-1.42-.39.47-.47.37-.5.31-.53.24-.57.16-.55.09-.58.04-.81-.07-.75-.15-.68-.26-.64-.34-.55-.44-.51-.48-.42-.55-.35-.62-.27-.64-.19-.68-.14-.71-.04-.73.04-.75.09-.73.16-.68.22-.66.28-.62.35-.57.42-.53.47-.44.55-.4.59-.31.66-.22.73-.15.79-.05z"/></defs><clipPath id="SVGID_128_"><use xlink:href="#SVGID_127_" overflow="visible"/></clipPath><path class="st63" d="M63.86.8h19.87v21.36H63.86z"/><defs><path id="SVGID_129_" d="M91.65 17.37h-1.41l-2.96-8h1.46l2.25 6.67h.03l2.17-6.67h1.38z"/></defs><clipPath id="SVGID_130_"><use xlink:href="#SVGID_129_" overflow="visible"/></clipPath><path class="st64" d="M82.48 4.58h16.88v17.58H82.48z"/><defs><path id="SVGID_131_" d="M100.6 14.65c-.23 1.04-.99 1.56-2.07 1.56-1.74 0-2.53-1.23-2.48-2.62h5.96c.08-1.93-.79-4.56-3.61-4.56-2.17 0-3.74 1.76-3.74 4.15.08 2.44 1.28 4.2 3.82 4.2 1.79 0 3.05-.96 3.41-2.72h-1.29zm-4.55-2.22c.09-1.22.91-2.25 2.28-2.25 1.29 0 2.23 1 2.29 2.25h-4.57z"/></defs><clipPath id="SVGID_132_"><use xlink:href="#SVGID_131_" overflow="visible"/></clipPath><path class="st65" d="M89.87 4.23h16.94v17.93H89.87z"/><defs><path id="SVGID_133_" d="M103.09 17.37h1.31v-3.55c0-2.02.77-3.22 2.88-3.22V9.21c-1.42-.05-2.3.59-2.93 1.87h-.03V9.39h-1.23v7.98z"/></defs><clipPath id="SVGID_134_"><use xlink:href="#SVGID_133_" overflow="visible"/></clipPath><path class="st66" d="M98.3 4.41h13.78v17.75H98.3z"/><defs><path id="SVGID_135_" d="M111.95 9.24l.58.02.52.11.41.17.37.22.28.3.21.32.17.39.11.41.07.48.02.49v5.22h-1.29V12l-.07-.47-.13-.39-.23-.3-.33-.24-.41-.15-.45-.07-.49.05-.46.1-.36.2-.33.24-.25.28-.2.34-.15.41-.08.41-.03.47v4.49h-1.31V9.41h1.23v1.28h.02l.32-.46.35-.36.41-.28.45-.2.51-.11.54-.04z"/></defs><clipPath id="SVGID_136_"><use xlink:href="#SVGID_135_" overflow="visible"/></clipPath><path class="st67" d="M103.33 4.45h16.15v17.71h-16.15z"/><defs><path id="SVGID_137_" d="M133.56 14.65c-.23 1.04-.99 1.56-2.07 1.56-1.74 0-2.53-1.23-2.48-2.62h5.96c.08-1.93-.79-4.56-3.61-4.56-2.17 0-3.74 1.76-3.74 4.15.08 2.44 1.28 4.2 3.82 4.2 1.79 0 3.05-.96 3.41-2.72h-1.29zm-4.54-2.22c.09-1.22.91-2.25 2.28-2.25 1.29 0 2.23 1 2.29 2.25h-4.57z"/></defs><clipPath id="SVGID_138_"><use xlink:href="#SVGID_137_" overflow="visible"/></clipPath><path class="st68" d="M122.84 4.23h16.94v17.93h-16.94z"/><defs><path id="SVGID_139_" d="M139.94 9.24l.58.02.51.11.41.17.37.22.28.3.21.32.18.39.1.41.07.48.02.49v5.22h-1.29V12l-.07-.47-.13-.39-.23-.3-.33-.24-.4-.15-.46-.07-.49.05-.45.1-.37.2-.32.24-.26.28-.2.34-.15.41-.08.41-.02.47v4.49h-1.32V9.41h1.23v1.28h.02l.32-.46.35-.36.41-.28.45-.2.52-.11.54-.04z"/></defs><clipPath id="SVGID_140_"><use xlink:href="#SVGID_139_" overflow="visible"/></clipPath><path class="st69" d="M131.31 4.45h16.15v17.71h-16.15z"/><defs><path id="SVGID_141_" d="M115.39 9.38h1.23v1.17h.03c.59-.9 1.48-1.36 2.58-1.36.97 0 1.87.39 2.19 1.36a2.95 2.95 0 0 1 2.5-1.36c1.59 0 2.65.66 2.65 2.32v5.85h-1.31v-5.24c0-.99-.26-1.78-1.54-1.78-1.26 0-2.08.8-2.08 2.04v4.97h-1.31v-5.24c0-1.04-.32-1.78-1.5-1.78-1.56 0-2.13 1.44-2.13 2.04v4.97h-1.31V9.38z"/></defs><clipPath id="SVGID_142_"><use xlink:href="#SVGID_141_" overflow="visible"/></clipPath><path class="st70" d="M110.6 4.41h20.77v17.76H110.6z"/><defs><path id="SVGID_143_" d="M146.15 9.38h1.59v1.16h-1.59v4.96c0 .6.17.71.99.71h.6v1.16h-1c-1.36 0-1.9-.28-1.9-1.75v-5.08h-1.36V9.38h1.36V6.99h1.31v2.39z"/></defs><clipPath id="SVGID_144_"><use xlink:href="#SVGID_143_" overflow="visible"/></clipPath><path class="st71" d="M138.69 2.2h13.84v19.97h-13.84z"/><path class="st72" d="M174.7 54.06V31.9h4.43v22.16h-4.43zm15.07.35c-3.7 0-6.93-1.55-8.61-4.02l3.2-2.85c1.55 1.8 3.55 2.53 5.67 2.53 2.63 0 3.86-.73 3.86-2.41 0-1.42-.76-2.06-4.94-3.01-4.08-.95-6.93-2.25-6.93-6.62 0-4.02 3.55-6.49 7.92-6.49 3.45 0 5.98 1.3 8.07 3.48l-3.2 3.1c-1.42-1.46-3.01-2.28-5.03-2.28-2.37 0-3.17 1.01-3.17 1.99 0 1.39.95 1.84 4.46 2.66 3.51.82 7.41 2.03 7.41 6.84 0 4.23-2.66 7.08-8.71 7.08zM.87 54.05V31.66h15.54v4.38H5.34v3.87h6.43v4.35H5.34v5.41h11.55v4.38H.87zm30.89 0l-2.02-3.39a97.68 97.68 0 0 1-2.43-4.38c-.38.83-1.6 2.97-2.43 4.38l-2.01 3.39h-5.34l7.1-11.45-6.78-10.94h5.34l1.7 2.88c.8 1.34 2.02 3.55 2.43 4.38.42-.83 1.6-2.97 2.43-4.38l1.7-2.88h5.34L29.97 42.6l7.13 11.45h-5.34zm15.93-7.93h-4.93v7.93h-4.48V31.66h9.79c4.22 0 7.71 2.33 7.71 7.1 0 5.18-3.46 7.36-8.09 7.36zm.22-10.11h-5.15v5.76h5.21c2.08 0 3.2-.96 3.2-2.91s-1.28-2.85-3.26-2.85zM67.1 54.4c-5.85 0-9.85-4.29-9.85-11.51 0-7.23 4.06-11.58 9.91-11.58 5.82 0 9.82 4.29 9.82 11.51 0 7.23-4.06 11.58-9.88 11.58zm-.03-18.64c-3.13 0-5.21 2.53-5.21 7.07 0 4.54 2.17 7.13 5.31 7.13 3.13 0 5.21-2.53 5.21-7.07-.01-4.54-2.18-7.13-5.31-7.13zm24.94 18.29l-4-8.06H83.5v8.06h-4.48V31.66h10.43c4.22 0 7.71 2.33 7.71 7.1 0 3.36-1.44 5.47-4.29 6.59l4.29 8.7h-5.15zm-2.65-18.04H83.5v5.76h5.85c2.08 0 3.2-.96 3.2-2.91 0-2.02-1.21-2.85-3.19-2.85zm19.66.06v17.97h-4.48V36.07h-6.43v-4.41h17.33v4.41h-6.42zm8.26 17.98V31.66h4.48v22.39h-4.48zm20.69 0l-8.22-12.22c-.54-.83-1.28-1.95-1.57-2.53 0 .83.06 3.65.06 4.89v9.85h-4.41V31.66h4.29l7.93 11.83c.54.83 1.28 1.95 1.57 2.53 0-.83-.06-3.65-.06-4.89v-9.47h4.41v22.39h-4zm15.54.35c-5.85 0-9.79-4.48-9.79-11.55 0-6.81 4.09-11.55 9.95-11.55 4.57 0 7 2.14 8.47 5.6l-4.25 1.76c-.83-1.66-1.86-2.91-4.29-2.91-3.36 0-5.28 2.94-5.28 7.1 0 4.13 1.95 7.16 5.31 7.16 3.07 0 4.13-1.44 4.38-3.39h-3.55v-4.19h8.03v2.94c.01 5.77-3.8 9.03-8.98 9.03z"/><path class="st73" d="M208.84 27.53h106.31v30.86H208.84z"/><path class="st72" d="M227.31 46.03h-3.58v-4.15h8.01v3.58c0 5.7-3.77 8.93-8.9 8.93-5.8 0-9.69-4.44-9.69-11.44 0-6.75 4.06-11.43 9.85-11.43 4.53 0 6.94 2.12 8.39 5.54l-4.21 1.74c-.82-1.65-1.84-2.88-4.24-2.88-3.33 0-5.23 2.91-5.23 7.03 0 4.09 1.93 7.1 5.26 7.1 3.66 0 4.2-2.28 4.34-3.36.03-.28.04-.43.04-.67m29.41 8.03V31.87h15.39v4.34h-10.96v4.59h8.22v4.31h-8.22v4.6h10.96v4.34zm25.46-8.94c1.31-3.74 2.56-7.32 2.66-7.7.1.38 1.35 3.96 2.66 7.7h-5.32zm8.46 8.94h4.88l-8.43-22.18h-4.31l-8.49 22.18h4.75s.72-2.06 1.66-4.72h8.27c.94 2.66 1.67 4.72 1.67 4.72m13.78-17.81v17.81h-4.44V36.24h-6.36v-4.37h17.17v4.37zM253.4 38.9c0-4.72-3.45-7.03-7.63-7.03h-10.33v22.18h4.43v-7.99h4.47l3.96 7.99h5.1l-4.25-8.62c2.83-1.11 4.25-3.2 4.25-6.53zm-7.73 2.98h-5.8v-5.7h5.8c1.96 0 3.17.82 3.17 2.82 0 1.93-1.11 2.88-3.17 2.88zm-34.5 26h-2.34v-5.15h2.36c1 0 1.63.48 1.63 1.36 0 .44-.21.79-.54 1 .41.18.72.56.72 1.12 0 1.09-.73 1.67-1.83 1.67zm-.02-4.2h-1.31v.98h1.36c.43 0 .58-.2.58-.49 0-.32-.18-.49-.63-.49zm.06 1.89h-1.37v1.33h1.37c.5 0 .73-.26.73-.67 0-.44-.23-.66-.73-.66zm5.46 2.31l-.92-1.85h-1.04v1.85h-1.03v-5.15h2.39c.97 0 1.77.54 1.77 1.63 0 .77-.33 1.26-.98 1.52l.98 2h-1.17zm-.61-4.15h-1.34v1.32h1.34c.48 0 .73-.22.73-.67 0-.46-.28-.65-.73-.65zm2.58 4.15v-5.15h1.03v5.15h-1.03zm4.08-4.14v4.13h-1.03v-4.13h-1.48v-1.01h3.98v1.01h-1.47zm4.68 4.14l-.4-1.15h-1.88l-.4 1.15h-1.1l1.97-5.15h1l1.95 5.15h-1.14zm-1.09-3.06c-.1-.3-.21-.61-.26-.8-.05.19-.15.5-.26.8l-.33.93h1.18l-.33-.93zm2.88 3.06v-5.15h1.03v5.15h-1.03zm5.16 0l-1.89-2.81c-.12-.19-.29-.45-.36-.58 0 .19.01.84.01 1.13v2.26h-1.01v-5.15h.98l1.82 2.72c.13.19.29.45.36.58 0-.19-.02-.84-.02-1.13v-2.18h1.01v5.15h-.9zm7.15 0l-.39-.42c-.4.33-.9.5-1.5.5-1.05 0-1.69-.44-1.69-1.37 0-.72.4-1.15 1.05-1.48l-.13-.15c-.27-.3-.45-.63-.45-1.04 0-.84.66-1.27 1.53-1.27.63 0 1.04.19 1.54.54l-.49.74c-.34-.26-.71-.37-1.07-.37-.3 0-.48.12-.48.34 0 .22.11.37.27.56l1.42 1.62c.12-.24.24-.51.36-.85l.83.26c-.16.5-.35.93-.58 1.29l.97 1.1h-1.19zm-1.99-2.17c-.4.21-.57.48-.57.79 0 .33.26.54.78.54.32 0 .58-.07.79-.23l-1-1.1zm8.55 2.17l-1.89-2.81c-.12-.19-.29-.45-.36-.58 0 .19.02.84.02 1.13v2.26h-1.01v-5.15h.98l1.82 2.72c.12.19.29.45.36.58 0-.19-.02-.84-.02-1.13v-2.18h1.01v5.15h-.91zm3.84.08c-1.4 0-2.23-1.09-2.23-2.65 0-1.57.83-2.65 2.23-2.65s2.23 1.09 2.23 2.65c0 1.56-.83 2.65-2.23 2.65zm0-4.29c-.83 0-1.18.71-1.18 1.63 0 .92.35 1.63 1.18 1.63s1.18-.71 1.18-1.63c-.01-.92-.35-1.63-1.18-1.63zm5.9 4.21l-.92-1.85h-1.04v1.85h-1.03v-5.15h2.4c.97 0 1.77.54 1.77 1.63 0 .77-.33 1.26-.98 1.52l.98 2h-1.18zm-.61-4.15h-1.34v1.32h1.34c.48 0 .73-.22.73-.67 0-.46-.28-.65-.73-.65zm4.5.01v4.13h-1.03v-4.13h-1.48v-1.01h3.98v1.01h-1.47zm5.09 4.14v-2.16h-2.11v2.16h-1.03v-5.15h1.03v1.97h2.11v-1.97h1.03v5.15h-1.03zm1.99 0v-5.15h3.57v1.01h-2.54v.89h1.48v1h-1.48v1.24h2.65v1.01h-3.68zm7.39 0l-.92-1.85h-1.04v1.85h-1.03v-5.15h2.39c.97 0 1.77.54 1.77 1.63 0 .77-.33 1.26-.98 1.52l.98 2h-1.17zm-.61-4.15h-1.34v1.32h1.34c.48 0 .74-.22.74-.67-.01-.46-.29-.65-.74-.65zm5.75 4.15l-1.89-2.81c-.12-.19-.29-.45-.36-.58 0 .19.01.84.01 1.13v2.26h-1.01v-5.15h.98l1.82 2.72c.12.19.29.45.36.58 0-.19-.02-.84-.02-1.13v-2.18h1.01v5.15h-.9zm4 0v-5.15h1.03v5.15h-1.03zm5.04 0l-.92-1.85h-1.04v1.85h-1.03v-5.15h2.39c.97 0 1.77.54 1.77 1.63 0 .77-.33 1.26-.98 1.52l.98 2h-1.17zm-.61-4.15h-1.35v1.32h1.35c.48 0 .73-.22.73-.67.01-.46-.27-.65-.73-.65zm2.66 4.15v-5.15h3.57v1.01h-2.54v.89h1.48v1h-1.48v1.24h2.65v1.01h-3.68zm4.4 0v-5.15h1.03v4.13h2.58v1.02h-3.61zm7.61 0l-.4-1.15h-1.88l-.4 1.15h-1.1l1.97-5.15h1l1.95 5.15h-1.14zm-1.08-3.06c-.1-.3-.21-.61-.26-.8-.05.19-.16.5-.26.8l-.33.93h1.17l-.32-.93zm5.9 3.06l-1.89-2.81a7.97 7.97 0 0 1-.36-.58c0 .19.02.84.02 1.13v2.26h-1.01v-5.15h.98l1.82 2.72c.12.19.29.45.36.58 0-.19-.02-.84-.02-1.13v-2.18h1.01v5.15h-.91zm3.27 0h-1.54v-5.15h1.61c1.47 0 2.56.69 2.56 2.57 0 1.81-1.31 2.58-2.63 2.58zm.03-4.15h-.54v3.15h.51c1.08 0 1.57-.63 1.57-1.57 0-1.06-.45-1.58-1.54-1.58zm5.05-36.18h6.6v30.86h-6.6z"/><path class="st74" d="M323.94 58.41l-3.32-6.67v6.67zM321 45.52l3.18 6.36v-6.36zm.05-5.15h3.13V34.1zm-.43-12.82v6.66l3.32-6.66h-3.32z"/><path class="st75" d="M320.62 45.9v2.4l3.56 7.16v-2.39zm0-10.5v2.39l3.56-7.16v-2.4z"/><path class="st76" d="M319.61 58.41v-13.9h4.57v-3.13h-4.57V27.55h-2.04v30.86z"/></svg>