<?xml version="1.0" encoding="utf-8"?>
<!-- Generator: Adobe Illustrator 21.0.2, SVG Export Plug-In . SVG Version: 6.00 Build 0)  -->
<svg version="1.1" id="Layer_2" xmlns="http://www.w3.org/2000/svg" xmlns:xlink="http://www.w3.org/1999/xlink" x="0px" y="0px"
	 width="230px" height="210px" viewBox="0 0 230 210" style="enable-background:new 0 0 230 210;" xml:space="preserve">
<style type="text/css">
	.st0{fill:#999999;}
	.st1{fill:#160D37;}
	.st2{fill:#1E1348;}
	.st3{opacity:0.26;fill:#160D37;}
	.st4{fill:#FFFFFF;}
	.st5{fill:#B00D23;}
</style>
<g>
	<g>
		<path class="st0" d="M211.02,51.74l1.23,0.88h1.15v-2.21l3.62-0.35l3.44,2.56h5.65l0.4-0.36c-0.57-1.91-1.2-3.78-1.92-5.61
			l-3.69,0.06l-1.85-2.03l-0.36-3.27l-1.9,1.03l-1.02,3.99l-2.74-2.91l-0.11-2.75l-2.64-2.28l-0.97-0.97h-3.06l0.96,2.73l3.69,2.06
			l0.64,0.68l-0.8,0.4l0.04,2.17l-1.8,0.75l-1.53-0.34l-0.96-1.36l2.5,0.13l0.67-0.91l-5.53-3.73l-0.43-1.59l-2.25,2.03l-2.28-0.47
			l-3.46,4.51l-0.68,1.76l-2.22,0.2l-3.28,0.02l-1.96-0.92l-0.58-3.9l0.71-1.86l3.34-0.73l3.64,0.73l0.45-2.01l-1.55-0.37l0.53-3.14
			l3.66-0.57l2.56-3.62l2.65-0.44l2.39,0.35h0.88l-0.49-3.4l-2.9,1.17l-1.02-2.54l-1.68-0.23l-0.32-1.74l1.37-1.5l3.27-1.28
			l0.84-1.5c-12.49-11-28.86-17.7-46.77-17.7c-15.54,0-29.92,5.04-41.62,13.57l3.57-0.03l1.59,0.88l3,0.65l0.23,1.18l4.77,0.18
			l-0.65-1.53l-4.24-0.12l1-0.94l-0.35-1.12h-3.83l4.18-3.12h4l1.88,2.59l3.12,0.18l1.88-1.83l1.41,0.71l-2.59,2.53
			c0,0-3.59,0.06-3.41,0.06c0.18,0,0.3,2.47,0.3,2.47l4.35-0.12l0.47-1.17l3-0.18l0.35-1.76l-1.76-0.3l0.59-1.59l1.35-0.41
			l4.71,0.23l-2.6,2.36l0.42,1.82l2.71,0.41l-0.18-3.3l2.59-1.36l4.59-0.53l6.65,2.94v2.53l2.12,0.53l-1.06,2h-3l-0.89,2.29
			l-6.85-1.62l5.39-2.87l-2.05-1.75l-4.65,0.59l-0.41,0.42l-0.02-0.01l-0.07,0.1l-1.34,1.39l-2.21,0.18l0.18,1.1l0.77,0.32
			l-0.03,0.36l-1.8,0.26L144,21.63l-1.72,0.09l-0.31-2.08l-3.09,0.94l-6.31,3.7l0.71,2.6l1.76,1.15l3.53,0.49v4.01l1.63-0.26
			l1.5-3.14l3.75-1.19v-4.81l2.09-1.58l5.05,1.19l-0.35,3.18h1.36l3.71-1.82l0.18,4.18l2.7,1.65l-0.11,2.48l-2.59,0.88l0.18,0.82
			l3.12,1.42l-0.06,1.71l-0.9,0.08c0-0.03-0.01-0.05-0.01-0.05l-3.94-1.21l-0.17-1.26h0l1.15-0.79v-1.15l-1.24-0.31l-0.31,1.06
			l-2.17,0.34l-0.22-0.07v0.11l-0.75,0.11l-0.61-1.24l-0.71-0.31h-1.55l-0.7,0.58v1.28l1.32,0.44l1.31,0.18l-0.29,0.13l-1.19,1.32
			l-0.52-0.66l-1.15-0.3l-3.14,2.95l0.41,0.34l-4.63,2.57l-4.36,4.53l-0.3,2.02l-4.37,2.87l-2.17,2.18l0.24,4.35l-3-1.4l0.02-2.55
			l-8.36,0l-4.33,2.19l-1.88,3.46l-0.75,2.75l1.22,2.66l3.41,0.42l5.42-3.62l0.47,1.8l-1.65,3.12l4.12,0.71l0.41,6.37l5.65,0.96
			l3.59-4.15l4.36,0.89l1.53,2.13l4.18-0.25l0.12-1.23l2.3,1.11l2.59,4.06l4.47,0.06l1.65,2.89l0.23,3.53l4.95,1.88l6.24,0.06
			l1.83,3l2.77,0.89l-0.53,2.48l-3.03,3.85l-0.88,8.53l-2.74,2.16l-4.06-0.12l-1.35,2.35l1,4.42l-4.42,5.65l-1.41,2.59l-4.21,2.02
			l-2.77,0.42l-0.11,1.17l1.94,0.56l-0.23,1.27l-1.74,1.68l1.06,1.33l2.09,0.06l-0.12,1.61l-0.56,1.59l-0.18,1.29l3.1,2.61
			l-0.41,1.36l-4.22-0.08l-4.19-3.66l-3.27-5.74l0.46-5.54l-2.47-3.3l1-5.59l-1.47-0.41v-12.13c0,0-4.12-3.12-4.36-3.12
			s-2.18-0.53-2.18-0.53l-0.41-2.29l-5.36-6.71l0.53-2.41l0.18-3.95l3.71-2.59l-0.53-4.42l-5.41-0.41l-4.24-4.83l-3-0.83l-1.94-0.36
			l0.23-1.76l-2.47-0.35v1l-6.18-1.54l-2.49-3.81l1.01-1.84l-3.91-5.71l-0.67-4.18H98.5l0.53,4.06l2.71,4.18l-0.3,1.65l-2.29-0.35
			l-2.82-4.81v-5.6l-2.94-1.41V44.5c-3.63,8.52-5.65,17.89-5.65,27.72c0,39.06,31.78,70.84,70.84,70.84
			c22.14,0,41.94-10.22,54.94-26.18h-2.34v-4.71l-2.7-3.64v-5.66l-2.06-2.06l-0.18-2.36l2.62-5l-4.97-8.77l0.58-5.95l-4.47-0.46
			l-1.65-1.65h-3.01l-1.53,1.41h-5.3l-0.18,0.47h-2.95l-6.76-7.71l0.06-6.01l1.12-0.41l0.42-2.3h-1.59l-0.65-2.41l7.83-5.65v-4
			l3.83-2.13l1.55,0.15h3.15l2.47-1.32l7.95-0.62v4.06L211.02,51.74z M191.15,26.49l0.65-1l2.33-0.47l0.58,2.83l1.24,2l0.82,0.95
			l1.5,0.59l-1.41,1.68l-2.74,0.26h-2.06l0.23-2.44l1.71-0.35l-0.14-1.15l-1.6-1l-1.11-0.76L191.15,26.49L191.15,26.49z
			 M187.33,30.9l1.41-2.27l1.91-0.44l1.36,0.59l-0.12,1.53l-2.91,2.06h-1.64L187.33,30.9L187.33,30.9z M148.84,39.62l-1.48,0.12
			l0.08-1.03l0.66-0.82l0.89,0.7L148.84,39.62z M154.01,37.81l-1.01,0.09l-0.2,0.97l-0.78,0.48l-1.24,0.1
			c-0.04-0.29-0.07-0.51-0.07-0.51h-0.48v-1.05h2.03l0.42-1.08l0.81-0.02l0.92,0.19L154.01,37.81z"/>
	</g>
	<g>
		<path class="st1" d="M78.46,182.93l59.82-13.06c1.89-0.38,3.22-2.46,2.84-4.35l-12.49-56.6c-0.38-1.89-2.46-3.22-4.35-2.84
			l-59.82,13.06c-1.89,0.38-3.22,2.46-2.84,4.35l12.49,56.6C74.48,182.17,76.37,183.31,78.46,182.93z"/>
		<path class="st2" d="M69.31,192.4l76.29-16.66c1.7-0.38,2.84-2.08,2.46-3.79c-0.38-1.7-2.08-2.84-3.79-2.46L71.2,185.58
			L45.83,70.3c-0.19-0.76-0.76-1.51-1.33-1.89L8.35,45.31C6.84,44.37,4.95,44.74,4,46.26c-0.95,1.51-0.57,3.41,0.95,4.35
			l35.02,22.34l25.74,116.99C66.09,191.64,67.6,192.77,69.31,192.4z"/>
		<circle class="st1" cx="68.6" cy="189.32" r="19.29"/>
		<circle class="st3" cx="68.74" cy="189.37" r="14.58"/>
		<circle class="st4" cx="68.74" cy="189.37" r="12.49"/>
		<g>
			<path class="st2" d="M63.63,183.88c0.38,1.51,1.7,0,3.79-0.38c2.08-0.38,3.98,0.19,3.6-1.33c-0.38-1.51-2.27-2.27-4.35-1.89
				C64.76,180.85,63.25,182.55,63.63,183.88z"/>
			<path class="st2" d="M73.85,194.67c-0.38-1.51-1.7,0-3.79,0.38c-2.08,0.38-3.98-0.19-3.6,1.33c0.38,1.51,2.27,2.27,4.35,1.89
				C72.71,197.7,74.04,196.18,73.85,194.67z"/>
			<path class="st2" d="M63.44,194.29c1.51-0.38,0-1.7-0.38-3.79c-0.38-2.08,0.19-3.98-1.33-3.6c-1.51,0.38-2.27,2.27-1.89,4.35
				C60.41,193.34,61.92,194.67,63.44,194.29z"/>
			<path class="st2" d="M74.04,184.26c-1.51,0.38,0,1.7,0.38,3.79c0.38,2.08-0.19,3.98,1.33,3.6c1.51-0.38,2.27-2.27,1.89-4.35
				C77.07,185.39,75.55,183.88,74.04,184.26z"/>
			<circle class="st2" cx="68.74" cy="189.37" r="3.22"/>
		</g>
		<path class="st1" d="M63.19,117.91l45.62-10.03c1.51-0.38,2.46-1.89,2.08-3.41l-9.46-43.16c-0.38-1.51-1.89-2.46-3.41-2.08
			L52.4,69.26c-1.51,0.38-2.46,1.89-2.08,3.41l9.65,42.97C60.16,117.15,61.67,118.1,63.19,117.91z"/>
		
			<rect x="69.58" y="65.17" transform="matrix(0.9767 -0.2144 0.2144 0.9767 -13.1909 18.0236)" class="st2" width="13.82" height="9.29"/>
		
			<rect x="86.48" y="112.48" transform="matrix(0.9767 -0.2147 0.2147 0.9767 -23.3246 23.4485)" class="st2" width="19.59" height="13.22"/>
		<g>
			<g>
				<polygon class="st4" points="107.16,122.47 106.94,121.45 100.05,120.07 101.9,119.66 106.76,120.63 106.62,120.01 
					103.35,119.34 106.32,118.68 106.17,117.99 98.09,119.78 99.31,125.28 100.32,125.06 99.4,120.89 				"/>
				<polygon class="st4" points="86.99,122.24 87.14,122.93 90.12,122.27 87.44,124.26 87.65,125.22 92.33,121.78 94.18,121.37 
					87.83,126.04 87.98,126.73 94.35,122 95.28,126.18 96.29,125.95 95.07,120.45 				"/>
				<polygon class="st4" points="93.39,112.89 92.38,113.11 93.3,117.29 85.54,115.7 85.79,116.82 92.44,118.15 90.58,118.56 
					85.97,117.64 86.09,118.17 89.35,118.83 86.38,119.49 86.53,120.18 94.61,118.39 				"/>
				<polygon class="st4" points="105.71,115.93 105.56,115.24 102.58,115.9 105.27,113.91 105.05,112.93 100.35,116.4 98.49,116.81 
					104.87,112.11 104.72,111.44 98.35,116.17 97.43,111.99 96.42,112.22 97.64,117.72 				"/>
			</g>
			<g>
				<polygon class="st5" points="106.17,117.99 105.71,115.93 97.64,117.72 96.42,112.22 93.39,112.89 94.61,118.39 86.53,120.18 
					86.99,122.24 95.07,120.45 96.29,125.95 99.31,125.28 98.09,119.78 				"/>
				<polygon class="st5" points="92.33,121.78 87.65,125.22 87.83,126.04 94.18,121.37 				"/>
				<polygon class="st5" points="100.05,120.07 106.94,121.45 106.76,120.63 101.9,119.66 				"/>
				<polygon class="st5" points="92.44,118.15 85.79,116.82 85.97,117.64 90.58,118.56 				"/>
				<polygon class="st5" points="100.35,116.4 105.05,112.93 104.87,112.11 98.49,116.81 				"/>
			</g>
		</g>
		<g>
			<g>
				<polygon class="st4" points="84.06,71.16 83.91,70.45 79.07,69.5 80.38,69.21 83.78,69.88 83.68,69.45 81.39,68.99 83.48,68.52 
					83.37,68.04 77.71,69.3 78.55,73.13 79.26,72.97 78.62,70.07 				"/>
				<polygon class="st4" points="69.91,71.03 70.02,71.51 72.11,71.04 70.22,72.43 70.37,73.1 73.66,70.7 74.96,70.41 70.5,73.67 
					70.6,74.15 75.08,70.85 75.72,73.76 76.43,73.6 75.58,69.77 				"/>
				<polygon class="st4" points="74.41,64.51 73.7,64.66 74.35,67.57 68.9,66.47 69.07,67.25 73.74,68.17 72.44,68.46 69.2,67.82 
					69.28,68.19 71.58,68.65 69.49,69.12 69.59,69.59 75.26,68.34 				"/>
				<polygon class="st4" points="83.05,66.61 82.95,66.13 80.86,66.59 82.74,65.2 82.59,64.52 79.29,66.94 77.99,67.23 82.47,63.95 
					82.36,63.49 77.89,66.78 77.25,63.88 76.54,64.04 77.39,67.86 				"/>
			</g>
			<g>
				<polygon class="st5" points="83.37,68.04 83.05,66.61 77.39,67.86 76.54,64.04 74.41,64.51 75.26,68.34 69.59,69.59 
					69.91,71.03 75.58,69.77 76.43,73.6 78.55,73.13 77.71,69.3 				"/>
				<polygon class="st5" points="73.66,70.7 70.37,73.1 70.5,73.67 74.96,70.41 				"/>
				<polygon class="st5" points="79.07,69.5 83.91,70.45 83.78,69.88 80.38,69.21 				"/>
				<polygon class="st5" points="73.74,68.17 69.07,67.25 69.2,67.82 72.44,68.46 				"/>
				<polygon class="st5" points="79.29,66.94 82.59,64.52 82.47,63.95 77.99,67.23 				"/>
			</g>
		</g>
	</g>
</g>
<g>
</g>
<g>
</g>
<g>
</g>
<g>
</g>
<g>
</g>
<g>
</g>
<g>
</g>
<g>
</g>
<g>
</g>
<g>
</g>
<g>
</g>
<g>
</g>
<g>
</g>
<g>
</g>
<g>
</g>
</svg>
