<?xml version="1.0" encoding="utf-8"?>
<!-- Generator: Adobe Illustrator 21.0.2, SVG Export Plug-In . SVG Version: 6.00 Build 0)  -->
<svg version="1.1" xmlns="http://www.w3.org/2000/svg" xmlns:xlink="http://www.w3.org/1999/xlink" x="0px" y="0px" width="180px"
	 height="150px" viewBox="0 0 180 150" style="enable-background:new 0 0 180 150;" xml:space="preserve">
<style type="text/css">
	.st0{display:none;}
	.st1{display:inline;}
	.st2{fill:#999999;}
	.st3{fill:#160D37;}
	.st4{fill:#1E1348;}
	.st5{opacity:0.26;fill:#160D37;}
	.st6{fill:#FFFFFF;}
	.st7{fill:#B00D23;}
	.st8{fill:#160D37;stroke:#FFFFFF;stroke-width:2;stroke-miterlimit:10;}
</style>
<g id="uk_businesses" class="st0">
	<g class="st1">
		<g>
			<path class="st2" d="M158.43,37.05l0.88,0.63h0.82V36.1l2.58-0.25l2.45,1.83h4.03l0.28-0.26c-0.4-1.36-0.86-2.69-1.37-4
				l-2.63,0.04l-1.32-1.45l-0.25-2.33l-1.35,0.74l-0.72,2.85l-1.95-2.08l-0.08-1.96l-1.88-1.62l-0.69-0.69h-2.18l0.69,1.95
				l2.63,1.47l0.46,0.49l-0.57,0.29l0.03,1.54l-1.28,0.54l-1.09-0.24l-0.68-0.97l1.78,0.09l0.48-0.65l-3.94-2.66l-0.3-1.13
				l-1.6,1.45L150,28.74l-2.47,3.21l-0.49,1.26l-1.58,0.14l-2.34,0.02l-1.4-0.65l-0.41-2.78l0.5-1.32l2.38-0.52l2.59,0.52l0.32-1.44
				l-1.1-0.26l0.38-2.24l2.61-0.41l1.83-2.58l1.89-0.32l1.7,0.25h0.63l-0.35-2.42l-2.07,0.83l-0.73-1.81l-1.2-0.17l-0.23-1.24
				l0.98-1.07l2.33-0.91l0.6-1.07c-8.9-7.84-20.57-12.61-33.33-12.61c-11.08,0-21.33,3.6-29.66,9.67l2.55-0.02l1.13,0.63l2.14,0.46
				l0.17,0.84l3.4,0.13l-0.46-1.09l-3.02-0.09L98,11.01l-0.25-0.8h-2.73L98,7.99h2.85l1.34,1.85l2.23,0.13l1.34-1.3l1.01,0.5
				l-1.85,1.8c0,0-2.56,0.05-2.43,0.05s0.21,1.76,0.21,1.76l3.1-0.09l0.34-0.84l2.14-0.13l0.25-1.26l-1.26-0.21l0.42-1.13l0.96-0.29
				L112.01,9l-1.85,1.68l0.3,1.3l1.93,0.29l-0.13-2.35l1.85-0.97l3.27-0.38l4.74,2.1v1.8l1.51,0.38l-0.76,1.43h-2.14l-0.63,1.64
				l-4.88-1.15l3.84-2.05l-1.46-1.24l-3.31,0.42l-0.29,0.3l-0.01,0l-0.05,0.07l-0.95,0.99l-1.58,0.13l0.13,0.79l0.55,0.23
				l-0.02,0.26l-1.28,0.18l-0.09,0.74l-1.23,0.06l-0.22-1.48l-2.2,0.67l-4.5,2.63l0.5,1.85l1.26,0.82l2.52,0.35v2.86l1.16-0.19
				l1.07-2.23l2.68-0.85v-3.43l1.49-1.12l3.6,0.85l-0.25,2.27h0.97l2.64-1.3l0.13,2.98l1.92,1.17l-0.08,1.76l-1.84,0.63l0.13,0.58
				l2.22,1.01l-0.05,1.22l-0.64,0.05c0-0.02-0.01-0.03-0.01-0.03l-2.81-0.86l-0.12-0.9h0l0.82-0.56v-0.82l-0.88-0.22l-0.22,0.76
				l-1.55,0.24l-0.15-0.05v0.08l-0.54,0.08l-0.44-0.88l-0.5-0.22h-1.1l-0.5,0.41v0.91l0.94,0.31l0.93,0.13l-0.21,0.09l-0.85,0.94
				l-0.37-0.47l-0.82-0.22l-2.24,2.1l0.29,0.24l-3.3,1.83l-3.11,3.23L105,34.31l-3.11,2.05l-1.54,1.55l0.17,3.1l-2.14-1l0.02-1.82
				l-5.95,0l-3.08,1.56l-1.34,2.47l-0.53,1.96l0.87,1.9l2.43,0.3l3.86-2.58l0.34,1.28l-1.18,2.23l2.94,0.5l0.29,4.54l4.03,0.68
				l2.56-2.96l3.11,0.63l1.09,1.52l2.98-0.18l0.08-0.88l1.64,0.79l1.85,2.89l3.19,0.04l1.18,2.06l0.17,2.52l3.52,1.34l4.45,0.05
				l1.3,2.14l1.97,0.63l-0.38,1.77l-2.16,2.74l-0.63,6.08l-1.95,1.54l-2.89-0.09l-0.96,1.68l0.72,3.15l-3.15,4.03l-1.01,1.85
				l-3,1.44l-1.97,0.3l-0.08,0.84l1.38,0.4l-0.17,0.9l-1.24,1.19l0.75,0.95l1.49,0.04l-0.08,1.15l-0.4,1.13l-0.13,0.92l2.21,1.86
				l-0.29,0.97l-3-0.06l-2.99-2.61l-2.33-4.09l0.32-3.95l-1.76-2.35l0.71-3.98l-1.05-0.29v-8.64c0,0-2.94-2.23-3.11-2.23
				c-0.17,0-1.55-0.38-1.55-0.38l-0.29-1.63l-3.82-4.78l0.38-1.72l0.13-2.81l2.64-1.85l-0.38-3.15l-3.86-0.29l-3.02-3.44l-2.14-0.59
				l-1.38-0.25l0.17-1.26l-1.76-0.25v0.71l-4.41-1.1l-1.77-2.71l0.72-1.31l-2.79-4.07l-0.48-2.98h-1.13l0.38,2.89l1.93,2.98
				l-0.21,1.18l-1.64-0.25l-2.01-3.43v-3.99l-2.1-1.01v-2.87c-2.59,6.07-4.03,12.75-4.03,19.76c0,27.84,22.65,50.48,50.48,50.48
				c15.78,0,29.89-7.28,39.15-18.66h-1.67v-3.36l-1.93-2.59v-4.04l-1.47-1.47l-0.13-1.68l1.87-3.57l-3.54-6.25l0.41-4.24l-3.19-0.33
				l-1.17-1.17h-2.14l-1.09,1.01h-3.78l-0.13,0.34h-2.1l-4.82-5.49l0.04-4.28l0.8-0.29l0.3-1.64h-1.13l-0.46-1.72l5.58-4.03v-2.85
				l2.73-1.52l1.11,0.11h2.25l1.76-0.94l5.66-0.44v2.9L158.43,37.05z M144.27,19.05l0.46-0.71l1.66-0.34l0.41,2.01l0.88,1.42
				l0.59,0.67l1.07,0.42l-1.01,1.2l-1.95,0.19h-1.47l0.16-1.74l1.22-0.25l-0.1-0.82l-1.14-0.71l-0.79-0.54L144.27,19.05
				L144.27,19.05z M141.55,22.19l1.01-1.62l1.36-0.32l0.97,0.42l-0.09,1.09l-2.08,1.47h-1.17L141.55,22.19L141.55,22.19z
				 M114.12,28.4l-1.05,0.09l0.06-0.73l0.47-0.59l0.63,0.5L114.12,28.4z M117.8,27.11l-0.72,0.06l-0.14,0.69l-0.55,0.34l-0.89,0.07
				c-0.03-0.21-0.05-0.37-0.05-0.37h-0.34v-0.75h1.45l0.3-0.77l0.58-0.01l0.66,0.14L117.8,27.11z"/>
		</g>
		<g>
			<path class="st3" d="M63.96,130.54l42.63-9.31c1.35-0.27,2.29-1.75,2.02-3.1l-8.9-40.34c-0.27-1.35-1.75-2.29-3.1-2.02
				l-42.63,9.31c-1.35,0.27-2.29,1.75-2.02,3.1l8.9,40.34C61.12,130,62.47,130.81,63.96,130.54z"/>
			<path class="st4" d="M57.44,137.29l54.37-11.87c1.21-0.27,2.02-1.48,1.75-2.7c-0.27-1.21-1.48-2.02-2.7-1.75l-52.07,11.47
				L40.71,50.27c-0.13-0.54-0.54-1.08-0.94-1.35L13.99,32.46c-1.08-0.67-2.43-0.4-3.1,0.67c-0.67,1.08-0.4,2.43,0.67,3.1
				l24.96,15.92l18.35,83.37C55.14,136.75,56.22,137.56,57.44,137.29z"/>
			<circle class="st3" cx="56.93" cy="135.09" r="13.75"/>
			<circle class="st5" cx="57.03" cy="135.13" r="10.39"/>
			<circle class="st6" cx="57.03" cy="135.13" r="8.9"/>
			<g>
				<path class="st4" d="M53.39,131.21c0.27,1.08,1.21,0,2.7-0.27c1.48-0.27,2.83,0.13,2.56-0.94c-0.27-1.08-1.62-1.62-3.1-1.35
					C54.2,129.06,53.12,130.27,53.39,131.21z"/>
				<path class="st4" d="M60.67,138.9c-0.27-1.08-1.21,0-2.7,0.27c-1.48,0.27-2.83-0.13-2.56,0.94c0.27,1.08,1.62,1.62,3.1,1.35
					C59.86,141.06,60.81,139.98,60.67,138.9z"/>
				<path class="st4" d="M53.25,138.63c1.08-0.27,0-1.21-0.27-2.7c-0.27-1.48,0.13-2.83-0.94-2.56c-1.08,0.27-1.62,1.62-1.35,3.1
					C51.09,137.96,52.17,138.9,53.25,138.63z"/>
				<path class="st4" d="M60.81,131.48c-1.08,0.27,0,1.21,0.27,2.7c0.27,1.48-0.13,2.83,0.94,2.56c1.08-0.27,1.62-1.62,1.35-3.1
					C62.97,132.29,61.89,131.21,60.81,131.48z"/>
				<circle class="st4" cx="57.03" cy="135.13" r="2.29"/>
			</g>
			<path class="st3" d="M53.07,84.2l32.51-7.15c1.08-0.27,1.75-1.35,1.48-2.43l-6.75-30.76c-0.27-1.08-1.35-1.75-2.43-1.48
				l-32.51,7.15c-1.08,0.27-1.75,1.35-1.48,2.43l6.88,30.62C50.91,83.66,51.99,84.33,53.07,84.2z"/>
			
				<rect x="57.63" y="46.62" transform="matrix(0.9767 -0.2144 0.2144 0.9767 -9.25 14.5733)" class="st4" width="9.85" height="6.62"/>
			
				<rect x="69.67" y="80.33" transform="matrix(0.9767 -0.2147 0.2147 0.9767 -16.4716 18.4418)" class="st4" width="13.96" height="9.42"/>
			<g>
				<g>
					<polygon class="st6" points="84.42,87.45 84.25,86.73 79.34,85.74 80.66,85.45 84.12,86.14 84.03,85.69 81.7,85.22 
						83.82,84.75 83.71,84.26 77.95,85.53 78.82,89.45 79.54,89.3 78.88,86.32 					"/>
					<polygon class="st6" points="70.04,87.29 70.15,87.78 72.27,87.31 70.36,88.73 70.51,89.41 73.84,86.96 75.16,86.67 70.64,90 
						70.75,90.48 75.28,87.12 75.94,90.09 76.66,89.93 75.79,86.01 					"/>
					<polygon class="st6" points="74.6,80.62 73.88,80.78 74.54,83.76 69,82.63 69.18,83.42 73.92,84.37 72.6,84.67 69.31,84.01 
						69.39,84.38 71.72,84.86 69.6,85.33 69.71,85.82 75.47,84.54 					"/>
					<polygon class="st6" points="83.38,82.79 83.27,82.3 81.15,82.77 83.06,81.35 82.91,80.65 79.56,83.12 78.24,83.41 
						82.78,80.07 82.67,79.59 78.13,82.96 77.47,79.98 76.76,80.14 77.63,84.06 					"/>
				</g>
				<g>
					<polygon class="st7" points="83.71,84.26 83.38,82.79 77.63,84.06 76.76,80.14 74.6,80.62 75.47,84.54 69.71,85.82 
						70.04,87.29 75.79,86.01 76.66,89.93 78.82,89.45 77.95,85.53 					"/>
					<polygon class="st7" points="73.84,86.96 70.51,89.41 70.64,90 75.16,86.67 					"/>
					<polygon class="st7" points="79.34,85.74 84.25,86.73 84.12,86.14 80.66,85.45 					"/>
					<polygon class="st7" points="73.92,84.37 69.18,83.42 69.31,84.01 72.6,84.67 					"/>
					<polygon class="st7" points="79.56,83.12 82.91,80.65 82.78,80.07 78.24,83.41 					"/>
				</g>
			</g>
			<g>
				<g>
					<polygon class="st6" points="67.95,50.88 67.84,50.38 64.4,49.7 65.32,49.49 67.75,49.97 67.68,49.66 66.05,49.33 67.54,49 
						67.46,48.66 63.42,49.56 64.03,52.29 64.53,52.17 64.07,50.1 					"/>
					<polygon class="st6" points="57.87,50.79 57.94,51.13 59.43,50.8 58.09,51.79 58.2,52.27 60.54,50.56 61.46,50.35 58.29,52.67 
						58.36,53.01 61.55,50.66 62.01,52.73 62.51,52.62 61.91,49.89 					"/>
					<polygon class="st6" points="61.07,46.14 60.57,46.25 61.03,48.32 57.15,47.54 57.27,48.1 60.59,48.75 59.67,48.96 57.36,48.5 
						57.42,48.77 59.05,49.1 57.56,49.43 57.64,49.77 61.68,48.87 					"/>
					<polygon class="st6" points="67.23,47.64 67.16,47.3 65.67,47.63 67.01,46.64 66.9,46.15 64.55,47.88 63.62,48.08 66.81,45.75 
						66.74,45.42 63.55,47.76 63.09,45.69 62.59,45.81 63.19,48.53 					"/>
				</g>
				<g>
					<polygon class="st7" points="67.46,48.66 67.23,47.64 63.19,48.53 62.59,45.81 61.07,46.14 61.68,48.87 57.64,49.77 
						57.87,50.79 61.91,49.89 62.51,52.62 64.03,52.29 63.42,49.56 					"/>
					<polygon class="st7" points="60.54,50.56 58.2,52.27 58.29,52.67 61.46,50.35 					"/>
					<polygon class="st7" points="64.4,49.7 67.84,50.38 67.75,49.97 65.32,49.49 					"/>
					<polygon class="st7" points="60.59,48.75 57.27,48.1 57.36,48.5 59.67,48.96 					"/>
					<polygon class="st7" points="64.55,47.88 66.9,46.15 66.81,45.75 63.62,48.08 					"/>
				</g>
			</g>
		</g>
	</g>
</g>
<g id="marketplaces">
	<g>
		<g>
			<circle class="st7" cx="72.9" cy="75" r="71.2"/>
		</g>
		<g>
			<path class="st6" d="M101.37,106.37H57.39c-2.43,0-4.4-1.97-4.4-4.4c0-2.43,1.97-4.4,4.4-4.4h43.97c2.43,0,4.4,1.97,4.4,4.4
				C105.76,104.4,103.8,106.37,101.37,106.37L101.37,106.37z M101.37,106.37"/>
			<path class="st6" d="M110.16,101.97c0,4.86-3.94,8.8-8.8,8.8c-4.86,0-8.8-3.94-8.8-8.8c0-4.86,3.94-8.79,8.8-8.79
				C106.23,93.18,110.16,97.12,110.16,101.97L110.16,101.97z M110.16,101.97"/>
			<path class="st6" d="M106.08,53.61l-61.57-4.4c-1.4-0.09-2.82,0.5-3.73,1.61c-0.91,1.12-1.21,2.6-0.82,3.98l8.79,30.78
				c0.54,1.89,2.27,3.19,4.23,3.19h43.97c7.28,0,13.2-5.92,13.2-13.19V58C110.16,55.69,108.38,53.78,106.08,53.61L106.08,53.61z
				 M106.08,53.61"/>
			<path class="st6" d="M110.16,49.2H45.76l-1.75-5.69c-0.02-0.07-0.08-0.13-0.11-0.2c-0.11-0.29-0.27-0.54-0.44-0.81
				c-0.14-0.23-0.27-0.46-0.44-0.66c-0.19-0.2-0.41-0.35-0.64-0.51c-0.23-0.17-0.45-0.36-0.72-0.48c-0.22-0.1-0.46-0.15-0.71-0.21
				c-0.32-0.09-0.62-0.18-0.95-0.19c-0.07,0-0.13-0.04-0.21-0.04h-8.8c-2.43,0-4.4,1.97-4.4,4.4c0,2.43,1.97,4.4,4.4,4.4h5.55
				l16.63,54.06c0.58,1.89,2.32,3.11,4.21,3.11c0.42,0,0.86-0.06,1.29-0.2c2.32-0.71,3.63-3.17,2.91-5.49L48.46,58h61.7
				c2.43,0,4.4-1.97,4.4-4.4S112.59,49.2,110.16,49.2L110.16,49.2z M110.16,49.2"/>
			<path class="st6" d="M61.79,101.97c0,4.86-3.94,8.8-8.8,8.8c-4.86,0-8.79-3.94-8.79-8.8c0-4.86,3.94-8.79,8.79-8.79
				C57.85,93.18,61.79,97.12,61.79,101.97L61.79,101.97z M61.79,101.97"/>
		</g>
		<polygon class="st8" points="123.76,79.83 136.57,125.19 148.31,113.98 168.85,134.52 178.29,123.69 158.45,103.84 169.66,92.63 
					"/>
	</g>
	<g>
	</g>
	<g>
	</g>
	<g>
	</g>
	<g>
	</g>
	<g>
	</g>
	<g>
	</g>
	<g>
	</g>
	<g>
	</g>
	<g>
	</g>
	<g>
	</g>
	<g>
	</g>
	<g>
	</g>
	<g>
	</g>
	<g>
	</g>
	<g>
	</g>
</g>
</svg>
