<svg width="60" height="45" viewBox="0 0 60 45" xmlns="http://www.w3.org/2000/svg" xmlns:xlink="http://www.w3.org/1999/xlink"><title>Page 1</title><defs><path id="a" d="M40.053 32.61V.398H.551v32.214h39.502z"/></defs><g fill="none" fill-rule="evenodd"><g transform="translate(19 -.397)"><mask id="b" fill="#fff"><use xlink:href="#a"/></mask><path d="M37.842 21.542c0 1.789-1.572 3.253-3.513 3.253H18.435c-.238 0-.459.068-.655.197L11 29.57v-3.753a.954.954 0 0 0-.328-.72 1.18 1.18 0 0 0-.778-.303h-3.62c-1.932 0-3.513-1.456-3.513-3.253V5.696c0-1.79 1.573-3.252 3.513-3.252H34.33c1.933 0 3.513 1.456 3.513 3.252v15.846zM34.33.397H6.274C3.122.397.551 2.77.551 5.696V21.55c0 2.918 2.563 5.299 5.723 5.299h2.514v4.739c0 .386.238.735.606.909.156.076.328.114.5.114a1.2 1.2 0 0 0 .655-.197l8.246-5.565H34.33c3.153 0 5.724-2.373 5.724-5.3V5.697c0-2.926-2.57-5.3-5.724-5.3z" fill="#1E1348" mask="url(#b)"/></g><path d="M16.626 11.033c-4.788 0-7.438 2.48-7.39 7.263.07 6.548 2.853 10.52 7.39 10.45 0 0 7.386.3 7.386-10.45 0-4.782-2.495-7.263-7.386-7.263" fill="#1E1348"/><path d="M16.626 11.033c-4.788 0-7.438 2.48-7.39 7.263.07 6.548 2.853 10.52 7.39 10.45 0 0 7.386.3 7.386-10.45 0-4.782-2.495-7.263-7.386-7.263z" stroke="#FFF" stroke-width="1.5"/><path d="M29.691 33.717l-7.381-2.943-1.728-1.456a1.15 1.15 0 0 0-1.554.063l-2.403 2.39-2.41-2.39a1.15 1.15 0 0 0-1.553-.063l-1.728 1.456-7.381 2.943c-2.377.947-2.375 9.364-2.579 10.136h31.299c-.203-.77-.204-9.19-2.582-10.136" fill="#1E1348"/><path d="M29.691 33.717l-7.381-2.943-1.728-1.456a1.15 1.15 0 0 0-1.554.063l-2.403 2.39-2.41-2.39a1.15 1.15 0 0 0-1.553-.063l-1.728 1.456-7.381 2.943c-2.377.947-2.375 9.364-2.579 10.136h31.299c-.203-.77-.204-9.19-2.582-10.136z" stroke="#FFF" stroke-width="1.5"/><path d="M41.061 17.789h-4.124a.556.556 0 0 0 0 1.112h4.124a.556.556 0 0 0 0-1.112m-3.142 3.284v.302c0 .343.277.62.619.62h.924a.62.62 0 0 0 .618-.62v-.302c.7-.05 1.256-.628 1.256-1.34h-4.672c0 .712.554 1.29 1.255 1.34m1.09-13.823a3.59 3.59 0 0 0-3.587 3.585.555.555 0 1 1-1.111 0 4.703 4.703 0 0 1 4.698-4.698.556.556 0 0 1 0 1.112m-.01-1.933a5.571 5.571 0 0 0-5.571 5.572c0 1.298.446 2.49 1.193 3.436a24.007 24.007 0 0 1 1.824 2.67h5.109a23.789 23.789 0 0 1 1.825-2.67 5.534 5.534 0 0 0 1.192-3.436A5.572 5.572 0 0 0 39 5.316" fill="#B00D23"/></g></svg>