<svg width="46" height="45" viewBox="0 0 46 45" xmlns="http://www.w3.org/2000/svg" xmlns:xlink="http://www.w3.org/1999/xlink"><title>Page 1</title><defs><path id="a" d="M41.562 30.117V.444H.204v29.673h41.358z"/></defs><g fill="none" fill-rule="evenodd"><g transform="translate(4 -.444)"><mask id="b" fill="#fff"><use xlink:href="#a"/></mask><path d="M40.323 21.333L19.119 1.61A4.435 4.435 0 0 0 16.094.444c-1.095 0-2.19.389-3.025 1.166L1.457 12.408a3.84 3.84 0 0 0 0 5.676l1.925 1.839H7.82l-4.144-3.904a1.063 1.063 0 0 1-.333-.774c0-.164.043-.491.333-.761l1.534-1.382 7.286 6.821h6.99L8.705 9.845l6.584-6.147c.29-.27.629-.321.805-.321.176 0 .515.034.805.303L38.105 23.4c.29.271.335.583.335.748 0 .164-.075.478-.366.749l-1.202 1.091v4.129l3.423-3.155c1.67-1.557 1.7-4.075.028-5.629" fill="#1E1348" mask="url(#b)"/></g><path d="M10.481 32.253c-.838 0-1.596-.31-2.155-.81-.559.5-1.318.81-2.153.81-1.719 0-3.113-1.295-3.113-2.896 0-1.599 1.393-2.895 3.113-2.895a3.22 3.22 0 0 1 2.153.809 3.223 3.223 0 0 1 2.155-.809c1.72 0 3.113 1.296 3.113 2.895 0 1.601-1.394 2.896-3.113 2.896m23.893-10.925H4.382C2.02 21.328 0 23.098 0 25.295v10.55h38.598v-10.55c0-2.197-1.862-3.967-4.224-3.967M0 40.566c0 2.197 2.019 3.99 4.383 3.99h29.991c2.362 0 4.225-1.793 4.225-3.99v-.234H0v.234z" fill="#1E1348"/></g></svg>