<svg id="Layer_1" xmlns="http://www.w3.org/2000/svg" xmlns:xlink="http://www.w3.org/1999/xlink" width="35" height="35" viewBox="0 0 35 35"><style>.st0{clip-path:url(#SVGID_2_);fill:none;stroke:#4a4a4a;stroke-width:2;stroke-miterlimit:10}.st1{clip-path:url(#SVGID_4_);stroke:#fafafa}.st1,.st2,.st3{fill:none;stroke-width:2;stroke-linecap:square;stroke-miterlimit:10}.st2{stroke:#fafafa;clip-path:url(#SVGID_6_)}.st3{clip-path:url(#SVGID_8_)}.st3,.st4,.st5{stroke:#fafafa}.st4{fill:none;stroke-width:2;stroke-linecap:square;stroke-miterlimit:10;clip-path:url(#SVGID_10_)}.st5{clip-path:url(#SVGID_12_)}.st5,.st6,.st7{fill:none;stroke-width:2;stroke-linecap:square;stroke-miterlimit:10}.st6{clip-path:url(#SVGID_14_);stroke:#fafafa}.st7{stroke:#f9f9f9}</style><defs><path id="SVGID_1_" d="M-789.84-1975.16h1609v3985h-1609z"/></defs><clipPath id="SVGID_2_"><use xlink:href="#SVGID_1_" overflow="visible"/></clipPath><path class="st0" d="M-1-271l6.48 6.26 6.1-6.05"/><defs><path id="SVGID_3_" d="M-585-978H615v1990H-585z"/></defs><clipPath id="SVGID_4_"><use xlink:href="#SVGID_3_" overflow="visible"/></clipPath><path class="st1" d="M462.37-662.37l34.17-34.17m.09 34.17l-34.17-34.17"/><defs><path id="SVGID_5_" d="M-585-978H615v1990H-585z"/></defs><clipPath id="SVGID_6_"><use xlink:href="#SVGID_5_" overflow="visible"/></clipPath><path class="st2" d="M462.37-662.37l34.17-34.17m.09 34.17l-34.17-34.17"/><defs><path id="SVGID_7_" d="M-585-978H615v1990H-585z"/></defs><clipPath id="SVGID_8_"><use xlink:href="#SVGID_7_" overflow="visible"/></clipPath><path class="st3" d="M462.37-662.37l34.17-34.17m.09 34.17l-34.17-34.17"/><defs><path id="SVGID_9_" d="M-585-978H615v1990H-585z"/></defs><clipPath id="SVGID_10_"><use xlink:href="#SVGID_9_" overflow="visible"/></clipPath><path class="st4" d="M462.37-662.37l34.17-34.17m.09 34.17l-34.17-34.17"/><defs><path id="SVGID_11_" d="M-585-978H615v1990H-585z"/></defs><clipPath id="SVGID_12_"><use xlink:href="#SVGID_11_" overflow="visible"/></clipPath><path class="st5" d="M462.37-662.37l34.17-34.17m.09 34.17l-34.17-34.17"/><defs><path id="SVGID_13_" d="M-585-978H615v1990H-585z"/></defs><clipPath id="SVGID_14_"><use xlink:href="#SVGID_13_" overflow="visible"/></clipPath><path class="st6" d="M462.37-662.37l34.17-34.17m.09 34.17l-34.17-34.17"/><path class="st7" d="M1.57 33.23L33.35 1.45m.08 31.78L1.65 1.45"/></svg>