<svg id="Capa_1" xmlns="http://www.w3.org/2000/svg" xmlns:xlink="http://www.w3.org/1999/xlink" width="38" height="35.25" viewBox="0 0 38 35.25"><style>.st0{fill:none}.st1{fill:#1e1348}.st2{fill:#c0212e}</style><path class="st0" d="M-926.5-884.25h1609v2040h-1609z"/><path class="st0" d="M-1192.5-294.25h1609v2040h-1609z"/><defs><path id="SVGID_1_" d="M-112.97 211.7c-2.52-1.49-2.69-.59-4.36.76-.86.69-.69 1.11-4.07 2.4-2.27.87-6.47.22-7.83-.01 1.05-.13 4.69-.3 5.84-.69 1.34-.45 2.23-.94 2.31-1.8.13-1.45-1.31-2.44-1.71-2.33-3 .87-3.64 1.25-12.46-.93-9.2-2.27-12.09 6.94-12.11 7.02l-.15.47 5.06 4.95.56-.52c2.39-2.19 5.61-1.74 9.69-1.17 2.04.29 4.34.61 6.8.61 7.66.02 12.48-7.33 12.68-7.65l.45-.7-.7-.41z"/></defs><clipPath id="SVGID_2_"><use xlink:href="#SVGID_1_" overflow="visible"/></clipPath><path class="st1" d="M36.34 24.34c-2.56-1.52-2.74-.6-4.44.77-.88.7-.71 1.13-4.14 2.45-2.31.89-6.59.23-7.97-.01 1.06-.13 4.77-.31 5.95-.7 1.36-.46 2.27-.95 2.35-1.84.14-1.48-1.33-2.49-1.74-2.37-3.06.88-3.71 1.27-12.69-.95-9.37-2.31-12.31 7.07-12.34 7.16l-.15.48 5.15 5.04.57-.53c2.43-2.23 5.72-1.77 9.87-1.19 2.07.29 4.42.62 6.92.62 7.81.02 12.71-7.47 12.92-7.79l.46-.72-.72-.42z"/><path class="st2" d="M11.8 4.97c0-.48.08-.94.24-1.37s.4-.8.71-1.12.71-.57 1.19-.76 1.03-.28 1.65-.28c.64 0 1.2.09 1.68.28s.87.44 1.18.76.55.69.7 1.12.23.88.23 1.37v.9c0 .48-.08.93-.23 1.35s-.39.8-.7 1.11-.71.57-1.18.76-1.03.28-1.66.28-1.19-.09-1.66-.28-.88-.44-1.2-.76-.56-.69-.72-1.11-.23-.87-.23-1.35v-.9zm2.55.9c0 .18.03.35.08.52s.13.31.23.44.24.23.4.3.35.11.57.11c.21 0 .39-.04.55-.11s.28-.18.38-.3.17-.28.22-.44.08-.34.08-.52v-.9c0-.19-.03-.37-.08-.53s-.13-.32-.23-.45-.23-.23-.39-.3-.35-.11-.56-.11-.39.04-.55.11-.29.18-.39.3c-.1.12-.18.28-.23.45s-.08.35-.08.53v.9zm2.03 11.6l-1.84-.93L22.87 3.2l1.84.93-8.33 13.34zm3.53-2.9c0-.48.08-.93.24-1.36s.4-.8.71-1.12.71-.57 1.19-.76 1.03-.28 1.65-.28c.64 0 1.2.09 1.68.28s.88.44 1.19.76.55.69.7 1.12.23.88.23 1.36v.9c0 .48-.08.94-.23 1.37s-.39.8-.7 1.11-.71.57-1.18.76-1.03.28-1.67.28c-.63 0-1.19-.09-1.66-.28s-.88-.44-1.2-.76-.56-.69-.72-1.11-.24-.88-.24-1.37v-.9h.01zm2.54.9c0 .18.03.35.1.52.07.17.16.32.28.45s.25.23.41.3.32.11.5.11c.27 0 .48-.04.64-.11s.29-.18.38-.3.15-.28.18-.45.04-.34.04-.52v-.9c0-.18-.03-.35-.08-.52s-.13-.32-.23-.45-.24-.23-.4-.3-.35-.11-.56-.11-.4.04-.56.11-.29.18-.4.3-.18.28-.23.45-.08.34-.08.52l.01.9z"/></svg>