<svg id="Layer_1" xmlns="http://www.w3.org/2000/svg" xmlns:xlink="http://www.w3.org/1999/xlink" width="35" height="35" viewBox="0 0 35 35"><style>.st0{clip-path:url(#SVGID_2_)}.st1{clip-path:url(#SVGID_4_);fill:#fff}.st2{clip-path:url(#SVGID_6_)}.st3{clip-path:url(#SVGID_8_);fill:#fff}.st4{clip-path:url(#SVGID_10_)}.st5{clip-path:url(#SVGID_12_);fill:#fff}.st6{clip-path:url(#SVGID_14_)}.st7{clip-path:url(#SVGID_16_);fill:#fff}.st8{clip-path:url(#SVGID_18_)}.st9{clip-path:url(#SVGID_20_);fill:#fff}.st10{clip-path:url(#SVGID_22_)}.st11{clip-path:url(#SVGID_24_);fill:#fff}.st12{clip-path:url(#SVGID_26_)}.st13{clip-path:url(#SVGID_28_);fill:#fff}.st14{clip-path:url(#SVGID_30_)}.st15{clip-path:url(#SVGID_32_);fill:#fff}</style><defs><path id="SVGID_1_" d="M17.5 2.41c8.41 0 15.09 6.68 15.09 15.09S25.91 32.59 17.5 32.59 2.41 25.91 2.41 17.5 9.09 2.41 17.5 2.41m0-2.16C8.01.25.25 8.01.25 17.5S8.01 34.75 17.5 34.75s17.25-7.76 17.25-17.25S26.99.25 17.5.25"/></defs><clipPath id="SVGID_2_"><use xlink:href="#SVGID_1_" overflow="visible"/></clipPath><g class="st0"><defs><path id="SVGID_3_" d="M-421.64-835.64H761.22V394.53H-421.64z"/></defs><clipPath id="SVGID_4_"><use xlink:href="#SVGID_3_" overflow="visible"/></clipPath><path class="st1" d="M-4.68-4.68h44.36v44.36H-4.68z"/></g><defs><path id="SVGID_5_" d="M15.34 13.19c0 1.19-.97 2.16-2.16 2.16s-2.16-.97-2.16-2.16.97-2.16 2.16-2.16 2.16.97 2.16 2.16"/></defs><clipPath id="SVGID_6_"><use xlink:href="#SVGID_5_" overflow="visible"/></clipPath><g class="st2"><defs><path id="SVGID_7_" d="M-421.64-835.64H761.22V394.53H-421.64z"/></defs><clipPath id="SVGID_8_"><use xlink:href="#SVGID_7_" overflow="visible"/></clipPath><path class="st3" d="M6.1 6.1h14.17v14.17H6.1z"/></g><defs><path id="SVGID_9_" d="M23.97 13.19c0 1.19-.97 2.16-2.16 2.16s-2.16-.97-2.16-2.16.97-2.16 2.16-2.16 2.16.97 2.16 2.16"/></defs><clipPath id="SVGID_10_"><use xlink:href="#SVGID_9_" overflow="visible"/></clipPath><g class="st4"><defs><path id="SVGID_11_" d="M-421.64-835.64H761.22V394.53H-421.64z"/></defs><clipPath id="SVGID_12_"><use xlink:href="#SVGID_11_" overflow="visible"/></clipPath><path class="st5" d="M14.73 6.1H28.9v14.17H14.73z"/></g><defs><path id="SVGID_13_" d="M24.62 26.77c-1.51-2.37-4.31-3.88-7.12-3.88s-5.61 1.51-7.12 3.88l-1.72-1.29c1.94-3.02 5.17-4.74 8.84-4.74s6.9 1.73 8.84 4.74l-1.72 1.29z"/></defs><clipPath id="SVGID_14_"><use xlink:href="#SVGID_13_" overflow="visible"/></clipPath><g class="st6"><defs><path id="SVGID_15_" d="M-421.64-835.64H761.22V394.53H-421.64z"/></defs><clipPath id="SVGID_16_"><use xlink:href="#SVGID_15_" overflow="visible"/></clipPath><path class="st7" d="M3.73 15.81h27.54V31.7H3.73z"/></g><defs><path id="SVGID_17_" d="M17.5 2.41c8.41 0 15.09 6.68 15.09 15.09S25.91 32.59 17.5 32.59 2.41 25.91 2.41 17.5 9.09 2.41 17.5 2.41m0-2.16C8.01.25.25 8.01.25 17.5S8.01 34.75 17.5 34.75s17.25-7.76 17.25-17.25S26.99.25 17.5.25"/></defs><clipPath id="SVGID_18_"><use xlink:href="#SVGID_17_" overflow="visible"/></clipPath><g class="st8"><defs><path id="SVGID_19_" d="M-421.64-835.64H761.22V394.53H-421.64z"/></defs><clipPath id="SVGID_20_"><use xlink:href="#SVGID_19_" overflow="visible"/></clipPath><path class="st9" d="M-4.68-4.68h44.36v44.36H-4.68z"/></g><defs><path id="SVGID_21_" d="M15.34 13.19c0 1.19-.97 2.16-2.16 2.16s-2.16-.97-2.16-2.16.97-2.16 2.16-2.16 2.16.97 2.16 2.16"/></defs><clipPath id="SVGID_22_"><use xlink:href="#SVGID_21_" overflow="visible"/></clipPath><g class="st10"><defs><path id="SVGID_23_" d="M-421.64-835.64H761.22V394.53H-421.64z"/></defs><clipPath id="SVGID_24_"><use xlink:href="#SVGID_23_" overflow="visible"/></clipPath><path class="st11" d="M6.1 6.1h14.17v14.17H6.1z"/></g><defs><path id="SVGID_25_" d="M23.97 13.19c0 1.19-.97 2.16-2.16 2.16s-2.16-.97-2.16-2.16.97-2.16 2.16-2.16 2.16.97 2.16 2.16"/></defs><clipPath id="SVGID_26_"><use xlink:href="#SVGID_25_" overflow="visible"/></clipPath><g class="st12"><defs><path id="SVGID_27_" d="M-421.64-835.64H761.22V394.53H-421.64z"/></defs><clipPath id="SVGID_28_"><use xlink:href="#SVGID_27_" overflow="visible"/></clipPath><path class="st13" d="M14.73 6.1H28.9v14.17H14.73z"/></g><defs><path id="SVGID_29_" d="M24.62 26.77c-1.51-2.37-4.31-3.88-7.12-3.88s-5.61 1.51-7.12 3.88l-1.72-1.29c1.94-3.02 5.17-4.74 8.84-4.74s6.9 1.73 8.84 4.74l-1.72 1.29z"/></defs><clipPath id="SVGID_30_"><use xlink:href="#SVGID_29_" overflow="visible"/></clipPath><g class="st14"><defs><path id="SVGID_31_" d="M-421.64-835.64H761.22V394.53H-421.64z"/></defs><clipPath id="SVGID_32_"><use xlink:href="#SVGID_31_" overflow="visible"/></clipPath><path class="st15" d="M3.73 15.81h27.54V31.7H3.73z"/></g></svg>