<svg id="Layer_1" xmlns="http://www.w3.org/2000/svg" width="35" height="35" viewBox="0 0 35 35"><style>.st0{fill:#333}</style><path class="st0" d="M17.5 2.49c8.36 0 15.01 6.65 15.01 15.01S25.86 32.51 17.5 32.51 2.49 25.86 2.49 17.5 9.14 2.49 17.5 2.49zm0-2.15C8.06.34.34 8.06.34 17.5S8.06 34.66 17.5 34.66s17.16-7.72 17.16-17.16S26.94.34 17.5.34z"/><path class="st0" d="M15.36 13.21c0 1.18-.96 2.14-2.14 2.14s-2.14-.96-2.14-2.14.96-2.14 2.14-2.14 2.14.96 2.14 2.14zm8.57 0c0 1.18-.96 2.14-2.14 2.14s-2.14-.96-2.14-2.14.96-2.14 2.14-2.14 2.14.96 2.14 2.14zm.65 13.51c-1.5-2.36-4.29-3.86-7.08-3.86s-5.58 1.5-7.08 3.86L8.7 25.43c1.93-3 5.15-4.72 8.79-4.72s6.86 1.72 8.79 4.72l-1.7 1.29z"/></svg>