<svg id="Layer_2" xmlns="http://www.w3.org/2000/svg" width="35" height="35" viewBox="0 0 35 35"><style>.st0{fill:#333}</style><path class="st0" d="M29.5 5.6c-3.2-3.2-7.5-5-12-5s-8.8 1.8-12 5c-6.2 6.2-6.6 16-1.1 22.7-.8 1.6-1.7 2.6-2.7 3.1-.6.3-1 1-.9 1.7.1.7.6 1.2 1.3 1.3.4.1.8.1 1.2.1 2.1 0 4.3-.7 6.1-2 2.5 1.3 5.2 2 8 2 4.5 0 8.8-1.8 12-5s5-7.5 5-12-1.7-8.7-4.9-11.9zm-1.3 22.6c-2.8 2.8-6.6 4.4-10.6 4.4-2.7 0-5.3-.7-7.6-2.1-.1-.1-.3-.1-.5-.1s-.4.1-.6.2c-2.2 1.7-4.4 1.9-5.3 2 1.1-.9 2.1-2.2 2.9-4 .1-.3.1-.7-.2-1-5.3-5.9-5-15 .6-20.6 2.8-2.8 6.6-4.4 10.6-4.4S25.3 4.2 28.1 7c5.9 5.8 5.9 15.3.1 21.2z"/><path class="st0" d="M24.7 12H10.5c-.5 0-1 .4-1 1 0 .5.4 1 1 1h14.2c.5 0 1-.4 1-1-.1-.6-.5-1-1-1zm0 4.6H10.5c-.5 0-1 .4-1 1 0 .5.4 1 1 1h14.2c.5 0 1-.4 1-1-.1-.6-.5-1-1-1zm0 4.6H10.5c-.5 0-1 .4-1 1s.4 1 1 1h14.2c.5 0 1-.4 1-1s-.5-1-1-1z"/></svg>