<svg id="Layer_1" xmlns="http://www.w3.org/2000/svg" width="35" height="35" viewBox="0 0 35 35"><style>.st0{fill:#fff}</style><path class="st0" d="M29.52 5.41C26.31 2.2 22.04.43 17.5.43S8.69 2.2 5.48 5.41c-6.2 6.2-6.65 16.1-1.13 22.81-.76 1.56-1.66 2.6-2.68 3.1-.62.31-.97.98-.87 1.66.11.69.63 1.23 1.32 1.33.38.06.78.09 1.2.09 2.09 0 4.28-.72 6.11-1.98 2.46 1.32 5.23 2.02 8.06 2.02 4.54 0 8.81-1.77 12.02-4.98s4.98-7.49 4.98-12.02-1.76-8.82-4.97-12.03zM28.16 28.1a14.986 14.986 0 0 1-10.66 4.42c-2.69 0-5.33-.72-7.64-2.07a.95.95 0 0 0-.48-.14c-.21 0-.42.07-.59.2-2.18 1.69-4.37 1.94-5.33 1.96 1.15-.85 2.11-2.18 2.91-4.02.15-.34.09-.74-.16-1.03-5.28-5.96-5-15.03.63-20.66 2.85-2.85 6.64-4.42 10.66-4.42s7.81 1.57 10.66 4.42c5.88 5.89 5.88 15.46 0 21.34z"/><path class="st0" d="M24.62 11.82H10.38a.96.96 0 0 0 0 1.92h14.24a.96.96 0 0 0 0-1.92zm0 4.65H10.38a.96.96 0 0 0 0 1.92h14.24a.96.96 0 0 0 0-1.92zm0 4.65H10.38a.96.96 0 0 0 0 1.92h14.24a.96.96 0 0 0 0-1.92z"/></svg>