<svg width="50" height="44" viewBox="0 0 50 44" xmlns="http://www.w3.org/2000/svg"><title>icon_useful</title><g fill="none" fill-rule="evenodd"><g fill="#000" fill-rule="nonzero"><path d="M33.982 12H3.018C1.354 12 0 13.335 0 14.976V32.83c0 1.64 1.354 2.976 3.018 2.976h1.764v7.346c0 .343.21.652.532.783a.87.87 0 0 0 .937-.183l8.058-7.946h19.673c1.664 0 3.018-1.335 3.018-2.976V14.976C37 13.336 35.646 12 33.982 12zm0 22.109h-20.03a.863.863 0 0 0-.578.22l-.004.005-.031.028-6.836 6.741v-6.146a.856.856 0 0 0-.86-.848H3.017a1.29 1.29 0 0 1-1.297-1.28V14.977a1.29 1.29 0 0 1 1.297-1.279h30.964a1.29 1.29 0 0 1 1.297 1.28V32.83a1.29 1.29 0 0 1-1.297 1.279z"/><path d="M12.234 18H7.766C7.343 18 7 18.448 7 19s.343 1 .766 1h4.468c.423 0 .766-.448.766-1s-.343-1-.766-1zm8.943 5H7.823C7.368 23 7 23.448 7 24s.368 1 .823 1h13.354c.454 0 .823-.448.823-1s-.369-1-.823-1zm8.935-5H17.888c-.49 0-.888.448-.888 1s.398 1 .888 1h12.224c.49 0 .888-.448.888-1s-.398-1-.888-1zm-.002 5h-3.22c-.492 0-.89.448-.89 1s.398 1 .89 1h3.22c.492 0 .89-.448.89-1s-.398-1-.89-1zm-15.014 5H6.904c-.5 0-.904.448-.904 1s.405 1 .904 1h8.192c.5 0 .904-.448.904-1s-.405-1-.904-1zm14.062 0h-9.316c-.465 0-.842.448-.842 1s.377 1 .842 1h9.316c.465 0 .842-.448.842-1s-.377-1-.842-1z"/></g><path d="M48.299.522H32.48l-13.179.963V20H38c.333 0 2.667 2.247 7 6.74V20l4.283-.772V2.805L48.3.522z" fill="#DFD5C5"/><g fill="#000" fill-rule="nonzero"><path d="M20.61 0h26.78A2.61 2.61 0 0 1 50 2.604v15.622a2.61 2.61 0 0 1-2.61 2.604h-1.526v6.428a.742.742 0 0 1-1.27.525l-6.969-6.953H20.61A2.61 2.61 0 0 1 18 18.226V2.604A2.61 2.61 0 0 1 20.61 0zm0 19.345h17.324c.192 0 .367.074.499.193l.004.004.027.025 5.912 5.898v-5.377c0-.026 0-.05.004-.07a.743.743 0 0 1 .74-.673h2.27c.618 0 1.122-.502 1.122-1.12V2.606c0-.618-.504-1.12-1.122-1.12H20.61c-.619 0-1.122.502-1.122 1.12v15.62c0 .618.503 1.12 1.122 1.12z"/><path d="M39.639 5h3.722c.353 0 .639.448.639 1s-.286 1-.639 1H39.64c-.354 0-.64-.448-.64-1s.286-1 .639-1zm-7.926 4h11.574c.394 0 .713.448.713 1s-.32 1-.713 1H31.713c-.394 0-.713-.448-.713-1s.32-1 .713-1zm-7.952-4H34.24c.42 0 .761.448.761 1s-.34 1-.761 1H23.76c-.419 0-.76-.448-.76-1s.34-1 .761-1zm-.049 4h2.576c.393 0 .712.448.712 1s-.319 1-.712 1h-2.576c-.393 0-.712-.448-.712-1s.319-1 .712-1zm13.102 5h7.372c.45 0 .814.448.814 1s-.364 1-.814 1h-7.372c-.45 0-.814-.448-.814-1s.364-1 .814-1zm-12.049 0h8.47c.422 0 .765.448.765 1s-.343 1-.765 1h-8.47c-.422 0-.765-.448-.765-1s.343-1 .765-1z"/></g></g></svg>