<svg id="Capa_1" xmlns="http://www.w3.org/2000/svg" viewBox="0 0 37 30.42"><style>.st0{fill:#1e1348}.st1,.st2,.st3{fill:#b00d23;stroke:#dfd5c5;stroke-miterlimit:10}.st2,.st3{fill:none;stroke:#007ea3}.st3{stroke:#00549f;stroke-width:2}.st4{fill:#b00d23}.st5{fill:#fff}.st6,.st7,.st8{fill:#b00d23;stroke:#fff;stroke-miterlimit:10}.st7,.st8{fill:#1e1348;stroke:#1e1348}.st8{stroke:#fff;stroke-width:1.5}.st9{fill:none}.st10{fill:#c0212e}.st11{fill:none;stroke:#1e1348;stroke-width:2;stroke-miterlimit:10}</style><path class="st9" d="M-926.5-884.25h1609v2040h-1609z"/><path class="st9" d="M-1192.5-294.25h1609v2040h-1609z"/><path class="st5" d="M17.49 6.91l-2.14 6.24c-.07.21-.24.36-.43.38L3.95 14.68c-.27.03-.47.3-.47.63l.22 10.32c.01.28.17.53.41.58l12.91 3.26c.32.08.64.12.96.12V7.02c0-.85-.22-.9-.49-.11zm-1.5 19.25l-4.85-.94v-3.05h4.85v3.99zm-2.12-14.12L.94 13.61c-.39.05-.68-.44-.51-.87l3.44-8.82c.07-.18.21-.31.37-.34L18.44.45l-4.16 11.23c-.07.2-.23.34-.41.36zm19.16 2.64l-10.97-1.16c-.19-.02-.36-.17-.43-.38L19.49 6.9c-.27-.78-.49-.73-.49.12v22.57c.32 0 .64-.04.96-.12l12.91-3.26c.23-.06.4-.3.41-.58l.22-10.32c.01-.33-.2-.6-.47-.63zm-4.51 5.52l-.61.02-.01 4.57c0 .2-.17.39-.38.43l-.99.17c-.23.04-.41-.1-.41-.31l.01-4.8-.69.02c-.34.01-.55-.31-.38-.58l1.65-2.57c.16-.24.54-.22.69.04l1.45 2.47c.12.22-.05.53-.33.54zm7.52-6.59l-12.92-1.57c-.18-.02-.34-.16-.42-.36L18.54.45l14.2 3.13c.16.04.3.16.37.34l3.44 8.82c.17.43-.12.92-.51.87z"/></svg>