<svg width="52" height="41" viewBox="0 0 52 41" xmlns="http://www.w3.org/2000/svg" xmlns:xlink="http://www.w3.org/1999/xlink"><title>Page 1</title><defs><path id="a" d="M0 40.786h51.175V0H0v40.785z"/></defs><g fill="none" fill-rule="evenodd"><mask id="b" fill="#fff"><use xlink:href="#a"/></mask><path d="M50.379 18.42l-18.26-2.192c-.257-.03-.481-.224-.587-.506L25.657.001 45.72 4.377c.23.05.425.23.523.48l4.863 12.346c.238.603-.169 1.284-.727 1.217zm-10.623 9.219l-.856.028-.017 6.397c-.001.282-.242.552-.541.603l-1.403.24c-.32.054-.583-.14-.582-.437l.013-6.72-.979.033c-.475.016-.777-.438-.535-.813l2.328-3.604c.22-.341.762-.31.974.05l2.044 3.46c.193.327-.051.75-.446.763zm6.376-7.717l-15.494-1.617c-.268-.028-.502-.232-.604-.527l-3.03-8.74c-.382-1.102-.695-1.029-.695.164v27.299l.001 4.285a5.53 5.53 0 0 0 1.352-.166l18.24-4.557c.328-.082.565-.42.574-.817l.315-14.447c.01-.453-.28-.837-.659-.877zm-27.077-3.694L.795 18.42c-.557.067-.963-.614-.725-1.217L4.93 4.857c.099-.25.294-.43.524-.48L25.518.001l-5.875 15.723c-.105.28-.33.474-.588.504zM22.05 35.98l-6.848-1.31v-4.263h6.848v5.573zm2.12-26.942l-3.029 8.739c-.103.296-.335.5-.605.528L5.043 19.922c-.38.04-.668.424-.659.877L4.7 35.246c.008.397.246.735.573.817l18.24 4.557c.446.111.899.167 1.352.166V9.202c0-1.193-.312-1.266-.695-.164z" fill="#1E1348" mask="url(#b)"/></g></svg>