<svg width="48" height="45" viewBox="0 0 48 45" xmlns="http://www.w3.org/2000/svg" xmlns:xlink="http://www.w3.org/1999/xlink"><title>Group 18</title><defs><path id="a" d="M23.84 44.93H0V.197h47.679V44.93h-23.84z"/></defs><g fill="none" fill-rule="evenodd"><g transform="translate(0 -.127)"><mask id="b" fill="#fff"><use xlink:href="#a"/></mask><path d="M47.679 39.581c0 2.942-2.298 5.35-5.106 5.35H5.106C2.297 44.93 0 42.522 0 39.58V5.546C0 2.604 2.297.196 5.106.196h37.467c2.808 0 5.106 2.408 5.106 5.35V39.58z" fill="#1E1348" mask="url(#b)"/></g><path d="M15.05 10.65c.636 0 1.152.54 1.152 1.207s-.516 1.206-1.152 1.206c-.636 0-1.152-.54-1.152-1.206 0-.666.516-1.206 1.152-1.206m3.42 3.655c.636 0 1.152.54 1.152 1.207s-.516 1.206-1.152 1.206c-.636 0-1.152-.54-1.152-1.206 0-.666.516-1.207 1.152-1.207m0-3.656c.636 0 1.152.54 1.152 1.207s-.516 1.206-1.152 1.206c-.636 0-1.152-.54-1.152-1.206 0-.666.516-1.206 1.152-1.206m3.49 3.655c.637 0 1.152.54 1.152 1.207s-.515 1.206-1.152 1.206c-.636 0-1.152-.54-1.152-1.206 0-.666.516-1.207 1.152-1.207m0 3.584c.637 0 1.152.54 1.152 1.206 0 .666-.515 1.205-1.152 1.205-.636 0-1.152-.539-1.152-1.205 0-.667.516-1.207 1.152-1.207m0-7.239c.637 0 1.152.54 1.152 1.207s-.515 1.206-1.152 1.206c-.636 0-1.152-.54-1.152-1.206 0-.666.516-1.206 1.152-1.206m3.42 3.655c.637 0 1.153.54 1.153 1.207s-.516 1.206-1.152 1.206c-.636 0-1.152-.54-1.152-1.206 0-.666.516-1.207 1.152-1.207m-.001 3.584c.637 0 1.153.54 1.153 1.206 0 .666-.516 1.205-1.152 1.205-.636 0-1.152-.539-1.152-1.205 0-.667.516-1.207 1.152-1.207m-.001-7.239c.637 0 1.153.54 1.153 1.207s-.516 1.206-1.152 1.206c-.636 0-1.152-.54-1.152-1.206 0-.666.516-1.206 1.152-1.206m3.42 3.655c.636 0 1.152.54 1.152 1.207s-.516 1.206-1.152 1.206c-.636 0-1.152-.54-1.152-1.206 0-.666.516-1.207 1.152-1.207m0 3.584c.636 0 1.152.54 1.152 1.206 0 .666-.516 1.205-1.152 1.205-.636 0-1.152-.539-1.152-1.205 0-.667.516-1.207 1.152-1.207m-3.421 3.583c.637 0 1.153.54 1.153 1.207 0 .666-.516 1.205-1.152 1.205-.636 0-1.152-.539-1.152-1.205 0-.667.516-1.207 1.152-1.207m3.42 0c.636 0 1.152.54 1.152 1.207 0 .666-.516 1.205-1.152 1.205-.636 0-1.152-.539-1.152-1.205 0-.667.516-1.207 1.152-1.207m-6.841 3.655c.637 0 1.152.54 1.152 1.207s-.515 1.207-1.152 1.207c-.636 0-1.152-.54-1.152-1.207 0-.666.516-1.207 1.152-1.207m3.42 0c.637 0 1.153.54 1.153 1.207s-.516 1.207-1.152 1.207c-.636 0-1.152-.54-1.152-1.207 0-.666.516-1.207 1.152-1.207m3.42 0c.636 0 1.152.54 1.152 1.207s-.516 1.207-1.152 1.207c-.636 0-1.152-.54-1.152-1.207 0-.666.516-1.207 1.152-1.207M18.47 28.715c.636 0 1.152.54 1.152 1.207 0 .666-.516 1.205-1.152 1.205-.636 0-1.152-.539-1.152-1.205 0-.667.516-1.207 1.152-1.207m3.49 0c.637 0 1.152.54 1.152 1.207 0 .666-.515 1.205-1.152 1.205-.636 0-1.152-.539-1.152-1.205 0-.667.516-1.207 1.152-1.207m3.42 0c.637 0 1.153.54 1.153 1.207 0 .666-.516 1.205-1.152 1.205-.636 0-1.152-.539-1.152-1.205 0-.667.516-1.207 1.152-1.207m3.42 0c.636 0 1.152.54 1.152 1.207 0 .666-.516 1.205-1.152 1.205-.636 0-1.152-.539-1.152-1.205 0-.667.516-1.207 1.152-1.207m3.564-10.825c.637 0 1.152.54 1.152 1.206 0 .666-.515 1.205-1.152 1.205-.636 0-1.152-.539-1.152-1.205 0-.667.516-1.207 1.152-1.207m0 3.583c.637 0 1.152.54 1.152 1.207 0 .666-.515 1.205-1.152 1.205-.636 0-1.152-.539-1.152-1.205 0-.667.516-1.207 1.152-1.207m0 3.655c.637 0 1.152.54 1.152 1.207s-.515 1.207-1.152 1.207c-.636 0-1.152-.54-1.152-1.207 0-.666.516-1.207 1.152-1.207M15.05 32.448c.636 0 1.152.54 1.152 1.207s-.516 1.207-1.152 1.207c-.636 0-1.152-.54-1.152-1.207 0-.666.516-1.207 1.152-1.207m3.42 0c.636 0 1.152.54 1.152 1.207s-.516 1.207-1.152 1.207c-.636 0-1.152-.54-1.152-1.207 0-.666.516-1.207 1.152-1.207m3.49 0c.637 0 1.152.54 1.152 1.207s-.515 1.207-1.152 1.207c-.636 0-1.152-.54-1.152-1.207 0-.666.516-1.207 1.152-1.207m3.42 0c.637 0 1.153.54 1.153 1.207s-.516 1.207-1.152 1.207c-.636 0-1.152-.54-1.152-1.207 0-.666.516-1.207 1.152-1.207M35.79 21.472c.636 0 1.152.54 1.152 1.207 0 .666-.516 1.205-1.152 1.205-.636 0-1.152-.539-1.152-1.205 0-.667.516-1.207 1.152-1.207" fill="#FFF"/></g></svg>