<svg width="46" height="42" viewBox="0 0 46 42" xmlns="http://www.w3.org/2000/svg" xmlns:xlink="http://www.w3.org/1999/xlink"><title>Page 1</title><defs><path id="a" d="M0 42h45.696V.495H0V42z"/><path id="c" d="M.422 6H5.88V.812H.422V6z"/></defs><g fill="none" fill-rule="evenodd"><g transform="translate(0 -.495)"><mask id="b" fill="#fff"><use xlink:href="#a"/></mask><path d="M11.422 39.407c0 1.432 1.224 2.593 2.729 2.593 1.508 0 2.729-1.16 2.729-2.593s-1.222-2.595-2.73-2.595c-1.504 0-2.725 1.163-2.728 2.595zM10.226 9.765l3.044.33 2.248 16.34h-2.845l-2.447-16.67zm5.963.651l4.426.481.74 15.538H18.4l-2.21-16.019zm7.3.795l4.446.484-.74 14.74h-2.98l-.726-15.224zm6.57 15.224l.72-14.429 4.45.485-2.192 13.944H30.06zm5.86 0L38.067 12.8l4.428.482-3.622 13.153h-2.954zM1.082 3.051L5.876 4.14 10 27.902v.015l.005.027c.017.071.054.136.084.205.029.076.046.154.085.223.047.071.114.128.174.194.052.054.09.112.145.155.076.058.167.096.256.14.058.027.108.065.172.088.157.054.327.082.502.082h26.736l-.713 2.594H8.568c-.788 0-1.426.581-1.426 1.298 0 .716.638 1.296 1.426 1.296h29.994c.178 0 .349-.034.509-.088.056-.02.1-.05.153-.077.098-.048.189-.1.276-.17.048-.043.092-.087.133-.13.069-.075.127-.153.174-.237.034-.058.064-.115.087-.178.014-.035.039-.064.05-.102l1.427-5.188 4.286-15.565c.048-.179.048-.359.02-.53-.01-.047-.037-.086-.052-.13a1.264 1.264 0 0 0-.161-.356c-.005-.01-.005-.024-.014-.034-.036-.044-.087-.068-.128-.108a1.402 1.402 0 0 0-.26-.224c-.071-.043-.147-.068-.228-.099-.072-.028-.133-.074-.214-.092-.035-.008-.065.001-.097-.004-.03-.005-.052-.023-.08-.026L9.276 7.046l-.724-4.16c-.088-.513-.508-.928-1.064-1.055L1.774.534C1.01.36.233.784.044 1.478c-.193.695.27 1.4 1.038 1.573z" fill="#1E1348" mask="url(#b)"/></g><g transform="translate(30 35.505)"><mask id="d" fill="#fff"><use xlink:href="#c"/></mask><path d="M.422 3.407C.422 4.84 1.646 6 3.15 6c1.509 0 2.73-1.16 2.73-2.593S4.658.812 3.15.812C1.647.812.426 1.975.423 3.407" fill="#1E1348" mask="url(#d)"/></g></g></svg>