<svg id="Capa_1" xmlns="http://www.w3.org/2000/svg" viewBox="0 0 43.17 38.92"><style>.st0{fill:#1e1348}.st1,.st2,.st3{fill:#b00d23;stroke:#dfd5c5;stroke-miterlimit:10}.st2,.st3{fill:none;stroke:#007ea3}.st3{stroke:#00549f;stroke-width:2}.st4{fill:#b00d23}.st5{fill:#fff}.st6,.st7,.st8{fill:#b00d23;stroke:#fff;stroke-miterlimit:10}.st7,.st8{fill:#1e1348;stroke:#1e1348}.st8{stroke:#fff;stroke-width:1.5}.st9{fill:#dfd5c5}</style><g id="Cart_2_"><path class="st5" d="M1.89 3.14l4.3.98 3.7 21.34v.01l.01.02c.02.06.05.12.08.18.03.07.04.14.08.2s.1.12.16.17c.05.05.08.1.13.14.07.05.15.09.23.12.05.03.1.06.16.08.14.05.29.07.45.07H35.2l-.64 2.33H8.62c-.71 0-1.28.52-1.28 1.17 0 .64.57 1.16 1.28 1.16h26.93c.16 0 .31-.03.46-.08.05-.02.09-.04.14-.07.09-.04.17-.09.25-.15l.12-.12c.06-.07.11-.14.16-.21.03-.05.06-.1.08-.16.01-.03.03-.06.04-.09l1.28-4.66 3.85-13.97c.04-.16.04-.32.02-.48a.612.612 0 0 0-.05-.12c-.04-.11-.08-.22-.14-.32-.01-.01-.01-.02-.01-.03-.03-.04-.08-.06-.12-.1-.07-.07-.14-.15-.23-.2-.06-.04-.13-.06-.2-.09-.06-.03-.12-.07-.19-.08-.03-.01-.06 0-.09 0s-.05-.02-.07-.02L9.25 6.73 8.6 3c-.08-.46-.46-.84-.95-.95L2.52.88c-.69-.15-1.39.23-1.56.85-.17.63.25 1.26.93 1.41zm31.28 21L35.1 11.9l3.98.43-3.25 11.81h-2.66zm-5.26 0l.65-12.96 4 .44-1.97 12.52h-2.68zm-5.9-13.67l3.99.44-.66 13.24h-2.68l-.65-13.68zm-6.55-.71l3.97.43.67 13.95h-2.66L15.46 9.76zm-5.36-.59l2.73.3 2.02 14.67H12.3L10.1 9.17zm1.08 26.62c0 1.29 1.1 2.33 2.45 2.33s2.45-1.04 2.45-2.33-1.1-2.33-2.45-2.33-2.45 1.04-2.45 2.33z"/><ellipse class="st5" cx="30.69" cy="35.79" rx="2.45" ry="2.33"/></g></svg>