<svg id="Capa_1" xmlns="http://www.w3.org/2000/svg" viewBox="0 0 43.17 42.83"><style>.st0{fill:#1e1348}.st1,.st2,.st3{fill:#b00d23;stroke:#dfd5c5;stroke-miterlimit:10}.st2,.st3{fill:none;stroke:#007ea3}.st3{stroke:#00549f;stroke-width:2}.st4{fill:#b00d23}.st5{fill:#fff}.st6,.st7,.st8{fill:#b00d23;stroke:#fff;stroke-miterlimit:10}.st7,.st8{fill:#1e1348;stroke:#1e1348}.st8{stroke:#fff;stroke-width:1.5}.st9{fill:#dfd5c5}</style><path class="st0" d="M21.58.33C9.96.33.5 9.79.5 21.42S9.96 42.5 21.58 42.5c11.63 0 21.09-9.46 21.09-21.08C42.67 9.79 33.21.33 21.58.33zm-4.05 7.55l.99.28v-1.3l.38-.36.41.8.78.95-.32.43-1.26.29V8.2l-.99.77-.29-.44.3-.65zM2.34 20.95c.1-4.08 1.47-7.84 3.74-10.92.08.01.13.03.13.03 0 .29-.4.36 0 1.09.51.94.07 1.38.07 1.38s-1.24.87-1.45 1.02c-.22.14-.8.94-.44.72.36-.22.8-.43.44.15-.36.58-1.01 1.52-1.16 1.88-.14.36-.87 1.23-.87 1.67 0 .44-.29 1.31-.22 1.67.05.26-.11 1-.24 1.31zm7.5 12.12l-.29 1.08.29.87s-.44.36-.72.36c-.27 0-.36.17-.65.09a19.124 19.124 0 0 1-5.65-9.77c.09.03.23.09.42.26.27.24.44.36.8.51.36.15.51.36.94.58.44.22.29.07.87.73.58.65.51.65.65 1.01s.36.73.51.95c.15.22.58.36.8.51.22.15.58.29.8.29.22 0 .87.65 1.24.72.36.08.36.8.36.8l-.37 1.01zm2.91-28.02c-.94 1.02-.73.73-.94 1.02-.22.29-.15.36-.65.73-.51.36-.72.8-.72.8l-.8.29-.67-.3s-.58.22-.51-.07c.02-.08.05-.16.08-.24 1.78-1.64 3.86-2.94 6.15-3.83-.23.29-.5.59-.5.59s-.5-.01-1.44 1.01zm22.14 26.06c-.08.29-.22.8-.29 1.09s-.44.87-.65 1.02c-.22.15-.58.58-.8.65s-.36-.51-.29-.8c.08-.29.44-1.09.44-1.09s.07-.43.15-.73c.08-.29.95-.65.95-.65l.58-1.09s.07.29.07.51c-.02.22-.09.8-.16 1.09zm.21-6.82c-.15.22-.58.8-.8 1.09s-.51.73-.94 1.09c-.44.36-.44.72-.65 1.02-.22.29-.51.94-.51.94s.15 1.45.22 1.74c.08.29-.51 1.09-.51 1.09l-.65.65-.88 1.16.07 1.08s-.66.51-1.02.8c-.36.29-.31.51-.59.8-.29.29-1.06.8-1.35.87-.29.07-1.52.29-1.52.29v-.65l-.4-.73s-.4-.87-.62-1.16c-.22-.29-.22-.73-.58-1.09-.36-.36-.54-.65-.61-.87-.07-.22.05-.87.05-.87s.28-.8.42-1.09c.15-.29 0-.73-.15-1.02-.15-.29-.22-1.02-.22-1.23 0-.22-.59-.58-.8-.8-.22-.22-.15-.51-.15-.8 0-.29-.22-.95-.15-1.45.07-.51-.65-.15-1.09 0-.44.14-.72-.15-.72-.58 0-.43-.8-.07-1.31.22-.51.29-1.09.29-1.67.51-.58.22-.87-.22-.87-.22s-.51-.44-.87-.65c-.36-.22-.73-.65-1.02-1.02-.29-.36-1.02-1.46-1.09-1.89-.07-.44 0-.73 0-1.24s0-.8.07-1.16c.07-.36.29-.8.51-1.16.22-.36 1.02-.8 1.23-.94.22-.14.73-.58.73-.87 0-.29.29-.43.43-.73.15-.29.65-1.01 1.31-.72 0 0 .58-.07.8-.14s.8-.29 1.08-.43c.29-.15 1.01-.21 1.01-.21s.57.23.79.23.94-.15.94-.15.33 1.05.33 1.27.22.43.58.58c.36.14 2.03.51 2.76-.07.17-.13.72.22.72.22s1.82.36 2.1.58c.29.22.8.36.95.58.15.22.65.87.72 1.09.08.22.44 1.02.51 1.31.07.29.29 1.02.51 1.38.22.36 1.45 1.96 1.89 2.69l1.31-.22c-.01.01-.15.66-.3.88zm5.3-2.76c-.07-.29-.51-1.31-.51-1.31s-.44-.58-.73-.73c-.29-.15-.51-.51-1.02-.8-.51-.29-.72-.44-1.16-.44-.44 0-.87-.58-1.38-.87-.51-.29-.58-.14-.58-.14s.58.87.58 1.09.65.58 1.31.43c0 0 .43.8.65 1.02s-.07.44-.51.73-.36.22-.58.43c-.22.22-.94.58-1.16.73-.22.14-1.09.58-1.52.14-.22-.21-.15-.65-.29-.94-.15-.29-1.67-2.54-2.39-3.56-.13-.18-.44-.73-.65-.87-.22-.15.51-.15.51-.15s0-.51-.07-.87.07-.87.07-.87-.73.43-.95.58c-.22.15-.44-.29-.72-.65-.29-.36-.58-.8-.65-1.16-.07-.36.36-.51.36-.51l.65-.36s.8-.14 1.31-.07 1.31.15 1.31.15.22-.51-.08-.73c-.29-.22-.95-.58-1.23-.51-.29.07.14-.36.51-.65l-.81-.15s-.73.36-.95.44c-.22.07-.59.22-.89.58-.29.36.12.87-.17 1.02-.29.15-.49.22-.7.29-.22.07-.91 0-.91 0-.75 0-.27.68-.08.93l-.58-.71-.43-1.02s-.62-.43-.91-.58c-.29-.14-1.19-.65-1.19-.65l.06.65.84.85.08.02.51.58-.89.07v-.57c-1.49-.22-.75-.45-.85-.52-.22-.14-.76-.51-.76-.51s-.88.14-1.1.22c-.22.07-.29.29-.72.43-.44.15-.64.36-.78.58-.14.22-.62.87-.91 1.16-.29.29-.84.22-1.05.22-.22 0-1.27-.29-1.27-.29v-1.23s.15-.69.07-.91l.64-.11 1.06-.22.33-.21.45-.58s-.5-.36-.14-.87c.17-.24.8-.29 1.09-.51.29-.22.73-.36.73-.36s.51-.43 1.02-.94c0 0 .36-.22.8-.36 0 0 1.24 1.09 1.45 1.09s1.02-.51 1.02-.51.22-.65.15-.87c-.07-.22-.44-.94-.44-.94s-.23.35-.44.65c-.22.29-.37.65-.37.65s-1.02-.07-1.09-.29c-.07-.22-.22-.58-.29-.79-.07-.22-.65-.21-1.08-.07-.44.15.07-.78.07-.78s.44-.55.73-.55.95-.37 1.23-.44c.29-.07 1.16-.63 1.52-.63.36 0 .8-.07 1.02-.07h1.08l1.52.1s1.31.6.87.89c0 0 .51.37.73.59.2.21.73-.16 1.03-.33 5.43 3.41 9.06 9.45 9.06 16.33 0 .37-.03.74-.05 1.1-.13-.35-.34-.79-.39-.98z"/><path class="st0" d="M17.94 8.16v.04l.03-.03z"/></svg>