<svg id="Layer_1" xmlns="http://www.w3.org/2000/svg" width="21" height="21" viewBox="0 0 21 21"><style>.st0{fill:#1e1348}</style><path class="st0" d="M15.79 12.27h-5.78c-.14 0-.26.11-.26.25v3.04c0 .14.11.26.26.26h5.78c.14 0 .26-.11.26-.26v-3.04a.25.25 0 0 0-.26-.25zm-2.51 5.1h-3.26c-.14 0-.26.11-.26.26v3.04c0 .14.11.26.26.26h3.26c.14 0 .26-.11.26-.26v-3.04c0-.15-.12-.26-.26-.26zM18 6.19h-7.98c-.14 0-.26.11-.26.25v3.04c0 .14.11.26.26.26H18c.14 0 .26-.11.26-.26V6.45c0-.14-.12-.26-.26-.26zM20.21.12H10.02c-.14 0-.26.11-.26.26v3.04c0 .14.11.26.26.26h10.19c.14 0 .26-.11.26-.26V.38c-.01-.15-.12-.26-.26-.26zM8.3 14.26H6.57V.53c0-.24-.19-.43-.43-.43H2.66c-.24 0-.43.19-.43.43v13.73H.49c-.17 0-.32.1-.39.25s-.05.33.05.46l3.9 5.82c.08.1.21.16.34.16.13 0 .25-.06.34-.16l3.9-5.82c.1-.13.12-.31.05-.46a.392.392 0 0 0-.38-.25zm0 0"/></svg>