<svg id="Layer_1" xmlns="http://www.w3.org/2000/svg" xmlns:xlink="http://www.w3.org/1999/xlink" width="21" height="21" viewBox="0 0 21 21"><style>.st0{clip-path:url(#SVGID_2_)}.st0,.st1{fill:#1e1348}</style><defs><path id="SVGID_1_" d="M.08.11h20.85v20.85H.08z"/></defs><clipPath id="SVGID_2_"><use xlink:href="#SVGID_1_" overflow="visible"/></clipPath><path class="st0" d="M20.34 17.6l-4.78-4.78a9.083 9.083 0 0 1-2.76 2.76l4.78 4.78c.76.76 2 .76 2.76 0 .77-.76.77-1.99 0-2.76zm0 0"/><path class="st1" d="M15.71 7.92c0-4.31-3.5-7.81-7.81-7.81S.09 3.61.09 7.92s3.5 7.81 7.81 7.81 7.81-3.5 7.81-7.81zM7.9 13.78c-3.23 0-5.86-2.63-5.86-5.86 0-3.23 2.63-5.86 5.86-5.86 3.23 0 5.86 2.63 5.86 5.86-.01 3.23-2.63 5.86-5.86 5.86zm0 0"/><path class="st1" d="M3.34 7.92h1.3c0-1.79 1.46-3.25 3.25-3.25v-1.3c-2.51-.01-4.55 2.04-4.55 4.55zm0 0"/></svg>