<svg id="Layer_1" xmlns="http://www.w3.org/2000/svg" width="35" height="35" viewBox="0 0 35 35"><style>.st0{fill:#fff}</style><path class="st0" d="M33.06 13.3a4.686 4.686 0 0 0-3.04-1.14h-7.39V6.83c0-2.24-.65-3.86-1.95-4.8-2.04-1.5-4.86-.65-4.98-.6-.35.11-.59.44-.59.8v5.96c0 1.95-.93 3.6-2.76 4.91-1.37.98-2.77 1.41-2.91 1.46l-.2.05c-.3-.51-.86-.86-1.5-.86H2.29c-.96 0-1.73.78-1.73 1.73v16.04c0 .96.78 1.73 1.73 1.73h5.47c.53 0 1.02-.25 1.33-.62.88.93 2.12 1.52 3.47 1.52h14.6c3.22 0 5.28-1.69 5.65-4.63L34.7 17.8c.25-1.69-.37-3.42-1.64-4.5zM7.8 31.52c0 .03-.02.05-.05.05H2.29c-.03 0-.05-.02-.05-.05V15.48c0-.03.02-.05.05-.05h5.47c.03 0 .05.02.05.05L7.8 31.52zm25.21-13.99l-1.88 11.74c0 .01 0 .02-.01.04-.26 2.1-1.59 3.17-3.97 3.17h-14.6c-1.5 0-2.79-1.12-3.03-2.59-.01-.05-.02-.1-.04-.15V16.28l.37-.08c.01 0 .02-.01.04-.01.07-.02 1.73-.49 3.41-1.69 2.3-1.63 3.5-3.81 3.5-6.31V2.9c.73-.12 1.98-.18 2.89.49.83.61 1.25 1.77 1.25 3.44V13c0 .46.38.84.84.84h8.23c.7 0 1.39.26 1.95.74a3.19 3.19 0 0 1 1.05 2.95z"/></svg>