<svg id="Layer_2" xmlns="http://www.w3.org/2000/svg" width="35" height="35" viewBox="0 0 35 35"><style>.st0{fill:#333}</style><path class="st0" d="M32.9 13.2c-.9-.7-2-1.1-3-1.1h-7.4V6.7c0-2.2-.6-3.9-2-4.8-2-1.5-4.9-.6-5-.6-.3.1-.5.4-.5.8v6c0 1.9-.9 3.6-2.8 4.9-1.4 1-2.8 1.4-2.9 1.5l-.2.1c-.3-.5-.9-.9-1.5-.9H2.1c-1 0-1.7.8-1.7 1.7v16c0 1 .8 1.7 1.7 1.7h5.5c.5 0 1-.2 1.3-.6.9.9 2.1 1.5 3.5 1.5H27c3.2 0 5.3-1.7 5.7-4.6l1.9-11.7c.2-1.7-.4-3.5-1.7-4.5zM7.6 31.4H2.1V15.3h5.5s.1 0 .1.1l-.1 16zm25.3-14L31 29.1c-.3 2.1-1.6 3.2-4 3.2H12.4c-1.5 0-2.8-1.1-3-2.6V16.1l.4-.1c.1 0 1.7-.5 3.4-1.7 2.3-1.6 3.5-3.8 3.5-6.3V2.8c.7-.1 2-.2 2.9.5.8.6 1.2 1.8 1.2 3.4v6.2c0 .5.4.8.8.8h8.2c.7 0 1.4.3 2 .7.8.7 1.2 1.9 1.1 3z"/></svg>