<svg id="Capa_1" xmlns="http://www.w3.org/2000/svg" xmlns:xlink="http://www.w3.org/1999/xlink" viewBox="0 0 37 31.75"><style>.st0{fill:#1e1348}.st1,.st2,.st3{fill:#b00d23;stroke:#dfd5c5;stroke-miterlimit:10}.st2,.st3{fill:none;stroke:#007ea3}.st3{stroke:#00549f;stroke-width:2}.st4{fill:#b00d23}.st5{fill:#fff}.st6,.st7,.st8{fill:#b00d23;stroke:#fff;stroke-miterlimit:10}.st7,.st8{fill:#1e1348;stroke:#1e1348}.st8{stroke:#fff;stroke-width:1.5}.st9{fill:none}.st10{fill:#c0212e}.st11{fill:none;stroke:#1e1348;stroke-width:2;stroke-miterlimit:10}.st12{clip-path:url(#SVGID_2_)}.st13{clip-path:url(#SVGID_4_);enable-background:new}.st14{clip-path:url(#SVGID_6_)}.st15{clip-path:url(#SVGID_8_)}.st16{clip-path:url(#SVGID_10_);fill:#1e1348}.st17{clip-path:url(#SVGID_12_)}.st18{clip-path:url(#SVGID_14_);fill:#dfd5c5}.st19{clip-path:url(#SVGID_16_)}.st20{clip-path:url(#SVGID_18_);fill:#dfd5c5}</style><path class="st9" d="M-926.5-884.25h1609v2040h-1609z"/><path class="st9" d="M-1192.5-294.25h1609v2040h-1609z"/><defs><path id="SVGID_1_" d="M262.94-494.87v-14.36H229v28.72h33.94z"/></defs><clipPath id="SVGID_2_"><use xlink:href="#SVGID_1_" overflow="visible"/></clipPath><g class="st12"><defs><path id="SVGID_3_" d="M-661-633H444V821H-661z"/></defs><clipPath id="SVGID_4_"><use xlink:href="#SVGID_3_" overflow="visible"/></clipPath></g><defs><path id="SVGID_11_" d="M244.35-491.56h-2.36c-3.06 0-5.55-2.49-5.55-5.55 0-3.04 2.46-5.51 5.49-5.54v-.01h.55v-1.5l5.02 2.9-5.02 2.9v-1.5h-.49a2.744 2.744 0 1 0 0 5.49h2.36v2.81z"/></defs><clipPath id="SVGID_6_"><use xlink:href="#SVGID_11_" overflow="visible"/></clipPath><g class="st14"><defs><path id="SVGID_13_" d="M-661-633H444V821H-661z"/></defs><clipPath id="SVGID_8_"><use xlink:href="#SVGID_13_" overflow="visible"/></clipPath></g><defs><path id="SVGID_15_" d="M251.03-491.59l-.55.01v1.5l-5.02-2.9 5.02-2.9v1.5h.49a2.744 2.744 0 1 0 0-5.49h-2.36v-2.8h2.36c3.06 0 5.55 2.49 5.55 5.54 0 3.04-2.45 5.5-5.49 5.54"/></defs><clipPath id="SVGID_10_"><use xlink:href="#SVGID_15_" overflow="visible"/></clipPath><g clip-path="url(#SVGID_10_)"><defs><path id="SVGID_17_" d="M-661-633H444V821H-661z"/></defs><clipPath id="SVGID_12_"><use xlink:href="#SVGID_17_" overflow="visible"/></clipPath></g><path class="st0" d="M18.88.6C8.91.6.6 6.42.6 13.34c0 4.71 5.54 8.86 8.31 11.08 0 4.98-3.88 6.65-3.88 6.65 6.37 0 9.97-3.05 11.63-4.98h2.22c9.69.28 17.72-5.54 17.72-12.74C36.6 6.42 28.85.6 18.88.6z"/><path class="st5" d="M16.88 19.35h-2.5a5.89 5.89 0 0 1-5.88-5.88c0-3.22 2.61-5.84 5.82-5.87v-.01h.58V6l5.33 3.08-5.33 3.08v-1.59h-.52c-1.61 0-2.91 1.31-2.91 2.91 0 1.61 1.3 2.91 2.91 2.91h2.5v2.96zm7.09-.04l-.58.01v1.59l-5.33-3.08 5.33-3.08v1.59h.52c1.61 0 2.91-1.31 2.91-2.91 0-1.61-1.3-2.91-2.91-2.91h-2.5V7.56h2.5a5.89 5.89 0 0 1 5.88 5.88c0 3.22-2.6 5.84-5.82 5.87z"/></svg>