<?xml version="1.0" encoding="utf-8"?>
<!-- Generator: Adobe Illustrator 21.0.2, SVG Export Plug-In . SVG Version: 6.00 Build 0)  -->
<svg version="1.1" id="Layer_1" xmlns="http://www.w3.org/2000/svg" xmlns:xlink="http://www.w3.org/1999/xlink" x="0px" y="0px"
	 width="230px" height="210px" viewBox="0 0 230 210" style="enable-background:new 0 0 230 210;" xml:space="preserve">
<style type="text/css">
	.st0{fill:none;stroke:#333333;stroke-miterlimit:10;stroke-dasharray:4.0127,4.0127;}
	.st1{fill:none;stroke:#333333;stroke-miterlimit:10;stroke-dasharray:3.9798,3.9798;}
	.st2{fill:#B00D23;}
	.st3{fill:#FFFFFF;}
	.st4{fill:#160D37;stroke:#FFFFFF;stroke-width:2;stroke-miterlimit:10;}
</style>
<g>
	<g>
		<g>
			<circle class="st0" cx="105.71" cy="105.51" r="90.68"/>
		</g>
	</g>
	<g>
		<g>
			<circle class="st1" cx="105.89" cy="105.33" r="102.61"/>
		</g>
	</g>
	<g>
		<circle class="st2" cx="105.48" cy="105.74" r="81.9"/>
	</g>
	<g>
		<path class="st3" d="M138.22,141.83H87.63c-2.8,0-5.06-2.27-5.06-5.06c0-2.79,2.26-5.06,5.06-5.06h50.59
			c2.79,0,5.06,2.27,5.06,5.06C143.28,139.56,141.02,141.83,138.22,141.83L138.22,141.83z M138.22,141.83"/>
		<path class="st3" d="M148.34,136.77c0,5.59-4.53,10.12-10.12,10.12c-5.59,0-10.12-4.53-10.12-10.12c0-5.59,4.53-10.11,10.12-10.11
			C143.81,126.65,148.34,131.18,148.34,136.77L148.34,136.77z M148.34,136.77"/>
		<path class="st3" d="M143.64,81.14l-70.82-5.06c-1.61-0.11-3.25,0.57-4.29,1.86c-1.04,1.28-1.39,2.99-0.94,4.58l10.12,35.41
			c0.62,2.17,2.61,3.67,4.87,3.67h50.59c8.37,0,15.18-6.81,15.18-15.18V86.18C148.34,83.53,146.29,81.33,143.64,81.14L143.64,81.14z
			 M143.64,81.14"/>
		<path class="st3" d="M148.34,76.07H74.25l-2.01-6.55c-0.03-0.09-0.09-0.14-0.12-0.23c-0.12-0.34-0.31-0.62-0.5-0.93
			c-0.17-0.26-0.31-0.53-0.51-0.76c-0.22-0.23-0.48-0.4-0.73-0.59c-0.27-0.2-0.52-0.41-0.82-0.56c-0.26-0.12-0.53-0.17-0.81-0.25
			c-0.36-0.1-0.71-0.2-1.1-0.22c-0.08,0-0.15-0.05-0.24-0.05H57.28c-2.79,0-5.06,2.26-5.06,5.06c0,2.79,2.26,5.06,5.06,5.06h6.38
			l19.13,62.19c0.67,2.18,2.67,3.58,4.84,3.58c0.49,0,0.99-0.07,1.49-0.23c2.67-0.82,4.17-3.65,3.35-6.32l-15.11-49.1h70.98
			c2.79,0,5.06-2.26,5.06-5.06C153.4,78.33,151.13,76.07,148.34,76.07L148.34,76.07z M148.34,76.07"/>
		<path class="st3" d="M92.69,136.77c0,5.59-4.53,10.12-10.12,10.12c-5.59,0-10.11-4.53-10.11-10.12c0-5.59,4.53-10.11,10.11-10.11
			C88.16,126.65,92.69,131.18,92.69,136.77L92.69,136.77z M92.69,136.77"/>
	</g>
	<polygon class="st4" points="163.98,111.29 178.72,163.48 192.22,150.58 215.85,174.21 226.72,161.75 203.89,138.92 216.78,126.03 
			"/>
</g>
<g>
</g>
<g>
</g>
<g>
</g>
<g>
</g>
<g>
</g>
<g>
</g>
<g>
</g>
<g>
</g>
<g>
</g>
<g>
</g>
<g>
</g>
<g>
</g>
<g>
</g>
<g>
</g>
<g>
</g>
</svg>
