<?xml version="1.0" encoding="utf-8"?>
<!-- Generator: Adobe Illustrator 21.0.2, SVG Export Plug-In . SVG Version: 6.00 Build 0)  -->
<svg version="1.1" xmlns="http://www.w3.org/2000/svg" xmlns:xlink="http://www.w3.org/1999/xlink" x="0px" y="0px" width="220px"
	 height="230px" viewBox="0 0 220 230" style="enable-background:new 0 0 220 230;" xml:space="preserve">
<style type="text/css">
	.st0{display:none;}
	.st1{display:inline;}
	.st2{clip-path:url(#SVGID_2_);}
	.st3{clip-path:url(#SVGID_4_);fill:#160D37;}
	.st4{clip-path:url(#SVGID_6_);}
	.st5{clip-path:url(#SVGID_8_);fill:#1E1348;}
	.st6{clip-path:url(#SVGID_10_);}
	.st7{clip-path:url(#SVGID_12_);fill:#B00D23;}
	.st8{clip-path:url(#SVGID_14_);}
	.st9{clip-path:url(#SVGID_16_);fill:#1E1348;}
	.st10{clip-path:url(#SVGID_18_);}
	.st11{clip-path:url(#SVGID_20_);fill:#B00D23;}
	.st12{clip-path:url(#SVGID_22_);}
	.st13{clip-path:url(#SVGID_24_);fill:#1E1348;}
	.st14{clip-path:url(#SVGID_26_);}
	.st15{clip-path:url(#SVGID_28_);fill:#B00D23;}
	.st16{clip-path:url(#SVGID_30_);}
	.st17{clip-path:url(#SVGID_32_);fill:#1E1348;}
	.st18{clip-path:url(#SVGID_34_);}
	.st19{clip-path:url(#SVGID_36_);fill:#B00D23;}
	.st20{clip-path:url(#SVGID_38_);}
	.st21{clip-path:url(#SVGID_40_);fill:#1E1348;}
	.st22{clip-path:url(#SVGID_42_);}
	.st23{clip-path:url(#SVGID_44_);fill:#B00D23;}
	.st24{clip-path:url(#SVGID_46_);}
	.st25{clip-path:url(#SVGID_48_);fill:#1E1348;}
	.st26{clip-path:url(#SVGID_50_);}
	.st27{clip-path:url(#SVGID_52_);fill:#B00D23;}
	.st28{clip-path:url(#SVGID_54_);}
	.st29{clip-path:url(#SVGID_56_);fill:#1E1348;}
	.st30{clip-path:url(#SVGID_58_);}
	.st31{clip-path:url(#SVGID_60_);fill:#B00D23;}
	.st32{clip-path:url(#SVGID_62_);}
	.st33{clip-path:url(#SVGID_64_);fill:#1E1348;}
	.st34{clip-path:url(#SVGID_66_);}
	.st35{clip-path:url(#SVGID_68_);fill:#B00D23;}
	.st36{clip-path:url(#SVGID_70_);}
	.st37{clip-path:url(#SVGID_72_);fill:#1E1348;}
	.st38{clip-path:url(#SVGID_74_);}
	.st39{clip-path:url(#SVGID_76_);fill:#B00D23;}
	.st40{clip-path:url(#SVGID_78_);}
	.st41{clip-path:url(#SVGID_80_);fill:#1E1348;}
	.st42{clip-path:url(#SVGID_82_);}
	.st43{clip-path:url(#SVGID_84_);fill:#B00D23;}
	.st44{clip-path:url(#SVGID_86_);}
	.st45{clip-path:url(#SVGID_88_);fill:#1E1348;}
	.st46{clip-path:url(#SVGID_90_);}
	.st47{clip-path:url(#SVGID_92_);fill:#B00D23;}
	.st48{clip-path:url(#SVGID_94_);}
	.st49{clip-path:url(#SVGID_96_);fill:#FFFFFF;}
	.st50{clip-path:url(#SVGID_98_);}
	.st51{clip-path:url(#SVGID_100_);fill:#FFFFFF;}
	.st52{clip-path:url(#SVGID_102_);}
	.st53{clip-path:url(#SVGID_104_);fill:#FFFFFF;}
	.st54{clip-path:url(#SVGID_106_);}
	.st55{clip-path:url(#SVGID_108_);fill:#FFFFFF;}
	.st56{clip-path:url(#SVGID_110_);}
	.st57{clip-path:url(#SVGID_112_);fill:#FFFFFF;}
	.st58{clip-path:url(#SVGID_114_);}
	.st59{clip-path:url(#SVGID_116_);fill:#FFFFFF;}
	.st60{clip-path:url(#SVGID_118_);}
	.st61{clip-path:url(#SVGID_120_);fill:#FFFFFF;}
	.st62{clip-path:url(#SVGID_122_);}
	.st63{clip-path:url(#SVGID_124_);fill:#FFFFFF;}
	.st64{clip-path:url(#SVGID_126_);}
	.st65{clip-path:url(#SVGID_128_);fill:#FFFFFF;}
	.st66{clip-path:url(#SVGID_130_);}
	.st67{clip-path:url(#SVGID_132_);fill:#FFFFFF;}
	.st68{clip-path:url(#SVGID_134_);}
	.st69{clip-path:url(#SVGID_136_);fill:#FFFFFF;}
	.st70{clip-path:url(#SVGID_138_);}
	.st71{clip-path:url(#SVGID_140_);fill:#FFFFFF;}
	.st72{clip-path:url(#SVGID_142_);}
	.st73{clip-path:url(#SVGID_144_);fill:#FFFFFF;}
	.st74{clip-path:url(#SVGID_146_);}
	.st75{clip-path:url(#SVGID_148_);fill:#FFFFFF;}
	.st76{clip-path:url(#SVGID_150_);}
	.st77{clip-path:url(#SVGID_152_);fill:#FFFFFF;}
	.st78{clip-path:url(#SVGID_154_);}
	.st79{clip-path:url(#SVGID_156_);fill:#FFFFFF;}
	.st80{clip-path:url(#SVGID_158_);}
	.st81{clip-path:url(#SVGID_160_);fill:#FFFFFF;}
	.st82{clip-path:url(#SVGID_162_);}
	.st83{clip-path:url(#SVGID_164_);fill:#FFFFFF;}
	.st84{clip-path:url(#SVGID_166_);}
	.st85{clip-path:url(#SVGID_168_);fill:#FFFFFF;}
	.st86{clip-path:url(#SVGID_170_);}
	.st87{clip-path:url(#SVGID_172_);fill:#FFFFFF;}
	.st88{clip-path:url(#SVGID_174_);}
	.st89{clip-path:url(#SVGID_176_);fill:#FFFFFF;}
	.st90{clip-path:url(#SVGID_178_);}
	.st91{clip-path:url(#SVGID_180_);fill:#FFFFFF;}
	.st92{clip-path:url(#SVGID_182_);}
	.st93{clip-path:url(#SVGID_184_);fill:#FFFFFF;}
	.st94{clip-path:url(#SVGID_186_);}
	.st95{clip-path:url(#SVGID_188_);fill:#FFFFFF;}
	.st96{clip-path:url(#SVGID_190_);}
	.st97{clip-path:url(#SVGID_192_);fill:#FFFFFF;}
	.st98{clip-path:url(#SVGID_194_);}
	.st99{clip-path:url(#SVGID_196_);fill:#FFFFFF;}
	.st100{clip-path:url(#SVGID_198_);}
	.st101{clip-path:url(#SVGID_200_);fill:#FFFFFF;}
	.st102{clip-path:url(#SVGID_202_);}
	.st103{clip-path:url(#SVGID_204_);fill:#FFFFFF;}
	.st104{fill:#160D37;}
	.st105{fill:none;stroke:#160D37;stroke-width:10;stroke-miterlimit:10;}
	.st106{fill:#B00D23;}
</style>
<g id="start_selling" class="st0">
	<g class="st1">
		<g>
			<defs>
				<path id="SVGID_1_" d="M217.49,114.36c0.65-59.09-47-107.66-106.24-108.31C51.99,5.4,3.27,52.91,2.61,111.97
					C2.1,157.74,30.8,198.79,74.04,214.1c0.95,0.34,2,0.3,2.94-0.14c0.9-0.44,1.6-1.2,1.94-2.19c0.71-1.9-0.37-4.18-2.31-4.86
					c-40.14-14.23-66.81-52.34-66.34-94.86c0.61-54.85,45.87-98.97,100.89-98.36c55.02,0.61,99.27,45.71,98.67,100.56
					c-0.39,34.91-18.4,66.29-48.29,84.17l0.28-6.27c0.03-2.44-0.98-3.23-1.58-3.51c-0.63-0.27-1.96-0.47-3.9,1.33l-20.88,19.53
					c-1.08,1.03-1.67,2.1-1.68,3.05c-0.01,0.6,0.25,2.57,3.83,2.73l28.61,1.27c1.49,0.05,2.66-0.24,3.33-0.89
					c1.12-1.07,0.84-2.79-0.82-4.58l-4.91-5.19C197.02,186.8,217.07,152.64,217.49,114.36"/>
			</defs>
			<clipPath id="SVGID_2_">
				<use xlink:href="#SVGID_1_"  style="overflow:visible;"/>
			</clipPath>
			<g class="st2">
				<defs>
					<rect id="SVGID_3_" x="-94.71" y="-2567.78" width="410" height="5307.1"/>
				</defs>
				<clipPath id="SVGID_4_">
					<use xlink:href="#SVGID_3_"  style="overflow:visible;"/>
				</clipPath>
				<rect x="-2.86" y="0.58" class="st3" width="225.83" height="221.45"/>
			</g>
		</g>
		<g>
			<defs>
				<path id="SVGID_5_" d="M110.22,222.51c-0.92,0-1.53-0.55-1.53-1.39V63.07c0-0.83,0.61-1.39,1.53-1.39
					c0.92,0,1.53,0.55,1.53,1.39v158.05C111.75,221.96,110.83,222.51,110.22,222.51"/>
			</defs>
			<clipPath id="SVGID_6_">
				<use xlink:href="#SVGID_5_"  style="overflow:visible;"/>
			</clipPath>
			<g class="st4">
				<defs>
					<rect id="SVGID_7_" x="-94.71" y="-2332.69" width="410" height="4832.59"/>
				</defs>
				<clipPath id="SVGID_8_">
					<use xlink:href="#SVGID_7_"  style="overflow:visible;"/>
				</clipPath>
				<rect x="103.23" y="56.71" class="st5" width="13.99" height="170.78"/>
			</g>
		</g>
		<g>
			<defs>
				<path id="SVGID_9_" d="M118.16,55.29c0,4.37-3.56,7.92-7.94,7.92c-4.39,0-7.94-3.55-7.94-7.92c0-4.37,3.56-7.92,7.94-7.92
					C114.61,47.37,118.16,50.92,118.16,55.29"/>
			</defs>
			<clipPath id="SVGID_10_">
				<use xlink:href="#SVGID_9_"  style="overflow:visible;"/>
			</clipPath>
			<g class="st6">
				<defs>
					<rect id="SVGID_11_" x="-94.71" y="-2567.78" width="410" height="5307.1"/>
				</defs>
				<clipPath id="SVGID_12_">
					<use xlink:href="#SVGID_11_"  style="overflow:visible;"/>
				</clipPath>
				<rect x="96.81" y="41.91" class="st7" width="26.82" height="26.77"/>
			</g>
		</g>
		<g>
			<defs>
				<path id="SVGID_13_" d="M109.61,116.5c-0.61,0-1.22-0.3-1.22-0.91L90.98,82.7c-0.31-0.61,0-1.52,0.61-2.13
					c0.61-0.3,1.53,0,2.14,0.61l17.41,32.89c0.3,0.61,0,1.52-0.61,2.13C110.22,116.5,109.92,116.5,109.61,116.5"/>
			</defs>
			<clipPath id="SVGID_14_">
				<use xlink:href="#SVGID_13_"  style="overflow:visible;"/>
			</clipPath>
			<g class="st8">
				<defs>
					<rect id="SVGID_15_" x="-94.71" y="-2567.78" width="410" height="5307.1"/>
				</defs>
				<clipPath id="SVGID_16_">
					<use xlink:href="#SVGID_15_"  style="overflow:visible;"/>
				</clipPath>
				<rect x="85.39" y="74.98" class="st9" width="31.33" height="46.98"/>
			</g>
		</g>
		<g>
			<defs>
				<path id="SVGID_17_" d="M95.26,76.91c0,3.2-2.6,5.79-5.8,5.79c-3.2,0-5.8-2.59-5.8-5.79c0-3.2,2.6-5.78,5.8-5.78
					C92.66,71.13,95.26,73.72,95.26,76.91"/>
			</defs>
			<clipPath id="SVGID_18_">
				<use xlink:href="#SVGID_17_"  style="overflow:visible;"/>
			</clipPath>
			<g class="st10">
				<defs>
					<rect id="SVGID_19_" x="-94.71" y="-2567.78" width="410" height="5307.1"/>
				</defs>
				<clipPath id="SVGID_20_">
					<use xlink:href="#SVGID_19_"  style="overflow:visible;"/>
				</clipPath>
				<rect x="78.18" y="65.66" class="st11" width="22.54" height="22.5"/>
			</g>
		</g>
		<g>
			<defs>
				<path id="SVGID_21_" d="M108.39,116.8c-0.31,0-0.61,0-0.92-0.31l-56.81-40.8c-0.61-0.61-0.92-1.52-0.31-2.13
					c0.61-0.61,1.53-0.91,2.14-0.31l56.81,40.81c0.61,0.61,0.92,1.52,0.3,2.13C109.31,116.5,109,116.8,108.39,116.8"/>
			</defs>
			<clipPath id="SVGID_22_">
				<use xlink:href="#SVGID_21_"  style="overflow:visible;"/>
			</clipPath>
			<g class="st12">
				<defs>
					<rect id="SVGID_23_" x="-94.71" y="-2567.78" width="410" height="5307.1"/>
				</defs>
				<clipPath id="SVGID_24_">
					<use xlink:href="#SVGID_23_"  style="overflow:visible;"/>
				</clipPath>
				<rect x="44.56" y="67.46" class="st13" width="70.85" height="54.81"/>
			</g>
		</g>
		<g>
			<defs>
				<path id="SVGID_25_" d="M52.8,70.21c0,4.2-3.42,7.61-7.64,7.61c-4.22,0-7.64-3.41-7.64-7.61s3.42-7.61,7.64-7.61
					C49.38,62.6,52.8,66.01,52.8,70.21"/>
			</defs>
			<clipPath id="SVGID_26_">
				<use xlink:href="#SVGID_25_"  style="overflow:visible;"/>
			</clipPath>
			<g class="st14">
				<defs>
					<rect id="SVGID_27_" x="-94.71" y="-2567.78" width="410" height="5307.1"/>
				</defs>
				<clipPath id="SVGID_28_">
					<use xlink:href="#SVGID_27_"  style="overflow:visible;"/>
				</clipPath>
				<rect x="32.06" y="57.13" class="st15" width="26.21" height="26.16"/>
			</g>
		</g>
		<g>
			<defs>
				<path id="SVGID_29_" d="M68.07,140.55c-0.61,0-0.92-0.3-1.22-0.91c-0.31-0.61,0-1.52,0.61-2.13l42.15-23.45
					c0.61-0.3,1.53,0,2.14,0.61c0.3,0.61,0,1.52-0.61,2.13l-42.15,23.45C68.68,140.55,68.38,140.55,68.07,140.55"/>
			</defs>
			<clipPath id="SVGID_30_">
				<use xlink:href="#SVGID_29_"  style="overflow:visible;"/>
			</clipPath>
			<g class="st16">
				<defs>
					<rect id="SVGID_31_" x="-94.71" y="-2567.78" width="410" height="5307.1"/>
				</defs>
				<clipPath id="SVGID_32_">
					<use xlink:href="#SVGID_31_"  style="overflow:visible;"/>
				</clipPath>
				<rect x="61.26" y="108.48" class="st17" width="56.07" height="37.55"/>
			</g>
		</g>
		<g>
			<defs>
				<path id="SVGID_33_" d="M68.99,142.69c0,4.2-3.42,7.61-7.64,7.61c-4.22,0-7.64-3.41-7.64-7.61c0-4.2,3.42-7.61,7.64-7.61
					C65.57,135.07,68.99,138.48,68.99,142.69"/>
			</defs>
			<clipPath id="SVGID_34_">
				<use xlink:href="#SVGID_33_"  style="overflow:visible;"/>
			</clipPath>
			<g class="st18">
				<defs>
					<rect id="SVGID_35_" x="-94.71" y="-2567.78" width="410" height="5307.1"/>
				</defs>
				<clipPath id="SVGID_36_">
					<use xlink:href="#SVGID_35_"  style="overflow:visible;"/>
				</clipPath>
				<rect x="48.25" y="129.61" class="st19" width="26.21" height="26.16"/>
			</g>
		</g>
		<g>
			<defs>
				<path id="SVGID_37_" d="M108.39,118.02C108.08,118.02,108.08,118.02,108.39,118.02l-30.85-3.05c-0.92,0-1.53-0.91-1.22-1.52
					c0-0.91,0.92-1.52,1.53-1.22l30.54,3.04c0.92,0,1.53,0.91,1.22,1.52C109.61,117.41,109,118.02,108.39,118.02"/>
			</defs>
			<clipPath id="SVGID_38_">
				<use xlink:href="#SVGID_37_"  style="overflow:visible;"/>
			</clipPath>
			<g class="st20">
				<defs>
					<rect id="SVGID_39_" x="-94.71" y="-2567.78" width="410" height="5307.1"/>
				</defs>
				<clipPath id="SVGID_40_">
					<use xlink:href="#SVGID_39_"  style="overflow:visible;"/>
				</clipPath>
				<rect x="70.77" y="106.69" class="st21" width="44.38" height="16.8"/>
			</g>
		</g>
		<g>
			<defs>
				<path id="SVGID_41_" d="M77.85,113.15c0,2.69-2.19,4.87-4.89,4.87c-2.7,0-4.89-2.18-4.89-4.87c0-2.69,2.19-4.87,4.89-4.87
					C75.66,108.28,77.85,110.46,77.85,113.15"/>
			</defs>
			<clipPath id="SVGID_42_">
				<use xlink:href="#SVGID_41_"  style="overflow:visible;"/>
			</clipPath>
			<g class="st22">
				<defs>
					<rect id="SVGID_43_" x="-94.71" y="-2567.78" width="410" height="5307.1"/>
				</defs>
				<clipPath id="SVGID_44_">
					<use xlink:href="#SVGID_43_"  style="overflow:visible;"/>
				</clipPath>
				<rect x="62.6" y="102.81" class="st23" width="20.71" height="20.68"/>
			</g>
		</g>
		<g>
			<defs>
				<path id="SVGID_45_" d="M97.09,145.12h-0.61c-0.92-0.3-1.22-1.22-0.61-2.13l12.83-28.02c0.31-0.91,1.22-1.22,2.14-0.61
					c0.92,0.3,1.22,1.22,0.61,2.13l-12.83,28.01C98.01,144.82,97.39,145.12,97.09,145.12"/>
			</defs>
			<clipPath id="SVGID_46_">
				<use xlink:href="#SVGID_45_"  style="overflow:visible;"/>
			</clipPath>
			<g class="st24">
				<defs>
					<rect id="SVGID_47_" x="-94.71" y="-2567.78" width="410" height="5307.1"/>
				</defs>
				<clipPath id="SVGID_48_">
					<use xlink:href="#SVGID_47_"  style="overflow:visible;"/>
				</clipPath>
				<rect x="90.08" y="108.58" class="st25" width="27.15" height="42.01"/>
			</g>
		</g>
		<g>
			<defs>
				<path id="SVGID_49_" d="M99.84,147.86c0,2.69-2.19,4.87-4.89,4.87c-2.7,0-4.89-2.18-4.89-4.87c0-2.69,2.19-4.87,4.89-4.87
					C97.65,142.99,99.84,145.17,99.84,147.86"/>
			</defs>
			<clipPath id="SVGID_50_">
				<use xlink:href="#SVGID_49_"  style="overflow:visible;"/>
			</clipPath>
			<g class="st26">
				<defs>
					<rect id="SVGID_51_" x="-94.71" y="-2567.78" width="410" height="5307.1"/>
				</defs>
				<clipPath id="SVGID_52_">
					<use xlink:href="#SVGID_51_"  style="overflow:visible;"/>
				</clipPath>
				<rect x="84.6" y="137.52" class="st27" width="20.71" height="20.68"/>
			</g>
		</g>
		<g>
			<defs>
				<path id="SVGID_53_" d="M110.53,116.5c-0.31,0-0.61,0-0.61-0.3c-0.61-0.31-0.92-1.22-0.61-2.13l17.41-32.89
					c0.31-0.61,1.22-0.91,2.14-0.61c0.61,0.3,0.92,1.22,0.61,2.13l-17.41,32.89C111.75,116.19,111.14,116.5,110.53,116.5"/>
			</defs>
			<clipPath id="SVGID_54_">
				<use xlink:href="#SVGID_53_"  style="overflow:visible;"/>
			</clipPath>
			<g class="st28">
				<defs>
					<rect id="SVGID_55_" x="-94.71" y="-2567.78" width="410" height="5307.1"/>
				</defs>
				<clipPath id="SVGID_56_">
					<use xlink:href="#SVGID_55_"  style="overflow:visible;"/>
				</clipPath>
				<rect x="103.72" y="74.98" class="st29" width="31.33" height="46.98"/>
			</g>
		</g>
		<g>
			<defs>
				<path id="SVGID_57_" d="M136.49,76.91c0,3.2-2.6,5.79-5.8,5.79c-3.2,0-5.8-2.59-5.8-5.79c0-3.2,2.6-5.78,5.8-5.78
					C133.89,71.13,136.49,73.72,136.49,76.91"/>
			</defs>
			<clipPath id="SVGID_58_">
				<use xlink:href="#SVGID_57_"  style="overflow:visible;"/>
			</clipPath>
			<g class="st30">
				<defs>
					<rect id="SVGID_59_" x="-94.71" y="-2567.78" width="410" height="5307.1"/>
				</defs>
				<clipPath id="SVGID_60_">
					<use xlink:href="#SVGID_59_"  style="overflow:visible;"/>
				</clipPath>
				<rect x="119.42" y="65.66" class="st31" width="22.54" height="22.5"/>
			</g>
		</g>
		<g>
			<defs>
				<path id="SVGID_61_" d="M111.75,116.8c-0.61,0-0.92-0.31-1.22-0.61c-0.61-0.61-0.31-1.52,0.31-2.13l57.12-40.81
					c0.61-0.61,1.53-0.3,2.14,0.31c0.61,0.61,0.31,1.52-0.31,2.13l-57.12,40.8C112.36,116.8,112.05,116.8,111.75,116.8"/>
			</defs>
			<clipPath id="SVGID_62_">
				<use xlink:href="#SVGID_61_"  style="overflow:visible;"/>
			</clipPath>
			<g class="st32">
				<defs>
					<rect id="SVGID_63_" x="-94.71" y="-2567.78" width="410" height="5307.1"/>
				</defs>
				<clipPath id="SVGID_64_">
					<use xlink:href="#SVGID_63_"  style="overflow:visible;"/>
				</clipPath>
				<rect x="104.73" y="67.46" class="st33" width="71.16" height="54.81"/>
			</g>
		</g>
		<g>
			<defs>
				<path id="SVGID_65_" d="M182.61,70.21c0,4.2-3.42,7.61-7.64,7.61c-4.22,0-7.64-3.41-7.64-7.61s3.42-7.61,7.64-7.61
					C179.19,62.6,182.61,66.01,182.61,70.21"/>
			</defs>
			<clipPath id="SVGID_66_">
				<use xlink:href="#SVGID_65_"  style="overflow:visible;"/>
			</clipPath>
			<g class="st34">
				<defs>
					<rect id="SVGID_67_" x="-94.71" y="-2567.78" width="410" height="5307.1"/>
				</defs>
				<clipPath id="SVGID_68_">
					<use xlink:href="#SVGID_67_"  style="overflow:visible;"/>
				</clipPath>
				<rect x="161.87" y="57.13" class="st35" width="26.21" height="26.16"/>
			</g>
		</g>
		<g>
			<defs>
				<path id="SVGID_69_" d="M152.07,140.55c-0.3,0-0.61,0-0.61-0.3l-42.15-23.45c-0.61-0.3-0.92-1.22-0.61-2.13
					c0.31-0.61,1.22-0.91,2.14-0.61l42.15,23.45c0.61,0.3,0.92,1.22,0.61,2.13C153.29,140.25,152.68,140.55,152.07,140.55"/>
			</defs>
			<clipPath id="SVGID_70_">
				<use xlink:href="#SVGID_69_"  style="overflow:visible;"/>
			</clipPath>
			<g class="st36">
				<defs>
					<rect id="SVGID_71_" x="-94.71" y="-2567.78" width="410" height="5307.1"/>
				</defs>
				<clipPath id="SVGID_72_">
					<use xlink:href="#SVGID_71_"  style="overflow:visible;"/>
				</clipPath>
				<rect x="103.11" y="108.48" class="st37" width="56.07" height="37.55"/>
			</g>
		</g>
		<g>
			<defs>
				<path id="SVGID_73_" d="M166.42,142.69c0,4.2-3.42,7.61-7.64,7.61c-4.22,0-7.64-3.41-7.64-7.61c0-4.2,3.42-7.61,7.64-7.61
					C163.01,135.07,166.42,138.48,166.42,142.69"/>
			</defs>
			<clipPath id="SVGID_74_">
				<use xlink:href="#SVGID_73_"  style="overflow:visible;"/>
			</clipPath>
			<g class="st38">
				<defs>
					<rect id="SVGID_75_" x="-94.71" y="-2567.78" width="410" height="5307.1"/>
				</defs>
				<clipPath id="SVGID_76_">
					<use xlink:href="#SVGID_75_"  style="overflow:visible;"/>
				</clipPath>
				<rect x="145.69" y="129.61" class="st39" width="26.21" height="26.16"/>
			</g>
		</g>
		<g>
			<defs>
				<path id="SVGID_77_" d="M112.05,118.02c-0.92,0-1.53-0.61-1.53-1.52c0-0.92,0.61-1.52,1.22-1.52l30.54-3.04
					c0.92,0,1.53,0.61,1.53,1.22c0,0.92-0.61,1.52-1.22,1.52L112.05,118.02z"/>
			</defs>
			<clipPath id="SVGID_78_">
				<use xlink:href="#SVGID_77_"  style="overflow:visible;"/>
			</clipPath>
			<g class="st40">
				<defs>
					<rect id="SVGID_79_" x="-94.71" y="-2567.78" width="410" height="5307.1"/>
				</defs>
				<clipPath id="SVGID_80_">
					<use xlink:href="#SVGID_79_"  style="overflow:visible;"/>
				</clipPath>
				<rect x="105.06" y="106.46" class="st41" width="44.23" height="17.02"/>
			</g>
		</g>
		<g>
			<defs>
				<path id="SVGID_81_" d="M152.37,113.15c0,2.69-2.19,4.87-4.89,4.87c-2.7,0-4.89-2.18-4.89-4.87c0-2.69,2.19-4.87,4.89-4.87
					C150.19,108.28,152.37,110.46,152.37,113.15"/>
			</defs>
			<clipPath id="SVGID_82_">
				<use xlink:href="#SVGID_81_"  style="overflow:visible;"/>
			</clipPath>
			<g class="st42">
				<defs>
					<rect id="SVGID_83_" x="-94.71" y="-2567.78" width="410" height="5307.1"/>
				</defs>
				<clipPath id="SVGID_84_">
					<use xlink:href="#SVGID_83_"  style="overflow:visible;"/>
				</clipPath>
				<rect x="137.13" y="102.81" class="st43" width="20.71" height="20.68"/>
			</g>
		</g>
		<g>
			<defs>
				<path id="SVGID_85_" d="M123.36,145.12c-0.61,0-1.22-0.3-1.53-0.91L109,116.19c-0.31-0.91,0-1.52,0.61-2.13
					c0.92-0.3,1.53,0,2.14,0.61l12.83,28.01c0.3,0.91,0,1.52-0.61,2.13C123.66,145.12,123.36,145.12,123.36,145.12"/>
			</defs>
			<clipPath id="SVGID_86_">
				<use xlink:href="#SVGID_85_"  style="overflow:visible;"/>
			</clipPath>
			<g class="st44">
				<defs>
					<rect id="SVGID_87_" x="-94.71" y="-2567.78" width="410" height="5307.1"/>
				</defs>
				<clipPath id="SVGID_88_">
					<use xlink:href="#SVGID_87_"  style="overflow:visible;"/>
				</clipPath>
				<rect x="103.41" y="108.48" class="st45" width="26.75" height="42.11"/>
			</g>
		</g>
		<g>
			<defs>
				<path id="SVGID_89_" d="M130.08,147.86c0,2.69-2.19,4.87-4.89,4.87c-2.7,0-4.89-2.18-4.89-4.87c0-2.69,2.19-4.87,4.89-4.87
					C127.89,142.99,130.08,145.17,130.08,147.86"/>
			</defs>
			<clipPath id="SVGID_90_">
				<use xlink:href="#SVGID_89_"  style="overflow:visible;"/>
			</clipPath>
			<g class="st46">
				<defs>
					<rect id="SVGID_91_" x="-94.71" y="-2567.78" width="410" height="5307.1"/>
				</defs>
				<clipPath id="SVGID_92_">
					<use xlink:href="#SVGID_91_"  style="overflow:visible;"/>
				</clipPath>
				<rect x="114.84" y="137.52" class="st47" width="20.71" height="20.68"/>
			</g>
		</g>
		<g>
			<defs>
				<path id="SVGID_93_" d="M54.02,99.75c0,1.18-0.96,2.13-2.14,2.13c-1.18,0-2.14-0.95-2.14-2.13c0-1.18,0.96-2.13,2.14-2.13
					C53.06,97.62,54.02,98.57,54.02,99.75"/>
			</defs>
			<clipPath id="SVGID_94_">
				<use xlink:href="#SVGID_93_"  style="overflow:visible;"/>
			</clipPath>
			<g class="st48">
				<defs>
					<rect id="SVGID_95_" x="-94.71" y="-2567.78" width="410" height="5307.1"/>
				</defs>
				<clipPath id="SVGID_96_">
					<use xlink:href="#SVGID_95_"  style="overflow:visible;"/>
				</clipPath>
				<rect x="44.28" y="92.15" class="st49" width="15.21" height="15.19"/>
			</g>
		</g>
		<g>
			<defs>
				<path id="SVGID_97_" d="M60.44,100.36c0,0.34-0.27,0.61-0.61,0.61c-0.34,0-0.61-0.27-0.61-0.61c0-0.34,0.27-0.61,0.61-0.61
					C60.16,99.75,60.44,100.02,60.44,100.36"/>
			</defs>
			<clipPath id="SVGID_98_">
				<use xlink:href="#SVGID_97_"  style="overflow:visible;"/>
			</clipPath>
			<g class="st50">
				<defs>
					<rect id="SVGID_99_" x="-94.71" y="-2567.78" width="410" height="5307.1"/>
				</defs>
				<clipPath id="SVGID_100_">
					<use xlink:href="#SVGID_99_"  style="overflow:visible;"/>
				</clipPath>
				<rect x="53.75" y="94.28" class="st51" width="12.15" height="12.15"/>
			</g>
		</g>
		<g>
			<defs>
				<path id="SVGID_101_" d="M70.82,68.69c0,1.01-0.82,1.83-1.83,1.83c-1.01,0-1.83-0.82-1.83-1.83c0-1.01,0.82-1.83,1.83-1.83
					C70,66.86,70.82,67.68,70.82,68.69"/>
			</defs>
			<clipPath id="SVGID_102_">
				<use xlink:href="#SVGID_101_"  style="overflow:visible;"/>
			</clipPath>
			<g class="st52">
				<defs>
					<rect id="SVGID_103_" x="-94.71" y="-2567.78" width="410" height="5307.1"/>
				</defs>
				<clipPath id="SVGID_104_">
					<use xlink:href="#SVGID_103_"  style="overflow:visible;"/>
				</clipPath>
				<rect x="61.69" y="61.4" class="st53" width="14.6" height="14.59"/>
			</g>
		</g>
		<g>
			<defs>
				<path id="SVGID_105_" d="M84.87,61.38c0,1.85-1.5,3.35-3.36,3.35c-1.85,0-3.36-1.5-3.36-3.35c0-1.85,1.5-3.35,3.36-3.35
					C83.37,58.03,84.87,59.53,84.87,61.38"/>
			</defs>
			<clipPath id="SVGID_106_">
				<use xlink:href="#SVGID_105_"  style="overflow:visible;"/>
			</clipPath>
			<g class="st54">
				<defs>
					<rect id="SVGID_107_" x="-94.71" y="-2567.78" width="410" height="5307.1"/>
				</defs>
				<clipPath id="SVGID_108_">
					<use xlink:href="#SVGID_107_"  style="overflow:visible;"/>
				</clipPath>
				<rect x="72.68" y="52.57" class="st55" width="17.65" height="17.63"/>
			</g>
		</g>
		<g>
			<defs>
				<path id="SVGID_109_" d="M105.03,69.91c0,0.34-0.27,0.61-0.61,0.61c-0.34,0-0.61-0.27-0.61-0.61c0-0.34,0.27-0.61,0.61-0.61
					C104.76,69.3,105.03,69.57,105.03,69.91"/>
			</defs>
			<clipPath id="SVGID_110_">
				<use xlink:href="#SVGID_109_"  style="overflow:visible;"/>
			</clipPath>
			<g class="st56">
				<defs>
					<rect id="SVGID_111_" x="-94.71" y="-2567.78" width="410" height="5307.1"/>
				</defs>
				<clipPath id="SVGID_112_">
					<use xlink:href="#SVGID_111_"  style="overflow:visible;"/>
				</clipPath>
				<rect x="98.34" y="63.83" class="st57" width="12.16" height="12.15"/>
			</g>
		</g>
		<g>
			<defs>
				<path id="SVGID_113_" d="M154.82,63.82c0,3.2-2.6,5.79-5.8,5.79c-3.21,0-5.8-2.59-5.8-5.79c0-3.19,2.6-5.79,5.8-5.79
					C152.22,58.03,154.82,60.62,154.82,63.82"/>
			</defs>
			<clipPath id="SVGID_114_">
				<use xlink:href="#SVGID_113_"  style="overflow:visible;"/>
			</clipPath>
			<g class="st58">
				<defs>
					<rect id="SVGID_115_" x="-94.71" y="-2567.78" width="410" height="5307.1"/>
				</defs>
				<clipPath id="SVGID_116_">
					<use xlink:href="#SVGID_115_"  style="overflow:visible;"/>
				</clipPath>
				<rect x="137.74" y="52.57" class="st59" width="22.54" height="22.51"/>
			</g>
		</g>
		<g>
			<defs>
				<path id="SVGID_117_" d="M152.37,78.44c0,0.84-0.68,1.52-1.53,1.52c-0.85,0-1.53-0.68-1.53-1.52c0-0.84,0.68-1.52,1.53-1.52
					C151.69,76.91,152.37,77.59,152.37,78.44"/>
			</defs>
			<clipPath id="SVGID_118_">
				<use xlink:href="#SVGID_117_"  style="overflow:visible;"/>
			</clipPath>
			<g class="st60">
				<defs>
					<rect id="SVGID_119_" x="-94.71" y="-2567.78" width="410" height="5307.1"/>
				</defs>
				<clipPath id="SVGID_120_">
					<use xlink:href="#SVGID_119_"  style="overflow:visible;"/>
				</clipPath>
				<rect x="143.85" y="71.44" class="st61" width="13.99" height="13.98"/>
			</g>
		</g>
		<g>
			<defs>
				<path id="SVGID_121_" d="M178.95,100.66c0,2.35-1.92,4.26-4.28,4.26c-2.36,0-4.27-1.91-4.27-4.26c0-2.35,1.91-4.26,4.27-4.26
					C177.03,96.4,178.95,98.31,178.95,100.66"/>
			</defs>
			<clipPath id="SVGID_122_">
				<use xlink:href="#SVGID_121_"  style="overflow:visible;"/>
			</clipPath>
			<g class="st62">
				<defs>
					<rect id="SVGID_123_" x="-94.71" y="-2567.78" width="410" height="5307.1"/>
				</defs>
				<clipPath id="SVGID_124_">
					<use xlink:href="#SVGID_123_"  style="overflow:visible;"/>
				</clipPath>
				<rect x="164.93" y="90.93" class="st63" width="19.48" height="19.46"/>
			</g>
		</g>
		<g>
			<defs>
				<path id="SVGID_125_" d="M155.73,101.27c0,0.34-0.27,0.61-0.61,0.61c-0.34,0-0.61-0.27-0.61-0.61c0-0.34,0.27-0.61,0.61-0.61
					C155.46,100.66,155.73,100.94,155.73,101.27"/>
			</defs>
			<clipPath id="SVGID_126_">
				<use xlink:href="#SVGID_125_"  style="overflow:visible;"/>
			</clipPath>
			<g class="st64">
				<defs>
					<rect id="SVGID_127_" x="-94.71" y="-2567.78" width="410" height="5307.1"/>
				</defs>
				<clipPath id="SVGID_128_">
					<use xlink:href="#SVGID_127_"  style="overflow:visible;"/>
				</clipPath>
				<rect x="149.04" y="95.2" class="st65" width="12.16" height="12.15"/>
			</g>
		</g>
		<g>
			<defs>
				<path id="SVGID_129_" d="M143.21,105.84c0,0.34-0.27,0.61-0.61,0.61s-0.61-0.27-0.61-0.61c0-0.34,0.27-0.61,0.61-0.61
					S143.21,105.5,143.21,105.84"/>
			</defs>
			<clipPath id="SVGID_130_">
				<use xlink:href="#SVGID_129_"  style="overflow:visible;"/>
			</clipPath>
			<g class="st66">
				<defs>
					<rect id="SVGID_131_" x="-94.71" y="-2567.78" width="410" height="5307.1"/>
				</defs>
				<clipPath id="SVGID_132_">
					<use xlink:href="#SVGID_131_"  style="overflow:visible;"/>
				</clipPath>
				<rect x="136.52" y="99.77" class="st67" width="12.16" height="12.15"/>
			</g>
		</g>
		<g>
			<defs>
				<path id="SVGID_133_" d="M37.83,107.36c0,0.51-0.41,0.91-0.92,0.91c-0.51,0-0.92-0.41-0.92-0.91c0-0.5,0.41-0.91,0.92-0.91
					C37.42,106.45,37.83,106.86,37.83,107.36"/>
			</defs>
			<clipPath id="SVGID_134_">
				<use xlink:href="#SVGID_133_"  style="overflow:visible;"/>
			</clipPath>
			<g class="st68">
				<defs>
					<rect id="SVGID_135_" x="-94.71" y="-2567.78" width="410" height="5307.1"/>
				</defs>
				<clipPath id="SVGID_136_">
					<use xlink:href="#SVGID_135_"  style="overflow:visible;"/>
				</clipPath>
				<rect x="30.53" y="100.98" class="st69" width="12.77" height="12.76"/>
			</g>
		</g>
		<g>
			<defs>
				<path id="SVGID_137_" d="M47.3,120.76c0,1.85-1.5,3.35-3.36,3.35c-1.86,0-3.36-1.5-3.36-3.35c0-1.85,1.5-3.35,3.36-3.35
					C45.8,117.41,47.3,118.91,47.3,120.76"/>
			</defs>
			<clipPath id="SVGID_138_">
				<use xlink:href="#SVGID_137_"  style="overflow:visible;"/>
			</clipPath>
			<g class="st70">
				<defs>
					<rect id="SVGID_139_" x="-94.71" y="-2567.78" width="410" height="5307.1"/>
				</defs>
				<clipPath id="SVGID_140_">
					<use xlink:href="#SVGID_139_"  style="overflow:visible;"/>
				</clipPath>
				<rect x="35.12" y="111.94" class="st71" width="17.65" height="17.63"/>
			</g>
		</g>
		<g>
			<defs>
				<path id="SVGID_141_" d="M60.56,113.21c0,0.2-0.16,0.37-0.37,0.37c-0.2,0-0.37-0.16-0.37-0.37c0-0.2,0.16-0.36,0.37-0.36
					C60.4,112.85,60.56,113.01,60.56,113.21"/>
			</defs>
			<clipPath id="SVGID_142_">
				<use xlink:href="#SVGID_141_"  style="overflow:visible;"/>
			</clipPath>
			<g class="st72">
				<defs>
					<rect id="SVGID_143_" x="-94.71" y="-2567.78" width="410" height="5307.1"/>
				</defs>
				<clipPath id="SVGID_144_">
					<use xlink:href="#SVGID_143_"  style="overflow:visible;"/>
				</clipPath>
				<rect x="54.36" y="107.38" class="st73" width="11.67" height="11.66"/>
			</g>
		</g>
		<g>
			<defs>
				<path id="SVGID_145_" d="M172.23,116.19c0,1.51-1.23,2.74-2.75,2.74c-1.52,0-2.75-1.23-2.75-2.74c0-1.52,1.23-2.74,2.75-2.74
					C171,113.45,172.23,114.68,172.23,116.19"/>
			</defs>
			<clipPath id="SVGID_146_">
				<use xlink:href="#SVGID_145_"  style="overflow:visible;"/>
			</clipPath>
			<g class="st74">
				<defs>
					<rect id="SVGID_147_" x="-94.71" y="-2567.78" width="410" height="5307.1"/>
				</defs>
				<clipPath id="SVGID_148_">
					<use xlink:href="#SVGID_147_"  style="overflow:visible;"/>
				</clipPath>
				<rect x="161.26" y="107.99" class="st75" width="16.43" height="16.41"/>
			</g>
		</g>
		<g>
			<defs>
				<path id="SVGID_149_" d="M162.15,127.46c0,1.35-1.09,2.44-2.44,2.44c-1.35,0-2.44-1.09-2.44-2.44c0-1.35,1.09-2.44,2.44-2.44
					C161.05,125.02,162.15,126.11,162.15,127.46"/>
			</defs>
			<clipPath id="SVGID_150_">
				<use xlink:href="#SVGID_149_"  style="overflow:visible;"/>
			</clipPath>
			<g class="st76">
				<defs>
					<rect id="SVGID_151_" x="-94.71" y="-2567.78" width="410" height="5307.1"/>
				</defs>
				<clipPath id="SVGID_152_">
					<use xlink:href="#SVGID_151_"  style="overflow:visible;"/>
				</clipPath>
				<rect x="151.79" y="119.56" class="st77" width="15.82" height="15.81"/>
			</g>
		</g>
		<g>
			<defs>
				<path id="SVGID_153_" d="M139.55,121.07c0,0.34-0.27,0.61-0.61,0.61c-0.34,0-0.61-0.27-0.61-0.61c0-0.34,0.27-0.61,0.61-0.61
					C139.27,120.46,139.55,120.73,139.55,121.07"/>
			</defs>
			<clipPath id="SVGID_154_">
				<use xlink:href="#SVGID_153_"  style="overflow:visible;"/>
			</clipPath>
			<g class="st78">
				<defs>
					<rect id="SVGID_155_" x="-94.71" y="-2567.78" width="410" height="5307.1"/>
				</defs>
				<clipPath id="SVGID_156_">
					<use xlink:href="#SVGID_155_"  style="overflow:visible;"/>
				</clipPath>
				<rect x="132.86" y="114.99" class="st79" width="12.16" height="12.15"/>
			</g>
		</g>
		<g>
			<defs>
				<path id="SVGID_157_" d="M73.87,125.94c0,1.51-1.23,2.74-2.75,2.74c-1.52,0-2.75-1.23-2.75-2.74c0-1.51,1.23-2.74,2.75-2.74
					C72.64,123.2,73.87,124.42,73.87,125.94"/>
			</defs>
			<clipPath id="SVGID_158_">
				<use xlink:href="#SVGID_157_"  style="overflow:visible;"/>
			</clipPath>
			<g class="st80">
				<defs>
					<rect id="SVGID_159_" x="-94.71" y="-2567.78" width="410" height="5307.1"/>
				</defs>
				<clipPath id="SVGID_160_">
					<use xlink:href="#SVGID_159_"  style="overflow:visible;"/>
				</clipPath>
				<rect x="62.91" y="117.73" class="st81" width="16.43" height="16.41"/>
			</g>
		</g>
		<g>
			<defs>
				<path id="SVGID_161_" d="M49.75,86.05c0,1.01-0.82,1.83-1.83,1.83c-1.01,0-1.83-0.82-1.83-1.83c0-1.01,0.82-1.83,1.83-1.83
					C48.93,84.22,49.75,85.04,49.75,86.05"/>
			</defs>
			<clipPath id="SVGID_162_">
				<use xlink:href="#SVGID_161_"  style="overflow:visible;"/>
			</clipPath>
			<g class="st82">
				<defs>
					<rect id="SVGID_163_" x="-94.71" y="-2567.78" width="410" height="5307.1"/>
				</defs>
				<clipPath id="SVGID_164_">
					<use xlink:href="#SVGID_163_"  style="overflow:visible;"/>
				</clipPath>
				<rect x="40.61" y="78.75" class="st83" width="14.6" height="14.59"/>
			</g>
		</g>
		<g>
			<defs>
				<path id="SVGID_165_" d="M82.43,161.87c0,1.68-1.37,3.04-3.06,3.04s-3.05-1.36-3.05-3.04c0-1.68,1.37-3.05,3.05-3.05
					S82.43,160.19,82.43,161.87"/>
			</defs>
			<clipPath id="SVGID_166_">
				<use xlink:href="#SVGID_165_"  style="overflow:visible;"/>
			</clipPath>
			<g class="st84">
				<defs>
					<rect id="SVGID_167_" x="-94.71" y="-2567.78" width="410" height="5307.1"/>
				</defs>
				<clipPath id="SVGID_168_">
					<use xlink:href="#SVGID_167_"  style="overflow:visible;"/>
				</clipPath>
				<rect x="70.85" y="153.36" class="st85" width="17.04" height="17.02"/>
			</g>
		</g>
		<g>
			<defs>
				<path id="SVGID_169_" d="M84.57,144.21c0,1.01-0.82,1.83-1.83,1.83c-1.01,0-1.83-0.82-1.83-1.83c0-1.01,0.82-1.83,1.83-1.83
					C83.74,142.38,84.57,143.2,84.57,144.21"/>
			</defs>
			<clipPath id="SVGID_170_">
				<use xlink:href="#SVGID_169_"  style="overflow:visible;"/>
			</clipPath>
			<g class="st86">
				<defs>
					<rect id="SVGID_171_" x="-94.71" y="-2567.78" width="410" height="5307.1"/>
				</defs>
				<clipPath id="SVGID_172_">
					<use xlink:href="#SVGID_171_"  style="overflow:visible;"/>
				</clipPath>
				<rect x="75.43" y="136.91" class="st87" width="14.6" height="14.59"/>
			</g>
		</g>
		<g>
			<defs>
				<path id="SVGID_173_" d="M127.94,163.7c0,0.67-0.55,1.22-1.22,1.22c-0.67,0-1.22-0.54-1.22-1.22c0-0.67,0.55-1.22,1.22-1.22
					C127.39,162.48,127.94,163.02,127.94,163.7"/>
			</defs>
			<clipPath id="SVGID_174_">
				<use xlink:href="#SVGID_173_"  style="overflow:visible;"/>
			</clipPath>
			<g class="st88">
				<defs>
					<rect id="SVGID_175_" x="-94.71" y="-2567.78" width="410" height="5307.1"/>
				</defs>
				<clipPath id="SVGID_176_">
					<use xlink:href="#SVGID_175_"  style="overflow:visible;"/>
				</clipPath>
				<rect x="120.03" y="157.01" class="st89" width="13.38" height="13.37"/>
			</g>
		</g>
		<g>
			<defs>
				<path id="SVGID_177_" d="M141.38,145.73c0,0.67-0.55,1.22-1.22,1.22c-0.67,0-1.22-0.55-1.22-1.22c0-0.67,0.55-1.22,1.22-1.22
					C140.83,144.51,141.38,145.06,141.38,145.73"/>
			</defs>
			<clipPath id="SVGID_178_">
				<use xlink:href="#SVGID_177_"  style="overflow:visible;"/>
			</clipPath>
			<g class="st90">
				<defs>
					<rect id="SVGID_179_" x="-94.71" y="-2567.78" width="410" height="5307.1"/>
				</defs>
				<clipPath id="SVGID_180_">
					<use xlink:href="#SVGID_179_"  style="overflow:visible;"/>
				</clipPath>
				<rect x="133.47" y="139.05" class="st91" width="13.38" height="13.37"/>
			</g>
		</g>
		<g>
			<defs>
				<path id="SVGID_181_" d="M149.32,157c0,1.52-1.23,2.74-2.75,2.74c-1.52,0-2.75-1.23-2.75-2.74c0-1.51,1.23-2.74,2.75-2.74
					C148.09,154.26,149.32,155.48,149.32,157"/>
			</defs>
			<clipPath id="SVGID_182_">
				<use xlink:href="#SVGID_181_"  style="overflow:visible;"/>
			</clipPath>
			<g class="st92">
				<defs>
					<rect id="SVGID_183_" x="-94.71" y="-2567.78" width="410" height="5307.1"/>
				</defs>
				<clipPath id="SVGID_184_">
					<use xlink:href="#SVGID_183_"  style="overflow:visible;"/>
				</clipPath>
				<rect x="138.36" y="148.79" class="st93" width="16.43" height="16.41"/>
			</g>
		</g>
		<g>
			<defs>
				<path id="SVGID_185_" d="M98.31,164.31c0,0.67-0.55,1.22-1.22,1.22s-1.22-0.54-1.22-1.22c0-0.67,0.55-1.22,1.22-1.22
					S98.31,163.63,98.31,164.31"/>
			</defs>
			<clipPath id="SVGID_186_">
				<use xlink:href="#SVGID_185_"  style="overflow:visible;"/>
			</clipPath>
			<g class="st94">
				<defs>
					<rect id="SVGID_187_" x="-94.71" y="-2567.78" width="410" height="5307.1"/>
				</defs>
				<clipPath id="SVGID_188_">
					<use xlink:href="#SVGID_187_"  style="overflow:visible;"/>
				</clipPath>
				<rect x="90.4" y="157.62" class="st95" width="13.38" height="13.37"/>
			</g>
		</g>
		<g>
			<defs>
				<path id="SVGID_189_" d="M166.12,93.36c0,0.67-0.55,1.22-1.22,1.22c-0.67,0-1.22-0.54-1.22-1.22c0-0.67,0.55-1.22,1.22-1.22
					C165.57,92.14,166.12,92.68,166.12,93.36"/>
			</defs>
			<clipPath id="SVGID_190_">
				<use xlink:href="#SVGID_189_"  style="overflow:visible;"/>
			</clipPath>
			<g class="st96">
				<defs>
					<rect id="SVGID_191_" x="-94.71" y="-2567.78" width="410" height="5307.1"/>
				</defs>
				<clipPath id="SVGID_192_">
					<use xlink:href="#SVGID_191_"  style="overflow:visible;"/>
				</clipPath>
				<rect x="158.21" y="86.67" class="st97" width="13.38" height="13.37"/>
			</g>
		</g>
		<g>
			<defs>
				<path id="SVGID_193_" d="M87.93,88.79c0,1.18-0.96,2.13-2.14,2.13c-1.18,0-2.14-0.95-2.14-2.13c0-1.18,0.96-2.13,2.14-2.13
					C86.97,86.66,87.93,87.61,87.93,88.79"/>
			</defs>
			<clipPath id="SVGID_194_">
				<use xlink:href="#SVGID_193_"  style="overflow:visible;"/>
			</clipPath>
			<g class="st98">
				<defs>
					<rect id="SVGID_195_" x="-94.71" y="-2567.78" width="410" height="5307.1"/>
				</defs>
				<clipPath id="SVGID_196_">
					<use xlink:href="#SVGID_195_"  style="overflow:visible;"/>
				</clipPath>
				<rect x="78.18" y="81.19" class="st99" width="15.21" height="15.2"/>
			</g>
		</g>
		<g>
			<defs>
				<path id="SVGID_197_" d="M129.16,61.38c0,0.84-0.68,1.52-1.53,1.52c-0.84,0-1.53-0.68-1.53-1.52c0-0.84,0.68-1.52,1.53-1.52
					C128.48,59.86,129.16,60.54,129.16,61.38"/>
			</defs>
			<clipPath id="SVGID_198_">
				<use xlink:href="#SVGID_197_"  style="overflow:visible;"/>
			</clipPath>
			<g class="st100">
				<defs>
					<rect id="SVGID_199_" x="-94.71" y="-2567.78" width="410" height="5307.1"/>
				</defs>
				<clipPath id="SVGID_200_">
					<use xlink:href="#SVGID_199_"  style="overflow:visible;"/>
				</clipPath>
				<rect x="120.64" y="54.39" class="st101" width="13.99" height="13.98"/>
			</g>
		</g>
		<g>
			<defs>
				<path id="SVGID_201_" d="M64.71,59.56c0,0.34-0.27,0.61-0.61,0.61c-0.34,0-0.61-0.27-0.61-0.61c0-0.34,0.27-0.61,0.61-0.61
					C64.44,58.95,64.71,59.22,64.71,59.56"/>
			</defs>
			<clipPath id="SVGID_202_">
				<use xlink:href="#SVGID_201_"  style="overflow:visible;"/>
			</clipPath>
			<g class="st102">
				<defs>
					<rect id="SVGID_203_" x="-94.71" y="-2567.78" width="410" height="5307.1"/>
				</defs>
				<clipPath id="SVGID_204_">
					<use xlink:href="#SVGID_203_"  style="overflow:visible;"/>
				</clipPath>
				<rect x="58.02" y="53.48" class="st103" width="12.15" height="12.15"/>
			</g>
		</g>
	</g>
</g>
<g id="search_and_contrast">
	<g>
		<rect x="102.01" y="160.46" class="st104" width="15.97" height="17.16"/>
		<path class="st105" d="M110.13,31C75.3,31,47.07,59.24,47.07,94.07c0,34.83,28.23,63.07,63.06,63.07
			c34.83,0,63.07-28.23,63.07-63.07C173.19,59.24,144.96,31,110.13,31z"/>
		<rect x="97.42" y="190.9" class="st104" width="25.15" height="38.1"/>
		<rect x="95.33" y="177.62" class="st104" width="29.33" height="13.28"/>
		<path class="st106" d="M145.24,182.62l-1.63-4.03c2.98-1.21,5.93-2.59,8.76-4.12l2.05,3.82
			C151.45,179.9,148.36,181.36,145.24,182.62z M74.49,182.51c-3.12-1.28-6.2-2.74-9.16-4.34l2.07-3.82
			c2.83,1.53,5.77,2.92,8.74,4.14L74.49,182.51z M163.1,173.02l-2.46-3.58c2.65-1.82,5.24-3.8,7.67-5.9l2.83,3.29
			C168.58,169.03,165.87,171.12,163.1,173.02z M56.67,172.87c-2.77-1.92-5.47-4-8.03-6.21l2.84-3.29c2.43,2.1,5.01,4.09,7.66,5.92
			L56.67,172.87z M178.48,159.83l-3.16-2.97c2.2-2.34,4.3-4.83,6.24-7.4l3.47,2.62C182.99,154.76,180.79,157.37,178.48,159.83z
			 M41.33,159.63c-2.3-2.47-4.5-5.08-6.52-7.78l3.47-2.61c1.93,2.57,4.02,5.07,6.22,7.42L41.33,159.63z M190.69,143.66l-3.73-2.23
			c1.65-2.76,3.17-5.64,4.51-8.56l3.95,1.81C194.01,137.74,192.42,140.76,190.69,143.66z M29.16,143.41c-1.72-2.91-3.31-5.93-4.7-9
			l3.95-1.8c1.33,2.92,2.84,5.81,4.49,8.58L29.16,143.41z M199.14,125.25l-4.12-1.37c1.02-3.06,1.88-6.2,2.56-9.33l4.24,0.91
			C201.12,118.74,200.22,122.04,199.14,125.25z M20.76,124.96c-1.06-3.19-1.95-6.49-2.65-9.8l4.25-0.9c0.67,3.16,1.52,6.3,2.53,9.35
			L20.76,124.96z M203.43,105.44l-4.31-0.45c0.33-3.12,0.49-6.31,0.49-9.46v-0.22h4.35v0.22
			C203.95,98.83,203.77,102.17,203.43,105.44z M16.54,105.13c-0.32-3.17-0.49-6.4-0.49-9.61l0-0.54l4.34,0.05v0.49
			c0,3.06,0.15,6.15,0.46,9.16L16.54,105.13z M199.06,85.65c-0.35-3.21-0.88-6.42-1.57-9.55l4.24-0.94
			c0.73,3.28,1.28,6.65,1.65,10.01L199.06,85.65z M20.96,85.36l-4.31-0.49c0.38-3.36,0.94-6.72,1.68-10.01l4.24,0.95
			C21.87,78.95,21.33,82.16,20.96,85.36z M194.89,66.77c-1.03-3.05-2.25-6.07-3.6-8.99l3.94-1.83c1.42,3.05,2.69,6.22,3.77,9.43
			L194.89,66.77z M25.2,66.5l-4.11-1.4c1.09-3.19,2.37-6.36,3.8-9.41l3.93,1.84C27.46,60.44,26.24,63.46,25.2,66.5z M186.75,49.25
			c-1.66-2.75-3.5-5.44-5.45-8l3.45-2.63c2.05,2.69,3.97,5.51,5.71,8.39L186.75,49.25z M33.4,49l-3.71-2.26
			c1.75-2.88,3.68-5.7,5.73-8.37l3.44,2.65C36.92,43.57,35.07,46.26,33.4,49z M175.02,33.87c-2.22-2.34-4.58-4.58-7.03-6.65
			l2.81-3.31c2.57,2.18,5.04,4.52,7.37,6.97L175.02,33.87z M45.17,33.67l-3.14-3c2.33-2.44,4.81-4.78,7.39-6.95l2.8,3.32
			C49.76,29.11,47.39,31.34,45.17,33.67z M160.29,21.35c-2.66-1.81-5.44-3.49-8.29-5l2.04-3.83c2.97,1.58,5.9,3.35,8.69,5.24
			L160.29,21.35z M59.94,21.19l-2.43-3.6c2.79-1.89,5.72-3.64,8.71-5.22l2.03,3.84C65.4,17.72,62.61,19.4,59.94,21.19z
			 M143.23,12.28c-2.98-1.19-6.07-2.23-9.17-3.1L135.22,5c3.25,0.91,6.49,2,9.62,3.25L143.23,12.28z M77.04,12.17l-1.6-4.04
			c3.13-1.24,6.37-2.32,9.63-3.22l1.15,4.19C83.12,9.96,80.03,10.99,77.04,12.17z M124.61,7.11c-3.17-0.52-6.4-0.87-9.62-1.05
			l0.24-4.34c3.37,0.18,6.76,0.55,10.09,1.1L124.61,7.11z M95.68,7.06l-0.69-4.29c3.32-0.53,6.72-0.89,10.09-1.06l0.23,4.34
			C102.08,6.21,98.84,6.55,95.68,7.06z"/>
	</g>
	<g>
		<path class="st104" d="M100.67,100.11c-0.4,0-0.77,0.15-1.06,0.44c-0.29,0.27-0.44,0.66-0.44,1.06l0.04,10.06H79.05V68.39h29.66
			v5.36c0.6-0.4,1.31-0.63,2.1-0.63h2.16v-6.77c0-0.73-0.62-1.35-1.35-1.35H76.35C75.62,65,75,65.6,75,66.35v47.54
			c0,0.75,0.6,1.35,1.35,1.35h26.3c0.39,0,0.75-0.16,1.01-0.44l3.37-3.78v-10.91H100.67z M100.67,100.11"/>
		<path class="st104" d="M96.62,95.75l8.73-7.21c0,0,0.68-0.58,0.06-1.21c-0.85-0.85-9-6.98-9-6.98s-1.08-1.1-1.08,0.35v3.75H82.8
			c0,0-0.52-0.02-0.52,0.66v5.72c0,0.93,0.63,0.77,0.63,0.77H95.6v4.06C95.58,96.85,96.62,95.75,96.62,95.75L96.62,95.75z
			 M96.62,95.75"/>
		<path class="st104" d="M145.01,75.16h-35.26c-0.75,0-1.35,0.62-1.35,1.35v47.54c0,0.75,0.6,1.35,1.35,1.35h26.3
			c0.38,0,0.75-0.15,1-0.44l8.96-10.02c0.23-0.25,0.35-0.58,0.35-0.91v-37.5C146.36,75.77,145.74,75.16,145.01,75.16L145.01,75.16z
			 M142.1,110.27h-8.04c-0.4,0-0.77,0.15-1.06,0.44c-0.29,0.27-0.44,0.65-0.44,1.06l0.04,10.06h-20.14V78.55h29.64V110.27z
			 M142.1,110.27"/>
		<path class="st104" d="M124.95,108.03c0,0,1.08,1.08,1.08-0.37v-3.75h12.51c0,0,0.54,0.02,0.54-0.64v-5.72
			c0-0.95-0.62-0.77-0.62-0.77h-12.7v-4.06c0-1.19-1.02-0.09-1.02-0.09L116,99.82c0,0-0.69,0.6-0.05,1.21
			C116.8,101.88,124.95,108.03,124.95,108.03L124.95,108.03z M124.95,108.03"/>
	</g>
	<g>
	</g>
	<g>
	</g>
	<g>
	</g>
	<g>
	</g>
	<g>
	</g>
	<g>
	</g>
	<g>
	</g>
	<g>
	</g>
	<g>
	</g>
	<g>
	</g>
	<g>
	</g>
	<g>
	</g>
	<g>
	</g>
	<g>
	</g>
	<g>
	</g>
</g>
</svg>
