<?xml version="1.0" encoding="UTF-8" standalone="no"?>
<svg width="325px" height="42px" viewBox="0 0 325 42" version="1.1" xmlns="http://www.w3.org/2000/svg" xmlns:xlink="http://www.w3.org/1999/xlink">
    <!-- Generator: Sketch 39.1 (31720) - http://www.bohemiancoding.com/sketch -->
    <title>Page 1</title>
    <desc>Created with Sketch.</desc>
    <defs>
        <polygon id="path-1" points="0 41.2741497 324.99349 41.2741497 324.99349 0.325717687 0 0.325717687"></polygon>
    </defs>
    <g id="EiG-website-styles" stroke="none" stroke-width="1" fill="none" fill-rule="evenodd">
        <g id="new-homepage" transform="translate(-325.000000, -89.000000)">
            <g id="Page-1" transform="translate(325.000000, 89.000000)">
                <polygon id="Fill-1" fill="#FFFFFF" points="0 4.7015732 0 27.3809725 16.2785439 27.3809725 16.2785439 22.9417637 4.54899846 22.9417637 4.54899846 17.4667229 11.0800462 17.4667229 11.0800462 13.0603344 4.54899846 13.0603344 4.54899846 9.14028476 15.7907935 9.14028476 15.7907935 4.7015732"></polygon>
                <g id="Group-47" transform="translate(0.000000, 0.171810)">
                    <path d="M31.3866371,27.2088643 L29.3394877,23.7746561 C28.5272381,22.414101 27.2923382,20.178335 26.8701888,19.3359446 C26.4800886,20.178335 25.2456895,22.3489575 24.4008898,23.7746561 L22.3537404,27.2088643 L16.9273921,27.2088643 L24.1404892,15.610331 L17.2523921,4.52996224 L22.6787404,4.52996224 L24.4008898,7.4455085 C25.2131394,8.80656088 26.4480393,11.0418296 26.8701888,11.8842201 C27.2923382,11.0418296 28.494688,8.87120714 29.3394877,7.4455085 L31.0616371,4.52996224 L36.4879854,4.52996224 L29.5673382,15.610331 L36.8129854,27.2088643 L31.3866371,27.2088643 L31.3866371,27.2088643 Z" id="Fill-2" fill="#FFFFFF"></path>
                    <path d="M47.7940794,8.93605231 L42.5625308,8.93605231 L42.5625308,14.7676421 L47.8591795,14.7676421 C49.9714291,14.7676421 51.108178,13.7959591 51.108178,11.8197727 C51.108178,9.84308905 49.8086787,8.93605231 47.7940794,8.93605231 M47.5667296,19.1740305 L42.5625308,19.1740305 L42.5625308,27.2090632 L38.0140331,27.2090632 L38.0140331,4.52966388 L47.956329,4.52966388 C52.2454276,4.52966388 55.786876,6.89472238 55.786876,11.7223061 C55.786876,16.971085 52.2779777,19.1740305 47.5667296,19.1740305" id="Fill-4" fill="#FFFFFF"></path>
                    <path d="M67.2556703,8.67687054 C64.071772,8.67687054 61.9595223,11.2363651 61.9595223,15.8371896 C61.9595223,20.4375168 64.1689214,23.0616576 67.3533205,23.0616576 C70.5377196,23.0616576 72.6494684,20.5026603 72.6494684,15.9018359 C72.6494684,11.3010114 70.4400693,8.67687054 67.2556703,8.67687054 M67.2882203,27.5650154 C61.3420724,27.5650154 57.2808243,23.2237705 57.2808243,15.9018359 C57.2808243,8.57990116 61.4071726,4.17351272 67.3533205,4.17351272 C73.2669183,4.17351272 77.3281664,8.51475762 77.3281664,15.8371896 C77.3281664,23.1591243 73.2018182,27.5650154 67.2882203,27.5650154" id="Fill-6" fill="#FFFFFF"></path>
                    <path d="M89.9016102,8.93605231 L83.9554622,8.93605231 L83.9554622,14.7676421 L89.9016102,14.7676421 C92.0138598,14.7676421 93.1511094,13.7959591 93.1511094,11.8197727 C93.1511094,9.77844279 91.9167103,8.93605231 89.9016102,8.93605231 L89.9016102,8.93605231 Z M92.5987596,27.2090632 L88.5375116,19.0442407 L83.9554622,19.0442407 L83.9554622,27.2090632 L79.4069646,27.2090632 L79.4069646,4.52966388 L89.9992604,4.52966388 C94.2878582,4.52966388 97.8298074,6.89472238 97.8298074,11.7223061 C97.8298074,15.1241911 96.3675578,17.2624904 93.4761094,18.3962863 L97.8298074,27.2090632 L92.5987596,27.2090632 Z" id="Fill-8" fill="#FFFFFF"></path>
                    <polygon id="Fill-10" fill="#FFFFFF" points="109.883552 9.0007483 109.883552 27.2086156 105.334553 27.2086156 105.334553 9.0007483 98.8035054 9.0007483 98.8035054 4.52971361 116.414599 4.52971361 116.414599 9.0007483"></polygon>
                    <mask id="mask-2" fill="white">
                        <use xlink:href="#path-1"></use>
                    </mask>
                    <g id="Clip-13"></g>
                    <polygon id="Fill-12" fill="#FFFFFF" mask="url(#mask-2)" points="118.265948 27.2086156 122.814445 27.2086156 122.814445 4.52971361 118.265948 4.52971361"></polygon>
                    <path d="M139.287889,27.2088643 L130.937542,14.8325867 C130.384692,13.9901963 129.637542,12.8564003 129.345092,12.2730922 C129.345092,13.1154827 129.410193,15.9663827 129.410193,17.2299684 L129.410193,27.2088643 L124.926294,27.2088643 L124.926294,4.52996224 L129.279992,4.52996224 L137.33839,16.5173677 C137.89074,17.3597582 138.637889,18.4935541 138.930339,19.0768622 C138.930339,18.2344718 138.865239,15.3835718 138.865239,14.1199861 L138.865239,4.52996224 L143.349137,4.52996224 L143.349137,27.2088643 L139.287889,27.2088643 Z" id="Fill-14" fill="#FFFFFF" mask="url(#mask-2)"></path>
                    <path d="M155.077831,27.5652144 C149.131683,27.5652144 145.135035,23.0295334 145.135035,15.8692144 C145.135035,8.9684749 149.293933,4.17371163 155.240582,4.17371163 C159.88673,4.17371163 162.356029,6.34433408 163.850828,9.8431885 L159.52918,11.6249388 C158.68438,9.94015789 157.64478,8.67706946 155.175482,8.67706946 C151.763733,8.67706946 149.813733,11.657262 149.813733,15.8692144 C149.813733,20.0488436 151.796283,23.1265028 155.208032,23.1265028 C158.327331,23.1265028 159.39948,21.6689783 159.658879,19.6922946 L156.052331,19.6922946 L156.052331,15.4480191 L164.208378,15.4480191 L164.208378,18.4287089 C164.208378,24.260796 160.341429,27.5652144 155.077831,27.5652144" id="Fill-15" fill="#FFFFFF" mask="url(#mask-2)"></path>
                    <polygon id="Fill-16" fill="#FFFFFF" mask="url(#mask-2)" points="179.580778 27.3851497 184.129777 27.3851497 184.129777 4.70575034 179.580778 4.70575034"></polygon>
                    <path d="M195.046922,27.7413008 C191.245073,27.7413008 187.930975,26.1539865 186.208825,23.6268151 L189.490874,20.7107716 C191.082824,22.5576654 193.129973,23.3025893 195.306822,23.3025893 C198.003471,23.3025893 199.270921,22.5576654 199.270921,20.8400641 C199.270921,19.3825396 198.491221,18.7340879 194.202122,17.7624049 C190.010674,16.7902246 187.086175,15.4619927 187.086175,10.990958 C187.086175,6.87647224 190.725273,4.34930082 195.209673,4.34930082 C198.751121,4.34930082 201.350119,5.67753279 203.494919,7.91329878 L200.213371,11.0884246 C198.751121,9.59807973 197.126622,8.75568925 195.046922,8.75568925 C192.610173,8.75568925 191.797924,9.79251578 191.797924,10.7965219 C191.797924,12.2222205 192.772423,12.6757389 196.378971,13.5181294 C199.98552,14.3605199 203.982169,15.5912852 203.982169,20.5163355 C203.982169,24.8252573 201.25297,27.7413008 195.046922,27.7413008" id="Fill-17" fill="#FFFFFF" mask="url(#mask-2)"></path>
                    <polygon id="Fill-18" fill="#E41F13" mask="url(#mask-2)" points="216.991333 31.5806918 324.993991 31.5806918 324.993991 0.325220408 216.991333 0.325220408"></polygon>
                    <path d="M235.737173,19.0629384 L232.101079,19.0629384 L232.101079,14.8594398 L240.242103,14.8594398 L240.242103,18.4855976 C240.242103,24.2614922 236.412712,27.5365711 231.200193,27.5365711 C225.310131,27.5365711 221.351541,23.0436561 221.351541,15.950967 C221.351541,9.11686293 225.471379,4.36685476 231.361441,4.36685476 C235.96302,4.36685476 238.408282,6.5165915 239.88906,9.98262551 L235.608975,11.7474684 C234.772188,10.0786003 233.742103,8.82694932 231.296341,8.82694932 C227.917643,8.82694932 225.986171,11.7792942 225.986171,15.950967 C225.986171,20.0913112 227.94869,23.1391337 231.327388,23.1391337 C235.044607,23.1391337 235.592951,20.8317595 235.737173,19.7387405 C235.763713,19.4557888 235.779738,19.3041187 235.778236,19.063933" id="Fill-19" fill="#FFFFFF" mask="url(#mask-2)"></path>
                    <path d="M254.387666,9.08354524 L248.498105,9.08354524 L248.498105,14.8594398 L254.387666,14.8594398 C256.480385,14.8594398 257.605616,13.8981997 257.605616,11.939418 C257.605616,9.91748197 256.382735,9.08354524 254.387666,9.08354524 M257.059276,27.1840003 L253.036587,19.0947643 L248.498105,19.0947643 L248.498105,27.1840003 L243.993174,27.1840003 L243.993174,4.71992279 L254.484314,4.71992279 C258.73235,4.71992279 262.241248,7.06260374 262.241248,11.8444378 C262.241248,15.2130051 260.79302,17.3324078 257.927111,18.4552636 L262.241248,27.1840003 L257.059276,27.1840003" id="Fill-20" fill="#FFFFFF" mask="url(#mask-2)"></path>
                    <polygon id="Fill-21" fill="#FFFFFF" mask="url(#mask-2)" points="265.650042 27.1838014 265.650042 4.71972388 281.290605 4.71972388 281.290605 9.11666401 270.153971 9.11666401 270.153971 13.7692055 278.506321 13.7692055 278.506321 18.1338225 270.153971 18.1338225 270.153971 22.786364 281.290605 22.786364 281.290605 27.1838014"></polygon>
                    <path d="M291.523848,18.1336733 C292.854395,14.3454026 294.118841,10.7207366 294.223502,10.3358427 C294.326159,10.7207366 295.591106,14.3454026 296.921152,18.1336733 L291.523848,18.1336733 Z M300.112061,27.1836522 L305.068186,27.1836522 L296.508016,4.72007197 L292.131784,4.72007197 L283.505512,27.1836522 L288.331938,27.1836522 C288.331938,27.1836522 289.069072,25.1015454 290.020535,22.401321 L298.423463,22.401321 C299.376429,25.1015454 300.112061,27.1836522 300.112061,27.1836522 L300.112061,27.1836522 Z" id="Fill-22" fill="#FFFFFF" mask="url(#mask-2)"></path>
                    <polygon id="Fill-23" fill="#FFFFFF" mask="url(#mask-2)" points="314.112049 9.14804231 314.112049 27.1838512 309.607619 27.1838512 309.607619 9.14804231 303.137666 9.14804231 303.137666 4.71977361 320.583005 4.71977361 320.583005 9.14804231"></polygon>
                    <path d="M219.40089,38.8542413 L218.013255,38.8542413 L218.013255,40.2018671 L219.40089,40.2018671 C219.909172,40.2018671 220.148039,39.9338338 220.148039,39.5250705 C220.148039,39.0775195 219.909172,38.8542413 219.40089,38.8542413 M219.341799,36.9397175 L218.013255,36.9397175 L218.013255,37.9307944 L219.394881,37.9307944 C219.827045,37.9307944 219.982785,37.7308882 219.982785,37.4404773 C219.982785,37.1122733 219.796999,36.9397175 219.341799,36.9397175 M219.364834,41.1939386 L216.991183,41.1939386 L216.991183,35.9799692 L219.386868,35.9799692 C220.401429,35.9799692 221.042916,36.4633243 221.042916,37.3569345 C221.042916,37.8044855 220.834095,38.162029 220.491568,38.3713835 C220.90921,38.5558739 221.222693,38.9352978 221.222693,39.5096549 C221.222693,40.6046631 220.483555,41.1939386 219.364834,41.1939386" id="Fill-24" fill="#FFFFFF" mask="url(#mask-2)"></path>
                    <path d="M224.327569,36.9916334 L222.961968,36.9916334 L222.961968,38.3327946 L224.327569,38.3327946 C224.812315,38.3327946 225.074218,38.110511 225.074218,37.655998 C225.074218,37.1865667 224.790782,36.9916334 224.327569,36.9916334 L224.327569,36.9916334 Z M224.947523,41.1936402 L224.014588,39.3164123 L222.961968,39.3164123 L222.961968,41.1936402 L221.917862,41.1936402 L221.917862,35.9801681 L224.350104,35.9801681 C225.33562,35.9801681 226.148871,36.5236939 226.148871,37.6331232 C226.148871,38.4163375 225.812354,38.9071518 225.147831,39.1682232 L226.148871,41.1936402 L224.947523,41.1936402 Z" id="Fill-25" fill="#FFFFFF" mask="url(#mask-2)"></path>
                    <polygon id="Fill-26" fill="#FFFFFF" mask="url(#mask-2)" points="226.947149 41.1940878 227.992257 41.1940878 227.992257 35.9801184 226.947149 35.9801184"></polygon>
                    <polygon id="Fill-27" fill="#FFFFFF" mask="url(#mask-2)" points="231.097334 37.007049 231.097334 41.1936402 230.052227 41.1936402 230.052227 37.007049 228.551918 37.007049 228.551918 35.9801681 232.597142 35.9801681 232.597142 37.007049"></polygon>
                    <path d="M234.746649,38.0949461 C234.642488,37.7901141 234.537827,37.4768284 234.485747,37.2828897 C234.433166,37.4768284 234.329006,37.7901141 234.223844,38.0949461 L233.88933,39.0407706 L235.083166,39.0407706 L234.746649,38.0949461 Z M235.851348,41.1939883 L235.441217,40.0303556 L233.530277,40.0303556 L233.119646,41.1939883 L232.000424,41.1939883 L234,35.9800189 L235.015562,35.9800189 L237.000616,41.1939883 L235.851348,41.1939883 Z" id="Fill-28" fill="#FFFFFF" mask="url(#mask-2)"></path>
                    <polygon id="Fill-29" fill="#FFFFFF" mask="url(#mask-2)" points="237.673151 41.1940878 238.71876 41.1940878 238.71876 35.9801184 237.673151 35.9801184"></polygon>
                    <path d="M242.912111,41.1938391 L240.993659,38.3479119 C240.867465,38.1549677 240.695701,37.8938963 240.628097,37.7591337 C240.628097,37.9535697 240.64312,38.6074915 240.64312,38.8998915 L240.64312,41.1938391 L239.613035,41.1938391 L239.613035,35.9798697 L240.613074,35.9798697 L242.463921,38.7347949 C242.590616,38.9282364 242.762881,39.1893078 242.830485,39.3245677 C242.830485,39.1291371 242.814961,38.474718 242.814961,38.1843071 L242.814961,35.9798697 L243.845046,35.9798697 L243.845046,41.1938391 L242.912111,41.1938391 Z" id="Fill-30" fill="#FFFFFF" mask="url(#mask-2)"></path>
                    <path d="M248.159734,39.0035244 C247.748602,39.2193435 247.583848,39.4868795 247.583848,39.7991707 C247.583848,40.1353312 247.852762,40.3511503 248.375065,40.3511503 C248.697061,40.3511503 248.964973,40.2765584 249.181306,40.1204129 L248.159734,39.0035244 Z M250.174334,41.194038 L249.778224,40.76787 C249.368093,41.103036 248.867824,41.2740999 248.256383,41.2740999 C247.189742,41.2740999 246.539241,40.8270462 246.539241,39.8891782 C246.539241,39.1591727 246.941861,38.7205727 247.606383,38.3928659 L247.472176,38.2441795 C247.196252,37.9373584 247.017477,37.6041816 247.017477,37.1864673 C247.017477,36.3376122 247.68901,35.8980176 248.569364,35.8980176 C249.211352,35.8980176 249.629495,36.0909618 250.129264,36.442538 L249.629495,37.1944237 C249.285967,36.9333523 248.912893,36.8214646 248.539318,36.8214646 C248.234349,36.8214646 248.047562,36.9477734 248.047562,37.1635924 C248.047562,37.387368 248.159734,37.5365516 248.323486,37.7304904 L249.763702,39.3685271 C249.883386,39.129336 250.002569,38.8468816 250.129264,38.5037591 L250.972061,38.7722897 C250.808309,39.2785197 250.614511,39.7191088 250.382654,40.0766523 L251.368671,41.194038 L250.174334,41.194038 Z" id="Fill-31" fill="#FFFFFF" mask="url(#mask-2)"></path>
                    <path d="M256.846298,41.1938391 L254.928347,38.3479119 C254.801653,38.1549677 254.629888,37.8938963 254.562785,37.7591337 C254.562785,37.9535697 254.577808,38.6074915 254.577808,38.8998915 L254.577808,41.1938391 L253.548224,41.1938391 L253.548224,35.9798697 L254.547762,35.9798697 L256.398609,38.7347949 C256.525304,38.9282364 256.697569,39.1893078 256.764673,39.3245677 C256.764673,39.1291371 256.749649,38.474718 256.749649,38.1843071 L256.749649,35.9798697 L257.779233,35.9798697 L257.779233,41.1938391 L256.846298,41.1938391 Z" id="Fill-32" fill="#FFFFFF" mask="url(#mask-2)"></path>
                    <path d="M260.742492,36.9332031 C259.898694,36.9332031 259.547654,37.6557494 259.547654,38.5866555 C259.547654,39.5170644 259.898694,40.2391133 260.742492,40.2391133 C261.58629,40.2391133 261.93683,39.5170644 261.93683,38.5866555 C261.93683,37.6557494 261.58629,36.9332031 260.742492,36.9332031 M260.742492,41.2739507 C259.316799,41.2739507 258.474002,40.1714834 258.474002,38.5866555 C258.474002,36.9988439 259.316799,35.8978684 260.742492,35.8978684 C262.168686,35.8978684 263.010982,36.9988439 263.010982,38.5866555 C263.010982,40.1714834 262.168686,41.2739507 260.742492,41.2739507" id="Fill-33" fill="#FFFFFF" mask="url(#mask-2)"></path>
                    <path d="M266.11661,36.9916334 L264.751009,36.9916334 L264.751009,38.3327946 L266.11661,38.3327946 C266.601356,38.3327946 266.863259,38.110511 266.863259,37.655998 C266.863259,37.1865667 266.578821,36.9916334 266.11661,36.9916334 L266.11661,36.9916334 Z M266.736564,41.1936402 L265.803128,39.3164123 L264.751009,39.3164123 L264.751009,41.1936402 L263.705901,41.1936402 L263.705901,35.9801681 L266.139145,35.9801681 C267.12416,35.9801681 267.93641,36.5236939 267.93641,37.6331232 C267.93641,38.4163375 267.601394,38.9071518 266.937373,39.1682232 L267.93641,41.1936402 L266.736564,41.1936402 Z" id="Fill-34" fill="#FFFFFF" mask="url(#mask-2)"></path>
                    <polygon id="Fill-35" fill="#FFFFFF" mask="url(#mask-2)" points="270.692149 37.007049 270.692149 41.1936402 269.646541 41.1936402 269.646541 37.007049 268.146233 37.007049 268.146233 35.9801681 272.192458 35.9801681 272.192458 37.007049"></polygon>
                    <polygon id="Fill-36" fill="#FFFFFF" mask="url(#mask-2)" points="275.863706 41.1938391 275.863706 39.0033255 273.721911 39.0033255 273.721911 41.1938391 272.677804 41.1938391 272.677804 35.9798697 273.721911 35.9798697 273.721911 37.97545 275.863706 37.97545 275.863706 35.9798697 276.908814 35.9798697 276.908814 41.1938391"></polygon>
                    <polygon id="Fill-37" fill="#FFFFFF" mask="url(#mask-2)" points="277.879357 41.1938391 277.879357 35.9798697 281.506437 35.9798697 281.506437 36.9987942 278.924465 36.9987942 278.924465 37.9008582 280.424773 37.9008582 280.424773 38.913318 278.924465 38.913318 278.924465 40.171931 281.61911 40.171931 281.61911 41.1938391"></polygon>
                    <path d="M284.767904,36.9916334 L283.402304,36.9916334 L283.402304,38.3327946 L284.767904,38.3327946 C285.25265,38.3327946 285.514553,38.110511 285.514553,37.655998 C285.514553,37.1865667 285.232119,36.9916334 284.767904,36.9916334 L284.767904,36.9916334 Z M285.386857,41.1936402 L284.454422,39.3164123 L283.402304,39.3164123 L283.402304,41.1936402 L282.357196,41.1936402 L282.357196,35.9801681 L284.789938,35.9801681 C285.775955,35.9801681 286.588205,36.5236939 286.588205,37.6331232 C286.588205,38.4163375 286.25369,38.9071518 285.588667,39.1682232 L286.588205,41.1936402 L285.386857,41.1936402 Z" id="Fill-38" fill="#FFFFFF" mask="url(#mask-2)"></path>
                    <path d="M290.613047,41.1938391 L288.693594,38.3479119 C288.566398,38.1549677 288.395135,37.8938963 288.328532,37.7591337 C288.328532,37.9535697 288.342554,38.6074915 288.342554,38.8998915 L288.342554,41.1938391 L287.313471,41.1938391 L287.313471,35.9798697 L288.313509,35.9798697 L290.163856,38.7347949 C290.291052,38.9282364 290.462315,39.1893078 290.53042,39.3245677 C290.53042,39.1291371 290.515898,38.474718 290.515898,38.1843071 L290.515898,35.9798697 L291.545482,35.9798697 L291.545482,41.1938391 L290.613047,41.1938391 Z" id="Fill-39" fill="#FFFFFF" mask="url(#mask-2)"></path>
                    <polygon id="Fill-40" fill="#FFFFFF" mask="url(#mask-2)" points="294.679854 41.1940878 295.725462 41.1940878 295.725462 35.9801184 294.679854 35.9801184"></polygon>
                    <path d="M299.180478,36.9916334 L297.814376,36.9916334 L297.814376,38.3327946 L299.180478,38.3327946 C299.665724,38.3327946 299.926125,38.110511 299.926125,37.655998 C299.926125,37.1865667 299.64319,36.9916334 299.180478,36.9916334 L299.180478,36.9916334 Z M299.800431,41.1936402 L298.866495,39.3164123 L297.814376,39.3164123 L297.814376,41.1936402 L296.77027,41.1936402 L296.77027,35.9801681 L299.202011,35.9801681 C300.187026,35.9801681 301.001279,36.5236939 301.001279,37.6331232 C301.001279,38.4163375 300.665262,38.9071518 300.00124,39.1682232 L301.001279,41.1936402 L299.800431,41.1936402 Z" id="Fill-41" fill="#FFFFFF" mask="url(#mask-2)"></path>
                    <polygon id="Fill-42" fill="#FFFFFF" mask="url(#mask-2)" points="301.875824 41.1938391 301.875824 35.9798697 305.501903 35.9798697 305.501903 36.9987942 302.919931 36.9987942 302.919931 37.9008582 304.419237 37.9008582 304.419237 38.913318 302.919931 38.913318 302.919931 40.171931 305.614576 40.171931 305.614576 41.1938391"></polygon>
                    <polygon id="Fill-43" fill="#FFFFFF" mask="url(#mask-2)" points="306.352912 41.1938391 306.352912 35.9798697 307.396518 35.9798697 307.396518 40.1644718 310.01755 40.1644718 310.01755 41.1938391"></polygon>
                    <path d="M312.981159,38.0949461 C312.876999,37.7901141 312.771837,37.4768284 312.720258,37.2828897 C312.667176,37.4768284 312.562015,37.7901141 312.457854,38.0949461 L312.122839,39.0407706 L313.316175,39.0407706 L312.981159,38.0949461 Z M314.084857,41.1939883 L313.673725,40.0303556 L311.764287,40.0303556 L311.354657,41.1939883 L310.234434,41.1939883 L312.234511,35.9800189 L313.249572,35.9800189 L315.235127,41.1939883 L314.084857,41.1939883 Z" id="Fill-44" fill="#FFFFFF" mask="url(#mask-2)"></path>
                    <path d="M318.981691,41.1938391 L317.06374,38.3479119 C316.936545,38.1549677 316.765782,37.8938963 316.696676,37.7591337 C316.696676,37.9535697 316.713702,38.6074915 316.713702,38.8998915 L316.713702,41.1938391 L315.683116,41.1938391 L315.683116,35.9798697 L316.681653,35.9798697 L318.534002,38.7347949 C318.661198,38.9282364 318.833463,39.1893078 318.900566,39.3245677 C318.900566,39.1291371 318.885042,38.474718 318.885042,38.1843071 L318.885042,35.9798697 L319.914126,35.9798697 L319.914126,41.1938391 L318.981691,41.1938391 Z" id="Fill-45" fill="#FFFFFF" mask="url(#mask-2)"></path>
                    <path d="M322.332496,36.9916334 L321.780647,36.9916334 L321.780647,40.1796885 L322.29594,40.1796885 C323.392126,40.1796885 323.892897,39.5381987 323.892897,38.5864069 C323.892897,37.5207382 323.437196,36.9916334 322.332496,36.9916334 M322.29594,41.1936402 L320.735539,41.1936402 L320.735539,35.9801681 L322.370555,35.9801681 C323.862851,35.9801681 324.967049,36.6803368 324.967049,38.5864069 C324.967049,40.4173878 323.639006,41.1936402 322.29594,41.1936402" id="Fill-46" fill="#FFFFFF" mask="url(#mask-2)"></path>
                </g>
            </g>
        </g>
    </g>
</svg>