<?xml version="1.0" encoding="UTF-8" standalone="no"?>
<svg width="60px" height="45px" viewBox="0 0 60 45" version="1.1" xmlns="http://www.w3.org/2000/svg" xmlns:xlink="http://www.w3.org/1999/xlink">
    <!-- Generator: Sketch 39.1 (31720) - http://www.bohemiancoding.com/sketch -->
    <title>Page 1</title>
    <desc>Created with Sketch.</desc>
    <defs>
        <polygon id="path-1" points="40.053 32.6108 40.053 0.397 0.5512 0.397 0.5512 32.6108 40.053 32.6108"></polygon>
    </defs>
    <g id="solution-3" stroke="none" stroke-width="1" fill="none" fill-rule="evenodd">
        <g id="details" transform="translate(-317.000000, -633.000000)">
            <g id="Page-1" transform="translate(317.000000, 632.000000)">
                <g id="Group-3" transform="translate(19.000000, 0.603300)">
                    <mask id="mask-2" fill="white">
                        <use xlink:href="#path-1"></use>
                    </mask>
                    <g id="Clip-2"></g>
                    <path d="M37.8422,21.5418 C37.8422,23.3308 36.2702,24.7948 34.3292,24.7948 L18.4352,24.7948 C18.1972,24.7948 17.9762,24.8628 17.7802,24.9918 L10.9992,29.5708 L10.9992,25.8178 C10.9992,25.5448 10.8852,25.2868 10.6722,25.0978 C10.4592,24.9078 10.1802,24.7948 9.8942,24.7948 L6.2742,24.7948 C4.3422,24.7948 2.7612,23.3388 2.7612,21.5418 L2.7612,5.6958 C2.7612,3.9068 4.3342,2.4438 6.2742,2.4438 L34.3292,2.4438 C36.2622,2.4438 37.8422,3.8998 37.8422,5.6958 L37.8422,21.5418 Z M34.3292,0.3968 L6.2742,0.3968 C3.1222,0.3968 0.5512,2.7698 0.5512,5.6958 L0.5512,21.5498 C0.5512,24.4678 3.1142,26.8488 6.2742,26.8488 L8.7882,26.8488 L8.7882,31.5878 C8.7882,31.9738 9.0262,32.3228 9.3942,32.4968 C9.5502,32.5728 9.7222,32.6108 9.8942,32.6108 C10.1232,32.6108 10.3522,32.5428 10.5492,32.4138 L18.7952,26.8488 L34.3292,26.8488 C37.4822,26.8488 40.0532,24.4758 40.0532,21.5498 L40.0532,5.6958 C40.0532,2.7698 37.4822,0.3968 34.3292,0.3968 L34.3292,0.3968 Z" id="Fill-1" fill="#1E1348" mask="url(#mask-2)"></path>
                </g>
                <path d="M16.6259,12.0327 C11.8379,12.0327 9.1879,14.5137 9.2359,19.2957 C9.3059,25.8437 12.0889,29.8157 16.6259,29.7467 C16.6259,29.7467 24.0119,30.0467 24.0119,19.2957 C24.0119,14.5137 21.5169,12.0327 16.6259,12.0327" id="Fill-4" fill="#1E1348"></path>
                <path d="M16.6259,12.0327 C11.8379,12.0327 9.1879,14.5137 9.2359,19.2957 C9.3059,25.8437 12.0889,29.8157 16.6259,29.7467 C16.6259,29.7467 24.0119,30.0467 24.0119,19.2957 C24.0119,14.5137 21.5169,12.0327 16.6259,12.0327 L16.6259,12.0327 Z" id="Stroke-6" stroke="#FFFFFF" stroke-width="1.5"></path>
                <path d="M29.691,34.7171 L22.31,31.7741 L20.582,30.3181 C20.126,29.9321 19.451,29.9611 19.028,30.3811 L16.625,32.7711 L14.215,30.3811 C13.792,29.9611 13.118,29.9331 12.662,30.3181 L10.934,31.7741 L3.553,34.7171 C1.176,35.6641 1.178,44.0811 0.974,44.8531 L32.273,44.8531 C32.07,44.0821 32.069,35.6631 29.691,34.7171" id="Fill-8" fill="#1E1348"></path>
                <path d="M29.691,34.7171 L22.31,31.7741 L20.582,30.3181 C20.126,29.9321 19.451,29.9611 19.028,30.3811 L16.625,32.7711 L14.215,30.3811 C13.792,29.9611 13.118,29.9331 12.662,30.3181 L10.934,31.7741 L3.553,34.7171 C1.176,35.6641 1.178,44.0811 0.974,44.8531 L32.273,44.8531 C32.07,44.0821 32.069,35.6631 29.691,34.7171 L29.691,34.7171 Z" id="Stroke-10" stroke="#FFFFFF" stroke-width="1.5"></path>
                <path d="M41.0614,18.7889 L36.9374,18.7889 C36.6304,18.7889 36.3814,19.0379 36.3814,19.3449 C36.3814,19.6519 36.6304,19.9009 36.9374,19.9009 L41.0614,19.9009 C41.3684,19.9009 41.6174,19.6519 41.6174,19.3449 C41.6174,19.0379 41.3684,18.7889 41.0614,18.7889" id="Fill-12" fill="#B00D23"></path>
                <path d="M37.9185,22.0725 L37.9185,22.3755 C37.9185,22.7175 38.1955,22.9945 38.5375,22.9945 L39.4615,22.9945 C39.8025,22.9945 40.0805,22.7175 40.0805,22.3755 L40.0805,22.0725 C40.7805,22.0225 41.3355,21.4445 41.3355,20.7325 L36.6635,20.7325 C36.6635,21.4445 37.2185,22.0225 37.9185,22.0725" id="Fill-14" fill="#B00D23"></path>
                <path d="M39.0087,8.2493 C37.0307,8.2493 35.4217,9.8583 35.4217,11.8353 C35.4217,12.1423 35.1737,12.3913 34.8657,12.3913 C34.5587,12.3913 34.3107,12.1423 34.3107,11.8353 C34.3107,9.2453 36.4177,7.1373 39.0087,7.1373 C39.3157,7.1373 39.5647,7.3863 39.5647,7.6933 C39.5647,8.0003 39.3157,8.2493 39.0087,8.2493 M38.9997,6.3163 C35.9217,6.3163 33.4277,8.8103 33.4277,11.8883 C33.4277,13.1863 33.8737,14.3783 34.6207,15.3243 C35.2797,16.1613 35.9057,17.0753 36.4447,17.9943 L41.5537,17.9943 C42.0987,17.0663 42.7127,16.1693 43.3787,15.3243 C44.1237,14.3783 44.5707,13.1863 44.5707,11.8883 C44.5707,8.8103 42.0757,6.3163 38.9997,6.3163" id="Fill-16" fill="#B00D23"></path>
            </g>
        </g>
    </g>
</svg>