<?xml version="1.0" encoding="UTF-8" standalone="no"?>
<svg width="36px" height="34px" viewBox="0 0 36 34" version="1.1" xmlns="http://www.w3.org/2000/svg" xmlns:xlink="http://www.w3.org/1999/xlink">
    <!-- Generator: Sketch 40.3 (33839) - http://www.bohemiancoding.com/sketch -->
    <title>Group 12</title>
    <desc>Created with Sketch.</desc>
    <defs></defs>
    <g id="tablet" stroke="none" stroke-width="1" fill="none" fill-rule="evenodd">
        <g id="listing" transform="translate(-508.000000, -463.000000)">
            <g id="Group-12" transform="translate(508.000000, 459.000000)">
                <text id="%" font-family="Roboto-Black, Roboto" font-size="24" font-weight="700" fill="#B00D23">
                    <tspan x="9" y="22">%</tspan>
                </text>
                <path d="M34.5277124,27.9515512 C32.0120189,26.4577716 31.8406834,27.3660162 30.1722414,28.7089762 C29.3116823,29.3993087 29.4791365,29.817944 26.1062109,31.111555 C23.8355994,31.9826492 19.6392652,31.332794 18.2807797,31.1049012 C19.3259818,30.972934 22.9683865,30.8027074 24.1194951,30.4184501 C25.4591282,29.9715361 26.3524018,29.4808178 26.429475,28.6163774 C26.5625512,27.1680655 25.1236655,26.1733214 24.7188922,26.2903175 C21.7180253,27.1591937 21.0764875,27.5356883 12.2574211,25.3598935 C3.05742422,23.0898364 0.171890009,32.297596 0.145829265,32.38465 L4.54747351e-13,32.8542979 L5.05911109,37.8025122 L5.62080328,37.2862877 C8.00841095,35.0949673 11.2327348,35.5446537 15.3137363,36.1146632 C17.3492467,36.3996679 19.6570087,36.7212686 22.1105999,36.7273679 C29.7752309,36.7451114 34.592587,29.3932094 34.7949736,29.0804804 L35.246878,28.3779493 L34.5277124,27.9515512 Z" id="Fill-1" fill="#1E1348"></path>
            </g>
        </g>
    </g>
</svg>