<?xml version="1.0" encoding="utf-8"?>
<!-- Generator: Adobe Illustrator 20.1.0, SVG Export Plug-In . SVG Version: 6.00 Build 0)  -->
<svg version="1.1" id="Capa_1" xmlns="http://www.w3.org/2000/svg" xmlns:xlink="http://www.w3.org/1999/xlink" x="0px" y="0px"
	 viewBox="0 0 38 35.25" style="enable-background:new 0 0 38 35.25;" xml:space="preserve">
<style type="text/css">
	.st0{fill:#1E1348;}
	.st1{fill:#B00D23;stroke:#DFD5C5;stroke-miterlimit:10;}
	.st2{fill:none;stroke:#007EA3;stroke-miterlimit:10;}
	.st3{fill:none;stroke:#00549F;stroke-width:2;stroke-miterlimit:10;}
	.st4{fill:#B00D23;}
	.st5{fill:#FFFFFF;}
	.st6{fill:#B00D23;stroke:#FFFFFF;stroke-miterlimit:10;}
	.st7{fill:#1E1348;stroke:#1E1348;stroke-miterlimit:10;}
	.st8{fill:#1E1348;stroke:#FFFFFF;stroke-width:1.5;stroke-miterlimit:10;}
	.st9{fill:#DFD5C5;}
	.st10{fill:none;}
	.st11{fill:#C0212E;}
	.st12{clip-path:url(#SVGID_2_);}
	.st13{clip-path:url(#SVGID_4_);fill:#1E1348;}
</style>
<rect x="-926.5" y="-884.25" class="st10" width="1609" height="2040"/>
<rect x="-1192.5" y="-294.25" class="st10" width="1609" height="2040"/>
<g>
	<defs>
		<path id="SVGID_1_" d="M-112.97,211.7c-2.52-1.49-2.69-0.59-4.36,0.76c-0.86,0.69-0.69,1.11-4.07,2.4
			c-2.27,0.87-6.47,0.22-7.83-0.01c1.05-0.13,4.69-0.3,5.84-0.69c1.34-0.45,2.23-0.94,2.31-1.8c0.13-1.45-1.31-2.44-1.71-2.33
			c-3,0.87-3.64,1.25-12.46-0.93c-9.2-2.27-12.09,6.94-12.11,7.02l-0.15,0.47l5.06,4.95l0.56-0.52c2.39-2.19,5.61-1.74,9.69-1.17
			c2.04,0.29,4.34,0.61,6.8,0.61c7.66,0.02,12.48-7.33,12.68-7.65l0.45-0.7L-112.97,211.7z"/>
	</defs>
	<clipPath id="SVGID_2_">
		<use xlink:href="#SVGID_1_"  style="overflow:visible;"/>
	</clipPath>
	<g class="st12">
		<defs>
			<rect id="SVGID_3_" x="-1132.5" y="-294.25" width="1609" height="2040"/>
		</defs>
		<clipPath id="SVGID_4_">
			<use xlink:href="#SVGID_3_"  style="overflow:visible;"/>
		</clipPath>
	</g>
</g>
<path class="st0" d="M36.34,24.34c-2.56-1.52-2.74-0.6-4.44,0.77c-0.88,0.7-0.71,1.13-4.14,2.45c-2.31,0.89-6.59,0.23-7.97-0.01
	c1.06-0.13,4.77-0.31,5.95-0.7c1.36-0.46,2.27-0.95,2.35-1.84c0.14-1.48-1.33-2.49-1.74-2.37c-3.06,0.88-3.71,1.27-12.69-0.95
	c-9.37-2.31-12.31,7.07-12.34,7.16l-0.15,0.48l5.15,5.04l0.57-0.53c2.43-2.23,5.72-1.77,9.87-1.19c2.07,0.29,4.42,0.62,6.92,0.62
	c7.81,0.02,12.71-7.47,12.92-7.79l0.46-0.72L36.34,24.34z"/>
<g>
	<path class="st11" d="M11.8,4.97c0-0.48,0.08-0.94,0.24-1.37s0.4-0.8,0.71-1.12s0.71-0.57,1.19-0.76s1.03-0.28,1.65-0.28
		c0.64,0,1.2,0.09,1.68,0.28s0.87,0.44,1.18,0.76s0.55,0.69,0.7,1.12s0.23,0.88,0.23,1.37v0.9c0,0.48-0.08,0.93-0.23,1.35
		s-0.39,0.8-0.7,1.11s-0.71,0.57-1.18,0.76s-1.03,0.28-1.66,0.28s-1.19-0.09-1.66-0.28s-0.88-0.44-1.2-0.76s-0.56-0.69-0.72-1.11
		S11.8,6.35,11.8,5.87V4.97z M14.35,5.87c0,0.18,0.03,0.35,0.08,0.52s0.13,0.31,0.23,0.44s0.24,0.23,0.4,0.3s0.35,0.11,0.57,0.11
		c0.21,0,0.39-0.04,0.55-0.11s0.28-0.18,0.38-0.3s0.17-0.28,0.22-0.44s0.08-0.34,0.08-0.52v-0.9c0-0.19-0.03-0.37-0.08-0.53
		s-0.13-0.32-0.23-0.45s-0.23-0.23-0.39-0.3s-0.35-0.11-0.56-0.11s-0.39,0.04-0.55,0.11s-0.29,0.18-0.39,0.3s-0.18,0.28-0.23,0.45
		s-0.08,0.35-0.08,0.53V5.87z M16.38,17.47l-1.84-0.93l8.33-13.34l1.84,0.93L16.38,17.47z M19.91,14.57c0-0.48,0.08-0.93,0.24-1.36
		s0.4-0.8,0.71-1.12s0.71-0.57,1.19-0.76s1.03-0.28,1.65-0.28c0.64,0,1.2,0.09,1.68,0.28s0.88,0.44,1.19,0.76s0.55,0.69,0.7,1.12
		s0.23,0.88,0.23,1.36v0.9c0,0.48-0.08,0.94-0.23,1.37s-0.39,0.8-0.7,1.11s-0.71,0.57-1.18,0.76s-1.03,0.28-1.67,0.28
		c-0.63,0-1.19-0.09-1.66-0.28s-0.88-0.44-1.2-0.76s-0.56-0.69-0.72-1.11s-0.24-0.88-0.24-1.37V14.57z M22.45,15.47
		c0,0.18,0.03,0.35,0.1,0.52s0.16,0.32,0.28,0.45s0.25,0.23,0.41,0.3s0.32,0.11,0.5,0.11c0.27,0,0.48-0.04,0.64-0.11
		s0.29-0.18,0.38-0.3s0.15-0.28,0.18-0.45s0.04-0.34,0.04-0.52v-0.9c0-0.18-0.03-0.35-0.08-0.52s-0.13-0.32-0.23-0.45
		s-0.24-0.23-0.4-0.3s-0.35-0.11-0.56-0.11s-0.4,0.04-0.56,0.11s-0.29,0.18-0.4,0.3s-0.18,0.28-0.23,0.45s-0.08,0.34-0.08,0.52
		V15.47z"/>
</g>
</svg>
