<?xml version="1.0" encoding="utf-8"?>
<!-- Generator: Adobe Illustrator 21.0.2, SVG Export Plug-In . SVG Version: 6.00 Build 0)  -->
<svg version="1.1" id="Layer_1" xmlns="http://www.w3.org/2000/svg" xmlns:xlink="http://www.w3.org/1999/xlink" x="0px" y="0px"
	 width="35px" height="35px" viewBox="0 0 35 35" style="enable-background:new 0 0 35 35;" xml:space="preserve">
<style type="text/css">
	.st0{fill:#333333;}
</style>
<g>
	<path class="st0" d="M17.5,2.49c8.36,0,15.01,6.65,15.01,15.01S25.86,32.51,17.5,32.51S2.49,25.86,2.49,17.5S9.14,2.49,17.5,2.49z
		 M17.5,0.34C8.06,0.34,0.34,8.06,0.34,17.5S8.06,34.66,17.5,34.66s17.16-7.72,17.16-17.16S26.94,0.34,17.5,0.34L17.5,0.34z"/>
	<path class="st0" d="M15.36,13.21c0,1.18-0.96,2.14-2.14,2.14s-2.14-0.96-2.14-2.14s0.96-2.14,2.14-2.14S15.36,12.03,15.36,13.21z"
		/>
	<path class="st0" d="M23.93,13.21c0,1.18-0.96,2.14-2.14,2.14s-2.14-0.96-2.14-2.14s0.96-2.14,2.14-2.14S23.93,12.03,23.93,13.21z"
		/>
	<path class="st0" d="M24.58,26.72c-1.5-2.36-4.29-3.86-7.08-3.86s-5.58,1.5-7.08,3.86l-1.72-1.29c1.93-3,5.15-4.72,8.79-4.72
		s6.86,1.72,8.79,4.72L24.58,26.72z"/>
</g>
<g>
</g>
<g>
</g>
<g>
</g>
<g>
</g>
<g>
</g>
<g>
</g>
<g>
</g>
<g>
</g>
<g>
</g>
<g>
</g>
<g>
</g>
<g>
</g>
<g>
</g>
<g>
</g>
<g>
</g>
</svg>
