<?xml version="1.0" encoding="utf-8"?>
<!-- Generator: Adobe Illustrator 21.0.2, SVG Export Plug-In . SVG Version: 6.00 Build 0)  -->
<svg version="1.1" id="Layer_1" xmlns="http://www.w3.org/2000/svg" xmlns:xlink="http://www.w3.org/1999/xlink" x="0px" y="0px"
	 width="35px" height="35px" viewBox="0 0 35 35" style="enable-background:new 0 0 35 35;" xml:space="preserve">
<style type="text/css">
	.st0{clip-path:url(#SVGID_2_);}
	.st1{clip-path:url(#SVGID_4_);fill:#FFFFFF;}
	.st2{clip-path:url(#SVGID_6_);}
	.st3{clip-path:url(#SVGID_8_);fill:#FFFFFF;}
	.st4{clip-path:url(#SVGID_10_);}
	.st5{clip-path:url(#SVGID_12_);fill:#FFFFFF;}
	.st6{clip-path:url(#SVGID_14_);}
	.st7{clip-path:url(#SVGID_16_);fill:#FFFFFF;}
	.st8{clip-path:url(#SVGID_18_);}
	.st9{clip-path:url(#SVGID_20_);fill:#FFFFFF;}
	.st10{clip-path:url(#SVGID_22_);}
	.st11{clip-path:url(#SVGID_24_);fill:#FFFFFF;}
	.st12{clip-path:url(#SVGID_26_);}
	.st13{clip-path:url(#SVGID_28_);fill:#FFFFFF;}
	.st14{clip-path:url(#SVGID_30_);}
	.st15{clip-path:url(#SVGID_32_);fill:#FFFFFF;}
</style>
<g>
	<g>
		<defs>
			<path id="SVGID_1_" d="M17.5,2.41c8.41,0,15.09,6.68,15.09,15.09S25.91,32.59,17.5,32.59S2.41,25.91,2.41,17.5
				S9.09,2.41,17.5,2.41 M17.5,0.25C8.01,0.25,0.25,8.01,0.25,17.5S8.01,34.75,17.5,34.75s17.25-7.76,17.25-17.25
				S26.99,0.25,17.5,0.25"/>
		</defs>
		<clipPath id="SVGID_2_">
			<use xlink:href="#SVGID_1_"  style="overflow:visible;"/>
		</clipPath>
		<g class="st0">
			<defs>
				<rect id="SVGID_3_" x="-421.64" y="-835.64" width="1182.86" height="1230.17"/>
			</defs>
			<clipPath id="SVGID_4_">
				<use xlink:href="#SVGID_3_"  style="overflow:visible;"/>
			</clipPath>
			<rect x="-4.68" y="-4.68" class="st1" width="44.36" height="44.36"/>
		</g>
	</g>
	<g>
		<defs>
			<path id="SVGID_5_" d="M15.34,13.19c0,1.19-0.97,2.16-2.16,2.16s-2.16-0.97-2.16-2.16s0.97-2.16,2.16-2.16S15.34,12,15.34,13.19"
				/>
		</defs>
		<clipPath id="SVGID_6_">
			<use xlink:href="#SVGID_5_"  style="overflow:visible;"/>
		</clipPath>
		<g class="st2">
			<defs>
				<rect id="SVGID_7_" x="-421.64" y="-835.64" width="1182.86" height="1230.17"/>
			</defs>
			<clipPath id="SVGID_8_">
				<use xlink:href="#SVGID_7_"  style="overflow:visible;"/>
			</clipPath>
			<rect x="6.1" y="6.1" class="st3" width="14.17" height="14.17"/>
		</g>
	</g>
	<g>
		<defs>
			<path id="SVGID_9_" d="M23.97,13.19c0,1.19-0.97,2.16-2.16,2.16s-2.16-0.97-2.16-2.16s0.97-2.16,2.16-2.16S23.97,12,23.97,13.19"
				/>
		</defs>
		<clipPath id="SVGID_10_">
			<use xlink:href="#SVGID_9_"  style="overflow:visible;"/>
		</clipPath>
		<g class="st4">
			<defs>
				<rect id="SVGID_11_" x="-421.64" y="-835.64" width="1182.86" height="1230.17"/>
			</defs>
			<clipPath id="SVGID_12_">
				<use xlink:href="#SVGID_11_"  style="overflow:visible;"/>
			</clipPath>
			<rect x="14.73" y="6.1" class="st5" width="14.17" height="14.17"/>
		</g>
	</g>
	<g>
		<defs>
			<path id="SVGID_13_" d="M24.62,26.77c-1.51-2.37-4.31-3.88-7.12-3.88s-5.61,1.51-7.12,3.88l-1.72-1.29
				c1.94-3.02,5.17-4.74,8.84-4.74c3.67,0,6.9,1.73,8.84,4.74L24.62,26.77z"/>
		</defs>
		<clipPath id="SVGID_14_">
			<use xlink:href="#SVGID_13_"  style="overflow:visible;"/>
		</clipPath>
		<g class="st6">
			<defs>
				<rect id="SVGID_15_" x="-421.64" y="-835.64" width="1182.86" height="1230.17"/>
			</defs>
			<clipPath id="SVGID_16_">
				<use xlink:href="#SVGID_15_"  style="overflow:visible;"/>
			</clipPath>
			<rect x="3.73" y="15.81" class="st7" width="27.54" height="15.89"/>
		</g>
	</g>
	<g>
		<defs>
			<path id="SVGID_17_" d="M17.5,2.41c8.41,0,15.09,6.68,15.09,15.09S25.91,32.59,17.5,32.59S2.41,25.91,2.41,17.5
				S9.09,2.41,17.5,2.41 M17.5,0.25C8.01,0.25,0.25,8.01,0.25,17.5S8.01,34.75,17.5,34.75s17.25-7.76,17.25-17.25
				S26.99,0.25,17.5,0.25"/>
		</defs>
		<clipPath id="SVGID_18_">
			<use xlink:href="#SVGID_17_"  style="overflow:visible;"/>
		</clipPath>
		<g class="st8">
			<defs>
				<rect id="SVGID_19_" x="-421.64" y="-835.64" width="1182.86" height="1230.17"/>
			</defs>
			<clipPath id="SVGID_20_">
				<use xlink:href="#SVGID_19_"  style="overflow:visible;"/>
			</clipPath>
			<rect x="-4.68" y="-4.68" class="st9" width="44.36" height="44.36"/>
		</g>
	</g>
	<g>
		<defs>
			<path id="SVGID_21_" d="M15.34,13.19c0,1.19-0.97,2.16-2.16,2.16s-2.16-0.97-2.16-2.16s0.97-2.16,2.16-2.16S15.34,12,15.34,13.19
				"/>
		</defs>
		<clipPath id="SVGID_22_">
			<use xlink:href="#SVGID_21_"  style="overflow:visible;"/>
		</clipPath>
		<g class="st10">
			<defs>
				<rect id="SVGID_23_" x="-421.64" y="-835.64" width="1182.86" height="1230.17"/>
			</defs>
			<clipPath id="SVGID_24_">
				<use xlink:href="#SVGID_23_"  style="overflow:visible;"/>
			</clipPath>
			<rect x="6.1" y="6.1" class="st11" width="14.17" height="14.17"/>
		</g>
	</g>
	<g>
		<defs>
			<path id="SVGID_25_" d="M23.97,13.19c0,1.19-0.97,2.16-2.16,2.16s-2.16-0.97-2.16-2.16s0.97-2.16,2.16-2.16S23.97,12,23.97,13.19
				"/>
		</defs>
		<clipPath id="SVGID_26_">
			<use xlink:href="#SVGID_25_"  style="overflow:visible;"/>
		</clipPath>
		<g class="st12">
			<defs>
				<rect id="SVGID_27_" x="-421.64" y="-835.64" width="1182.86" height="1230.17"/>
			</defs>
			<clipPath id="SVGID_28_">
				<use xlink:href="#SVGID_27_"  style="overflow:visible;"/>
			</clipPath>
			<rect x="14.73" y="6.1" class="st13" width="14.17" height="14.17"/>
		</g>
	</g>
	<g>
		<defs>
			<path id="SVGID_29_" d="M24.62,26.77c-1.51-2.37-4.31-3.88-7.12-3.88s-5.61,1.51-7.12,3.88l-1.72-1.29
				c1.94-3.02,5.17-4.74,8.84-4.74c3.67,0,6.9,1.73,8.84,4.74L24.62,26.77z"/>
		</defs>
		<clipPath id="SVGID_30_">
			<use xlink:href="#SVGID_29_"  style="overflow:visible;"/>
		</clipPath>
		<g class="st14">
			<defs>
				<rect id="SVGID_31_" x="-421.64" y="-835.64" width="1182.86" height="1230.17"/>
			</defs>
			<clipPath id="SVGID_32_">
				<use xlink:href="#SVGID_31_"  style="overflow:visible;"/>
			</clipPath>
			<rect x="3.73" y="15.81" class="st15" width="27.54" height="15.89"/>
		</g>
	</g>
</g>
</svg>
