<?xml version="1.0" encoding="utf-8"?>
<!-- Generator: Adobe Illustrator 21.0.0, SVG Export Plug-In . SVG Version: 6.00 Build 0)  -->
<svg version="1.1" id="Layer_1" xmlns="http://www.w3.org/2000/svg" xmlns:xlink="http://www.w3.org/1999/xlink" x="0px" y="0px"
	 width="35px" height="35px" viewBox="0 0 35 35" style="enable-background:new 0 0 35 35;" xml:space="preserve">
<style type="text/css">
	.st0{fill:#FFFFFF;}
</style>
<g>
	<g>
		<path class="st0" d="M29.52,5.41C26.31,2.2,22.04,0.43,17.5,0.43S8.69,2.2,5.48,5.41c-6.2,6.2-6.65,16.1-1.13,22.81
			c-0.76,1.56-1.66,2.6-2.68,3.1c-0.62,0.31-0.97,0.98-0.87,1.66c0.11,0.69,0.63,1.23,1.32,1.33c0.38,0.06,0.78,0.09,1.2,0.09l0,0
			c2.09,0,4.28-0.72,6.11-1.98c2.46,1.32,5.23,2.02,8.06,2.02c4.54,0,8.81-1.77,12.02-4.98s4.98-7.49,4.98-12.02
			S32.73,8.62,29.52,5.41z M28.16,28.1c-2.85,2.85-6.64,4.42-10.66,4.42c-2.69,0-5.33-0.72-7.64-2.07
			c-0.15-0.09-0.32-0.14-0.48-0.14c-0.21,0-0.42,0.07-0.59,0.2c-2.18,1.69-4.37,1.94-5.33,1.96c1.15-0.85,2.11-2.18,2.91-4.02
			c0.15-0.34,0.09-0.74-0.16-1.03C0.93,21.46,1.21,12.39,6.84,6.76c2.85-2.85,6.64-4.42,10.66-4.42s7.81,1.57,10.66,4.42
			C34.04,12.65,34.04,22.22,28.16,28.1z"/>
		<path class="st0" d="M24.62,11.82H10.38c-0.53,0-0.96,0.43-0.96,0.96s0.43,0.96,0.96,0.96h14.24c0.53,0,0.96-0.43,0.96-0.96
			S25.15,11.82,24.62,11.82z"/>
		<path class="st0" d="M24.62,16.47H10.38c-0.53,0-0.96,0.43-0.96,0.96s0.43,0.96,0.96,0.96h14.24c0.53,0,0.96-0.43,0.96-0.96
			S25.15,16.47,24.62,16.47z"/>
		<path class="st0" d="M24.62,21.12H10.38c-0.53,0-0.96,0.43-0.96,0.96s0.43,0.96,0.96,0.96h14.24c0.53,0,0.96-0.43,0.96-0.96
			S25.15,21.12,24.62,21.12z"/>
	</g>
</g>
<g>
</g>
<g>
</g>
<g>
</g>
<g>
</g>
<g>
</g>
<g>
</g>
<g>
</g>
<g>
</g>
<g>
</g>
<g>
</g>
<g>
</g>
<g>
</g>
<g>
</g>
<g>
</g>
<g>
</g>
</svg>
