<?xml version="1.0" encoding="utf-8"?>
<!-- Generator: Adobe Illustrator 20.1.0, SVG Export Plug-In . SVG Version: 6.00 Build 0)  -->
<svg version="1.1" id="Capa_1" xmlns="http://www.w3.org/2000/svg" xmlns:xlink="http://www.w3.org/1999/xlink" x="0px" y="0px"
	 viewBox="0 0 40.25 38.92" style="enable-background:new 0 0 40.25 38.92;" xml:space="preserve">
<style type="text/css">
	.st0{fill:#1E1348;}
	.st1{fill:#B00D23;stroke:#DFD5C5;stroke-miterlimit:10;}
	.st2{fill:none;stroke:#007EA3;stroke-miterlimit:10;}
	.st3{fill:none;stroke:#00549F;stroke-width:2;stroke-miterlimit:10;}
	.st4{fill:#B00D23;}
	.st5{fill:#FFFFFF;}
	.st6{fill:#B00D23;stroke:#FFFFFF;stroke-miterlimit:10;}
	.st7{fill:#1E1348;stroke:#1E1348;stroke-miterlimit:10;}
	.st8{fill:#1E1348;stroke:#FFFFFF;stroke-width:1.5;stroke-miterlimit:10;}
	.st9{fill:#DFD5C5;}
	.st10{fill:#FFFFFF;stroke:#FFFFFF;stroke-miterlimit:10;}
</style>
<g>
	<ellipse class="st10" cx="27.77" cy="26.56" rx="11.37" ry="11.59"/>
	<path class="st5" d="M20.03,4.11h14.59c0.67,0,1.22-0.41,1.22-0.91V1.37c0-0.5-0.54-0.91-1.22-0.91H20.03
		c-0.67,0-1.22,0.41-1.22,0.91v1.82C18.81,3.7,19.35,4.11,20.03,4.11z M20.03,8.97h14.59c0.67,0,1.22-0.41,1.22-0.91V6.23
		c0-0.5-0.54-0.91-1.22-0.91H20.03c-0.67,0-1.22,0.41-1.22,0.91v1.82C18.81,8.56,19.35,8.97,20.03,8.97z M1.79,33.29h14.34
		c-0.73-1.11-1.29-2.34-1.66-3.65H1.79c-0.67,0-1.22,0.41-1.22,0.91v1.82C0.57,32.88,1.12,33.29,1.79,33.29z M16.38,34.5H1.79
		c-0.67,0-1.22,0.41-1.22,0.91v1.82c0,0.5,0.54,0.91,1.22,0.91h14.59c0.67,0,1.22-0.41,1.22-0.91v-1.82
		C17.6,34.91,17.05,34.5,16.38,34.5z M1.79,28.42h12.39c-0.15-0.79-0.23-1.6-0.23-2.43c0-0.41,0.02-0.81,0.06-1.22H1.79
		c-0.67,0-1.22,0.41-1.22,0.91v1.82C0.57,28.02,1.12,28.42,1.79,28.42z M20.03,13.83h1.76c1.69-0.77,3.56-1.22,5.54-1.22
		c1.98,0,3.85,0.44,5.54,1.22h1.76c0.67,0,1.22-0.41,1.22-0.91V11.1c0-0.5-0.54-0.91-1.22-0.91H20.03c-0.67,0-1.22,0.41-1.22,0.91
		v1.82C18.81,13.42,19.35,13.83,20.03,13.83z M1.79,13.83h14.59c0.67,0,1.22-0.41,1.22-0.91V11.1c0-0.5-0.54-0.91-1.22-0.91H1.79
		c-0.67,0-1.22,0.41-1.22,0.91v1.82C0.57,13.42,1.12,13.83,1.79,13.83z M1.79,23.56h12.39c0.24-1.29,0.66-2.51,1.24-3.65H1.79
		c-0.67,0-1.22,0.41-1.22,0.91v1.82C0.57,23.15,1.12,23.56,1.79,23.56z M1.79,18.7h14.34c0.43-0.66,0.93-1.28,1.47-1.86v-0.88
		c0-0.5-0.54-0.91-1.22-0.91H1.79c-0.67,0-1.22,0.41-1.22,0.91v1.82C0.57,18.29,1.12,18.7,1.79,18.7z"/>
	<g>
		<path class="st0" d="M27.79,16.19c-5.59,0-10.14,4.67-10.14,10.41c0,3.59,1.78,6.76,4.48,8.63l0,0.01l0.34,0.21
			c0.01,0.01,0.02,0.01,0.03,0.02c0.18,0.11,0.36,0.22,0.54,0.32c0.04,0.02,0.08,0.04,0.12,0.06c0.16,0.08,0.31,0.16,0.48,0.24
			c0.04,0.02,0.08,0.04,0.12,0.05c0.2,0.09,0.4,0.17,0.6,0.25c0.01,0,0.01,0,0.02,0.01c0.2,0.07,0.39,0.14,0.59,0.2
			c0.04,0.01,0.08,0.02,0.12,0.03c0.2,0.06,0.4,0.11,0.6,0.15c0.01,0,0.01,0,0.02,0c0.21,0.05,0.43,0.08,0.64,0.12
			c0.04,0.01,0.08,0.01,0.13,0.02c0.17,0.02,0.34,0.04,0.51,0.06c0.06,0,0.11,0.01,0.17,0.01c0.21,0.01,0.42,0.02,0.64,0.02
			c0.3,0,0.59-0.02,0.88-0.04c0.03,0,0.06,0,0.08-0.01c0.28-0.03,0.56-0.07,0.84-0.12c0.03-0.01,0.06-0.01,0.09-0.02
			c0.28-0.05,0.55-0.12,0.82-0.2c0.03-0.01,0.05-0.02,0.08-0.02c0.27-0.08,0.54-0.17,0.81-0.28c0.02-0.01,0.04-0.02,0.07-0.03
			c0.27-0.11,0.53-0.22,0.79-0.35c0.02-0.01,0.03-0.02,0.05-0.03c0.26-0.13,0.52-0.28,0.77-0.43c0.01-0.01,0.02-0.01,0.03-0.02
			c0.25-0.16,0.5-0.33,0.74-0.52c0,0,0.01,0,0.01-0.01c0.24-0.18,0.47-0.38,0.69-0.58c0.01-0.01,0.02-0.02,0.03-0.03l0.22-0.21
			l0-0.01c1.93-1.9,3.14-4.57,3.14-7.52C37.93,20.86,33.38,16.19,27.79,16.19z M18.6,26.6c0-5.28,4.12-9.58,9.19-9.58
			s9.19,4.3,9.19,9.58c0,2.64-1.03,5.03-2.7,6.77c-0.18-0.19-0.39-0.34-0.64-0.45l-2.21-1c0,0-0.01-0.02-0.01-0.05v-0.49
			c1.01-0.57,1.71-1.5,2.07-2.77c0.53-0.27,0.86-0.82,0.86-1.42v-0.6c0-0.5-0.24-0.99-0.63-1.31c-0.32-2.29-1.84-3.57-4.64-3.89
			c-0.14-0.02-0.28-0.03-0.41-0.03c-0.63-0.02-1.57-0.19-2.43-0.84c-0.34-0.25-0.6-0.5-0.77-0.73c-0.17-0.22-0.47-0.31-0.74-0.22
			c-0.26,0.08-0.42,0.31-0.39,0.57c0.04,0.3,0.09,0.6,0.15,0.89c0.17,0.8,0.15,0.82-0.08,1.26c-0.08,0.14-0.17,0.32-0.28,0.56
			c-0.26,0.56-0.44,1.19-0.54,1.88c-0.55,0.32-0.88,0.87-0.88,1.47v0.72c0,0.72,0.48,1.38,1.2,1.68c0.47,1.45,1.34,2.46,2.59,3v0.51
			c0,0.05-0.03,0.11-0.08,0.13l-2.93,1.56c-0.33,0.19-0.62,0.44-0.87,0.73C20.2,32.79,18.6,29.89,18.6,26.6z M29.35,36.04
			c-0.24,0.04-0.48,0.08-0.72,0.1c-0.03,0-0.07,0-0.1,0.01c-0.24,0.02-0.49,0.03-0.74,0.03c-0.18,0-0.36-0.01-0.54-0.02
			c-0.05,0-0.09-0.01-0.14-0.01c-0.14-0.01-0.27-0.02-0.41-0.04c-0.05-0.01-0.09-0.01-0.13-0.02c-0.15-0.02-0.3-0.04-0.45-0.07
			c-0.03,0-0.05-0.01-0.08-0.01c-0.55-0.11-1.09-0.27-1.61-0.49c-0.01,0-0.02-0.01-0.03-0.01c-0.35-0.14-0.69-0.31-1.02-0.5
			c0.18-0.2,0.38-0.37,0.61-0.51l2.91-1.55c0.33-0.18,0.54-0.5,0.54-0.84v-1.06l-0.29-0.11c-1.17-0.43-1.98-1.35-2.39-2.76
			l-0.07-0.22l-0.25-0.07c-0.47-0.13-0.79-0.54-0.79-0.98v-0.72c0-0.37,0.22-0.69,0.58-0.84l0.24-0.1l0.03-0.23
			c0.08-0.69,0.25-1.31,0.5-1.86c0.1-0.22,0.19-0.39,0.26-0.52c0.31-0.57,0.36-0.77,0.18-1.64c0.06,0.05,0.12,0.1,0.18,0.14
			c0.84,0.64,1.88,1,3,1.04c0.11,0,0.22,0.01,0.33,0.03c2.44,0.28,3.63,1.31,3.85,3.32l0.02,0.19l0.18,0.11
			c0.25,0.15,0.41,0.44,0.41,0.75v0.6c0,0.34-0.2,0.65-0.49,0.75L32.69,28l-0.06,0.22c-0.31,1.24-0.94,2.08-1.91,2.55l-0.24,0.12
			v0.98c0,0.34,0.2,0.64,0.51,0.79l2.22,1.01l0,0c0.16,0.07,0.3,0.18,0.41,0.32c-1.23,1.06-2.68,1.76-4.23,2.05
			C29.39,36.03,29.37,36.03,29.35,36.04z"/>
	</g>
</g>
</svg>
