<?xml version="1.0" encoding="utf-8"?>
<!-- Generator: Adobe Illustrator 20.1.0, SVG Export Plug-In . SVG Version: 6.00 Build 0)  -->
<svg version="1.1" id="Capa_1" xmlns="http://www.w3.org/2000/svg" xmlns:xlink="http://www.w3.org/1999/xlink" x="0px" y="0px"
	 viewBox="0 0 37 30.42" style="enable-background:new 0 0 37 30.42;" xml:space="preserve">
<style type="text/css">
	.st0{fill:#1E1348;}
	.st1{fill:#B00D23;stroke:#DFD5C5;stroke-miterlimit:10;}
	.st2{fill:none;stroke:#007EA3;stroke-miterlimit:10;}
	.st3{fill:none;stroke:#00549F;stroke-width:2;stroke-miterlimit:10;}
	.st4{fill:#B00D23;}
	.st5{fill:#FFFFFF;}
	.st6{fill:#B00D23;stroke:#FFFFFF;stroke-miterlimit:10;}
	.st7{fill:#1E1348;stroke:#1E1348;stroke-miterlimit:10;}
	.st8{fill:#1E1348;stroke:#FFFFFF;stroke-width:1.5;stroke-miterlimit:10;}
	.st9{fill:none;}
	.st10{fill:#C0212E;}
	.st11{fill:none;stroke:#1E1348;stroke-width:2;stroke-miterlimit:10;}
</style>
<rect x="-926.5" y="-884.25" class="st9" width="1609" height="2040"/>
<rect x="-1192.5" y="-294.25" class="st9" width="1609" height="2040"/>
<g>
	<path class="st5" d="M17.49,6.91l-2.14,6.24c-0.07,0.21-0.24,0.36-0.43,0.38L3.95,14.68c-0.27,0.03-0.47,0.3-0.47,0.63l0.22,10.32
		c0.01,0.28,0.17,0.53,0.41,0.58l12.91,3.26c0.32,0.08,0.64,0.12,0.96,0.12l0-3.06V7.02C17.98,6.17,17.76,6.12,17.49,6.91z
		 M15.99,26.16l-4.85-0.94v-3.05h4.85V26.16z M13.87,12.04L0.94,13.61c-0.39,0.05-0.68-0.44-0.51-0.87l3.44-8.82
		c0.07-0.18,0.21-0.31,0.37-0.34l14.2-3.13l-4.16,11.23C14.21,11.88,14.05,12.02,13.87,12.04z M33.03,14.68l-10.97-1.16
		c-0.19-0.02-0.36-0.17-0.43-0.38l-2.14-6.24C19.22,6.12,19,6.17,19,7.02v19.51l0,3.06c0.32,0,0.64-0.04,0.96-0.12l12.91-3.26
		c0.23-0.06,0.4-0.3,0.41-0.58l0.22-10.32C33.51,14.98,33.3,14.71,33.03,14.68z M28.52,20.2l-0.61,0.02l-0.01,4.57
		c0,0.2-0.17,0.39-0.38,0.43l-0.99,0.17c-0.23,0.04-0.41-0.1-0.41-0.31l0.01-4.8l-0.69,0.02c-0.34,0.01-0.55-0.31-0.38-0.58
		l1.65-2.57c0.16-0.24,0.54-0.22,0.69,0.04l1.45,2.47C28.97,19.88,28.8,20.19,28.52,20.2z M36.04,13.61l-12.92-1.57
		c-0.18-0.02-0.34-0.16-0.42-0.36L18.54,0.45l14.2,3.13c0.16,0.04,0.3,0.16,0.37,0.34l3.44,8.82
		C36.72,13.17,36.43,13.66,36.04,13.61z"/>
</g>
</svg>
