<?xml version="1.0" encoding="utf-8"?>
<!-- Generator: Adobe Illustrator 20.1.0, SVG Export Plug-In . SVG Version: 6.00 Build 0)  -->
<svg version="1.1" id="Layer_1" xmlns="http://www.w3.org/2000/svg" xmlns:xlink="http://www.w3.org/1999/xlink" x="0px" y="0px"
	 viewBox="0 0 36 48" style="enable-background:new 0 0 36 48;" xml:space="preserve">
<style type="text/css">
	.st0{fill:#1E1348;}
	.st1{fill:none;stroke:#1E1348;stroke-width:2;}
	.st2{fill:#B00D23;}
</style>
<title>Page 1</title>
<desc>Created with Sketch.</desc>
<g id="desktop">
	<g id="details-v3" transform="translate(-322.000000, -2061.000000)">
		<g id="Page-1" transform="translate(323.000000, 2061.000000)">
			<path id="Fill-1" class="st0" d="M20.78,3.23V1.61c0-0.89-0.75-1.61-1.66-1.61h-4.99c-0.91,0-1.66,0.73-1.66,1.61v1.61H9.14
				c-0.5,0-0.83,0.32-0.83,0.81v5.64c0,0.48,0.33,0.81,0.83,0.81h14.96c0.5,0,0.83-0.32,0.83-0.81V4.03c0-0.48-0.33-0.81-0.83-0.81
				H20.78z"/>
			<path id="Stroke-3" class="st1" d="M24.94,5.64v4.03c0,0.48-0.33,0.81-0.83,0.81H9.14c-0.5,0-0.83-0.4-0.83-0.81V5.64H3.33
				C1.5,5.64,0,7.1,0,8.87v34.68c0,1.77,1.5,3.23,3.33,3.23h26.6c1.83,0,3.33-1.45,3.33-3.23V8.87c0-1.77-1.5-3.23-3.33-3.23H24.94
				L24.94,5.64z"/>
			<polygon id="Fill-5" class="st2" points="10.6,24.34 14.63,28.25 23.46,19.7 26.58,22.73 17.76,31.28 14.63,34.31 11.51,31.28 
				7.48,27.37 			"/>
		</g>
	</g>
</g>
</svg>
