<?xml version="1.0" encoding="utf-8"?>
<!-- Generator: Adobe Illustrator 20.1.0, SVG Export Plug-In . SVG Version: 6.00 Build 0)  -->
<svg version="1.1" id="Capa_1" xmlns="http://www.w3.org/2000/svg" xmlns:xlink="http://www.w3.org/1999/xlink" x="0px" y="0px"
	 viewBox="0 0 35.56 38.92" style="enable-background:new 0 0 35.56 38.92;" xml:space="preserve">
<style type="text/css">
	.st0{fill:#1E1348;}
	.st1{fill:#B00D23;stroke:#DFD5C5;stroke-miterlimit:10;}
	.st2{fill:none;stroke:#007EA3;stroke-miterlimit:10;}
	.st3{fill:none;stroke:#00549F;stroke-width:2;stroke-miterlimit:10;}
	.st4{fill:#B00D23;}
	.st5{fill:#FFFFFF;}
	.st6{fill:#B00D23;stroke:#FFFFFF;stroke-miterlimit:10;}
	.st7{fill:#1E1348;stroke:#1E1348;stroke-miterlimit:10;}
	.st8{fill:#1E1348;stroke:#FFFFFF;stroke-width:1.5;stroke-miterlimit:10;}
	.st9{fill:#DFD5C5;}
	.st10{fill:#FFFFFF;stroke:#1E1348;stroke-miterlimit:10;}
</style>
<path class="st5" d="M26.48,2.95L26.48,2.95h-5.12l0.18,0.83c0.02,0.07,0.02,0.13,0.02,0.19v3.66c0,0.5-0.41,0.91-0.91,0.91H8.08
	c-0.5,0-0.91-0.41-0.91-0.91V3.98c0-0.06,0.01-0.12,0.02-0.19l0.18-0.83H2.25c-0.88,0-1.6,0.72-1.6,1.6v31.99
	c0,0.88,0.72,1.6,1.6,1.6h10.29h3.65h10.29c0.88,0,1.6-0.72,1.6-1.6V4.55C28.08,3.67,27.36,2.95,26.48,2.95z"/>
<path class="st5" d="M8.03,6.89V3.67c0-0.44,0.36-0.8,0.8-0.8h2.99c0-1.33,1.13-2.41,2.53-2.41c1.4,0,2.53,1.08,2.53,2.41h3.02
	c0.45,0,0.8,0.36,0.8,0.8v3.22c0,0.44-0.36,0.8-0.8,0.8H8.83C8.39,7.69,8.03,7.33,8.03,6.89z"/>
<rect x="4.37" y="12.78" class="st0" width="20.99" height="2.28"/>
<rect x="14.18" y="25.11" class="st5" width="10.83" height="1.43"/>
<polygon class="st10" points="19.82,25.44 23.58,29.2 31.82,20.96 34.74,23.88 26.5,32.12 23.58,35.03 20.66,32.12 16.9,28.35 "/>
<rect x="4.37" y="18.69" class="st0" width="20.99" height="2.28"/>
</svg>
