<?xml version="1.0" encoding="utf-8"?>
<!-- Generator: Adobe Illustrator 20.1.0, SVG Export Plug-In . SVG Version: 6.00 Build 0)  -->
<svg version="1.1" id="Capa_1" xmlns="http://www.w3.org/2000/svg" xmlns:xlink="http://www.w3.org/1999/xlink" x="0px" y="0px"
	 viewBox="0 0 43.17 42.83" style="enable-background:new 0 0 43.17 42.83;" xml:space="preserve">
<style type="text/css">
	.st0{fill:#1E1348;}
	.st1{fill:#B00D23;stroke:#DFD5C5;stroke-miterlimit:10;}
	.st2{fill:none;stroke:#007EA3;stroke-miterlimit:10;}
	.st3{fill:none;stroke:#00549F;stroke-width:2;stroke-miterlimit:10;}
	.st4{fill:#B00D23;}
	.st5{fill:#FFFFFF;}
	.st6{fill:#B00D23;stroke:#FFFFFF;stroke-miterlimit:10;}
	.st7{fill:#1E1348;stroke:#1E1348;stroke-miterlimit:10;}
	.st8{fill:#1E1348;stroke:#FFFFFF;stroke-width:1.5;stroke-miterlimit:10;}
	.st9{fill:#DFD5C5;}
</style>
<g>
	<g>
		<path class="st0" d="M21.58,0.33C9.96,0.33,0.5,9.79,0.5,21.42S9.96,42.5,21.58,42.5c11.63,0,21.09-9.46,21.09-21.08
			C42.67,9.79,33.21,0.33,21.58,0.33z M17.53,7.88l0.99,0.28v-1.3L18.9,6.5l0.41,0.8l0.78,0.95l-0.32,0.43l-1.26,0.29V8.2
			l-0.99,0.77l-0.29-0.44L17.53,7.88z M2.34,20.95c0.1-4.08,1.47-7.84,3.74-10.92c0.08,0.01,0.13,0.03,0.13,0.03
			c0,0.29-0.4,0.36,0,1.09c0.51,0.94,0.07,1.38,0.07,1.38s-1.24,0.87-1.45,1.02c-0.22,0.14-0.8,0.94-0.44,0.72
			c0.36-0.22,0.8-0.43,0.44,0.15C4.47,15,3.82,15.94,3.67,16.3c-0.14,0.36-0.87,1.23-0.87,1.67c0,0.44-0.29,1.31-0.22,1.67
			C2.63,19.9,2.47,20.64,2.34,20.95z M9.84,33.07l-0.29,1.08l0.29,0.87c0,0-0.44,0.36-0.72,0.36c-0.27,0-0.36,0.17-0.65,0.09
			C5.7,32.9,3.69,29.52,2.82,25.7c0.09,0.03,0.23,0.09,0.42,0.26c0.27,0.24,0.44,0.36,0.8,0.51c0.36,0.15,0.51,0.36,0.94,0.58
			c0.44,0.22,0.29,0.07,0.87,0.73c0.58,0.65,0.51,0.65,0.65,1.01c0.14,0.36,0.36,0.73,0.51,0.95c0.15,0.22,0.58,0.36,0.8,0.51
			c0.22,0.15,0.58,0.29,0.8,0.29c0.22,0,0.87,0.65,1.24,0.72c0.36,0.08,0.36,0.8,0.36,0.8L9.84,33.07z M12.75,5.05
			c-0.94,1.02-0.73,0.73-0.94,1.02c-0.22,0.29-0.15,0.36-0.65,0.73c-0.51,0.36-0.72,0.8-0.72,0.8l-0.8,0.29L8.97,7.59
			c0,0-0.58,0.22-0.51-0.07c0.02-0.08,0.05-0.16,0.08-0.24c1.78-1.64,3.86-2.94,6.15-3.83c-0.23,0.29-0.5,0.59-0.5,0.59
			S13.69,4.03,12.75,5.05z M34.89,31.11c-0.08,0.29-0.22,0.8-0.29,1.09s-0.44,0.87-0.65,1.02c-0.22,0.15-0.58,0.58-0.8,0.65
			s-0.36-0.51-0.29-0.8c0.08-0.29,0.44-1.09,0.44-1.09s0.07-0.43,0.15-0.73c0.08-0.29,0.95-0.65,0.95-0.65l0.58-1.09
			c0,0,0.07,0.29,0.07,0.51C35.03,30.24,34.96,30.82,34.89,31.11z M35.1,24.29c-0.15,0.22-0.58,0.8-0.8,1.09s-0.51,0.73-0.94,1.09
			c-0.44,0.36-0.44,0.72-0.65,1.02c-0.22,0.29-0.51,0.94-0.51,0.94s0.15,1.45,0.22,1.74c0.08,0.29-0.51,1.09-0.51,1.09l-0.65,0.65
			l-0.88,1.16l0.07,1.08c0,0-0.66,0.51-1.02,0.8c-0.36,0.29-0.31,0.51-0.59,0.8c-0.29,0.29-1.06,0.8-1.35,0.87
			c-0.29,0.07-1.52,0.29-1.52,0.29v-0.65l-0.4-0.73c0,0-0.4-0.87-0.62-1.16c-0.22-0.29-0.22-0.73-0.58-1.09
			c-0.36-0.36-0.54-0.65-0.61-0.87c-0.07-0.22,0.05-0.87,0.05-0.87s0.28-0.8,0.42-1.09c0.15-0.29,0-0.73-0.15-1.02
			c-0.15-0.29-0.22-1.02-0.22-1.23c0-0.22-0.59-0.58-0.8-0.8c-0.22-0.22-0.15-0.51-0.15-0.8c0-0.29-0.22-0.95-0.15-1.45
			c0.07-0.51-0.65-0.15-1.09,0c-0.44,0.14-0.72-0.15-0.72-0.58c0-0.43-0.8-0.07-1.31,0.22c-0.51,0.29-1.09,0.29-1.67,0.51
			c-0.58,0.22-0.87-0.22-0.87-0.22s-0.51-0.44-0.87-0.65c-0.36-0.22-0.73-0.65-1.02-1.02c-0.29-0.36-1.02-1.46-1.09-1.89
			c-0.07-0.44,0-0.73,0-1.24c0-0.51,0-0.8,0.07-1.16c0.07-0.36,0.29-0.8,0.51-1.16c0.22-0.36,1.02-0.8,1.23-0.94
			c0.22-0.14,0.73-0.58,0.73-0.87c0-0.29,0.29-0.43,0.43-0.73c0.15-0.29,0.65-1.01,1.31-0.72c0,0,0.58-0.07,0.8-0.14
			s0.8-0.29,1.08-0.43c0.29-0.15,1.01-0.21,1.01-0.21s0.57,0.23,0.79,0.23S23.02,14,23.02,14s0.33,1.05,0.33,1.27
			s0.22,0.43,0.58,0.58c0.36,0.14,2.03,0.51,2.76-0.07c0.17-0.13,0.72,0.22,0.72,0.22s1.82,0.36,2.1,0.58
			c0.29,0.22,0.8,0.36,0.95,0.58c0.15,0.22,0.65,0.87,0.72,1.09c0.08,0.22,0.44,1.02,0.51,1.31c0.07,0.29,0.29,1.02,0.51,1.38
			c0.22,0.36,1.45,1.96,1.89,2.69l1.31-0.22C35.39,23.42,35.25,24.07,35.1,24.29z M40.4,21.53c-0.07-0.29-0.51-1.31-0.51-1.31
			s-0.44-0.58-0.73-0.73c-0.29-0.15-0.51-0.51-1.02-0.8c-0.51-0.29-0.72-0.44-1.16-0.44c-0.44,0-0.87-0.58-1.38-0.87
			c-0.51-0.29-0.58-0.14-0.58-0.14s0.58,0.87,0.58,1.09s0.65,0.58,1.31,0.43c0,0,0.43,0.8,0.65,1.02s-0.07,0.44-0.51,0.73
			c-0.44,0.29-0.36,0.22-0.58,0.43c-0.22,0.22-0.94,0.58-1.16,0.73c-0.22,0.14-1.09,0.58-1.52,0.14c-0.22-0.21-0.15-0.65-0.29-0.94
			c-0.15-0.29-1.67-2.54-2.39-3.56c-0.13-0.18-0.44-0.73-0.65-0.87c-0.22-0.15,0.51-0.15,0.51-0.15s0-0.51-0.07-0.87
			c-0.07-0.36,0.07-0.87,0.07-0.87s-0.73,0.43-0.95,0.58c-0.22,0.15-0.44-0.29-0.72-0.65c-0.29-0.36-0.58-0.8-0.65-1.16
			c-0.07-0.36,0.36-0.51,0.36-0.51l0.65-0.36c0,0,0.8-0.14,1.31-0.07c0.51,0.07,1.31,0.15,1.31,0.15s0.22-0.51-0.08-0.73
			c-0.29-0.22-0.95-0.58-1.23-0.51c-0.29,0.07,0.14-0.36,0.51-0.65l-0.81-0.15c0,0-0.73,0.36-0.95,0.44
			c-0.22,0.07-0.59,0.22-0.89,0.58c-0.29,0.36,0.12,0.87-0.17,1.02c-0.29,0.15-0.49,0.22-0.7,0.29c-0.22,0.07-0.91,0-0.91,0
			c-0.75,0-0.27,0.68-0.08,0.93l-0.58-0.71l-0.43-1.02c0,0-0.62-0.43-0.91-0.58c-0.29-0.14-1.19-0.65-1.19-0.65l0.06,0.65l0.84,0.85
			l0.08,0.02l0.51,0.58l-0.89,0.07v-0.57c-1.49-0.22-0.75-0.45-0.85-0.52c-0.22-0.14-0.76-0.51-0.76-0.51s-0.88,0.14-1.1,0.22
			c-0.22,0.07-0.29,0.29-0.72,0.43c-0.44,0.15-0.64,0.36-0.78,0.58c-0.14,0.22-0.62,0.87-0.91,1.16c-0.29,0.29-0.84,0.22-1.05,0.22
			c-0.22,0-1.27-0.29-1.27-0.29v-1.23c0,0,0.15-0.69,0.07-0.91l0.64-0.11l1.06-0.22L19.12,11l0.45-0.58c0,0-0.5-0.36-0.14-0.87
			c0.17-0.24,0.8-0.29,1.09-0.51c0.29-0.22,0.73-0.36,0.73-0.36s0.51-0.43,1.02-0.94c0,0,0.36-0.22,0.8-0.36
			c0,0,1.24,1.09,1.45,1.09s1.02-0.51,1.02-0.51s0.22-0.65,0.15-0.87c-0.07-0.22-0.44-0.94-0.44-0.94S25.02,6.5,24.81,6.8
			c-0.22,0.29-0.37,0.65-0.37,0.65s-1.02-0.07-1.09-0.29c-0.07-0.22-0.22-0.58-0.29-0.79c-0.07-0.22-0.65-0.21-1.08-0.07
			c-0.44,0.15,0.07-0.78,0.07-0.78s0.44-0.55,0.73-0.55c0.29,0,0.95-0.37,1.23-0.44c0.29-0.07,1.16-0.63,1.52-0.63
			c0.36,0,0.8-0.07,1.02-0.07c0.22,0,1.08,0,1.08,0l1.52,0.1c0,0,1.31,0.6,0.87,0.89c0,0,0.51,0.37,0.73,0.59
			c0.2,0.21,0.73-0.16,1.03-0.33c5.43,3.41,9.06,9.45,9.06,16.33c0,0.37-0.03,0.74-0.05,1.1C40.66,22.16,40.45,21.72,40.4,21.53z"/>
		<polygon class="st0" points="17.94,8.16 17.94,8.2 17.97,8.17 		"/>
	</g>
</g>
</svg>
