<?xml version="1.0" encoding="utf-8"?>
<!-- Generator: Adobe Illustrator 21.0.2, SVG Export Plug-In . SVG Version: 6.00 Build 0)  -->
<svg version="1.1" id="Layer_1" xmlns="http://www.w3.org/2000/svg" xmlns:xlink="http://www.w3.org/1999/xlink" x="0px" y="0px"
	 width="21px" height="21px" viewBox="0 0 21 21" style="enable-background:new 0 0 21 21;" xml:space="preserve">
<style type="text/css">
	.st0{fill:#1E1348;}
</style>
<g>
	<path class="st0" d="M15.79,12.27h-5.78c-0.14,0-0.26,0.11-0.26,0.25v3.04c0,0.14,0.11,0.26,0.26,0.26h5.78
		c0.14,0,0.26-0.11,0.26-0.26v-3.04C16.05,12.38,15.94,12.27,15.79,12.27L15.79,12.27z M15.79,12.27"/>
	<path class="st0" d="M13.28,17.37h-3.26c-0.14,0-0.26,0.11-0.26,0.26v3.04c0,0.14,0.11,0.26,0.26,0.26h3.26
		c0.14,0,0.26-0.11,0.26-0.26v-3.04C13.54,17.48,13.42,17.37,13.28,17.37L13.28,17.37z M13.28,17.37"/>
	<path class="st0" d="M18,6.19h-7.98c-0.14,0-0.26,0.11-0.26,0.25v3.04c0,0.14,0.11,0.26,0.26,0.26H18c0.14,0,0.26-0.11,0.26-0.26
		V6.45C18.26,6.31,18.14,6.19,18,6.19L18,6.19z M18,6.19"/>
	<g>
		<path class="st0" d="M20.21,0.12H10.02c-0.14,0-0.26,0.11-0.26,0.26v3.04c0,0.14,0.11,0.26,0.26,0.26h10.19
			c0.14,0,0.26-0.11,0.26-0.26V0.38C20.46,0.23,20.35,0.12,20.21,0.12L20.21,0.12z M20.21,0.12"/>
		<path class="st0" d="M8.3,14.26H6.57V0.53c0-0.24-0.19-0.43-0.43-0.43H2.66c-0.24,0-0.43,0.19-0.43,0.43v13.73H0.49
			c-0.17,0-0.32,0.1-0.39,0.25c-0.07,0.15-0.05,0.33,0.05,0.46l3.9,5.82c0.08,0.1,0.21,0.16,0.34,0.16c0.13,0,0.25-0.06,0.34-0.16
			l3.9-5.82c0.1-0.13,0.12-0.31,0.05-0.46C8.62,14.35,8.47,14.26,8.3,14.26L8.3,14.26z M8.3,14.26"/>
	</g>
</g>
<g>
</g>
<g>
</g>
<g>
</g>
<g>
</g>
<g>
</g>
<g>
</g>
<g>
</g>
<g>
</g>
<g>
</g>
<g>
</g>
<g>
</g>
<g>
</g>
<g>
</g>
<g>
</g>
<g>
</g>
</svg>
