<?xml version="1.0" encoding="utf-8"?>
<!-- Generator: Adobe Illustrator 21.0.2, SVG Export Plug-In . SVG Version: 6.00 Build 0)  -->
<svg version="1.1" id="Layer_1" xmlns="http://www.w3.org/2000/svg" xmlns:xlink="http://www.w3.org/1999/xlink" x="0px" y="0px"
	 width="21px" height="21px" viewBox="0 0 21 21" style="enable-background:new 0 0 21 21;" xml:space="preserve">
<style type="text/css">
	.st0{clip-path:url(#SVGID_2_);fill:#1E1348;}
	.st1{fill:#1E1348;}
</style>
<g>
	<g>
		<defs>
			<rect id="SVGID_1_" x="0.08" y="0.11" width="20.85" height="20.85"/>
		</defs>
		<clipPath id="SVGID_2_">
			<use xlink:href="#SVGID_1_"  style="overflow:visible;"/>
		</clipPath>
		<path class="st0" d="M20.34,17.6l-4.78-4.78c-0.71,1.11-1.65,2.05-2.76,2.76l4.78,4.78c0.76,0.76,2,0.76,2.76,0
			C21.11,19.6,21.11,18.37,20.34,17.6L20.34,17.6z M20.34,17.6"/>
	</g>
	<path class="st1" d="M15.71,7.92c0-4.31-3.5-7.81-7.81-7.81c-4.31,0-7.81,3.5-7.81,7.81c0,4.31,3.5,7.81,7.81,7.81
		C12.21,15.73,15.71,12.23,15.71,7.92L15.71,7.92z M7.9,13.78c-3.23,0-5.86-2.63-5.86-5.86c0-3.23,2.63-5.86,5.86-5.86
		c3.23,0,5.86,2.63,5.86,5.86C13.75,11.15,11.13,13.78,7.9,13.78L7.9,13.78z M7.9,13.78"/>
	<path class="st1" d="M3.34,7.92h1.3c0-1.79,1.46-3.25,3.25-3.25v-1.3C5.38,3.36,3.34,5.41,3.34,7.92L3.34,7.92z M3.34,7.92"/>
</g>
<g>
</g>
<g>
</g>
<g>
</g>
<g>
</g>
<g>
</g>
<g>
</g>
<g>
</g>
<g>
</g>
<g>
</g>
<g>
</g>
<g>
</g>
<g>
</g>
<g>
</g>
<g>
</g>
<g>
</g>
</svg>
