<?xml version="1.0" encoding="utf-8"?>
<!-- Generator: Adobe Illustrator 21.0.2, SVG Export Plug-In . SVG Version: 6.00 Build 0)  -->
<svg version="1.1" id="Layer_1" xmlns="http://www.w3.org/2000/svg" xmlns:xlink="http://www.w3.org/1999/xlink" x="0px" y="0px"
	 width="21px" height="21px" viewBox="0 0 21 21" style="enable-background:new 0 0 21 21;" xml:space="preserve">
<style type="text/css">
	.st0{fill:#00549F;}
</style>
<g>
	<path class="st0" d="M10.5,3.82L12.27,8l0.29,0.69l0.75,0.06l4.54,0.39l-3.44,2.98l-0.57,0.49l0.17,0.73l1.03,4.43l-3.9-2.35
		l-0.65-0.39l-0.65,0.39l-3.9,2.35l1.03-4.43l0.17-0.73l-0.57-0.49L3.15,9.15l4.54-0.39l0.75-0.06L8.73,8L10.5,3.82 M10.5,0.61
		l-2.92,6.9L0.09,8.16l5.68,4.92l-1.7,7.31l6.43-3.88l6.43,3.88l-1.7-7.31l5.68-4.92l-7.48-0.65L10.5,0.61L10.5,0.61z"/>
</g>
<g>
</g>
<g>
</g>
<g>
</g>
<g>
</g>
<g>
</g>
<g>
</g>
<g>
</g>
<g>
</g>
<g>
</g>
<g>
</g>
<g>
</g>
<g>
</g>
<g>
</g>
<g>
</g>
<g>
</g>
</svg>
