<?xml version="1.0" encoding="utf-8"?>
<!-- Generator: Adobe Illustrator 21.0.0, SVG Export Plug-In . SVG Version: 6.00 Build 0)  -->
<svg version="1.1" id="Layer_1" xmlns="http://www.w3.org/2000/svg" xmlns:xlink="http://www.w3.org/1999/xlink" x="0px" y="0px"
	 width="35px" height="35px" viewBox="0 0 35 35" style="enable-background:new 0 0 35 35;" xml:space="preserve">
<style type="text/css">
	.st0{fill:#FFFFFF;}
</style>
<g>
	<path class="st0" d="M33.06,13.3c-0.86-0.74-1.95-1.14-3.04-1.14h-1.11h-4h-2.28V6.83c0-2.24-0.65-3.86-1.95-4.8
		c-2.04-1.5-4.86-0.65-4.98-0.6c-0.35,0.11-0.59,0.44-0.59,0.8v5.96c0,1.95-0.93,3.6-2.76,4.91c-1.37,0.98-2.77,1.41-2.91,1.46
		l-0.2,0.05c-0.3-0.51-0.86-0.86-1.5-0.86H2.29c-0.96,0-1.73,0.78-1.73,1.73v16.04c0,0.96,0.78,1.73,1.73,1.73h5.47
		c0.53,0,1.02-0.25,1.33-0.62c0.88,0.93,2.12,1.52,3.47,1.52h4.63h0.48h9.49c3.22,0,5.28-1.69,5.65-4.63l1.89-11.72
		C34.95,16.11,34.33,14.38,33.06,13.3z M7.8,31.52c0,0.03-0.02,0.05-0.05,0.05H2.29c-0.03,0-0.05-0.02-0.05-0.05V15.48
		c0-0.03,0.02-0.05,0.05-0.05h5.47c0.03,0,0.05,0.02,0.05,0.05L7.8,31.52L7.8,31.52z M33.01,17.53l-1.88,11.74
		c0,0.01,0,0.02-0.01,0.04c-0.26,2.1-1.59,3.17-3.97,3.17h-9.49h-0.48h-4.63c-1.5,0-2.79-1.12-3.03-2.59
		c-0.01-0.05-0.02-0.1-0.04-0.15V16.28l0.37-0.08c0.01,0,0.02-0.01,0.04-0.01c0.07-0.02,1.73-0.49,3.41-1.69
		c2.3-1.63,3.5-3.81,3.5-6.31V2.9c0.73-0.12,1.98-0.18,2.89,0.49c0.83,0.61,1.25,1.77,1.25,3.44V13c0,0.46,0.38,0.84,0.84,0.84h3.12
		h4h1.11c0.7,0,1.39,0.26,1.95,0.74C32.79,15.29,33.2,16.42,33.01,17.53z"/>
</g>
<g>
</g>
<g>
</g>
<g>
</g>
<g>
</g>
<g>
</g>
<g>
</g>
<g>
</g>
<g>
</g>
<g>
</g>
<g>
</g>
<g>
</g>
<g>
</g>
<g>
</g>
<g>
</g>
<g>
</g>
</svg>
