<?xml version="1.0" encoding="utf-8"?>
<!-- Generator: Adobe Illustrator 21.0.2, SVG Export Plug-In . SVG Version: 6.00 Build 0)  -->
<svg version="1.1" id="Layer_2" xmlns="http://www.w3.org/2000/svg" xmlns:xlink="http://www.w3.org/1999/xlink" x="0px" y="0px"
	 width="35px" height="35px" viewBox="0 0 35 35" style="enable-background:new 0 0 35 35;" xml:space="preserve">
<style type="text/css">
	.st0{fill:#333333;}
</style>
<g>
	<path class="st0" d="M32.9,13.2c-0.9-0.7-2-1.1-3-1.1h-1.1h-4h-2.3V6.7c0-2.2-0.6-3.9-2-4.8c-2-1.5-4.9-0.6-5-0.6
		C15.2,1.4,15,1.7,15,2.1v6c0,1.9-0.9,3.6-2.8,4.9c-1.4,1-2.8,1.4-2.9,1.5l-0.2,0.1c-0.3-0.5-0.9-0.9-1.5-0.9H2.1
		c-1,0-1.7,0.8-1.7,1.7v16c0,1,0.8,1.7,1.7,1.7h5.5c0.5,0,1-0.2,1.3-0.6c0.9,0.9,2.1,1.5,3.5,1.5H17h0.5H27c3.2,0,5.3-1.7,5.7-4.6
		l1.9-11.7C34.8,16,34.2,14.2,32.9,13.2z M7.6,31.4C7.6,31.4,7.6,31.4,7.6,31.4l-5.5,0c0,0,0,0,0,0v-16c0,0,0-0.1,0-0.1h5.5
		c0,0,0.1,0,0.1,0.1L7.6,31.4L7.6,31.4z M32.9,17.4L31,29.1c0,0,0,0,0,0c-0.3,2.1-1.6,3.2-4,3.2h-9.5H17h-4.6c-1.5,0-2.8-1.1-3-2.6
		c0,0,0-0.1,0-0.1V16.1l0.4-0.1c0,0,0,0,0,0c0.1,0,1.7-0.5,3.4-1.7c2.3-1.6,3.5-3.8,3.5-6.3V2.8c0.7-0.1,2-0.2,2.9,0.5
		c0.8,0.6,1.2,1.8,1.2,3.4v6.2c0,0.5,0.4,0.8,0.8,0.8h3.1h4h1.1c0.7,0,1.4,0.3,2,0.7C32.6,15.1,33,16.3,32.9,17.4z"/>
</g>
</svg>
