<svg viewBox="0 0 397.2 179.1" xmlns="http://www.w3.org/2000/svg"><clipPath id="a"><use/></clipPath><path d="M0 0h4.2v179.1H0z" fill="#ce0e2d"/><g fill="#0b0c0c"><path d="M33.8 92.8c5.5 0 9.8 1.4 12.7 4.2 3 2.8 4.5 7.1 4.5 12.8 0 3-.3 5.7-1 8s-1.7 4.3-3.1 5.9-3.2 2.8-5.4 3.6-4.7 1.2-7.7 1.2H21.6V92.8zm.4 31.7c.5 0 1.2 0 2-.1s1.7-.3 2.5-.6c.9-.3 1.8-.8 2.7-1.4s1.7-1.4 2.4-2.4 1.3-2.3 1.7-3.9.7-3.4.7-5.6-.2-4.1-.6-5.7c-.4-1.7-1.1-3.1-2-4.3-1-1.2-2.2-2.1-3.7-2.7s-3.3-.9-5.6-.9h-8v27.7zm39.9 2.3c-1.9 1.5-4.4 2.2-7.3 2.2-2.1 0-3.9-.3-5.4-1s-2.8-1.6-3.8-2.8-1.8-2.6-2.3-4.3-.8-3.5-.9-5.5c0-2 .3-3.8.9-5.4s1.4-3.1 2.5-4.3 2.4-2.1 3.8-2.8c1.5-.7 3.1-1 4.9-1 2.3 0 4.2.5 5.7 1.4s2.7 2.2 3.7 3.6c.9 1.5 1.6 3.1 1.9 4.8s.5 3.4.4 5H58.9c0 1.1.1 2.2.4 3.2s.8 1.9 1.5 2.7 1.5 1.4 2.5 1.9 2.2.7 3.7.7c1.8 0 3.3-.4 4.4-1.2s1.9-2.1 2.3-3.8h4.2c-.6 3-1.9 5.2-3.8 6.6zm-1-16.6c-.4-.9-.9-1.7-1.6-2.3s-1.4-1.2-2.3-1.6-1.9-.6-2.9-.6-2.1.2-3 .6-1.6.9-2.3 1.6c-.6.7-1.1 1.4-1.5 2.3s-.6 1.8-.7 2.8h14.9c0-.9-.2-1.9-.6-2.8zm13.6-7.6v3.5h.1c.7-1.4 1.8-2.5 3.3-3.1 1.5-.7 3.2-1 5-1 2 0 3.8.4 5.2 1.1 1.5.7 2.7 1.7 3.7 3 1 1.2 1.7 2.7 2.2 4.3s.8 3.4.8 5.2-.2 3.6-.7 5.2-1.2 3.1-2.2 4.3-2.2 2.2-3.7 2.9-3.2 1.1-5.2 1.1c-.6 0-1.3-.1-2.1-.2s-1.6-.4-2.3-.6c-.8-.3-1.5-.7-2.2-1.2s-1.3-1.2-1.7-1.9h-.1v13.3h-4.3v-35.8zm15.3 9.2c-.3-1.2-.8-2.2-1.4-3.1s-1.5-1.6-2.5-2.2c-1-.5-2.2-.8-3.6-.8s-2.7.3-3.7.8-1.8 1.3-2.4 2.2-1.1 2-1.4 3.1c-.3 1.2-.4 2.3-.4 3.6s.2 2.5.4 3.7.8 2.2 1.4 3.1 1.5 1.6 2.5 2.2 2.3.8 3.8.8 2.7-.3 3.7-.8 1.8-1.3 2.4-2.2 1-2 1.3-3.2.4-2.4.4-3.7c0-1.1-.2-2.3-.5-3.5zm32.2 16.6c-.7.4-1.8.6-3.1.6-1.1 0-2-.3-2.6-.9-.7-.6-1-1.6-1-3-1.2 1.4-2.5 2.4-4.1 3s-3.2.9-5 .9c-1.2 0-2.3-.1-3.3-.4-1.1-.3-2-.7-2.7-1.2-.8-.6-1.4-1.3-1.8-2.2s-.7-2-.7-3.3c0-1.5.2-2.7.8-3.6s1.2-1.7 2-2.3 1.8-1 2.8-1.3 2.1-.6 3.2-.8c1.2-.2 2.3-.4 3.3-.5 1.1-.1 2-.3 2.8-.5s1.4-.5 1.9-.9.7-1 .7-1.8c0-.9-.2-1.7-.5-2.2s-.8-1-1.3-1.3c-.6-.3-1.2-.5-1.8-.6s-1.4-.2-2-.2c-1.8 0-3.3.3-4.5 1s-1.8 2-1.9 3.9h-4.3c.1-1.6.4-2.9 1-4.1.6-1.1 1.4-2 2.4-2.7s2.1-1.2 3.4-1.5 2.7-.4 4.1-.4c1.2 0 2.3.1 3.5.2s2.2.5 3.1 1 1.7 1.2 2.2 2.2c.6.9.9 2.2.9 3.7v13.3c0 1 .1 1.7.2 2.2s.5.7 1.2.7c.4 0 .8-.1 1.3-.2zm-6.9-13.3c-.5.4-1.2.7-2.1.9s-1.8.3-2.7.4-1.9.2-2.9.4-1.8.4-2.6.7-1.4.8-1.9 1.4-.7 1.4-.7 2.5c0 .7.1 1.3.4 1.8s.7.9 1.1 1.2 1 .5 1.6.7c.6.1 1.2.2 1.9.2 1.4 0 2.6-.2 3.6-.6s1.8-.9 2.4-1.4 1.1-1.2 1.4-1.9.4-1.3.4-1.9zm14.4-12.5v5.5h.1c1-2.1 2.3-3.7 3.8-4.7s3.4-1.5 5.7-1.4v4.5c-1.7 0-3.1.2-4.4.7-1.2.5-2.2 1.2-2.9 2.1s-1.3 2-1.6 3.3-.5 2.8-.5 4.4v11.5h-4.3v-25.9zm24.9 0v3.8h-5.2v16.1c0 .5 0 .9.1 1.2s.2.5.5.7c.2.2.6.3 1 .3s1 .1 1.6.1h1.9v3.8h-3.2c-1.1 0-2-.1-2.8-.2s-1.4-.4-1.9-.8-.8-1-1.1-1.7c-.2-.7-.4-1.7-.4-2.9v-16.5h-4.4v-3.8h4.4v-7.8h4.3v7.8h5.2zm7.8 0v3.8h.1c1.9-2.9 4.7-4.4 8.4-4.4 1.6 0 3.1.3 4.4 1s2.2 1.8 2.8 3.4c.9-1.4 2-2.5 3.4-3.2 1.4-.8 3-1.2 4.7-1.2 1.3 0 2.5.1 3.5.4 1.1.3 1.9.7 2.7 1.3s1.3 1.4 1.8 2.3c.4.9.6 2.1.6 3.4v19h-4.3v-17c0-.8-.1-1.6-.2-2.2-.1-.7-.4-1.3-.8-1.8s-.9-.9-1.5-1.2-1.5-.4-2.5-.4c-2.1 0-3.8.6-5 1.8s-1.8 2.8-1.8 4.8v16.1h-4.3v-17c0-.8-.1-1.6-.2-2.3s-.4-1.3-.8-1.8-.9-.9-1.5-1.2-1.4-.4-2.4-.4c-1.2 0-2.3.2-3.2.8-.9.5-1.6 1.1-2.1 1.8s-.9 1.4-1.2 2.2-.4 1.4-.4 1.9v16.1h-4.3v-25.9zm56.4 24.2c-1.9 1.5-4.4 2.2-7.3 2.2-2.1 0-3.9-.3-5.4-1s-2.8-1.6-3.8-2.8-1.8-2.6-2.3-4.3-.8-3.5-.9-5.5c0-2 .3-3.8.9-5.4s1.4-3.1 2.5-4.3 2.4-2.1 3.9-2.8 3.1-1 4.9-1c2.3 0 4.2.5 5.7 1.4s2.7 2.2 3.6 3.6c.9 1.5 1.6 3.1 1.9 4.8.4 1.7.5 3.4.4 5h-19.4c0 1.1.1 2.2.4 3.2s.8 1.9 1.4 2.7 1.5 1.4 2.6 1.9c1 .5 2.2.7 3.6.7 1.8 0 3.3-.4 4.4-1.2s1.9-2.1 2.3-3.8h4.2c-.4 3-1.7 5.2-3.6 6.6zm-1-16.6c-.4-.9-.9-1.7-1.6-2.3-.6-.7-1.4-1.2-2.3-1.6s-1.9-.6-2.9-.6-2.1.2-3 .6-1.6.9-2.3 1.6c-.6.7-1.1 1.4-1.5 2.3s-.6 1.8-.6 2.8h14.9c-.1-.9-.3-1.9-.7-2.8zm13.3-7.6v4.1h.1c1.8-3.1 4.6-4.7 8.4-4.7 1.7 0 3.1.2 4.3.7 1.1.5 2 1.1 2.8 1.9.7.8 1.2 1.8 1.5 3s.4 2.4.4 3.8v17h-4.3V111c0-1.6-.5-2.9-1.4-3.8s-2.2-1.4-3.9-1.4c-1.3 0-2.4.2-3.4.6-.9.4-1.7 1-2.4 1.7-.6.7-1.1 1.6-1.4 2.6s-.5 2.1-.5 3.2v14.6H239v-25.9zm33.9 0v3.8h-5.2v16.1c0 .5 0 .9.1 1.2s.2.5.5.7c.2.2.6.3 1 .3s1 .1 1.6.1h2v3.8h-3.2c-1.1 0-2-.1-2.8-.2s-1.4-.4-1.9-.8-.8-1-1.1-1.7c-.2-.7-.4-1.7-.4-2.9v-16.5h-4.4v-3.8h4.4v-7.8h4.3v7.8h5.1zm16 3.8v-3.8h4.4v-3.8c0-2.1.6-3.7 1.8-4.8s3-1.6 5.3-1.6c.4 0 .9 0 1.4.1s1 .2 1.4.3v3.7l-1.2-.3c-.4-.1-.8-.1-1.2-.1-1 0-1.8.2-2.4.6s-.9 1.2-.9 2.3v3.6h5v3.8h-5v22.1h-4.3v-22.1zm15.7 3.9c.5-1.7 1.3-3.1 2.4-4.3s2.4-2.2 4-2.9 3.4-1.1 5.4-1.1 3.9.3 5.4 1.1c1.5.7 2.9 1.7 3.9 2.9 1.1 1.2 1.9 2.7 2.4 4.3.5 1.7.8 3.4.8 5.3s-.3 3.7-.8 5.3-1.3 3.1-2.4 4.3-2.4 2.2-3.9 2.8c-1.5.7-3.4 1-5.4 1s-3.8-.3-5.4-1-2.9-1.6-4-2.8-1.9-2.7-2.4-4.3-.8-3.4-.8-5.3.2-3.7.8-5.3zm4.3 9.5c.4 1.2 1 2.2 1.7 3.1.7.8 1.6 1.4 2.6 1.9 1 .4 2 .7 3.1.7s2.1-.2 3.1-.7c1-.4 1.8-1.1 2.6-1.9.7-.8 1.3-1.8 1.7-3.1s.6-2.6.6-4.2-.2-3-.6-4.2-1-2.2-1.7-3.1c-.7-.8-1.6-1.5-2.6-1.9s-2-.7-3.1-.7-2.1.2-3.1.7-1.8 1.1-2.6 1.9c-.7.8-1.3 1.9-1.7 3.1s-.6 2.6-.6 4.2.2 3 .6 4.2zm28.4-17.2v5.5h.1c1-2.1 2.3-3.7 3.8-4.7s3.4-1.5 5.7-1.4v4.5c-1.7 0-3.1.2-4.4.7-1.2.5-2.2 1.2-2.9 2.1s-1.3 2-1.6 3.3-.5 2.8-.5 4.4v11.5h-4.3v-25.9zM34.5 142.8H37c.9 0 1.8.1 2.6.1.9.1 1.7.2 2.4.4s1.4.4 1.9.8c1.2.7 2.2 1.7 3 2.9s1.2 2.8 1.2 4.6c0 1.9-.5 3.6-1.4 4.9-.9 1.4-2.2 2.4-3.9 3.1v.1c2.2.5 3.9 1.5 5.1 3s1.8 3.4 1.8 5.6c0 1.3-.2 2.6-.7 3.8s-1.2 2.3-2.1 3.3-2 1.7-3.4 2.3c-1.3.6-2.9.9-4.7.9H21.6v-35.8zm1.3 15.4c2.7 0 4.7-.5 5.8-1.4 1.2-.9 1.8-2.4 1.8-4.3 0-1.3-.2-2.3-.6-3s-1-1.3-1.7-1.7-1.5-.7-2.4-.8-1.9-.2-2.9-.2h-9.5v11.4zm2.4 16.4c2.1 0 3.8-.6 4.9-1.7 1.2-1.1 1.8-2.7 1.8-4.7 0-1.2-.2-2.1-.7-2.9-.4-.8-1-1.4-1.7-1.8s-1.5-.8-2.5-.9c-.9-.2-1.9-.3-2.9-.3H26.3v12.4h11.9zm33.7 4v-4.1h-.1c-.9 1.6-2.1 2.8-3.4 3.5s-3.1 1.1-5 1.1c-1.7 0-3.1-.2-4.3-.7-1.1-.4-2-1.1-2.8-1.9-.7-.8-1.2-1.8-1.5-3-.3-1.1-.4-2.4-.4-3.8v-17h4.3v17.5c0 1.6.5 2.9 1.4 3.8s2.2 1.4 3.8 1.4c1.3 0 2.4-.2 3.4-.6.9-.4 1.7-1 2.4-1.7.6-.7 1.1-1.6 1.4-2.6s.5-2.1.5-3.2v-14.6h4.3v25.9zm13.2-5.8c.4.6.9 1.2 1.6 1.6s1.4.7 2.2.8 1.7.2 2.5.2c.7 0 1.4-.1 2.1-.1.7-.1 1.4-.3 2-.6s1.1-.7 1.5-1.2.6-1.2.6-2c0-1.1-.4-1.9-1.2-2.5s-1.9-1-3.1-1.4-2.6-.7-4.1-.9-2.8-.7-4.1-1.2-2.3-1.2-3.1-2.2c-.8-.9-1.2-2.2-1.2-3.9 0-1.3.3-2.4.9-3.4.6-.9 1.3-1.7 2.2-2.3s1.9-1 3.1-1.3 2.3-.4 3.4-.4c1.5 0 2.8.1 4.1.4 1.2.2 2.3.7 3.3 1.3s1.7 1.4 2.3 2.5.9 2.4 1 3.9h-4.3c-.1-.8-.3-1.5-.7-2.1s-.8-1-1.4-1.3-1.2-.6-1.9-.7-1.4-.2-2.1-.2c-.6 0-1.3.1-1.9.1s-1.2.3-1.8.5c-.5.2-1 .6-1.3 1s-.5 1-.5 1.6c0 .7.3 1.3.8 1.8s1.2.9 2 1.2 1.7.6 2.7.8 2 .4 3 .7c1.1.2 2.1.5 3.1.9s1.9.8 2.7 1.3 1.4 1.2 1.9 2.1c.5.8.7 1.9.7 3.1 0 1.6-.3 2.9-1 3.9s-1.5 1.9-2.6 2.5-2.2 1.1-3.6 1.3c-1.3.2-2.6.4-3.9.4-1.4 0-2.8-.1-4.1-.4s-2.4-.8-3.4-1.5-1.8-1.6-2.4-2.7-.9-2.5-1-4.1h4.3c.1 1.1.3 1.9.7 2.5zm21.5-24.8v-5.2h4.3v5.2zm4.2 4.7v25.9h-4.3v-25.9zm9.9 0v4.1h.1c1.8-3.1 4.6-4.7 8.4-4.7 1.7 0 3.1.2 4.3.7 1.1.5 2.1 1.1 2.8 1.9s1.2 1.8 1.5 3c.3 1.1.4 2.4.4 3.8v17h-4.3V161c0-1.6-.5-2.9-1.4-3.8s-2.2-1.4-3.9-1.4c-1.3 0-2.4.2-3.4.6-.9.4-1.7 1-2.4 1.7-.6.7-1.1 1.6-1.4 2.6s-.5 2.1-.5 3.2v14.6h-4.3v-25.9zm41.4 24.2c-1.9 1.5-4.4 2.2-7.3 2.2-2.1 0-3.9-.3-5.4-1s-2.8-1.6-3.8-2.8-1.8-2.6-2.3-4.3-.8-3.5-.9-5.5c0-2 .3-3.8.9-5.4s1.4-3.1 2.5-4.3 2.4-2.1 3.9-2.8 3.1-1 4.9-1c2.3 0 4.2.5 5.7 1.4s2.7 2.2 3.6 3.6c.9 1.5 1.6 3.1 1.9 4.8.4 1.7.5 3.4.4 5h-19.4c0 1.1.1 2.2.4 3.2s.8 1.9 1.4 2.7 1.5 1.4 2.6 1.9 2.2.7 3.6.7c1.8 0 3.3-.4 4.4-1.2s1.9-2.1 2.3-3.8h4.2c-.4 3-1.7 5.2-3.6 6.6zm-1-16.6c-.4-.9-.9-1.7-1.6-2.3-.6-.6-1.4-1.2-2.3-1.6s-1.9-.6-2.9-.6-2.1.2-3 .6-1.6.9-2.3 1.6c-.6.7-1.1 1.4-1.5 2.3s-.6 1.8-.6 2.8h14.9c-.1-.9-.3-1.9-.7-2.8zm12.6 12.5c.4.6.9 1.2 1.6 1.6s1.4.7 2.2.8c.8.2 1.7.2 2.5.2.7 0 1.4-.1 2.1-.1.7-.1 1.4-.3 2-.6s1.1-.7 1.5-1.2.6-1.2.6-2c0-1.1-.4-1.9-1.2-2.5s-1.9-1-3.1-1.4-2.6-.7-4.1-.9-2.8-.7-4.1-1.2-2.3-1.2-3.1-2.2c-.8-.9-1.2-2.2-1.2-3.9 0-1.3.3-2.4.9-3.4.6-.9 1.3-1.7 2.2-2.3s1.9-1 3.1-1.3c1.1-.3 2.3-.4 3.4-.4 1.5 0 2.8.1 4.1.4 1.2.2 2.3.7 3.3 1.3s1.7 1.4 2.3 2.5.9 2.4 1 3.9h-4.3c-.1-.8-.3-1.5-.6-2.1s-.8-1-1.4-1.3-1.2-.6-1.9-.7-1.4-.2-2.1-.2c-.6 0-1.3.1-1.9.1s-1.2.3-1.8.5c-.5.2-1 .6-1.3 1s-.5 1-.5 1.6c0 .7.3 1.3.8 1.8s1.2.9 2 1.2 1.7.6 2.7.8 2 .4 3 .7c1.1.2 2.1.5 3.1.9s1.9.8 2.7 1.3 1.4 1.2 1.9 2.1c.5.8.7 1.9.7 3.1 0 1.6-.3 2.9-1 3.9-.6 1-1.5 1.9-2.6 2.5s-2.2 1.1-3.6 1.3c-1.3.2-2.6.4-3.9.4-1.4 0-2.8-.1-4.1-.4s-2.4-.8-3.4-1.5-1.8-1.6-2.4-2.7-.9-2.5-1-4.1h4.3c0 1.1.2 1.9.6 2.5zm24.8 0c.4.6.9 1.2 1.6 1.6s1.4.7 2.2.8c.8.2 1.7.2 2.5.2.7 0 1.4-.1 2.1-.1.7-.1 1.4-.3 2-.6s1.1-.7 1.5-1.2.6-1.2.6-2c0-1.1-.4-1.9-1.2-2.5s-1.9-1-3.1-1.4-2.6-.7-4.1-.9-2.8-.7-4.1-1.2-2.3-1.2-3.1-2.2c-.8-.9-1.2-2.2-1.2-3.9 0-1.3.3-2.4.9-3.4.6-.9 1.3-1.7 2.2-2.3s1.9-1 3.1-1.3c1.1-.3 2.3-.4 3.4-.4 1.5 0 2.8.1 4.1.4 1.2.2 2.3.7 3.3 1.3s1.7 1.4 2.3 2.5.9 2.4 1 3.9h-4.3c-.1-.8-.3-1.5-.6-2.1s-.8-1-1.4-1.3-1.2-.6-1.9-.7-1.4-.2-2.1-.2c-.6 0-1.3.1-1.9.1s-1.2.3-1.8.5c-.5.2-1 .6-1.3 1s-.5 1-.5 1.6c0 .7.3 1.3.8 1.8s1.2.9 2 1.2 1.7.6 2.7.8 2 .4 3 .7c1.1.2 2.1.5 3.1.9s1.9.8 2.7 1.3 1.4 1.2 1.9 2.1c.5.8.7 1.9.7 3.1 0 1.6-.3 2.9-1 3.9-.6 1-1.5 1.9-2.6 2.5s-2.2 1.1-3.6 1.3c-1.3.2-2.6.4-3.9.4-1.4 0-2.8-.1-4.1-.4s-2.4-.8-3.4-1.5-1.8-1.6-2.4-2.7-.9-2.5-1-4.1h4.3c0 1.1.2 1.9.6 2.5zm51 5.1c-1.9.8-3.8 1.2-5.7 1.2-2.4 0-4.3-.4-5.8-1.1s-2.6-1.6-3.4-2.6-1.3-2.1-1.6-3.2c-.2-1.1-.4-2-.4-2.8 0-1.4.2-2.6.7-3.7s1.1-2 1.8-2.9 1.6-1.6 2.6-2.3 2.1-1.3 3.2-1.9c-.5-.7-1-1.4-1.4-2s-.9-1.3-1.3-1.9-.7-1.3-.9-2.1-.3-1.5-.3-2.4c0-1 .2-1.9.5-2.8.4-.9.9-1.7 1.6-2.4s1.5-1.2 2.5-1.6 2.1-.6 3.4-.6c1.1 0 2.2.1 3.2.4s2 .8 2.8 1.4 1.4 1.4 1.9 2.3.7 2 .7 3.2c0 1.1-.2 2.1-.6 3s-.9 1.8-1.5 2.5-1.4 1.5-2.1 2.1c-.8.6-1.6 1.2-2.5 1.7l6.5 7.9c.7-1.9 1.1-3.7 1.1-5.6h4.1c-.1 1.1-.2 2-.3 2.7s-.3 1.4-.5 2.1c-.2.6-.4 1.3-.7 1.9s-.6 1.3-1 2.1l7 8.1h-5.6l-3.8-4.5c-.9 1.7-2.3 3-4.2 3.8zm-8.5-15.1c-.8.5-1.4 1.1-2 1.7s-1 1.3-1.4 2.1c-.3.8-.5 1.7-.5 2.8 0 .9.2 1.7.6 2.5s.9 1.4 1.5 1.9 1.4.9 2.2 1.2 1.7.4 2.5.4c1.6 0 3.1-.4 4.4-1.1 1.3-.8 2.4-1.8 3.2-3.1l-8.2-9.9c-.8.5-1.6 1-2.3 1.5zm5.4-7.3c.6-.4 1.1-.9 1.6-1.4s.9-1.1 1.1-1.7c.3-.6.4-1.3.4-2.1 0-1-.4-1.9-1.1-2.7s-1.7-1.1-3-1.1c-1 0-1.9.3-2.8.9s-1.3 1.6-1.3 2.9c0 .5.1 1.1.3 1.6s.5 1.1.8 1.6.7 1 1.1 1.5l1.2 1.5c.6-.2 1.1-.6 1.7-1zm30.1-8.7v-4h28.6v4h-11.9v31.7h-4.8v-31.7zm30.7 5.9v5.5h.1c1-2.1 2.3-3.7 3.8-4.7s3.4-1.5 5.7-1.4v4.5c-1.7 0-3.1.2-4.4.7-1.2.5-2.2 1.1-2.9 2.1-.7.9-1.3 2-1.6 3.3s-.5 2.8-.5 4.4v11.5h-4.3v-25.9zm35.3 25.8c-.7.4-1.8.6-3 .6-1.1 0-2-.3-2.6-.9s-1-1.6-1-3c-1.2 1.4-2.5 2.4-4.1 3s-3.2.9-5 .9c-1.2 0-2.3-.1-3.3-.4s-2-.7-2.7-1.2c-.8-.6-1.4-1.3-1.8-2.2-.5-.9-.7-2-.7-3.3 0-1.5.2-2.7.8-3.6.5-.9 1.2-1.7 2-2.3s1.8-1 2.8-1.3 2.1-.6 3.2-.8c1.2-.2 2.3-.4 3.3-.5s2-.3 2.8-.5 1.4-.5 1.9-.9.7-1 .7-1.8c0-.9-.2-1.7-.5-2.2s-.8-1-1.4-1.3c-.5-.3-1.2-.5-1.9-.6s-1.4-.1-2-.1c-1.8 0-3.3.3-4.5 1s-1.9 2-2 3.9h-4.3c.1-1.6.4-2.9 1-4.1s1.4-2 2.4-2.7 2.1-1.2 3.4-1.5 2.7-.4 4.1-.4c1.2 0 2.3.1 3.5.2 1.1.2 2.2.5 3.1 1s1.7 1.2 2.2 2.2c.6.9.9 2.1.9 3.6v13.3c0 1 .1 1.7.2 2.2s.5.7 1.2.7c.4 0 .8-.1 1.3-.2zm-6.9-13.3c-.5.4-1.2.7-2.1.9s-1.8.3-2.7.4-1.9.2-2.9.4-1.8.4-2.6.7-1.4.8-1.9 1.4-.7 1.4-.7 2.5c0 .7.1 1.3.4 1.8s.6.9 1.1 1.2 1 .5 1.6.6 1.2.2 1.9.2c1.4 0 2.6-.2 3.6-.6s1.8-.9 2.5-1.4 1.1-1.2 1.4-1.9.5-1.3.5-1.9zm29 13.4v-3.5h-.1c-.7 1.4-1.8 2.5-3.3 3.1s-3.1.9-5 .9c-2 0-3.8-.4-5.2-1.1-1.5-.7-2.7-1.7-3.7-2.9s-1.7-2.7-2.2-4.3-.8-3.4-.8-5.2.2-3.6.7-5.2 1.2-3.1 2.2-4.3 2.2-2.2 3.7-2.9 3.2-1.1 5.2-1.1c.7 0 1.4.1 2.1.2.8.1 1.5.4 2.3.7s1.5.7 2.2 1.2 1.3 1.2 1.7 1.9h.1v-13.3h4.3v35.8zm-15.3-9.2c.3 1.1.8 2.2 1.5 3.1s1.5 1.6 2.5 2.1 2.2.8 3.6.8 2.6-.3 3.7-.9c1-.6 1.8-1.3 2.5-2.2s1.1-2 1.4-3.1c.3-1.2.4-2.4.4-3.6 0-1.3-.1-2.5-.5-3.7-.3-1.2-.8-2.2-1.4-3.1s-1.5-1.6-2.5-2.2-2.3-.8-3.8-.8-2.6.3-3.6.9-1.8 1.3-2.4 2.2-1 2-1.3 3.2-.4 2.4-.4 3.7c-.1 1.3 0 2.4.3 3.6zm43.8 7.5c-1.9 1.5-4.4 2.2-7.3 2.2-2.1 0-3.9-.3-5.4-1s-2.8-1.6-3.8-2.8-1.8-2.6-2.3-4.3-.8-3.5-.9-5.5c0-2 .3-3.8.9-5.4s1.4-3.1 2.5-4.3 2.4-2.1 3.9-2.8 3.1-1 4.9-1c2.3 0 4.2.5 5.7 1.4s2.7 2.2 3.6 3.6c.9 1.5 1.5 3.1 1.9 4.8s.5 3.4.4 5h-19.4c0 1.1.1 2.2.4 3.2s.8 1.9 1.5 2.7 1.5 1.4 2.5 1.9 2.2.7 3.6.7c1.8 0 3.3-.4 4.4-1.2s1.9-2.1 2.3-3.8h4.2c-.5 3-1.7 5.2-3.6 6.6zm-1.1-16.6c-.4-.9-.9-1.7-1.5-2.3s-1.4-1.2-2.3-1.6-1.9-.6-2.9-.6-2.1.2-3 .6-1.6.9-2.3 1.6c-.6.7-1.1 1.4-1.5 2.3s-.6 1.8-.6 2.8h14.9c-.1-.9-.4-1.9-.8-2.8zM64.3 30.2c-.2-.1.1-.4.2-.5s.6-.1.6-.1-.1.3-.1.5-.5.2-.7.1m1.4.8c-.2-.1.1-.4.2-.5s.6-.1.6-.1-.2.2-.2.5c.1.2-.4.2-.6.1m.1-1c-.2-.1.1-.4.2-.5s.6-.1.6-.1-.2.2-.2.5c.1.2-.4.1-.6.1m-1.5 1.2c-.2-.1.1-.4.2-.5s.6-.1.6-.1-.2.2-.2.5c.1.2-.4.2-.6.1m1.5.8c-.2-.1.1-.4.2-.4.1-.1.5-.1.5-.1l-.2.4c0 .2-.4.2-.5.1m-1.4.3c-.2-.1.1-.4.2-.4.1-.1.5-.1.5-.1s-.1.2-.1.4c-.1.2-.5.2-.6.1m2.6-.4c-.2-.1.1-.4.2-.4.1-.1.5-.1.5-.1l-.2.4c.1.2-.3.2-.5.1M65.8 33c-.2-.1.1-.4.2-.4.1-.1.5-.1.5-.1l-.2.4c.1.2-.3.2-.5.1m1.3-.1c-.2-.1.1-.4.2-.4.1-.1.5-.1.5-.1l-.2.4c.1.2-.4.2-.5.1m0-1.9c-.2-.1.1-.4.2-.4.1-.1.5-.1.5-.1l-.2.4c.1.2-.4.1-.5.1"/><path clip-rule="evenodd" d="M34.3 37.2c-.4-.4-.5-1-.4-1.5.2-.8.2-1.3-.2-1.7-.1-.2-.2-.3-.4-.3.2 1 .3 1.9-.4 2.7.1-.3-.3-.9-.2-1.7 0-.7.3-1.3 0-1.6.2.2.9.3 1.2.3.6.1.8.4 1 .9.1.2.3.3.4.5.1-.3.2-.5.3-.7s0-.5 0-.7c.3 0 .5.7.6.8s.2.2.4.2c.1-.3.1-.5.1-.7 0-.3.2-.6 0-1 .2 0 .4.3.5.5.1.3.1.6.3.7.2-.1.3-.4.4-.5.2-.5.3-.9.3-1.5.3.2.4.2.7.4s.5.8.7.9c.7.5 1.4.8 2.2 1.2.9.4 1.8.7 3.3 1 .6.1 1 .1 1.6 0 .2-.1.8-.1 1-.1s.4.1.8.2c.5.1.7.7.7 1.2-.5.3-1 .4-1.8.5-.6.2-1.2.2-1.7.7-.1.1-.2.3-.5.3 0-.1 0-.2-.1-.3 0-.1-.2-.2-.3-.2-.2.2-.2.6-.5.5 0-.2-.2-.3-.4-.2-.2 0-.3.2-.5.2.1-.2-.2-.5-.4-.6-.1 0-.3.5-.6.5.1-.3-.2-.7-.4-.8-.1.2-.2.7-.6.8.1-.3 0-1-.4-1.1 0 .4-.1.7-.4.9.1-1.1-.8-1.5-1.7-1.7-.3-.1-.3-.1-.7-.2-.2-.1-.4-.1-.6-.1-.1.3.2.8.4 1.1-.5-.1-.8-.2-1-.5-.2-.2-.2-.4-.3-.8-.3.8.1 1 .4 1.5-1.3 0-1.3-1.5-1.3-1.6-.2.2-.2.3-.3.6 0 .3 0 .7.3 1-.2 0-.6-.3-.7-.5-.1-.3-.1-.2-.1-.5 0-.2 0-.9-.1-1.1-.1.2-.2.4-.2.7-.1.8-.5 1.1-.4 1.4m-6.2-8.3c0 .5.2.8.5 1.3.3.6.3 1.5 0 2.2-.1.3-.3.5-.5.9-.3-1.6-.8-3.1 0-4.4m3.6 3.3c0 .3.5.7.6 1.3 0 .4 0 .7-.1 1-.1.4.1.7-.1 1.2-.1.3-.2.6-.2 1-.1-.2-.7-1.2-.5-2.1.2-.7.2-1.1.2-1.8 0-.2 0-.4.1-.6m-1 3.4c-.6-.4-.8-1.4-.6-1.9.4-1 .3-1.1.2-2.1 0-.2 0-.6.2-.9 0 .9.6 1.2.6 2 0 .4 0 1-.2 1.5-.3.7-.3 1.3-.2 1.4M29.3 30c.1.5.3.9.5 1.2.2.4.2 1.2-.1 2-.1.4-.5.8-.5 1.2-.1-.2 0 .1-.2-.6-.2-.9.2-1.3.3-2 0-.4-.1-1.3 0-1.8" fill-rule="evenodd"/><path d="M20.7 39.2s.5-.3.8-1.7c.3-1.3 1.8-2.1 2.3-2.2-.4.5-.8 1.1-1.2 1.9-.6 1-1.5 1.8-1.9 2"/><path d="M28 35.3c-.4-.9-.5-1.3-1.4-1.8-.6-.3-1-.4-1.8-.5-1.1-.2-1.7.1-2.1.3s-.8.5-1.1 1.3c-.3.6-.3 1.2-.2 1.8.1-.7.4-1.3.9-1.8.4-.4.9-.7 1.1-.8.7-.2 1.1 0 1.1 0-.5.1-.8.2-1.2.5-.6.4-1.2 1.2-1.4 1.9 0 0 .6-1 1.5-1.4.8-.4 1.5-.4 2.1-.3-.2.1-.4.2-.7.4-.5.3-.8.9-1.1 1.6-.5 1-.9 1.5-1.3 1.9.3-.1 1.4-.7 1.9-1.4s.8-1.5 1-1.7.6-.4.9-.3.5.3.5.3c.3.3.6.9.5 1.9-.2 1.6-.8 2.9-2.2 5.3-1.4 2.3-2.1 3.1-2.6 4.4-.8 1.7-.6 4 1.2 4.5.9.3 2.1-.2 2.1-.2s.4-.3.4.5l.2-2.9s-.3 1.3-1.4 1.3c-1.1.1-1.5-.2-1.6-1s.4-2.1.7-2.7c.4-.6 2.8-4.7 2.9-4.9s1-1.8 1.2-2.9.3-2.4-.1-3.3"/><path clip-rule="evenodd" d="M25.2 59.8c-.3 1.2-.2 1.7-.2 2.3.1-.2.3-.3.4-.3-.1.4-.2.7-.1 1 .1-.2.3-.3.5-.4-.1.4-.1.6 0 1 .2-.4.3-.7.5-.6l.2.1c.1.1-.2.6-.2.7s.2.4.5.4c-.3 1.1-.5 1.9-.3 2.8.1.3.2.7.7.9-.2-.8-.2-1.4-.1-2 0-.4.3-.8.4-1.2.1-.2.4-.1.5.1.1.4.1 1.2.2 1.5 0 1.3.2 2 1.5 2.6.5.2.9.1 1.2-.1.2-.2.5-.5.3-.8-.3-.5-.2-.5.3-.5.5.1.9-.2 1.1-.7.1-.2.1-.8-.2-.8-1 .1-1.1-.4-1.2-.8s-.1-1.6.3-1.7c.2 0 .3-.3.2-.6-2.8.4-5.3-.7-6.5-2.9m3.5 7.1c-.1-.6-.2-1.1-.2-1.8 0-.5.3-.6.8-.6s.6.2.5.4c-.4.9-.2 1.8.1 2.5-.5.6-1.1 0-1.2-.5" fill-rule="evenodd"/><path d="M31.1 36.5c0 .3.7 1.8 1.2.6.5-1.1 1.5 1.1 3.5 1.1s2.8-.6 3.3-.5c.6.1.9.5.7 1.2-.5 1.4-1.4 2.2-3.5 4.2-.7.9-1.2 1.8-1.3 1.9-.2.4-.2.7 0 .7s.3 0 .5-.2c.4-.5.5-1.1 1.1-1.5.4-.2 2.2-.9 2.2-.9s1-.3 1.5.2.8 2.3.7 3.1-.4 2.2-2 3.4-.9 2.1-.5 2.5 2.5.2 2.5.2.8 0 1.3.8c.2.4.2.9.2.9s-.9.7-1.6.6c-1.2-.1-1.8-.7-2.8-.6h-2.7s-.9-.1-.7-1c.4-1.3.9-2.7.8-3.5-.1-.5-.9-.5-1.3-.3s-.6.3-1.1 0c-.2-.1-.2-.5-.3-.9-.1-.7-.1-1.5.1-2.5.1-.5.1-.4.2-.6.2-.3-.3-.7-.6 0-.5.9-.5 1.7-.5 2.3 0 1.2.7 3.5.6 4.6s-.4 1.8-1.2 2.6-3.4 3.9-3.4 3.9-1 1.2-.4 2.5c.5.9 1.5.8 1.9.8s.6-.2 1.2.3c.5.4.6 1.1.1 1.2-2.5.4-3.6 0-4.9-.8s-1.1-2.9-1.1-2.9 0-1 1.6-2.2c.4-.6.8-1.5.5-2.1-.3-.5-.9-1.6-.9-1.6s-.5-2.4-.5-3.3c.1-1 0-2.4.7-3.9.8-1.5 2.3-3.4 2.9-4.9 1.1-1.5 1.8-3.3 2-5.4"/><path clip-rule="evenodd" d="M33.1 29.6c0 .2 0 .3-.1.4-.4-.1-.7-.5-.8-.8-.6.1-.8-.1-1.3-.4-.3-.2-.6-.7-.8-1.2-.3 0-.8-.3-1-.6-.5-.5-.4-1-.9-1.7-.1 1.2-1 2.1-.4 3.3.2-.5.3-.9.6-1.2 0 .8 0 .9.1 1.5 0 .4.2.8.4.9-.1-.4 0-.6.1-.9.1-.4.3-.5.5-.7.1.2.1.4 0 .6v.8c.1.5.3.8.4 1.1 0-.4 0-.7.1-1s.2-.4.4-.5c.3.6.3.9.3 1.5 0 .5.4.7.5 1.1.2-.5-.2-1.3.5-1.7-.1.7-.1 1.2.1 1.7.1.3.5.6.6 1 .1-.6-.2-1.3.1-2 .3.3.2.6.3.9.1.5.4.7.2 1.2.7-.3.3-1.5.3-2.1 0-.4.1-.4.1-.7.1-.3-.1-.4-.3-.5" fill-rule="evenodd"/><path clip-rule="evenodd" d="M35.1 27.5c0-.1 0-.4.2-.5.2 0 .4.2.5.5s.1.8-.1 1c.7-.4.7-1 .6-1.6-.1-.4-.5-.7-.4-1 .6-.1.7.6.8 1 .2-.3.3-.8.2-1.1s-.5-.5-.3-1c.2 0 .3.2.4.3s.2.4.3.6c.1-.4.1-.8-.1-1.1-.1-.3-.3-.4-.4-.9.3-.1.3.2.6.3 0-.4 0-.5-.3-1 .1-.1.3 0 .5.1 0-.4-.3-.8-.5-1 .1-.1.3 0 .4.1 0-.3-.2-.6-.3-.8-.2-.2-.4-.1-.6-.3s-.5-.5-.5-.8c.2 0 .5 0 .7-.1.4-.2.5-.4.8-.7.2-.4.3-.8-.1-1.2-.3-.3-.7-.4-1.1-.3s-.6.6-1.1.3c-.1.2-.2.3-.2.3-.1.1-.5.1-.8.1s-1.4 0-1.7.1c-.6.1-2.9 1-2.9.4-.1.5-.9-.2-1.6.5-.5.4-.5 1-.4 1.4.2.6.8.8 1.5.6 0 .2-.1.4-.3.6s-.4.3-.6.7c-.1.5-.1 1.5.4 1.9-.1-.5-.1-.8.1-1.1.1-.3.4-.5.5-.5-.1.4-.2 1-.2 1.5s0 .8.3 1.3c0-.6.2-1.3.5-1.4.3.5-.1 1-.1 1.4-.1.5.2.8.5.9-.1-.2 0-.5 0-.7.1-.2.3-1 .7-.8-.4.8-.4 1.3-.2 2 .1.4.5.9.8 1-.2-.3-.4-.8-.4-1.1 0-.5.1-1.1.3-1.2.1.1.3.3.2.7s-.1.6 0 1 .3.6.5.9c-.2-.9 0-1.9.4-2.1 0 .7-.1 1.2.1 1.7.2.4.4.9.4 1.3.2.1.4.2.5.4 0-.1 0-.2.1-.3.1-.5-.3-1.2-.3-1.5.3 0 .5.5.7.9.4-.2.7-.4 1.1-.6-.1-.6-.1-.9-.1-1.1m-.8-2.7c-.1.1-.2.1-.3.2-.1.2-.1.5 0 .7.1.4 0 .6-.3.7-.2 0-.5 0-.6-.3-.2-.4-.2-.6-.1-.9h-.8c-.2 0-.4 0-.5-.1-.2-.2-.4-.6-.1-.8.2-.2.9-.2 1.1-.2-.2-.5-.6-.5-.8-.8-.1-.3-.2-.6-.1-1 0 0-.4.1-.6.1-.4 0-.7-.2-.7-.6 0-.2-.2-.6-.5-.8 0-.1.2-.2.4-.2h1.1c.3-.1.3-.1.5-.3.1.2.2.4.1.8s-.1.9 0 1.2c.1.5.4.6.9.5s.5-.3.5-.6c-.1-.9-.7-1.1-.3-2.1.2.2.6.2 1.1.1.3-.1.6-.3 1-.1-.2.4-.1.5-.2.9-.1.7-.8.8-1.3.8.4.5.4.8.3 1.2-.1.5-.3.4-.3.8.3-.1 1-.5 1.2-.3-.1.4 0 .8-.7 1.1" fill-rule="evenodd"/><path clip-rule="evenodd" d="M38.5 30.4c-.3-.2-.6-1-.5-1.2.4 0 .8.6 1.2 1s1 .5 1.2 1.1c0-.8-.2-1.3-.8-1.7-.3-.2-.7-.5-1-.7h.3c.2 0 .5.2.6.2.3.1.4 0 .7.3.1-.1-.3-.7-.5-.9s-.5-.3-.7-.4c-.4-.1-1-.1-1.4-.3-.3-.1-.4-.2-.8-.5-.2.8-.4 1.1-1 1.6-.2.2-.3.3-.5.2-.1-.1-.1-.2-.1-.3v-.4c-.4.2-.7.5-1.1.6.2.5.1.8 0 1.3-.2.7 0 1.4.1 2 .1.4.9 1.2.9 1.5.1-.4-.3-1.2-.3-1.4 0-.4-.1-.6-.1-1s.1-1.1.2-1.1c.2.1.4.7.4 1.3s.2 1 .5 1.3c.2.2.5.2.5.6.1-.4.1-.6 0-.8-.1-.5 0-.6 0-1.2 0-.3 0-.6-.1-.9s0-.7.1-.8c.2 0 .4.6.4.9s0 .8.2 1.1c.2.4.8.8.7 1.1.3-.9.2-1.7-.1-2.6-.1-.3-.3-.8-.3-1.2.3.1.6 1.1.8 1.5.1.3.1.3.3.5s.4.4.7.6c.5.2.7.6.9 1 0-.2 0-.6-.1-1-.4-.6-.7-.8-1.3-1.3m.9-4.7c-.2-.6-.7-.5-1.1-.8-.1-.1-.3-.4-.4-.5-.1.1-.1.5.1.6.2.2.5.4.8.6.3.3.3.7.8.9-.7.4-1.2-.7-1.6-.5.2.9 1.2.8 1.6 1.5-.5-.2-.8-.1-1.3-.1-.2 0-.6-.1-.8-.2-.5-.3-.4-.5-.3-.9.2-.5.4-.8.3-1.4v-.5c0-.5.6-1.3.1-1.9.2.2.5.4.5.7 0 .6.1 1 .7 1.2.9.6.7 1.3.6 1.3m14.2 13.1c-.6.1-1.2.2-1.7.4-.5.1-.9.1-1.2-.5-.2-.5-.5-.4-.5-.4s0 .2-.3.2h-.6c-.4-.1-.9-.2-1.3-.2.2.2 0 .4-.2.5-.6.1-1.3.1-2 .2.4.2.4.8-.1.9-.4.1-1 .1-1.3.3.5.3.1.7 0 .7-.2.2-.4.3-.7.4s-.7.3-.8.5c.7.2-.1.8-.4 1.1-.2.3-.4.3-.5.7.4 0 .8.1.6.5s-.6 1-.7 1.3l-.3.6c.9-.5 1.2-.7 2-.2.2.1.2.1.4.1s.4-.1.6-.3c.4-.3.7-.2.8.3.7-.7 1.4-1 1.8-.6.3-.3.5-.6.8-.9.4-.5.8-.5 1 .1.2-.3.2-.5.4-.7.2-.3.3-.8.6-.8.1 0 .2-.1.3.2 0-.2 0-.4.1-.5 0-.4.1-.9.1-1.3.2.3.2.6.2 1.2 0 .5.1 1-.3 1.6-.1-.4-.2-.8-.4-.6-.4.5-.7 1.3-1.1 2 0-.2-.1-1.1-.4-1s-.8.9-1.2 1.5c-.2-.3-.3-.4-.6-.3-.2 0-.4.2-.5.3-.4.3-.5.9-.5 1.3-.1.3-.2.6-.4.8-.1.1-.2.2-.3.2.2.1.4.3.6.4.5-.2.8-.5 1.3-.7.6-.3 1.6-.6 1.3.1.3 0 .6-.2.7-.4.4-.5.7-.9 1.2-1h.3c.2-.2.4-.5.7-.7-.1 0-.3-.2-.2-.4 0-.1.1-.5.1-.6.1-.3.3-.7 1-.5 0-.3 0-.6-.1-.9 0-.6.3-.7.8-.7l-.3-1.2c0-.2-.1-.3-.2-.5-.3-.7-.3-.8.2-1.1.6-.3 1.2-.5 1.8-.6-.1-.4-.3-.6-.6-.8m19.9-6.3c0-.2-.3-.5-.1-.7.1-.1-.1-.2-.1-.4 0-.1-.2-.3-.2-.4 0-.2.1-.2 0-.4-.1-.3-.4-.7-.5-1s-.1-.6-.2-.8c0 0-.3-.2-.3-.3-.2-.3-.1-.4-.3-.6-.2-.3-.5-.4-.7-.6s-.2-.4-.4-.5c-.1 0-.3 0-.3-.1-.4-.5-.9-.4-1.1-.1-.4.5-.8 1.1-1.1 1.6.1 0 .1.1.1.1l.1-.1c.3-.4.6-.7.9-1.1.1-.1.4-.3.6-.2.1.1.2.2.1.3-.2.4-.5.7-.8 1 .3-.2.5-.5.9-.7.2-.1.3-.3.5-.2.2.2-1.1 1.2-1.3 1.5.3-.1 1.2-.9 1.4-1s.3-.1.4 0c.1 0 .1.2 0 .3-.2.4-1.7 1.2-1.9 1.5 1.2-.7 2.2-1.2 2.5-.8.1.1 0 .3-.2.4s-1.2.6-1.5.8c.4-.1 1.3-.5 1.6-.5.2 0 .4-.1.6.2.1.2-.2.4-.4.5s-.6.2-.9.3c.4 0 1.1-.1 1.4-.1 0 0 .2-.1.2.1.1.2-.3.3-.5.3-.4.1-1.8.4-1.8.5.5-.1.9-.2 1.4-.2.3 0 1 0 1.1.2s0 .4-.3.4c-.5 0-1.2.1-1.8.2h1.6c.3 0 .6 0 .7.3 0 .1 0 .3-.1.3-1.7.1-1.9 0-2.9 0 0 .1-.1.2-.1.3h1.1c.8 0 1.2.1 2 .1.3.3.6-.1.6-.4" fill-rule="evenodd"/><path clip-rule="evenodd" d="M69.3 32.8c.2-.2.1-.4.3-.5-.1 0-.5-.1-.3-.2s0-.3.2-.5c-.5-.2-.7-1.4-.6-1.4-.2 0-.5-.4-.6-.6s.1-.5.2-.7c-.3 0-.4-.3-.3-.5-.1 0-.1-.1-.1-.1l-.1.1c-.2.2-.3.3-.6.2-.2-.1-.6-.1-.5-.2h-.4c-.2.1-1-.2-.8-.2-.4-.1-.7 0-1.1.2-.1 0-.1-.2-.1-.2s-.6.3-.8.5-.6 1-.7.7c-.1.2-.2.5-.2.8 0 .1-.2.5-.2.3-.2.1-.2.4-.2.6 0 .1.1.3 0 .4-.2.4 0 .7.2.9s0 .6.5.8c.4.1.3.6.1 1-.3.5-.7.5-1.3.3.1.4 0 .6-.1.7.1.2.2.5.3.7.6-.3 1.2-.7 1.7-1.2.2-.2.6-.2.8.1.1.1.2.3.3.4.3.2.6.4.7.5-.1-.3 1.1 0 1.5 0-.3-.2.6-.3 1-.5-.4-.5.6-.4.8-.7-.2 0-.4-.1-.3-.2.3-.2.5-.4.6-.5-.2-.1 0-.4-.1-.6.1 0 .2-.1.4-.1 0-.1.1-.2.1-.3z" fill-rule="evenodd"/><path clip-rule="evenodd" d="M61.1 46.8c-.3.1-.5.2-.8.3-.4.2-.8 0-.7-.4.2-.4.4-.8.7-1.1s.7-.5 1.1-.6c0-.2 0-.3-.1-.5-.3.1-.6.1-.9.2s-.4-.2-.3-.4c.1-.7.4-1.3 1-1.7 0-.2 0-.5-.1-.7-.3.3-.7.5-1.2.6-.1-.4-.5-1 .2-1.1-.3-.2-.6-.4-.8-.7s-.1-.7-.2-1c-.4-1 .2-2.5 1.1-3.1.2-.1.4-.2.6-.1s.2.3.4.5c.1-.3.2-.7.5-.8l.6-.3c-.1-.2-.2-.5-.3-.7-.1.1-.3.2-.5.2-.5.1-1 .3-1.5.5-.1 0-.3.2-.4.2-.8.6-1 .5-1.3.6.6.5.1 1-.3 1.3-.3.2-.7.1-1-.1-.1-.1-.3-.2-.4-.4-.2-.3-.3-.7-.2-1-.2 0-.4-.1-.7-.2v.2c-.1.2-.2.2-.3.2h-.7c-.5 0-.8-.2-.5-.9-1.5 1.1-3.3.7-4.2-.4 0 .3.3 1 .4 1.2.3.5.8.9 1.3 1.3.1-.4.8-.6 1.3-.4.2.1.9.3 1.3.5.1 0 .3.1.3.3s-.2.2-.3.3c-.2 0-.4.1-.5.1.2.2.5.4.6.7.5-.1 1.1-.1 1.6 0 .6.1.7.2.8.5.2.3.1.7.1.9v.4c.3-.6.6-.5 1 .2.2.3.3.7.5 1 .2.5.2.7-.3 1.2-.2.2-.3.4-.4.6 1-.6.8 1.1.8 1.3 0 .6-.5 1-.8 1.4-.1.2-.2.2-.2.5.5-.4.6 0 .5.4v.3c.6.3 1.3.5 2 .5.2-.5.6-.9 1.2-1.2.2-.1.5-.2.7-.3 0-.2 0-.4-.1-.5-.2.1-.4.1-.6.2" fill-rule="evenodd"/><path clip-rule="evenodd" d="M74.5 45.9c0-.3.2-.6.5-.8-.8-.3-1.4-.4-2.2-.5-.4 0-.5-.3-.3-.6.1-.1.1-.2.3-.4-.6-.2-1.2-.2-1.7-.1-.2 0-.3 0-.4-.1s-.1-.2.1-.4c-.2 0-.6.1-.8.1-.7.1-1.4-.1-2 .2-.1.1-.5.1-.6-.1V43c-.1 0-.3 0-.3.1-.5.2-1 .3-1.6 0h-.2c-.2 0-.4.1-.6.2h-1c-.2 0-.3.1-.5.2-.1.1-.2.1-.3.2-.3.6-.9.8-1.5.9 0 .2 0 .3.1.5h.3c.4 0 .9-.1 1 .5 0 .1.3.2.4.3s.2.2.2.4c0 .1-.2.2-.3.2-.5.1-.9.2-1.4.3 0 .2 0 .4.1.5.2 0 .3-.1.5-.2.4-.2.9-.3 1.3-.4.3 0 .6-.1 1-.1.7 0 1 .2 1.5.6.1.1.2.2.5.4 0-.2 0-.3.2-.4.1 0 .5 0 .6.1.4.2 1.2.8 1.4.8 0-.3.2-.3.3-.3.8 0 3.4 2.1 4.2 3.8.3-.4.3-.7-.3-1.5-.5-.5-.8-.9-1.3-1.5-.1-.1-.4-.4-.2-.6.1-.2.3-.2.5-.2s.3.1.5.2c.2-.2.2-.3.1-.6.4.2.6.2 1.2.2-.1-.2-.1-.3.1-.3.6-.1 1.2 0 1.8.2-.1-.7-.5-1.2-1.2-1.6m-17.7-9.7c.9 0 1.2-.8 2-1.2.1-.1.2-.1.3-.2-.9 0 .6-1 .6-1.6-.5.2-.3-.3-.2-.5.2-.6.2-.6.4-1.1 0-.1.3-.5.2-.7-.2.1-.3.1-.4.1 0 0 .3-1.6.2-1.9-.2.1-.5.2-.5-.1.1-.7.2-1 .4-1.5-.1 0-.6 0-.4-.5.1-.2.3-.8.3-1.1-.7.2-.3-.5-.1-.8.1-.2.2-.3.6-.5-.2 0-.5 0-.7.1-.3.1-.5.2-.8.4-.7.4-.7.5-1.3-.1-.6.6-.8 1.2-1.2 1.8-.2.2-.4 0-.6-.4-.3.4-.3 1.2-.4 1.8-.1.4-.2.4-.3.4s-.2 0-.3-.1c-.1.2-.1.2-.1.4-.1.4-.1.7-.1 1.1 0 .3-.1.9-.5 1 .3.2.5.6.5 1.1.1.5.1.6-.2.8-.2.1-.4.1-.6.1 0 .2.1.5.2.7.2.5.5 1.3.2 1.7.5-.1.9.2 1.3.6.1.2.3.3.4.6.2.1.4.1.7.2 0-.4.1-.6.4-.6m29.4 1.2c0-.1-.7-1.6-.7-2.1-.1-.9 0-1.7.1-2.5 0-.1.1-.2 0-.3-.8-.8-1.4-1.5-2.4-2.3-.5-.4-1.3-.9-3.2-2-1.1-.5-1.6 0-2.3.8-.4.5-.8 1.1-1.2 1.6-.1-.2-.1-.3 0-.5.1-.3.4-.6.1-1-.5-.5-.9-1.1-1.4-1.7-.3-.3-.9-1.6-1.1-2.2-.2-.5-.7-.7-1.3-.7-.7-.1-1.4-.1-2.1-.2-.6-.1-1.2-.4-1.8-.5-.3-.1-.7 0-1.1 0l-.9.3c-.3.1-.5.1-.6.5 0 .2-.2.5-.4.6-.8.6-1.4 1.2-1.6 2.3.7.1.7-.3 1-.6v.8c1.1 0 2.2-.7 1.7-1.8.1 0 .1-.1.1-.1.4.2.8.2 1.2-.2.1-.1.5-.1.7-.1 1 .1 1.9.3 2.7.9.7.5 1.3 1.1 1.6 2 .5 1.5 1 2.9 1.6 4.3.1.2.3.5.8.5.4 0 .7-.1 1.1-.1.2 0 .1.2.1.3-.1.2-.5.4-.8.4-1.4 0-2.8.5-4.3.2-.3-.1-.8 0-1 .2-.6.5-1.1 1-1.6 1.5.4.2.8.5 1.1.8.8-.7 1.9-.8 3-.6.6.1 1.3.3 1.8.5.8.2 1.2.4 1.9.7.5.2 1 .5 1.4.8s.8.3 1.2 0c.6-.4 1.2-.7 1.8-1 .4-.2.6.2.4.2-.4.3-.5.4-1 .7-.2.1-.4.3-.6.4-.6.5-.9.5-1.5.4-.4-.1-.7-.4-1-.5-.3 0-.4.2-.2.4.4.4.7.8 1.1 1.2.5.5 1.1.6 1.7.8.3.1.6.2.8.3.4.1.9.2 1.3.1 1-.2 1.9-.5 2.8-1.1.7-.5.7-1.2.7-1.8.3-.5.3-.6.3-.6" fill-rule="evenodd"/><path clip-rule="evenodd" d="M91.9 64.6c-.2-.7-.5-1.5-.7-2.3-.1-.3 0-.6.3-.7-.2-.5-.6-.9-.9-1.3v.2c-.1.2-.3.2-.4.1-1.2-2.4-2.9-3.9-5.1-5.3.3-1.5-.2-2.3-1.6-2.8-.7-.1-1.1.5-1.1.6-.3.6-.1 1.3.2 1.8.4.6 1 .9 1.6.9.3 0 .6.2.9.4 1.2.7 2.2 1.5 3.2 2.5.5.5.8 1 1.1 1.6.1.1.2.6 0 .7-.3.2-.5-.1-.9-.5-.5-.5-.9-1-1.3-1.4-.5-.5-.9-1-1.4-1.4-.6-.5-1.5-1.1-2.1-1.4-.9-.5-1.2-.5-2-1-.1-.1-.3-.3-.3-.4.1-.7-.3-1.2-.7-1.8-.1-.2-.4-.3-.6-.4-.4-.2-.3.2-.5.3-.1.1-.3.2-.4.2-1.7 0-3.2.3-4.7 1.1-.3.2-.6.5-.9.3-.2-.1-.3-.5-.5-.8-.4-.6-.5-.9-.9-1.5-.5-.7-1.1-1.5-1.7-2C69 49 67.2 48 64.9 48c-1.3 0-2.5.3-3.7.7-.3.1-.6.3-.9.5-.1 0-.3.1-.4 0s-.1-.3 0-.4v-.1c-.7.1-1.3-.2-2-.5 0 .2 0 .2-.1.5 0 .2-.3.4-.5.2s-.3-.3-.5-.6c-.5-.7-1.1-1-1.8-1.3-1.2-.5-2.2-.8-3.7-.9h-.2c-.2.2-.5.4-.7.7.8-.1 1.5 0 2.3.1.8.2 1.5.4 2.2.9.5.3.8.7 1.1 1.2.2.4.2.6.1.6-.1.1-.4.3-.9.1-.7-.2-1-.4-1.6-.6-1.4-.5-2.9-.5-4.3-.3s-2.7.9-3.8 1.8c-.9.7-1.5 1.5-2.4 2.3-.2.2-.4.4-.6.4-.6 0-.8-.4-.5-.9.5-.7 1-1.3 1.5-2 .4-.5.6-.7 1.1-1 .2-.2.7-.5.9-.6-.2-.1-.4-.3-.6-.4-.7.5-1.4 1-2 1.6-.7.7-1.3 1.5-2 2.2-.4.4-.3.4-.9.4-.2.6-.8 1.9-.5 2 .8.3 1.4.4 2.2 0 .3-.1.6-.2.9-.2.2 0 .3 0 .4-.2.6-1.2 1-1.5 1.8-2.4.8-.8 1.7-1.5 2.7-2 .6-.3 1.7-.5 2.4-.5 1.3 0 2.7-.2 3.7.9.1.1.2.3.1.5 0 .2-.3.2-.4.2-.5 0-1-.1-1.6-.1-.9 0-1.8 0-2.6.2-1.3.3-2.6 1-3.6 2-.7.7-1.2 1.2-1.6 2.2l-.6 1.5c-.3.6-.7.7-1.2.3-1.2-1-2.7-1.3-4.2-1.4h-2c-1.1.1-1.6.2-2.6.5s-2.4 1.1-3.4 2.1c-.7.7-1 1-1.6 1.8-.5.6 0 1.7.8 1.8.7.1 1-.5 1.4-.9.2-.2.4-.5.7-.8.4-.4.9-.8 1.4-1 .8-.4 1.3-.7 2.1-.9.7-.2 1.6-.2 2.3-.2.9 0 1.6.1 2.2.8.3.3.3.7.2 1-.1.2-.6 0-.8 0-1.1-.5-2.3-.6-3.4-.4-.5.1-1 .2-1.4.4-.6.3-1.2.7-1.6 1.2-.5.6-1.2 1.5-1 1.6.1.1.4-.2.5-.3l1.5-1.5c1.2-1 2.4-1 4-.7.7.2 1.3.6 2 .8.6.2 1.1-.1 1-.6-.1-1.2.7-2.1 1.8-2.2.4 0 .9.1 1.3.2.5.1.8 0 .9-.5.1-.4 0-.6 0-.9s-.1-.5-.1-.7c-.1-.8.4-1.6 1.1-2.3.5-.6 1.4-1.3 2.1-1.7 1.3-.8 2.7-1 4.1-.7.7.2 1.3.4 1.9.6.9.3 1.6-.1 1.8-1 0-.1.1-.2.1-.2.4-.5.8-.4 1.3.1.6.7 1.6.7 2.2.1.3-.4.6-1 1-1.2.9-.5 1.8-.9 2.8-1.1 1.3-.3 3-.2 4.2.4.8.3 1.2.5 2.1 1.2 1.5 1.2 2.6 2.6 3.2 4.5.2.8.2 1 .1 1.6 0 .4-.5.7-.8.6-.2-.1-.3-.2-.3-.5 0-1.3-.6-1.9-1.2-2.8-.3-.5-.9-1.2-1.6-1.8-.8-.7-1.5-1.3-3.3-1.8-.8-.2-1.2-.2-2-.2-1.1 0-2 .3-2.7 1.1-.4.4-.4 1.2 0 1.5.3.2.7.3 1.2.1.4-.2.5-.6.4-1s.1-.7.5-.8c1.5-.4 2.9-.2 4.1.6 1 .6 1.8 1.4 2.5 2.3.5.7 1 1.2 1.2 2.1.1.2 0 .7-.1.9-.1.6.2 1.4 1 1.2.6-.1 1.1-.2 1.3-.8.1-.3.2-.5.4-.9.3.8.4 1 1.2 1.2 0 0 .1.2.1.3.2.6.9 1 1.7.6.8-.3 1.6-.3 2.4-.4 1.9-.1 3.6.5 5.1 1.8.8.7 1.4 1.5 2 2.3.6.9 1 1.9 1.2 3.1.1.6.1.9-.5 1.1-.5.2-.7.7-.6 1.2.1.4.4.9.9.9.4 0 .8 0 1.2.1.9.2 1.7-.3 1.9-1.2.1-.3.2-.5.6-.4.9.2 1.1-.1 1.3-.9 1-.5.8-.9.7-1.4M84.3 55c-.4.2-.7-.2-1-.5s-.4-.9-.3-1.1c.2-.4.5-.5 1-.2.8.6.7 1.6.3 1.8m-42.8 2.7c-.2.3-.4.3-.6.3-.3 0-.7-.1-1-.2-1.5-.6-2.9-.6-4.4-.3-.9.2-1.8.5-2.6.9-.7.4-1.2.8-1.8 1.3-.4.4-.6.6-1 .9-.1.1-.3.2-.5 0-.1-.1-.2-.2 0-.5.2-.4.3-.6.5-.8.6-.7 1.1-1.3 2-1.9.8-.5 1.1-.8 2-1 .7-.2 1.8-.4 2.5-.4 1.2 0 2.5 0 3.7.5.4.2.8.3 1.1.6.2.1.2.4.1.6M75 55.9c-.2 0-.6.1-.7-.1-.2-.3.1-.5.2-.6.7-.4 1.3-.7 2-.9 1-.4 2.1-.5 3.2-.4.4 0 .7.3.7.8s-.4.6-.7.6h-.8c-.8 0-1.8.1-2.7.3-.4 0-.8.2-1.2.3M89.3 67c-.2.4-1.1.4-1.1-.1 0-.4 0-.5-.1-.9-.2-1.1-.3-2.3-.8-3.3-.6-1-1.2-1.8-2.2-2.8-1.8-1.8-3.8-2.4-6.2-2.5-.9-.1-1.8 0-2.7 0-.3 0-.6-.2-.6-.5 0-.2 0-.3.3-.5.5-.2.8-.4 1.5-.4.5-.1 1.2 0 1.7 0 2.4 0 4.4 1 5.7 1.8 1.1.7 2.2 2.2 3 3.2.9 1.3 1.3 2.2 1.7 3.6.1.6.2 1.7-.2 2.4m1.8-1.3c-.1.2-.3.3-.4.3-.2 0-.4-.1-.5-.3-.2-.6-.3-1.2-.5-1.8-.1-.4.1-.6.4-.7.4-.2.8 0 .9.4.3.6.6 1.3.1 2.1" fill-rule="evenodd"/><path d="M94.1 41.5c-.5-.7-.9-1.3-1.3-1.9-.3-.5-.6-.8-.9-1.3-.5-.9-.8-1.1-1.2-2.5-.2-.7-.1-1.4 0-2.1.1-.6.4-.8.8-.8.3 0 .5.2.7.4.1.2.4.5.3 1-.1.4.8 1 .8 1.9.2-1.7-.2-2.8-1.1-3.5h.6c1 .3 1 1.7 1 2.6 0 .8-.1 1.9-.1 2.3.1.4.2 1.4 1.2 2.1-.6-.9-.8-1.2-.8-2.6.1-1.3 0-1.6 0-2.2-.1-.9-.3-1.3-.4-1.5s-.3-.4-.3-.4.4.2.7.7c.2.5.4.9.4 1.7V37c-.1 1.1.2 1.6.6 2.2.4.5 1.2 1.1 1.4 1.2-1.2-1.5-1.5-2.2-1.6-3.2-.1-.8.1-1.5-.1-2.2-.2-1.5-.7-2.7-2-3.3-.2-.1-.6-.2-1.1-.2.3-.1 1.2-.2 2.2.6.5.4.7 1.1 1.1 1.4.9.9 1.1 1.3 1.5 2.1 0 0-.7-2.3-1.7-3.4-.6-.6-1.6-.9-1.6-.9-1.6-.5-3.2.7-3.5 2.2-.2.7-.2 1.3-.2 1.9 0 .8.2 1.5.7 2.4.6 1.3 1 1.8 1.9 3 .6.8 1.2 1.6 1.8 2.5.3.6.6 1 .8 1.8.2 1.3-.6 1.7-1.4 1.5-1.4-.3-2.1-1.3-2.7-2.3s-1.1-2-1.7-3c-.1-.2-.2-.4-.3-.5-.1-.2-1.5-2.2-2.5-4.1-2.6 1-7.1 2.7-7 2.8 1 1 1.7 1.1 2.6 1.9.6.5.8.6 1.3 1.3.2.2.4.4.5.6.3.5.5.8.7 1.3.1.1.3.7 0 .6-.2 0-.3-.4-.4-.5-.2-.5-.3-.8-.8-1l-1.8-.6c-1.1-.4-2.1-.4-3.2 0-.4.2-.8.6-.8.7-.8.9-.8 2.2.2 3.2.7.7 1.2 1.1 1.8 1.9.3.4.5 1.2.6 2-.6.1-1 .2-1.5.2-.4 0-.8 0-1.1-.1-.8-.2-1.6 0-2.1.6-.5.5-.8 1.1-1.2 1.7 1.3.3 2.1 0 2.4-.2.6-.4 1.3-.6 2-.7 1.1-.2 2.2-.2 3.3-.3.5-.1.6-.6.5-.9-.1-.4-.4-1.1-.5-1.7 0-.3-.1-.6 0-.8.2-.4.7-.4 1.2-.2.3.2.6.3.9.4s.6.1.7-.4c.2-1 .2-1.4.8-2.5.1-.2.3-1 .3-1.4.1-.2.3-.2.3 0-.1.4-.1.8-.2 1.2s-.4.8-.5 1.2c-.3 1.3-.3 2-.4 3s.2 2.1.8 2.8c.7.9 1.6 1.5 2.7 1.9.9.2 1.7.6 2 1.5.4 1.2.9 2.3.8 3.5 0 .3 0 .4-.1.6.4.4.7.8.9 1.3h.1c.2-.1.5-.3.6-.6.1-.4.1-.8.1-1.2-.1-.9-.3-1.9-.4-2.8-.1-.5 0-1.1-.1-1.6-.1-.6-.1-1.3-.8-1.6-.3-.1-.5-.2-.7-.4-.8-.6-1.2-2.4-.5-3.2.6-.8.8-1.7 1.1-2.6.2-.5.4-.7.8-.3.6.5 1.9.6 2.6.5.6-.2 1.2-.5 1.5-1.2.4-.9.1-2.1-.4-3.1-.8-1-1.1-1.3-1.6-2"/><path d="M95.2 34.3c.1.3.2.7.2 1.4 0 .5-.1 1.2.1 1.6.3.9 1 1.8 1 1.8s-.6-1.3-.4-2.4c.1-.6 0-.9-.2-1.2 0-.1-.2-.5-.7-1.2"/><path clip-rule="evenodd" d="M73.4 38.5c-.4 0-.9 0-.5-.8-.9 0-1.5.3-2 .2-.2 0-.3-.1-.4-.3 0-.1 0-.3.1-.4-.2.1-.4.1-.4 0-.3-.2-.1-.3 0-.5s.3-.3.4-.4c-.4-.3-.7-.5-1.1-.8l-.7.7c-.3.3-.7.6-1.1.7-.2.1-.3 0-.5-.2-.1-.1-.3-.3-.6-.3-.5 1-1.4 1.3-1.9.5-.3.1-.6.3-.9.7-.2.3-.5.5-.8.5-.2 0-.3 0-.4-.2-.2.1-.5.4-.6.5-.3.4-.5.8-.3 1.4.1.4.1.7 0 1.1-.1.3-.2.7-.6 1 0 .2 0 .5.1.7.1-.1.2-.1.3-.2.3-.2 1-.4 1.5-.3.6.1 1.2.2 1.6.9.3-.3.4-.5.3-.9.6.2 1 .6 1.3.9.1-.1.1-.3.2-.4.1-.2.3-.2.5-.2.4 0 .6.1.9.4.6-.6.8-.7 2.1-.2.1-.6.4-.8 1.1-.7s.8-.1 1.3-.6c.2-.2.6-.3.8-.5-.5-.4.1-.7.3-.8.6-.3 1.1-.5 1.4-1.2.2-.3.4-.3.6-.5-1-.1-1.3.2-2 .2" fill-rule="evenodd"/><path d="M86.2 32.4c.3-.3 1.4-1.1 2-1.2l-.4-.8c0 .4-.2.7-.4.9-.1-.3-.1-.5 0-.8-.2.2-.6.4-.8.5.3.1.5.2.6.4-.3.1-.9.3-1.3-.2-.3-.3-.3-.8 0-1 .1-.1.3-.1.4 0s0 .4-.2.5c.3 0 .9-.3.7-.7-.2-.3-.8-.2-1 0 .2-.3.3-.9 0-1.1s-.7.4-.7.6c.2-.2.4-.2.5-.2.1.1.1.3-.1.5-.3.3-.8.2-1.1 0-.4-.3-.5-.8-.1-1.3.2.2.4.6.4.9.2-.4.3-.5.6-.8-.3.1-.7-.1-.9-.2.2-.2.6-.3.9-.3l-1.1-.9c.2.3.1.6-.1.9-.2-.2-.4-.5-.4-.8-.2.4-.4.5-.6.8.3-.1.7.1.9.2-.5.5-1 .4-1.3.2s-.7-.7-.5-1c.1-.2.4-.1.5-.1.1.1.1.3 0 .5.3-.2.7-.6.4-.9-.2-.2-.7 0-.9.2.1-.3 0-.9-.3-1-.4-.1-.6.6-.4.8 0-.1.2-.4.4-.3s.1.4.1.5c-.2.4-.6.4-1 .2-.6-.3-.6-.9-.3-1.2.3.1.4.3.6.5 0-.3.2-.7.3-.9-.2.2-.5.2-.8.2.1-.2.3-.5.7-.6l-.8-.2c0 .6-.5 1.8-.7 2.3 3.1 2 3.5 2.2 6.2 4.9"/><path d="M83.2 25.8c-.3.2-.5.3-.6.5s-.3.9-.3 1.2c.2-.2.8-.7.9-.9v-.8m3.9 3c-.1.3-.2.6-.3.7s-.8.5-1.1.6c.1-.3.5-.9.7-1 .2-.2.6-.2.7-.3M58 5.1V3.7c-.7.1-1.2.7-1.3 1.4zm.7 0H60c-.1-.7-.7-1.2-1.3-1.4zm-2 .7c.2.8.9 1.3 1.7 1.3s1.5-.6 1.7-1.3zM58.6 2c.1-.4.3-.8.6-1.2h-1.7c.3.4.5.8.6 1.2.1 0 .2-.1.2-.1s.2 0 .3.1"/><path d="M58.1 2.7c-.1.4-.2.9-.6 1.2.6-.3 1-.3 1.7 0-.3-.2-.6-.8-.7-1.2-.1 0-.2.1-.2.1s-.1-.1-.2-.1m-.1-.6c-.4-.1-.9-.3-1.2-.7v1.8c.3-.4.7-.6 1.2-.7 0-.1-.1-.1-.1-.2 0 0 0-.1.1-.2m.7 0v.2c0 .1 0 .2-.1.2.4.1.9.3 1.2.7V1.4c-.2.4-.7.6-1.1.7"/><path d="M58.3 2.8c-.3 0-.5-.2-.5-.5s.2-.5.5-.5.5.2.5.5-.2.5-.5.5m-1 4.3h2.1v5.3h-2.1z"/><path d="M49.5 8.2c.3-.3 1.5-1.2 2.7-1.1.9.1 1.7.4 2.2.7.2.1.3.2.5.2.6.3 1.7.5 2.4.5h.2v-.4h-.2c-.2 0-.4 0-.7-.1v-.2c.2-.1.4-.3.4-.5 0-.3-.2-.6-.5-.6s-.5.3-.5.6c0 .2.1.3.2.4v.2c-.4-.1-.8-.2-1.1-.3-.1 0-.2-.1-.3-.1l.1-.2c.3 0 .5-.3.5-.6s-.2-.6-.6-.6-.5.2-.5.6c0 .1 0 .2.1.3l-.1.2c-.3-.1-.6-.3-1-.4l.1-.3c.2-.1.4-.3.4-.5 0-.3-.2-.6-.5-.6s-.5.2-.5.6c0 .2.1.3.2.4l-.1.3c-.2 0-.4-.1-.5-.1H52v-.2c-.1 0 0-.2 0-.3 0-.3-.2-.6-.6-.6s-.5.2-.5.6c0 .2.2.5.4.5v.2c-.4.1-.7.2-1 .4l-.1-.2c0-.1.1-.2.1-.3 0-.3-.2-.6-.5-.6s-.5.2-.5.6.2.6.5.6l.1.2c-.3.2-.5.4-.6.5s-.2.1-.2.2L49 8v-.1c0-.3-.2-.6-.5-.6s-.6.2-.6.6.2.6.6.6h.2l.2.1c-.2.2-.3.6-.4.9l-.2-.1c-.1-.2-.3-.4-.5-.4-.3 0-.6.2-.6.6s.2.6.6.6c.2 0 .3-.1.4-.2l.2.1c0 .3-.1.7 0 1L48 11c-.1-.1-.2-.2-.4-.2-.3 0-.6.2-.6.6s.2.6.6.6c.3 0 .5-.2.5-.4l.2-.1c.1.3.2.6.4.9l-.2.1c-.1-.1-.2-.1-.3-.1-.3 0-.5.2-.5.6s.2.6.5.6.6-.2.6-.6l.2-.1c.2.3.4.6.5.8v.2h.1v.1l.2-.2.1-.1-.1-.1c-.1-.4-.2-1.6.3-2.2.3-.4.7-.5 1.2-.5.2 0 .4 0 .5.1h.3l.1-.1c.2-.5.7-1 1.2-1 .6 0 1.2.2 2 .7.5.3 1 .4 1.6.4h.6v-.4h-.7c-.5 0-1-.1-1.4-.4-.9-.6-1.5-.8-2.2-.8-.8 0-1.2.8-1.5 1.1-.2 0-.4-.1-.6-.1-.6 0-1 .2-1.4.6s-.5 1.1-.5 1.7c-.3-.5-.6-1.2-.7-1.9-.2-1.5.9-2.5.9-2.6zm19.7 2.6c-.2 0-.3.1-.4.2l-.2-.1c.1-.4.1-.7 0-1l.2-.1c.1.1.2.2.4.2.3 0 .6-.2.6-.6s-.2-.6-.6-.6c-.3 0-.5.2-.5.4l-.2.1c-.1-.3-.2-.6-.4-.9l.2-.1h.2c.3 0 .6-.2.6-.6s-.2-.6-.6-.6-.6.2-.6.6v.1l-.1.1-.2-.2c-.1-.1-.3-.3-.6-.5.3 0 .6-.2.6-.6S67.4 6 67 6s-.6.2-.6.6c0 .1 0 .2.1.3l-.1.2c-.3-.2-.6-.3-1-.4v-.2c.2-.1.4-.3.4-.5 0-.3-.2-.6-.6-.6s-.4.3-.4.6c0 .2.1.3.2.4v.2h-.4c-.2 0-.4 0-.5.1l-.1-.3c.1-.1.2-.2.2-.4 0-.3-.2-.6-.5-.6s-.7.3-.7.6c0 .2.2.5.4.5l.1.3c-.4.1-.7.3-1 .4l-.1-.2c.1-.1.1-.2.1-.3 0-.3-.2-.6-.6-.6s-.5.2-.5.6.2.5.5.6l.1.2c-.1.1-.2.1-.3.1-.3.1-.7.2-1.1.3v-.2c.1-.1.2-.2.2-.4 0-.3-.2-.6-.5-.6s-.6.3-.6.6c0 .2.2.5.4.5V8c-.2 0-.5.1-.7.1h-.2v.4h.2c.8 0 1.8-.2 2.4-.5.2-.1.3-.1.5-.2.6-.3 1.3-.6 2.2-.7 1.3-.1 2.5.8 2.8 1.1.1.1 1.2 1.1.9 2.7-.1.7-.4 1.3-.7 1.8 0-.6-.1-1.3-.5-1.7s-.9-.6-1.4-.6c-.2 0-.4 0-.6.1-.2-.4-.7-1.1-1.5-1.1-.7 0-1.4.2-2.2.8-.4.3-.8.4-1.4.4h-.7v.4h.6c.6 0 1.1-.1 1.6-.4.8-.5 1.4-.7 2-.7.5 0 .9.5 1.2 1l.1.1h.3c.2 0 .4-.1.6-.1.5 0 .8.1 1.2.5.5.5.4 1.8.3 2.2 0 .1-.1.1-.1.1l.1.1.2.2.1-.1h.1v-.1c.1-.2.3-.4.5-.8l.2.1c0 .3.2.6.6.6s.6-.2.6-.6-.2-.6-.6-.6c-.1 0-.2 0-.3.1l-.2-.1c.1-.3.3-.6.4-.9l.2.1c.1.2.3.4.5.4.3 0 .6-.2.6-.6s-.5-.7-.8-.7z"/><path d="M65.8 19.3c-.4-.1-.6-.4-.6-.7.1-.3.4-.4.8-.3.1 0 .2.1.3.2v-.2c.4-1.9.8-3.5 1.7-4.5l-1.6-.7c.5.6.5 1.4.4 1.9-.5-.3-.9-.7-1-1.2-.1.5-.4 1.3-.7 1.8.5-.2 1-.3 1.5-.1-.3.6-1 1.6-2.2 1.3-.8-.2-1.4-.9-1.2-1.7 0-.3.3-.6.7-.5.4 0 .4.7.3.9.5-.3 1.1-1.7.2-1.9-.7-.2-1.4.7-1.6 1.3-.1-.7-.7-1.7-1.3-1.7-.8.1-.6 1.5-.3 1.9 0-.5.4-.9.6-.9s.5.4.5.8c-.1.8-1 1.3-1.8 1.3-.9 0-1.7-.6-1.8-2 .5.1 1.4.4 1.8.9-.1-.8-.1-1.3 0-2.1-.4.5-1.2.7-1.7.8.1-.6.5-1.2 1.1-1.6H57c.7.4.9 1 1 1.6-.5-.1-1.3-.2-1.7-.8.1.9.1 1.3 0 2.1.3-.4 1.2-.8 1.7-.9-.1 1.3-1.1 1.9-1.8 2-.8.1-1.9-.2-2-1.1-.1-.4.5-.7.7-.8.2 0 .6.3.6.8.2-.6.4-1.8-.5-1.8-.7 0-1.1.8-1.2 1.5-.2-.6-1.1-1.4-1.7-1.1-.8.3-.2 1.6.3 1.9-.1-.2-.2-.9.2-1 .4 0 .6.4.7.7.1.8-.5 1.4-1.4 1.6-1.3.2-2.1-.6-2-1.5.5-.2 1-.1 1.5.1-.3-.5-.6-1.3-.7-1.8-.1.6-.6 1-1.1 1.3-.1-.4-.1-1.2.4-1.9l-1.6.7c.9 1 1.2 2.8 1.7 4.5v.1c.1 0 .2-.1.2-.1.4-.1.8 0 .8.3s-.2.6-.5.7h-.3v.5c2.2-1.1 5.5-1.2 7.9-1.2 0 0 4.6-.3 7.9 1.2v-.5s-.1-.1-.3-.1"/><path d="M50.8 18.2h-.3c-.1 0-.2.1-.3.1-.3.2-.4.5-.3.7s.3.4.6.4h.3c.2-.1.4-.2.5-.3.1-.2.2-.3.1-.5 0-.2-.3-.4-.6-.4m15 0c-.3 0-.6.1-.6.4-.1.2 0 .3.1.5.1.1.3.3.5.3h.5c.2 0 .4-.2.5-.4s0-.5-.3-.6c-.1-.1-.2-.1-.3-.2h-.4"/><path d="M66.6 18.3c-5.3-1.5-10.9-1.5-16.6 0-.2 0-.3 0-.3-.2 0-.1 0-.3.2-.3 5.8-1.5 11.5-1.5 16.8 0 .2 0 .2.2.2.3s-.1.2-.3.2"/><path d="M50 18.3c-.2 0-.3-.1-.3-.2v-.2c0-.1.1-.1.2-.1 2.9-.7 5.8-1.1 8.6-1.1s5.6.4 8.3 1.1c.2 0 .3.2.2.4 0 .1-.2.2-.3.2h-.1c-2.6-.7-5.3-1.1-8.1-1.1s-5.6.3-8.5 1zm3.4-7c-.3.7-.5 1.1-.4 1.5.1.5.6 1.8.9 2.3.2-.6.4-2 .4-2.5-.2-.4-.8-1-.9-1.3m10 0c.2.7.5 1.1.4 1.6s-.7 1.8-1 2.2c-.1-.6-.3-2.1-.2-2.5s.6-1 .8-1.3M50 15.5c0 .3-.3.6-.6.6s-.6-.3-.6-.6.3-.6.6-.6.6.3.6.6"/><path d="M49.5 16.1c-.3 0-.6-.3-.6-.6s.3-.6.6-.6.6.3.6.6-.3.6-.6.6m9.5-2c0 .4-.3.6-.6.6s-.6-.3-.6-.6.3-.6.6-.6.6.3.6.6"/><path d="M58.3 14.8c-.4 0-.7-.3-.7-.7s.3-.7.7-.7.7.3.7.7-.3.7-.7.7m0-1.2c-.3 0-.6.3-.6.6s.3.6.6.6.6-.3.6-.6-.3-.6-.6-.6m9.2 1.9c0 .3-.3.6-.6.6s-.6-.3-.6-.6.3-.6.6-.6.6.2.6.6"/><path d="M66.9 16.1c-.3 0-.6-.3-.6-.6s.3-.6.6-.6.6.3.6.6-.2.6-.6.6m-8.6 2.3c-4.1 0-8.5.7-8.5 2.1s4.4 2.1 8.5 2.1 8.6-.7 8.6-2.1-4.4-2.1-8.6-2.1zm8.2 2.1c0 .8-3.4 1.8-8.2 1.8s-8.2-.9-8.2-1.8 3.4-1.8 8.2-1.8 8.2 1 8.2 1.8z"/><path d="M64.7 20.9c-1.6-.4-3.9-.7-6.3-.7s-4.8.2-6.4.7c-.1 0-.1.1-.1.2s.1.1.2.1c1.6-.4 3.9-.7 6.3-.7s4.7.2 6.3.6c.1 0 .2 0 .2-.1s-.1-.1-.2-.1zm-33.4-7.2l-.1-.5c-.2.1-.4.3-.4.5zm.3-.1l.4-.1c-.1-.2-.3-.4-.5-.4 0 .1.1.5.1.5zm-.7.4c.1.2.4.4.6.4.3 0 .5-.3.5-.5zm.5-1.4c0-.1 0-.3.1-.4l-.6.1c.1.1.2.2.3.4 0-.1 0-.1.2-.1-.1 0-.1 0 0 0"/><path d="M31.2 12.9c0 .1 0 .3-.1.4.2-.1.3-.2.6-.1-.1-.1-.2-.2-.3-.4 0 .1-.1.1-.2.1zm-.1-.2c-.1 0-.3-.1-.4-.2l.1.6c.1-.1.2-.2.4-.3 0 0-.1 0-.1-.1zm.3 0v.1c.1 0 .3.1.4.2l-.1-.6c0 .1-.1.2-.3.3"/><path d="M31.3 12.9c-.1 0-.2-.1-.2-.1 0-.1 0-.2.1-.2s.2.1.2.1c.1.1 0 .2-.1.2m0-.3c-.1 0-.1.1-.1.1 0 .1.1.1.1.1.1 0 .1-.1.1-.1l-.1-.1m-.1 1.8l.3 1.8.7-.1-.3-1.8zm-.2.3c.2 0 .2-.1.2-.3 0-.1-.1-.2-.3-.2-.1 0-.1 0-.1.1v.2c0 .1.1.2.2.2z"/><path d="M31.5 15.5h-.4c-.1 0-.2 0-.3-.1-.3-.1-.6-.2-.8-.1-.2 0-.4.3-.4.4-.2 0-.4 0-.6.3-.1.1-.1.4-.1.6-.1-.1-.2-.4-.3-.5-.2-.5.1-.9.2-.9.1-.1.4-.5.8-.5h.1c.2 0 .5.1.6.1.1 0 .1 0 .2.1.1 0 .3.1.5.1h.4v-.1H31c-.2 0-.4 0-.5-.1h-.1v-.1s.1 0 .1-.1v-.2c0-.1-.1-.2-.3-.2-.1 0-.2.1-.2.3v.2c-.1 0-.2-.1-.3-.1v-.1c.1-.1.1-.1.1-.2s-.1-.2-.3-.2c-.1 0-.1 0-.1.1v.2c0 .1 0 .1.1.1v.1h-.3v-.2c0-.1-.1-.2-.3-.2-.1 0-.2.1-.2.3 0 .1.1.2.2.2-.1 0-.2.1-.2.1v-.1c0-.1-.1-.2-.3-.2-.1 0-.2.1-.2.3 0 .1.1.2.2.2-.1.1-.1.1-.1.2v.1c0-.1-.1-.2-.3-.2v.1c0 .1.1.2.2.2h.1c0 .1-.1.2-.1.2 0-.1-.1-.1-.2-.1s-.1 0-.1.1v.2c0 .1.1.2.2.2s.1 0 .1-.1h.1v.3h-.2c-.1 0-.1 0-.1.1v.2c0 .1.1.2.2.2s.2-.1.2-.2c0 .1.1.2.1.2h-.1c-.1 0-.2.1-.2.3 0 .1.1.2.2.2s.2-.1.2-.2c.1.1.1.2.2.2l.2-.2c0-.1-.2-.5 0-.7s.4-.2.5-.2h.1V16c0-.2.2-.4.3-.4.2 0 .4 0 .7.1.1.1.2.1.4.1s.2 0 .3-.1h.1z"/><path d="M30.924 14.788l.002-.2.1.001-.002.2zm4.176.512c.1.1.2.1.2.1.1 0 .2-.1.2-.3 0-.1-.1-.2-.3-.2-.1 0-.1 0-.1.1v-.3h.1c.1 0 .2-.1.2-.3 0-.1-.1-.2-.3-.2-.1 0-.2.1-.2.2 0-.1-.1-.1-.1-.2.1 0 .2-.1.2-.3 0-.1-.1-.2-.2-.2s-.2.1-.2.3 0 0-.1 0c0 0-.1-.1-.2-.1.1 0 .2-.1.2-.2s-.1-.2-.3-.2c-.1 0-.2.1-.2.3v.1c-.1 0-.2-.1-.3-.1.1-.1.1-.1.1-.2s-.1-.2-.3-.2c-.1 0-.2.1-.2.3 0 .1 0 .1.1.1h-.3v-.3c0-.1-.1-.2-.3-.2-.1 0-.2.1-.2.3 0 .1.1.2.2.2v.1c.3.1.2.2.2.2v-.2c0-.1-.1-.2-.3-.2-.1 0-.2.1-.2.3 0 .1.1.2.2.2v.1h-.1c-.1.1-.2.1-.3.1v-.2c0-.1-.1-.2-.3-.2-.1 0-.2.1-.2.3 0 .1.1.2.2.2-.1 0-.2 0-.2.1v.1c.2 0 .6-.2.9-.3l.1-.1c.2-.1.4-.3.7-.4h.2c.3 0 .7.2.8.2 0 0 .5.3.5.9 0 .2-.1.4-.1.6 0-.2-.1-.4-.2-.5s-.3-.1-.4-.1-.2 0-.3.1c-.1-.1-.3-.3-.5-.3s-.5.1-.7.4c-.2.2-.4.2-.6.2h-.1v.1h.1c.2 0 .4 0 .7-.2.2-.2.4-.3.6-.4.2 0 .3.1.4.3h.1c.1 0 .2-.1.3-.1s.2 0 .3.1c.2.1.2.6.2.7h.1c0-.1.1-.1.1-.2 0 .1.1.2.2.2s.1 0 .2-.1 0-.1 0-.2-.1-.2-.3-.2H35c.1 0 .1-.1.1-.1zm-5.5 3.1h-.2c-.1.1-.1.2-.1.2 0 .1.1.1.2.1h.1c.1 0 .1-.1.1-.1v-.2c.1.1 0 0-.1 0m5-.8c-.1 0-.2.1-.2.2s0 .1.1.2c0 0 .1.1.2.1h.1c.1 0 .1-.1.1-.1 0-.1 0-.1-.1-.2h-.1c0-.2-.1-.2-.1-.2"/><path d="M29.3 18.5s-.1 0-.1-.1 0-.1.1-.2c1.5-.6 3-1 4.4-1 .4 0 .8 0 1.2.1.1 0 .1.1.1.1s0 .1-.1.1c-.4 0-.8-.1-1.1-.1-1.5.2-3 .5-4.5 1.1zm4.4-1.1c-1.5 0-3 .3-4.4 1v.1h.1c1.4-.6 2.9-.9 4.4-.9.4 0 .8 0 1.2.1s0 0 0-.1c0 0 0-.1-.1-.1-.4-.1-.8-.1-1.2-.1zM30.1 16c0 .2-.1.4-.1.5 0 .2.3.6.4.7v-.9l-.3-.3m3.3-.5c.1.2.2.3.2.5s-.1.6-.2.8c-.1-.2-.2-.7-.2-.8s.2-.4.2-.5m-1.1 4c-1.4.2-2.9.2-2.9-.2-.1-.4 1.3-.9 2.7-1.1s2.9-.2 2.9.2c.1.4-1.3.8-2.7 1.1m-.2-1.3c-1.6.3-2.7.8-2.7 1 0 .3 1.2.4 2.8.2 1.7-.3 2.7-.8 2.7-1 0-.3-1.1-.5-2.8-.2"/><path d="M34.9 17.5s.1 0 0 0c.1.1 0 .1 0 .1s.1 0 0-.1c.1 0 0-.1 0 0 0-.1 0-.1 0 0-.1-.1-.1-.1 0 0-.1 0 0 0 0 0zm-5.5 1h-.1v-.1c0-.1 0 0-.1.1v.1c0-.1.1-.1.2-.1-.1 0 0 0 0 0z"/><path d="M35 16.5c0-.2.1-.3.2-.4l-.6-.1c.2.2.2.4.2.5s0 0-.1 0c-.1-.1-.3-.2-.3-.3 0 .2-.1.5-.1.6.1-.1.2-.1.3-.1 0 .1 0 .1.1.1-.1.2-.3.4-.6.4s-.5-.2-.5-.5c0-.1.1-.2.2-.2s.2.2.2.3c.2-.1.3-.6 0-.6-.2 0-.4.3-.5.5-.1-.2-.3-.5-.5-.5-.3.1-.1.5 0 .6 0-.2.1-.3.2-.3s.2.1.2.2c0 .3-.3.5-.5.5s-.5-.1-.7-.5c0 0 0-.1.1-.1.2 0 .4.1.5.2-.1-.3-.1-.4-.1-.7-.1.2-.3.3-.5.3l-.1-.1c0-.2.1-.4.3-.5l-.9.1c.2.1.3.2.4.4v.1c-.2 0-.4 0-.5-.2.1.3.1.4.1.7.1-.1.3-.3.4-.3l.1.1c0 .4-.3.6-.5.6-.3.1-.6 0-.7-.3 0-.1.1-.3.2-.3s0 .3 0 .5c0-.2 0-.6-.2-.6s-.3.3-.3.6c-.1-.2-.4-.4-.6-.3s0 .5.2.6c0-.1-.1-.3 0-.3s.2.1.3.2c.1.3-.1.5-.4.6-.4.1-.6 0-.7-.2v-.1c.1-.1.3-.1.5 0-.1-.1-.3-.4-.3-.6 0 .2-.1.3-.3.5 0-.1-.1-.4 0-.6l-.5.3.3.3c-.1 0-.1.1-.1.2s.1.2.2.2c.1.1.1.3.2.5.9-.4 1.8-.7 2.8-.8.9-.1 1.8-.2 2.8-.1 0-.2 0-.4.1-.5.1 0 .2-.1.2-.2-.1-.3-.1-.4-.2-.4z"/><path d="M32.1 17.7c-.9.1-1.8.4-2.7.8h.1c.1-.1.2 0 .3 0 0 .1 0 .2-.1.3h-.1v.2c.7-.5 1.8-.7 2.6-.8 0 0 1.5-.3 2.7 0V18h-.2c-.1 0-.2-.1-.2-.2s.1-.1.3-.1h.1c-1-.1-1.9-.1-2.8 0z"/><path clip-rule="evenodd" d="M46.5 23.3c.5.1 1.2.2 1.7.3.8.1 1.4.1 2.2.1.9-.1 1.4 1.1.8 1.9-.4.6-1 1.3-1.9.9-.2 0-.3-.2-.5-.1-.5.4-.8.3-1.1 0-.1-.1-.3-.1-.4-.1-.7.3-1 0-1.3-.3-.5-.5-.7-1-.7-1.6 0-.8.3-1.1 1.2-1.1m1.1 4.6c-.4.1-.5.2-.7.5-.1.1-.3 0-.5 0-.1-.2-.4-.2-.4-.4 0-.6.8-1.3 1.4-1.1.3.1.3.3.3.5s0 .5-.1.5m-2.8-3.1c-1 0-1.3-.2-1.4-.8v-.8c1.1 0 1.4.2 1.3.8-.2.3-.2.4.1.8m3.7 4.5c-.1.4-.4.7-.8.6-.2 0-.6-.4-.6-.6 0-.4.3-.7.8-.7.4 0 .7.2.6.7m3.2-3.7c.9 0 1.2-.2 1.3-.8v-.7c-1 0-1.1.2-1.1.8 0 .5-.1.5-.2.7m-8.5 5.1c-1-.3-1.2-.1-1.5.4-.1.2-.2.4-.2.7 1 .2 1.1.1 1.3-.4s.3-.5.4-.7m9 .6c.8-.2 1.1-.1 1.3.3.1.2.1.4.2.6-.9.2-1 .1-1.2-.4 0-.2-.1-.4-.3-.5m-4.3 2.5c.7.6.7.9.4 1.3-.1.2-.2.3-.4.5-.6-.7-.6-.8-.3-1.2.3-.3.2-.3.3-.6m-1.4-4.7c-.1.4 0 .5.2.8.1.1-.1.3-.2.4s-.2.4-.4.3c-.6-.2-.9-1.2-.5-1.6.2-.2.4-.2.6-.1.1.1.4.2.3.2m2.5-.5c-.1-.4-.2-.5-.5-.6-.1 0-.1-.3 0-.5 0-.2.1-.4.2-.5.6 0 1.3.7 1.2 1.2-.1.3-.3.4-.5.4-.2.1-.5.1-.4 0m-1.6 1.8c.4.1.5.1.8 0 .1 0 .3.1.4.3.1.1.3.3.2.5-.3.5-1.3.6-1.7.2-.2-.2-.1-.4 0-.6s.2-.4.3-.4m1.4-.4c.3-.2.3-.4.3-.7 0-.1.2-.2.3-.2.2 0 .4-.1.5 0 .3.5 0 1.4-.5 1.5-.3.1-.4-.1-.5-.2 0-.2-.1-.4-.1-.4M42 28.7c.2-.4.5-.8.7-1.2.3-.5.5-1 .7-1.6.1-.7 1.3-.7 1.8 0 .4.5.8 1.2.3 1.7-.1.1-.3.1-.2.4.2.5 0 .7-.3.8-.1.1-.2.2-.2.3 0 .6-.3.7-.7.9-.6.2-1.1.2-1.6 0-.6-.3-.7-.6-.5-1.3m10.7 2.1c-.5.1-1-.1-1.5-.4-.3-.2-.6-.5-.4-1 0-.1 0-.2-.1-.3-.3-.2-.5-.5-.1-.9.1-.2-.1-.3-.1-.4-.4-.6.2-1.1.7-1.5.7-.5 1.8-.2 1.7.5.1.6.1 1.1.2 1.7.1.4.3.9.4 1.3 0 .6-.2.9-.8 1m-4 3.4c-.3-.4-.4-.8-.3-1.3.1-.3.1-.7.6-.7.1 0 .2-.1.2-.2 0-.4.2-.6.6-.5.2 0 .2-.2.3-.3.3-.6 1-.3 1.5-.1.7.3.9 1.3.4 1.5l-1.2.9c-.3.2-.6.6-.9.8-.6.4-.9.4-1.2-.1m-5.4-2.5c.3-.4.7-.7 1.2-.8.3-.1.7-.1 1 .3 0 .1.2.1.3.1.4-.1.6 0 .7.5.1.2.2.1.4.2.7.1.7.9.7 1.5 0 .8-1 1.4-1.4.9-.5-.3-.9-.6-1.4-.9-.3-.2-.8-.4-1.2-.6-.6-.4-.7-.8-.3-1.2M91.6 23c0-.6-.6-1-1.3-1.1-.2 0-.3 0-.5-.1-.1 0-.3-.1-.3-.4h1.1c.4 0 .5.2.9.3-.1-.6-.8-1-1.4-1h-.4c-.2 0-.5 0-.5-.4.4-.1.8-.2 1.1-.2.4 0 .6.1 1 .2-.2-.5-.8-.9-1.4-.8-.2 0-.3 0-.5.1-.2 0-.4.1-.5-.2.4-.1.8-.3 1.1-.3.4 0 .6 0 1.1.1-.2-.5-.9-.8-1.5-.6-.1 0-.3.1-.5.1s-.4.1-.5-.2c.4-.2.6-.3.9-.4.4-.1.7-.2 1.1 0-.3-.5-1-.7-1.6-.4-.1.1-.3.1-.5.2-.1.1-.3.1-.4-.1.3-.2.5-.4.7-.5.4-.1.7-.2 1.1-.2-.4-.4-1.1-.4-1.7-.1-.1 0-.1.1-.2.1-.2.1-.4.1-.5-.1.5-.5 1.2-.6 1.6-.6 0 0-.5-.3-.9-.1 0-.1 0-.2-.2-.4 0 .3-.5.7-.8.9-.5.4-1.1.8-1.8.9-.3.1-.5 0-.6-.1s0-.3.2-.3c.6 0 .9-.4 1.3-.7.2-.1.3-.3.5-.3-1.4-.2-2.2-.7-3.1.4-.2-.5 0-.8.3-.9.3-.2.6-.3.9-.5.5-.3.6-1 .3-1.3-.2.2-.1.4-.4.9-.2.3-.4.4-.6.3 0-.1.2-.5.3-.7l.2-.6s.1-.6-.2-.6c-.2.2-.2.2-.3.6-.1.3-.5 1.3-.8 1.1.1-.3.1-.4.2-.7.4-.3.4-.6.4-.9 0-.1 0-.4-.2-.6-.1.1-.3.6-.4.7-.2.5-.2.6-.4 1.2-1.4-.9-2.7-1.7-4-2.6s-2.6-1.9-4-2.5c.6.6 1.2 1.1 1.8 1.6.3.3.5.4.7.4.4 0 .5.2.6.2.2.1-.1.1-.4.2.2.2.3.4.5.4.7 0 .7.1.8.2.4.3-.2.2-.4.2.2.2.4.4.6.4.3 0 .6-.1.8.1.3.2-.1.2-.4.2.3.2.4.5.8.5s.5-.1.8.1c.5.3-.3.3-.7.3.3.3.5.4.7.4.3 0 .8-.1 1 .1.3.2-.2.3-.8.3.1.4.1.7-.4 1.1-.4.3-.7.7-.7 1.2-.2 1-.7 1.8-1.4 2.5-.6.6-1 1-1 2 0 .3.1.7.3.8s.6 0 .9-.1c.4-.1.7-.3 1-.5.1-.1.2 0 .1.1-.1.4-.2.9-.2 1.3v.3l.1.1c.5.2 1.2-.3 1.3-.8.1-.6.9-1.5 1.4-1.5 1.1-.1 2-.5 2.7-1.5.1-.1.1-.2.1-.4 0-.1.1-.1.2 0 0 .2 0 .4-.1.5-.1.7-.7 1.1-1.3 1.5-.2.1-.5.3-.5.5-.1.7-.3 1.2-.7 1.7-.3.4-.8.9-1.1 1.1.2 0-.1.7-.1.7.3-.2.5-.1.6.1 0-.5 1.2-.9 1.2-.9-.1.4.1 1.2-.1 1.5.3 0 .4 0 .5.4.1-.3.2-.5.4-.3.6.4 1.2.9 1.6 1.2.1.1.1.4-.3.4.6.2 1.8-.1 1.8-.1s.1.7-.1.9c.4.3.8.5 1.1.8s.5.6.6 1c.3-.5-.1-1.2-.6-1.6-.2-.2-.5-.4-.3-.8.3.2.6.4.8.7.3.3.5.6.6 1 .3-.5-.1-1.2-.6-1.6-.2-.2-.6-.4-.4-.8.3.2.6.4.8.6.3.3.5.5.6.9.3-.5-.1-1.1-.6-1.5-.2-.2-.5-.4-.4-.8.3.2.6.4.8.6.3.3.5.5.6.9.3-.5-.1-1.1-.6-1.5-.1-.1-.2-.2-.4-.3 0 0-.3-.2-.1-.5.3.2.6.4.8.6.3.3.5.5.7.9.2-.5-.2-1.1-.7-1.5-.1-.1-.2-.1-.4-.2-.1-.1-.4-.2-.3-.6.3.2.7.3.9.5.3.2.6.4.8.8.2-.5-.3-1.1-.9-1.4-.1-.1-.3-.1-.4-.2s-.3-.2-.3-.6c.3.1.7.2 1 .4s.7.4.9.7c.1-.6-.5-1.1-1.1-1.2-.1 0-.3-.1-.4-.2s-.3-.3-.3-.5c.3.1.8.2 1 .2.4.1.6.3.9.5 0-.6-.5-1-1.2-1.1-.1 0-.2 0-.4-.1-.1 0-.4-.2-.3-.5 0-.2 0-.2 0 0 .4 0 .7 0 1 .1.3-.1.5 0 .8.3m-10.8-4.1c-.1-.2-.7.5-.6.3.2-.5.4-1 .6-1.4.1-.2.2-.3.5-.4.2 0-.1.5.1.6.4.3.8.6 1.2 1-.5.3-1.5.2-1.8-.1m4.2-2c-.1.1-.2.2-.4.1s-.1-.3.1-.4c.2-.3.6-.4 1.3-.2s-.5-.1-1 .5" fill-rule="evenodd"/><path d="M86.6 15.6c.2 0 .5-.1.5-.3.1-.2.1-.5 0-.6 0 0-.1 0-.2.1-.2.2-.1.4-.1.6l-.2.2m1.2-.5c.1 0 .1.2 0 .4s-.2.2-.5.1c.2-.1.2-.2.3-.4l.2-.1m-2 .4c.2 0 .6-.2.6-.4.1-.2.1-.7 0-.8 0 0-.1-.1-.2.1-.2.4-.2.6-.2.8s-.2.3-.2.3"/></g><g clip-path="url(#a)"><path clip-rule="evenodd" d="M55.7 59.2c0 .1 0 .1 0 0" fill="#0b0c0c" fill-rule="evenodd"/></g><path clip-rule="evenodd" d="M48.6 75.5c.3.1.7.3 1 .4.2.1.3.1.5.2 2 .8 4 1.3 6.1 1.6 2 .3 4.1.4 6.1.2 1.9-.2 3.4-.6 5.2-1.2.8-.3 1.4-.6 2.1-.9.3-.2.7-.4 1-.6.1.3.1.6-.2.7-.3.2-.6.3-.9.5-.9.4-1.8.8-2.8 1.1-.9.3-1.6.4-2.3.6-.9.2-1.7.2-2.7.3-1.6.1-3.2 0-4.8-.1-1.5-.2-2.9-.5-4.3-.9l-2.1-.7c-.6-.2-.8-.4-1.4-.6l-.4-.2c-.1-.2-.1-.4-.1-.4m23.8 1.6c-.2.2-.5.3-.8.5-1.1.7-2.4 1.1-3.6 1.6-.6.2-1.3.4-1.9.6-1.3.4-2 .5-3.8.7-.7.1-1.7-.1-2.8-.3 2.3 0 4.3-.2 5.5-.5 1.7-.4 3.4-.9 4.9-1.7.5-.3 1.1-.6 1.5-1 .4-.3.9-.1 1 .1m-24.2.9c-.8-.5-1.3-1.3-1.3-1.4.5.2 1.1.6 1.7 1 .7.4.9.5 1.7.8 1 .3 1.7.5 2.7.8 1.4.4 1.3.3 2.7.6.6.1 1.5.2 2.7.2-1.6.3-2.9.1-4-.1-.8-.2-2.2-.3-3.2-.7-1.8-.4-2.2-.6-3-1.2" fill="#0b0c0c" fill-rule="evenodd"/><path clip-rule="evenodd" d="M76.1 75c-2.5 3.4-5.2 4.4-7.7 5.1-1.6.4-3.6.6-4.3.7 1.9-.4 3.6-.9 4.9-1.4 1.3-.6 2.2-.9 3.3-1.8.1-.1.2-.2.4-.1.7.2 2.7-1.6 3.4-2.5M56 81.3c-.4-.1-1.5-.4-1.7-.7 1.6.4 3.1.4 4.6.4H60c.6 0 1.4.3 1.9.3-.5.1-2.4.2-3 .2 0 0-1.6-.1-2.9-.2m14.3-6.6c-1.1.6-2 1.1-3.2 1.5-.2.1-.4.2-.6.1s-.3-.2-.2-.4c.3-.1.5-.2.8-.3 1.1-.4 1.7-.7 2.8-1.1.1 0 .5-.3.8-.4-.1.4-.3.5-.4.6m0-1.1c-.2.1-.7.4-.9.4-.8.4-.9.4-1.7.8-.3.1-1.4.5-1.3 0 1.4-.6 2.7-1.1 4.1-1.7.1.2.1.4-.2.5m3.3-3.5c1.2-.3 2.9-.3 4.1-.2v.9c-1.2-.2-2.9-.3-4.1-.5-.1 0-.1-.2 0-.2m2.2 2.1c.8.1 1.4 0 1.1.7-.1.1-.2.5-.2.6-.2.6-.6.5-1.1.5.1-.6.2-1.2.2-1.8m-6 .3c0 .3-.4.4-1 .7-.4.2-.9.4-1.2.5-.2 0-.5.1-.6-.2 1.1-.4 1.8-.7 2.7-1.2.1 0 .1.1.1.2m2.1 1.7c1.4.2 2.6.4 3.8.5 0 .2-.1.3-.3.2-.7-.1-1.5-.2-2.2-.3-.3-.1-.8-.1-1.1-.2-.2.1-.2 0-.2-.2m1.1-3.3c.2 0 .5-.1.8 0 .9.1 2.8.3 3.7.4 0 .1-.1.2-.2.3-1.3-.2-3-.4-4.3-.6-.1 0-.1-.1 0-.1m1.8 1.9c-.2-.2-.4-.4.1-.8-.8-.1-1.4-.2-2-.3-.5-.1-.7 0-.8.5-.1.4-.1.8-.2 1.3.2 0 .4.1.6.1v-1.2c0-.2 0-.5.3-.5.5.2.6.6.6 1.1v.4c0 .1.2.3.2.3.3.1.6.1 1.1.2-.6-.5-.2-.8.1-1.1m-17.1 3.5c-.9-.2-1.9-.3-2.9-.5 0-.4.9-.2 1.5-.1.8.1 1.4.3 1.4.6m-4.7.1c-.8-.2-1.7-.5-2.4-.7 0-.6 2.4.1 2.4.7m2.3.2c.8.1 1.5.3 2.2.4 0 .3-.8.2-1.3.2-.4-.1-1-.3-.9-.6m-2.6-1.7c-.3.3-.7.3-1.2.2-.1 0-.6-.1-.5-.4 0-.1.2-.1.3-.1.2 0 .4.1.7.2.2 0 .4 0 .7.1" fill="#0b0c0c" fill-rule="evenodd"/><path clip-rule="evenodd" d="M74.5 75.9c-.4-.1-.8-.1-1.2-.2-.1 0-.1-.1-.1-.3.5.1 1 .2 1.5.2-.1.2-.1.3-.2.3" fill="#0b0c0c" fill-rule="evenodd"/><path d="M78.6 68.7h-2.2c-.3 0-.2-.2-.2-.4v-5.2H76v1c0 .3-1.6 1.4-2.3 1-.3-.2-.3-.4-.3-.7-.1-.5-.3-.9-.7-1.1-.7-.3-2.1.5-2.6 1.1-.4.6-.4 4.9-.2 6.1h-.2c-.2-.1-.4-.4-.7-.8 0 0-1.2-1.6-1.2-1.7-.4-.6-.9-1.4-1.3-1.9-.4-.6.1-.6.7-.9.5-.2.8-.5 1.3-.5.7 0 .5-.2.3-.2-.5 0-.6-.3-.7-.5-.3-.6-.9-1.8-1.1-2.4l-.4-.8c-.4-.9-.9-2-1.3-2.9-.3-.6-.6-1.2-.6-1.9v-1c-.9-.2-1-.1-1.6.4-.3.3-1 .2-1.2.1.1.4.6.6.7.6.6.2.9 0 1.5-.1.2 0 .4-.1.4.1v.4c-.1 1-.4 1.9-.7 2.9s-.8 1.9-1.2 2.8c-.1.2-.2.5-.4.3-.3-.4-2.4-3.7-2.5-4.2-.1-.3.3-.3.6-.4.8-.2.8-.9 1.5-1.1.2-.1.1-.2-.3-.2-.7.1-1-.5-1.3-1-.4-.7-.8-1.4-1.2-2-.1-.2-.1-.5-.1-.7v-.6c-.3.3-.9.2-1.2.5-.4.4-.4 1.6-1.5.7.1.2.3.8 1 .8.4 0 .7-.1 1-.5.2-.3.4-.3.3-.1l-.8 2c-.3.6-.5 1.3-.9 1.7-.1.2-.2.3-.5.3-.1 0-.4 0-.4.1s0 0 .3.1c.7.1.3.6-.2 1l-.9.7c-.5.3-.7.4-1.1 0-.5-.7-1-1.5-1.5-2.2-.4-.7-.6-1.4-.5-2.2v-1.3c-.7.1-1 .5-1.4.8-.4.4-.6.9-1.2 1 .4.4 1.1.2 1.8-.4.2-.2.5-.2.5.2v.6c0 .3 0 .4-.1.5-.2.6-.5 1.2-.8 1.9-.2.5-.5 1.2-.8 1.5-.2.1-.3.2-.6.3-.5 0-.4.2-.3.2.5.1.9.2 1.3.4.5.1.8.8.6 1.1 0 .1-.1.1-.1.2-.2.2-.9 1-1.8 1.8-.8.7-1.7 1.4-2.3 1.8-.8.5-3 1.6-3.8 2.1-.6.3-1.3.9-1.8.9-.1 0-.3-.2-.3-.5 0-1 .1-2.9 0-5.1-.5 0-.4.5-1 .6-.4 0-.5.2-.5.3v1.1c.1 0 .3-.1.3-.1.6-.4.5-.2 1-.3v3.6c0 .2 0 .4-.3.4H39c-.1 0-.1.2.1.3s.4 0 .6 0c.3 0 .5.2.6.3 1.1 1.2 3.2 3.1 3.7 3.4.3.2.6.5 1 .9.3.4 1.3 2 1.5 2.2.6.2 1 .6 1.6.8.8.4 1.7.8 2.6 1.2.7.3 1.4.5 2.2.7 1 .3 2 .6 3 .7 1.2.2 1.8.2 2.8.2 1.3 0 2.6 0 3.9-.1 1.1-.1 2.1-.3 3.2-.5.7-.1 1.4-.3 2-.6.6-.2 1.2-.5 1.8-.8s1.5-.9 2.1-1.2c-.1-.2-.5-.3-.8-.1-.6.3-.7.5-1.7.9-.9.4-1.7.8-2.6 1-1.4.3-2.6.6-4.2.8-1.7.1-3.4.2-5 0-1.8-.2-2.9-.5-4.6-1-.7-.2-1.5-.4-2.2-.7-.8-.3-1.7-.8-2.2-1.2-.7-.5-.9-1.2-.8-2.8 0-.4.2-.6.4-.5.1 0 .3.1.4.1.5.2 1.1.4 1.6.6 1.5.6 2.9.9 4.3 1.2.4.1 1 .2 1.7.2 0-.2.1-.3 0-.3-.1-.1-.5-.1-.5-.3s.4-.2.5-.2c.4 0 .6.1 1 .1.1 0 .1.7 0 .8.6 0 1.1.1 1.7.1.2 0 .6 0 .6.2s0 .2-.9.2c-.1 0-.1.1 0 .1s.5.1.5.2c.3.3.2.6.2 1 0 .6.4.6.8.6 1 0 1.8 0 2.5-.1.3-.1.4-.3.4-.5-.8 0-2.6.2-2.6.1-.1 0-.1-.1-.1-.3 0-.1.1-.1.5-.2.5 0 .9-.1 1.4-.1.4 0 .5-.1.5-.3H60c-.1 0 0-.5.2-.5 1.8 0 1.9-.2 2.8-.3.2 0 .7.1.7.5 0 1 .4 1 .7.9.1 0 .6 0 .5-.7 0-.4-.2-.9 0-1.2s.8-.4 1.3-.7c.4-.2.2-.3.2-.5-.1-.3 0-.4.3-.5.6-.2 1.2-.4 1.8-.7.3-.1.6-.3.9-.4.6-.2.6-.6.9.2 0 .1 0 .1.1.3.3-.2.7-.3.7-.5.1-.7.6-1.2 1-1.7s.9-1.1 1.6-1.2h4.9c.1.1.4-.3 0-.2zm-20-4.6c-.2 0-.3.1-.2-.6.1-1 .3-4.4.3-4.7 0-.6.2-.5.2.2v4.5c-.1.1.1.6-.3.6zM56.9 63c-.1-.1-.1-.3 0-.6.1-.1 1.2-3.7 1.2-3.9.1-.3.2-.5.2.1 0 .1-.3 4-.3 4.5 0 .2 0 .8-.2.7-.1-.1-.8-.6-.9-.8zm.7 1.4c-.6.2-1 .3-1.5.4-.3.1-.3 0-.2-.2.2-.4.3-.6.5-1.1 0-.1.1-.2.2-.2.3.2.6.5 1 .8.2.2 0 .3 0 .3zm-.1-7.5c.3-.8.7-1.6 1-2.5.2-.4.2-.2.2 0v2.1c0 .2-.1.3-.3.3-.2.1-.5.2-.9.3 0 .1-.1.1 0-.2zM55.8 60c.2-.1 0-.2-.4-.2-.2 0 0-.1 0-.1.2-.2 1.2-1 1.4-1.1s.7-.5.9-.5c.2.1.1.2.1.3s-1 3.5-1.3 4.1c-.1.2-.2.1-.2.1-.5-.6-1-1.1-1.4-1.8-.1-.4.3-.6.9-.8zm-1.7.9c.3-.2.5 0 .7.2.5.6.9 1.1 1.4 1.7.1.1.1.3.1.4l-.8 1.6c-.1.2-.3.2-.5-.1-.3-.6-1.2-2.6-1.3-2.9v-.3c0-.1.2-.5.4-.6zm1.2 5.2c.2.3.3.4-.1.4h-1c-.3 0-.3-.2-.4-.5 0-.1-.4-2.9-.5-3.5 0-.2.1-.2.2 0 .3.9 1.5 3.3 1.8 3.6zm-3.1.9c-.2.1-.3.1-.3.1-.1-.1 0-.2.1-.4s0-.1.1-.2.2 0 .2.1 0 .4-.1.4zm-.7.1c-.1.1-.2.2-.3.2-.7 0-1.1.1-1.4 0s-.4-.2-.2-.5c.1-.1.3-.4.4-.6s.2-.4.4-.7c0-.1.1-.1.1-.1.1 0 .3.1.4.1.3.1.5.2 1.1.3.3.1 0 .4-.2.7l-.3.6zm.7-4.1v2.3c0 .1 0 .2-.1.3-.1 0-.3-.1-.4-.1-.3-.1-.5-.1-.8-.3-.3-.1 0-.4 0-.6.2-.6.4-1 .7-1.7.1-.1.2-.6.4-.5.2.2.2.5.2.6zm-.7-3.2c-.5 0-.5-.2-.4-.4.2-.7.6-1.4.8-2 .1-.2.1-.2.1 0v2c.1.4-.1.4-.5.4zm-7.2 12.7c-.6-.5-1.8-1.6-2.6-2.4-.1-.1-.9-.8-.8-1.1.1-.2.4-.1.9-.2h1c.8 0 1 .4 1.2.6 0 0 0 .1.1.1.3.3.5.6.7 1.2.1.8.9 3-.5 1.8zm2.4 2c-.2.1-.4-.2-.5-.4-.3-.3-.3-.7-.5-1.2-.3-.9-.5-2.1 0-1.7.4.2.3.2.6.4s.3.7.3.8c.1.6.1.9.2 1.6 0 .3.1.5-.1.5zm-.1-3.3c-.4-.1-.7-.5-1.4-1-.4-.3-1.2-1.2-.8-1.2h2.3c.6 0 .5.2.6.5.1.4 0 1 0 1.3 0 .4-.3.5-.7.4zm1.9.6c-.2-.1-.4-.2-.6-.2-.2-.1-.2-.4-.3-.6-.1-.8-.1-1.2-.1-2 0-.3-.2-.4-.4-.4h-4.4c-.2 0 .5-.5.6-.5.9-.5 3.4-1.9 4.1-2.3.8-.5 1.7-1.3 2.5-2 .7-.6 1.1-1.1 1.5-1.5.3-.4.4 0 .3.2-.1.4-.1.4-.2.6-.2.4-.4.8-.6 1.3-.4.8-1.6 2.7-1.7 2.8 0 .1-.6 0-.3.3.1.1.7.1.8.2.5.1 1.4.2 1.4.6 0 .2-.2.8-.2.8s-1.1 2.1-1.5 2.8c-.2.1-.2.2-.9-.1zm1.2.4c-.2-.1 0-.3.1-.4.1-.3.2-.6.4-.8l1-2.1c.1-.2.2-.4.5-.4.4.1.4.3.3.7s-.4.9-.5 1.3l-.6 1.1c-.1.1-.2.3-.2.4-.4.5-.8.2-1 .2zm1 .1c-.1-.2.2-.5.3-.8l.4-.9c.1-.1.3-.7.4-.9 0-.1.2-.4.2-.4.2-.6.3.1.2.3 0 .1-.6 2.1-.7 2.5-.1.2-.2.5-.3.5-.2-.1-.5-.2-.5-.3zm.3 1.4c-.3-.2-.4-.5-.2-.8.4.1.8.3 1.2.4-.1.5-.5.7-1 .4zm1.4-1.3c0 .2 0 .5-.2.5-.1 0-.3-.1-.5-.2-.1-.1-.2-.1-.1-.3.2-.6.4-1.1.5-1.7 0-.1.1-.4.2-.5.1-.2.1.1.1.4zm.1-13.4c0-.5 0-1.1-.1-1.6v-.2c0-.2.1-.1.1 0 .2.2.6.9.8 1.2.2.4.4.6.6 1 .1.2 0 .4-.2.4h-.2c-1-.1-1 .1-1-.8zm.2 4.3v-.9c0-.2.2-.1.3 0 .1.2.4 2.1.4 2.7 0 .1 0 .2-.1.2H53c-.2 0-.2-.4-.2-.8 0-.2-.1-.8-.1-1.2zm.2 3c0-.3 0-.5.2-.6.1 0 .1-.1.2-.1s.2.1.2.2.1.4.1.6 0 .3-.3.4c-.2 0-.4.2-.4-.5zm1 7.1c-.1 0-.2 0-.3-.1-.1 0-.3-.1-.3-.2v-.7c0-1.1-.1-2.2-.2-3.3v-.7c.1-.1.1-.1.2-.1.3 0 .3.6.3.7.1.5.5 3.9.5 4-.1.3-.1.4-.2.4zm.9.1c-.2 0-.4 0-.5-.1v-.3c-.1-.3-.5-3.7-.6-4.7 0-.1.1-.2.1 0 .2.5 1.1 4.4 1.2 5 0 .1-.1.1-.2.1zm.8.1c-.1 0-.2 0-.3-.1-.1 0-.1-.2-.2-.3-.3-1.2-1-4.1-1.2-4.7-.1-.4-.2-.6.2-.8.5-.2 1.2-.6 1.7-.8.1-.1.3-.2.3-.3 0-.2-.3-.1-.3-.2-.2-.3-.3-.6-.5-.9 0-.1 0-.1.1-.1h2.3c.5 0 .4.4.3.7-.2.9-1.8 6.1-1.9 6.5-.1.3-.3 1-.5 1zm1.4-.2c-.1.2-.1.3-.2.3-.2 0-.6 0-.7-.1-.1-.2 0-.3.1-.5.2-.4 2-6.6 2.1-6.9 0-.1.1-.7.4-.7.4 0 .2.4.2.5 0 .3-.2 1.1-.3 1.4-.3 1.2-.6 2.5-1 3.8-.1.5-.3 1-.4 1.4 0 .3-.1.6-.2.8zm1.9.1c0 .2-.1.4-.2.4s-1 0-1.2-.2-.1-.4-.1-.7c0-.2.1-.4.2-.6.3-.9 1-4 1.2-4.7 0-.2.1-.1.1.2v4.4zm5.8-2.3v1.5c0 .6-.1.6-.5.7-.3.1-.6.2-.8.1-.1-.1-.1-.3-.1-.5.2-.9 1-5.4 1.1-6.1 0-.2.1-.5.1-.2.2.6.2 3.6.2 4.5zm-3.4-6.1h.4c.6.2 1.1.3 1.6.6.2.1.6.2.5.6-.2 1.1-.6 2.2-1 3.4 0 .1-.1.4-.2.6 0 .1-.1.4-.3-.1-.2-.8-1.4-4.7-1.5-4.8-.2-.4-.1-.7.4-.9.2-.1.1-.1.3-.1l-.3.6s0 .1-.1.1c-.2-.1 0 .1.2 0zm2.9 1.1c.1-.3.3-.2.2.1-.1.6-1.1 6.3-1.3 7.1-.1.3-.5.4-1 .5-.1 0-.1-.1-.1-.2.6-2.2 1.6-5.6 2.2-7.5zm.4-7.4c0 .3.1 3.9.1 4.6 0 .3-.3.5-.6.7-.2.2-.6 0-.5-.2 0 0 .9-4.9.9-5.4 0-.2.1-.1.1.3zm-2.2 4.4c.2-.2.3-.1.3-.4 0-.2-.3 0-.2-.2l.3-.7c.3-.7.8-1.5 1-2 .2-.2.2-.1.2.1 0 .1-.6 3.8-.7 4-.1.1-.1.4-.8.6-.2.1-.6.2-.8.2-.1 0 0-.1 0-.1s.6-1.3.7-1.5zm-2.6-4.1c.1.2 1.6 2.4 2.3 3.7.1.2-.1.3-.3.4l-.6.2c-.4.1-.5-.2-.7-.6-.1-.5-1-3.4-1-3.6.1-.2.2-.2.3-.1zm-.7-2.9c0-.5-.1-1-.1-1.5 0-.6 0-.7.1-.5.5.8.9 1.4 1.3 2.1.2.3-.1.3-.2.3-.2 0-.5.1-.7.1-.4-.1-.4-.1-.4-.5zm.3 7.5c0-.9-.1-2.3-.1-3.4-.1-1.2 0-1.1.2-.4.2.6.7 2.5.9 3 .1.2.2.7.1.7-.2.1-.6.2-.8.2-.2.2-.3.1-.3-.1zm1.7 10.2h-1c-.2 0-.3-.3-.3-.5 0-.4-.1-2.9-.2-3.8 0-.8 0-1.4-.1-2.2 0-.2-.1-1.1 0-1.1s.3.8.3.9c.2.8.4 1.7.6 2.6.3 1.2.6 2.3.8 3.5.3.5.3.6-.1.6zm.5-.8c-.2-.8-1.9-7-1.9-7.5 0-.2.2-.4.5-.6.2-.2.3.3.4.4.4 1.2.8 2.4 1.1 3.6.2.6.3 1.2.5 1.8.1.2 0 .3 0 .6 0 .2-.3 1.3-.4 1.5 0 .2-.1.3-.2.2zm1.7 1.7c-.8.1-1.2 0-1.5-.5.9-.2 1.7-.4 2.7-.5 0 .5-.5.9-1.2 1zm1.2 1.7c-.2 0-.3 0-.4-.3s0-.4.3-.4c.2-.1.3.2.3.4.1.1 0 .3-.2.3zm.3-18.4c0-.1 0-.6.2-.2.1.1 1 2.3 1.4 3.1.1.3.1.5-.2.8-.3.4-.6.7-1 1.1-.1.2-.2.1-.2-.1 0-.5-.1-3.8-.2-4.7zm.2 5.8c0-.2.1-.4.3-.6.4-.5.8-1 1.3-1.5.1-.1.1 0 .1 0 .3.7.6 1.2.8 1.8.2.4-.1.8-.5.8s-.8 0-1.2-.1c-.4 0-.8-.1-.8-.4zm.6 8.4c-.1 0-.2 0-.2-.4 0-.8-.1-3.2-.1-4 0-.1.3 1.1.4 1.4.1.5.6 2.2.6 2.6-.1.2-.3.3-.7.4zm1.8-.8c-.1.2-.5.3-.6.3-.3.1-.3-.2-.5-.9-.3-1.2-.7-2.5-1-3.8-.1-.3-.1-.6-.2-.9s.1-.3.2-.1c.2.3 1.8 4.4 2 4.8.1.3.2.5.1.6zm1.1-.2c-.5.2-.6.2-.8 0l-2.1-4.9c-.3-.7.2-.7.3-.5.4.8 3 4.4 3.1 4.6.4.4-.1.6-.5.8zm7.4-3.1c0 .2 0 .4-.2.4H74c-.5 0-1 .2-1.2.3-.5.2-.9.5-1.7.9-.3.1-.4.2-.6.3-.1.1-.3.1-.4.2.6-1.1 1.4-2.3 2.2-2.4.3 0 .7.3 1.1.3.6 0 1.1-.5 1.4-.8.6-.5 1.1-.4 1.2-.3-.1.2-.1.6-.1 1.1zm0-1.9c-.6-.2-1.3.3-2 .8-.6.6-.8.3-1.8-.1S70 68.1 70 68.1s-.3-2.4.2-3.5c.5-.6 2.1-1.5 2.2-.4.2.9 1 1.1 1.3 1.2 1 .1 2.1-.9 2.1-.9s.1 1.4.1 1.8z" fill="#0b0c0c"/></svg>