<svg width="127" height="60" viewBox="0 0 127 60" xmlns="http://www.w3.org/2000/svg" xmlns:xlink="http://www.w3.org/1999/xlink"><title>DIT stacked logo</title><defs><path id="a" d="M8.034 11.134h8.024V.034H.01v11.1z"/></defs><g fill="none" fill-rule="evenodd"><path fill="#BF243A" d="M.019 59.85h1.268V.1H.02z"/><path d="M11.597 42.524c.164 0 .368-.012.613-.038a3.566 3.566 0 0 0 1.602-.605c.271-.183.514-.433.73-.75.214-.316.39-.712.528-1.186.138-.475.207-1.049.207-1.723a7.3 7.3 0 0 0-.192-1.753 3.362 3.362 0 0 0-.628-1.316 2.763 2.763 0 0 0-1.127-.827c-.46-.189-1.027-.283-1.702-.283H9.175v8.481h2.422zm-.123-9.706c1.687 0 2.985.428 3.895 1.286.91.857 1.365 2.164 1.365 3.92 0 .918-.103 1.732-.307 2.441-.204.71-.521 1.306-.95 1.791-.43.485-.977.855-1.641 1.11-.665.256-1.452.383-2.362.383H7.718v-10.93h3.756zm11.87 5.343a2.23 2.23 0 0 0-.476-.712 2.23 2.23 0 0 0-1.602-.65 2.27 2.27 0 0 0-.913.176 2.11 2.11 0 0 0-.697.482 2.313 2.313 0 0 0-.46.712c-.113.27-.179.559-.2.865h4.554a2.66 2.66 0 0 0-.206-.873zm.314 5.083c-.593.449-1.34.674-2.239.674-.634 0-1.183-.103-1.648-.307a3.245 3.245 0 0 1-1.173-.857 3.633 3.633 0 0 1-.713-1.317 6.326 6.326 0 0 1-.268-1.668c0-.602.092-1.154.276-1.654.184-.5.442-.934.774-1.301a3.51 3.51 0 0 1 1.18-.857 3.609 3.609 0 0 1 1.496-.307c.705 0 1.29.146 1.755.437.465.29.838.66 1.12 1.11.28.449.475.939.582 1.47.107.53.15 1.035.13 1.515h-5.933c-.01.347.03.676.122.987.092.312.24.588.445.827.204.24.465.431.782.574.317.143.69.215 1.12.215.551 0 1.004-.128 1.356-.383.353-.255.585-.643.698-1.164h1.288c-.174.888-.558 1.557-1.15 2.006zm8.381-4.601a2.92 2.92 0 0 0-.445-.941 2.184 2.184 0 0 0-.766-.658c-.312-.163-.678-.245-1.097-.245-.44 0-.812.086-1.12.26-.306.173-.556.4-.75.681-.195.28-.335.6-.422.957a4.59 4.59 0 0 0-.13 1.087c0 .388.046.763.138 1.125.092.362.237.681.437.957.2.276.457.497.774.666.317.168.7.253 1.15.253.45 0 .825-.087 1.127-.26a2.1 2.1 0 0 0 .728-.69c.184-.285.317-.612.399-.98.082-.367.123-.744.123-1.133 0-.367-.049-.727-.146-1.079zm-4.684-2.81v1.073h.03a1.952 1.952 0 0 1 1.012-.957 3.79 3.79 0 0 1 1.518-.299c.614 0 1.148.113 1.603.337a3.27 3.27 0 0 1 1.134.911c.301.383.53.824.682 1.324.154.5.23 1.031.23 1.592 0 .562-.074 1.093-.222 1.593-.148.5-.373.936-.675 1.309-.301.372-.68.666-1.134.88-.455.214-.984.322-1.587.322a3.953 3.953 0 0 1-1.365-.26 2.779 2.779 0 0 1-.667-.376 2.092 2.092 0 0 1-.529-.59h-.03v4.073H26.05V35.834h1.304zm12.285 3.828a1.625 1.625 0 0 1-.643.267 9.615 9.615 0 0 1-.836.137c-.291.036-.585.077-.882.122-.296.046-.562.12-.797.22a1.442 1.442 0 0 0-.575.435c-.148.188-.222.444-.222.77 0 .213.043.393.13.54.087.147.2.267.337.358.138.092.3.158.483.199.184.04.378.06.583.06.43 0 .797-.058 1.104-.175a2.32 2.32 0 0 0 .751-.442 1.74 1.74 0 0 0 .43-.578 1.46 1.46 0 0 0 .138-.587V39.66zm2.117 4.057c-.225.133-.537.2-.936.2-.337 0-.605-.095-.805-.284-.199-.188-.299-.497-.299-.926a3.115 3.115 0 0 1-1.25.926 4.14 4.14 0 0 1-1.54.284c-.358 0-.698-.042-1.02-.123a2.359 2.359 0 0 1-.835-.383 1.83 1.83 0 0 1-.56-.681c-.138-.28-.207-.62-.207-1.018 0-.45.076-.817.23-1.102a2 2 0 0 1 .606-.697c.25-.179.536-.314.858-.406.322-.092.652-.168.989-.23.358-.07.698-.124 1.02-.16.322-.036.605-.087.85-.153.246-.066.44-.163.583-.291.143-.127.215-.314.215-.559 0-.286-.054-.515-.161-.689a1.1 1.1 0 0 0-.414-.398 1.677 1.677 0 0 0-.567-.183 4.243 4.243 0 0 0-.621-.046c-.552 0-1.012.104-1.38.313-.368.21-.568.605-.598 1.187h-1.303c.02-.49.122-.904.306-1.24.184-.337.43-.61.736-.819.307-.21.657-.36 1.05-.452a5.552 5.552 0 0 1 1.265-.138c.358 0 .713.026 1.066.077.353.05.672.155.958.313.286.158.516.38.69.665.174.285.26.656.26 1.114v4.064c0 .306.019.53.054.672.036.143.156.214.361.214.112 0 .245-.02.399-.061v1.01zm2.133-7.884v1.669h.03c.317-.643.705-1.118 1.165-1.424.46-.306 1.043-.45 1.748-.429v1.378c-.521 0-.966.072-1.334.215a2.1 2.1 0 0 0-.889.627 2.58 2.58 0 0 0-.49 1.003 5.39 5.39 0 0 0-.154 1.355v3.521h-1.303v-7.915h1.226m7.495 0v1.148h-1.58v4.915c0 .153.013.275.039.367a.378.378 0 0 0 .145.214.643.643 0 0 0 .3.1c.127.015.293.023.498.023h.598v1.148h-.997c-.337 0-.626-.023-.866-.069a1.273 1.273 0 0 1-.583-.252 1.08 1.08 0 0 1-.33-.521c-.071-.224-.107-.52-.107-.888v-5.037h-1.349v-1.148h1.35V33.46h1.302v2.373h1.58m2.236.001v1.164h.032c.592-.898 1.446-1.348 2.56-1.348.49 0 .936.103 1.334.307.399.204.68.55.843 1.04.266-.428.616-.76 1.05-.995a2.966 2.966 0 0 1 1.434-.352c.399 0 .76.044 1.081.13.322.087.598.222.828.406.23.184.409.421.537.712.128.29.192.64.192 1.049v5.802h-1.304v-5.19c0-.245-.02-.474-.061-.689a1.41 1.41 0 0 0-.23-.558 1.148 1.148 0 0 0-.468-.376c-.199-.091-.457-.137-.774-.137-.644 0-1.15.183-1.518.55-.368.368-.552.858-.552 1.47v4.93h-1.303v-5.19c0-.255-.023-.49-.07-.704a1.498 1.498 0 0 0-.237-.559 1.114 1.114 0 0 0-.452-.368c-.19-.086-.432-.13-.729-.13-.378 0-.702.077-.973.23a2.202 2.202 0 0 0-1.028 1.217 1.89 1.89 0 0 0-.115.574v4.93h-1.303v-7.915h1.227m16.794 2.327a2.22 2.22 0 0 0-.475-.712 2.23 2.23 0 0 0-1.602-.65c-.338 0-.642.058-.913.176a2.103 2.103 0 0 0-.698.482 2.307 2.307 0 0 0-.46.712 2.7 2.7 0 0 0-.2.865h4.555a2.66 2.66 0 0 0-.207-.873zm.314 5.083c-.593.449-1.339.674-2.239.674-.633 0-1.183-.103-1.648-.307a3.245 3.245 0 0 1-1.173-.857 3.632 3.632 0 0 1-.713-1.317 6.313 6.313 0 0 1-.268-1.668c0-.602.092-1.154.276-1.654.184-.5.442-.934.774-1.301a3.514 3.514 0 0 1 1.181-.857 3.607 3.607 0 0 1 1.495-.307c.705 0 1.29.146 1.755.437.466.29.839.66 1.12 1.11.28.449.475.939.582 1.47a6.22 6.22 0 0 1 .13 1.515h-5.933c-.01.347.03.676.123.987.092.312.24.588.444.827.204.24.465.431.782.574.317.143.69.215 1.12.215.552 0 1.004-.128 1.357-.383.352-.255.584-.643.697-1.164h1.288c-.174.888-.557 1.557-1.15 2.006zm3.599-7.41v1.256h.03c.542-.96 1.4-1.44 2.576-1.44.521 0 .956.072 1.304.215.347.143.628.342.843.597.214.255.365.559.452.91.087.353.13.743.13 1.172v5.205H78.36v-5.358c0-.49-.143-.878-.43-1.164-.285-.286-.679-.428-1.18-.428-.399 0-.744.06-1.035.183a1.943 1.943 0 0 0-.728.52c-.194.225-.34.488-.437.79a3.2 3.2 0 0 0-.146.987v4.47h-1.303v-7.915h1.227m10.248 0v1.148h-1.58v4.915c0 .153.013.275.04.367a.377.377 0 0 0 .145.214.64.64 0 0 0 .299.1c.128.015.294.023.498.023h.598v1.148h-.996a4.67 4.67 0 0 1-.867-.069 1.273 1.273 0 0 1-.582-.252 1.077 1.077 0 0 1-.33-.521c-.072-.224-.107-.52-.107-.888v-5.037h-1.35v-1.148h1.35V33.46h1.303v2.373h1.58m4.599 1.149v-1.148h1.334v-1.179c0-.643.186-1.13.56-1.462.372-.332.917-.497 1.632-.497.123 0 .264.01.422.03.158.02.3.051.422.092v1.133a1.651 1.651 0 0 0-.368-.084 3.267 3.267 0 0 0-.368-.023c-.317 0-.562.06-.736.183-.174.123-.261.358-.261.705v1.102h1.533v1.148h-1.533v6.767H90.51v-6.767h-1.334m5.958 4.095c.128.373.304.684.529.934a2.343 2.343 0 0 0 1.748.774c.337 0 .657-.067.958-.2.302-.132.565-.324.79-.574.225-.25.4-.56.529-.934.128-.372.192-.798.192-1.278s-.064-.905-.192-1.278a2.766 2.766 0 0 0-.529-.942 2.258 2.258 0 0 0-.79-.581 2.353 2.353 0 0 0-.958-.2c-.337 0-.657.067-.958.2a2.252 2.252 0 0 0-.79.581c-.225.256-.401.57-.529.942a3.93 3.93 0 0 0-.192 1.278c0 .48.064.906.192 1.278zm-1.326-2.908c.163-.505.409-.944.736-1.317.327-.372.73-.666 1.21-.88.481-.214 1.033-.322 1.657-.322.634 0 1.188.108 1.664.322.475.214.876.508 1.203.88.327.373.573.812.736 1.317.164.505.246 1.048.246 1.63 0 .582-.082 1.123-.246 1.623-.163.5-.409.936-.736 1.309a3.395 3.395 0 0 1-1.203.872c-.476.21-1.03.315-1.664.315-.624 0-1.176-.105-1.656-.315-.48-.208-.884-.5-1.211-.872a3.701 3.701 0 0 1-.736-1.309 5.192 5.192 0 0 1-.246-1.623c0-.582.082-1.125.246-1.63zm9.86-2.335v1.669h.03c.317-.643.706-1.118 1.166-1.424.46-.306 1.043-.45 1.748-.429v1.378c-.521 0-.966.072-1.334.215a2.103 2.103 0 0 0-.89.627c-.224.276-.388.61-.49 1.003a5.405 5.405 0 0 0-.153 1.355v3.521h-1.303v-7.915h1.226M7.78 59.831h1.456v-10.93H7.779zm4.508-7.915v1.256h.031c.542-.96 1.4-1.44 2.576-1.44.522 0 .956.072 1.303.215.348.143.629.342.844.597.215.256.365.56.452.911.087.352.13.743.13 1.171v5.205h-1.303v-5.358c0-.49-.143-.878-.43-1.163-.285-.286-.68-.429-1.18-.429-.398 0-.743.061-1.035.184a1.939 1.939 0 0 0-.728.52 2.25 2.25 0 0 0-.437.789c-.098.3-.146.63-.146.987v4.47h-1.303v-7.915h1.226m10.249 0v1.149h-1.58v4.914c0 .153.013.275.04.367a.377.377 0 0 0 .145.215.64.64 0 0 0 .299.1c.127.015.293.022.498.022h.598v1.148h-.997c-.337 0-.626-.022-.866-.069a1.273 1.273 0 0 1-.583-.252 1.077 1.077 0 0 1-.33-.52c-.071-.225-.107-.52-.107-.889v-5.036h-1.349v-1.149h1.35v-2.372h1.303v2.372h1.579m6.097 2.328a2.22 2.22 0 0 0-.475-.712 2.23 2.23 0 0 0-1.602-.65 2.258 2.258 0 0 0-.912.175 2.106 2.106 0 0 0-.698.482 2.307 2.307 0 0 0-.46.712 2.7 2.7 0 0 0-.2.865h4.555a2.66 2.66 0 0 0-.208-.872zm.315 5.082c-.593.45-1.34.674-2.239.674-.633 0-1.183-.102-1.648-.306a3.241 3.241 0 0 1-1.173-.858 3.628 3.628 0 0 1-.713-1.316 6.313 6.313 0 0 1-.268-1.669c0-.602.092-1.153.276-1.653.184-.5.442-.934.774-1.302a3.514 3.514 0 0 1 1.18-.857 3.607 3.607 0 0 1 1.496-.306c.705 0 1.29.145 1.755.436.465.291.838.661 1.12 1.11.28.45.475.94.582 1.47.108.53.151 1.036.13 1.516h-5.933c-.01.347.03.676.122.987.093.311.24.587.445.826.204.24.465.432.782.574.317.144.69.215 1.12.215.551 0 1.004-.127 1.356-.383.353-.255.585-.643.698-1.163h1.288c-.174.888-.557 1.556-1.15 2.005zm3.577-7.41v1.67h.03c.317-.644.706-1.118 1.166-1.425.46-.306 1.043-.448 1.748-.428v1.378c-.521 0-.966.071-1.334.214a2.1 2.1 0 0 0-.89.628c-.224.275-.388.61-.49 1.002a5.39 5.39 0 0 0-.153 1.355v3.521h-1.304v-7.915h1.227m4.884 0v1.256h.032c.541-.96 1.4-1.44 2.575-1.44.522 0 .956.072 1.304.215.347.143.628.342.843.597.215.256.366.56.453.911.086.352.13.743.13 1.171v5.205h-1.303v-5.358c0-.49-.144-.878-.43-1.163-.286-.286-.68-.429-1.18-.429-.399 0-.744.061-1.036.184a1.939 1.939 0 0 0-.728.52 2.25 2.25 0 0 0-.437.789c-.097.3-.145.63-.145.987v4.47h-1.304v-7.915h1.227m11.841 3.828a1.62 1.62 0 0 1-.644.266 9.627 9.627 0 0 1-.835.138c-.291.035-.585.076-.882.121-.297.046-.562.12-.797.221a1.441 1.441 0 0 0-.575.435c-.148.188-.222.444-.222.769 0 .213.043.393.13.54.087.148.2.267.337.359.138.091.3.157.483.198.184.04.378.06.583.06.43 0 .797-.057 1.104-.174a2.32 2.32 0 0 0 .751-.442c.194-.178.338-.37.43-.579.091-.208.137-.404.137-.587v-1.325zm2.116 4.057c-.224.132-.536.199-.935.199-.337 0-.606-.095-.805-.283-.2-.189-.299-.498-.299-.927a3.115 3.115 0 0 1-1.25.927 4.15 4.15 0 0 1-1.54.283 4.12 4.12 0 0 1-1.02-.123 2.36 2.36 0 0 1-.836-.382 1.836 1.836 0 0 1-.56-.682c-.137-.28-.206-.62-.206-1.018 0-.449.076-.816.23-1.102a2 2 0 0 1 .605-.696c.25-.18.537-.314.859-.406.322-.092.652-.169.989-.23.357-.071.698-.125 1.02-.16.322-.036.605-.087.85-.154.246-.066.44-.163.583-.29.143-.128.215-.314.215-.56 0-.285-.054-.515-.161-.688a1.1 1.1 0 0 0-.414-.398 1.677 1.677 0 0 0-.567-.184 4.25 4.25 0 0 0-.621-.046c-.552 0-1.012.105-1.38.314-.368.21-.568.605-.598 1.186h-1.304c.02-.49.123-.903.307-1.24.184-.337.43-.61.736-.819.307-.209.657-.36 1.05-.451a5.552 5.552 0 0 1 1.265-.138c.358 0 .713.025 1.066.076.353.051.672.155.958.313.286.158.516.38.69.665.174.285.26.657.26 1.115v4.064c0 .305.019.53.054.672.036.143.156.214.36.214.113 0 .246-.02.4-.062v1.01zm4.194-7.885v1.149h-1.58v4.914c0 .153.013.275.039.367a.377.377 0 0 0 .146.215.64.64 0 0 0 .299.1c.127.015.293.022.498.022h.598v1.148h-.997a4.67 4.67 0 0 1-.866-.069 1.273 1.273 0 0 1-.583-.252 1.077 1.077 0 0 1-.33-.52c-.071-.225-.107-.52-.107-.889v-5.036H51.33v-1.149h1.35v-2.372h1.302v2.372h1.58m1.072 7.915h1.303v-7.915h-1.303v7.915zm0-9.338h1.303V48.9h-1.303v1.592zm4.124 6.667c.128.373.304.684.529.934a2.34 2.34 0 0 0 1.748.774c.337 0 .656-.067.958-.2.302-.132.565-.324.79-.574.225-.25.4-.561.529-.934.127-.372.191-.799.191-1.278 0-.48-.064-.906-.191-1.279a2.761 2.761 0 0 0-.53-.941 2.254 2.254 0 0 0-.789-.582 2.354 2.354 0 0 0-.958-.199c-.338 0-.657.067-.959.2a2.254 2.254 0 0 0-.79.581c-.224.255-.4.569-.528.941a3.93 3.93 0 0 0-.192 1.279c0 .48.064.906.192 1.278zm-1.326-2.909c.163-.505.408-.944.736-1.316.326-.373.73-.666 1.21-.88.481-.215 1.033-.322 1.657-.322.634 0 1.188.107 1.663.321.476.215.877.508 1.204.88.327.373.572.812.736 1.317a5.28 5.28 0 0 1 .245 1.63c0 .582-.082 1.123-.245 1.623-.164.5-.409.937-.736 1.31a3.394 3.394 0 0 1-1.204.872c-.475.21-1.03.314-1.663.314-.624 0-1.176-.105-1.656-.314-.48-.209-.885-.5-1.211-.873a3.691 3.691 0 0 1-.736-1.309 5.183 5.183 0 0 1-.246-1.622c0-.582.082-1.126.246-1.63zm9.882-2.335v1.256h.03c.542-.96 1.4-1.44 2.576-1.44.521 0 .956.072 1.303.215.348.143.629.342.844.597.214.256.365.56.452.911.087.352.13.743.13 1.171v5.205h-1.303v-5.358c0-.49-.143-.878-.43-1.163-.286-.286-.68-.429-1.18-.429-.399 0-.744.061-1.035.184a1.938 1.938 0 0 0-.728.52c-.195.225-.34.488-.437.789-.098.3-.146.63-.146.987v4.47h-1.303v-7.915h1.227m11.841 3.828c-.163.122-.378.21-.644.266a9.615 9.615 0 0 1-.836.138 28.57 28.57 0 0 0-.881.121c-.297.046-.562.12-.797.221a1.442 1.442 0 0 0-.576.435c-.148.188-.222.444-.222.769 0 .213.044.393.13.54.087.148.2.267.338.359.138.091.299.157.483.198.184.04.378.06.583.06.429 0 .797-.057 1.104-.174a2.32 2.32 0 0 0 .75-.442 1.73 1.73 0 0 0 .43-.579c.092-.208.138-.404.138-.587v-1.325zm2.116 4.057c-.225.132-.537.199-.935.199-.338 0-.606-.095-.805-.283-.2-.189-.3-.498-.3-.927a3.115 3.115 0 0 1-1.249.927 4.14 4.14 0 0 1-1.54.283c-.359 0-.698-.041-1.02-.123a2.359 2.359 0 0 1-.836-.382 1.83 1.83 0 0 1-.56-.682c-.138-.28-.207-.62-.207-1.018 0-.449.077-.816.23-1.102.153-.286.355-.518.606-.696.25-.18.537-.314.859-.406.322-.092.651-.169.988-.23.358-.071.698-.125 1.02-.16.322-.036.606-.087.851-.154.245-.066.44-.163.583-.29.143-.128.214-.314.214-.56 0-.285-.053-.515-.16-.688a1.1 1.1 0 0 0-.415-.398 1.677 1.677 0 0 0-.567-.184 4.243 4.243 0 0 0-.62-.046c-.553 0-1.013.105-1.38.314-.369.21-.568.605-.599 1.186h-1.303c.02-.49.123-.903.307-1.24.184-.337.429-.61.736-.819.306-.209.656-.36 1.05-.451a5.552 5.552 0 0 1 1.265-.138c.357 0 .713.025 1.066.076a2.8 2.8 0 0 1 .958.313c.286.158.516.38.69.665.173.285.26.657.26 1.115v4.064c0 .305.018.53.054.672.036.143.156.214.36.214.113 0 .246-.02.4-.062v1.01zm.986.03h1.303v-10.93h-1.303zm6.333-9.706v-1.224h8.754v1.224h-3.649v9.706h-1.457v-9.706H90.59" fill="#1A1919"/><path d="M99.84 51.916v1.67h.032c.316-.644.705-1.118 1.165-1.425.46-.306 1.043-.448 1.748-.428v1.378c-.522 0-.966.071-1.334.214a2.103 2.103 0 0 0-.89.628c-.224.275-.388.61-.49 1.002a5.405 5.405 0 0 0-.154 1.355v3.521h-1.303v-7.915h1.227m8.532 3.828a1.62 1.62 0 0 1-.644.266 9.615 9.615 0 0 1-.835.138c-.292.035-.585.076-.882.121-.297.046-.562.12-.797.221a1.445 1.445 0 0 0-.575.435c-.148.188-.222.444-.222.769 0 .213.043.393.13.54.086.148.2.267.337.359.138.091.3.157.483.198.184.04.378.06.583.06.43 0 .797-.057 1.104-.174a2.32 2.32 0 0 0 .751-.442c.194-.178.338-.37.43-.579.091-.208.137-.404.137-.587v-1.325zm2.116 4.057c-.225.132-.536.199-.935.199-.337 0-.606-.095-.805-.283-.2-.189-.3-.498-.3-.927a3.115 3.115 0 0 1-1.249.927 4.14 4.14 0 0 1-1.54.283 4.12 4.12 0 0 1-1.02-.123 2.362 2.362 0 0 1-.836-.382 1.83 1.83 0 0 1-.56-.682c-.137-.28-.206-.62-.206-1.018 0-.449.076-.816.23-1.102.153-.286.355-.518.605-.696.25-.18.537-.314.859-.406.322-.092.651-.169.989-.23.357-.071.698-.125 1.02-.16.322-.036.605-.087.85-.154.246-.066.44-.163.583-.29.143-.128.215-.314.215-.56 0-.285-.054-.515-.161-.688a1.1 1.1 0 0 0-.414-.398 1.677 1.677 0 0 0-.567-.184 4.25 4.25 0 0 0-.622-.046c-.552 0-1.011.105-1.38.314-.367.21-.567.605-.598 1.186h-1.303c.02-.49.123-.903.307-1.24.184-.337.43-.61.736-.819.307-.209.657-.36 1.05-.451a5.552 5.552 0 0 1 1.265-.138c.358 0 .713.025 1.066.076.352.051.672.155.958.313.286.158.516.38.69.665.174.285.26.657.26 1.115v4.064c0 .305.019.53.054.672.036.143.156.214.36.214.113 0 .246-.02.4-.062v1.01z" fill="#1A1919"/><g transform="translate(110.893 48.866)"><mask id="b" fill="#fff"><use xlink:href="#a"/></mask><path d="M1.535 8.156c.097.353.245.666.444.942.2.275.455.495.767.658.312.163.677.245 1.096.245.44 0 .813-.086 1.12-.26.306-.174.557-.4.75-.682.195-.28.335-.599.422-.957a4.588 4.588 0 0 0-.007-2.211 2.793 2.793 0 0 0-.437-.957 2.234 2.234 0 0 0-.774-.666c-.317-.169-.7-.253-1.15-.253-.44 0-.813.087-1.12.26a2.08 2.08 0 0 0-.736.69 2.994 2.994 0 0 0-.398.979 5.199 5.199 0 0 0-.123 1.133c0 .367.048.727.146 1.08zm4.684 2.81V9.893h-.03a1.915 1.915 0 0 1-1.013.949c-.46.194-.966.291-1.518.291-.613 0-1.147-.113-1.602-.337A3.29 3.29 0 0 1 .92 9.894a3.937 3.937 0 0 1-.68-1.317c-.154-.5-.23-1.03-.23-1.592 0-.561.074-1.092.222-1.592.148-.5.373-.936.675-1.309.301-.372.68-.668 1.135-.888.454-.22.983-.33 1.587-.33.204 0 .424.021.659.062.235.041.47.11.705.207.235.097.458.224.667.382.21.16.386.355.53.59h.03V.035h1.303v10.93H6.22zm8.247-5.588a2.22 2.22 0 0 0-.475-.712 2.23 2.23 0 0 0-1.602-.65 2.28 2.28 0 0 0-.913.175 2.103 2.103 0 0 0-.697.482 2.301 2.301 0 0 0-.46.712 2.7 2.7 0 0 0-.2.865h4.554a2.66 2.66 0 0 0-.207-.872zm.315 5.082c-.593.45-1.34.674-2.239.674-.634 0-1.183-.102-1.648-.306A3.245 3.245 0 0 1 9.72 9.97a3.632 3.632 0 0 1-.713-1.316 6.313 6.313 0 0 1-.269-1.669c0-.602.092-1.153.276-1.653.184-.5.442-.934.775-1.302a3.514 3.514 0 0 1 1.18-.857 3.607 3.607 0 0 1 1.496-.306c.705 0 1.29.145 1.755.436.465.291.838.661 1.12 1.11.28.45.475.94.582 1.47.107.53.15 1.036.13 1.516H10.12c-.01.347.031.676.123.987a2.176 2.176 0 0 0 1.227 1.4c.317.144.69.215 1.12.215.55 0 1.003-.127 1.356-.383.353-.255.585-.643.697-1.163h1.289c-.174.888-.558 1.556-1.15 2.005z" fill="#1A1919" mask="url(#b)"/></g><path d="M21.492 9.973c-.058-.025.037-.14.082-.165a.852.852 0 0 1 .211-.03s-.049.076-.058.152c-.01.076-.177.067-.235.043m.482.277c-.058-.024.037-.14.083-.164.046-.025.21-.031.21-.031s-.048.076-.057.153c-.01.076-.178.067-.236.042m.031-.356c-.058-.025.037-.14.082-.165.046-.024.21-.03.21-.03s-.048.076-.057.152c-.01.076-.177.067-.235.043m-.504.417c-.058-.024.037-.14.082-.165.046-.024.211-.03.211-.03s-.049.076-.058.152c-.009.076-.177.067-.235.043m.486.279c-.05-.02.032-.122.071-.143.04-.02.182-.026.182-.026s-.042.066-.05.132-.153.058-.203.037m-.476.088c-.05-.022.031-.122.07-.143.04-.022.182-.027.182-.027s-.041.066-.05.132c-.007.067-.152.059-.202.038m.891-.124c-.05-.021.032-.122.071-.143.04-.021.182-.026.182-.026s-.042.066-.05.132-.153.058-.203.037m-.394.359c-.05-.02.031-.121.071-.142a.722.722 0 0 1 .182-.027s-.042.066-.05.132c-.008.067-.153.059-.203.037m.412-.027c-.05-.021.032-.122.072-.143.039-.02.182-.027.182-.027s-.043.067-.05.133c-.008.066-.153.058-.204.037m.016-.647c-.05-.022.032-.122.071-.143.04-.022.182-.027.182-.027s-.042.066-.05.133c-.008.066-.153.058-.203.037m-11.012 2.093a.504.504 0 0 1-.13-.484c.07-.259.055-.452-.055-.574a.381.381 0 0 0-.143-.116c.062.339.09.629-.138.912.023-.1-.1-.304-.083-.558.015-.22.09-.442.016-.541.085.062.3.097.392.113.203.027.257.126.328.291.023.054.111.11.14.17.037-.096.083-.169.1-.219a.415.415 0 0 0-.01-.247c.11.012.164.224.208.272.041.045.07.083.148.083.033-.092.026-.161.037-.25.014-.115.06-.204.017-.335.064.01.13.093.166.174.044.103.027.187.1.248a.381.381 0 0 0 .132-.181c.06-.165.1-.3.108-.498.086.07.136.076.222.147.106.084.166.25.24.3.235.158.485.283.73.394.312.14.604.236 1.096.346.204.028.348.04.536-.012.084-.022.275-.03.32-.03.042 0 .147.027.256.055.179.047.234.238.232.394-.173.117-.33.123-.6.185-.213.05-.408.073-.573.246-.035.038-.08.104-.153.104.014-.034.009-.074-.02-.114a.209.209 0 0 0-.108-.065c-.067.066-.082.202-.175.17.01-.063-.079-.09-.148-.083-.07.008-.103.078-.18.067.034-.08-.065-.158-.136-.192-.023.017-.104.173-.198.183.043-.098-.05-.242-.142-.266-.027.083-.072.234-.197.266.043-.097.012-.332-.147-.355-.007.137-.037.222-.14.292.045-.374-.27-.491-.565-.58-.12-.035-.12-.04-.237-.082a.47.47 0 0 0-.215-.044c-.02.092.062.275.147.361a.491.491 0 0 1-.332-.166c-.06-.07-.065-.132-.117-.259-.11.27.038.351.144.517-.426 0-.444-.498-.446-.526a.437.437 0 0 0-.097.19.49.49 0 0 0 .106.345c-.064-.009-.197-.091-.225-.176-.033-.103-.024-.051-.034-.16-.007-.082-.005-.293-.039-.377a.447.447 0 0 0-.077.247c.034.221-.1.29-.06.418M9.354 9.53c-.015.174.08.269.167.435.102.197.107.486.007.732a1.392 1.392 0 0 1-.163.29c-.125-.51-.29-1.014-.011-1.457m1.206 1.116c-.004.116.173.242.188.433a.974.974 0 0 1-.042.348c-.037.143.044.23-.028.41-.038.094-.077.187-.067.324-.052-.065-.246-.414-.175-.698a2.3 2.3 0 0 0 .064-.617.43.43 0 0 1 .06-.2m-.34 1.149c-.187-.13-.277-.467-.213-.64.123-.337.088-.368.075-.712a.755.755 0 0 1 .054-.297c-.005.301.206.397.205.683 0 .123.006.32-.066.485a.743.743 0 0 0-.055.48m-.484-1.882c.024.156.113.309.164.402.069.126.054.405-.035.683-.039.12-.163.273-.16.394-.025-.07.012.047-.054-.216-.071-.287.075-.43.096-.652.014-.154-.022-.451-.011-.611m-2.882 3.065s.183-.113.275-.56c.092-.45.614-.716.779-.739a3.34 3.34 0 0 0-.415.622c-.19.351-.498.612-.639.677" fill="#1A1919"/><path d="M9.314 11.698c-.116-.292-.184-.448-.483-.616-.207-.115-.35-.14-.591-.175-.383-.057-.58.025-.72.098-.139.073-.254.17-.382.438-.1.212-.087.403-.08.595.05-.237.13-.429.286-.585.143-.143.308-.241.38-.263.236-.068.378-.006.378-.006a1.035 1.035 0 0 0-.398.15c-.21.142-.408.413-.46.623 0 0 .192-.327.518-.472.254-.13.491-.143.698-.106a.887.887 0 0 0-.238.128c-.151.109-.264.313-.379.532-.17.323-.297.508-.435.634.11-.037.477-.242.628-.464.151-.222.282-.517.33-.576.048-.06.207-.147.307-.117.098.03.177.105.18.106.088.102.199.296.16.632-.062.538-.277.98-.75 1.776-.451.762-.705 1.049-.888 1.463-.254.575-.21 1.33.4 1.491.289.092.708-.085.708-.085s.121-.092.12.177l.061-.972s-.108.423-.462.447c-.354.024-.512-.067-.55-.32-.036-.253.123-.692.245-.9.122-.206.947-1.56.977-1.633.03-.073.342-.61.415-.982.073-.372.14-.725.025-1.018m.223 10.567a2.763 2.763 0 0 1-.064-.602c0-.174.098-.204.28-.204.153 0 .19.07.153.148-.14.3-.082.586.04.848-.171.174-.368.002-.409-.19M8.36 19.909c-.089.404-.08.578-.062.757.047-.06.094-.095.139-.091a.767.767 0 0 0-.047.317c.045-.07.085-.111.152-.13-.02.122-.03.209-.012.346.057-.125.11-.243.173-.198.062.04 0 0 .06.036.05.03-.053.201-.072.247-.017.043.063.12.163.147-.092.352-.177.641-.103.954a.432.432 0 0 0 .225.31 1.86 1.86 0 0 1-.032-.678c.017-.14.086-.276.149-.405.033-.068.118-.041.155.044.052.122.05.386.054.518.012.439.073.674.5.885.17.084.303.037.395-.043.06-.053.174-.17.105-.278-.1-.155-.056-.182.087-.164.173.022.303-.085.373-.225.033-.066.045-.27-.086-.254-.35.043-.364-.133-.415-.25-.052-.118-.027-.54.11-.551.073-.006.108-.09.082-.197-.828.008-1.668-.377-2.093-1.097" fill="#1A1919"/><path d="M10.358 12.07c.012.11.244.585.415.207.171-.378.5.366 1.16.366.66 0 .922-.2 1.117-.169.196.03.308.175.226.413-.161.47-.476.744-1.172 1.415a5.61 5.61 0 0 0-.438.644c-.063.126-.06.219 0 .238.051.016.104-.008.157-.078.122-.159.151-.374.367-.501.134-.08.732-.316.732-.316s.33-.11.501.074c.171.182.269.768.244 1.024a1.5 1.5 0 0 1-.671 1.134c-.55.378-.306.706-.171.853.134.146.846.073.846.073s.283.01.436.25a.66.66 0 0 1 .085.311s-.313.22-.55.195c-.408-.042-.585-.22-.927-.207-.342.012-.904.012-.904.012s-.306-.04-.22-.317c.135-.433.31-.892.264-1.161-.029-.17-.315-.155-.423-.114-.107.04-.199.1-.36.018-.064-.033-.069-.184-.09-.292a1.763 1.763 0 0 1 .044-.822c.046-.157.045-.148.07-.2.056-.114-.09-.244-.2-.018-.151.314-.16.572-.163.768-.008.39.248 1.187.199 1.553-.049.365-.147.61-.415.878-.27.268-1.124 1.292-1.124 1.292s-.342.407-.122.854c.152.31.493.254.647.256.13.002.208-.055.41.11.174.142.209.362.042.39-.849.14-1.203-.019-1.649-.28-.446-.263-.366-.964-.366-.964s-.018-.347.531-.744c.135-.213.257-.506.16-.689l-.288-.53s-.183-.793-.159-1.11c.025-.316-.012-.804.245-1.317.256-.511.775-1.14.983-1.655.207-.515.46-1.135.53-1.844m.673-2.304c0 .056-.011.102-.036.131-.149-.027-.223-.157-.268-.25-.193.026-.267-.024-.423-.145a1.116 1.116 0 0 1-.259-.393c-.097.009-.257-.112-.35-.218-.167-.173-.145-.343-.293-.56-.037.407-.323.696-.135 1.092.07-.158.115-.294.21-.417-.003.25 0 .296.025.502.018.116.066.259.134.315a.494.494 0 0 1 .027-.293c.045-.125.085-.17.17-.222.031.08.025.121.017.205a.685.685 0 0 0 .012.254c.043.174.094.263.137.381a.823.823 0 0 1 .04-.336.308.308 0 0 1 .133-.177c.113.193.094.311.11.495.016.177.125.24.157.357.073-.161-.064-.426.164-.579-.037.23-.034.39.04.573.043.103.155.187.193.337.026-.213-.084-.442.03-.666.106.106.07.2.1.31.043.159.127.245.082.398.22-.094.117-.486.12-.714 0-.146.02-.136.047-.239-.051-.057-.122-.095-.184-.141" fill="#1A1919"/><path d="M11.42 8.177c-.058.028-.058.028-.116.075-.043.057-.027.152-.003.238.035.125 0 .216-.098.237-.083.017-.164-.001-.21-.107-.052-.12-.068-.217-.034-.305a2.022 2.022 0 0 1-.271 0c-.057-.003-.134.003-.179-.048-.057-.063-.122-.208-.044-.255.082-.052.3-.07.363-.072-.058-.159-.202-.168-.254-.27a.482.482 0 0 1-.042-.35c-.012 0-.142.03-.193.034-.147.013-.22-.08-.245-.191a.467.467 0 0 0-.155-.254c.018-.048.075-.064.123-.069.084-.008.086-.002.17.007a.6.6 0 0 0 .212-.017c.093-.026.108-.044.173-.101.043.075.049.141.036.27-.013.13-.02.285.01.413.038.16.13.202.288.172.164-.031.161-.1.158-.213-.024-.284-.229-.372-.115-.701.084.072.203.056.359.026.094-.019.19-.098.326-.04-.084.129-.048.167-.067.287-.038.246-.28.28-.436.265.125.161.12.265.087.392-.041.158-.09.12-.106.279.09-.034.335-.151.395-.087.073.157.088.282-.131.385m.266.874c-.003-.047-.008-.13.049-.185.06.019.136.081.152.175.02.114.02.283-.027.329.233-.124.24-.353.189-.533-.045-.145-.172-.22-.147-.343.195-.03.248.218.26.341a.54.54 0 0 0 .068-.385c-.023-.091-.158-.183-.101-.317.062 0 .097.055.137.112a.65.65 0 0 1 .092.198.502.502 0 0 0-.027-.365c-.045-.109-.117-.124-.142-.307.097-.043.1.077.214.114.008-.125.016-.166-.098-.33.037-.038.112-.008.158.043.006-.119-.112-.269-.178-.332.047-.023.096.001.139.021.015-.105-.055-.202-.117-.25-.075-.06-.131-.05-.194-.107a.62.62 0 0 1-.167-.27.731.731 0 0 0 .229-.05.55.55 0 0 0 .256-.224c.08-.12.112-.269-.02-.398a.357.357 0 0 0-.363-.09c-.137.044-.215.187-.379.106-.024.078-.065.092-.078.099a.56.56 0 0 1-.257.019 4.74 4.74 0 0 0-.574.02c-.202.023-.98.321-.958.136-.036.183-.288-.082-.554.156a.405.405 0 0 0-.119.465c.08.192.275.255.522.21a.287.287 0 0 1-.092.212c-.059.058-.14.107-.187.24-.044.177-.038.504.124.648-.024-.184-.024-.268.029-.385.036-.092.12-.16.168-.16-.038.137-.063.33-.064.494 0 .174.002.275.095.434.005-.195.072-.443.177-.46.109.175-.02.33-.045.484-.028.17.068.25.18.307-.032-.082-.009-.17.008-.242.02-.08.1-.325.24-.266-.14.275-.138.443-.07.654.042.134.175.298.271.319a.71.71 0 0 1-.117-.365c0-.17.029-.37.103-.417.037.037.089.1.071.236-.018.149-.034.198.012.34a.75.75 0 0 0 .185.29c-.052-.302-.014-.633.124-.702-.018.233-.036.415.039.556.074.141.127.315.127.44.062.046.133.084.184.141a.86.86 0 0 0 .02-.097c.026-.18-.116-.418-.107-.516.096-.007.185.186.224.294.127-.06.238-.149.36-.218a6.117 6.117 0 0 1-.024-.32" fill="#1A1919"/><path d="M12.832 10.025c-.093-.082-.214-.321-.17-.397.123 0 .268.214.393.35.129.14.339.182.41.375-.012-.261-.082-.43-.26-.577a3.537 3.537 0 0 0-.34-.234c.026-.016.042-.012.103-.012.055 0 .15.054.197.077.097.049.13-.002.234.091.02-.02-.111-.222-.18-.284a.676.676 0 0 0-.24-.136c-.142-.042-.341-.036-.462-.087a.945.945 0 0 1-.263-.162c-.064.27-.13.365-.328.526-.075.06-.112.09-.157.055-.037-.03-.04-.066-.044-.104a6.496 6.496 0 0 1-.014-.136c-.122.07-.233.159-.36.218l.002.003a.711.711 0 0 1 .01.428c-.055.24-.016.46.026.688.027.145.299.414.313.516.041-.125-.105-.395-.116-.477-.017-.137-.04-.206-.038-.336.002-.13.042-.357.06-.358.053.049.139.233.127.431a.58.58 0 0 0 .158.438c.057.067.152.064.18.206a.444.444 0 0 0 .007-.267c-.042-.174.004-.212.013-.396.008-.144.008-.144-.026-.291-.023-.099-.004-.23.037-.28.055.019.126.206.125.305 0 .092.01.281.058.38.07.142.26.26.25.373.093-.296.063-.555-.039-.865-.037-.115-.106-.257-.098-.4.115.043.216.379.259.501.032.092.027.094.086.162.07.082.134.144.23.187.174.077.23.184.304.336a.651.651 0 0 0-.047-.35c-.092-.25-.197-.32-.4-.497m.316-1.552c-.076-.204-.241-.175-.372-.274a.727.727 0 0 1-.128-.171.2.2 0 0 0 .039.217c.075.075.179.124.257.197.105.1.088.223.26.31-.241.116-.388-.221-.548-.155.053.306.407.254.549.498-.17-.055-.268-.026-.43-.033a.69.69 0 0 1-.252-.064c-.163-.098-.145-.163-.109-.287.053-.182.148-.262.096-.466a.81.81 0 0 1-.016-.171c0-.168.193-.428.04-.628.074.052.168.122.175.238.018.187.042.338.234.417.281.116.223.356.205.372m4.765 4.369c-.195.044-.391.085-.585.134-.176.045-.302.043-.41-.152-.082-.15-.155-.147-.155-.147s-.008.072-.112.083a1.101 1.101 0 0 1-.204-.017A2.056 2.056 0 0 0 16 12.69c.075.066-.011.143-.06.15-.2.034-.453.045-.66.07.124.061.148.261-.023.306-.127.033-.325.034-.439.116.16.11.041.217.007.247a.67.67 0 0 1-.224.142c-.107.042-.237.09-.264.16.22.05-.046.281-.121.364-.085.094-.135.114-.153.224.13-.003.286.034.207.154-.078.136-.204.352-.238.428-.03.068-.064.134-.096.201.297-.168.41-.245.66-.061.057.041.085.048.149.034a.533.533 0 0 0 .21-.093c.14-.1.23-.077.283.09.249-.25.48-.337.605-.197.09-.105.177-.21.265-.315.125-.15.27-.173.32.037.054-.11.085-.17.129-.248.06-.107.105-.25.194-.27.04-.008.082-.018.119.055.015-.055.016-.132.019-.168.012-.144.018-.29.027-.441.05.109.067.208.078.387-.001.16.027.338-.092.53-.035-.127-.074-.271-.137-.201-.146.169-.23.423-.37.687-.001-.073-.04-.355-.136-.323-.114.038-.274.305-.412.49-.063-.113-.091-.143-.2-.109a.483.483 0 0 0-.165.09c-.122.115-.15.297-.183.453a.508.508 0 0 1-.143.265 3.586 3.586 0 0 1-.098.083c.062.043.124.09.187.135.163-.082.279-.151.431-.22.205-.091.543-.2.449.04a.406.406 0 0 0 .235-.125c.146-.152.23-.315.393-.344.036-.006.073-.011.11-.015.066-.085.144-.155.22-.23-.034-.005-.097-.06-.085-.145.007-.049.037-.155.046-.193.028-.118.118-.22.327-.167-.007-.113-.011-.211-.02-.308-.018-.205.105-.234.268-.227-.034-.142-.063-.273-.097-.403-.015-.058-.03-.117-.057-.17-.113-.217-.111-.253.071-.366.189-.116.387-.184.593-.214a1.422 1.422 0 0 0-.216-.232m6.657-2.088c-.002-.056-.105-.186-.035-.235.035-.024-.017-.085-.028-.13-.006-.028-.058-.094-.065-.122-.013-.054.018-.07.002-.126-.032-.116-.127-.237-.162-.337-.039-.11-.019-.195-.054-.253-.01-.016-.109-.083-.118-.098-.064-.103-.034-.139-.088-.214-.07-.098-.174-.148-.237-.212-.062-.063-.084-.141-.148-.185-.02-.014-.095-.015-.111-.034-.133-.16-.288-.135-.36-.036-.132.18-.256.367-.38.553a.608.608 0 0 1 .048.037.16.16 0 0 1 .017-.025 4.76 4.76 0 0 1 .311-.354c.04-.04.135-.112.205-.072.04.021.051.07.033.11-.055.12-.18.234-.275.347.09-.068.173-.152.3-.236.062-.043.116-.098.164-.056.065.056-.356.409-.442.509.09-.034.391-.292.467-.32.073-.028.108-.021.137.009.018.018.037.067.005.106-.084.14-.565.416-.646.5.39-.228.751-.39.827-.28.034.036.004.107-.054.143-.073.042-.39.209-.501.274.125-.031.445-.176.537-.18.066-.004.134-.027.19.065.024.064-.083.133-.15.165-.06.029-.185.062-.3.1.142-.007.372-.029.473-.034.011.012.065-.02.074.03.025.083-.113.098-.159.111-.134.038-.6.139-.594.162.158-.022.315-.052.474-.064.096-.006.343-.013.36.052.026.07-.002.142-.089.141-.182 0-.398.034-.609.06.217 0 .384.014.542.006.088-.004.215.009.237.094.007.028-.003.103-.046.106-.562.043-.64 0-.985 0-.002.046-.024.06-.037.107l.38-.005c.256-.003.405.035.66.03.151-.001.236-.115.23-.21" fill="#1A1919"/><path d="M23.178 10.832c.05-.081.03-.134.107-.174-.03-.016-.154-.032-.116-.06.057-.05.014-.11.082-.155-.158-.073-.232-.458-.2-.482a.456.456 0 0 1-.202-.202c-.018-.062.02-.18.078-.22-.087-.01-.138-.094-.093-.176a1.086 1.086 0 0 0-.047-.037l-.034.05c-.052.079-.104.1-.2.067-.064-.023-.206-.019-.175-.064a.36.36 0 0 0-.132.016c-.08.022-.333-.056-.26-.084-.122-.034-.233-.013-.356.074-.002.001-.009-.007-.014-.011-.028-.017-.042-.063-.042-.063s-.191.089-.257.161c-.076.084-.191.33-.234.248-.047.08-.053.184-.078.278-.01.038-.06.17-.08.09-.057.041-.063.134-.059.212.002.045.024.102.005.135-.073.127-.01.22.056.32.056.083.013.211.16.261.134.046.113.203.026.322-.11.15-.246.163-.427.107.034.12.013.188-.038.23.047.079.08.164.118.247a2.29 2.29 0 0 0 .579-.394c.084-.083.183-.053.26.034.038.042.07.09.113.123.088.067.183.126.243.167-.017-.118.383-.004.493-.004-.089-.064.214-.115.35-.173-.13-.172.187-.133.27-.239-.086-.006-.129-.03-.092-.08l.212-.18c-.075-.036-.014-.139-.02-.198.043-.001.084-.039.126-.039.013-.046.035-.061.037-.107h-.159" fill="#1A1919"/><path d="M20.42 15.532c-.092.025-.177.073-.264.113-.127.059-.282-.007-.219-.148.081-.124.146-.263.247-.368a.751.751 0 0 1 .362-.21l-.02-.15c-.098.02-.198.035-.293.062-.115.032-.134-.055-.117-.139a.91.91 0 0 1 .329-.567l-.024-.24a.927.927 0 0 1-.4.192c-.029-.141-.18-.339.072-.362-.092-.081-.195-.147-.26-.238-.064-.09-.092-.206-.132-.312-.123-.32.065-.851.37-1.024.057-.033.148-.059.201-.036.055.023.082.11.13.18.048-.098.08-.225.168-.266a8.26 8.26 0 0 0 .196-.097c-.037-.083-.07-.168-.118-.247a.397.397 0 0 1-.152.066 3.82 3.82 0 0 0-.485.169c-.028.011-.109.056-.148.072-.285.187-.334.18-.438.192.195.162.027.35-.1.423-.104.06-.25.02-.32-.028a.435.435 0 0 1-.136-.136.418.418 0 0 1-.052-.34c-.072-.017-.148-.026-.221-.054a.13.13 0 0 1-.003.066c-.02.06-.068.06-.102.067a.7.7 0 0 1-.218.002c-.167-.017-.268-.078-.178-.309-.5.37-1.119.227-1.418-.142.016.118.09.33.138.406.114.18.259.289.44.439.04-.142.253-.2.435-.133.056.02.314.107.428.155.041.018.105.035.098.115-.005.066-.075.082-.118.093l-.185.044c.082.068.151.147.216.232a1.95 1.95 0 0 1 .545 0c.188.026.218.058.282.15.082.119.025.223.022.315 0 .037.014.152.017.147.11-.192.209-.175.325.048.059.111.116.225.157.344.054.159.073.25-.088.397a.397.397 0 0 0-.135.205c.324-.204.28.36.28.431-.002.215-.18.32-.278.48-.033.054-.057.074-.078.167.168-.121.187.003.168.147l-.012.086c.203.097.427.179.654.15.077-.179.212-.29.406-.384.082-.04.163-.07.245-.097a16.99 16.99 0 0 0-.02-.181 6.803 6.803 0 0 0-.2.053" fill="#1A1919"/><path d="M24.917 15.227c-.012-.09.052-.197.166-.27-.251-.11-.486-.138-.74-.152-.124-.008-.168-.087-.097-.205.025-.042.043-.049.113-.122a1.575 1.575 0 0 0-.559-.042c-.076.006-.116-.003-.14-.037-.026-.035-.03-.076.015-.14-.052-.017-.19.025-.255.035-.224.033-.455-.048-.677.059-.044.02-.157.045-.198-.047-.004-.008-.014-.046-.006-.066a.295.295 0 0 0-.11.026c-.175.07-.342.094-.528.015a.115.115 0 0 0-.055-.007c-.064.005-.143.045-.213.053-.112.013-.23-.019-.343-.005a.312.312 0 0 0-.17.075c-.031.027-.08.04-.099.072-.118.204-.302.262-.495.3l.02.15a.796.796 0 0 1 .089-.017c.149-.018.29-.047.348.153.013.047.095.071.135.115.03.032.057.08.057.12 0 .024-.052.06-.086.07-.156.042-.313.079-.47.119l.02.18.152-.05c.148-.05.3-.096.454-.122a2.2 2.2 0 0 1 .346-.027c.243-.004.336.067.495.212.038.036.082.079.17.132-.01-.064.011-.093.066-.128.026-.016.158.003.205.026.125.062.414.25.47.282 0-.1.072-.09.11-.097.272-.004 1.154.714 1.428 1.276.105-.14.115-.235-.111-.5-.155-.183-.277-.305-.432-.486-.032-.038-.128-.12-.08-.202.04-.076.102-.072.16-.064.076.01.107.034.167.07.065-.06.065-.11.04-.195a.712.712 0 0 0 .408.062c-.041-.062-.028-.093.047-.114.206-.044.39 0 .622.077-.053-.285-.21-.455-.439-.584m-5.958-3.244c.309-.013.42-.26.689-.386.04-.02.08-.043.09-.07-.307-.004.204-.345.2-.548-.153.055-.096-.105-.076-.163.071-.204.07-.216.14-.371.014-.03.087-.178.078-.234-.049.03-.093.03-.141.03-.006 0 .09-.545.08-.627-.055.022-.166.054-.158-.038.02-.232.075-.334.141-.486-.04.012-.204.017-.141-.17.027-.079.118-.263.1-.38-.238.08-.105-.179-.044-.275a.49.49 0 0 1 .186-.164c-.077 0-.153 0-.232.032a1.533 1.533 0 0 0-.267.133c-.24.145-.238.15-.438-.052-.196.207-.281.408-.418.606-.05.062-.134.015-.206-.12-.097.137-.102.4-.138.587-.026.13-.086.13-.1.131-.027.004-.048.01-.093-.045-.031.07-.03.073-.043.147-.024.126-.02.24-.027.36-.006.104-.038.292-.157.327.1.083.153.21.18.36.029.156.045.216-.07.265a.336.336 0 0 1-.19.019.602.602 0 0 0 .065.236c.084.167.163.44.062.568.155-.027.303.051.444.197.048.05.107.118.12.187.074.028.15.037.222.053.022-.062.068-.106.142-.109m9.894.387c-.008-.033-.218-.522-.244-.716a2.505 2.505 0 0 1 .04-.833c.006-.033.02-.085.004-.101-.264-.262-.486-.517-.802-.775-.155-.127-.424-.31-1.058-.676-.357-.179-.549.003-.764.263-.144.173-.262.367-.39.552-.035-.068-.03-.104.003-.173.047-.099.132-.203.019-.33-.165-.185-.313-.384-.463-.58-.086-.112-.299-.552-.357-.74-.081-.166-.247-.227-.422-.249-.24-.029-.482-.034-.718-.08-.208-.042-.406-.138-.615-.185a.943.943 0 0 0-.352.016c-.108.019-.21.074-.318.095-.103.019-.172.042-.19.166a.315.315 0 0 1-.118.197c-.279.19-.48.41-.534.77.245.046.231-.095.334-.217v.252c.372-.004.725-.247.58-.585.016-.007.036-.024.046-.02.147.065.271.058.4-.059.048-.044.155-.046.231-.036.323.04.637.105.908.306.238.177.437.377.536.668.165.487.337.972.524 1.45.033.082.099.166.265.155.12-.009.237-.03.356-.042.076 0 .035.078.027.113-.033.073-.176.12-.267.12-.478 0-.948.165-1.433.062a.469.469 0 0 0-.35.073c-.188.158-.363.332-.54.503.134.075.26.165.382.252.262-.227.651-.275 1.018-.189.19.045.44.102.618.154.26.076.404.128.653.231.164.069.322.158.469.258.133.092.264.093.403.002.197-.129.386-.227.6-.33.142-.068.21.056.138.085l-.335.232c-.068.047-.143.088-.203.141-.19.169-.319.158-.505.121-.12-.024-.22-.135-.34-.162-.115-.014-.124.05-.05.12.12.129.246.251.358.386.154.184.378.209.583.28.096.033.188.084.287.103.14.026.292.064.427.038.332-.065.65-.152.934-.376.222-.175.23-.385.234-.6a.388.388 0 0 0-.01-.11" fill="#1A1919"/><path d="M30.507 21.848c-.028.049-.093.106-.14.106-.058-.002-.147-.048-.165-.096-.076-.202-.111-.409-.174-.616-.022-.145.048-.202.15-.246.14-.06.255.016.294.123.086.234.177.482.035.729m-.622.44c-.083.143-.36.137-.377-.047a3.167 3.167 0 0 0-.037-.3c-.06-.38-.088-.771-.287-1.112a4.254 4.254 0 0 0-.737-.945c-.617-.62-1.281-.791-2.098-.853-.296-.022-.595.015-.893.015-.104 0-.203-.058-.205-.174 0-.053.006-.113.102-.166a1.22 1.22 0 0 1 .511-.146c.167-.018.398-.016.568-.016.809-.004 1.472.32 1.912.617.352.238.753.731.993 1.072.313.443.428.72.578 1.217.073.24.101.609-.03.838m-4.808-3.706c-.07.016-.205.035-.232-.046-.05-.106.032-.185.084-.213.217-.12.441-.235.674-.316.347-.12.707-.166 1.076-.123.14.017.241.115.239.258-.002.17-.12.19-.25.194-.085.002-.171 0-.257 0-.268.004-.604.02-.891.103-.157.045-.292.11-.443.143m-11.236.6c-.071.097-.134.108-.204.107a.913.913 0 0 1-.336-.078c-.489-.21-.988-.2-1.486-.089a3.471 3.471 0 0 0-.877.309c-.23.123-.417.277-.599.445-.132.124-.211.196-.325.298-.029.026-.103.073-.169-.003-.04-.031-.064-.066-.01-.173.065-.127.095-.195.163-.272.216-.245.371-.437.68-.64.252-.165.38-.252.663-.351a3.52 3.52 0 0 1 .852-.147c.417-.016.834.006 1.226.164.138.056.253.117.373.206.084.061.099.158.049.224m14.354-.91c-.12.06-.243-.066-.326-.15-.1-.102-.14-.301-.1-.371.081-.145.174-.179.347-.055.271.182.228.501.079.576m2.572 3.217c-.053-.236-.161-.516-.224-.762-.03-.117.005-.188.104-.243a1.657 1.657 0 0 0-.304-.453 2.635 2.635 0 0 1-.015.05c-.018.05-.1.07-.138.02-.388-.797-.98-1.298-1.709-1.764.116-.485-.082-.776-.538-.93-.233-.018-.356.186-.371.215-.1.187-.018.444.07.595a.614.614 0 0 0 .547.299c.096-.005.2.069.288.124.39.238.756.512 1.064.85.158.174.257.336.383.538.028.046.082.196.002.242-.103.06-.172-.022-.29-.159-.157-.182-.295-.319-.448-.475-.154-.157-.3-.324-.467-.468a4.014 4.014 0 0 0-.697-.454c-.302-.151-.39-.182-.676-.323-.048-.023-.116-.086-.111-.123.026-.243-.118-.419-.23-.603-.04-.065-.125-.106-.197-.147-.14-.081-.106.078-.16.118a.254.254 0 0 1-.142.05 3.295 3.295 0 0 0-1.585.378c-.1.05-.186.15-.29.105-.079-.034-.116-.176-.177-.27-.12-.191-.157-.312-.287-.496a3.806 3.806 0 0 0-.58-.66c-.536-.455-1.137-.8-1.896-.8a3.833 3.833 0 0 0-1.253.223c-.11.036-.207.106-.315.15-.043.016-.115.023-.143 0-.025-.023-.024-.098-.009-.14l.015-.034c-.227.028-.45-.054-.654-.151-.01.072-.012.07-.032.156-.014.06-.117.12-.158.07-.056-.071-.093-.119-.172-.212-.185-.22-.371-.326-.613-.437a2.912 2.912 0 0 0-1.226-.297.38.38 0 0 1-.05-.004c-.076.075-.154.145-.22.23.252-.028.519-.002.77.043.281.05.49.143.73.316.156.113.275.236.36.384.084.145.051.197.037.212-.043.045-.122.087-.293.02-.238-.08-.323-.123-.535-.192a3.095 3.095 0 0 0-1.454-.104c-.458.072-.912.309-1.266.599-.302.247-.52.514-.802.786-.056.053-.135.122-.2.12-.194-.009-.267-.148-.158-.308a7.3 7.3 0 0 1 .504-.655 1.86 1.86 0 0 1 .372-.347c.067-.05.24-.175.317-.21-.063-.045-.125-.092-.187-.135-.22.18-.455.343-.657.54-.24.232-.433.509-.659.755-.133.145-.104.126-.289.141-.063.198-.253.627-.16.665.28.112.47.142.747 0a.953.953 0 0 1 .296-.078c.072-.01.105-.004.133-.064.19-.399.322-.505.61-.815.257-.276.582-.512.898-.657a2.57 2.57 0 0 1 .802-.18c.433-.018.89-.067 1.23.304a.203.203 0 0 1 .044.186c-.012.056-.093.06-.142.058-.177-.008-.332-.032-.528-.041-.294-.015-.599-.013-.88.057a2.54 2.54 0 0 0-1.195.681c-.227.239-.395.401-.543.728-.074.162-.125.334-.195.497-.089.203-.232.242-.405.107-.412-.323-.89-.453-1.401-.478a4.082 4.082 0 0 0-.657.012c-.357.04-.529.063-.86.166-.336.104-.804.378-1.133.717-.234.241-.336.33-.53.593-.152.205.01.58.256.602.237.022.342-.158.478-.291.08-.08.142-.165.23-.253.134-.134.3-.25.464-.343.26-.147.424-.219.72-.292.244-.06.536-.079.787-.068.307.012.543.04.75.266a.32.32 0 0 1 .08.322c-.028.076-.208.013-.283-.017a2.244 2.244 0 0 0-1.155-.147 1.3 1.3 0 0 0-.464.147c-.19.108-.386.24-.524.409-.173.21-.416.512-.347.549.035.02.13-.053.17-.09.173-.166.328-.35.512-.503.41-.34.797-.344 1.356-.221.228.05.452.189.673.27.197.072.355-.02.346-.194-.021-.384.225-.702.605-.738.142-.013.293.043.436.08.166.044.269-.008.309-.172.034-.141.004-.205-.01-.306-.01-.086-.024-.164-.031-.246-.024-.276.141-.521.36-.783.165-.197.478-.426.698-.557a1.847 1.847 0 0 1 1.384-.234c.22.049.433.124.647.19.315.097.539-.033.605-.328a.194.194 0 0 1 .036-.076c.126-.157.286-.141.442.042.192.225.542.24.72.027.12-.14.205-.333.354-.416.29-.16.605-.309.927-.372.449-.086.994-.07 1.427.122.268.119.398.169.7.405.499.389.888.877 1.066 1.5.072.253.05.321.031.522-.011.133-.163.232-.263.195-.05-.019-.09-.067-.09-.154-.004-.437-.188-.649-.393-.953a3.34 3.34 0 0 0-.532-.608c-.27-.24-.505-.44-1.094-.615-.258-.077-.406-.066-.686-.055-.36.014-.667.1-.903.365-.126.141-.13.401-.013.49.106.08.25.117.401.044.144-.07.164-.21.147-.346-.018-.148.035-.228.175-.27a1.6 1.6 0 0 1 1.374.21c.32.21.61.46.835.788.156.228.334.41.412.718.02.084-.006.221-.02.311-.034.21.056.457.338.412.187-.03.36-.08.436-.254.044-.103.071-.179.138-.315.087.252.15.351.411.397.006 0 .031.072.037.086a.405.405 0 0 0 .556.21c.259-.118.535-.114.81-.125a2.384 2.384 0 0 1 1.703.595c.272.23.48.487.682.765.207.289.35.644.386 1.022.018.182.032.29-.163.367-.16.063-.219.246-.193.387.026.139.124.288.32.29.13.001.261.006.39.026.312.05.578-.108.648-.399.028-.115.08-.157.206-.126.294.07.38-.025.434-.292.025-.12-.023-.236-.061-.403" fill="#1A1919"/><path d="M31.483 13.764c-.156-.223-.29-.421-.449-.642-.109-.152-.207-.267-.307-.433-.177-.293-.28-.369-.385-.846-.05-.23-.034-.473.01-.694.04-.198.132-.277.26-.273.11.004.173.058.241.144a.379.379 0 0 1 .09.33c-.03.147.254.318.26.632.083-.567-.068-.921-.368-1.177a.452.452 0 0 1 .19.007c.331.113.345.584.33.885-.014.279-.036.632-.019.759.018.127.052.475.414.704-.197-.295-.284-.393-.255-.864.028-.426.012-.545-.008-.75-.03-.309-.106-.44-.14-.515a.616.616 0 0 0-.109-.146c.01.003.14.073.225.239.085.164.15.314.15.558.001.193.002.399-.005.541-.015.356.055.534.208.752.127.183.395.363.487.413-.391-.507-.512-.72-.535-1.072-.016-.258.018-.492-.02-.734-.075-.486-.25-.903-.657-1.113a1.107 1.107 0 0 0-.368-.08c.098-.03.413-.085.75.192.16.13.231.358.354.48.3.3.356.439.49.692-.009-.017-.221-.765-.578-1.15-.199-.214-.535-.314-.543-.316-.548-.169-1.057.22-1.189.734-.058.229-.07.44-.064.631.009.278.075.497.233.813.212.422.349.6.634.992.206.283.413.547.595.85.115.192.205.325.252.618.072.449-.198.552-.486.498-.46-.087-.688-.43-.918-.787-.208-.32-.382-.662-.567-.997a13.222 13.222 0 0 0-.103-.183c-.033-.057-.509-.735-.838-1.364-.874.332-2.377.913-2.348.943.322.339.572.355.857.635.187.183.252.205.433.427.055.065.137.14.18.212.096.158.16.27.234.44.02.046.087.224-.007.215-.062 0-.113-.125-.135-.183-.067-.18-.117-.28-.286-.345-.193-.072-.42-.142-.616-.206a1.644 1.644 0 0 0-1.09-.009c-.138.058-.252.197-.27.217-.256.29-.251.754.052 1.079.224.241.41.362.596.633.1.147.181.395.213.66-.196.035-.341.074-.49.084-.125.009-.26.005-.378-.03-.284-.084-.526.008-.714.193-.166.164-.28.38-.419.577.43.105.713-.007.816-.078.205-.141.435-.2.668-.235.364-.052.732-.072 1.097-.115.182-.022.195-.186.173-.306-.022-.121-.124-.373-.155-.557-.011-.094-.023-.201.014-.275.063-.122.247-.132.403-.051.095.05.185.09.293.133.115.044.203.026.242-.137.081-.346.073-.467.26-.855.033-.066.09-.333.117-.455.017-.073.109-.074.107.005-.016.144-.027.279-.065.418-.039.141-.122.266-.158.406-.112.442-.117.677-.148 1.018a1.36 1.36 0 0 0 .284.95c.226.288.535.521.913.628.293.081.576.197.684.517.13.386.299.774.271 1.184a.781.781 0 0 1-.03.202c.12.141.233.278.304.453l.03-.016c.08-.036.17-.11.195-.187a.926.926 0 0 0 .032-.386c-.037-.314-.102-.624-.142-.937-.023-.178-.011-.36-.03-.538-.024-.212-.017-.444-.286-.533a1.075 1.075 0 0 1-.247-.135c-.284-.19-.388-.81-.165-1.08.213-.258.267-.576.365-.876.057-.176.127-.236.267-.119.204.17.626.212.887.152a.646.646 0 0 0 .488-.41c.12-.29.028-.71-.146-1.034-.147-.277-.232-.364-.412-.621" fill="#1A1919"/><path d="M31.874 11.363c.026.117.065.248.073.465.006.157-.015.397.024.536.088.314.347.611.347.611s-.209-.433-.127-.796c.047-.207.006-.312-.053-.401-.043-.066-.109-.196-.264-.415m-7.326 1.385c-.135.003-.317-.001-.162-.285-.311-.015-.501.1-.684.064-.065-.012-.104-.021-.128-.106a.397.397 0 0 1 .019-.144c-.065.032-.12.036-.153.012-.089-.064-.032-.112-.002-.154a.81.81 0 0 1 .135-.15c-.122-.086-.248-.176-.382-.25-.077.074-.155.149-.235.221-.11.099-.235.193-.37.244-.053.02-.097.003-.16-.063-.042-.045-.104-.107-.19-.119-.16.354-.482.43-.645.18a.558.558 0 0 0-.294.241c-.067.1-.16.164-.252.167-.072.002-.1-.009-.13-.06a.799.799 0 0 0-.194.18c-.09.125-.151.27-.104.454a.71.71 0 0 1-.008.381.627.627 0 0 1-.188.323l.024.241a.883.883 0 0 1 .1-.068c.09-.05.344-.133.517-.104.212.035.416.081.554.293.096-.112.142-.16.112-.287.204.05.34.216.442.3.018-.046.034-.098.076-.144.044-.058.103-.069.162-.076.136-.017.188.028.314.137.191-.215.277-.23.705-.057-.024-.183.09-.278.3-.23.207.05.276-.041.427-.203.057-.062.193-.096.263-.15-.158-.143.048-.244.096-.265.205-.09.361-.181.486-.399.05-.086.144-.114.187-.15-.314-.073-.418.022-.638.026m4.301-2.029c.117-.116.46-.368.682-.418l-.144-.256a.391.391 0 0 1-.135.286.357.357 0 0 1-.01-.269 1.135 1.135 0 0 1-.27.168c.092.024.159.054.21.135-.099.047-.29.113-.426-.051-.089-.108-.099-.253.006-.344.034-.03.091-.049.142-.003.05.046-.012.134-.053.154.097.018.31-.114.222-.225-.07-.087-.255-.053-.345.006.059-.11.086-.296-.005-.357-.117-.08-.234.14-.232.217.057-.06.143-.085.174-.057.028.024.029.103-.022.158-.089.095-.266.069-.374-.014-.12-.092-.155-.255-.036-.445.059.062.143.199.143.292a1.17 1.17 0 0 1 .215-.28c-.11.028-.234-.033-.306-.073a.396.396 0 0 1 .305-.09l-.37-.284c.048.113.016.216-.023.306-.057-.06-.146-.162-.147-.273-.072.122-.12.184-.215.28.089-.025.24.02.316.06-.153.163-.332.14-.441.071-.118-.075-.227-.22-.154-.353.036-.065.137-.048.168-.027.036.023.048.097.005.167.087-.059.229-.194.122-.286-.082-.072-.218-.007-.309.079.033-.103-.006-.291-.113-.32-.133-.037-.184.19-.142.28.008-.046.073-.142.13-.106.058.037.04.118.017.158-.066.12-.213.134-.34.066-.198-.107-.207-.297-.118-.395.094.027.141.085.19.17.011-.093.053-.23.091-.305a.36.36 0 0 1-.266.06.388.388 0 0 1 .242-.206l-.285-.074c.01.22-.17.614-.228.769 1.095.626 1.216.71 2.129 1.629" fill="#1A1919"/><path d="M27.837 8.49c-.101.06-.172.087-.213.158a1.897 1.897 0 0 0-.118.388c.082-.061.26-.224.298-.29.037-.066.016-.201.033-.256m1.317 1.006c-.038.111-.049.186-.11.24a1.901 1.901 0 0 1-.356.196c.043-.092.165-.3.222-.35.058-.05.194-.058.244-.086M19.382 1.56v-.466a.58.58 0 0 0-.453.467h.453m.24-.001h.45a.58.58 0 0 0-.45-.466v.467m-.687.226a.58.58 0 0 0 1.132 0h-1.132m.638-1.274a.955.955 0 0 1 .211-.418h-.583c.119.148.183.28.21.418a.144.144 0 0 1 .162 0" fill="#1A1919"/><path d="M19.413.753c-.023.144-.056.302-.192.41.205-.098.345-.102.574 0-.113-.082-.193-.267-.222-.41a.144.144 0 0 1-.16 0m-.049-.185a.703.703 0 0 1-.39-.235v.605a.711.711 0 0 1 .393-.236.141.141 0 0 1-.003-.134m.256 0c.01.02.016.042.016.065a.143.143 0 0 1-.018.07.712.712 0 0 1 .393.235V.333a.705.705 0 0 1-.39.235" fill="#1A1919"/><path d="M19.492.795a.163.163 0 1 1 0-.325.163.163 0 0 1 0 .325m-.347 3.211h.71V2.232h-.71z" fill="#1A1919"/><path d="M16.542 2.604c.101-.093.474-.402.901-.377.316.018.555.137.749.232.054.027.105.053.155.074.216.093.568.164.818.164.03 0 .06-.002.085-.004l.019-.001-.01-.128-.02.002a1.767 1.767 0 0 1-.301-.013l.013-.07a.186.186 0 0 0-.054-.363.186.186 0 1 0-.118.33l-.012.075a1.948 1.948 0 0 1-.37-.11 1.895 1.895 0 0 1-.093-.043l.038-.082a.186.186 0 1 0-.199-.185c0 .043.015.082.04.113l-.036.077a2.215 2.215 0 0 0-.341-.134l.022-.092a.186.186 0 0 0 .132-.177.186.186 0 0 0-.373 0c0 .058.028.11.07.143l-.021.086a1.549 1.549 0 0 0-.186-.022.97.97 0 0 0-.144.003l-.012-.068a.184.184 0 0 0 .067-.142.186.186 0 1 0-.238.178l.011.06c-.12.031-.23.079-.327.13l-.038-.064a.182.182 0 0 0 .024-.09.186.186 0 1 0-.186.185l.014-.001.037.061a1.87 1.87 0 0 0-.203.158.928.928 0 0 0-.072.075l-.046-.034a.186.186 0 1 0-.181.144.185.185 0 0 0 .065-.013l.057.042a1.215 1.215 0 0 0-.138.291l-.072-.017a.186.186 0 1 0-.046.168l.078.019a1.12 1.12 0 0 0-.001.347l-.075.017a.185.185 0 0 0-.324.124.186.186 0 0 0 .367.045l.07-.016c.031.11.074.218.12.317l-.07.036a.186.186 0 1 0 .082.154l.068-.036c.062.112.121.2.158.255l.004.018.004.018.015-.004.016.023.012.014.08-.06h.002v-.002l.02-.015-.011-.014-.02-.028c-.023-.132-.076-.548.1-.724a.52.52 0 0 1 .39-.167c.063 0 .126.008.187.016l.086.01.02-.04c.082-.162.228-.337.396-.34h.015c.207 0 .408.075.675.249.154.1.327.149.53.149.057 0 .106-.004.147-.007.032-.002.06-.005.078-.003h.019l.007-.127-.018-.001a.737.737 0 0 0-.096.004c-.039.002-.087.006-.14.006a.807.807 0 0 1-.456-.128c-.29-.189-.513-.27-.746-.27h-.017c-.252.005-.421.252-.487.37-.06-.007-.128-.016-.197-.016a.648.648 0 0 0-.484.205c-.14.14-.168.378-.162.572a1.942 1.942 0 0 1-.238-.619c-.083-.53.275-.875.316-.912m6.601.867a.185.185 0 0 0-.138.062l-.074-.017a1.13 1.13 0 0 0-.002-.347l.078-.019a.186.186 0 1 0-.045-.168l-.073.017a1.237 1.237 0 0 0-.137-.291l.057-.042a.186.186 0 1 0-.116-.131l-.046.034a.994.994 0 0 0-.073-.075 1.797 1.797 0 0 0-.202-.158l.036-.061.014.001a.186.186 0 1 0-.161-.095l-.038.065a1.434 1.434 0 0 0-.328-.13l.011-.061a.186.186 0 1 0-.17-.037l-.013.069a1.018 1.018 0 0 0-.144-.003 1.623 1.623 0 0 0-.186.022l-.02-.085a.185.185 0 0 0-.117-.33.186.186 0 1 0-.055.363l.023.092a2.26 2.26 0 0 0-.341.134l-.036-.077a.184.184 0 0 0-.147-.299.185.185 0 1 0-.012.37l.038.082a2.184 2.184 0 0 1-.094.044 1.946 1.946 0 0 1-.37.11l-.012-.076a.184.184 0 0 0 .069-.143.186.186 0 0 0-.373 0c0 .084.056.154.133.177l.011.07a1.824 1.824 0 0 1-.3.013l-.019-.002-.01.128.018.001c.026.003.055.003.086.003.25 0 .602-.07.818-.163.05-.022.103-.048.156-.074.192-.095.431-.213.748-.232.426-.025.8.284.9.377.042.037.4.382.316.912a1.932 1.932 0 0 1-.237.618c.005-.194-.022-.431-.163-.571a.648.648 0 0 0-.483-.205c-.07 0-.138.009-.198.016-.066-.118-.234-.365-.486-.37h-.015c-.235 0-.459.081-.748.27a.814.814 0 0 1-.457.128c-.053 0-.101-.004-.14-.007-.038-.002-.07-.005-.095-.004l-.019.002.008.127h.018a.591.591 0 0 1 .079.003c.04.003.09.007.147.007a.938.938 0 0 0 .529-.149c.267-.174.469-.248.674-.248h.017c.167.002.314.177.395.34l.02.04.086-.011a1.43 1.43 0 0 1 .186-.016.52.52 0 0 1 .392.167c.175.175.122.592.1.723l-.02.029-.012.014.02.015v.001h.002l.08.061.012-.014.017-.023.015.003.004-.017.003-.018c.038-.054.096-.143.158-.254l.07.036a.186.186 0 0 0 .372 0 .186.186 0 0 0-.29-.155l-.072-.037c.046-.098.09-.205.121-.316l.07.016a.186.186 0 1 0 .18-.231" fill="#1A1919"/><path d="M21.99 6.325c-.128-.039-.21-.141-.184-.228.027-.087.153-.126.281-.086.04.012.075.03.104.051l.014-.052c.151-.646.285-1.158.58-1.51l-.548-.234c.16.22.172.475.136.625-.162-.1-.3-.238-.346-.42a2.32 2.32 0 0 1-.23.603c.18-.075.324-.11.508-.042-.102.198-.327.54-.75.442-.274-.064-.469-.286-.414-.56.018-.09.087-.19.226-.178.136.012.146.229.104.31.178-.09.358-.564.079-.633-.219-.054-.475.227-.547.433-.041-.248-.227-.58-.448-.566-.287.017-.204.514-.104.634.018-.165.123-.312.208-.306.076.005.174.13.16.28-.026.262-.342.44-.619.44-.305 0-.562-.22-.606-.672.172.028.476.143.59.295a2.363 2.363 0 0 1 0-.715c-.142.18-.417.235-.581.259a.797.797 0 0 1 .38-.52h-.948c.218.121.293.326.342.518-.164-.025-.435-.08-.573-.257.035.284.035.442 0 .715.112-.15.41-.264.58-.293-.043.45-.357.634-.618.657-.281.025-.636-.073-.683-.377-.023-.149.161-.246.237-.25.085-.007.196.096.214.261.066-.202.128-.593-.159-.61-.22-.013-.357.26-.398.507-.073-.206-.369-.46-.577-.374-.258.105-.06.534.118.624-.042-.083-.057-.317.078-.33.14-.012.21.142.223.232.042.274-.178.478-.464.524-.452.073-.7-.22-.678-.488.185-.07.332-.036.514.04a2.276 2.276 0 0 1-.23-.602c-.047.184-.188.322-.354.423a.789.789 0 0 1 .136-.629l-.548.234c.287.34.409.953.581 1.515l.01.033a.34.34 0 0 1 .081-.037c.129-.04.255-.001.281.086.027.087-.055.19-.184.228a.338.338 0 0 1-.114.016.543.543 0 0 1-.017.17c.748-.363 1.864-.403 2.657-.403 0 0 1.544-.1 2.637.403a1.76 1.76 0 0 1 .01-.174.323.323 0 0 1-.146-.012" fill="#1A1919"/><path d="M16.968 5.958a.385.385 0 0 0-.202.059c-.097.06-.143.152-.118.233.023.074.1.122.2.127h.016a.373.373 0 0 0 .28-.125c.042-.053.056-.112.04-.166-.024-.078-.109-.128-.216-.128m5.019 0c-.107 0-.192.05-.216.128-.017.054-.002.113.04.166.04.049.1.087.169.108a.369.369 0 0 0 .162.013c.084-.013.145-.06.165-.123.022-.073-.014-.157-.094-.217a.372.372 0 0 0-.226-.075" fill="#1A1919"/><path d="M22.272 5.975c-.008 0-.016 0-.025-.003-1.767-.49-3.633-.49-5.546 0a.092.092 0 0 1-.046-.177c1.945-.499 3.842-.499 5.641 0a.091.091 0 0 1-.024.18" fill="#1A1919"/><path d="M16.678 5.994a.11.11 0 0 1-.095-.166.108.108 0 0 1 .068-.05 11.602 11.602 0 0 1 2.879-.375c.941 0 1.874.126 2.772.375a.11.11 0 1 1-.059.212 10.146 10.146 0 0 0-2.713-.368c-.924 0-1.874.124-2.825.368a.117.117 0 0 1-.027.004m1.15-2.355c-.089.22-.17.351-.146.516.022.166.205.604.289.767.056-.199.141-.68.12-.832-.023-.151-.223-.342-.263-.451m3.359.004c.077.225.151.36.119.523-.03.165-.236.593-.328.75-.046-.2-.106-.685-.077-.835.03-.15.24-.331.286-.438m-4.479 1.406a.197.197 0 1 1-.394 0 .197.197 0 0 1 .394 0" fill="#1A1919"/><path d="M16.51 5.264a.216.216 0 0 1-.215-.215.216.216 0 0 1 .432 0 .216.216 0 0 1-.216.215m3.185-.679a.21.21 0 1 1-.42 0 .21.21 0 0 1 .42 0" fill="#1A1919"/><path d="M19.758 4.438a.42.42 0 1 0 .002.84.42.42 0 0 0-.002-.84m0 .92a.5.5 0 1 1 .001-1.001.5.5 0 0 1 0 1.001m2.811-.323a.197.197 0 1 1-.394 0 .197.197 0 0 1 .394 0" fill="#1A1919"/><path d="M22.373 5.25a.216.216 0 1 1 0-.43.216.216 0 0 1 0 .43m-.127 1.476c0 .279-1.133.589-2.76.589-1.626 0-2.76-.31-2.76-.589 0-.278 1.134-.588 2.76-.588 1.627 0 2.76.31 2.76.588zm-2.76-.698c-1.391 0-2.87.245-2.87.698 0 .454 1.479.699 2.87.699s2.87-.245 2.87-.699c0-.453-1.479-.698-2.87-.698z" fill="#1A1919"/><path d="M21.629 6.858c-.54-.14-1.315-.22-2.128-.22-.823 0-1.605.082-2.146.224a.055.055 0 0 0 .015.109l.014-.002c.53-.141 1.303-.222 2.117-.222.804 0 1.57.08 2.1.217.029.007.06-.01.067-.04a.055.055 0 0 0-.04-.066M10.424 4.439l-.025-.156a.195.195 0 0 0-.126.18l.15-.024m.08-.013l.15-.024a.195.195 0 0 0-.174-.132l.024.156m-.216.111a.196.196 0 0 0 .376-.06l-.376.06m.145-.457a.32.32 0 0 1 .048-.15l-.194.03a.32.32 0 0 1 .092.128.047.047 0 0 1 .025-.012.05.05 0 0 1 .029.004" fill="#1A1919"/><path d="M10.391 4.168c0 .049-.003.103-.042.147.063-.044.11-.053.191-.03-.042-.022-.079-.08-.096-.126a.049.049 0 0 1-.025.013c-.01.001-.02 0-.028-.004m-.026-.058a.237.237 0 0 1-.142-.058l.032.2a.236.236 0 0 1 .118-.098.048.048 0 0 1-.01-.023.049.049 0 0 1 .002-.022m.085-.013a.047.047 0 0 1 .006.044c.05.004.106.022.144.058l-.032-.201a.24.24 0 0 1-.118.099" fill="#1A1919"/><path d="M10.512 4.11a.137.137 0 1 0 .042.271.137.137 0 0 0-.042-.27m.049.31a.177.177 0 1 1-.055-.35.177.177 0 0 1 .055.35m-.181.253l.094.591.237-.038-.094-.59-.237.037m-.079.113h.012a.075.075 0 1 0-.085-.063.075.075 0 0 0 .073.063" fill="#1A1919"/><path d="M10.485 5.051l-.01.001a.182.182 0 0 0-.031.007c-.025.005-.058.013-.097.013a.255.255 0 0 1-.106-.022.442.442 0 0 0-.27-.05c-.084.015-.128.105-.144.149-.067.002-.15.006-.218.1-.037.051-.036.127-.026.19a.634.634 0 0 1-.104-.184.353.353 0 0 1 .057-.317c.029-.037.136-.158.277-.172a.413.413 0 0 1 .048-.003c.084 0 .155.022.213.04l.003.001.052.016a.764.764 0 0 0 .311.005l.01-.001-.012-.048-.01.002a.694.694 0 0 1-.287-.006l-.021-.006.005-.02a.073.073 0 0 0 .037-.027.074.074 0 0 0-.072-.118.075.075 0 0 0-.045.123l-.005.018a.748.748 0 0 0-.097-.021l.001-.024a.074.074 0 0 0 .035-.075.074.074 0 0 0-.085-.062.072.072 0 0 0-.05.03.073.073 0 0 0-.013.055c.003.02.015.038.03.049l-.001.02a.477.477 0 0 0-.088.009l-.005-.014a.074.074 0 0 0-.072-.117.075.075 0 0 0-.006.146l.004.011a.46.46 0 0 0-.082.05l-.01-.014a.075.075 0 0 0-.084-.093.075.075 0 0 0 .011.15.1.1 0 0 0 .01-.001l.01.01a.6.6 0 0 0-.065.075l-.01-.005v-.008a.075.075 0 0 0-.086-.063.075.075 0 0 0-.062.086A.075.075 0 0 0 9.4 5h.012a.082.082 0 0 0 .02-.007L9.443 5a.417.417 0 0 0-.024.082h-.016a.074.074 0 0 0-.078-.04.075.075 0 0 0-.062.086.075.075 0 0 0 .131.036l.019.001c0 .03.005.062.014.093l-.015.007a.075.075 0 1 0 .032.077l.014-.006a.66.66 0 0 0 .045.078l-.014.011a.075.075 0 0 0-.037-.004.075.075 0 1 0 .086.07l.014-.01c.023.03.045.053.058.067l.003.005.003.009.006-.003.005.006.007.006.025-.026.003-.001-.001-.002.006-.006-.006-.007-.007-.007c-.015-.043-.054-.177-.006-.243.056-.076.117-.078.182-.08h.031l.006-.018c.018-.057.057-.122.111-.131.07-.013.14 0 .241.046a.31.31 0 0 0 .127.026.446.446 0 0 0 .108-.015l.026-.005.009-.001-.005-.049" fill="#1A1919"/><path fill="#1A1919" d="M10.276 4.815v-.059l.047.001-.001.058h-.046m1.43.158h.015a.074.074 0 0 0 .078.039.075.075 0 1 0-.07-.121l-.018-.001a.373.373 0 0 0-.015-.093l.017-.007a.075.075 0 0 0 .114-.075.075.075 0 1 0-.147 0l-.016.005a.38.38 0 0 0-.048-.07l.011-.012.008.001h.012a.075.075 0 0 0 .062-.086.075.075 0 0 0-.148.023l.003.008-.008.008a.623.623 0 0 0-.084-.05l.005-.014a.075.075 0 1 0-.076-.033l-.006.015a.486.486 0 0 0-.093-.021v-.012a.075.075 0 0 0 .035-.076.075.075 0 1 0-.118.072v.015a.334.334 0 0 0-.086.02l-.008-.02a.073.073 0 0 0 .013-.055.074.074 0 0 0-.086-.062.075.075 0 0 0-.005.146l.009.022a.757.757 0 0 0-.086.05l-.01-.015a.076.076 0 0 0 .004-.04.075.075 0 1 0-.075.086l.012.017-.018.012a.643.643 0 0 1-.106.052l-.005-.015a.074.074 0 0 0 .014-.055.074.074 0 0 0-.086-.063.075.075 0 0 0-.006.147l.005.012a.52.52 0 0 1-.088.017h-.009l.004.05.009-.001a.778.778 0 0 0 .342-.135.63.63 0 0 1 .235-.117.33.33 0 0 1 .064-.006c.118 0 .224.064.254.084.016.01.152.106.152.285a.63.63 0 0 1-.042.206c-.01-.063-.032-.135-.083-.172a.225.225 0 0 0-.135-.046c-.038 0-.072.01-.103.018-.029-.035-.099-.108-.183-.097a.449.449 0 0 0-.241.131c-.068.061-.145.067-.193.072a.293.293 0 0 0-.03.003l-.01.002.011.048.01-.002.022-.003h.003c.05-.004.14-.011.22-.084a.402.402 0 0 1 .215-.118c.055-.008.112.043.147.09l.01.015.03-.009c.03-.008.06-.017.092-.017.037 0 .07.011.105.037.067.048.071.187.071.232l-.005.01-.004.008.008.004v.002h.003l.032.017.004-.008.004-.007h.006v-.009l.001-.005a1.12 1.12 0 0 0 .035-.081l.016.005a.074.074 0 0 0 .084.055.074.074 0 0 0 .049-.03.075.075 0 0 0-.072-.118.075.075 0 0 0-.034.015l-.018-.006a.626.626 0 0 0 .02-.09M9.853 6.03a.13.13 0 0 0-.064.03c-.03.026-.04.058-.027.084.011.024.04.036.073.032h.005a.122.122 0 0 0 .086-.057c.012-.02.014-.04.005-.058-.012-.024-.043-.037-.078-.031m1.671-.265c-.036.006-.061.027-.065.054-.003.019.005.037.022.053a.117.117 0 0 0 .062.027.12.12 0 0 0 .055-.004c.027-.009.044-.027.048-.05.003-.026-.013-.051-.043-.067a.131.131 0 0 0-.08-.013"/><path d="M11.227 5.71c-.495 0-.994.27-1.483.803-.011.012-.016.044-.012.072.005.026.018.04.029.028.484-.527.977-.794 1.467-.794a1.39 1.39 0 0 1 .39.054c.01-.004.017-.023.018-.048.002-.03-.007-.057-.019-.06a1.401 1.401 0 0 0-.39-.056zm-1.475.953c-.016 0-.03-.023-.037-.06-.008-.051.001-.11.021-.133.492-.535.994-.807 1.491-.807.13 0 .262.019.392.056.022.006.038.056.036.112-.003.044-.016.08-.034.087-.004.002-.007.003-.01.001a1.38 1.38 0 0 0-.383-.054c-.487 0-.978.265-1.46.79a.021.021 0 0 1-.016.008zm.264-1.451c-.018.079-.038.126-.021.18.016.054.1.19.137.24.008-.069.01-.234-.005-.283-.015-.05-.092-.102-.11-.137m1.117-.176c.038.071.07.112.068.168-.002.057-.047.21-.07.268a1.11 1.11 0 0 1-.07-.275c.003-.052.063-.122.072-.16" fill="#1A1919"/><path d="M10.7 6.01c-.554.16-.909.46-.893.64.015.178.404.262.957.101.553-.16.909-.461.893-.64-.015-.179-.404-.263-.957-.101m.068.786c-.467.136-.963.121-.986-.139-.022-.26.447-.556.914-.692.466-.136.963-.12.985.139.023.26-.446.556-.913.692m.849-1.096a.025.025 0 0 1 .022.028.025.025 0 0 1-.027.021H11.6l-.001.012a1.493 1.493 0 0 1 .02 0 .037.037 0 0 0 .031-.032.037.037 0 0 0-.032-.04l-.013-.002-.002.012.013.002m-1.854.342a.025.025 0 0 1-.032-.013.022.022 0 0 1 0-.019.023.023 0 0 1 .012-.013l.017-.007-.005-.011-.017.007a.038.038 0 0 0-.02.02.036.036 0 0 0 .001.029.036.036 0 0 0 .04.021.076.076 0 0 0 .009-.002l.019-.008-.005-.011-.019.007" fill="#1A1919"/><path d="M11.652 5.384a.597.597 0 0 1 .06-.147l-.195-.049a.27.27 0 0 1 .079.177h-.004a.066.066 0 0 0-.026.01.225.225 0 0 1-.108-.107.768.768 0 0 1-.044.213.249.249 0 0 1 .117-.045v.013a.071.071 0 0 0 .028.045c-.032.067-.092.14-.204.132-.095-.006-.172-.07-.168-.164.001-.03.018-.068.066-.071.046-.003.06.068.05.098.055-.04.09-.207-.007-.215-.075-.007-.145.1-.159.173-.026-.08-.106-.182-.18-.165-.094.02-.04.182 0 .217-.003-.056.024-.111.053-.114.026-.002.065.035.068.086.005.088-.09.164-.182.178-.093.015-.181-.033-.226-.153a.078.078 0 0 0 .022-.036c.06.007.14.028.178.065a.808.808 0 0 1-.038-.238c-.031.057-.1.089-.153.107a.076.076 0 0 0-.022-.02.26.26 0 0 1 .094-.163l-.315.05a.23.23 0 0 1 .128.125.083.083 0 0 0-.018.029c-.055-.003-.127-.012-.173-.055a.813.813 0 0 1 .038.238c.024-.046.09-.09.144-.115.008.012.02.022.033.027a.224.224 0 0 1-.17.211c-.093.023-.216.01-.248-.09-.016-.048.04-.09.066-.096.027-.006.07.022.084.077.012-.071.012-.205-.085-.195-.074.007-.105.105-.105.19-.035-.065-.147-.134-.212-.094-.08.048.008.18.072.2-.018-.024-.036-.101.009-.113.045-.011.077.036.086.065.029.09-.034.17-.127.2-.121.04-.21-.012-.24-.083.006-.012.008-.027.006-.042l-.003-.01c.052-.024.1-.02.159-.006a.762.762 0 0 1-.108-.189.237.237 0 0 1-.087.152.113.113 0 0 0-.014-.006.269.269 0 0 1 .017-.202l-.17.107a.499.499 0 0 1 .09.108.072.072 0 0 0-.028.069.073.073 0 0 0 .098.056c.026.052.05.106.076.16.304-.13.614-.22.922-.27.31-.048.622-.056.93-.022a2.76 2.76 0 0 1 .02-.18.073.073 0 0 0 .05-.081.072.072 0 0 0-.024-.042" fill="#1A1919"/><path d="M10.688 5.783a3.84 3.84 0 0 0-.902.264l.006.012a.303.303 0 0 1 .005.01.106.106 0 0 1 .025-.016c.04-.02.085-.014.098.014.014.027-.008.066-.049.085a.11.11 0 0 1-.037.012.185.185 0 0 1 .003.057c.23-.16.6-.232.863-.275 0 0 .51-.114.9-.004-.003-.023-.006-.04-.006-.059a.11.11 0 0 1-.05.004c-.045-.006-.077-.036-.073-.066.004-.03.044-.05.09-.044a.116.116 0 0 1 .036.012l.002-.018v-.01a3.418 3.418 0 0 0-.911.022m4.848 1.864c.176.026.386.074.563.09.252.024.471.027.724.035.302-.04.464.367.27.623-.147.196-.345.434-.624.314-.05-.013-.088-.08-.18-.025-.155.135-.266.096-.374-.017-.043-.025-.106-.049-.147-.035-.223.09-.328-.014-.436-.114a.675.675 0 0 1-.234-.543c.005-.225.122-.31.438-.328m.363 1.543c-.138.023-.175.062-.241.154-.02.029-.1.01-.157-.007-.062-.018-.151-.037-.16-.108.006-.212.282-.433.48-.365.102.035.109.115.11.177.001.058-.003.158-.032.149m-.969-1.028c-.353 0-.44-.073-.48-.271a1.056 1.056 0 0 1-.009-.263c.36.017.464.063.438.265-.013.101-.012.135.052.27m1.25 1.503c-.025.147-.146.224-.263.209-.084-.012-.212-.135-.215-.213-.005-.134.091-.248.26-.237.148.01.25.059.218.24m1.08-1.235c.314 0 .39-.07.425-.255a1.04 1.04 0 0 0 .009-.246c-.32.016-.356.06-.364.251-.008.174-.025.18-.07.25m-2.846 1.71c-.32-.09-.417-.046-.503.123a.98.98 0 0 0-.075.235c.33.075.38.043.44-.138.054-.166.088-.158.138-.22m3.026.19c.282-.079.368-.04.443.108a.878.878 0 0 1 .066.207c-.29.067-.334.038-.387-.121-.048-.146-.048-.146-.122-.194m-1.464.845c.218.207.229.304.137.448a.899.899 0 0 1-.15.167c-.21-.22-.209-.275-.095-.405.104-.12.077-.123.108-.21m-.444-1.561c-.022.132.001.178.064.267.02.027-.023.094-.056.14-.036.051-.081.126-.148.113-.189-.072-.303-.391-.179-.55.064-.083.138-.064.195-.046.053.017.142.052.124.076m.808-.174c-.035-.13-.077-.161-.171-.215-.03-.017-.02-.095-.01-.15.01-.062.019-.15.085-.166.202-.015.441.224.398.421-.023.102-.098.117-.157.124-.055.008-.15.014-.145-.015m-.521.604c.124.052.174.039.275-.003.03-.013.087.043.124.086.042.046.106.106.078.168-.112.169-.449.21-.577.053-.066-.08-.032-.149-.001-.2.027-.047.082-.126.1-.104m.488-.14c.09-.082.098-.13.102-.23.001-.031.07-.054.119-.068.054-.016.129-.044.17.005.096.163.001.459-.177.5-.092.023-.136-.034-.166-.08-.03-.043-.075-.12-.048-.127m-2.291-.44c.07-.125.169-.27.231-.398.089-.184.15-.348.226-.537.047-.24.446-.24.617-.016.13.17.285.392.105.566-.026.035-.094.043-.071.13.076.157.013.23-.115.276-.033.025-.072.066-.07.1.017.197-.101.244-.218.296a.676.676 0 0 1-.537.013c-.194-.072-.236-.185-.168-.43m3.592.707a.667.667 0 0 1-.508-.144c-.098-.079-.2-.153-.134-.335.01-.033-.017-.08-.042-.112-.11-.077-.153-.161-.042-.292.043-.077-.02-.101-.036-.14-.128-.21.074-.383.24-.512.217-.17.597-.073.583.167.026.198.044.37.083.565.027.138.085.3.121.436.006.25-.062.347-.265.367m-1.358 1.146a.582.582 0 0 1-.107-.453c.019-.108.033-.218.203-.246.03-.007.056-.048.07-.08.012-.119.06-.188.21-.157.08 0 .07-.06.094-.088.109-.188.331-.107.505-.035.228.095.316.43.123.521-.144.104-.27.191-.407.306-.096.08-.197.193-.288.28-.193.11-.298.1-.402-.048m-1.821-.856c.1-.142.232-.24.418-.273.117-.02.232-.046.322.115.018.028.069.039.107.04.123-.03.21-.008.235.155.028.08.085.05.122.063.23.04.229.294.219.494-.013.264-.318.474-.481.313-.157-.106-.291-.202-.456-.298-.115-.067-.267-.127-.387-.187-.181-.153-.21-.263-.099-.422m13.997-4.927c-.034.044-.084.06-.138.028-.063-.041-.02-.09.017-.133.076-.088.206-.136.422-.073.257.074-.134-.03-.3.178m-1.419.687c-.037-.056-.232.182-.204.091.077-.185.126-.338.202-.475.035-.063.082-.088.161-.125.063-.002-.02.165.026.195l.411.324c-.153.102-.502.092-.596-.01m3.657 1.334c-.008-.194-.212-.346-.43-.369-.049-.005-.108-.002-.159-.018-.046-.015-.1-.052-.088-.136.127-.013.272-.013.368-.002.13.014.178.053.31.112-.042-.19-.253-.346-.471-.332-.046.003-.095.01-.143.01-.058 0-.16-.01-.164-.128.142-.028.277-.053.384-.053.13 0 .196.02.332.064a.429.429 0 0 0-.482-.268c-.05.009-.101.014-.158.026-.052.011-.137.029-.166-.07v-.002c.146-.047.254-.095.367-.11.13-.016.215-.002.357.025a.423.423 0 0 0-.507-.21l-.156.046c-.05.017-.131.048-.167-.06.137-.07.212-.112.313-.144a.573.573 0 0 1 .36-.013.42.42 0 0 0-.527-.142c-.048.021-.1.048-.158.072-.047.018-.108.022-.149-.047l-.001-.003c.088-.061.17-.12.247-.151.12-.05.223-.07.366-.08-.126-.147-.362-.14-.56-.03l-.078.04c-.05.026-.132.046-.18-.03a.817.817 0 0 1 .52-.2c0-.01-.166-.097-.302-.035a.157.157 0 0 0-.059-.128c0 .11-.155.22-.253.294-.178.134-.364.252-.6.297-.107.02-.162.003-.191-.033-.035-.047-.006-.112.084-.115.195-.006.314-.146.451-.246.056-.04.09-.087.18-.09-.469-.077-.744-.225-1.046.145-.058-.163.014-.25.104-.314.096-.067.21-.103.308-.167.156-.102.206-.322.116-.45-.084.075-.046.135-.145.294-.083.114-.153.127-.2.107.014-.05.08-.16.102-.223.033-.095.037-.092.049-.204 0-.002.018-.201-.058-.217a.555.555 0 0 0-.11.198c-.045.113-.162.427-.287.373.033-.107.041-.116.074-.222a1.14 1.14 0 0 0 .042-.25c.004-.05.01-.151-.057-.192a1.304 1.304 0 0 0-.132.222c-.064.166-.083.196-.15.394-.48-.308-.92-.573-1.342-.865-.435-.3-.859-.62-1.348-.835.191.213.41.365.603.545.1.092.165.134.224.139.126.009.165.052.197.082.073.05-.04.05-.122.053.075.059.113.12.177.12.248.003.238.035.265.055.135.101-.085.062-.146.071.049.07.136.128.188.135.09.012.2-.02.253.036.117.083-.029.06-.153.072.09.085.15.16.268.158.14-.003.176-.032.273.045.162.11-.113.09-.25.094.105.104.153.145.227.144.114-.002.272-.034.34.027.089.08-.065.092-.277.089.049.131.04.23-.143.372a.64.64 0 0 0-.247.401c-.053.34-.249.615-.468.83-.207.202-.341.35-.33.67.003.088.04.233.1.258.084.034.208-.008.308-.04.12-.038.233-.101.35-.154.023-.018.058-.009.046.05-.026.144-.055.286-.075.43l-.01.1c0 .009.024.02.036.025.156.072.418-.087.445-.275.028-.19.314-.496.476-.507.373-.025.68-.176.89-.496.021-.033.028-.076.042-.115.007-.046.046-.046.05.012-.006.062-.006.125-.018.186-.045.249-.24.368-.43.494-.068.044-.157.113-.166.18a1.067 1.067 0 0 1-.24.58c-.098.118-.265.298-.384.366.06-.005-.021.226-.02.225.089-.056.169-.049.215.045-.014-.175.406-.304.394-.285-.031.143.022.407-.048.487.089.002.128.002.155.128.02-.096.078-.172.151-.114.215.13.393.3.54.416.044.034.024.126-.086.144.184.065.59-.032.59-.032s.042.233-.027.295c.122.094.28.171.357.256.087.097.16.188.195.336.095-.169-.02-.41-.192-.543-.077-.06-.154-.121-.11-.268.107.078.2.147.265.22.087.097.167.193.2.317.095-.17-.024-.39-.197-.524-.078-.061-.189-.118-.14-.268l.007-.014c.105.076.21.144.276.217.087.096.168.157.206.303.095-.168-.031-.377-.203-.51-.078-.062-.181-.131-.132-.282.104.068.205.128.271.195.092.092.163.165.207.293.087-.173-.035-.375-.214-.5a1.055 1.055 0 0 1-.12-.106c-.013-.013-.088-.053-.046-.183.109.067.215.125.284.19.094.09.178.178.222.302.083-.176-.053-.387-.234-.508-.038-.025-.086-.049-.123-.081-.044-.039-.121-.065-.1-.206.12.055.236.1.315.16.104.077.204.148.26.257.061-.184-.103-.363-.298-.462-.043-.022-.098-.04-.14-.072-.043-.032-.088-.063-.087-.19.114.03.243.081.322.122.116.06.22.12.297.225.03-.191-.159-.355-.367-.42-.043-.014-.093-.041-.137-.062a.202.202 0 0 1-.094-.166c.117.02.266.052.35.085.12.049.192.093.303.184.011-.194-.18-.326-.393-.37-.039-.009-.084-.013-.125-.024-.04-.008-.125-.075-.114-.17.125.008.244.01.334.036.125.036.204.075.322.155" fill="#1A1919"/><path d="M28.976 5.065c.075.005.158-.044.18-.097.026-.056.02-.173-.004-.196-.007-.006-.039-.014-.072.034-.056.081-.033.146-.041.183-.008.036-.063.076-.063.076m.405-.135c.02.014.02.082-.014.116-.033.035-.078.059-.154.037.078-.036.05-.084.1-.124 0 0 .052-.043.068-.03m-.678.104c.085 0 .188-.059.216-.128.03-.075.018-.235-.006-.26-.007-.006-.047-.02-.086.045-.066.108-.039.194-.048.242-.01.049-.076.1-.076.1M18.597 19.708h.005v-.005h-.005z" fill="#1A1919"/><path d="M18.6 19.705l.002-.002-.005.005.004-.003m-2.385 5.441c.097.044.229.107.326.149.058.025.117.046.175.07.657.264 1.34.431 2.037.54a8.827 8.827 0 0 0 2.046.07c.63-.05 1.157-.214 1.753-.416.273-.097.473-.185.71-.318.113-.061.224-.14.348-.204.034.105.043.184-.071.25a6.446 6.446 0 0 1-1.253.54 6.2 6.2 0 0 1-1.684.294c-.54.024-1.069.009-1.6-.049a11.52 11.52 0 0 1-1.46-.287 7.807 7.807 0 0 1-.7-.232c-.189-.079-.287-.13-.478-.214-.059-.03-.08-.04-.124-.085-.028-.029-.037-.084-.025-.108m7.999.554c-.08.05-.175.116-.255.166-.378.235-.794.382-1.208.534-.211.078-.43.139-.647.2-.447.12-.662.159-1.276.219-.22.021-.585-.03-.937-.114.78.008 1.439-.069 1.852-.163.57-.13 1.133-.301 1.657-.573.174-.091.355-.204.507-.325.09-.09.254-.015.307.056m-8.127.305c-.252-.173-.43-.451-.447-.47.168.05.37.191.57.333.226.132.312.182.585.279.322.115.56.18.89.268.456.121.433.105.893.209.21.04.5.067.906.082-.547.1-.96.043-1.349-.027-.274-.05-.726-.118-1.063-.23-.577-.192-.733-.27-.985-.444" fill="#1A1919"/><path d="M25.454 24.994c-.842 1.15-1.732 1.485-2.58 1.705a8.46 8.46 0 0 1-1.451.216c.632-.121 1.216-.287 1.662-.474.455-.192.726-.312 1.114-.588.031-.03.085-.065.146-.04.196.081.861-.542 1.109-.819m-6.751 2.091c-.125-.015-.514-.152-.568-.226.547.12 1.047.12 1.559.134.068.005.313-.008.378-.01.19-.009.465.105.626.112-.165.045-.805.083-1.006.069-.001.01-.547-.022-.989-.079m4.795-2.209c-.374.204-.679.35-1.065.513a.363.363 0 0 1-.202.035c-.075-.022-.097-.082-.077-.151.098-.032.165-.059.252-.09.363-.128.568-.226.925-.373.034-.015.182-.105.263-.147.004.145-.06.194-.096.213m.025-.361c-.05.034-.234.122-.288.149-.27.128-.305.134-.572.257-.097.045-.47.18-.426-.007.466-.197.92-.37 1.373-.561.005.06.001.123-.087.162m1.097-1.172c.397-.086.992-.104 1.383-.072.003.137.003.203-.004.315-.42-.06-.982-.118-1.385-.175-.04-.006-.026-.063.007-.068m.737.697c.281.027.467 0 .373.239-.015.039-.065.164-.078.204-.064.19-.193.18-.366.167.02-.204.051-.408.07-.61m-2.035.11c0 .09-.136.15-.34.24-.133.06-.294.141-.416.159-.08.011-.167.035-.2-.053.371-.14.615-.243.916-.386.04-.022.04.005.04.04m.718.579l1.281.179c-.007.051-.015.088-.097.074-.218-.028-.509-.064-.726-.096-.115-.016-.258-.034-.372-.051-.073-.011-.086-.052-.086-.106m.365-1.121a1.03 1.03 0 0 1 .27-.009c.314.043.933.097 1.246.149-.023.062-.023.062-.055.117l-1.452-.2c-.045-.007-.045-.05-.009-.057m.604.646c-.075-.074-.143-.151.021-.256-.257-.035-.458-.069-.67-.1-.165-.024-.246-.003-.266.156-.017.136-.025.274-.043.427l.189.027c0-.15-.01-.282.002-.41.007-.066-.004-.167.112-.173.182.06.2.203.184.364a.445.445 0 0 0 .009.15c.008.032.053.096.079.102.113.024.196.04.358.062-.2-.154-.08-.26.025-.35m-5.737 1.172l-.96-.176c0-.13.293-.069.51-.027.248.048.45.09.45.203m-1.572.032c-.28-.055-.56-.163-.804-.246-.001-.193.814.057.804.246m.779.058l.748.131c0 .113-.277.082-.43.055-.15-.027-.36-.079-.318-.186m-.894-.575c-.105.116-.245.086-.385.063-.024-.004-.192-.049-.175-.14.007-.033.072-.042.104-.036.075.014.147.048.223.067.071.019.145.03.233.046" fill="#1A1919"/><path d="M24.906 25.299c-.15-.022-.255-.034-.407-.058-.043-.01-.044-.039-.044-.101.153.018.345.056.499.075 0 .056-.023.084-.048.084m.484-3.212c-.184-.067-.443.088-.657.271-.213.183-.268.104-.59-.019-.32-.121-.699.376-.699.376s-.097-.81.05-1.173c.158-.188.692-.513.75-.131.05.315.33.378.453.392.326.04.692-.299.692-.299s.01.423 0 .583zm-.005.628c.001.052-.012.148-.069.148h-.558c-.156 0-.335.06-.412.097-.17.08-.306.17-.56.297-.093.047-.123.059-.216.1-.04.018-.092.046-.143.068.185-.38.47-.759.734-.792.117-.015.247.113.359.108.195-.01.358-.158.476-.265.187-.173.37-.152.384-.11.012.033 0 .164.005.35zm-2.478 1.022c-.176.068-.217.072-.252-.008a83.913 83.913 0 0 1-.708-1.644c-.088-.217.053-.237.102-.154.15.255.999 1.477 1.048 1.54.115.146-.067.22-.19.266zm-.37.097c-.025.062-.161.101-.205.116-.102.034-.113-.053-.18-.297-.117-.418-.22-.839-.325-1.26-.024-.096-.037-.195-.055-.293-.022-.09.04-.104.074-.029.06.105.621 1.48.665 1.594.024.064.044.126.026.169zm-.619.254c-.035.01-.076 0-.082-.135-.01-.26-.035-1.073-.042-1.329 0-.015.092.36.12.473.045.162.198.735.21.854.007.079-.084.098-.206.137zm-.186-2.82c-.004-.054.04-.125.095-.198.126-.17.27-.329.427-.507.019-.022.035-.005.04.006.1.22.195.413.276.611.06.146-.024.267-.174.265a4.802 4.802 0 0 1-.406-.02c-.15-.013-.252-.067-.258-.157zm-.08-1.933c0-.036.013-.193.062-.077.023.038.345.79.456 1.049.041.097.03.164-.05.262-.115.138-.216.246-.323.364-.052.062-.074.034-.075-.04-.011-.165-.055-1.27-.07-1.558zm-.094 6.159c-.067.008-.115 0-.132-.11-.018-.088.01-.15.115-.15.07-.017.088.064.1.135.005.066-.04.121-.083.125zm-.418-.57c-.274.042-.408-.006-.493-.178l.89-.182c-.003.178-.156.325-.397.36zm-.548-.574c-.065-.28-.625-2.35-.624-2.514 0-.052.056-.124.166-.186.084-.059.112.097.128.145.13.403.253.808.378 1.212.062.203.113.41.173.61a.29.29 0 0 1-.005.186 8.173 8.173 0 0 1-.148.509c-.022.05-.066.065-.068.038zm-.194.28c-.1.008-.231-.005-.33-.006-.082 0-.1-.09-.106-.168-.01-.12-.045-.98-.05-1.283-.005-.253-.01-.48-.027-.731-.003-.051-.032-.352.011-.352.042-.012.107.282.114.31.073.286.142.573.213.86.096.391.195.781.283 1.174.033.147.039.185-.108.197zm-.567-3.43c-.003-.29-.023-.783-.039-1.136-.018-.413.008-.36.07-.137.07.209.237.836.294 1.022.022.073.075.216.02.238-.079.03-.188.055-.26.082-.05.02-.081-.003-.085-.07zm-.09-2.517c-.008-.175-.021-.336-.023-.509-.002-.189-.005-.238.034-.17.157.25.295.47.427.692.069.115-.039.108-.08.112-.08.01-.17.023-.235.024-.11 0-.116-.01-.123-.149zm.228.98c.037.053.55.813.783 1.228.037.065-.034.11-.086.13-.09.033-.105.027-.197.06-.125.047-.183-.053-.218-.186-.042-.158-.349-1.15-.34-1.21.008-.07.032-.06.058-.021zm.885 1.381c.082-.056.115-.029.114-.124 0-.06-.095-.014-.05-.085l.103-.224c.116-.227.254-.502.333-.677.032-.07.034-.04.024.033-.005.033-.212 1.286-.233 1.33-.02.045-.035.14-.268.194-.084.02-.195.059-.279.08-.032.01-.013-.018-.013-.018s.212-.47.27-.509zm.725-1.49c.005.1.02 1.32.02 1.537 0 .094-.114.182-.189.246-.065.055-.198.013-.174-.073 0 0 .288-1.649.316-1.8.01-.064.027-.028.027.09zm-.123 2.471c.03-.118.09-.082.063.03-.032.189-.382 2.106-.452 2.39-.026.103-.183.143-.324.157-.055.005-.055.005-.033-.066.21-.714.55-1.845.746-2.51zm-.974-.36a.328.328 0 0 1 .135.004c.197.062.362.107.549.19.072.032.188.056.154.214-.084.381-.208.754-.327 1.126l-.057.2c-.013.048-.044.125-.09-.028-.078-.27-.471-1.559-.493-1.618-.053-.14-.033-.216.124-.3.054-.028.036-.015.088-.048 0 0-.058.138-.098.19-.009.012-.017.018-.023.02-.09.02-.039.071.038.05zm1.138 2.064c0 .165.008.321.006.49-.003.187-.037.213-.157.242-.092.023-.206.07-.26.037-.04-.024-.033-.095-.021-.16.05-.295.333-1.823.374-2.054.007-.055.036-.155.041-.081 0 .194.02 1.21.017 1.526zm-1.94.76c-.002.081-.025.122-.083.122-.02 0-.336.001-.39-.055-.054-.056-.044-.12-.028-.226.01-.065.028-.137.051-.214.091-.312.345-1.34.407-1.588.013-.056.034-.046.025.07.006.121.003.263.004.383.003.377-.002.742.012 1.116.005.131.004.262.001.393zm-.654-.034c-.02.053-.034.09-.076.093-.07.004-.215.002-.23-.043-.019-.053 0-.102.023-.166.05-.143.656-2.197.703-2.326.015-.043.03-.223.14-.218.145.002.083.13.08.171-.007.118-.074.368-.102.483-.103.42-.212.837-.32 1.256-.041.164-.087.325-.133.487a4.003 4.003 0 0 1-.085.263zm-.46.057a.354.354 0 0 1-.109-.02c-.034-.01-.043-.056-.051-.09-.103-.42-.348-1.359-.392-1.568-.026-.126-.071-.212.062-.27.174-.075.405-.187.57-.28.038-.021.098-.061.1-.089.004-.083-.092-.028-.11-.06-.057-.1-.114-.202-.175-.306-.018-.03-.015-.042.019-.043.27-.011.515-.008.76 0 .154.005.142.131.118.23a96.87 96.87 0 0 1-.639 2.176c-.034.1-.1.322-.154.32zm-.275-.023c-.066-.004-.139-.006-.164-.035a.09.09 0 0 1-.018-.03c-.007-.02-.01-.047-.014-.065-.022-.108-.16-1.243-.199-1.562-.006-.044.032-.055.047-.008.057.178.37 1.48.398 1.666.006.036-.025.036-.05.034zm-.316-.045a.6.6 0 0 1-.105-.015c-.044-.012-.094-.02-.113-.058-.013-.027-.012-.182-.013-.218-.015-.378-.036-.736-.054-1.11-.001-.035-.016-.165.012-.218.02-.04.045-.037.063-.038.093-.002.095.2.104.24.033.161.149 1.296.151 1.346.003.06.005.076-.045.071zm-.331-2.36c-.006-.116.007-.17.057-.198a.233.233 0 0 1 .08-.023c.02-.003.062.02.073.05a.708.708 0 0 1 .029.19c0 .082-.005.103-.103.126-.06.016-.125.074-.136-.145zm-.049-1.017a16.61 16.61 0 0 1-.012-.295c0-.064.076-.031.092.015.02.054.121.71.143.915.004.033.017.079-.044.076-.022-.002-.047.004-.09.004-.077.002-.064-.14-.068-.258-.004-.134-.013-.311-.02-.457zm-.064-1.436l-.019-.548v-.08c-.001-.083.019-.032.03-.016.06.078.194.288.256.39.075.124.137.209.2.338.039.08.005.126-.084.131l-.075.009c-.294.021-.3.07-.308-.224zm-.052 4.5c-.003.068-.001.17-.062.169a.914.914 0 0 1-.183-.056c-.038-.025-.054-.044-.037-.087.076-.198.122-.377.184-.566.012-.04.04-.14.049-.16.037-.073.044.047.043.127.002.144.012.425.006.573zm-.445.423c-.113-.062-.126-.164-.05-.267l.4.136c-.072.169-.193.216-.35.13zm-.118-.478c-.02-.062.052-.164.09-.252l.004-.002.146-.297c.022-.034.116-.232.142-.289.012-.026.05-.124.058-.145.077-.189.094.031.079.086-.007.024-.199.698-.247.828-.021.057-.06.177-.11.161-.051-.016-.147-.043-.162-.09zm-.34-.031c-.068-.023.006-.096.019-.131.034-.088.084-.184.127-.26l.34-.715c.043-.065.063-.14.15-.12.134.03.132.104.092.224-.044.133-.122.297-.186.44l-.192.37a.999.999 0 0 1-.075.12c-.06.167-.217.091-.275.072zm-.412-.116c-.059-.02-.125-.05-.203-.083-.073-.032-.083-.133-.087-.192-.02-.27-.02-.393-.048-.665-.01-.093-.053-.126-.127-.126-.318 0-.552.006-.87 0-.116-.001-.494 0-.613 0-.066 0 .167-.159.192-.17.312-.18 1.137-.63 1.377-.786.254-.166.578-.449.827-.677.232-.213.38-.383.498-.502.093-.121.133-.008.113.05-.048.127-.042.124-.078.201-.066.141-.14.279-.204.419-.13.286-.549.906-.564.941-.018.04-.193-.003-.086.117.03.034.227.049.277.062.17.048.458.08.47.195.008.083-.067.27-.067.27s-.358.706-.49.922c-.052.085-.07.104-.317.024zm-.627-.225c-.122-.042-.25-.154-.479-.346-.142-.119-.395-.396-.28-.399.377-.008.545.006.775.006.192 0 .178.057.195.173.02.13.007.322.015.453.01.133-.1.166-.226.113zm.052 1.121c-.05.026-.12-.075-.169-.132-.092-.107-.118-.224-.182-.418-.103-.317-.186-.691.01-.57.121.074.117.066.207.133.095.082.097.25.104.284.04.211.047.312.053.52.004.107.024.16-.023.183zm-.82-.672a44.873 44.873 0 0 1-.874-.79c-.048-.045-.288-.263-.266-.354.03-.075.124-.048.312-.05.32 0 .1-.002.32 0 .257 0 .337.133.399.207l.023.03c.086.104.153.207.22.42.057.182.329.934-.133.537zm2.405-4.26c-.16.018-.153-.084-.132-.142.082-.234.187-.46.284-.688.021-.058.046-.066.047-.01 0 .148.008.625.007.658-.005.193-.075.168-.206.182zm.244 1.067c.01.115.004.432.004.52v.243c0 .027.005.078-.029.088-.039.012-.11-.016-.14-.024-.102-.027-.167-.04-.263-.09-.094-.048-.014-.145.004-.19.086-.207.145-.351.241-.555.023-.048.067-.205.129-.167.054.04.05.129.054.175zm-.235 1.366c-.04.046-.079.057-.106.058a2.7 2.7 0 0 1-.475.002c-.1-.016-.129-.057-.051-.158.022-.029.097-.134.137-.2.041-.066.08-.147.142-.225.017-.023.02-.044.04-.048.04-.009.092.018.125.029.11.035.186.051.357.117.085.034-.007.149-.053.234-.043.079-.08.15-.116.191zm.229-.006c-.052.016-.098.04-.118.025-.032-.025.009-.07.041-.12l.05-.073c.025-.04.052-.013.052.036 0 .049.02.117-.025.132zm1.041-.307c.062.096.098.13-.03.136-.088.003-.255-.001-.342.01-.096.01-.117-.055-.13-.166-.003-.025-.143-.98-.166-1.181-.017-.084.047-.08.076 0 .108.285.508 1.07.592 1.2zm-.385-1.757c.116-.085.166.01.228.085.156.19.314.378.465.572.026.033.039.104.022.14a8.92 8.92 0 0 1-.28.544c-.046.084-.116.058-.168-.034-.118-.213-.42-.865-.444-.964-.01-.046-.013-.07.009-.114a.756.756 0 0 1 .168-.23zm.568-.312c.08-.031.014-.058-.12-.067-.057-.003-.017-.021.015-.048l.456-.381c.058-.048.226-.177.304-.156.075.02.044.079.037.118-.008.041-.346 1.155-.435 1.37-.024.057-.058.048-.075.029-.169-.2-.325-.374-.457-.612-.057-.103.073-.177.275-.253zm.584-1.017l.337-.82c.05-.145.079-.058.08-.005.01.144.007.656.007.702 0 .051-.044.09-.09.11-.083.039-.182.086-.298.11-.04.007-.073-.02-.036-.097zm.011 2.51c-.214.067-.345.094-.51.135-.104.038-.092-.013-.057-.073l.18-.375c.018-.035.043-.073.07-.053.113.081.207.166.324.269.06.053.015.09-.007.097zm-.238-.468c-.043-.039-.03-.103.01-.202.02-.047.39-1.247.42-1.304.032-.094.072-.164.06.042a322.8 322.8 0 0 1-.107 1.491c-.005.057 0 .256-.065.225a3.17 3.17 0 0 1-.318-.252zm.574.356c-.066-.009-.105.044-.085-.216a96.69 96.69 0 0 0 .1-1.585c.017-.19.05-.172.055.08.002.049.01 1.213.017 1.5-.002.05.04.228-.087.221zm6.73 1.538h-.755c-.102 0-.078-.082-.077-.147.005-.262.002-1.63.002-1.75h-.073a5.896 5.896 0 0 0-.009.344c0 .086-.54.468-.77.33-.105-.062-.099-.13-.108-.218-.016-.165-.087-.308-.241-.371-.217-.088-.705.166-.855.36-.148.19-.148 1.648-.064 2.043a.124.124 0 0 1-.058.004c-.076-.02-.14-.138-.217-.256-.008-.01-.4-.531-.417-.559-.122-.194-.303-.458-.432-.647-.136-.201.033-.215.247-.293.182-.066.274-.163.452-.164.231-.001.157-.079.094-.075-.17-.003-.215-.103-.245-.172-.096-.216-.287-.605-.373-.796-.006-.012-.078-.134-.13-.253-.136-.308-.296-.678-.444-.98-.102-.208-.203-.403-.192-.635.004-.1.004-.274-.002-.34-.292-.081-.33-.023-.536.142-.108.086-.333.074-.403.02.045.13.2.188.245.204.204.068.288-.01.506-.045.06-.01.132-.022.132.024 0 .031.004.076 0 .129-.023.34-.13.645-.242.966-.113.32-.276.624-.422.932-.037.08-.065.174-.124.096-.095-.125-.812-1.249-.847-1.413-.023-.103.104-.106.2-.132.256-.067.271-.309.49-.382.056-.027.022-.085-.09-.07-.234.03-.339-.174-.43-.319a7.19 7.19 0 0 1-.39-.684c-.03-.062-.023-.152-.022-.233 0-.08.003-.073.01-.198-.104.092-.289.069-.392.162-.149.135-.134.546-.487.242.048.063.087.257.336.254.129-.002.229-.032.33-.182.068-.102.147-.111.11-.032-.007.017-.189.488-.262.652-.092.209-.176.43-.29.584-.039.051-.05.09-.153.114-.02.005-.123.007-.123.035 0 .034.013.018.092.032.232.04.108.2-.066.318-.007.004-.29.243-.29.243-.153.118-.237.146-.355 0-.184-.228-.333-.502-.496-.746-.147-.22-.191-.46-.184-.732.004-.155-.003-.253-.004-.45-.229.024-.35.164-.474.28-.143.135-.196.312-.402.33.147.123.364.056.592-.125.07-.055.176-.074.181.084.003.07.008.13.004.201a.547.547 0 0 1-.028.178c-.07.213-.163.392-.262.625-.077.18-.152.402-.273.496a.353.353 0 0 1-.197.086c-.161.011-.12.081-.095.082.172.047.311.084.45.125.158.046.267.253.196.373a1.261 1.261 0 0 1-.048.072 7.093 7.093 0 0 1-1.37 1.219c-.251.164-.998.55-1.258.7-.194.113-.429.318-.617.318-.047 0-.09-.063-.087-.178.01-.324.02-.972.018-1.718-.17 0-.149.174-.33.196-.132.016-.157.06-.16.105-.016.193-.017.306-.02.384.037.005.088-.024.116-.043.186-.128.162-.069.321-.098.006.22-.002.98-.013 1.204-.003.05-.019.148-.115.148h-.606c-.045-.003-.044.079.043.106.061.016.143.01.21.014.092.006.17.078.197.106a19.121 19.121 0 0 0 1.229 1.157c.1.08.212.166.325.313.112.146.442.683.52.74l-.002.001.003.001.006.004v-.001c.191.069.352.195.532.284.284.14.566.278.858.39.244.094.467.16.72.229.325.09.68.2 1.012.247.403.057.614.082.922.085.432.005.866-.005 1.296-.044.356-.032.71-.105 1.06-.176a4.916 4.916 0 0 0 1.273-.45c.188-.09.518-.305.699-.408-.042-.073-.167-.098-.265-.027-.198.115-.234.16-.557.304-.296.132-.576.266-.887.343-.458.113-.86.19-1.408.266-.57.047-1.134.05-1.677.001-.603-.067-.968-.163-1.545-.327a4.938 4.938 0 0 1-.723-.243c-.264-.107-.565-.263-.722-.385-.223-.176-.29-.42-.279-.943.003-.142.059-.202.136-.18.048.013.095.027.142.042.162.051.377.129.537.188.501.185.96.304 1.455.394.149.026.34.058.562.07.002-.056.02-.095-.01-.114-.034-.023-.156-.023-.15-.116 0-.052.135-.051.18-.05.122.005.204.017.333.031.042.014.018.224.013.286.195.008.376.02.585.018.071 0 .201-.009.208.061.006.066-.008.052-.299.065-.033.001-.03.044.002.043a.412.412 0 0 1 .182.052c.086.086.069.195.066.327-.005.21.119.195.28.202.339.014.6-.014.838-.032.11-.022.133-.09.13-.16-.285 0-.867.067-.887.032-.045-.014-.035-.04-.042-.088-.006-.048.037-.047.177-.052.184-.006.3-.024.474-.028.136-.004.175-.047.174-.115l-.85.004c-.038 0 .004-.155.08-.155.62-.003.65-.07.956-.088.075-.004.226.043.227.182 0 .348.122.321.224.304.02-.004.192.012.16-.224-.004-.134-.073-.301-.007-.392.081-.11.259-.149.423-.223.134-.06.08-.095.05-.168-.037-.09.014-.152.095-.18a11.969 11.969 0 0 0 .905-.353c.193-.085.197-.184.315.05.01.02.013.04.03.095.094-.06.234-.104.24-.162.026-.244.183-.404.322-.574.134-.164.293-.378.533-.395.08-.005 1.54.006 1.66 0 .048-.078.122-.184.012-.184z" fill="#1A1919"/></g></svg>