<svg id="Layer_1" xmlns="http://www.w3.org/2000/svg" xmlns:xlink="http://www.w3.org/1999/xlink" width="129" height="20" viewBox="0 0 129 20"><style>.st0,.st1{clip-path:url(#SVGID_2_);fill:#dce0df}.st1{clip-path:url(#SVGID_4_)}.st2{clip-path:url(#SVGID_6_)}.st2,.st3,.st4{fill:#dce0df}.st3{clip-path:url(#SVGID_8_)}.st4{clip-path:url(#SVGID_10_)}.st5{clip-path:url(#SVGID_12_)}.st5,.st6,.st7{fill:#dce0df}.st6{clip-path:url(#SVGID_14_)}.st7{clip-path:url(#SVGID_16_)}.st10,.st8,.st9{fill:#dce0df}.st8{clip-path:url(#SVGID_18_)}.st9{clip-path:url(#SVGID_20_)}.st10{clip-path:url(#SVGID_22_)}.st11{clip-path:url(#SVGID_24_)}.st11,.st12,.st13{fill:#dce0df}.st12{clip-path:url(#SVGID_26_)}.st13{clip-path:url(#SVGID_28_)}.st14{clip-path:url(#SVGID_30_)}.st14,.st15,.st16{fill:#dce0df}.st15{clip-path:url(#SVGID_32_)}.st16{clip-path:url(#SVGID_34_)}.st17{clip-path:url(#SVGID_36_)}.st17,.st18,.st19{fill:#dce0df}.st18{clip-path:url(#SVGID_38_)}.st19{clip-path:url(#SVGID_40_)}.st20{clip-path:url(#SVGID_42_)}.st20,.st21,.st22{fill:#dce0df}.st21{clip-path:url(#SVGID_44_)}.st22{clip-path:url(#SVGID_46_)}.st23{clip-path:url(#SVGID_48_)}.st23,.st24,.st25{fill:#dce0df}.st24{clip-path:url(#SVGID_50_)}.st25{clip-path:url(#SVGID_52_)}.st26{clip-path:url(#SVGID_54_);enable-background:new}.st27{clip-path:url(#SVGID_56_)}.st28{clip-path:url(#SVGID_58_)}.st29{clip-path:url(#SVGID_60_);fill:#dce0df}.st30{clip-path:url(#SVGID_62_)}.st30,.st31,.st32{fill:#dce0df}.st31{clip-path:url(#SVGID_64_)}.st32{clip-path:url(#SVGID_66_)}.st33{clip-path:url(#SVGID_68_)}.st33,.st34,.st35{fill:#dce0df}.st34{clip-path:url(#SVGID_70_)}.st35{clip-path:url(#SVGID_72_)}.st36{clip-path:url(#SVGID_74_)}.st36,.st37,.st38{fill:#dce0df}.st37{clip-path:url(#SVGID_76_)}.st38{clip-path:url(#SVGID_78_)}.st39{clip-path:url(#SVGID_80_)}.st39,.st40,.st41{fill:#dce0df}.st40{clip-path:url(#SVGID_82_)}.st41{clip-path:url(#SVGID_84_)}.st42{clip-path:url(#SVGID_86_)}.st42,.st43,.st44{fill:#dce0df}.st43{clip-path:url(#SVGID_88_)}.st44{clip-path:url(#SVGID_90_)}.st45{clip-path:url(#SVGID_92_)}.st45,.st46,.st47{fill:#dce0df}.st46{clip-path:url(#SVGID_94_)}.st47{clip-path:url(#SVGID_96_)}.st48{clip-path:url(#SVGID_98_)}.st48,.st49,.st50{fill:#dce0df}.st49{clip-path:url(#SVGID_100_)}.st50{clip-path:url(#SVGID_102_)}.st51{clip-path:url(#SVGID_104_)}.st51,.st52,.st53{fill:#dce0df}.st52{clip-path:url(#SVGID_106_)}.st53{clip-path:url(#SVGID_108_)}.st54{clip-path:url(#SVGID_110_)}.st54,.st55,.st56{fill:#dce0df}.st55{clip-path:url(#SVGID_112_)}.st56{clip-path:url(#SVGID_114_)}.st57{clip-path:url(#SVGID_116_)}.st57,.st58,.st59{fill:#dce0df}.st58{clip-path:url(#SVGID_118_)}.st59{clip-path:url(#SVGID_120_)}.st60{clip-path:url(#SVGID_122_)}.st60,.st61,.st62{fill:#dce0df}.st61{clip-path:url(#SVGID_124_)}.st62{clip-path:url(#SVGID_126_)}.st63{clip-path:url(#SVGID_128_)}.st63,.st64,.st65{fill:#dce0df}.st64{clip-path:url(#SVGID_130_)}.st65{clip-path:url(#SVGID_132_)}.st66{clip-path:url(#SVGID_134_)}.st66,.st67,.st68{fill:#dce0df}.st67{clip-path:url(#SVGID_136_)}.st68{clip-path:url(#SVGID_138_)}.st69{clip-path:url(#SVGID_140_)}.st69,.st70,.st71{fill:#dce0df}.st70{clip-path:url(#SVGID_142_)}.st71{clip-path:url(#SVGID_144_)}</style><defs><path id="SVGID_1_" d="M.62.6h1.12v18.47H.62z"/></defs><clipPath id="SVGID_2_"><use xlink:href="#SVGID_1_" overflow="visible"/></clipPath><path class="st0" d="M-3.54-3.57h9.45v26.8h-9.45z"/><defs><path id="SVGID_3_" d="M16.02 3.6c-.15.2-.27.32-.25.47.02.16.25.26.35.42.1-.18.26-.32.24-.46-.02-.14-.3-.33-.34-.43"/></defs><clipPath id="SVGID_4_"><use xlink:href="#SVGID_3_" overflow="visible"/></clipPath><path class="st1" d="M11.6-.57h8.93v9.23H11.6z"/><defs><path id="SVGID_5_" d="M18.73 3.6c.14.2.27.32.25.47-.02.16-.25.26-.35.42-.1-.18-.26-.32-.24-.46.02-.14.29-.33.34-.43"/></defs><clipPath id="SVGID_6_"><use xlink:href="#SVGID_5_" overflow="visible"/></clipPath><path class="st2" d="M14.22-.57h8.93v9.23h-8.93z"/><defs><path id="SVGID_7_" d="M14.48 3.64c.14 0 .26-.12.26-.26 0-.15-.12-.26-.26-.26s-.26.12-.26.26.11.26.26.26"/></defs><clipPath id="SVGID_8_"><use xlink:href="#SVGID_7_" overflow="visible"/></clipPath><path class="st3" d="M10.05-1.05h8.86v8.86h-8.86z"/><defs><path id="SVGID_9_" d="M14.68 3.82c0-.14-.12-.26-.26-.26s-.26.12-.26.26c0 .15.12.26.26.26s.26-.11.26-.26"/></defs><clipPath id="SVGID_10_"><use xlink:href="#SVGID_9_" overflow="visible"/></clipPath><path class="st4" d="M9.99-.61h8.85v8.86H9.99z"/><defs><path id="SVGID_11_" d="M14.77 4.26c0-.14-.12-.26-.26-.26s-.26.12-.26.26.12.26.26.26.26-.12.26-.26"/></defs><clipPath id="SVGID_12_"><use xlink:href="#SVGID_11_" overflow="visible"/></clipPath><path class="st5" d="M10.08-.17h8.85v8.85h-8.85z"/><defs><path id="SVGID_13_" d="M15.48 2.77c.14 0 .26-.12.26-.26 0-.15-.12-.26-.26-.26s-.26.11-.26.26c0 .14.12.26.26.26"/></defs><clipPath id="SVGID_14_"><use xlink:href="#SVGID_13_" overflow="visible"/></clipPath><path class="st6" d="M11.06-1.91h8.85v8.85h-8.85z"/><defs><path id="SVGID_15_" d="M15.03 2.91c.14 0 .26-.12.26-.26s-.12-.26-.26-.26-.26.12-.26.26.12.26.26.26"/></defs><clipPath id="SVGID_16_"><use xlink:href="#SVGID_15_" overflow="visible"/></clipPath><path class="st7" d="M10.61-1.78h8.86v8.86h-8.86z"/><defs><path id="SVGID_17_" d="M14.68 3.22c.14 0 .26-.11.26-.26 0-.14-.12-.26-.26-.26s-.26.12-.26.26c-.01.15.12.26.26.26"/></defs><clipPath id="SVGID_18_"><use xlink:href="#SVGID_17_" overflow="visible"/></clipPath><path class="st8" d="M10.25-1.46h8.86v8.85h-8.86z"/><defs><path id="SVGID_19_" d="M15.96 2.82c.14 0 .26-.12.26-.26s-.12-.26-.26-.26-.26.12-.26.26.12.26.26.26"/></defs><clipPath id="SVGID_20_"><use xlink:href="#SVGID_19_" overflow="visible"/></clipPath><path class="st9" d="M11.53-1.87h8.85v8.86h-8.85z"/><defs><path id="SVGID_21_" d="M16.41 2.95c.14 0 .26-.12.26-.26s-.12-.26-.26-.26c-.15 0-.26.12-.26.26s.11.26.26.26"/></defs><clipPath id="SVGID_22_"><use xlink:href="#SVGID_21_" overflow="visible"/></clipPath><path class="st10" d="M11.98-1.74h8.85v8.86h-8.85z"/><defs><path id="SVGID_23_" d="M16.83 3.15c.14 0 .26-.12.26-.26s-.12-.26-.26-.26-.26.12-.26.26.12.26.26.26"/></defs><clipPath id="SVGID_24_"><use xlink:href="#SVGID_23_" overflow="visible"/></clipPath><path class="st11" d="M12.41-1.54h8.86v8.86h-8.86z"/><defs><path id="SVGID_25_" d="M20 3.38c0 .14.12.26.26.26s.26-.12.26-.26c0-.15-.12-.26-.26-.26-.15 0-.26.11-.26.26"/></defs><clipPath id="SVGID_26_"><use xlink:href="#SVGID_25_" overflow="visible"/></clipPath><path class="st12" d="M15.83-1.05h8.85v8.86h-8.85z"/><defs><path id="SVGID_27_" d="M20.32 3.56c-.14 0-.26.11-.26.26 0 .15.12.26.26.26s.26-.12.26-.26c0-.15-.12-.26-.26-.26"/></defs><clipPath id="SVGID_28_"><use xlink:href="#SVGID_27_" overflow="visible"/></clipPath><path class="st13" d="M15.89-.61h8.86v8.86h-8.86z"/><defs><path id="SVGID_29_" d="M20.23 4c-.14 0-.26.12-.26.26 0 .15.12.26.26.26s.26-.11.26-.26c0-.14-.12-.26-.26-.26"/></defs><clipPath id="SVGID_30_"><use xlink:href="#SVGID_29_" overflow="visible"/></clipPath><path class="st14" d="M15.8-.17h8.85v8.85H15.8z"/><defs><path id="SVGID_31_" d="M19.25 2.77c.14 0 .26-.12.26-.26 0-.15-.12-.26-.26-.26s-.26.11-.26.26c0 .14.12.26.26.26"/></defs><clipPath id="SVGID_32_"><use xlink:href="#SVGID_31_" overflow="visible"/></clipPath><path class="st15" d="M14.82-1.91h8.86v8.85h-8.86z"/><defs><path id="SVGID_33_" d="M19.7 2.91c.14 0 .26-.12.26-.26s-.12-.26-.26-.26-.26.12-.26.26.12.26.26.26"/></defs><clipPath id="SVGID_34_"><use xlink:href="#SVGID_33_" overflow="visible"/></clipPath><path class="st16" d="M15.28-1.78h8.86v8.86h-8.86z"/><defs><path id="SVGID_35_" d="M20.06 3.22c.14 0 .26-.11.26-.26 0-.14-.12-.26-.26-.26s-.26.12-.26.26c0 .15.12.26.26.26"/></defs><clipPath id="SVGID_36_"><use xlink:href="#SVGID_35_" overflow="visible"/></clipPath><path class="st17" d="M15.63-1.46h8.86v8.85h-8.86z"/><defs><path id="SVGID_37_" d="M18.78 2.82c.15 0 .26-.12.26-.26s-.12-.26-.26-.26-.26.12-.26.26.11.26.26.26"/></defs><clipPath id="SVGID_38_"><use xlink:href="#SVGID_37_" overflow="visible"/></clipPath><path class="st18" d="M14.35-1.87h8.86v8.86h-8.86z"/><defs><path id="SVGID_39_" d="M18.33 2.95c.15 0 .26-.12.26-.26s-.12-.26-.26-.26-.26.12-.26.26c-.01.14.12.26.26.26"/></defs><clipPath id="SVGID_40_"><use xlink:href="#SVGID_39_" overflow="visible"/></clipPath><path class="st19" d="M13.9-1.74h8.86v8.86H13.9z"/><defs><path id="SVGID_41_" d="M17.64 2.88c0 .15.12.26.26.26.15 0 .26-.12.26-.26s-.12-.26-.26-.26-.26.12-.26.26"/></defs><clipPath id="SVGID_42_"><use xlink:href="#SVGID_41_" overflow="visible"/></clipPath><path class="st20" d="M13.48-1.54h8.85v8.86h-8.85z"/><defs><path id="SVGID_43_" d="M16.98 3.79h.29v-.78c-.11-.01-.2-.03-.29-.06v.84z"/></defs><clipPath id="SVGID_44_"><use xlink:href="#SVGID_43_" overflow="visible"/></clipPath><path class="st21" d="M12.81-1.22h8.63v9.17h-8.63z"/><defs><path id="SVGID_45_" d="M17.69 2.95c-.09.03-.19.05-.3.06v.78h.29v-.84z"/></defs><clipPath id="SVGID_46_"><use xlink:href="#SVGID_45_" overflow="visible"/></clipPath><path class="st22" d="M13.23-1.22h8.63v9.17h-8.63z"/><defs><path id="SVGID_47_" d="M17.32 2.22v-.6a.77.77 0 0 0-.6.6h.6z"/></defs><clipPath id="SVGID_48_"><use xlink:href="#SVGID_47_" overflow="visible"/></clipPath><path class="st23" d="M12.56-2.54h8.93v8.93h-8.93z"/><defs><path id="SVGID_49_" d="M17.41 2.22h.6c-.05-.3-.29-.53-.6-.6v.6z"/></defs><clipPath id="SVGID_50_"><use xlink:href="#SVGID_49_" overflow="visible"/></clipPath><path class="st24" d="M13.24-2.54h8.93v8.93h-8.93z"/><defs><path id="SVGID_51_" d="M16.73 2.31c.06.34.28.6.56.6s.5-.25.56-.6h-1.12z"/></defs><clipPath id="SVGID_52_"><use xlink:href="#SVGID_51_" overflow="visible"/></clipPath><path class="st25" d="M12.57-1.86h9.45v8.93h-9.45z"/><defs><path id="SVGID_53_" d="M16.81.6h.95v.96h-.95z"/></defs><clipPath id="SVGID_54_"><use xlink:href="#SVGID_53_" overflow="visible"/></clipPath><g class="st26"><defs><path id="SVGID_55_" d="M16.45.18h1.67v1.67h-1.67z"/></defs><clipPath id="SVGID_56_"><use xlink:href="#SVGID_55_" overflow="visible"/></clipPath><g class="st27"><defs><path id="SVGID_57_" d="M17.6 1.55a.638.638 0 0 1-.25-.41c.15.03.32.13.41.26V.78c-.1.13-.26.24-.41.26.02-.15.11-.29.24-.45h-.6c.13.16.22.3.24.45a.696.696 0 0 1-.41-.26v.63c.1-.13.26-.23.41-.26-.02.16-.12.3-.25.41h.62z"/></defs><clipPath id="SVGID_58_"><use xlink:href="#SVGID_57_" overflow="visible"/></clipPath><g class="st28"><defs><path id="SVGID_59_" d="M16.45.18h1.67v1.67h-1.67z"/></defs><clipPath id="SVGID_60_"><use xlink:href="#SVGID_59_" overflow="visible"/></clipPath><path class="st29" d="M12.65-3.57h9.28v9.29h-9.28z"/></g></g></g><defs><path id="SVGID_61_" d="M18.27 14.05c-.57-.14-1.25-.39-1.89-.68v-.01a.49.49 0 0 0-.13-.39.503.503 0 0 0-.36-.18c-.06 0-.12.01-.17.03a3.055 3.055 0 0 1-.82-1.25c-.08-.21-.13-.43-.17-.65-.03.18-.24.43-.6.44 0-.04 0-.13-.03-.14-.09.1-.24.22-.56.1.05.25.12.5.21.74.19.52.47.98.82 1.38.12.13.24.25.37.37v.07c0 .13.13.35.32.44.15.07.32.06.47-.05.28.15.63.29 1.01.39.43.12.84.18 1.17.18.28 0 .65-.13 1.01-.36.14-.09.28-.2.38-.29.01-.01.03-.02.04-.04-.29.07-.72-.01-1.07-.1m-2.09-.86l-.06-.04c-.11-.09-.2-.09-.3 0-.05.04-.09.09-.13.14l-.06.07.04.04c.12.09.13.19.1.26-.01.02-.03.04-.06.05a.335.335 0 0 1-.22-.06l-.04-.03-.03.04c-.01.01-.01.02-.02.03-.01.01-.02.03-.03.05a.46.46 0 0 0-.07.21c0 .01 0 .03.01.04.02.06.07.1.11.12l.03.02.18.11c-.11.06-.21.06-.31.01-.16-.08-.26-.26-.26-.35 0-.14.06-.31.17-.48l.02-.03-.02-.03c-.03-.05-.06-.1-.08-.15l.18.03.03.01.02-.02c.07-.08.31-.32.53-.32.1 0 .2.05.28.14.06.07.09.15.1.22a.444.444 0 0 1-.11-.08m.37 1.09a.246.246 0 0 1 0-.49c.14 0 .24.11.24.24 0 .14-.11.25-.24.25m1.07.33c-.12 0-.22-.1-.22-.22s.1-.23.22-.23c.13 0 .23.1.23.23-.01.12-.11.22-.23.22"/></defs><clipPath id="SVGID_62_"><use xlink:href="#SVGID_61_" overflow="visible"/></clipPath><path class="st30" d="M9.38 6.77H23.5v12.26H9.38z"/><defs><path id="SVGID_63_" d="M17.91 15.74c-.04 0-.08.01-.12.02v-.69c-.3-.01-.65-.06-1-.15v.84c-.04-.01-.08-.02-.12-.02-.24 0-.39.2-.39.39 0 .17.1.33.19.44.04-.11.09-.19.14-.19.12 0 .07.59.41.61-.01.03-.02.06-.02.1 0 .15.12.27.27.27a.269.269 0 0 0 .25-.37c.35-.01.29-.61.41-.61.06 0 .1.08.15.19.09-.11.19-.27.19-.44.03-.19-.12-.39-.36-.39m-.62 1.5c-.08 0-.15-.07-.15-.15 0-.08.07-.15.15-.15.09 0 .15.07.15.15.01.08-.06.15-.15.15m.82-.87c-.04-.08-.1-.12-.15-.12-.23 0-.14.62-.42.62-.12 0-.19-.08-.19-.16 0-.09.06-.12.06-.19s-.05-.1-.12-.1c-.06 0-.11.03-.11.1s.06.1.06.19c0 .08-.07.16-.19.16-.28 0-.19-.62-.42-.62-.05 0-.11.04-.15.12a.525.525 0 0 1-.07-.24c0-.11.09-.27.27-.27.31 0 .24.43.39.43.07 0 .12-.04.12-.1 0-.12-.22-.23-.22-.41 0-.18.16-.32.33-.46.17.14.33.29.33.46 0 .18-.22.29-.22.41 0 .06.05.1.12.1.15 0 .08-.43.39-.43.18 0 .27.16.27.27-.01.07-.04.16-.08.24"/></defs><clipPath id="SVGID_64_"><use xlink:href="#SVGID_63_" overflow="visible"/></clipPath><path class="st31" d="M12.12 10.76h10.35v10.77H12.12z"/><defs><path id="SVGID_65_" d="M25.95 16.57c-.01-.03-.05-.06-.09-.04-.8.23-1.8-.43-2.76-1.07-.81-.54-1.57-1.05-2.23-1.05-.24 0-.46.05-.64.15-.23.13-.4.33-.51.59-.11.27-.23.45-.32.6-.11.17-.19.3-.19.46 0 .13.06.25.17.36.09.09.23.18.42.29l.12.06c.16.08.26.13.27.22-.32.14-.73.25-1.19.34-.53.09-1.1.14-1.71.14-.61 0-1.19-.05-1.71-.14-.47-.08-.88-.2-1.2-.34.01-.13.11-.19.28-.27.04-.02.08-.04.13-.06.16-.08.31-.17.41-.26.11-.1.17-.2.17-.33 0-.16-.08-.29-.19-.46-.09-.15-.21-.33-.32-.6-.11-.27-.28-.46-.51-.59-.19-.1-.4-.15-.64-.15-.66 0-1.42.51-2.23 1.05-.96.64-1.95 1.31-2.76 1.07-.04-.01-.08.01-.09.05-.01.03.01.08.04.09.24.11.46.28.67.44.29.23.56.44.86.44.28 0 .59-.09.96-.28.32-.17.66-.4.98-.62.63-.43 1.29-.88 1.91-.93-.07.06-.13.12-.19.17-.18.16-.34.31-.34.59 0 .23.08.39.19.61.03.06.07.14.1.22.07.15.1.28.14.45.02.07.04.15.06.25.04.15.11.43.57.66.53.27 1.44.41 2.71.41s2.18-.14 2.7-.41c.45-.23.53-.51.57-.66.03-.1.05-.18.06-.25.04-.17.07-.29.14-.45.05-.11.1-.21.14-.29.09-.18.17-.32.17-.52 0-.29-.17-.44-.36-.61-.06-.06-.13-.11-.19-.18.62.05 1.28.5 1.91.93.32.22.66.45.98.62.37.2.68.29.96.29.3 0 .57-.21.86-.44.21-.16.42-.33.67-.44.05-.03.06-.08.05-.11"/></defs><clipPath id="SVGID_66_"><use xlink:href="#SVGID_65_" overflow="visible"/></clipPath><path class="st32" d="M4.46 10.23h25.66v13H4.46z"/><defs><path id="SVGID_67_" d="M21.14 10.14c-.09-.06-.23-.2-.31-.36-.1-.2-.49-.98-.56-1.08a.526.526 0 0 1-.08-.23c0-.08.04-.15.09-.21.03-.04.12-.13.15-.18.03-.04.05-.07.07-.09-.14-.25-.29-.44-.48-.66a3.55 3.55 0 0 0-.78-.67c.15-.1.31-.24.31-.48 0-.14-.06-.25-.16-.34.16-.51.45-1.13.69-1.4l-.52-.22c.13.2.14.44.11.58a.679.679 0 0 1-.29-.39c-.03.16-.11.41-.19.56.15-.07.27-.1.42-.04-.09.12-.31.3-.65.22-.17-.05-.35-.15-.35-.29 0-.08.07-.18.18-.18.11.01.12.18.08.26.15-.08.3-.51.07-.58-.18-.05-.35.2-.41.39-.03-.23-.13-.45-.31-.44-.24.02-.16.46-.08.57.01-.15.1-.24.17-.23.06.01.15.05.13.19-.02.14-.21.22-.44.22-.22 0-.6-.07-.64-.49.14.03.36.13.46.28-.03-.25-.03-.44 0-.7-.12.17-.32.25-.45.28.04-.18.19-.37.38-.48h-.94c.18.11.33.3.37.48a.659.659 0 0 1-.44-.28c.03.27.03.45 0 .7.09-.14.31-.25.45-.28-.02.43-.4.5-.62.5-.23 0-.42-.09-.44-.22-.01-.14.07-.18.13-.19.07-.01.16.08.17.23.08-.11.16-.55-.08-.57-.18-.01-.28.21-.31.44-.06-.19-.23-.44-.41-.39-.23.06-.07.49.07.58-.03-.07-.03-.24.09-.26.12-.01.18.09.18.18.01.13-.18.23-.36.28-.34.08-.56-.1-.65-.22.15-.07.27-.03.42.04a2.47 2.47 0 0 1-.19-.56.69.69 0 0 1-.29.4.814.814 0 0 1 .11-.58l-.51.21c.24.27.53.89.69 1.41-.1.09-.15.2-.15.34 0 .24.15.38.31.48-.28.19-.54.41-.78.67-.35.39-.63.86-.82 1.37.07.07.38.41.45.5.13.16.21.32.21.45.01.23.06.33.18.48.04.05.09.23.1.35h2.56v2.79c-.1.01-.21.03-.29.14.29.12.58.22.86.31.03-.18.06-.29.16-.41 0 0-.37-.04-.57-.05v-2.79h2.5c-.01.38-.08.75-.2 1.1-.13.36-.32.7-.56.97-.24.28-.52.5-.83.66-.05.03-.05.06-.1.08-.04.05-.09.13-.12.23-.03.08-.04.14-.06.25.12.03.18.06.29.08.88.22 1.09.16 1.14.12.2-.15.38-.33.55-.52.35-.4.63-.86.82-1.38.2-.53.3-1.1.3-1.69v-.24zm-3.89.2h-2.56c0-.4.07-.78.2-1.15.13-.36.32-.7.56-.97.24-.28.52-.5.83-.66.31-.15.63-.23.96-.24v3.02zm.04-4.27c-.85 0-1.44.25-1.78.48-.2-.12-.28-.23-.28-.37 0-.48 1.37-.53 2.06-.53s2.07.04 2.07.53c0 .14-.09.25-.29.37-.34-.23-.92-.48-1.78-.48zm.11 4.27V7.32c.31.01.62.09.9.23.31.16.59.37.83.66.24.28.43.61.56.97.13.36.2.75.2 1.15H17.4z"/></defs><clipPath id="SVGID_68_"><use xlink:href="#SVGID_67_" overflow="visible"/></clipPath><path class="st33" d="M9.59-.22h15.72v18.4H9.59z"/><defs><path id="SVGID_69_" d="M19.5 9.85c.04.03.03.1-.03.09-.05-.45-.22-.9-.48-1.27l.01-.01c.05-.02.09-.06.11-.13a.165.165 0 0 0-.16.07c-.02-.02-.04-.05-.06-.07a2.6 2.6 0 0 0-.54-.51c-.19-.13-.39-.22-.6-.28 0-.05.07-.06.09-.01.01-.08-.06-.12-.1-.1-.02.01-.04.03-.04.06a.198.198 0 0 0-.11-.06c0 .05.01.09.03.12a.09.09 0 0 0-.07.03c-.02.04.01.11.09.12a.05.05 0 0 1 .03-.09v.98c-.05-.01-.11-.01-.16.04.05.05.11.06.16.04v1.06c-.06 0-.07-.06-.03-.09-.08 0-.11.07-.1.11.01.03.04.04.08.04-.02.03-.04.06-.04.11.05 0 .08-.02.11-.04-.01.05.01.07.04.08.04.02.11-.01.11-.1-.03.04-.09.03-.09-.02h.74c-.01.05-.01.11.04.16.05-.05.06-.12.04-.16h.82c0 .05-.06.07-.09.03 0 .08.08.11.11.09.03-.01.04-.03.04-.08.03.02.06.04.11.04a.16.16 0 0 0-.04-.11c.04 0 .07-.01.08-.04.02-.04-.01-.11-.1-.1m-.7-1.3c-.02.02-.03.05-.02.07.01.02.03.05.07.05-.03.02-.05.06-.06.1.05.01.09-.01.12-.03-.01.04 0 .07.03.08.02.01.04.01.07 0 .19.31.32.66.38 1.02-.02-.02-.05-.03-.09-.03 0 .05.02.09.05.12h-.62c0-.04-.02-.08-.04-.09-.02-.01-.06 0-.08.03 0-.03-.02-.07-.05-.11-.03.04-.05.07-.05.11-.03-.03-.06-.04-.08-.03-.03.01-.05.04-.04.09h-.53c.02-.03.04-.06.04-.11-.05 0-.08.02-.11.04V9c.04.01.08-.01.09-.04.01-.02.01-.05-.03-.08.04 0 .08-.01.11-.05-.03-.03-.07-.04-.11-.05.04-.03.04-.06.03-.09-.01-.03-.05-.05-.09-.04v-.73c.02.02.05.03.09.04 0-.04-.01-.08-.03-.1.16.06.33.13.48.24.15.11.32.27.47.45"/></defs><clipPath id="SVGID_70_"><use xlink:href="#SVGID_69_" overflow="visible"/></clipPath><path class="st34" d="M13.34 3.46h10.43v10.9H13.34z"/><defs><path id="SVGID_71_" d="M19.07 9.57a.14.14 0 0 0 .07-.06c-.04.01-.06-.01-.07-.01.02-.02.05 0 .02-.05-.03-.05-.05-.05-.08-.01-.03.03-.23-.01-.23-.16.01.03.04.04.07.06.01.01.01.01.02.01h.03c.02.01.04.01.06.01h.01c.04-.01.07-.03.08-.07.01-.08-.07-.12-.16-.19-.03-.03-.06-.05-.08-.07-.03-.06-.01-.11-.08-.22 0-.03-.01-.06-.02-.1a.28.28 0 0 0 .04.32c.08.08.26.17.25.25 0 .02-.02.03-.04.04h-.03s-.01 0-.02-.01c-.01 0-.02-.01-.04-.02s-.04-.02-.06-.05c-.07-.07-.14-.17-.18-.23-.08-.1-.04-.21-.03-.29.06-.08-.04-.24-.09-.28 0 0 .01-.04 0-.09-.01.01-.04.01-.05 0-.02-.03-.02-.03-.04-.04-.04-.01-.04-.03-.04-.04-.02.02-.03.04-.05.04-.03 0-.04 0-.05.01-.02.01-.03.02-.06.02-.04 0-.03.02-.03.04 0 .01 0 .04.03.05l.01.01.03.03.02-.03c.01-.01.06-.02.07.01.01.02.01.03-.02.03-.03.01-.04.01-.07.01-.02 0-.02.02-.02.04s.02.03.06.02c.04-.01.11-.02.11.02 0 .09-.1.09-.12.19-.03-.02-.05-.03-.06-.06-.01-.03-.04-.06-.08-.09-.02-.02-.05-.04-.08-.06-.03-.02-.03-.04-.03-.07 0-.03.01-.06.01-.09 0 0-.01-.02-.01-.03a.055.055 0 0 0-.05-.03c.01.01.01.01.02.03-.01.01-.01.01-.01.02-.01.01-.01.02 0 .03v.02c0 .01 0 .01 0 0-.01-.02-.02-.05-.04-.06h-.01v-.01c0-.02-.02-.04-.05-.01.01 0 .02 0 .02.01v.02c0 .02.01.03.04.03h.01v.01c0 .01 0 .01 0 0-.04-.02-.06 0-.06.02v.01c-.01.01-.02.03.01.05 0-.01 0-.02.01-.03h.01c0 .01.01.01.01.01s.01 0 .02-.01h.01l.01.01v.01c-.03.03-.02.05.01.06-.01.03-.06.02-.06-.03-.03.06.02.09.07.07 0 .02 0 .06.01.06 0 0 0-.01.01-.01v.01c-.03.03-.03.05-.01.05 0-.01 0-.01.01-.01.01.01.01.03.02.04.02.04.07.15.17.19-.05.03-.09.07-.12.12-.03.03-.07.06-.1.04-.01-.01-.01-.02-.03-.03-.01 0-.03-.01-.04-.01 0 0-.01 0-.02.01-.02-.01-.05 0-.06.02.01 0 .03-.01.04.01v.02c0 .01.01.03.06.02 0 0 .01 0 .01.01-.01 0-.01.01-.03.01-.03-.01-.03-.03-.05 0l-.01.01h-.01c-.02.01-.04.05-.02.07 0-.01 0-.02.02-.03l.01.01c.01.02.03.04.07-.02 0-.01.01 0 0 0 0 .03-.03.06.01.07h.01v.01c.01.03.05.04.06.03-.01-.01-.03-.01-.03-.04h.02c.02-.02 0-.04.01-.06h.01c.01.01.02.04.05.02.01-.01.02-.02.02-.03.04-.01.07-.03.1-.02 0-.02.02-.05.06-.06.04-.01.06 0 .07.01 0-.01.02-.04.04-.07 0 .16.21.15.26.25-.06-.02-.13-.04-.17-.03-.05.01-.14.06-.15.12-.01.05.04.14.09.17-.06.01-.08-.01-.14.01h-.01c-.05 0-.05-.08-.11-.06 0 0-.01.01-.02.01-.02 0-.05.03-.05.05.01-.01.02-.02.03-.02v.01c0 .01 0 .02.02.02.01 0 .01-.01.02-.01 0 0 .01 0 .01.01 0 .02-.07-.01-.06.05 0 0 .01.01.01.02 0 .02.01.04.04.03-.01 0-.02-.01-.01-.02h.01s.01 0 .01-.01h.01v.01s0 .02.01.02c0 .02.03.04.06.02-.01 0-.03-.01-.03-.01.01 0 .01-.01.01-.01 0-.01.01-.01.01-.02s0-.01.01-.01h.01c.01 0 .01 0 .01.01.01.01.02.02.04.02.01 0 .02-.01.02-.01.01 0 .02.01.03.01-.01-.02.01-.04.06-.01l.03-.03s.05.02.06 0c.03-.03.01-.03.01-.05-.02-.05-.03-.04-.04-.09-.01-.08.09-.12.16-.11.01.05.08.18.2.22.07.02.1-.06.13-.04 0 0 .01.01.01.02 0 .04 0 .07-.01.09-.01.02-.05 0-.07 0-.02 0-.03.01-.03.01-.02 0-.05.02-.05.05.01-.01.02-.02.04-.02v.01c0 .03.04.04.06.02 0-.01.01 0 0 0-.02.01-.05.04-.02.06 0 0 .01 0 .01.01 0 .02.01.04.03.04-.01-.01-.01-.02 0-.04h.02c.02 0 .01-.04.03-.05.01-.01.01.01.03.02h.02c.01.02.03.03.06.01-.01 0-.02-.01-.03-.02.01-.01.01-.01.01-.02.01-.05-.03-.05-.03-.07 0-.02.05-.01.05-.06v-.01c.02-.01.04-.03.04-.04-.02.02-.05.01-.05 0z"/></defs><clipPath id="SVGID_72_"><use xlink:href="#SVGID_71_" overflow="visible"/></clipPath><path class="st35" d="M13.68 4.11h9.62v9.86h-9.62z"/><defs><path id="SVGID_73_" d="M16.96 10.98h-.04v-.04c.01-.15-.08-.26-.25-.26-.14 0-.42.18-.81.18-.16 0-.36-.08-.49-.15l-.05.12v-.01a.1.1 0 0 0-.2 0c0 .05.04.1.1.1.03 0 .06-.01.08-.03l-.04.11c.02.01.03.01.05.02-.06.59.38 1.34 1.15 1.57.11-.03.23-.01.23.11 0 .08-.04.11-.11.11-.05 0-.07-.03-.07-.06 0-.05.09-.02.1-.06.01-.05-.02-.07-.07-.07s-.14.03-.14.13.09.17.18.17.26-.05.24-.26c.04 0 .09-.01.1-.04l.01-.12-.04-.01.03-1.35h.03c.05 0 .09-.02.1-.07a.118.118 0 0 0-.09-.09m-1.39.11l.94 1.35c-.51-.2-1.01-.65-.94-1.35m.96 1.22l-.85-1.23h.08c.04 0 .09 0 .13-.01l.68.98c-.01.1-.03.19-.04.26m.06-.39l-.6-.86c.07-.02.13-.04.19-.06l.45.64c-.01.09-.02.19-.04.28m.15-.95h-.04c-.04 0-.09.01-.1.07 0 .05.03.09.08.09h.03v.03c-.01.08-.03.2-.05.35l-.38-.55c.18-.07.32-.15.4-.15.06.01.07.03.06.16"/></defs><clipPath id="SVGID_74_"><use xlink:href="#SVGID_73_" overflow="visible"/></clipPath><path class="st36" d="M10.97 6.52H21.2v10.57H10.97z"/><defs><path id="SVGID_75_" d="M16.8 8.27c.18 0 .27-.06.27-.12 0-.2-.5-.08-.5-.2 0-.02.01-.04.04-.06h.01c.25-.02.26-.2.44-.23-.22-.03-.25.14-.34.15.05-.02.07-.08.06-.1-.04.06-.14.06-.2.13-.01.01-.01.03-.01.04-.03.02-.05.04-.05.07 0 .19.51.06.51.2 0 .05-.09.08-.23.08-.1 0-.18-.07-.38-.02 0-.03.07-.1.04-.13.02-.01.03-.02.03-.04-.01-.01-.02-.01-.04-.02.01-.01 0-.02-.01-.03 0 0-.01-.02-.01-.03-.01-.01-.02-.02-.05-.03-.02-.01-.04-.01-.04-.01h-.03c-.01 0-.02 0-.03.01-.01-.01-.02-.01-.04-.01-.01.02-.01.03 0 .06-.02 0-.04.05-.06.04.01.01.01.02.02.02 0 .03-.01.06-.03.06l.01.01c-.02.04-.02.09-.03.12-.01-.01-.03-.02-.04-.03-.03-.02-.03-.03-.02-.06 0-.03.02-.05.02-.07v-.02c0-.02-.03-.03-.04-.03.01.01.01.01.01.03-.01 0-.01.01-.01.01-.01.01-.01.02 0 .02v.02c0-.02-.01-.04-.03-.05h-.01c0-.02-.02-.03-.05-.01H16c0 .01-.01.02-.01.02 0 .02.01.03.03.03h.01v.01c-.04-.01-.05 0-.06.01v.01c-.01.01-.02.03 0 .04 0-.01 0-.02.01-.02l.01.01s.01 0 .02-.01h.01l.01.01v.01c-.03.02-.03.04 0 .05v.01c-.01.04-.07.03-.06-.01-.02.05.03.09.08.07h.01c0 .01 0 .01.01.01 0 0 0-.01.01-.01v.01c0 .01 0 .02.01.03 0-.01 0-.02.01-.02s.02.04.05.06c-.04.02-.11.03-.11.03-.01 0-.07-.01-.09.01-.03.01-.1.04-.12.01-.01-.01 0-.02-.01-.04l-.02-.02h-.02c-.01-.01-.04-.02-.05-.01.01 0 .02 0 .03.02l-.01.01c-.01.01 0 .02.04.04 0 0 .01.01 0 .01h-.02c-.02-.01-.02-.03-.04-.02l-.01.01c-.02 0-.05.02-.04.04l.02-.02v.01c0 .03.01.04.06.01.01-.01.01 0 0 0-.01.02-.04.04-.02.06 0 0 .01 0 .01.01-.01.03.02.04.04.04-.01-.01-.02-.02-.01-.04h.01c.02-.01.01-.04.02-.05h.01c0 .01.01.04.03.04.03 0 .04-.02.04-.04.01.01.02.02.01.03.01 0 .01-.01.02-.02 0 .01.01.03-.01.05.01 0 .04-.02.04-.05l.01.01c.01 0 .03.01.06 0v.03l.01-.01c.01 0 0 .03.02.04 0-.07.04-.04.08-.07.01 0 .01 0 0 0 0 .01-.01.02-.02.02.02 0 .05-.02.05-.04 0 0 .01-.01.03-.02.01 0 .04-.01.05-.02 0 .01.01.03 0 .03.04 0 .09-.05.11-.05.1-.02-.06-.09.14-.07.02 0 .04-.01.06-.02-.01.03-.02.09.01.09.01 0 .04.01.05.02-.02 0-.04.01-.04.01-.05.03-.05-.07-.1-.05l-.01.01c-.02 0-.05.02-.04.04.01-.01.02-.02.03-.02v.01c0 .01 0 .02.02.02.01 0 .01-.01.02-.01v.01c0 .02-.06-.01-.05.04 0 0 0 .01.01.01 0 .01.01.03.04.02 0-.01-.01-.01-.01-.02h.01l.01-.01s.01 0 .01.01l-.01.01.01.01c0 .02.02.04.05.02-.01 0-.02 0-.03-.01l.01-.01s.01-.01.01-.02h.02c0 .01.02.02.04.02.03-.01 0-.04.03-.05h.02c.03.01.06.01.07-.01.01-.01 0-.06-.02-.07-.02-.01 0-.03-.01-.05.03.01.06.02.1.02.07 0 0-.01.03-.03.03-.02.07-.01.08-.01.01 0 .02.01.01.01-.01.04 0 .04 0 .06-.01.01-.04 0-.06 0-.01 0-.02.01-.02.01-.02 0-.04.02-.04.04.01 0 .02-.01.03-.02v.01c0 .03.03.03.05.02h.01c-.01.01-.04.04-.02.04 0 0 .01 0 .01.01 0 .02.01.03.02.03 0-.01-.01-.01 0-.03h.01c.01 0 .01-.03.03-.04 0 .02-.01.04.01.04h.01c0 .01.02.02.04.01 0 0-.01-.01-.02-.01.01 0 .01-.01.01-.02.01-.04-.02-.04-.02-.05 0-.02.04-.01.04-.05 0-.01 0-.02-.02-.02.01 0 .02 0 .03-.01-.03 0-.02-.02-.02-.03V8.3c.01-.01.02-.02.01-.04-.01.01-.04.03-.04 0 0 0 0-.02-.03-.01-.03.05-.06.03-.14.02-.01 0-.01 0 0 0m-.43-.24c.01.01.04.02.06.02-.03.01-.02.02-.04.01-.02.01-.02-.01-.02-.03m-.04-.02c-.01.01-.03.03-.04.01-.01-.01 0-.01-.01-.04.02.01.04.03.05.03m-.05.12c0-.01.01-.02.01-.02.01 0 .02 0 .02-.01s-.01-.02-.02-.03c.01 0 .02-.01.01-.01-.01-.01-.02.01-.02 0s.01-.01.01-.01h.01l.05.02c.01 0 .01.01.01.01v.02s0-.01-.01-.02c-.01 0-.01.01 0 .02-.01-.01-.02-.01-.03 0-.01.01 0 .02 0 .02v.03c0 .01-.02.03-.04.02a.03.03 0 0 1 0-.04"/></defs><clipPath id="SVGID_76_"><use xlink:href="#SVGID_75_" overflow="visible"/></clipPath><path class="st37" d="M11.5 3.49h9.73v9.25H11.5z"/><defs><path id="SVGID_77_" d="M17.05 8.95c0-.06-.06-.09-.24-.09s-.58.07-.58-.03c0-.05.08-.05.17-.04.01.01.02.02.04.02.23.07.5-.06.64-.02-.16-.12-.3 0-.48-.03.1 0 .14-.03.14-.06-.08.05-.23-.03-.33.03l-.01.01c-.13-.01-.23-.01-.23.08 0 .18.48.07.63.07.15 0 .18.01.18.05s-.15.05-.23.05c-.13 0-.52-.07-.76-.02.02-.04.06-.09.04-.12.02-.01.04-.03.04-.04a.076.076 0 0 0-.05-.02c.01-.01 0-.02-.01-.03L16 8.73c-.01-.01-.03-.02-.05-.04-.03-.01-.04-.01-.06-.02l-.03.01c-.01 0-.03 0-.03.01-.01-.01-.03-.01-.04-.02-.01.02-.01.04-.01.07-.02 0-.04.06-.06.05.01.02.01.02.02.02-.02.03-.03.07-.04.07.01.01.02.02.03.02v.07l-.04-.01h-.01c-.01 0-.01 0-.01-.01h.01l-.02-.01c-.02-.02-.04-.05-.08-.07-.04-.02-.04-.04-.03-.07 0-.03.02-.06.02-.09 0 0 0-.02-.01-.03 0-.02-.03-.03-.04-.03.01.01.02.01.02.03l-.01.01c-.01.01-.01.02 0 .03v.02c0 .01 0 0-.01 0-.01-.02-.01-.06-.03-.06h-.01v-.01c0-.02-.03-.04-.05-.01.01 0 .02 0 .02.01s-.01.02-.01.02c0 .02.01.03.04.03l.01.01v.01c0 .01 0 0 0 0-.04-.02-.06 0-.06.02v.02c-.01.01-.02.03 0 .05 0-.01 0-.02.01-.03h.01l.01.01s.01 0 .03-.01h.01s.01 0 .01.01v.01c-.03.03-.02.05.01.06 0 0 .01 0 .01.01-.01.05-.07.04-.07-.01-.04.06.03.1.07.07h.01c0 .01.01.02.01.02s0-.01.01-.01v.01c0 .01 0 .03.02.03 0-.01 0-.02.01-.02s.03.04.07.06c.03.01.06.05.08.03 0 .03.03.07.02.07-.01 0-.1 0-.13.01-.03.02-.12.05-.14.01-.01-.01 0-.02-.01-.04-.01-.01-.02-.02-.03-.02h-.02c-.01-.01-.04-.02-.06-.01.01 0 .02 0 .03.02 0 .01-.01.01-.01.02-.01.01 0 .03.05.05 0 0 .01.01 0 .01-.01.01-.02.01-.03 0-.02-.01-.02-.04-.05-.02 0 0-.01.01-.02.01-.02 0-.06.03-.04.05 0-.01.01-.02.03-.02 0 .01.01.01.01.02 0 .03.01.05.07.01 0-.01 0 0 0 0-.01.02-.05.04-.02.06l.01.01c-.01.03.03.06.04.06a.076.076 0 0 1-.02-.05h.01c.03-.01.02-.04.03-.05h.01c0 .01.01.04.04.04s.04-.03.04-.04c0 0 0-.01 0 0 .01.01.02.02.01.03.01 0 .02-.01.02-.02.01.02.01.04-.01.06.01-.01.04-.02.05-.05.01 0 .01.01.01.02.01 0 .03.01.06 0v.03l.01-.01c.01 0 0 .03.02.05.01-.08.05-.05.1-.08.01 0 .01 0 0 0 0 .01-.01.02-.02.03.06.01.14-.07.15-.1.02 0 .04-.01.05-.01.16.01.05-.14.3-.09.01 0 .04-.02.06-.03-.02.03-.02.1.01.11.02 0 .05.01.06.02v.01c-.02 0-.04.01-.05.01-.05.04-.06-.08-.11-.06l-.01.01c-.02 0-.05.03-.05.05.01-.01.02-.02.04-.02v.01c0 .01 0 .02.02.02.01 0 .01-.01.02-.01 0 0 .01 0 .01.01 0 .02-.07-.01-.06.05 0 0 0 .01.01.02 0 .02.01.03.04.03-.01 0-.02-.01-.02-.02h.01s.01 0 .01-.01v.02s0 .02.01.02c0 .02.03.05.06.02-.01 0-.03 0-.03-.01h.02c0-.01.01-.01.01-.02h.01c.01 0 .01 0 .01.01.01.01.03.02.04.02.04-.01.01-.05.04-.06h.02c.03.01.07.01.08-.01.01-.01 0-.07-.03-.09-.02-.01 0-.03-.02-.06.03.01.07.03.11.03.09 0 .1-.01.14-.04.04-.03.09-.01.1-.01.01 0 .02.01.02.02-.01.04 0 .05-.01.07-.01.01-.04 0-.07 0-.01 0-.02.01-.03.01-.02 0-.04.02-.04.05.01-.01.02-.02.04-.02v.01c0 .03.03.04.05.02h.01c-.02.01-.05.04-.02.05 0 0 .01.01.02.01 0 .02.01.04.03.04-.01-.01-.01-.02 0-.04h.01c.02 0 .01-.03.03-.05-.01.02-.01.05.01.05h.01c.01.02.03.03.05.01-.01 0-.02-.01-.02-.02s.01-.02.01-.02c.01-.04-.03-.04-.03-.06 0-.02.04-.01.04-.05 0-.01 0-.02-.02-.03.01 0 .03 0 .03-.01-.03 0-.02-.02-.03-.04v-.01c.01-.01.02-.02.01-.05-.01.01-.05.03-.05 0 0 0 0-.02-.03-.02-.06.01-.09-.01-.2-.01.19-.02.37-.05.37-.11m-1.12-.16c.01.01.05.02.07.03-.03.01-.03.02-.05.02-.01 0-.02-.03-.02-.05m-.04-.02c-.01.01-.03.03-.04.01-.01-.01 0-.02-.01-.05.01.02.04.04.05.04m-.06.15c.01-.01.01-.02.02-.02s.02 0 .02-.01c.01-.01-.01-.02-.02-.03.01 0 .02-.01.01-.02s-.02.01-.02 0 .01-.01.01-.01h.02l.06.03.01.01v.02c-.01 0 0-.02-.01-.02s-.01.01 0 .02c-.01-.01-.03-.01-.03 0-.01.01 0 .02.01.03 0 .01 0 .02-.01.03 0 .01-.02.03-.04.02-.04-.02-.04-.04-.03-.05m.14.31"/></defs><clipPath id="SVGID_78_"><use xlink:href="#SVGID_77_" overflow="visible"/></clipPath><path class="st38" d="M11.12 4.5h10.13v9.05H11.12z"/><defs><path id="SVGID_79_" d="M16.97 9.73c0-.05-.06-.09-.23-.09s-.69.06-.69-.03c0-.06.18-.04.31-.04 0 .01.02.02.04.03.22.06.45-.09.61-.03-.12-.12-.28.01-.45-.02.1 0 .2-.02.2-.05-.07.05-.29-.03-.38.02l-.01.01c-.17.01-.37-.02-.37.08 0 .17.6.07.74.07s.17.01.17.04c0 .04-.14.05-.22.05-.13 0-.69-.08-.91-.01.01-.03.07-.09.04-.12.02-.01.04-.03.04-.04a.076.076 0 0 0-.04-.02c.01-.01 0-.02-.01-.03 0 0-.01-.02-.01-.03a.219.219 0 0 0-.05-.03c-.03-.01-.04-.01-.05-.01-.01 0-.03.01-.03 0-.01 0-.03 0-.03.01-.01-.01-.02-.01-.04-.02-.01.02-.01.03-.01.06-.02 0-.04.05-.06.04.01.02.01.02.02.02-.02.03-.02.07-.04.07l.02.02c0 .02-.01.04-.01.05l-.02.01h-.06c-.03 0-.05-.05-.09-.07-.03-.02-.04-.03-.04-.07 0-.03.01-.06.01-.08 0 0 0-.02-.01-.03-.01-.02-.03-.03-.04-.03.01.01.01.01.02.03-.01.01-.01.01-.01.02-.01.01-.01.02 0 .03v.02c-.01-.02-.02-.05-.04-.06h-.01c0-.02-.03-.04-.05-.01 0 0 .01 0 .02.01v.02c0 .02.01.03.04.03h.01v.01c0 .01 0 .01 0 0-.04-.02-.06 0-.06.02v.01c-.01.01-.02.03.01.05 0-.01 0-.02.01-.02 0 .01.01.01.01.01s.01 0 .02-.01h.01s.01 0 .01.01v.01c-.03.02-.02.05.01.06.01 0 .01 0 .01.01 0 .05-.06.04-.06-.01-.03.06.03.1.08.07 0 .01.01.01.02.01 0 0 0-.01.01-.01v.01c0 .01.01.03.03.03 0-.01 0-.02.01-.02s.04.06.11.1c.01 0 .03 0 .04-.02l.01.01c0 .03.02.07.02.07-.01 0-.12 0-.14.01-.03.02-.11.05-.13.01-.01-.01 0-.02-.01-.04-.01-.01-.02-.02-.03-.02h-.04c-.01-.01-.04-.02-.05-.01.01 0 .02.01.03.02l-.01.01c-.01.01 0 .03.05.04 0 0 .01.01 0 .01-.01.01-.02.01-.03 0-.02-.01-.02-.04-.05-.03l-.01.01h-.01c-.02-.01-.06.02-.04.05 0-.01.01-.02.03-.02V10c0 .03.01.05.07.01.01 0 .01 0 0 0-.01.02-.05.04-.02.06 0 0 .01 0 .01.01v.01c0 .03.02.05.04.05-.01-.01-.02-.02-.02-.04.01 0 .01.01.02.01.02-.01.01-.04.03-.05h.01c0 .01.01.04.04.04s.04-.03.04-.04c.01.01.02.01.02.03l.02-.02c0 .01.01.03-.01.05.01 0 .04-.02.05-.05l.01.01c.01.01.03.01.06 0v.03l.01-.01c.01 0 0 .03.01.05.01-.07.1-.04.14-.07.01-.01.01 0 0 0 0 .01-.01.02-.02.03.02 0 .04-.01.06-.02l-.01.01.08-.03v-.02c.01 0 .02 0 .03-.01.05 0 .04-.04.06-.03.28.03.12-.12.44-.09.01 0 .02-.01.04-.02-.02.03-.02.08.01.09.01 0 .04.01.06.02v.01c-.02 0-.04.01-.04.01-.05.03-.05-.08-.11-.06l-.01.01c-.02 0-.05.02-.05.05.01-.01.02-.02.04-.02v.01c0 .01 0 .02.02.02.01 0 .01-.01.02-.01v.01c0 .02-.07-.01-.05.05l.01.01c0 .02.01.04.04.03-.01 0-.02-.01-.02-.02h.02l.01-.01v.02s0 .02.01.02c0 .02.03.04.06.02-.01 0-.03 0-.03-.01.01 0 .01-.01.02-.01 0 0 .01-.01.01-.02s0-.01.01-.01h.02c0 .01.02.02.04.02.03-.01.01-.04.03-.05h.02c.03.01.07 0 .08-.01.01-.01 0-.06-.03-.08-.02-.01 0-.03-.02-.06.03.01.06.03.11.03.08 0 .1-.01.13-.03.04-.02.08-.01.09-.01.01 0 .02.01.01.02-.01.04 0 .04 0 .06-.01.01-.04 0-.06 0-.01 0-.03.01-.03.01-.02 0-.04.02-.04.04.01 0 .02-.02.03-.02v.01c0 .03.03.04.05.02h.01c-.01.01-.04.04-.02.05 0 0 .01 0 .01.01 0 .02.01.03.03.04-.01-.01-.01-.01 0-.03h.01c.02 0 .01-.03.03-.05-.01.02-.01.04.01.05h.01c0 .01.02.03.05.01-.01 0-.02-.01-.02-.01.01-.01.01-.01.01-.02.01-.04-.02-.04-.02-.06 0-.02.04-.01.04-.05 0-.01-.01-.02-.02-.03.01 0 .03 0 .03-.01-.03 0-.02-.02-.03-.04v-.01c.01-.01.02-.02.01-.04-.01.01-.04.03-.05 0 0 0 0-.02-.04-.02-.05.01-.09-.01-.18-.01.14-.02.32-.04.32-.11m-1.25-.14c.01.01.05.02.07.03-.03.01-.03.01-.04.01-.02.01-.03-.02-.03-.04m-.04-.02c-.01.01-.03.03-.04.01-.01-.01 0-.02-.01-.05.01.02.04.04.05.04m-.06.14c.01-.01.01-.02.01-.02.01 0 .02 0 .02-.01.01-.01-.01-.02-.02-.03.01 0 .02-.01.01-.01-.01-.01-.02 0-.02 0 0-.01.01-.01.01-.01.01-.01.01 0 .02 0l.05.02c.01.01.01.01.01.02v.02c-.01 0 0-.02-.02-.02-.01 0-.01.01 0 .02-.01 0-.02-.01-.03 0-.01.01 0 .02 0 .03v.03c0 .01-.02.03-.04.02-.01-.03-.01-.05 0-.06"/></defs><clipPath id="SVGID_80_"><use xlink:href="#SVGID_79_" overflow="visible"/></clipPath><path class="st39" d="M10.91 5.28h10.25v9.03H10.91z"/><defs><path id="SVGID_81_" d="M19.39 11.05c0-.01 0-.01 0 0 .01-.01.02-.03.02-.05-.01.01-.05.03-.05 0 0 0 0-.02-.03-.02-.05.01-.1-.01-.2-.01-.01 0-.01-.01 0-.01.1-.01.28-.02.28-.08 0-.05-.06-.09-.23-.09s-.69.06-.69-.03c0-.06.18-.04.31-.03 0 .01.02.02.04.02.22.06.47-.1.6-.06-.17-.06-.28.04-.45.01.1 0 .2-.02.2-.05-.08.05-.29-.03-.38.02-.01 0-.01.01-.01.01-.16 0-.36-.02-.36.07 0 .17.6.07.74.07s.18.02.18.04c0 .04-.14.05-.22.05-.13 0-.69-.07-.91-.01.01-.04.07-.09.04-.12.02-.01.04-.03.04-.04a.076.076 0 0 0-.04-.02c.01-.01 0-.02-.01-.03l-.01-.03a.219.219 0 0 0-.05-.03c-.02-.01-.04-.01-.05-.01h-.03c-.01 0-.03 0-.03.01-.01-.01-.02-.01-.04-.01-.01.02-.01.03 0 .06-.02 0-.04.05-.06.04.01.01.01.02.02.02-.02.03-.03.07-.04.07l.03.03v.05l-.03-.01h-.03c-.01 0-.02 0-.03-.01-.03 0-.05-.05-.09-.07-.03-.02-.03-.04-.03-.07 0-.03.01-.06.01-.08 0-.01-.01-.02-.01-.03-.01-.02-.03-.04-.04-.03.01.01.01.01.02.03l-.01.01c0 .01-.01.02 0 .03v.02c0 .01 0 0 0 0-.01-.02-.02-.05-.04-.05h-.01c0-.02-.02-.04-.05-.01.01 0 .02 0 .02.01s-.01.02-.01.02c0 .02.01.03.04.03.01 0 .01 0 .01.01v.01c-.04-.02-.06 0-.06.02v.01c-.01.01-.02.03.01.05 0-.01 0-.02.01-.03l.01.01s.01 0 .02-.01h.01l.01.01v.01c-.03.03-.02.05.01.06 0 0 .01 0 .01.01 0 .05-.07.04-.06-.01-.03.06.03.1.07.07h.01c0 .01.01.02.01.02s0-.01.01-.01v.01c0 .01.01.03.02.03 0-.01 0-.02.01-.02s.04.07.11.11c0-.01.03-.02.04-.03 0 .01.01.03.02.03l.01-.01c0 .04.03.07.03.07-.01 0-.08-.01-.1 0-.03.02-.11.05-.13.01-.01-.01-.01-.02-.02-.04-.01-.01-.01-.02-.02-.02h-.02c-.01-.01-.04-.01-.05-.01.01 0 .02.01.03.02 0 .01-.01.01-.01.01 0 .01 0 .03.05.05 0 0 .01 0 0 .01-.01 0-.02.01-.03 0-.02-.01-.02-.04-.05-.02 0 0-.01 0-.01.01-.02 0-.06.03-.04.05 0-.01.01-.02.03-.03v.02c0 .03.01.04.07.01.01 0 .01 0 0 0-.01.02-.05.04-.02.06l.01.01v.01c0 .03.03.05.04.05-.01-.01-.02-.02-.02-.04.01 0 .01.01.02 0 .02-.01.01-.04.03-.05h.01c0 .01.01.04.04.04s.04-.03.04-.04c.01.01.02.02.01.03l.02-.02c0 .02.01.03-.01.06.01-.01.04-.02.05-.05.01.01.01.01.01.02.01 0 .03.01.06 0v.03l.01-.01c.01 0 0 .03.02.05.01-.08.05-.05.1-.08.01 0 .01 0 0 0 0 .01-.01.02-.02.02.02.01.09-.03.09-.06 0-.01.03-.01.05-.01.05 0 .04-.04.06-.03.28.04.12-.12.45-.09.01 0 .02-.02.04-.03-.02.03-.02.1.02.1.01 0 .04.01.06.02v.01c-.02 0-.04.01-.05.01-.05.03-.05-.08-.11-.06l-.01.01c-.02 0-.05.03-.05.05.01-.01.02-.02.03-.02v.01c0 .01 0 .02.02.02.01 0 .01-.01.02-.01 0 0 .01 0 .01.01 0 .02-.07-.01-.05.04 0 0 .01.01.01.02 0 .02.01.04.04.02-.01 0-.02-.01-.01-.02h.01s.01 0 .01-.01c0 0 .01 0 .01.01v.03c0 .02.03.04.06.02-.01 0-.03 0-.03-.01.01 0 .01-.01.01-.01s.01-.01.01-.02v-.01h.01c.01 0 .01 0 .01.01.01.01.02.02.04.01.03-.01 0-.04.03-.05h.02c.03 0 .07 0 .08-.01.01-.01 0-.06-.03-.08-.02-.01 0-.03-.02-.06.03.01.06.02.11.02.08 0 .1-.01.14-.03.04-.03.08-.01.1-.01.01 0 .01.01.01.02-.01.04 0 .04-.01.06-.01.01-.04 0-.07 0-.01 0-.02.01-.02.01-.02.01-.04.02-.04.04.01 0 .02-.01.04-.02v.01c0 .03.03.04.05.02 0 0 .01 0 0 .01s-.05.04-.02.05l.01.01c0 .01.01.03.02.04v-.03h.01c.02 0 .01-.04.03-.05-.01.02-.01.04 0 .05h.01c0 .02.02.03.05.01-.01 0-.02-.01-.02-.01 0-.01.01-.02.01-.02.02-.04-.02-.04-.02-.06 0-.02.04-.01.04-.05 0-.01 0-.02-.01-.03.01 0 .02 0 .03-.01-.04-.01-.03-.04-.03-.05zm-1.23-.32c.01.01.05.02.07.03-.03.01-.03.02-.04.02a.055.055 0 0 1-.03-.05zm-.04-.02c-.01.01-.03.03-.04.01-.01-.02 0-.02-.02-.05.02.01.05.03.06.04zm-.06.13c.01-.01.01-.02.02-.02s.02 0 .02-.01-.01-.02-.02-.03c.01 0 .02-.01.01-.02-.01 0-.02.01-.02 0l.01-.01h.02l.05.03.01.01v.02c-.01 0-.01-.01-.01-.02-.01 0-.01.01 0 .02-.01-.01-.03-.01-.03 0-.01.01-.01.02 0 .03v.03c-.01.01-.02.03-.04.02-.03-.01-.03-.03-.02-.05zm-.05-.08zm.02-.05z"/></defs><clipPath id="SVGID_82_"><use xlink:href="#SVGID_81_" overflow="visible"/></clipPath><path class="st40" d="M13.43 6.43H23.6v9.03H13.43z"/><defs><path id="SVGID_83_" d="M18.63 11.47c0 .01.02.02.04.03.21.06.45-.1.57-.06-.17-.06-.27.04-.43.01.09 0 .19-.02.2-.04-.07.05-.27-.03-.36.02-.01 0-.01.01-.01.01-.11 0-.21 0-.21.07 0 .16.43.07.57.07s.12.01.12.04-.16.05-.23.05c-.12 0-.47-.06-.69-.02.02-.03.06-.08.03-.1.02-.01.03-.03.03-.04-.01-.01-.03-.01-.04-.02.01-.01 0-.02-.01-.03 0 0-.01-.02-.01-.03-.01-.01-.02-.02-.05-.03-.03-.01-.04-.01-.05-.01h-.03c-.01 0-.03 0-.03.01-.01-.01-.02-.01-.04-.01 0 .01 0 .02.01.05-.02 0-.04.05-.06.04.01.01.01.02.02.02-.02.03-.02.06-.04.07l.02.02c-.01.02-.01.04-.01.06l-.02-.01h-.01c-.03 0-.04 0-.09-.02-.03-.02-.03-.04-.03-.07 0-.03.01-.05.01-.08 0 0 0-.01-.01-.02-.01-.02-.03-.03-.04-.03.01 0 .02.01.02.03-.01 0-.01.01-.01.01-.01.01-.01.02 0 .03v.02c-.01-.02-.02-.05-.03-.05h-.01c0-.02-.02-.04-.04-.01 0 0 .01 0 .02.01 0 .01-.01.02-.01.02 0 .02.01.03.04.03h.01v.01c-.04-.01-.05 0-.05.01v.02c-.01.01-.01.03.01.04 0-.01 0-.02.01-.02h.01c0 .01.01.01.01.01h.04v.01c-.02.03-.02.05.01.05v.01c0 .05-.06.04-.06-.01-.03.05.03.09.07.07 0 .01.01.02.02.02 0 0 0-.01.01-.01 0 .01.01.03.02.03 0-.01 0-.02.01-.02s.01-.02.06.01c0 .01.01.02.02.02l.04-.01v.08c-.01 0-.07-.01-.09 0-.03.02-.1.04-.13.01-.01-.01 0-.02-.01-.03-.01-.01-.02-.02-.03-.02h-.02c-.01-.01-.04-.01-.05-.01.01 0 .02 0 .03.02l-.01.01c-.01.01 0 .02.04.04 0 0 .01.01 0 .01h-.03c-.02-.02-.02-.04-.04-.02 0 0-.01 0-.02.01-.02 0-.05.03-.04.05 0-.01.01-.02.03-.02v.01c0 .03.01.04.07.01-.01.02-.04.04-.02.06 0 0 0 .01.01.01v.01c0 .03.03.05.04.05-.01-.01-.02-.02-.01-.04h.01c.03-.01.01-.04.03-.05h.01c0 .01.01.03.03.03.03 0 .04-.03.04-.04.01 0 .02.01.01.03l.02-.02c.01.01.01.03-.01.05.01 0 .04-.02.04-.05l.01.01c.01 0 .03.01.06 0v.03c0-.01.01-.02.01-.02.01 0 0 .03.02.04 0-.07.06-.05.11-.08 0 .01-.01.02-.02.02.05.03.1-.04.11-.07.01 0 .01-.01.01-.01 0 .01 0 .01-.01.02.05 0 .04-.03.06-.03.14.01.04-.12.26-.08.01 0 .04-.01.06-.02-.01.03-.02.09.01.1.02 0 .04.01.05.02v.01c-.02 0-.04 0-.04.01-.05.03-.05-.07-.1-.05l-.01.01c-.02 0-.05.02-.04.04.01-.01.02-.01.03-.02v.01c0 .01 0 .01.02.01.01 0 .01-.01.02-.01 0 0 .01 0 .01.01 0 .02-.06-.01-.05.04 0 0 .01.01.01.02s.01.03.04.02c0 0-.01-.01-.01-.02h.01l.01-.01h.01v.03c0 .02.03.04.05.02-.01 0-.03 0-.03-.01.01 0 .01 0 .01-.01v-.02h.03c.01.01.02.02.04.02.04-.01 0-.04.03-.05h.02c.03.01.07.01.07-.01.01-.01 0-.06-.03-.08-.01-.01 0-.03-.01-.06.03.01.06.03.1.03.07 0 .11-.01.15-.03.04-.02.08-.01.09-.01.01 0 .01.01.01.02-.02.03-.01.04-.02.06-.01.01-.04 0-.06 0-.01 0-.02.01-.02.01-.02.01-.04.02-.05.04 0-.01.02-.02.04-.02v.01c0 .03.02.04.04.02 0 0 .01 0 0 0-.02.01-.05.03-.03.05 0 0 .01 0 .01.01-.01.02 0 .03.01.03 0-.01 0-.01.01-.03H19c.02 0 .02-.04.04-.04-.01.02-.02.04-.01.05h.01c0 .01.02.02.04.01l-.01-.01c.01-.01.01-.02.01-.02.02-.04-.01-.04-.01-.06 0-.02.04-.01.05-.05 0-.01 0-.02-.01-.03.01 0 .02 0 .03-.01-.03 0-.01-.02-.01-.03v-.01c.01-.01.02-.02.02-.04-.01.01-.05.03-.04 0 0 0 0-.02-.03-.01-.05.01-.12-.01-.21-.01-.01 0-.01 0 0-.01.09-.01.28-.02.28-.08 0-.05-.01-.08-.17-.08s-.53.06-.53-.03c.02-.04.09-.03.18-.03m-.53-.01c-.01.01-.03.03-.04.01-.01-.01 0-.02-.01-.04.01.01.04.03.05.03m.03.1c-.01 0-.01-.02-.01-.02-.01 0-.01.01 0 .02-.01 0-.02-.01-.03 0-.01.01 0 .02 0 .03v.03c0 .01-.02.03-.04.02-.02-.01-.01-.03-.01-.04.01-.01.01-.02.02-.02s.02 0 .02-.01-.01-.02-.02-.03c.01-.01.02-.01.01-.01-.01-.01-.02 0-.02 0 0-.01.01-.01.01-.01h.02l.05.02c.01 0 .01.01.01.01-.01 0 0 .01-.01.01m.03-.04c-.02 0-.03-.03-.02-.04.01.01.04.02.06.03-.03 0-.02.01-.04.01"/></defs><clipPath id="SVGID_84_"><use xlink:href="#SVGID_83_" overflow="visible"/></clipPath><path class="st41" d="M13.39 7.21h10.02v8.97H13.39z"/><defs><path id="SVGID_85_" d="M18.46 12.23c0 .01.02.02.04.03.21.06.45-.1.57-.06-.16-.06-.27.04-.43.01.09 0 .19-.02.2-.04-.07.05-.27-.03-.36.02-.01 0-.01.01-.02.01-.06.01-.12.05-.12.1 0 .14.53.03.53.08 0 .03-.1.07-.24.07-.11 0-.29-.07-.52-.01.02-.04.06-.1.04-.12.02-.01.03-.02.03-.04a.076.076 0 0 0-.04-.02c0-.01 0-.02-.01-.03 0 0-.01-.02-.01-.03a.138.138 0 0 0-.04-.03c-.02-.01-.04-.01-.05-.01-.01 0-.03.01-.03.01-.01 0-.02 0-.03.01-.01-.01-.02-.01-.03-.01-.01.02-.01.03-.01.06-.02 0-.04.05-.05.04.01.02.01.02.02.02-.01.03-.02.06-.04.06.01.01.02.01.02.02-.01.04-.01.09-.01.13-.03-.03-.08-.11-.11-.13-.03-.02-.03-.03-.03-.06s.01-.05.01-.07c0 0 0-.02-.01-.03 0-.02-.03-.03-.04-.03.01.01.01.01.02.03l-.01.01c-.01.01-.01.02 0 .03v.02c0 .01 0 0 0 0-.01-.02-.02-.04-.03-.05h-.01v-.01c0-.02-.02-.03-.04-.01 0 0 .01 0 .02.01 0 .01-.01.02-.01.02 0 .02.01.03.04.03h.01v.01c-.04-.01-.05 0-.05.01v.01c-.01.01-.02.03.01.04 0-.01 0-.02.01-.02h.01l.01.01s.01 0 .02-.01h.01s.01 0 .01.01v.01c-.02.02-.02.04.01.05 0 0 .01 0 .01.01 0 .04-.06.03-.06-.01-.03.05.02.09.07.06 0 .01.01.01.01.01s0-.01.01-.01c0 .01 0 .03.02.03v-.01c.01 0 0 .06.06.1.01.04.04.06.07.06.01.03.03.05.02.05-.01 0-.08-.01-.1 0-.01.01-.04.02-.07.02-.02 0-.04 0-.05-.01-.01-.01-.01-.02-.01-.03-.01-.01-.01-.02-.02-.02h-.02c-.01-.01-.04-.01-.05-.01.01 0 .02.01.03.02 0 .01-.01.01-.01.02-.01.01 0 .02.04.04 0 0 .01.01 0 .01s-.02.01-.03 0c-.02-.01-.02-.03-.04-.02l-.01.01c-.02 0-.05.02-.04.05 0-.01.01-.02.02-.02 0 0 0 .01.01.01 0 .02.01.04.06.01.01 0 .01 0 0 0-.01.02-.04.04-.02.06l.01.01v.01c-.01.03.02.05.04.04-.01-.01-.02-.02-.01-.04.01 0 .01.01.01.01.02-.01.01-.04.02-.05v.01c0 .01.01.03.03.03.03 0 .04-.02.04-.04.01.01.02.02.01.03l.02-.02c.01.01.01.03-.01.04.01 0 .04-.01.04-.04l.01.01c.01.01.03.01.05 0v.03l.01-.01c.01 0 0 .03.02.04 0-.07.04-.04.09-.07 0 0 .01 0 0 0 0 .01-.01.02-.02.02.02 0 .06-.02.06-.05 0-.01.03-.04.04-.12h.01c.06 0 .08-.04.14-.05-.01.01-.02.06-.02.08 0 .03.04.07.05.08v.01c-.02 0-.04.01-.04.01-.05.03-.05-.07-.1-.05l-.01.01c-.02 0-.05.02-.04.04.01-.01.01-.01.03-.02v.01c0 .01 0 .01.02.01.01 0 .01-.01.02-.01 0 0 .01 0 .01.01 0 .02-.06-.01-.05.04l.01.01c0 .02.01.03.04.02-.01 0-.01-.01-.01-.02h.01s.01 0 .01-.01c0 0 .01 0 .01.01l-.01.01s0 .01.01.01c0 .02.02.04.05.02-.01 0-.02 0-.03-.01.01 0 .01 0 .01-.01l.01-.01h.02c.01.01.02.02.04.01.03-.01.01-.04.03-.05h.02c.02.01.05.01.05 0 .01-.01 0-.06-.03-.08-.02-.01.02-.11-.05-.16.04.01.15.03.17 0 .04.01.08.03.08.04 0 .01.01.01 0 .02-.03.02-.03.03-.04.03-.01-.01-.02-.03-.03-.03-.01-.01-.02 0-.02 0-.02-.01-.04 0-.05.02h.04v.01c0 .01 0 .01.01.01v.01c-.02-.01-.05-.01-.04.01v.01c-.01.01-.02.03-.01.04 0-.01.01-.01.02-.02l.01.01c.01.01.03-.02.05-.01-.02.01-.04.02-.03.04l.01.01c-.01.01 0 .03.02.04 0 0-.01-.01 0-.02h.02c.04-.02.01-.04.03-.05.01-.01.03.02.06 0 0 0 .01-.01 0-.03.01.01.01.02.03.01-.02-.02 0-.03.01-.04h.01c.01 0 .03 0 .04-.02-.02 0-.06-.02-.03-.03.03-.01.04-.03.03-.05-.03-.04-.09-.04-.09-.08h.05c.18 0 .3-.05.29-.11-.01-.12-.54.01-.54-.08-.01-.04.02-.06.07-.07m-.4.01c.01.01.04.02.06.03-.03.01-.02.01-.04.01-.01 0-.02-.02-.02-.04m-.03-.01c-.01.01-.03.03-.04.01-.01-.01 0-.02-.01-.04.01.01.04.02.05.03m-.06.12c.01-.01.01-.02.01-.02.01 0 .02 0 .02-.01s-.01-.02-.02-.03c.01 0 .02-.01.01-.01-.01-.01-.02 0-.02 0 0-.01.01-.01.01-.01 0-.01.01 0 .02 0l.05.02c.01 0 .01.01.01.01v.02c-.01 0-.01-.01-.01-.02-.01 0-.01.01 0 .02-.01 0-.02-.01-.03 0-.01.01 0 .01 0 .02v.02c0 .01-.02.03-.03.02-.03 0-.03-.02-.02-.03"/></defs><clipPath id="SVGID_86_"><use xlink:href="#SVGID_85_" overflow="visible"/></clipPath><path class="st42" d="M13.37 7.98h9.86v9.05h-9.86z"/><defs><path id="SVGID_87_" d="M9.84 2.87c0-.11-.08-.19-.19-.19-.1 0-.19.08-.19.19 0 .1.08.18.19.18.1.01.19-.07.19-.18"/></defs><clipPath id="SVGID_88_"><use xlink:href="#SVGID_87_" overflow="visible"/></clipPath><path class="st43" d="M5.29-1.48H14v8.7H5.29z"/><defs><path id="SVGID_89_" d="M9.79 2.52c0-.1-.08-.19-.19-.19-.1 0-.19.09-.19.19 0 .11.08.19.19.19s.19-.08.19-.19"/></defs><clipPath id="SVGID_90_"><use xlink:href="#SVGID_89_" overflow="visible"/></clipPath><path class="st44" d="M5.25-1.83h8.71v8.71H5.25z"/><defs><path id="SVGID_91_" d="M9.81 2.43c.1 0 .19-.09.19-.19 0-.11-.08-.19-.19-.19a.19.19 0 1 0 0 .38"/></defs><clipPath id="SVGID_92_"><use xlink:href="#SVGID_91_" overflow="visible"/></clipPath><path class="st45" d="M5.45-2.11h8.71V6.6H5.45z"/><defs><path id="SVGID_93_" d="M10.15 2.41c.11 0 .19-.08.19-.19s-.08-.19-.19-.19c-.1 0-.19.08-.19.19.01.1.09.19.19.19"/></defs><clipPath id="SVGID_94_"><use xlink:href="#SVGID_93_" overflow="visible"/></clipPath><path class="st46" d="M5.8-2.14h8.71v8.71H5.8z"/><defs><path id="SVGID_95_" d="M11.6 2.15c.07.07.2.07.27 0s.07-.19 0-.26-.19-.07-.27 0c-.07.06-.07.18 0 .26"/></defs><clipPath id="SVGID_96_"><use xlink:href="#SVGID_95_" overflow="visible"/></clipPath><path class="st47" d="M7.38-2.34h8.71v8.71H7.38z"/><defs><path id="SVGID_97_" d="M11.65 1.87c.07-.07.07-.19 0-.26a.182.182 0 0 0-.27 0c-.07.07-.07.19 0 .26.08.07.2.07.27 0"/></defs><clipPath id="SVGID_98_"><use xlink:href="#SVGID_97_" overflow="visible"/></clipPath><path class="st48" d="M7.17-2.62h8.71v8.71H7.17z"/><defs><path id="SVGID_99_" d="M11.31 1.81a.2.2 0 0 0 0-.27c-.07-.07-.19-.07-.27 0a.2.2 0 0 0 0 .27c.07.07.19.07.27 0"/></defs><clipPath id="SVGID_100_"><use xlink:href="#SVGID_99_" overflow="visible"/></clipPath><path class="st49" d="M6.82-2.68h8.71v8.71H6.82z"/><defs><path id="SVGID_101_" d="M11.01 2.03c.07-.07.07-.19 0-.26-.07-.08-.19-.08-.27 0a.2.2 0 0 0 0 .27c.08.07.2.07.27-.01"/></defs><clipPath id="SVGID_102_"><use xlink:href="#SVGID_101_" overflow="visible"/></clipPath><path class="st50" d="M6.52-2.46h8.71v8.71H6.52z"/><defs><path id="SVGID_103_" d="M10.08 1.75l.1.23.13-.16.01.01c.01.08.02.21.02.29 0 .09.07.17.17.17.09 0 .16-.08.16-.17 0-.06-.03-.12-.09-.15-.06-.05-.14-.12-.18-.17 0-.01.01-.01.01-.02l.22.02-.09-.24-.16.14-.01-.01-.01-.24-.23.09.15.18s-.01.01-.01.02l-.19.01z"/></defs><clipPath id="SVGID_104_"><use xlink:href="#SVGID_103_" overflow="visible"/></clipPath><path class="st51" d="M5.91-2.72h8.93v9.16H5.91z"/><defs><path id="SVGID_105_" d="M11.59 2.16c.05.08.07.12.07.18a.403.403 0 0 1-.14-.13l.03.3a.29.29 0 0 1 .11-.11c-.01.2-.09.28-.16.29a.147.147 0 0 1-.16-.1c-.02-.09.06-.14.14-.06.01-.18-.13-.18-.2-.1.08-.18.04-.3-.11-.39-.1.17-.06.27.07.4-.12-.06-.23.04-.12.18.02-.12.13-.09.15 0 .02.08-.06.18-.19.22-.19.06-.25-.06-.29-.16.04-.03.14-.02.24.05l-.09-.3c-.04.1-.1.15-.18.18-.01-.09.06-.26.06-.26l-.35.15s.17.08.22.15c-.07.03-.15.04-.25-.01l.14.28c.03-.12.09-.2.14-.21.04.1.08.23-.09.32-.12.06-.25.04-.29-.03-.05-.08.01-.18.1-.1-.02-.17-.17-.17-.21-.04 0-.18-.04-.28-.23-.33-.05.18.01.28.19.36-.1-.01-.21.09-.07.21 0-.11.09-.13.14-.05.04.06.03.14-.04.18-.06.04-.17.03-.32-.1.04-.02.09-.01.16 0l-.19-.24c.01.09.01.15-.01.18-.05-.04-.06-.08-.08-.17l-.15.13c.14.09.3.22.5.49.2-.13.57-.3.8-.4.23-.09.61-.22.85-.28-.05-.33-.03-.53.02-.69l-.21.01z"/></defs><clipPath id="SVGID_106_"><use xlink:href="#SVGID_105_" overflow="visible"/></clipPath><path class="st52" d="M5.47-2.12h10.49v9.8H5.47z"/><defs><path id="SVGID_107_" d="M14.46 10.49c.05-.14-.21-.3-.23-.5-.03-.2-.01-.39-.23-.66-.23-.26-1.01-1.1-1.24-1.37.06-.01.2-.04.34.1.09.08.25.24.41.39.21-.53.46-.92.83-1.34.05-.05.1-.1.14-.15-.14.04-.35.07-.47.16-.01-.23 0-.42-.15-.57.06-.32.01-.71-.71-1.19.37.09.59.42.87.17-.25-.01-.26-.56-1.17-1.02.35-.01.62.56 1.02.24-.38-.04-.51-.72-1.19-.93.24.03.48.14.69-.14-.24.06-.38-.16-.63-.18.09-.3.07-.48-.03-.7-.18.01-.36.07-.49.18-.02-.16-.19-.17-.34-.16-.01.06.02.17-.05.18-.12.02-.53.13-.84.25-.32.12-.67.35-.78.42-.06.04-.12-.06-.16-.11-.11.1-.22.22-.14.34-.18.02-.37.07-.54.2 0 .2.17.4.42.51-.42.42-.04.81-.41 1.18.52.02.43-.71.7-.81-.03.51-.31.61-.31 1.16 0 .29.18.62.02.81.44-.12.33-1.09.6-1.38.05.17.02.33-.04.49-.15.45.02 1.07-.22 1.27.45-.04.5-.76.87-1.03-.32.65-.64 2.02-1.11 2.71-.76 1.03-1.21 2.29-1.91 2.29-.31 0-.54-.19-.54-.58 0-1.17 2.01-1.98 2.01-3.22 0-.55-.45-.77-.74-.77-.19 0-.42.1-.62.25-.09-.02-.18-.04-.25-.04-.71 0-.52 1.28-1.14 1.27.24.14.67-.13.92-.49-.1.83-1.29.61-1.2 1.6.17-.78 2.06-.66 2.06-1.85 0-.13-.07-.25-.16-.33.14-.09.28-.13.4-.13.23 0 .43.17.43.5 0 1.05-1.99 1.93-1.99 3.21 0 .22.06.4.17.54-.14.06-.29.04-.41-.11-.01.33.46.54.76.37.07.02.13.04.21.04-.09.25-.39.32-.55.31.49.38 1.34-.12 1.3-.56.39-.31.63-.85.91-1.2-.02.08-.03.16-.04.24-.29.52-.55.99-.63 1.67-.06.58-.35 1.09-.75 1.09-.09 0-.23-.12-.3-.06-.15.13-.03.25-.03.35 0 .16-.32.33-.32.83 0 .23.13.5.08.65.13-.07.3-.28.37-.56.14.67-.29.64.02 1.23.04-.2.23-.28.35-.2.12.08.06.14-.03.23s-.17.53.23.51c-.07-.05-.08-.17.12-.21.3-.06.38.07.68.07.18 0 .23-.24.38-.24.14 0 .14.11.09.2.24-.06.28-.19.28-.32s-.11-.21-.03-.27c.08-.05.35.01.24.23.14-.03.22-.13.22-.3 0-.17-.2-.27-.38-.24-.03-.1-.19-.16-.33-.16-.33 0-.27.26-.5.26-.36 0-.71-.47-.71-1.26 0-.42.45-.53.77-.67s.88-.49 1.22-1.05c.26-.44.27-.93.24-1.5.45.26.51.63.51.9 0 .35-.18.5-.33.56-.12.06-.16.04-.17.11-.02.09.04.14.1.17.17.08.13.24.18.41.05.17.2.44.45.63.03-.1.02-.27 0-.49.35.17.07.87.74.87-.12-.07-.09-.26-.02-.28.07-.03.16.04.29.23.13.18.09.17.41.17.32 0 .17-.11.34-.11s.16.2.07.34c.29-.09.37-.3.27-.53.25-.14.39.06.42.2.25-.25 0-.55-.19-.57 0-.09-.08-.19-.19-.2-.1-.01-.2-.01-.32-.01-.12.01-.18.18-.32.18-.42 0-1.26-.76-1.26-1.1 0-.33.8-.53.8-1.05 0-.67-.66-.9-1.22-1.34.2-.22.78-.27 1.11-.11.03-.19.16-.14.2-.46.12.29 0 .53.12.65.09-.14.33-.12.32-.47.07.22-.09.56.07.7.03-.18.14-.21.2-.21.07 0 .13.05.13.15 0 .27-.33.15-.33.45 0 .13.16.17.16.26 0 .08-.13.21-.29.1.05.12.16.22.3.22.14 0 .3-.12.36-.27.08.19.02.41-.12.44.15.07.49 0 .45-.44.19.03.3.17.18.4.16-.04.31-.12.31-.29.02-.14-.13-.18-.06-.35m-3.79-6.07c-.18.01-.18-.16-.5-.24.23-.05.52-.16.77-.26.05.21-.04.48-.27.5m1.29 1.37c-.23.1-.42-.1-.46-.25-.05-.14-.08-.26-.03-.31.1-.1.13-.18.07-.3-.07-.15-.23-.08-.39-.03.08-.14.09-.24-.02-.23-.13.01-.13.22-.2.19-.07-.02-.03-.14-.03-.2 0-.09.06-.12.14-.15l.68-.26c.09-.03.15-.05.21.01.05.04.15.1.12.17s-.18-.08-.27 0c-.09.06-.01.13.14.18-.15.09-.3.14-.25.3.04.13.12.17.26.17.07 0 .13.11.19.25.07.11.09.36-.16.46m.04-1.9c-.18.14-.42.01-.53-.18.25-.11.54-.22.74-.34-.18.28-.06.41-.21.52"/></defs><clipPath id="SVGID_108_"><use xlink:href="#SVGID_107_" overflow="visible"/></clipPath><path class="st53" d="M2.25-1.37h16.46v21.62H2.25z"/><defs><path id="SVGID_109_" d="M27.25 13.72a.56.56 0 1 0 1.12 0 .56.56 0 1 0-1.12 0m.14 0c0-.23.19-.42.42-.42.23 0 .42.19.42.42 0 .23-.19.42-.42.42-.23 0-.42-.19-.42-.42"/></defs><clipPath id="SVGID_110_"><use xlink:href="#SVGID_109_" overflow="visible"/></clipPath><path class="st54" d="M23.08 8.99h9.46v9.46h-9.46z"/><defs><path id="SVGID_111_" d="M25.14 14.24c-.07.05-.12.13-.14.21-.02.1.01.2.09.28.07.08.17.13.28.15.11.02.23.01.32-.04.1-.05.16-.13.18-.24.04-.2-.13-.39-.37-.43a.45.45 0 0 0-.36.07m.26.5c-.16-.03-.28-.15-.25-.27.01-.06.05-.1.08-.12.07-.05.16-.06.25-.05.14.03.26.13.26.24v.03c-.03.12-.18.2-.34.17"/></defs><clipPath id="SVGID_112_"><use xlink:href="#SVGID_111_" overflow="visible"/></clipPath><path class="st55" d="M20.83 9.99h9.21v9.06h-9.21z"/><defs><path id="SVGID_113_" d="M22.04 6.31c-.18.13-.23.37-.12.51.11.14.35.15.52.01.1-.07.16-.18.17-.29a.286.286 0 0 0-.06-.22.309.309 0 0 0-.2-.11.46.46 0 0 0-.31.1m-.04.33c0-.07.04-.16.12-.22.07-.05.14-.08.21-.07.03.01.07.02.1.06.03.04.03.09.03.12-.01.07-.05.14-.12.19-.11.09-.26.09-.32.01a.2.2 0 0 1-.02-.09"/></defs><clipPath id="SVGID_114_"><use xlink:href="#SVGID_113_" overflow="visible"/></clipPath><path class="st56" d="M17.7 2.05h9.09v9.05H17.7z"/><defs><path id="SVGID_115_" d="M24.48 13.3c-.09.08-.13.21-.14.34v.01c0 .13.04.25.13.33.06.07.14.1.23.1s.17-.03.23-.1c.08-.08.13-.2.14-.34a.48.48 0 0 0-.1-.31.328.328 0 0 0-.26-.14.38.38 0 0 0-.23.11m.22.64c-.06 0-.1-.04-.13-.06a.34.34 0 0 1-.09-.24c0-.1.03-.18.09-.24.03-.03.07-.06.13-.06.12 0 .22.14.21.3 0 .09-.04.18-.1.24-.01.03-.05.06-.11.06"/></defs><clipPath id="SVGID_116_"><use xlink:href="#SVGID_115_" overflow="visible"/></clipPath><path class="st57" d="M20.18 9.04h9.06v9.21h-9.06z"/><defs><path id="SVGID_117_" d="M21.72 8.74c-.09.03-.15.09-.19.16-.09.18.02.42.24.52.12.06.25.07.36.03a.309.309 0 0 0 .2-.41.455.455 0 0 0-.25-.26.424.424 0 0 0-.36-.04m.11.55c-.15-.07-.22-.22-.17-.32.02-.06.07-.08.1-.09.08-.03.17-.02.25.02.1.04.16.1.19.18.01.03.02.09 0 .14-.02.05-.07.08-.11.09a.34.34 0 0 1-.26-.02"/></defs><clipPath id="SVGID_118_"><use xlink:href="#SVGID_117_" overflow="visible"/></clipPath><path class="st58" d="M17.34 4.55h9.18v9.09h-9.18z"/><defs><path id="SVGID_119_" d="M27.65 8.15c.18.51.55.69.83.56-.62-.07-.12-1.14-.92-1.14-.04 0-.09.01-.13.01a.67.67 0 0 0-.52-.21c-.34 0-.92.33-.92 1.01 0 1.46 1.69 1.58 1.69 2.87 0 .38-.28.61-.6.61-.29 0-.51-.32-.75-.82-.11-.24-.36-.56-.62-.91.08.06.16.09.25.09s.17-.03.23-.09.1-.14.1-.23v.01c0-.11-.05-.23-.14-.33a.494.494 0 0 0-.33-.16.326.326 0 0 0-.33.32v.01c0 .05.01.1.03.15-.36-.48-.7-.94-.7-1.2 0-.22.16-.42.35-.66.01.01.07.04.07.04l.05-.06c.07-.08.21-.23.5-.54l.02-.02.07-.08-.18-.15c.05-.11.09-.23.12-.36.06.23.18.38.34.34-.11-.24.11-.57-.03-1.16.14.23.34.35.48.31-.37-.33.11-.8-.38-1.51.16.06.26.02.34-.06-.45-.06-.24-.63-1.02-.84.19-.03.31-.15.28-.25-.21.15-.39-.28-1.06-.27-.04-.25-.28-.52-.54-.65.05.2 0 .37-.05.52l-2.2-2.17c-.06-.06-.1-.07-.12-.05-.02.02-.02.06.03.11l1.89 2.38c-.14.05-.28.11-.43.16-.09.03-.16.13-.16.25-.35.18-.66.39-.81.53-.12.11-.21.13-.11.37.04.09-.08.32.19.15.18-.11.59-.33.65-.19.03.07-.17.17-.31.22-.14.05-.29.16-.27.21.02.05.13 0 .14.05.01.06.05.12.11.12s.13-.12.17-.07c.04.04-.02.29-.07.36.21-.03.35-.23.36-.39.01-.16.05-.2.08-.22.03-.02.07.17.03.29.11-.02.23-.18.21-.45.06-.05.12-.08.16-.08.07 0 .21.2.42.2.37 0 .58-.3.6-.45.02-.12.01-.23-.05-.31.13.11.18.28.18.4 0 .53-.94.78-1.32 1.15-.01.01-.03.02-.04.04l-.44-.17-.07.11c0 .01-.01.02-.03.08-.05.15-.14.47-.2.65l-.02.07.04.02c-.26.35-.47.74-.52 1.14-.11-.11-.21-.2-.32-.29.01-.04.02-.08.02-.12a.416.416 0 0 0-.1-.31.278.278 0 0 0-.2-.1c-.08 0-.15.02-.22.08-.01.01-.03.02-.04.04-.01-.01-.03-.02-.05-.04-.14-.11-.33-.25-.43-.36a.227.227 0 0 0-.19-.08c-.04 0-.13-.01-.2-.01-.06 0-.1.05-.18.12-.04.03-.14.11-.25.2.06.06.11.11.16.17.03.03.06.06.08.1.03-.02.06-.04.08-.06.05-.04.11-.05.16-.05.06 0 .14.04.19.13.04.06.4.53.69.85-.03.01-.06.02-.09.04-.13.05-.41.04-.54.03-.13-.01-.15-.04-.24.09-.03.05-.07.11-.12.16-.04.05-.07.11.01.26.13.22.45.8.56 1.06.11.26.23.3.44.39.21.09.56.29.6.33l.01-.2c-.06-.06-.26-.14-.33-.16-.07-.03-.09-.06 0-.06s.34.09.51.16c-.05-.2-.24-.41-.35-.54-.15-.04-.3-.04-.36.01.01.04-.02.09-.08.09s-.1-.05-.08-.1c.02-.06.11-.08.09-.19-.02-.11-.16-.13-.25-.14-.11-.18-.25-.45-.32-.56-.07-.11-.03-.17.02-.21.11-.09.33.05.78.08.16.01.35.02.56.03.06.52.27 1.02.99 1.2.35.09.72.35.84.69-1.45-.02-1.67.54-1.67 1.07 0 .6.51.57.51 1.02 0 .4-1.22.56-1.58.62-.31.04-.49.11-.64.26-.15.15-.3.29-.57.57 0 0 .12.03.23.02l.21-.27c.06-.09.1-.16.14-.16.04.01.01.08-.04.17l-.17.29c.71.05.76-.22.76-.33 0-.11-.18-.18-.07-.25.1-.07.19-.02.27.08.08.09.11.17.3.1 0 0 1.56-.65 1.75-.74.18-.08.13-.16.02-.25-.12-.1-.14-.25-.14-.41 0-.47.28-.62.79-.61-.01.08-.01.16-.01.23 0 .74 1.11 1.46 1.41 1.46.13 0 .31-.1.33.34.01.32.07.55.01.93-.06.38-.17.44-.39.59-.23.16-.44.66-.53.76.1.07.21.08.29-.17.07-.2.15-.34.24-.39-.09.22-.15.54-.19.64.28.05.74-.21.74-.41 0-.2-.16-.18-.16-.32 0-.06.07-.12.16-.12.11 0 .2.09.21.13.13-.07.2-.19.2-.49 0-.11-.01-.23-.01-.36.01.02.01.03.02.05.06.08.14.13.26.14.1.01.22-.02.31-.09.11-.07.19-.18.21-.3.01-.03.01-.05.01-.07 0-.06-.02-.12-.05-.17a.345.345 0 0 0-.21-.14c-.12-.03-.25 0-.36.08-.1.07-.18.17-.21.27-.02-.4-.05-.78-.04-.93.02-.23.03-.32-.05-.36-.07-.03-.16.09-.27.09-.11 0-.43-.3-.43-.62s.34-.73.33-1.16c-.01-.14.08-.21.13-.09.07.15.16.35.31.51-.09.55.51 1.08 1.01.69-.25.03-.41-.18-.52-.4.04.01.09.01.13.01h.07c.17.22.72.2.87-.34-.1.11-.3.2-.44.18.21-.16.32-.43.32-.71 0-1.39-1.68-1.55-1.68-2.81 0-.47.41-.77.69-.77.11 0 .19.03.26.09-.11.14-.17.31-.16.51.04 1 1.67.95 1.69 1.43.18-.73-1.03-.5-1.07-1.48zm-4.33-3.82c.08-.15 0-.38.27-.38.14 0 .26.13.42.19-.26.02-.5.08-.69.19zm-1.49 3.06c0 .08-.04.15-.09.2a.16.16 0 0 1-.11.04c-.09 0-.17-.12-.17-.24v-.02c0-.08.03-.15.09-.2a.16.16 0 0 1 .11-.04c.05 0 .08.03.1.05.05.05.07.12.07.21zm4.81 7c.02-.08.07-.16.15-.21.08-.05.17-.07.25-.06.04.01.09.03.12.08s.03.1.02.14c-.02.08-.07.15-.15.21-.14.09-.3.08-.37-.02a.18.18 0 0 1-.02-.14zm-1.02-4.65c0-.04.01-.09.05-.13.04-.04.1-.05.13-.05.08 0 .16.04.23.11.06.07.1.16.1.23 0 .04-.01.09-.05.13-.04.04-.1.05-.13.05-.08 0-.17-.04-.23-.11a.345.345 0 0 1-.1-.23zm-2.76-3.13c.08-.25.23-.73.23-.73l.26.1a.62.62 0 0 0-.25.17c.06.03.16.03.23-.01l-.1.26a.363.363 0 0 0-.17-.15c-.05.21.08.29.17.33.16.08.26.09.3.02.05-.09-.05-.21-.18-.16-.01-.13.06-.21.15-.21.07 0 .13.06.15.15-.01-.22.09-.39.29-.45.07.21.01.36-.15.51.08-.04.18-.03.22.03.05.07.03.18-.09.24-.03-.14-.19-.15-.24-.06-.05.09.02.18.17.26.17.09.3.04.39-.11-.06-.02-.15-.01-.24.05l.17-.32c.01.05.04.13.11.19.03-.07.06-.2.01-.31l.37.21c-.12.01-.21.1-.26.16.09.03.17.01.22 0l-.19.31c0-.1-.03-.19-.08-.23-.08.15-.06.29.1.39.14.08.25.1.3.02.06-.09-.04-.22-.17-.17 0-.13.07-.2.16-.2.07.01.12.09.14.17.05-.22.15-.34.37-.38.05.2-.05.37-.24.48.09-.03.17-.01.2.05.04.08.02.18-.1.23-.02-.14-.18-.17-.23-.08-.04.07.02.15.17.25.09.06.22.13.38-.02-.05-.06-.17-.07-.22-.07l.17-.22c-.01.08.05.17.1.21.03-.11.04-.22.03-.3l.21.17s-.35.37-.52.56l-2.34-1.34zm2.28 5.75c-.09.13-.25.18-.35.1-.1-.07-.11-.24-.02-.37s.25-.18.35-.11c.11.08.11.25.02.38zm.67-1.05c-.09.13-.25.18-.35.1-.1-.07-.11-.24-.02-.37s.25-.18.35-.11c.1.08.11.25.02.38z"/></defs><clipPath id="SVGID_120_"><use xlink:href="#SVGID_119_" overflow="visible"/></clipPath><path class="st59" d="M15.95-3.08H32.9V20.3H15.95z"/><defs><path id="SVGID_121_" d="M72.51 13.75c1.19 0 2.15-.94 2.15-2.61 0-1.69-.96-2.62-2.15-2.62s-2.15.94-2.15 2.62c0 1.67.96 2.61 2.15 2.61m0-6.24c2.19 0 3.36 1.59 3.36 3.63 0 2.02-1.16 3.62-3.36 3.62-2.19 0-3.36-1.59-3.36-3.62 0-2.04 1.17-3.63 3.36-3.63"/></defs><clipPath id="SVGID_122_"><use xlink:href="#SVGID_121_" overflow="visible"/></clipPath><path class="st60" d="M64.99 3.34h15.05v15.58H64.99z"/><defs><path id="SVGID_123_" d="M35.66 4.72H37v4.32h5.27V4.72h1.34v10.03h-1.34v-4.59H37v4.59h-1.34z"/></defs><clipPath id="SVGID_124_"><use xlink:href="#SVGID_123_" overflow="visible"/></clipPath><path class="st61" d="M31.5.56h16.27v18.36H31.5z"/><defs><path id="SVGID_125_" d="M45.45 4.72h1.83l3.15 8.43 3.18-8.43h1.82v10.03h-1.26V6.41h-.03l-3.13 8.34h-1.14l-3.13-8.34h-.02v8.34h-1.27z"/></defs><clipPath id="SVGID_126_"><use xlink:href="#SVGID_125_" overflow="visible"/></clipPath><path class="st62" d="M41.29.56H59.6v18.36H41.29z"/><defs><path id="SVGID_127_" d="M64.29 4.52l.56.02.55.07.52.14.48.17.44.23.4.29.34.34.31.4.27.47.19.51.13.6h-1.3l-.11-.46-.2-.41-.24-.34-.29-.29-.35-.25-.38-.17-.4-.13-.46-.08-.46-.02-.57.04-.5.13-.46.19-.38.25-.37.31-.29.36-.25.43-.19.44-.15.46-.11.5-.06.51-.02.52.02.56.09.53.14.5.21.48.25.44.3.4.37.33.42.29.46.19.52.13.57.06.57-.06.52-.11.48-.19.42-.25.35-.33.3-.36.21-.42.18-.46.07-.48.02-.54h-3.12V9.37h4.29v5.15h-.82l-.35-1.22-.34.4-.41.33-.44.26-.46.22-.49.13-.48.08-.5.03-.71-.05-.65-.14-.59-.23-.56-.28-.48-.39-.44-.42-.36-.48-.31-.54-.23-.55-.17-.6-.11-.61-.04-.63.04-.65.07-.64.14-.59.19-.58.25-.53.3-.5.37-.46.4-.39.48-.34.51-.27.58-.19.63-.14.69-.03z"/></defs><clipPath id="SVGID_128_"><use xlink:href="#SVGID_127_" overflow="visible"/></clipPath><path class="st63" d="M55.47.35h17.27v18.57H55.47z"/><defs><path id="SVGID_129_" d="M79.63 14.75H78.4L75.83 7.8h1.27l1.95 5.8h.03l1.89-5.8h1.19z"/></defs><clipPath id="SVGID_130_"><use xlink:href="#SVGID_129_" overflow="visible"/></clipPath><path class="st64" d="M71.66 3.64h14.67v15.28H71.66z"/><defs><path id="SVGID_131_" d="M87.4 12.39c-.2.9-.86 1.35-1.8 1.35-1.51 0-2.2-1.07-2.16-2.28h5.18c.08-1.67-.67-3.96-3.12-3.96-1.89 0-3.25 1.53-3.25 3.61.07 2.12 1.11 3.65 3.32 3.65 1.55 0 2.65-.83 2.96-2.36H87.4zm-3.95-1.93c.08-1.06.79-1.96 1.98-1.96 1.12 0 1.94.87 1.99 1.96h-3.97z"/></defs><clipPath id="SVGID_132_"><use xlink:href="#SVGID_131_" overflow="visible"/></clipPath><path class="st65" d="M78.08 3.34H92.8v15.58H78.08z"/><defs><path id="SVGID_133_" d="M89.57 14.75h1.14v-3.09c0-1.76.67-2.8 2.5-2.8v-1.2c-1.23-.04-2 .51-2.54 1.62h-.03V7.82h-1.07v6.93z"/></defs><clipPath id="SVGID_134_"><use xlink:href="#SVGID_133_" overflow="visible"/></clipPath><path class="st66" d="M85.41 3.49h11.97v15.43H85.41z"/><defs><path id="SVGID_135_" d="M97.27 7.69l.51.02.45.09.35.15.32.19.24.26.19.28.15.34.1.36.05.41.02.43v4.53h-1.12v-4.66l-.06-.41-.11-.34-.21-.26-.28-.21-.35-.13-.4-.06-.43.04-.39.09-.32.17-.28.21-.22.24-.17.3-.13.36-.08.35-.02.42v3.89h-1.14V7.84h1.07v1.1h.02l.28-.39.3-.32.35-.24.4-.17.45-.09.46-.04z"/></defs><clipPath id="SVGID_136_"><use xlink:href="#SVGID_135_" overflow="visible"/></clipPath><path class="st67" d="M89.78 3.52h14.04v15.4H89.78z"/><defs><path id="SVGID_137_" d="M116.05 12.39c-.2.9-.86 1.35-1.8 1.35-1.51 0-2.2-1.07-2.16-2.28h5.18c.07-1.67-.68-3.97-3.13-3.97-1.89 0-3.25 1.53-3.25 3.61.07 2.12 1.11 3.65 3.32 3.65 1.55 0 2.65-.83 2.96-2.36h-1.12zm-3.95-1.93c.08-1.06.79-1.96 1.98-1.96 1.12 0 1.94.87 1.99 1.96h-3.97z"/></defs><clipPath id="SVGID_138_"><use xlink:href="#SVGID_137_" overflow="visible"/></clipPath><path class="st68" d="M106.73 3.34h14.72v15.58h-14.72z"/><defs><path id="SVGID_139_" d="M121.59 7.69l.51.02.45.09.35.15.32.19.24.26.19.28.15.34.1.36.05.41.02.43v4.53h-1.12v-4.66l-.06-.41-.11-.34-.21-.26-.28-.21-.35-.13-.4-.06-.43.04-.39.09-.32.17-.28.21-.22.24-.17.3-.13.36-.08.35-.02.42v3.89h-1.14V7.84h1.07v1.1h.02l.28-.39.3-.32.35-.24.4-.17.45-.09.46-.04z"/></defs><clipPath id="SVGID_140_"><use xlink:href="#SVGID_139_" overflow="visible"/></clipPath><path class="st69" d="M114.1 3.52h14.04v15.4H114.1z"/><defs><path id="SVGID_141_" d="M100.26 7.81h1.07v1.02h.03c.51-.78 1.29-1.18 2.24-1.18.84 0 1.62.34 1.9 1.18.47-.74 1.29-1.18 2.17-1.18 1.38 0 2.31.58 2.31 2.01v5.09h-1.14V10.2c0-.86-.23-1.54-1.34-1.54-1.1 0-1.81.7-1.81 1.77v4.32h-1.14V10.2c0-.9-.28-1.54-1.3-1.54-1.35 0-1.85 1.25-1.85 1.77v4.32h-1.14V7.81z"/></defs><clipPath id="SVGID_142_"><use xlink:href="#SVGID_141_" overflow="visible"/></clipPath><path class="st70" d="M96.09 3.49h18.05v15.43H96.09z"/><defs><path id="SVGID_143_" d="M126.99 7.81h1.38v1.01h-1.38v4.31c0 .52.15.62.86.62h.52v1.01h-.87c-1.18 0-1.65-.24-1.65-1.52V8.82h-1.18V7.81h1.18V5.73h1.14v2.08z"/></defs><clipPath id="SVGID_144_"><use xlink:href="#SVGID_143_" overflow="visible"/></clipPath><path class="st71" d="M120.51 1.57h12.03v17.35h-12.03z"/></svg>