<?xml version="1.0" encoding="UTF-8" standalone="no"?>
<svg width="42px" height="53px" viewBox="0 0 42 53" version="1.1" xmlns="http://www.w3.org/2000/svg" xmlns:xlink="http://www.w3.org/1999/xlink">
    <!-- Generator: Sketch 39.1 (31720) - http://www.bohemiancoding.com/sketch -->
    <title>Page 1</title>
    <desc>Created with Sketch.</desc>
    <defs>
        <polygon id="path-1" points="0.000617647059 52.7727273 41.7585 52.7727273 41.7585 0.432368182 0.000617647059 0.432368182 0.000617647059 52.7727273"></polygon>
    </defs>
    <g id="solution-3" stroke="none" stroke-width="1" fill="none" fill-rule="evenodd">
        <g id="details" transform="translate(-320.000000, -2611.000000)">
            <g id="Page-1" transform="translate(320.000000, 2610.000000)">
                <g id="Group-3" transform="translate(0.000000, 0.794905)">
                    <mask id="mask-2" fill="white">
                        <use xlink:href="#path-1"></use>
                    </mask>
                    <g id="Clip-2"></g>
                    <path d="M20.8795588,51.0770045 C10.3079118,51.0770045 1.70655882,42.5315045 1.70655882,32.0285045 C1.70655882,21.5255045 10.3079118,12.9800045 20.8795588,12.9800045 C31.4512059,12.9800045 40.0525588,21.5255045 40.0525588,32.0285045 C40.0525588,42.5315045 31.4512059,51.0770045 20.8795588,51.0770045 M18.0915,4.89718636 C18.0915,3.37045909 19.3428529,2.12845909 20.8795588,2.12845909 C22.4162647,2.12845909 23.6676176,3.37045909 23.6676176,4.89718636 C23.6676176,6.12936818 22.8535588,7.17500455 21.7331471,7.53459545 L21.7331471,6.70618636 C21.7331471,6.23859545 21.3514412,5.85814091 20.8795588,5.85814091 C20.4076765,5.85814091 20.0259706,6.23859545 20.0259706,6.70618636 L20.0259706,7.53459545 C18.9055588,7.17500455 18.0915,6.12936818 18.0915,4.89718636 M21.7331471,11.30355 L21.7331471,9.28100455 C23.8047353,8.88336818 25.3735588,7.06945909 25.3735588,4.89718636 C25.3735588,2.43527727 23.3575588,0.432368182 20.8795588,0.432368182 C18.4015588,0.432368182 16.3855588,2.43527727 16.3855588,4.89718636 C16.3855588,7.06945909 17.9543824,8.88336818 20.0259706,9.28100455 L20.0259706,11.30355 C8.90708824,11.7502773 0.000617647059,20.87505 0.000617647059,32.0285045 C0.000617647059,43.4666864 9.36661765,52.7730955 20.8795588,52.7730955 C32.3925,52.7730955 41.7585,43.4666864 41.7585,32.0285045 C41.7585,20.87505 32.8520294,11.7502773 21.7331471,11.30355" id="Fill-1" fill="#B00D23" mask="url(#mask-2)"></path>
                </g>
                <path d="M20.8795588,15.6971864 C11.3739706,15.6971864 3.64102941,23.3799136 3.64102941,32.8237773 C3.64102941,42.2676409 11.3739706,49.9503682 20.8795588,49.9503682 C30.3851471,49.9503682 38.1180882,42.2676409 38.1180882,32.8237773 C38.1180882,23.3799136 30.3851471,15.6971864 20.8795588,15.6971864" id="Fill-4" fill="#1E1348"></path>
                <path d="M20.8795588,48.2544 C12.3152647,48.2544 5.34820588,41.3325818 5.34820588,32.8239 C5.34820588,24.3152182 12.3152647,17.3934 20.8795588,17.3934 C29.4438529,17.3934 36.4109118,24.3152182 36.4109118,32.8239 C36.4109118,41.3325818 29.4438529,48.2544 20.8795588,48.2544" id="Fill-6" fill="#1E1348"></path>
                <path d="M20.8795588,31.8628227 C21.4132059,31.8628227 21.8467941,32.2935955 21.8467941,32.8237773 C21.8467941,33.3539591 21.4132059,33.7847318 20.8795588,33.7847318 C20.3459118,33.7847318 19.9123235,33.3539591 19.9123235,32.8237773 C19.9123235,32.2935955 20.3459118,31.8628227 20.8795588,31.8628227 M18.2051471,32.8237773 C18.2051471,34.2891409 19.4046176,35.4808227 20.8795588,35.4808227 C22.3545,35.4808227 23.5539706,34.2891409 23.5539706,32.8237773 C23.5539706,31.3584136 22.3545,30.1667318 20.8795588,30.1667318 C19.4046176,30.1667318 18.2051471,31.3584136 18.2051471,32.8237773" id="Fill-8" fill="#FFFFFF"></path>
                <path d="M24.4533882,34.4446364 C24.0778588,35.316 23.3873294,36.0008182 22.5115059,36.3739091 L13.4012118,40.2533182 L17.3059765,31.2021818 C17.6815059,30.3320455 18.3708,29.646 19.2478588,29.2729091 L28.3581529,25.3947273 L24.4533882,34.4446364 Z M29.6465647,23.0003182 L18.5758588,27.7142727 C17.2936235,28.2604091 16.2856235,29.2618636 15.7371529,30.5345455 L10.9923882,41.5333636 C10.8552706,41.8524545 10.9269176,42.2218636 11.1727412,42.4673182 C11.3370353,42.6293182 11.5544471,42.7152273 11.7768,42.7152273 C11.8904471,42.7152273 12.0040941,42.6931364 12.1128,42.6465 L23.1835059,37.9325455 C24.4645059,37.3876364 25.4725059,36.3861818 26.0222118,35.1122727 L30.7669765,24.1134545 C30.9040941,23.7955909 30.8324471,23.4261818 30.5853882,23.1807273 C30.3395647,22.9352727 29.9665059,22.8640909 29.6465647,23.0003182 L29.6465647,23.0003182 Z" id="Fill-10" fill="#FFFFFF"></path>
                <path d="M20.8795588,22.81905 C21.3514412,22.81905 21.7331471,22.4398227 21.7331471,21.9710045 L21.7331471,20.1620045 C21.7331471,19.6944136 21.3514412,19.3151864 20.8795588,19.3151864 C20.4076765,19.3151864 20.0259706,19.6944136 20.0259706,20.1620045 L20.0259706,21.9710045 C20.0259706,22.4398227 20.4076765,22.81905 20.8795588,22.81905" id="Fill-12" fill="#FFFFFF"></path>
                <path d="M20.8795588,42.8282591 C20.4076765,42.8282591 20.0259706,43.2074864 20.0259706,43.6763045 L20.0259706,45.4853045 C20.0259706,45.9528955 20.4076765,46.3321227 20.8795588,46.3321227 C21.3514412,46.3321227 21.7331471,45.9528955 21.7331471,45.4853045 L21.7331471,43.6763045 C21.7331471,43.2074864 21.3514412,42.8282591 20.8795588,42.8282591" id="Fill-14" fill="#FFFFFF"></path>
                <path d="M9.95622353,31.9758545 L8.1354,31.9758545 C7.66475294,31.9758545 7.28181176,32.3550818 7.28181176,32.8239 C7.28181176,33.2914909 7.66475294,33.6719455 8.1354,33.6719455 L9.95622353,33.6719455 C10.4281059,33.6719455 10.8098118,33.2914909 10.8098118,32.8239 C10.8098118,32.3550818 10.4281059,31.9758545 9.95622353,31.9758545" id="Fill-16" fill="#FFFFFF"></path>
                <path d="M33.6234706,31.9758545 L31.8026471,31.9758545 C31.332,31.9758545 30.9490588,32.3550818 30.9490588,32.8239 C30.9490588,33.2914909 31.332,33.6719455 31.8026471,33.6719455 L33.6234706,33.6719455 C34.0953529,33.6719455 34.4770588,33.2914909 34.4770588,32.8239 C34.4770588,32.3550818 34.0953529,31.9758545 33.6234706,31.9758545" id="Fill-18" fill="#FFFFFF"></path>
            </g>
        </g>
    </g>
</svg>