<?xml version="1.0" encoding="utf-8"?>
<!-- Generator: Adobe Illustrator 21.0.2, SVG Export Plug-In . SVG Version: 6.00 Build 0)  -->
<svg version="1.1" id="Layer_2" xmlns="http://www.w3.org/2000/svg" xmlns:xlink="http://www.w3.org/1999/xlink" x="0px" y="0px"
	 width="35px" height="35px" viewBox="0 0 35 35" style="enable-background:new 0 0 35 35;" xml:space="preserve">
<style type="text/css">
	.st0{fill:#333333;}
</style>
<g>
	<g>
		<path class="st0" d="M29.5,5.6c-3.2-3.2-7.5-5-12-5s-8.8,1.8-12,5c-6.2,6.2-6.6,16-1.1,22.7c-0.8,1.6-1.7,2.6-2.7,3.1
			c-0.6,0.3-1,1-0.9,1.7c0.1,0.7,0.6,1.2,1.3,1.3c0.4,0.1,0.8,0.1,1.2,0.1l0,0c2.1,0,4.3-0.7,6.1-2c2.5,1.3,5.2,2,8,2
			c4.5,0,8.8-1.8,12-5s5-7.5,5-12S32.7,8.8,29.5,5.6z M28.2,28.2c-2.8,2.8-6.6,4.4-10.6,4.4c-2.7,0-5.3-0.7-7.6-2.1
			c-0.1-0.1-0.3-0.1-0.5-0.1c-0.2,0-0.4,0.1-0.6,0.2c-2.2,1.7-4.4,1.9-5.3,2c1.1-0.9,2.1-2.2,2.9-4c0.1-0.3,0.1-0.7-0.2-1
			c-5.3-5.9-5-15,0.6-20.6c2.8-2.8,6.6-4.4,10.6-4.4s7.8,1.6,10.6,4.4C34,12.8,34,22.3,28.2,28.2z"/>
		<path class="st0" d="M24.7,12H10.5c-0.5,0-1,0.4-1,1c0,0.5,0.4,1,1,1h14.2c0.5,0,1-0.4,1-1C25.6,12.4,25.2,12,24.7,12z"/>
		<path class="st0" d="M24.7,16.6H10.5c-0.5,0-1,0.4-1,1c0,0.5,0.4,1,1,1h14.2c0.5,0,1-0.4,1-1C25.6,17,25.2,16.6,24.7,16.6z"/>
		<path class="st0" d="M24.7,21.2H10.5c-0.5,0-1,0.4-1,1s0.4,1,1,1h14.2c0.5,0,1-0.4,1-1S25.2,21.2,24.7,21.2z"/>
	</g>
</g>
</svg>
