<?xml version="1.0" encoding="UTF-8"?>
<svg width="50px" height="44px" viewBox="0 0 50 44" version="1.1" xmlns="http://www.w3.org/2000/svg" xmlns:xlink="http://www.w3.org/1999/xlink">
    <!-- Generator: Sketch 54.1 (76490) - https://sketchapp.com -->
    <title>icon_useful</title>
    <desc>Created with Sketch.</desc>
    <g id="Page-1" stroke="none" stroke-width="1" fill="none" fill-rule="evenodd">
        <g id="SOO-Home-2" transform="translate(-506.000000, -3658.000000)">
            <g id="icon_useful" transform="translate(506.000000, 3658.000000)">
                <g id="chat" transform="translate(0.000000, 12.000000)" fill="#000000" fill-rule="nonzero">
                    <path d="M33.9821757,0 L3.01796882,0 C1.35390177,0 0,1.33510897 0,2.97614922 L0,20.829624 C0,22.4707355 1.35390177,23.8058444 3.01804109,23.8058444 L4.78241321,23.8058444 L4.78241321,31.1515448 C4.78241321,31.4947466 4.99212888,31.8040985 5.31356763,31.9354359 C5.42001531,31.9789062 5.53173841,32 5.64259431,32 C5.86654635,32 6.08666831,31.913772 6.25121778,31.7515065 L14.3086496,23.8057732 L33.9820312,23.8057732 C35.6461705,23.8057732 37,22.4706642 37,20.8295527 L37,2.97614922 C37.0001445,1.33510897 35.6462428,0 33.9821757,0 Z M33.9821757,22.1087916 L13.9518006,22.1087916 C13.7292216,22.1087916 13.5270216,22.1928817 13.3743237,22.3296351 C13.3729507,22.3308466 13.3713608,22.3323431 13.3699878,22.3335545 C13.3595092,22.3430325 13.3488139,22.3522967 13.3388412,22.3623447 L6.503209,29.1030238 L6.503209,22.9572468 C6.503209,22.927744 6.50169141,22.9015905 6.49865624,22.8785013 C6.45833187,22.4468624 6.09057067,22.1087916 5.64230524,22.1087916 L3.01796882,22.1087916 C2.30268087,22.1087916 1.72079578,21.5349121 1.72079578,20.8295527 L1.72079578,2.97614922 C1.72079578,2.27078981 2.30268087,1.69698157 3.01796882,1.69698157 L33.9821034,1.69698157 C34.6974637,1.69698157 35.2792765,2.27078981 35.2792765,2.97614922 L35.2792765,20.829624 L35.2792765,20.829624 C35.2792765,21.5349121 34.6973914,22.1087916 33.9821757,22.1087916 Z" id="Shape"></path>
                    <path d="M12.2336098,6 L7.76639023,6 C7.34309255,6 7,6.44784142 7,7 C7,7.55224257 7.34309255,8 7.76639023,8 L12.2336098,8 C12.6569074,8 13,7.55215858 13,7 C13,6.44775743 12.6568431,6 12.2336098,6 Z" id="Path"></path>
                    <path d="M21.1768643,11 L7.82313574,11 C7.36849601,11 7,11.4478414 7,12 C7,12.5522426 7.36849601,13 7.82313574,13 L21.1768643,13 C21.6314349,13 22,12.5523266 22,12 C22,11.4478414 21.6314349,11 21.1768643,11 Z" id="Path"></path>
                    <path d="M30.1120558,6 L17.8879442,6 C17.397509,6 17,6.44784142 17,7 C17,7.55224257 17.397509,8 17.8879442,8 L30.1120558,8 C30.6024164,8 31,7.55215858 31,7 C31,6.44767344 30.6024164,6 30.1120558,6 Z" id="Path"></path>
                    <path d="M30.1103506,11 L26.8896494,11 C26.3983471,11 26,11.4478414 26,12 C26,12.5523266 26.3984219,13 26.8896494,13 L30.1103506,13 C30.6016529,13 31,12.5523266 31,12 C31,11.4476734 30.6016529,11 30.1103506,11 Z" id="Path"></path>
                    <path d="M15.0955087,16 L6.90449131,16 C6.40491674,16 6,16.4476734 6,17 C6,17.5522426 6.40491674,18 6.90449131,18 L15.0955087,18 C15.5950833,18 16,17.5521586 16,17 C16,16.4476734 15.5950833,16 15.0955087,16 Z" id="Path"></path>
                    <path d="M29.1580511,16 L19.8419489,16 C19.3769889,16 19,16.4476734 19,17 C19,17.5522426 19.3770596,18 19.8419489,18 L29.1580511,18 C29.6230111,18 30,17.5521586 30,17 C30,16.4476734 29.6230111,16 29.1580511,16 Z" id="Path"></path>
                </g>
                <path d="M20.2855945,0.522236712 L36.1042074,0.522236712 L49.2832824,1.48485888 L49.2832824,20 C37.1507295,20 30.9177864,20 30.584453,20 C30.2511197,20 27.9177864,22.246675 23.584453,26.740025 L23.584453,20 L19.3011706,19.2279458 L19.3011706,2.80483267 L20.2855945,0.522236712 Z" id="Rectangle" fill="#DFD5C5" transform="translate(34.292227, 13.631131) scale(-1, 1) translate(-34.292227, -13.631131) "></path>
                <g id="chat" transform="translate(34.000000, 14.000000) scale(-1, 1) translate(-34.000000, -14.000000) translate(18.000000, 0.000000)" fill="#000000" fill-rule="nonzero">
                    <path d="M29.3899898,0 L2.6101352,0 C1.17094207,0 0,1.16822034 0,2.60413057 L0,18.225921 C0,19.6618935 1.17094207,20.8301139 2.6101977,20.8301139 L4.13614116,20.8301139 L4.13614116,27.2576017 C4.13614116,27.5579033 4.31751687,27.8285862 4.59551795,27.9435064 C4.68758081,27.9815429 4.78420619,28 4.88008156,28 C5.07376982,28 5.26414556,27.9245505 5.40645862,27.7825682 L12.3750483,20.8300515 L29.3898648,20.8300515 C30.8291204,20.8300515 32,19.6618312 32,18.2258586 L32,2.60413057 C32.000125,1.16822034 30.8291829,0 29.3899898,0 Z M29.3899898,19.3451927 L12.0664221,19.3451927 C11.8739214,19.3451927 11.6990457,19.4187715 11.5669827,19.5384307 C11.5657952,19.5394907 11.5644202,19.5408002 11.5632327,19.5418602 C11.5541701,19.5501534 11.5449201,19.5582596 11.5362951,19.5670516 L5.62439697,25.4651458 L5.62439697,20.0875909 C5.62439697,20.061776 5.62308447,20.0388917 5.62045945,20.0186887 C5.58558432,19.6410046 5.26752058,19.3451927 4.87983156,19.3451927 L2.6101352,19.3451927 C1.99150778,19.3451927 1.48825581,18.8430481 1.48825581,18.2258586 L1.48825581,2.60413057 C1.48825581,1.98694109 1.99150778,1.48485888 2.6101352,1.48485888 L29.3899273,1.48485888 C30.0086172,1.48485888 30.5118067,1.98694109 30.5118067,2.60413057 L30.5118067,18.225921 L30.5118067,18.225921 C30.5118067,18.8430481 30.0085547,19.3451927 29.3899898,19.3451927 Z" id="Shape"></path>
                    <path d="M10.3613415,5 L6.63865853,5 C6.28591046,5 6,5.44784142 6,6 C6,6.55224257 6.28591046,7 6.63865853,7 L10.3613415,7 C10.7140895,7 11,6.55215858 11,6 C11,5.44775743 10.7140359,5 10.3613415,5 Z" id="Path"></path>
                    <path d="M18.2866157,9 L6.71338431,9 C6.31936321,9 6,9.44784142 6,10 C6,10.5522426 6.31936321,11 6.71338431,11 L18.2866157,11 C18.6805769,11 19,10.5523266 19,10 C19,9.44784142 18.6805769,9 18.2866157,9 Z" id="Path"></path>
                    <path d="M26.238905,5 L15.761095,5 C15.340722,5 15,5.44784142 15,6 C15,6.55224257 15.340722,7 15.761095,7 L26.238905,7 C26.659214,7 27,6.55215858 27,6 C27,5.44767344 26.659214,5 26.238905,5 Z" id="Path"></path>
                    <path d="M26.2882805,9 L23.7117195,9 C23.3186777,9 23,9.44784142 23,10 C23,10.5523266 23.3187375,11 23.7117195,11 L26.2882805,11 C26.6813223,11 27,10.5523266 27,10 C27,9.44767344 26.6813223,9 26.2882805,9 Z" id="Path"></path>
                    <path d="M13.1859578,14 L5.81404218,14 C5.36442506,14 5,14.4476734 5,15 C5,15.5522426 5.36442506,16 5.81404218,16 L13.1859578,16 C13.6355749,16 14,15.5521586 14,15 C14,14.4476734 13.6355749,14 13.1859578,14 Z" id="Path"></path>
                    <path d="M25.2345919,14 L16.7654081,14 C16.3427172,14 16,14.4476734 16,15 C16,15.5522426 16.3427815,16 16.7654081,16 L25.2345919,16 C25.6572828,16 26,15.5521586 26,15 C26,14.4476734 25.6572828,14 25.2345919,14 Z" id="Path"></path>
                </g>
            </g>
        </g>
    </g>
</svg>