<?xml version="1.0" encoding="UTF-8"?>
<svg width="24px" height="24px" viewBox="0 0 24 24" version="1.1" xmlns="http://www.w3.org/2000/svg" xmlns:xlink="http://www.w3.org/1999/xlink">
    <!-- Generator: Sketch 54.1 (76490) - https://sketchapp.com -->
    <title>tag copy 4</title>
    <desc>Created with Sketch.</desc>
    <g id="Page-1" stroke="none" stroke-width="1" fill="none" fill-rule="evenodd">
        <g id="SOO-details-mobile-" transform="translate(-30.000000, -677.000000)" fill="#B00D23" fill-rule="nonzero">
            <g id="tag-copy-4" transform="translate(42.000000, 689.000000) scale(-1, 1) translate(-42.000000, -689.000000) translate(30.000000, 677.000000)">
                <path d="M3.4918439,2.90095132 L0.708423575,0.117326905 C0.544320771,-0.0410608764 0.283674911,-0.038815728 0.122429591,0.122429591 C-0.038815728,0.283674911 -0.0410608764,0.544320771 0.117326905,0.708423575 L2.90095132,3.4918439 L0.830888355,9.69897127 L15.1323253,24 L24,15.1323253 L9.69897127,0.830888355 L3.4918439,2.90095132 Z M7.74320871,7.74280052 C6.98433532,8.50126572 5.77458739,8.56229402 4.94345975,7.88363499 C4.11253621,7.20518011 3.93006371,6.00767866 4.52156857,5.11246115 L5.13634177,5.72743844 C4.8983519,6.2309728 5.02183721,6.83125432 5.43944208,7.19987333 C5.85684291,7.56849229 6.46773804,7.61686592 6.9380028,7.31825595 C7.40826755,7.01985008 7.624622,6.44651082 7.46847941,5.91174794 C7.31254093,5.37698507 6.82206947,5.00979483 6.26505885,5.0110195 C6.07911648,5.01265237 5.89582755,5.05551501 5.72825487,5.13634177 L5.11246115,4.52075214 C6.00767866,3.92924728 7.20497602,4.11151568 7.88363499,4.94243923 C8.56208987,5.77336277 8.50146982,6.98311064 7.74320871,7.74177994 L7.74320871,7.74280052 Z" id="Shape"></path>
            </g>
        </g>
    </g>
</svg>