<?xml version="1.0" encoding="utf-8"?>
<!-- Generator: Adobe Illustrator 20.1.0, SVG Export Plug-In . SVG Version: 6.00 Build 0)  -->
<svg version="1.1" id="Capa_1" xmlns="http://www.w3.org/2000/svg" xmlns:xlink="http://www.w3.org/1999/xlink" x="0px" y="0px"
	 viewBox="0 0 43.17 38.92" style="enable-background:new 0 0 43.17 38.92;" xml:space="preserve">
<style type="text/css">
	.st0{fill:#1E1348;}
	.st1{fill:#B00D23;stroke:#DFD5C5;stroke-miterlimit:10;}
	.st2{fill:none;stroke:#007EA3;stroke-miterlimit:10;}
	.st3{fill:none;stroke:#00549F;stroke-width:2;stroke-miterlimit:10;}
	.st4{fill:#B00D23;}
	.st5{fill:#FFFFFF;}
	.st6{fill:#B00D23;stroke:#FFFFFF;stroke-miterlimit:10;}
	.st7{fill:#1E1348;stroke:#1E1348;stroke-miterlimit:10;}
	.st8{fill:#1E1348;stroke:#FFFFFF;stroke-width:1.5;stroke-miterlimit:10;}
	.st9{fill:#DFD5C5;}
</style>
<g>
	<g id="Cart_2_">
		<path class="st5" d="M1.89,3.14l4.3,0.98l3.7,21.34v0.01l0.01,0.02c0.02,0.06,0.05,0.12,0.08,0.18c0.03,0.07,0.04,0.14,0.08,0.2
			c0.04,0.06,0.1,0.12,0.16,0.17c0.05,0.05,0.08,0.1,0.13,0.14c0.07,0.05,0.15,0.09,0.23,0.12c0.05,0.03,0.1,0.06,0.16,0.08
			c0.14,0.05,0.29,0.07,0.45,0.07h24.01l-0.64,2.33H8.62c-0.71,0-1.28,0.52-1.28,1.17c0,0.64,0.57,1.16,1.28,1.16h26.93
			c0.16,0,0.31-0.03,0.46-0.08c0.05-0.02,0.09-0.04,0.14-0.07c0.09-0.04,0.17-0.09,0.25-0.15c0.04-0.04,0.08-0.08,0.12-0.12
			c0.06-0.07,0.11-0.14,0.16-0.21c0.03-0.05,0.06-0.1,0.08-0.16c0.01-0.03,0.03-0.06,0.04-0.09l1.28-4.66l3.85-13.97
			c0.04-0.16,0.04-0.32,0.02-0.48c-0.01-0.04-0.03-0.08-0.05-0.12c-0.04-0.11-0.08-0.22-0.14-0.32c-0.01-0.01-0.01-0.02-0.01-0.03
			c-0.03-0.04-0.08-0.06-0.12-0.1c-0.07-0.07-0.14-0.15-0.23-0.2c-0.06-0.04-0.13-0.06-0.2-0.09c-0.06-0.03-0.12-0.07-0.19-0.08
			c-0.03-0.01-0.06,0-0.09,0c-0.03,0-0.05-0.02-0.07-0.02L9.25,6.73L8.6,3C8.52,2.54,8.14,2.16,7.65,2.05L2.52,0.88
			C1.83,0.73,1.13,1.11,0.96,1.73C0.79,2.36,1.21,2.99,1.89,3.14z M33.17,24.14L35.1,11.9l3.98,0.43l-3.25,11.81H33.17z
			 M27.91,24.14l0.65-12.96l4,0.44l-1.97,12.52H27.91z M22.01,10.47L26,10.91l-0.66,13.24h-2.68L22.01,10.47z M15.46,9.76l3.97,0.43
			l0.67,13.95h-2.66L15.46,9.76z M10.1,9.17l2.73,0.3l2.02,14.67H12.3L10.1,9.17z M11.18,35.79c0,1.29,1.1,2.33,2.45,2.33
			c1.35,0,2.45-1.04,2.45-2.33c0-1.29-1.1-2.33-2.45-2.33C12.28,33.46,11.18,34.5,11.18,35.79z"/>
		<ellipse class="st5" cx="30.69" cy="35.79" rx="2.45" ry="2.33"/>
	</g>
</g>
</svg>
