<?xml version="1.0" encoding="utf-8"?>
<!-- Generator: Adobe Illustrator 20.1.0, SVG Export Plug-In . SVG Version: 6.00 Build 0)  -->
<svg version="1.1" id="Capa_1" xmlns="http://www.w3.org/2000/svg" xmlns:xlink="http://www.w3.org/1999/xlink" x="0px" y="0px"
	 viewBox="0 0 37 37.12" style="enable-background:new 0 0 37 37.12;" xml:space="preserve">
<style type="text/css">
	.st0{fill:#1E1348;}
	.st1{fill:#B00D23;stroke:#DFD5C5;stroke-miterlimit:10;}
	.st2{fill:none;stroke:#007EA3;stroke-miterlimit:10;}
	.st3{fill:none;stroke:#00549F;stroke-width:2;stroke-miterlimit:10;}
	.st4{fill:#B00D23;}
	.st5{fill:#FFFFFF;}
	.st6{fill:#B00D23;stroke:#FFFFFF;stroke-miterlimit:10;}
	.st7{fill:#1E1348;stroke:#1E1348;stroke-miterlimit:10;}
	.st8{fill:#1E1348;stroke:#FFFFFF;stroke-width:1.5;stroke-miterlimit:10;}
	.st9{fill:#DFD5C5;}
	.st10{fill:none;}
	.st11{fill:#C0212E;}
	.st12{fill:none;stroke:#1E1348;stroke-width:2;stroke-miterlimit:10;}
</style>
<rect x="-926.5" y="-884.25" class="st10" width="1609" height="2040"/>
<rect x="-1192.5" y="-294.25" class="st10" width="1609" height="2040"/>
<g>
	<path class="st0" d="M30.58,6.75l-6.06,6.06c1.56,1.56,2.53,3.72,2.53,6.11s-0.97,4.54-2.53,6.11l6.06,6.06
		c3.11-3.11,5.04-7.41,5.04-12.16S33.69,9.87,30.58,6.75z"/>
	<g>
		<path class="st4" d="M18.42,10.28c2.39,0,4.54,0.97,6.11,2.53l6.06-6.06c-3.11-3.11-7.41-5.04-12.16-5.04S9.37,3.64,6.25,6.75
			l6.06,6.06C13.87,11.25,16.03,10.28,18.42,10.28z"/>
		<path class="st4" d="M18.42,27.55c-2.39,0-4.54-0.97-6.11-2.53l-6.06,6.06c3.11,3.11,7.41,5.04,12.16,5.04s9.05-1.93,12.16-5.04
			l-6.06-6.06C22.96,26.59,20.8,27.55,18.42,27.55z"/>
	</g>
	<path class="st0" d="M9.78,18.92c0-2.39,0.97-4.54,2.53-6.11L6.25,6.75c-3.11,3.11-5.04,7.41-5.04,12.16s1.93,9.05,5.04,12.16
		l6.06-6.06C10.75,23.46,9.78,21.3,9.78,18.92z"/>
	<path class="st5" d="M36.33,18.92c0-4.79-1.86-9.28-5.25-12.67l0,0l0,0l0,0l0,0C27.7,2.86,23.2,1,18.42,1S9.13,2.86,5.75,6.25l0,0
		l0,0l0,0l0,0C2.36,9.63,0.5,14.13,0.5,18.92c0,4.79,1.86,9.28,5.25,12.67c0,0,0,0,0,0c3.38,3.38,7.88,5.25,12.67,5.25
		s9.29-1.86,12.67-5.25c0,0,0,0,0,0C34.47,28.2,36.33,23.7,36.33,18.92z M30.57,30.06l-5.06-5.06c1.46-1.69,2.25-3.83,2.25-6.09
		s-0.8-4.39-2.25-6.09l5.06-5.06c2.8,3.05,4.34,6.98,4.34,11.14S33.37,27.01,30.57,30.06z M24.02,24.52c-1.5,1.5-3.49,2.32-5.6,2.32
		s-4.11-0.82-5.6-2.32c0,0,0,0,0,0c-1.5-1.5-2.32-3.49-2.32-5.6c0-2.12,0.82-4.11,2.32-5.6c1.5-1.5,3.49-2.32,5.6-2.32
		s4.11,0.82,5.6,2.32c1.5,1.5,2.32,3.49,2.32,5.6C26.34,21.03,25.52,23.02,24.02,24.52C24.02,24.52,24.02,24.52,24.02,24.52z
		 M29.56,6.76l-5.06,5.06c-1.69-1.46-3.83-2.25-6.09-2.25s-4.39,0.8-6.09,2.25L7.27,6.76c3.05-2.8,6.98-4.34,11.14-4.34
		S26.51,3.96,29.56,6.76z M6.26,7.77l5.06,5.06c-1.46,1.69-2.25,3.83-2.25,6.09s0.8,4.39,2.25,6.09l-5.06,5.06
		c-2.8-3.05-4.34-6.98-4.34-11.14S3.46,10.82,6.26,7.77z M7.27,31.07l5.06-5.06c1.69,1.46,3.83,2.25,6.09,2.25s4.39-0.8,6.09-2.25
		l5.06,5.06c-3.05,2.8-6.98,4.34-11.14,4.34S10.32,33.87,7.27,31.07z"/>
	<path class="st5" d="M7.01,11.06c0.22-0.32,0.14-0.77-0.18-0.99c-0.32-0.22-0.77-0.14-0.99,0.18c-0.34,0.5-0.66,1.02-0.94,1.55
		c-0.18,0.35-0.05,0.78,0.3,0.96c0.11,0.06,0.22,0.08,0.33,0.08c0.26,0,0.5-0.14,0.63-0.38C6.41,11.98,6.7,11.51,7.01,11.06z"/>
	<path class="st5" d="M4.76,13.81c-0.38-0.12-0.78,0.09-0.9,0.46c-0.48,1.5-0.72,3.06-0.72,4.64c0,1.27,0.16,2.53,0.46,3.74
		c0.08,0.32,0.37,0.54,0.69,0.54c0.06,0,0.12-0.01,0.17-0.02c0.38-0.1,0.61-0.48,0.52-0.87c-0.28-1.1-0.42-2.25-0.42-3.39
		c0-1.44,0.22-2.85,0.65-4.21C5.34,14.33,5.13,13.93,4.76,13.81z"/>
</g>
</svg>
